<?xml version="1.0" standalone="no"?>
<!DOCTYPE svg PUBLIC "-//W3C//DTD SVG 20010904//EN"
 "http://www.w3.org/TR/2001/REC-SVG-20010904/DTD/svg10.dtd">
<svg version="1.0" xmlns="http://www.w3.org/2000/svg"
 width="512.000000pt" height="512.000000pt" viewBox="0 0 512.000000 512.000000"
 preserveAspectRatio="xMidYMid meet">
<metadata>
Created by potrace 1.14, written by Peter Selinger 2001-2017
</metadata>
<g transform="translate(0.000000,512.000000) scale(0.100000,-0.100000)"
fill="#000000" stroke="none">
<path d="M655 5100 c-308 -81 -530 -295 -617 -596 l-23 -79 0 -1860 0 -1860
23 -80 c66 -229 225 -420 437 -525 196 -98 3 -90 2089 -90 1795 0 1833 1 1914
20 306 73 544 308 622 614 20 78 20 107 20 1921 0 1813 0 1843 -20 1921 -76
297 -324 543 -620 614 -84 20 -109 20 -1920 19 -1752 0 -1838 -1 -1905 -19z
m3234 -1501 c115 -272 206 -495 201 -497 -5 -2 -75 11 -156 28 -81 17 -150 27
-154 23 -4 -4 -120 -483 -259 -1063 -139 -580 -254 -1056 -255 -1057 -2 -2
-465 176 -474 182 -2 2 96 460 218 1020 121 559 220 1020 220 1024 0 4 -79 30
-175 57 -96 27 -174 52 -173 55 4 9 792 728 795 725 1 -1 97 -225 212 -497z
m-1432 -692 c105 -194 190 -353 189 -354 -1 -1 -52 12 -114 29 -61 17 -114 30
-116 27 -2 -2 -38 -271 -79 -597 -41 -327 -78 -596 -81 -599 -5 -5 -314 114
-329 127 -5 4 11 262 34 573 23 311 39 572 36 580 -3 7 -48 26 -101 42 -53 15
-99 31 -101 35 -5 7 454 490 465 490 3 -1 91 -159 197 -353z m-942 -448 c77
-149 141 -274 143 -278 1 -4 -33 -1 -77 7 -45 9 -83 14 -85 11 -3 -2 -8 -120
-12 -262 -4 -141 -9 -257 -12 -257 -3 0 -66 19 -139 42 l-133 41 0 257 0 256
-80 23 c-45 13 -79 28 -77 34 4 12 320 396 327 396 3 1 68 -121 145 -270z"/>
</g>
</svg>
