<svg clip-rule="evenodd" fill-rule="evenodd" stroke-linejoin="round" stroke-miterlimit="2" viewBox="0 0 200 200" xmlns="http://www.w3.org/2000/svg"><path d="m0 0h200v200h-200z" fill="#bec2c9"/><g fill="#f5f5f7" fill-rule="nonzero"><path d="m125.219 141.559c6.189 3.094 17.678 5.233 27.151 7.339 10.867 2.414 7.667 1.847 12.624 3.602 7.265 2.344 13.491 4.171 16.5 7 10.267 10.178 6.833 20.701 18.5 51.458 2.39 6.008 9.948 8.661 11.039 11.688-13.44 6.388-26.627 12.939-40.067 19.327.624 19.006 1.294 38.221 2.126 57.182-5.298 8.759-26.123 40.455-68.354 54.812-45.519 15.285-83.779-.365-92.698-4.308-2.498-18.601-4.833-37.455-7.332-56.056.841-43.468 1.329-74.462 1.956-82.645.175-2.214.334-5.511-1.1-9.116-1.569-4.228-1.021 7.87-3.57 5.158-2.205-2.133-1.95 8.187-14.5-6.5-5.279 16.612-15.605-16.579-20.494-22.047 2.951-6.511 7.18-14.169 12.911-21.935 8.061-11.097 6.913 10.462 14.017 5.01.884-10.244-11.253 19.472 1.566 19.472 13.262-7.691 4.51-20.543 34-28.5 11.052-5.305 14.087-6.337 28.974-12.267 22.688-6.005 22.545-7.957 66.751 1.326z"/><path d="m116.58 113.442c2.12 4.762-3.751 8.86-3.782 17.785-.153 6.341 2.771 11.799 5.246 15.179-3.779 9.735-11.923 15.413-18.709 14.271-8.795-1.36-11.819-13.322-12.837-17.017-3.501-13.164.562-31.662 12.161-35.477 6.691-2.317 15.756.29 17.921 5.259z"/><path d="m123.846 83.591c6.474-8.362 8.109-18.939 8.374-20.736.485-3.803.57-6.432.447-9.015-.094-3.46-.447-10.127-2.501-10.553-1.592-.308-3.208 3.305-4.637 2.744-1.176-.398-.765-3.533-1.202-7.571-.663-5.077-2.816-12.007-5.494-12.297-1.34-.146-1.605 1.652-6.181 5.687-2.764 2.338-4.041 3.485-6.287 4.188-3.286.929-5.43.087-6.038 1.306-.772 1.472 1.777 4.184 1.197 4.527 0 0-.535.551-7.342-4.72 0 0-1.87 3.45-4.74 4.288-1.621.569-2.054-.425-4.389-.138-1.294.063-2.544.333-4.536 1.199-5.189 2.21-9.275 5.487-9.23 5.695s4.637-2.744 4.637-2.744-4.564 2.076-9.23 5.695c-1.695 1.237-3.344 2.681-4.74 4.288-1.233 1.355-2.302 2.456-3.192 4.389-1.379 2.691-1.718 5.157-1.746 6.033-.294 2.674.421 2.954-.142 4.381-.327.506-.445.966-3.192 4.389-4.768 5.164-4.735 7.332-4.735 7.332-.028.876.45 2.078 1.197 4.526 1.046 2.819 1.614 4.437 2.851 6.127 1.969 3.054 2.875 2.205 4.293 4.726 1.715 2.892.527 4.454 2.749 7.671 1.282 1.898 2.593 2.92 2.846 3.082 2.026 1.302 3.827 1.565 4.496 1.638 6.325 1.024 10.035 14.143 14.379 14.073 4.136-.025 3.718-11.028 11.469-20.535 9.593-12.081 20.626-6.42 30.619-19.675z"/><path d="m124.043 63.32c2.205 2.134 3.459 4.908 5.595 10.753 1.957 5.015 4.004 10.445 5.251 18.224 1.157 7.362 1.802 11.356.754 16.585-.62 3.18-1.831 8.662-6.526 13.158-1.604 1.652-5.319 4.631-10.778 5.595-6.083 1.098-10.877-.91-13.527-2.077-5.3-2.333-8.445-5.786-10.234-8.009.033 2.168.696 7.245 3.947 12.197 5.085 7.383 12.883 9.176 14.729 9.647 2.858 1.122 5.925 2.199 8.783 3.32 1.734 15.069-4.704 17.55-15.858 20.398-13.445 3.343-26.347 1.132-27.152.436-9.107-10.863-6.717-23.997-6.452-25.794 1.143-1.77 3.502-5.978 3.537-11.859.008-5.004-1.679-8.772-2.5-10.552l8.328-1.802c-1.474-.769-5.435-2.957-7.138-7.809-.478-1.202-2.525-6.632.341-10.515.371-.298 2.747-3.422 6.14-2.851 2.723.499 4.096 2.812 4.394 3.183-1.074-1.943-2.761-5.711-2.501-10.553s2.338-8.336 3.436-10.314c.608-1.219 1.588-2.736 3.192-4.388 2.674-2.754 5.127-3.502 9.23-5.695 9.084-4.358 7.818-5.172 10.778-5.595 5.088-.665 10.461 1 14.231 4.317z"/><path d="m112.486 135.861c3.945 1.104 8.44 2.742 13.324 5.165 2.189 1.049 4.169 2.144 5.941 3.283-2.759 5.382-6.75 12.119-12.869 19.098-5.585 6.428-11.112 11.105-15.66 14.264-3.679-2.902-5.142-5.631-5.591-7.709-.703-2.241-.528-4.454-1.197-4.526-.67-.073-1.605 1.652-3.192 4.388-1.262 2.231-2.894 4.759-4.735 7.332-1.013-.651-2.532-1.627-4.394-3.182-8.253-6.915-9.618-14.233-18.432-27.77-.985-1.527-2.312-3.633-4.191-6.271 1.874-.406 4.002-.649 6.039-1.307 1.666-.36 3.078-.883 4.536-1.199 2.446 4.256 5.861 8.956 9.99 13.935 4.978 5.884 10.148 10.639 14.379 14.074 3.196-1.345 7.834-4.088 12.32-8.539 5.601-5.344 8.27-11.142 9.678-14.71-.923-.235-2.858-1.121-4.394-3.182-.939-1.319-1.164-2.358-1.552-3.144z"/><path d="m79.863 97.893c-.755 2.556.083 5.42 2.198 7.137.326-.505.445-.966.771-1.472-1.429-.56-3.229-.823-4.732-.716-.416.09-.996.433-.906.849-.119.46.433.994.849.904 1.503-.108 2.842.037 4.271.598.461.118.878.028.996-.433.119-.461.029-.876-.224-1.039-.254-.163-.805-.696-.85-.904-.045-.207-.298-.37-.388-.786-.045-.208-.045-.208-.09-.415 0 0-.045-.208 0 0l-.045-.208c-.09-.416-.225-1.039-.314-1.455.073-.668.028-.876.146-1.337.4-1.174-1.237-1.689-1.682-.723z"/></g></svg>