<svg viewBox="0 0 980.96 374.39" xmlns="http://www.w3.org/2000/svg"><g fill="#f0f0f0"><path d="m0 306.7v-74.46l168.19-230.68h95.81v227.55h44.26v77.59h-44.26v67.69h-90.08v-67.69zm181.21-202-90.61 124.41h90.61z"/><path d="m344 186.41q0-85.91 34.89-136.16t111.46-50.25q76 0 111.17 50.25t35.15 136.16q0 86.45-35.15 137t-111.17 50.46q-76.55 0-111.43-50.51t-34.92-136.95zm204.12 0q0-49.46-11.72-75.76t-46.05-26.29q-34.89 0-46.86 26.55t-12 75.5q0 49.49 12 76.29t46.86 26.81q34.36 0 46.08-26.81t11.72-76.29z"/><path d="m672.7 306.7v-74.46l168.19-230.68h95.81v227.55h44.3v77.59h-44.3v67.69h-90.08v-67.69zm181.21-202-90.6 124.45h90.6z"/></g></svg>