<svg width="1380" height="325" viewBox="0 0 1380 325" fill="none" xmlns="http://www.w3.org/2000/svg">
<g clip-path="url(#clip0_3_312)">
<path d="M1360.74 -2.66992H19.27C8.22432 -2.66992 -0.72998 6.28441 -0.72998 17.3301V307.68C-0.72998 318.726 8.22438 327.68 19.2701 327.68H1360.74C1371.79 327.68 1380.74 318.726 1380.74 307.68V17.3301C1380.74 6.28438 1371.79 -2.66992 1360.74 -2.66992Z" fill="#FFEAE9"/>
<path d="M352.23 319.75L352.18 310.64H335.1L335 324L336 324.07C340.72 324.34 360 325.07 363.13 324.13C366.74 323 352.23 319.75 352.23 319.75Z" fill="#FE736B"/>
<g opacity="0.6">
<path opacity="0.6" d="M341.21 324.05C340.963 322.607 340.185 321.309 339.03 320.41C337.901 319.506 336.473 319.06 335.03 319.16V323.93L341.21 324.05Z" fill="white"/>
</g>
<g opacity="0.6">
<path opacity="0.6" d="M359.29 321.6C359.29 321.6 364.38 323.07 363.74 323.9C363.1 324.73 343.61 324.72 335.01 323.95V323.57L357.75 323.79C357.75 323.79 358.3 321.64 359.29 321.6Z" fill="white"/>
</g>
<path d="M334.92 323.44H335.21H336.05L339.16 323.58C341.78 323.68 345.4 323.76 349.4 323.77C353.4 323.78 357.03 323.71 359.65 323.62L362.76 323.5L363.6 323.45H363.89H362.75L359.65 323.5C357.03 323.55 353.4 323.6 349.4 323.59C345.4 323.58 341.78 323.52 339.16 323.46L336.05 323.39H334.92V323.44Z" fill="#1A2E35"/>
<path d="M357.78 324.12C357.915 323.606 358.109 323.109 358.36 322.64C358.67 322.21 359.025 321.814 359.42 321.46C358.886 321.648 358.443 322.03 358.18 322.53C357.855 322.993 357.713 323.559 357.78 324.12Z" fill="#1A2E35"/>
<path d="M352.42 321.16C352.47 321.16 352.71 320.9 352.96 320.51C353.21 320.12 353.37 319.77 353.32 319.74C353.27 319.71 353.03 320 352.78 320.39C352.53 320.78 352.37 321.13 352.42 321.16Z" fill="#1A2E35"/>
<path d="M351 320.43C351 320.43 351.3 320.29 351.6 320.03C351.9 319.77 352.1 319.51 352.06 319.47C352.02 319.43 351.76 319.61 351.46 319.87C351.16 320.13 351 320.39 351 320.43Z" fill="#1A2E35"/>
<path d="M350.16 318.81C350.447 318.919 350.755 318.96 351.06 318.93C351.36 318.965 351.664 318.934 351.95 318.84C351.666 318.733 351.362 318.692 351.06 318.72C350.757 318.693 350.452 318.723 350.16 318.81Z" fill="#1A2E35"/>
<path d="M349.87 317.68C350.165 317.88 350.515 317.981 350.87 317.97C351.21 318.025 351.558 317.976 351.87 317.83C351.539 317.779 351.205 317.756 350.87 317.76C350.54 317.7 350.205 317.673 349.87 317.68Z" fill="#1A2E35"/>
<path d="M353 319.67C353.364 319.734 353.736 319.734 354.1 319.67C354.497 319.62 354.889 319.533 355.27 319.41C355.499 319.343 355.72 319.252 355.93 319.14C356.058 319.061 356.157 318.941 356.21 318.8C356.225 318.718 356.217 318.634 356.187 318.556C356.157 318.478 356.106 318.411 356.04 318.36C355.623 318.151 355.145 318.094 354.69 318.2C354.235 318.306 353.832 318.568 353.55 318.94C353.386 319.159 353.264 319.407 353.19 319.67C353.17 319.769 353.17 319.871 353.19 319.97C353.305 319.632 353.474 319.315 353.69 319.03C353.943 318.748 354.268 318.54 354.63 318.43C354.843 318.355 355.069 318.325 355.294 318.34C355.52 318.356 355.739 318.417 355.94 318.52C356.11 318.65 356.05 318.85 355.85 318.97C355.654 319.073 355.45 319.16 355.24 319.23C354.87 319.352 354.493 319.449 354.11 319.52C353.42 319.64 353 319.64 353 319.67Z" fill="#1A2E35"/>
<path d="M353.28 319.73C353.419 319.499 353.465 319.224 353.41 318.96C353.375 318.674 353.272 318.399 353.11 318.16C353.018 317.997 352.887 317.86 352.727 317.762C352.568 317.664 352.387 317.609 352.2 317.6C352.088 317.624 351.99 317.691 351.926 317.786C351.863 317.882 351.839 317.998 351.86 318.11C351.886 318.286 351.951 318.453 352.05 318.6C352.189 318.842 352.361 319.064 352.56 319.26C352.731 319.458 352.947 319.612 353.19 319.71C353.19 319.71 352.97 319.51 352.67 319.16C352.493 318.957 352.339 318.736 352.21 318.5C352.06 318.27 351.96 317.86 352.21 317.81C352.46 317.76 352.77 318.05 352.94 318.27C353.09 318.488 353.195 318.732 353.25 318.99C353.287 319.235 353.297 319.483 353.28 319.73Z" fill="#1A2E35"/>
<path d="M334.8 319.09C334.8 319.09 335.29 319.09 336.06 319.09C337.065 319.216 338.019 319.61 338.82 320.23C339.603 320.871 340.195 321.715 340.53 322.67C340.657 323.068 340.764 323.472 340.85 323.88C340.85 323.88 340.85 323.76 340.85 323.54C340.819 323.228 340.756 322.919 340.66 322.62C340.355 321.616 339.754 320.728 338.934 320.073C338.115 319.418 337.116 319.026 336.07 318.95C335.757 318.918 335.442 318.918 335.13 318.95C335.012 318.977 334.9 319.024 334.8 319.09Z" fill="#1A2E35"/>
<path d="M336.58 311.45C336.468 312.613 336.418 313.782 336.43 314.95C336.382 316.124 336.399 317.299 336.48 318.47C336.605 317.305 336.658 316.132 336.64 314.96C336.688 313.79 336.668 312.618 336.58 311.45Z" fill="#1A2E35"/>
<path d="M343 321.82C343.815 322.016 344.652 322.1 345.49 322.07C346.328 322.113 347.168 322.049 347.99 321.88C347.99 321.82 346.87 321.88 345.5 321.88C344.13 321.88 343 321.76 343 321.82Z" fill="#1A2E35"/>
<path d="M339.68 321.81C339.68 321.86 339.78 322.05 339.89 322.31C340 322.57 340.06 322.79 340.12 322.79C340.18 322.79 340.21 322.52 340.12 322.22C340.03 321.92 339.72 321.77 339.68 321.81Z" fill="#1A2E35"/>
<path d="M338.43 320.24C338.38 320.24 338.49 320.46 338.67 320.64C338.85 320.82 339.02 320.93 339.06 320.89C339.1 320.85 339 320.67 338.82 320.5C338.64 320.33 338.47 320.2 338.43 320.24Z" fill="#1A2E35"/>
<path d="M336.62 319.52C336.62 319.58 336.86 319.58 337.11 319.67C337.36 319.76 337.54 319.89 337.59 319.85C337.64 319.81 337.49 319.58 337.18 319.47C336.87 319.36 336.6 319.47 336.62 319.52Z" fill="#1A2E35"/>
<path d="M335.34 319.18C335.34 319.24 335.41 319.32 335.56 319.38C335.71 319.44 335.83 319.44 335.85 319.38C335.87 319.32 335.77 319.24 335.63 319.19C335.49 319.14 335.36 319.13 335.34 319.18Z" fill="#1A2E35"/>
<path d="M410.14 18.7302L259.81 24.7802V59.4502L412.37 53.8502L410.14 18.7302Z" fill="#FE736B"/>
<path d="M437 31.6103C437 31.6103 445.55 30.6103 447.58 34.2803C447.58 34.2803 445.85 38.9603 437.37 38.5703L437 31.6103Z" fill="#FE736B"/>
<path d="M437.74 30.0002L438.61 39.5902L428.3 40.5902C428.3 40.5902 424.07 40.9302 419.18 46.1902C414.29 51.4502 412.37 53.8402 412.37 53.8402L410.14 18.7202L416.92 25.0702C418.261 26.3187 419.802 27.3328 421.48 28.0702C423.519 29.0679 425.681 29.7941 427.91 30.2302C431.188 30.3712 434.472 30.2944 437.74 30.0002Z" fill="#1A2E35"/>
<path d="M259.81 24.7803C259.81 24.7803 250.74 29.9703 252.55 43.3803C254.1 54.9403 259.81 59.4503 259.81 59.4503V24.7803Z" fill="#1A2E35"/>
<g opacity="0.4">
<path opacity="0.4" d="M410.86 31.5303L259.81 37.0503V46.4303L411.42 40.4003L410.86 31.5303Z" fill="white"/>
</g>
<path d="M299.9 320.3L299.95 311.18H317L317.07 324.52L316.01 324.59C311.3 324.85 292.01 325.59 288.88 324.65C285.39 323.58 299.9 320.3 299.9 320.3Z" fill="#FE736B"/>
<g opacity="0.6">
<path opacity="0.6" d="M310.92 324.59C311.17 323.151 311.943 321.855 313.09 320.95C314.219 320.046 315.648 319.603 317.09 319.71V324.48L310.92 324.59Z" fill="white"/>
</g>
<g opacity="0.6">
<path opacity="0.6" d="M292.83 322.14C292.83 322.14 287.75 323.61 288.38 324.45C289.01 325.29 308.52 325.26 317.11 324.5V324.11L294.36 324.34C294.36 324.34 293.83 322.18 292.83 322.14Z" fill="white"/>
</g>
<path d="M317.21 324H316.92L316.07 324.06L312.97 324.19C310.35 324.29 306.73 324.38 302.72 324.39C298.71 324.4 295.09 324.32 292.47 324.24L289.37 324.11L288.53 324.06H288.23H289.37L292.48 324.12C295.1 324.12 298.72 324.22 302.72 324.21C306.72 324.2 310.34 324.14 312.97 324.08L316.07 324.01H316.91L317.21 324Z" fill="#1A2E35"/>
<path d="M294.35 324.67C294.204 324.158 294.006 323.662 293.76 323.19C293.459 322.75 293.103 322.35 292.7 322C293.233 322.193 293.676 322.579 293.94 323.08C294.265 323.543 294.411 324.108 294.35 324.67Z" fill="#1A2E35"/>
<path d="M299.71 321.71C299.71 321.71 299.42 321.44 299.17 321.05C298.92 320.66 298.75 320.32 298.8 320.29C298.85 320.26 299.09 320.55 299.34 320.94C299.59 321.33 299.76 321.68 299.71 321.71Z" fill="#1A2E35"/>
<path d="M301.09 321C301.09 321 300.78 320.87 300.49 320.6C300.2 320.33 299.98 320.09 300.02 320.05C300.06 320.01 300.33 320.18 300.62 320.45C300.91 320.72 301.13 320.93 301.09 321Z" fill="#1A2E35"/>
<path d="M302 319.36C301.414 319.494 300.806 319.494 300.22 319.36C300.504 319.257 300.809 319.219 301.11 319.25C301.411 319.216 301.716 319.253 302 319.36Z" fill="#1A2E35"/>
<path d="M302.26 318.22C301.964 318.417 301.615 318.519 301.26 318.51C300.921 318.565 300.573 318.52 300.26 318.38C300.59 318.323 300.925 318.3 301.26 318.31C301.59 318.256 301.925 318.225 302.26 318.22Z" fill="#1A2E35"/>
<path d="M299.13 320.22C298.766 320.28 298.394 320.28 298.03 320.22C297.634 320.171 297.242 320.087 296.86 319.97C296.628 319.899 296.404 319.805 296.19 319.69C296.125 319.654 296.067 319.606 296.021 319.547C295.975 319.489 295.94 319.422 295.92 319.35C295.902 319.269 295.907 319.185 295.935 319.106C295.963 319.028 296.014 318.96 296.08 318.91C296.499 318.702 296.977 318.647 297.432 318.755C297.887 318.863 298.29 319.126 298.57 319.5C298.746 319.712 298.87 319.962 298.93 320.23C298.956 320.328 298.956 320.432 298.93 320.53C298.823 320.189 298.653 319.87 298.43 319.59C298.181 319.301 297.855 319.09 297.49 318.98C297.058 318.839 296.589 318.871 296.18 319.07C296.01 319.2 296.08 319.41 296.27 319.52C296.466 319.631 296.674 319.719 296.89 319.78C297.258 319.911 297.636 320.011 298.02 320.08C298.71 320.18 299.13 320.18 299.13 320.22Z" fill="#1A2E35"/>
<path d="M298.84 320.27C298.708 320.04 298.662 319.771 298.71 319.51C298.748 319.224 298.85 318.95 299.01 318.71C299.102 318.545 299.235 318.407 299.396 318.309C299.557 318.21 299.741 318.156 299.93 318.15C300.039 318.174 300.135 318.24 300.196 318.333C300.258 318.427 300.281 318.54 300.26 318.65C300.239 318.825 300.177 318.993 300.08 319.14C299.937 319.386 299.762 319.611 299.56 319.81C299.394 320.012 299.176 320.164 298.93 320.25C298.93 320.25 299.15 320.06 299.45 319.71C299.627 319.508 299.782 319.287 299.91 319.05C300.06 318.82 300.17 318.4 299.91 318.35C299.65 318.3 299.36 318.6 299.19 318.82C299.037 319.032 298.931 319.274 298.88 319.53C298.849 319.776 298.836 320.023 298.84 320.27Z" fill="#1A2E35"/>
<path d="M317.32 319.63C317.32 319.63 316.83 319.63 316.06 319.68C315.057 319.802 314.106 320.196 313.31 320.82C312.528 321.46 311.934 322.3 311.59 323.25C311.33 323.98 311.31 324.48 311.27 324.47C311.251 324.358 311.251 324.243 311.27 324.13C311.301 323.815 311.362 323.504 311.45 323.2C311.767 322.203 312.369 321.32 313.18 320.66C314.003 320.006 315.003 319.613 316.05 319.53C316.363 319.497 316.678 319.497 316.99 319.53C317.105 319.546 317.216 319.58 317.32 319.63Z" fill="#1A2E35"/>
<path d="M315.54 312C315.664 313.166 315.718 314.338 315.7 315.51C315.748 316.68 315.728 317.852 315.64 319.02C315.522 317.854 315.472 316.682 315.49 315.51C315.442 314.34 315.458 313.168 315.54 312Z" fill="#1A2E35"/>
<path d="M309.09 322.37C308.274 322.561 307.437 322.645 306.6 322.62C305.761 322.668 304.92 322.601 304.1 322.42C304.1 322.36 305.22 322.42 306.6 322.42C307.98 322.42 309.09 322.31 309.09 322.37Z" fill="#1A2E35"/>
<path d="M312.44 322.36C312.44 322.36 312.35 322.6 312.24 322.85C312.13 323.1 312.06 323.34 312 323.33C311.94 323.32 311.91 323.06 312.05 322.77C312.19 322.48 312.4 322.32 312.44 322.36Z" fill="#1A2E35"/>
<path d="M313.7 320.79C313.7 320.79 313.63 321.01 313.45 321.19C313.27 321.37 313.1 321.48 313.06 321.44C313.02 321.4 313.13 321.22 313.31 321.04C313.49 320.86 313.66 320.75 313.7 320.79Z" fill="#1A2E35"/>
<path d="M315.5 320.07C315.5 320.13 315.26 320.13 315.01 320.21C314.76 320.29 314.58 320.44 314.54 320.4C314.5 320.36 314.64 320.12 314.95 320.02C315.26 319.92 315.52 320 315.5 320.07Z" fill="#1A2E35"/>
<path d="M316.79 319.73C316.79 319.73 316.71 319.87 316.57 319.93C316.43 319.99 316.3 319.98 316.27 319.93C316.24 319.88 316.35 319.79 316.49 319.73C316.63 319.67 316.77 319.68 316.79 319.73Z" fill="#1A2E35"/>
<path d="M361.49 64.7802C361.49 64.7802 388 76.0002 388.83 75.5502C389.66 75.1002 390.29 54.6602 390.29 54.6602L403.51 54.1702C403.51 54.1702 406 85.4402 398 90.5102C387.18 97.4402 360.9 83.0002 360.9 83.0002L361.49 64.7802Z" fill="#FFBF9D"/>
<path d="M348.16 57.4403C348.16 54.1303 348.22 51.2503 348.22 51.2503C348.22 51.2503 354.9 50.5403 355.31 43.9103C355.72 37.2803 355.31 22.0003 355.31 22.0003L343.14 16.0503L329.75 26.1903L331.16 57.7503C331.258 59.9364 332.195 62.0006 333.776 63.5131C335.358 65.0256 337.462 65.8699 339.65 65.8703C341.893 65.8704 344.046 64.9848 345.639 63.4061C347.233 61.8274 348.139 59.6834 348.16 57.4403Z" fill="#FFBF9D"/>
<path d="M353.67 33.6403C353.67 33.8519 353.608 34.0588 353.49 34.2348C353.372 34.4107 353.205 34.5479 353.01 34.6289C352.814 34.7099 352.599 34.731 352.392 34.6898C352.184 34.6485 351.993 34.5466 351.844 34.3969C351.694 34.2473 351.592 34.0566 351.551 33.8491C351.51 33.6415 351.531 33.4264 351.612 33.2308C351.693 33.0353 351.83 32.8682 352.006 32.7506C352.182 32.6331 352.389 32.5703 352.6 32.5703C352.884 32.5703 353.156 32.683 353.357 32.8837C353.558 33.0844 353.67 33.3565 353.67 33.6403Z" fill="#1A2E35"/>
<path d="M354.7 32.4802C354.56 32.6102 353.77 31.9502 352.63 31.8902C351.49 31.8302 350.63 32.3702 350.51 32.2202C350.39 32.0702 350.59 31.9002 350.97 31.6402C351.475 31.3109 352.073 31.1535 352.675 31.1913C353.277 31.2291 353.85 31.4602 354.31 31.8502C354.65 32.1502 354.76 32.4202 354.7 32.4802Z" fill="#1A2E35"/>
<path d="M343.85 33.8502C343.85 34.0801 343.782 34.3047 343.654 34.4957C343.526 34.6867 343.344 34.8354 343.132 34.9229C342.919 35.0103 342.686 35.0327 342.46 34.9872C342.235 34.9416 342.028 34.8301 341.866 34.6669C341.705 34.5036 341.595 34.296 341.551 34.0703C341.508 33.8447 341.532 33.6111 341.621 33.3993C341.711 33.1876 341.861 33.0071 342.053 32.8808C342.245 32.7546 342.47 32.6882 342.7 32.6902C343.006 32.6929 343.299 32.8162 343.514 33.0335C343.729 33.2508 343.85 33.5443 343.85 33.8502Z" fill="#1A2E35"/>
<path d="M344.57 32.5901C344.42 32.7401 343.57 32.0101 342.32 31.9501C341.07 31.8901 340.14 32.4801 340.01 32.3101C339.88 32.1401 340.1 31.9601 340.51 31.6801C341.06 31.3214 341.711 31.1491 342.366 31.1887C343.022 31.2283 343.647 31.4777 344.15 31.9001C344.52 32.2301 344.64 32.5201 344.57 32.5901Z" fill="#1A2E35"/>
<path d="M347.87 39.9302C348.36 40.0728 348.872 40.1203 349.38 40.0702C349.516 40.0884 349.654 40.0884 349.79 40.0702C349.887 40.0487 349.979 40.0038 350.055 39.9393C350.132 39.8749 350.192 39.7929 350.23 39.7002C350.321 39.3678 350.293 39.0139 350.15 38.7002L349.56 36.7902C349.12 35.1321 348.503 33.5262 347.72 32.0002C347.972 33.7098 348.411 35.3866 349.03 37.0002C349.24 37.6502 349.45 38.2702 349.66 38.8902C349.77 39.0991 349.818 39.3349 349.8 39.5702C349.8 39.6802 349.6 39.7302 349.36 39.7402C348.856 39.7122 348.351 39.7766 347.87 39.9302Z" fill="#1A2E35"/>
<path d="M343.49 40.3802C343.49 41.1402 342.3 41.6802 340.89 41.7102C339.48 41.7402 338.31 41.2502 338.27 40.5002C338.23 39.7502 339.38 39.0002 340.86 39.0002C342.34 39.0002 343.51 39.6302 343.49 40.3802Z" fill="#FF9A6E"/>
<path d="M355.4 41.6302C353.94 41.6302 352.91 40.9702 352.87 40.4302C352.83 39.8902 353.87 39.0202 355.47 38.9102C355.47 39.3402 355.47 39.7802 355.47 40.2302C355.47 40.6802 355.43 41.1802 355.4 41.6302Z" fill="#FF9A6E"/>
<path d="M345 42.1102C343.75 41.5402 348.42 43.4602 350.7 43.1102C350.385 43.7438 349.864 44.2518 349.223 44.5515C348.582 44.8511 347.858 44.9247 347.17 44.7602C344.61 44.1202 345 42.1102 345 42.1102Z" fill="white"/>
<path d="M348.53 51.2502C345.377 51.109 342.33 50.068 339.75 48.2502C339.75 48.2502 341.75 53.1202 348.39 52.8402L348.53 51.2502Z" fill="#FF9A6E"/>
<path d="M309.35 49.2001C312.678 46.7774 315.361 43.5734 317.16 39.8701C319.09 35.7701 318.33 34.1201 320.59 28.1201C322.2 23.8401 323.29 20.9501 326.05 18.0601C329.393 14.4961 333.902 12.2471 338.76 11.7201C341.34 11.7201 345.85 10.3001 352.42 17.1301C358.99 23.9601 355.42 31.3101 355.42 31.3101L354.32 30.3101L344.62 27.8101C345.39 25.1901 344.26 21.9401 343.62 20.4301L343.56 20.3701C341.62 30.2901 330.69 31.3701 330.69 31.3701C332.211 36.8591 332.699 42.5828 332.13 48.2501C331.933 50.2507 331.599 52.2354 331.13 54.1901C327.018 55.5839 322.58 55.7024 318.4 54.5301C314.986 53.5356 311.875 51.7034 309.35 49.2001Z" fill="#1A2E35"/>
<path d="M345.36 13.3803C345.36 13.5503 346.55 13.8303 348.36 14.6803C350.673 15.7536 352.692 17.3682 354.248 19.3873C355.805 21.4065 356.851 23.7708 357.3 26.2803C357.67 28.2203 357.62 29.4703 357.8 29.4803C357.98 29.4903 358.27 28.2403 358.09 26.1703C357.834 23.4507 356.813 20.8593 355.146 18.6952C353.479 16.5312 351.234 14.8827 348.67 13.9403C346.67 13.2403 345.37 13.2503 345.36 13.3803Z" fill="#1A2E35"/>
<path d="M328.94 39.6502C329.042 38.547 328.92 37.4346 328.58 36.3802C328.403 35.8556 328.089 35.3879 327.671 35.0256C327.252 34.6634 326.744 34.4198 326.2 34.3202C325.563 34.292 324.937 34.4982 324.441 34.8999C323.946 35.3016 323.614 35.8708 323.51 36.5002C323.436 37.1346 323.553 37.7766 323.845 38.3447C324.137 38.9127 324.591 39.3811 325.15 39.6902C325.716 39.9824 326.341 40.1431 326.978 40.1604C327.616 40.1777 328.248 40.0512 328.83 39.7902" fill="#FFBF9D"/>
<path d="M327 39.1303C327 39.0503 326.75 38.9603 326.43 38.6703C326.221 38.5061 326.052 38.2978 325.935 38.0603C325.817 37.8228 325.753 37.5621 325.748 37.2971C325.744 37.0321 325.798 36.7693 325.907 36.5277C326.016 36.2861 326.178 36.0718 326.38 35.9003C326.68 35.6103 326.95 35.5003 326.93 35.4203C326.91 35.3403 326.59 35.3103 326.14 35.5803C325.836 35.7556 325.584 36.0078 325.408 36.3114C325.233 36.6151 325.14 36.9595 325.14 37.3103C325.147 37.6542 325.243 37.9904 325.418 38.2864C325.593 38.5825 325.842 38.8283 326.14 39.0003C326.64 39.2503 327 39.2003 327 39.1303Z" fill="#FF9A6E"/>
<path d="M367.12 141.45L358.82 316.65L332.23 317.21L339.12 165.81L321.12 316.57L293.96 317.24L315.22 139.53" fill="#1A2E35"/>
<path d="M346.29 316.91C346.45 316.91 348.36 277.76 350.56 229.47C352.76 181.18 354.43 142 354.27 142C354.11 142 352.2 181.14 350 229.45C347.8 277.76 346.14 316.91 346.29 316.91Z" fill="#375A64"/>
<path d="M306.6 315.5C306.75 315.5 311.53 277.5 317.27 230.58C323.01 183.66 327.54 145.58 327.39 145.58C327.24 145.58 322.45 183.58 316.71 230.5C310.97 277.42 306.44 315.48 306.6 315.5Z" fill="#375A64"/>
<path d="M311.55 66.7403C314.77 63.3752 318.732 60.8102 323.12 59.2503C325.256 58.492 327.488 58.0408 329.75 57.9103V56.5603L337.09 56.7103C337.09 56.7103 337.47 57.8603 337.87 59.1703C338.26 60.1703 338.45 62.3603 338.92 62.3603C339.39 62.3603 340.13 60.2203 340.85 59.1503L342.11 56.6303L348.89 56.3003V58.0003C353.328 58.5764 357.644 59.8664 361.67 61.8203C362.42 64.3103 365.59 75.2003 364.67 85.2003C364.491 89.2836 363.353 93.2675 361.35 96.8303C360.719 97.8841 360.007 98.8871 359.22 99.8303L359.54 117.66L367.08 141.41L315.18 141.95L321.08 116.31L318.39 90.9003C315.687 87.5296 313.685 83.652 312.504 79.4958C311.322 75.3397 310.984 70.989 311.51 66.7003L311.55 66.7403Z" fill="#375A64"/>
<path d="M342.27 56.8803C342.299 57.4171 342.421 57.9448 342.63 58.4403L343.17 60.0903C343.28 60.4003 343.37 60.7003 343.52 61.0903C343.604 61.3215 343.767 61.516 343.98 61.6403C344.106 61.6983 344.245 61.7224 344.384 61.7101C344.522 61.6978 344.655 61.6496 344.77 61.5703C346.343 60.6409 347.811 59.5446 349.15 58.3003C347.507 59.0677 345.945 59.9991 344.49 61.0803C344.1 61.4503 343.91 60.4903 343.66 59.9303C343.41 59.3703 343.23 58.8603 343.01 58.3303C342.62 57.4003 342.35 56.8503 342.27 56.8803Z" fill="#1A2E35"/>
<path d="M329.14 58.2702C330.285 60.073 331.798 61.6134 333.58 62.7902L333.96 63.0502L334.19 63.2202L334.35 62.9802C335.538 61.3932 336.371 59.5684 336.79 57.6302C336.64 57.5702 335.73 59.9902 333.88 62.6302L334.28 62.5602L333.91 62.3002C331.1 60.3102 329.27 58.1602 329.14 58.2702Z" fill="#1A2E35"/>
<path d="M341.07 141.78C341.123 141.514 341.147 141.242 341.14 140.97C341.14 140.39 341.14 139.62 341.22 138.66C341.22 136.66 341.22 133.73 341.17 130.14C341.05 122.95 340.71 113.02 340.28 102.06C339.85 91.1003 339.5 81.2303 339.28 73.9903C339.18 70.4403 339.11 67.5504 339.05 65.4804C339.05 64.5204 339.05 63.7503 339.05 63.1703C339.062 62.8993 339.045 62.6279 339 62.3604C338.955 62.6245 338.935 62.8924 338.94 63.1604C338.94 63.7504 338.94 64.5204 338.86 65.4804C338.86 67.4804 338.86 70.4004 338.91 74.0004C339.03 81.1904 339.37 91.1204 339.8 102.08C340.23 113.04 340.58 122.91 340.8 130.15C340.9 133.69 340.97 136.58 341.03 138.66C341.03 139.62 341.03 140.39 341.03 140.97C341.027 141.241 341.04 141.511 341.07 141.78Z" fill="#1A2E35"/>
<path d="M334.59 75.4302C334.59 75.3702 334.14 75.3002 333.74 75.8102C333.626 75.9631 333.548 76.1391 333.51 76.3257C333.472 76.5123 333.475 76.705 333.52 76.8902C333.594 77.1226 333.733 77.329 333.921 77.4849C334.109 77.6408 334.337 77.7398 334.58 77.7702C334.818 77.8124 335.064 77.7849 335.288 77.6909C335.511 77.5969 335.703 77.4404 335.84 77.2402C335.938 77.0762 335.998 76.8926 336.017 76.7024C336.036 76.5123 336.013 76.3203 335.95 76.1402C335.72 75.5302 335.25 75.4602 335.25 75.5302C335.25 75.6002 335.5 75.7902 335.56 76.2502C335.583 76.3709 335.582 76.4952 335.556 76.6155C335.531 76.7358 335.481 76.8497 335.41 76.9502C335.32 77.0575 335.203 77.1384 335.071 77.1842C334.939 77.2301 334.797 77.239 334.66 77.2102C334.521 77.1943 334.389 77.1426 334.277 77.0602C334.165 76.9777 334.076 76.8674 334.02 76.7402C333.982 76.6221 333.967 76.4977 333.978 76.3742C333.988 76.2506 334.023 76.1303 334.08 76.0202C334.28 75.6102 334.61 75.5202 334.59 75.4302Z" fill="#1A2E35"/>
<path d="M334.41 93.3704C334.41 93.3104 334.02 93.2504 333.66 93.6804C333.556 93.8091 333.481 93.9591 333.441 94.1198C333.402 94.2805 333.398 94.448 333.43 94.6104C333.481 94.8211 333.594 95.0117 333.755 95.1577C333.915 95.3038 334.115 95.3987 334.33 95.4304C334.545 95.4749 334.769 95.4506 334.97 95.3609C335.171 95.2712 335.339 95.1206 335.45 94.9304C335.537 94.7783 335.584 94.6059 335.584 94.4304C335.584 94.2548 335.537 94.0824 335.45 93.9304C335.15 93.4304 334.7 93.5004 334.73 93.5804C334.76 93.6604 334.99 93.7404 335.09 94.1004C335.132 94.1927 335.148 94.2952 335.135 94.396C335.121 94.4968 335.08 94.5918 335.015 94.6702C334.951 94.7485 334.865 94.807 334.768 94.8389C334.672 94.8707 334.568 94.8747 334.47 94.8504C334.36 94.8385 334.254 94.7978 334.165 94.7324C334.076 94.667 334.005 94.5791 333.96 94.4777C333.916 94.3763 333.899 94.2649 333.911 94.1547C333.923 94.0446 333.964 93.9396 334.03 93.8504C334.16 93.5504 334.43 93.4604 334.41 93.3704Z" fill="#1A2E35"/>
<path d="M292.432 137.187L299.892 101.069L334.286 108.173C338.4 109.023 342.008 111.472 344.316 114.982C346.624 118.492 347.444 122.775 346.594 126.89L345.542 131.982C344.693 136.096 342.243 139.704 338.733 142.013C335.223 144.321 330.94 145.14 326.826 144.291L292.432 137.187Z" fill="#FE736B"/>
<path d="M272 95.3002L327.33 106.74C327.441 106.202 327.445 105.648 327.342 105.109C327.239 104.569 327.03 104.056 326.729 103.597C326.427 103.138 326.037 102.743 325.583 102.435C325.129 102.127 324.618 101.911 324.08 101.8L276.9 92.0602C275.821 91.8418 274.699 92.0602 273.78 92.6675C272.862 93.2749 272.222 94.2216 272 95.3002Z" fill="#FE736B"/>
<g opacity="0.4">
<path opacity="0.4" d="M299.14 100.9C300.095 101.266 301.083 101.54 302.09 101.72C303.94 102.15 306.5 102.72 309.33 103.3C312.16 103.88 314.73 104.39 316.6 104.73C317.584 104.963 318.589 105.104 319.6 105.15C318.625 104.792 317.622 104.521 316.6 104.34C314.75 103.9 312.2 103.34 309.36 102.75C306.52 102.16 303.96 101.66 302.09 101.33C301.121 101.1 300.134 100.956 299.14 100.9Z" fill="black"/>
</g>
<g opacity="0.3">
<path opacity="0.3" d="M297.06 115.14C297.18 114.28 297.31 113.43 297.43 112.58C303.892 117.821 309.851 123.653 315.23 130C316.866 131.723 318.198 133.712 319.17 135.88C319.645 136.971 319.865 138.156 319.813 139.345C319.761 140.534 319.438 141.695 318.87 142.74L304.49 139.53L297.06 115.14Z" fill="black"/>
</g>
<path d="M250.14 203.08C242.05 190.7 243.23 173.02 252.89 161.83C255.89 158.35 260.08 155.33 264.66 155.73C269.24 156.13 273.11 160.14 274.54 164.62C275.97 169.1 275.47 173.95 274.63 178.57C273.46 185.05 271.5 191.67 267.01 196.48C262.52 201.29 255.91 206.23 250.14 203.08Z" fill="#FE736B"/>
<path d="M254.61 262.65C253.16 259.051 252.879 255.087 253.804 251.318C254.73 247.55 256.817 244.168 259.77 241.65C261.63 240.13 264.06 238.95 266.39 239.57C268.72 240.19 270.34 242.57 270.67 245.05C270.854 247.51 270.435 249.978 269.45 252.24C268.26 255.47 266.65 258.71 263.9 260.78C261.15 262.85 257.3 264.78 254.61 262.65Z" fill="#FE736B"/>
<path d="M235.1 258.4C236.101 252.873 235.337 247.17 232.916 242.101C230.495 237.032 226.539 232.855 221.61 230.16C218.53 228.55 214.73 227.6 211.61 229.16C208.49 230.72 206.9 234.63 207.15 238.16C207.4 241.69 209.15 244.99 210.99 248C213.63 252.23 216.87 256.34 221.37 258.47C225.87 260.6 231.9 262.22 235.08 258.38" fill="#FE736B"/>
<path d="M236.5 228.73C240.38 216.23 233.81 201.07 222.86 193.9C219.46 191.67 215.16 190.12 211.36 191.57C207.56 193.02 205.24 197.38 205.12 201.57C205 205.76 206.6 209.74 208.44 213.47C211.01 218.7 214.29 223.86 219.29 226.85C224.29 229.84 232.36 232.85 236.5 228.76" fill="#FE736B"/>
<path d="M244.28 289.84C244.222 289.641 244.182 289.437 244.16 289.23C244.09 288.78 244 288.23 243.9 287.49C243.84 287.1 243.79 286.68 243.72 286.23C243.65 285.78 243.54 285.23 243.44 284.74C243.23 283.67 243.02 282.45 242.67 281.13C242.51 280.47 242.34 279.77 242.17 279.05C242 278.33 241.74 277.59 241.52 276.82C241.1 275.27 240.52 273.66 239.9 271.95C238.516 268.287 236.906 264.714 235.08 261.25C233.201 257.813 231.113 254.493 228.83 251.31C227.72 249.88 226.72 248.48 225.66 247.31C225.14 246.69 224.66 246.1 224.16 245.53L222.71 243.96C221.8 242.96 220.9 242.09 220.12 241.33L219 240.24L218.05 239.4L216.74 238.22C216.58 238.087 216.433 237.94 216.3 237.78C216.3 237.78 216.49 237.88 216.81 238.13L218.18 239.24L219.18 240.05L220.29 241.05C221.09 241.79 222.02 242.63 222.95 243.64L224.44 245.2L226 247C227.08 248.2 228.1 249.59 229.22 251C233.923 257.342 237.675 264.335 240.36 271.76C240.93 273.49 241.54 275.11 241.94 276.67C242.15 277.45 242.36 278.2 242.56 278.93C242.76 279.66 242.89 280.36 243.04 281.03C243.37 282.36 243.55 283.59 243.73 284.67C243.823 285.203 243.903 285.703 243.97 286.17C244.02 286.63 244.06 287.05 244.1 287.44C244.17 288.16 244.22 288.74 244.26 289.2C244.299 289.411 244.306 289.627 244.28 289.84Z" fill="#1A2E35"/>
<path d="M244 292.08C243.987 291.997 243.987 291.913 244 291.83C244 291.64 244 291.4 244.05 291.11C244.12 290.43 244.2 289.5 244.31 288.33C244.37 287.72 244.43 287.06 244.51 286.33C244.59 285.6 244.58 284.79 244.63 283.93C244.69 282.22 244.86 280.26 244.79 278.1C244.79 277.02 244.79 275.88 244.79 274.7C244.79 273.52 244.66 272.3 244.6 271.03C244.52 268.48 244.17 265.79 243.87 262.95C242.282 250.623 238.727 238.631 233.34 227.43C232.04 224.88 230.86 222.43 229.55 220.25C228.91 219.16 228.33 218.07 227.7 217.07L225.86 214.22C224.73 212.37 223.53 210.82 222.54 209.42C222.03 208.72 221.54 208.06 221.13 207.48C220.72 206.9 220.26 206.38 219.88 205.9L218.15 203.71L217.71 203.14C217.656 203.076 217.609 203.005 217.57 202.93C217.57 202.93 217.64 202.93 217.75 203.1L218.23 203.65C218.67 204.16 219.23 204.88 220.04 205.77L221.33 207.32C221.79 207.9 222.26 208.55 222.78 209.24C223.78 210.63 225.02 212.17 226.17 214.01L228.05 216.86C228.69 217.86 229.28 218.94 229.93 220.03C231.27 222.21 232.47 224.66 233.78 227.22C236.467 232.842 238.727 238.659 240.54 244.62C242.274 250.601 243.547 256.705 244.35 262.88C244.65 265.74 244.98 268.45 245.04 271C245.09 272.28 245.2 273.51 245.2 274.69C245.2 275.87 245.2 277.02 245.2 278.1C245.2 280.27 245.04 282.23 244.95 283.95C244.89 284.81 244.86 285.61 244.79 286.35C244.72 287.09 244.62 287.75 244.54 288.35C244.39 289.52 244.28 290.45 244.19 291.12C244.19 291.41 244.11 291.65 244.08 291.84C244.069 291.924 244.042 292.006 244 292.08Z" fill="#1A2E35"/>
<path d="M265.06 170.67C265.06 170.67 265.06 170.75 264.96 170.9C264.86 171.05 264.75 171.29 264.61 171.55L263.23 174C262.93 174.54 262.58 175.12 262.23 175.78C261.88 176.44 261.54 177.18 261.15 177.96L259.9 180.46C259.48 181.36 259.08 182.32 258.63 183.32C258.18 184.32 257.71 185.32 257.26 186.49C256.81 187.66 256.39 188.77 255.92 189.97L255.21 191.81L254.56 193.73L253.21 197.73C251.49 203.28 249.87 209.45 248.5 216.01C247.13 222.57 246.24 228.9 245.55 234.67C244.86 240.44 244.55 245.67 244.4 250.05C244.29 252.25 244.27 254.23 244.26 255.98C244.25 257.73 244.26 259.23 244.26 260.46C244.26 261.69 244.26 262.6 244.26 263.29V264.02C244.276 264.103 244.276 264.188 244.26 264.27C244.252 264.19 244.252 264.11 244.26 264.03C244.26 263.83 244.26 263.59 244.21 263.29C244.21 262.6 244.13 261.66 244.07 260.46C244.01 259.26 243.97 257.73 243.97 255.98C243.97 254.23 243.97 252.24 244.04 250.04C244.11 245.64 244.51 240.41 245.04 234.62C245.57 228.83 246.65 222.53 248 216C249.35 209.47 251 203.23 252.76 197.67C253.24 196.3 253.7 194.95 254.14 193.67C254.37 193.02 254.59 192.38 254.81 191.74L255.53 189.9C256.01 188.7 256.47 187.54 256.91 186.42C257.37 185.31 257.91 184.27 258.31 183.26C258.71 182.25 259.18 181.26 259.62 180.41C260.06 179.56 260.5 178.7 260.91 177.92L262.03 175.75C262.39 175.1 262.76 174.52 263.03 173.99L264.5 171.57L264.89 170.94L265.06 170.67Z" fill="#1A2E35"/>
<path d="M262.31 246.61C262.068 247.138 261.781 247.643 261.45 248.12C260.86 249.07 260.05 250.47 259.1 252.22C258.15 253.97 257.1 256.1 256.03 258.51C254.96 260.92 253.97 263.64 253.03 266.51C252.09 269.38 251.47 272.23 250.95 274.82C250.43 277.41 250.13 279.76 249.95 281.74C249.77 283.72 249.63 285.33 249.58 286.45C249.585 287.03 249.538 287.609 249.44 288.18C249.375 287.602 249.355 287.021 249.38 286.44C249.38 285.32 249.38 283.7 249.57 281.71C249.76 279.72 250.02 277.34 250.48 274.71C251.51 269.042 253.219 263.519 255.57 258.26C256.524 256.118 257.585 254.025 258.75 251.99C259.75 250.25 260.61 248.88 261.26 247.99C261.576 247.505 261.927 247.044 262.31 246.61Z" fill="#1A2E35"/>
<path d="M228.39 284.27H263.94L259.64 320.57H232.82L228.39 284.27Z" fill="#375A64"/>
<path d="M229.69 316.65L232.71 320.57H259.64L262.74 316.77L229.69 316.65Z" fill="#1A2E35"/>
<path d="M262.55 294.94C262.55 295.09 255.18 295.21 246.08 295.21C236.98 295.21 229.6 295.09 229.6 294.94C229.6 294.79 236.98 294.68 246.08 294.68C255.18 294.68 262.55 294.8 262.55 294.94Z" fill="#FAFAFA"/>
<path d="M262.55 297.36C262.55 297.51 255.18 297.62 246.08 297.62C236.98 297.62 229.6 297.51 229.6 297.36C229.6 297.21 236.98 297.09 246.08 297.09C255.18 297.09 262.55 297.21 262.55 297.36Z" fill="#FAFAFA"/>
<path d="M262.11 299.7C262.11 299.85 254.99 299.96 246.21 299.96C237.43 299.96 230.31 299.85 230.31 299.7C230.31 299.55 237.43 299.43 246.21 299.43C254.99 299.43 262.11 299.55 262.11 299.7Z" fill="#FAFAFA"/>
<path d="M226.35 44.3701C226.725 42.2497 226.442 40.0654 225.54 38.1101C224.725 36.1699 223.327 34.531 221.54 33.4201C219.994 32.5168 218.193 32.1478 216.417 32.3701C214.64 32.5924 212.986 33.3937 211.71 34.6501C211.46 33.4709 210.948 32.3633 210.21 31.4101C209.526 30.531 208.671 29.7996 207.696 29.26C206.722 28.7203 205.648 28.3836 204.54 28.2701C202.435 28.1146 200.335 28.6292 198.54 29.7401C196.657 30.7879 195.148 32.3956 194.22 34.3401C193.062 36.839 192.746 39.6463 193.32 42.3401C194.084 45.1247 195.504 47.686 197.46 49.8101C200.58 53.3901 204.74 57.9601 204.74 57.9601C204.74 57.9601 210.09 56.1201 214.74 55.0401C217.565 54.4544 220.211 53.2069 222.46 51.4001C224.478 49.5355 225.842 47.0704 226.35 44.3701Z" fill="#FE736B"/>
<path d="M974.93 45.0001C975.154 43.7458 974.983 42.4529 974.44 41.3001C973.958 40.1496 973.13 39.1779 972.07 38.5201C971.155 37.9888 970.091 37.7724 969.042 37.9043C967.992 38.0362 967.015 38.509 966.26 39.2501C966.104 38.554 965.8 37.8993 965.37 37.3301C964.966 36.8017 964.459 36.3608 963.88 36.0342C963.301 35.7076 962.661 35.5021 962 35.4301C960.755 35.3439 959.514 35.648 958.45 36.3001C957.347 36.9185 956.46 37.861 955.91 39.0001C955.229 40.4716 955.043 42.1241 955.38 43.7101C955.832 45.356 956.668 46.8709 957.82 48.1301C959.67 50.2501 962.13 52.9501 962.13 52.9501C962.13 52.9501 965.3 51.8701 968.04 51.2301C969.709 50.8799 971.272 50.1397 972.6 49.0701C973.787 47.9934 974.602 46.5687 974.93 45.0001Z" fill="#FE736B"/>
<path d="M468.38 87.1701C468.749 85.0833 468.47 82.9335 467.58 81.0101C466.763 79.0868 465.364 77.4676 463.58 76.3801C462.068 75.5119 460.315 75.1613 458.585 75.3815C456.856 75.6017 455.246 76.3808 454 77.6001C453.752 76.441 453.25 75.3515 452.53 74.4101C451.856 73.5425 451.013 72.8205 450.052 72.2877C449.092 71.7549 448.033 71.4224 446.94 71.3101C444.857 71.1532 442.777 71.6609 441 72.7601C439.15 73.7958 437.666 75.378 436.75 77.2901C435.617 79.7432 435.305 82.4958 435.86 85.1401C436.613 87.8791 438.008 90.3989 439.93 92.4901C443.01 96.0201 447.1 100.49 447.1 100.49C447.1 100.49 452.37 98.6801 456.93 97.6101C459.714 97.0448 462.321 95.8168 464.53 94.0301C466.512 92.2125 467.861 89.8088 468.38 87.1701Z" fill="#FE736B"/>
<path d="M1011.21 86.3502C1009.99 84.6189 1008.26 83.3034 1006.27 82.5802C1004.34 81.8031 1002.22 81.6458 1000.2 82.1302C998.487 82.5724 996.969 83.57 995.883 84.9669C994.798 86.3637 994.206 88.081 994.2 89.8502C992.768 88.9322 991.081 88.4946 989.384 88.6007C987.686 88.7067 986.067 89.3511 984.76 90.4402C983.201 91.81 982.108 93.6308 981.63 95.6502C981.061 97.6933 981.138 99.8624 981.85 101.86C982.809 104.399 984.563 106.56 986.85 108.02C989.325 109.419 992.099 110.204 994.94 110.31C999.61 110.61 1005.68 110.87 1005.68 110.87C1005.68 110.87 1008.11 105.87 1010.57 101.87C1012.12 99.492 1013.08 96.7761 1013.37 93.9501C1013.49 91.2505 1012.73 88.5855 1011.21 86.3502Z" fill="#FE736B"/>
<path d="M117 181.52C117.107 179.679 116.646 177.85 115.68 176.28C114.798 174.708 113.444 173.452 111.81 172.69C110.933 172.316 109.989 172.124 109.035 172.124C108.081 172.124 107.137 172.316 106.26 172.69C105.223 173.138 104.305 173.823 103.58 174.69C103.247 173.717 102.705 172.829 101.99 172.09C101.32 171.416 100.522 170.884 99.6422 170.525C98.7626 170.166 97.8199 169.988 96.87 170C95.0505 170.068 93.2995 170.712 91.87 171.84C90.3784 172.921 89.2573 174.437 88.66 176.18C87.9288 178.408 87.9288 180.812 88.66 183.04C89.6056 185.347 91.0945 187.392 93 189C96 191.73 100 195.2 100 195.2C100 195.2 104.37 193.12 108.19 191.73C110.536 190.96 112.663 189.636 114.39 187.87C115.919 186.089 116.835 183.862 117 181.52Z" fill="#FE736B"/>
<path d="M139.413 43.4331L35.2347 85.418L63.5985 155.797L167.776 113.813L139.413 43.4331Z" fill="white"/>
<path d="M167.79 113.81L167.27 112.53L165.77 108.81C164.46 105.55 162.54 100.81 160.04 94.7002C155.11 82.4702 148 64.9202 139.32 43.5202L139.52 43.6102L35.35 85.6102L35.46 85.3402L63.83 155.72L63.59 155.62L138.68 125.45L160.14 116.86L165.84 114.56L167.31 113.96L167.82 113.76L167.34 113.95L165.88 114.54L160.21 116.82L138.82 125.54L63.68 156L63.5 156.07L63.43 155.9L35.06 85.4902L35 85.3002L35.2 85.2202L139.41 43.2202L139.55 43.1602L139.62 43.3202L160.22 94.7002C162.68 100.81 164.6 105.58 165.88 108.85L167.36 112.53C167.63 113.38 167.79 113.81 167.79 113.81Z" fill="#375A64"/>
<path d="M37.77 91.7C37.77 91.59 61 82.11 89.77 70.53C118.54 58.95 141.85 49.63 141.89 49.74C141.93 49.85 118.67 59.32 89.89 70.91C61.11 82.5 37.81 91.8 37.77 91.7Z" fill="#375A64"/>
<path d="M40.6 86.8701C40.6646 87.0358 40.6786 87.2168 40.6404 87.3905C40.6021 87.5641 40.5133 87.7225 40.3852 87.8457C40.257 87.9689 40.0952 88.0514 39.9202 88.0828C39.7452 88.1141 39.5648 88.0929 39.4018 88.0219C39.2388 87.9509 39.1006 87.8331 39.0044 87.6836C38.9083 87.534 38.8586 87.3594 38.8616 87.1816C38.8646 87.0038 38.9202 86.8309 39.0214 86.6847C39.1225 86.5385 39.2647 86.4256 39.43 86.3601C39.5403 86.3164 39.6581 86.295 39.7767 86.297C39.8953 86.299 40.0123 86.3245 40.1211 86.3718C40.2298 86.4192 40.3281 86.4877 40.4103 86.5732C40.4925 86.6587 40.557 86.7596 40.6 86.8701Z" fill="#375A64"/>
<path d="M42.9653 86.9015C43.4263 86.7157 43.6477 86.1872 43.4599 85.721C43.272 85.2549 42.746 85.0276 42.285 85.2134C41.8239 85.3992 41.6025 85.9277 41.7904 86.3938C41.9782 86.86 42.5042 87.0873 42.9653 86.9015Z" fill="#375A64"/>
<path d="M45.7846 85.7599C46.2456 85.5741 46.4671 85.0456 46.2792 84.5794C46.0913 84.1133 45.5653 83.886 45.1043 84.0718C44.6433 84.2576 44.4218 84.7861 44.6097 85.2522C44.7976 85.7184 45.3236 85.9457 45.7846 85.7599Z" fill="#375A64"/>
<path d="M77.4727 84.2307L49.6844 95.4297L60.9843 123.468L88.7726 112.269L77.4727 84.2307Z" fill="#375A64"/>
<path d="M133.81 70.7301C133.86 70.8301 123.05 75.2801 109.69 80.6701C96.33 86.0601 85.44 90.3501 85.4 90.2401C85.36 90.1301 96.16 85.6901 109.54 80.2901C122.92 74.8901 133.77 70.6201 133.81 70.7301Z" fill="#375A64"/>
<path d="M135.91 75.9401C135.96 76.0401 125.15 80.4901 111.79 85.8801C98.43 91.2701 87.54 95.5601 87.5 95.4501C87.46 95.3401 98.26 90.8901 111.64 85.4501C125.02 80.0101 135.87 75.8301 135.91 75.9401Z" fill="#375A64"/>
<path d="M138 81.1502C138.05 81.2502 127.24 85.7002 113.88 91.0902C100.52 96.4802 89.63 100.77 89.59 100.66C89.55 100.55 100.35 96.1002 113.73 90.6602C127.11 85.2202 138 81.0502 138 81.1502Z" fill="#375A64"/>
<path d="M120.32 94.3401C119.971 94.5506 119.602 94.7281 119.22 94.8701L116.22 96.1601C113.64 97.2401 110.08 98.7001 106.13 100.29C102.18 101.88 98.6 103.29 95.99 104.29L92.9 105.46C92.5271 105.626 92.1385 105.753 91.74 105.84C92.0917 105.637 92.4596 105.463 92.84 105.32L95.84 104.02C98.42 102.94 101.99 101.48 105.94 99.8801C109.89 98.2801 113.46 96.8801 116.07 95.8801L119.16 94.7001C119.535 94.5459 119.923 94.4255 120.32 94.3401Z" fill="#375A64"/>
<path d="M79.5868 126.958L66.5275 132.221L71.8391 145.401L84.8985 140.138L79.5868 126.958Z" fill="#375A64"/>
<path d="M103.283 117.425L90.2241 122.688L95.5358 135.868L108.595 130.605L103.283 117.425Z" fill="#375A64"/>
<path d="M126.966 107.872L113.907 113.135L119.219 126.315L132.278 121.052L126.966 107.872Z" fill="#375A64"/>
<path d="M150.65 98.3224L137.591 103.585L142.902 116.765L155.962 111.502L150.65 98.3224Z" fill="#375A64"/>
<path d="M135.83 289.37L26.21 239.87L46.45 195L156.08 244.5L135.83 289.37ZM27 239.57L135.53 288.57L155.29 244.82L46.75 195.82L27 239.57Z" fill="#375A64"/>
<path d="M104.86 275L127.53 285.29L133.6 288L135.17 288.71L135.71 288.96L135.17 288.71L133.61 288.01L127.61 285.28L104.94 275.11L26.55 239.82L26.38 239.74L26.46 239.58L46.46 195.27L46.54 195.1L46.72 195.18L155.77 244.48L155.89 244.54V244.66C149.69 258.38 144.64 269.44 141.16 277.1C139.44 280.91 138.1 283.88 137.16 285.88L136.16 288.15C136.034 288.436 135.891 288.713 135.73 288.98" fill="white"/>
<path d="M46.53 195.61L46.78 195.51L46.53 195.61Z" fill="#375A64"/>
<path d="M44 201.45C44 201.36 68.46 212.29 98.53 225.87C128.6 239.45 152.95 250.54 152.91 250.63C152.87 250.72 128.45 239.8 98.38 226.22C68.31 212.64 44 201.55 44 201.45Z" fill="#375A64"/>
<path d="M49.7803 200.853C49.978 200.415 49.7833 199.9 49.3454 199.702C48.9075 199.504 48.3922 199.699 48.1944 200.137C47.9967 200.575 48.1914 201.09 48.6294 201.288C49.0673 201.486 49.5826 201.291 49.7803 200.853Z" fill="#375A64"/>
<path d="M52.49 202.07C52.4183 202.223 52.3028 202.352 52.1582 202.44C52.0135 202.529 51.846 202.572 51.6767 202.565C51.5075 202.559 51.344 202.502 51.2067 202.403C51.0695 202.303 50.9646 202.166 50.9053 202.007C50.846 201.848 50.8348 201.676 50.8733 201.511C50.9117 201.346 50.998 201.196 51.1213 201.08C51.2446 200.964 51.3995 200.887 51.5665 200.858C51.7335 200.83 51.9052 200.851 52.06 200.92C52.2691 201.016 52.4323 201.19 52.5146 201.405C52.5968 201.62 52.5916 201.859 52.5 202.07H52.49Z" fill="#375A64"/>
<path d="M55.17 203.28C55.0989 203.437 54.9829 203.569 54.8366 203.66C54.6903 203.751 54.5203 203.796 54.3481 203.791C54.176 203.785 54.0095 203.728 53.8697 203.627C53.7298 203.527 53.623 203.387 53.5627 203.226C53.5024 203.064 53.4913 202.889 53.5308 202.721C53.5704 202.554 53.6588 202.401 53.7849 202.284C53.911 202.167 54.069 202.09 54.2391 202.062C54.4091 202.035 54.5834 202.058 54.74 202.13C54.8432 202.177 54.9363 202.243 55.0138 202.325C55.0913 202.408 55.1518 202.505 55.1917 202.611C55.2317 202.717 55.2503 202.829 55.2466 202.943C55.2429 203.056 55.2168 203.167 55.17 203.27V203.28Z" fill="#375A64"/>
<path d="M47.5603 218.014L40.3793 233.918C39.0771 236.802 40.3595 240.196 43.2437 241.498L59.1477 248.679C62.0319 249.981 65.4257 248.699 66.728 245.815L73.9089 229.911C75.2112 227.026 73.9288 223.633 71.0446 222.33L55.1406 215.149C52.2564 213.847 48.8625 215.13 47.5603 218.014Z" fill="#375A64"/>
<path d="M139 261.51C138.95 261.61 125.36 255.56 108.64 248.01C91.92 240.46 78.41 234.27 78.46 234.18C78.51 234.09 92.09 240.13 108.81 247.68C125.53 255.23 139 261.42 139 261.51Z" fill="#375A64"/>
<path d="M136.57 266.88C136.57 266.98 122.94 260.93 106.21 253.38C89.48 245.83 76 239.63 76 239.53C76 239.43 89.63 245.48 106.36 253.03C123.09 260.58 136.62 266.78 136.57 266.88Z" fill="#375A64"/>
<path d="M112.58 262.48C112.439 262.448 112.301 262.402 112.17 262.34L111.02 261.86L106.82 260.03L93 253.86L79.24 247.58L75.09 245.64L74 245.09C73.8718 245.039 73.7508 244.972 73.64 244.89C73.7623 244.919 73.8826 244.956 74 245L75.14 245.51L79.34 247.34L93.15 253.52L106.91 259.79L111.06 261.73L112.2 262.25C112.333 262.315 112.461 262.392 112.58 262.48Z" fill="#375A64"/>
<path d="M1046.5 18.3552L1008.83 196.362C1007.41 203.078 1011.7 209.675 1018.42 211.096L1292.35 269.073C1299.06 270.494 1305.66 266.202 1307.08 259.486L1344.76 81.4789C1346.18 74.7628 1341.89 68.1659 1335.17 66.7445L1061.24 8.76823C1054.52 7.3468 1047.92 11.6391 1046.5 18.3552Z" fill="#FAFAFA"/>
<path d="M1343.45 89.65L1045 26.45L1047.15 16.28C1047.43 14.9801 1047.95 13.7474 1048.71 12.6522C1049.46 11.557 1050.42 10.6209 1051.54 9.89744C1052.65 9.17394 1053.9 8.67724 1055.2 8.43573C1056.51 8.19422 1057.85 8.21265 1059.15 8.48996L1337.85 67.49C1339.15 67.7644 1340.38 68.2928 1341.48 69.0449C1342.58 69.7971 1343.51 70.7581 1344.24 71.8729C1344.96 72.9877 1345.46 74.2344 1345.7 75.5415C1345.94 76.8486 1345.92 78.1904 1345.64 79.49L1343.45 89.65Z" fill="#FE736B"/>
<g style="mix-blend-mode:multiply">
<g style="mix-blend-mode:multiply">
<path d="M1290.72 269.22L1019.65 211.83C1015.99 211.054 1012.78 208.855 1010.73 205.716C1008.69 202.577 1007.98 198.755 1008.75 195.09L1012.41 177.79L1311.12 241L1307.46 258.3C1307.08 260.118 1306.35 261.843 1305.3 263.376C1304.25 264.909 1302.91 266.22 1301.36 267.235C1299.8 268.249 1298.06 268.947 1296.24 269.288C1294.41 269.628 1292.54 269.605 1290.72 269.22Z" fill="#ECECEC"/>
</g>
</g>
<path d="M1067.39 204.85L1069.85 205.37L1070.29 207.15L1070.82 207.26L1069.44 201.59H1069.3L1065.74 206.21L1066.28 206.33L1067.39 204.85ZM1069.17 202.54L1069.72 204.84L1067.72 204.42L1069.17 202.54Z" fill="#1A2E35"/>
<path d="M1065.04 207.165L1064.95 207.575L1070.78 208.81L1070.87 208.399L1065.04 207.165Z" fill="#1A2E35"/>
<path d="M1031.94 193.34L1031.58 193.26C1031.01 193.151 1030.42 193.273 1029.93 193.599C1029.45 193.925 1029.11 194.428 1029 195C1028.93 196.678 1029.32 198.343 1030.12 199.82C1030.12 199.82 1030.21 200.12 1030.51 199.91C1031.85 198.872 1032.89 197.49 1033.51 195.91C1033.62 195.363 1033.52 194.794 1033.23 194.318C1032.94 193.842 1032.48 193.493 1031.94 193.34ZM1031 196.8C1030.84 196.773 1030.68 196.713 1030.54 196.624C1030.4 196.535 1030.28 196.419 1030.19 196.282C1030.1 196.146 1030.03 195.992 1030 195.83C1029.97 195.669 1029.97 195.502 1030 195.34C1030.07 195.018 1030.26 194.736 1030.54 194.556C1030.81 194.376 1031.15 194.312 1031.47 194.38C1031.79 194.448 1032.07 194.641 1032.25 194.916C1032.43 195.192 1032.5 195.528 1032.43 195.85C1032.36 196.164 1032.18 196.438 1031.91 196.616C1031.64 196.793 1031.32 196.859 1031 196.8Z" fill="#1A2E35"/>
<path d="M1058.17 204.27C1058.14 204.434 1058.07 204.589 1057.98 204.727C1057.88 204.865 1057.76 204.983 1057.62 205.074C1057.48 205.166 1057.33 205.229 1057.16 205.26C1057 205.291 1056.83 205.289 1056.66 205.255C1056.5 205.221 1056.35 205.155 1056.21 205.061C1056.07 204.967 1055.95 204.846 1055.86 204.707C1055.77 204.567 1055.71 204.411 1055.68 204.246C1055.64 204.082 1055.65 203.914 1055.68 203.75L1056.53 199.75C1056.59 199.549 1056.72 199.378 1056.9 199.27C1057.08 199.162 1057.29 199.126 1057.5 199.169C1057.7 199.212 1057.88 199.331 1058 199.502C1058.13 199.672 1058.18 199.883 1058.15 200.09L1057.42 203.52C1057.37 203.616 1057.3 203.694 1057.2 203.741C1057.1 203.788 1056.99 203.802 1056.89 203.78C1056.79 203.754 1056.69 203.695 1056.63 203.612C1056.56 203.529 1056.52 203.427 1056.52 203.32L1057.08 200.68L1056.78 200.62L1056.24 203.14V203.26C1056.22 203.449 1056.26 203.639 1056.37 203.795C1056.48 203.95 1056.65 204.058 1056.83 204.098C1057.02 204.138 1057.21 204.107 1057.38 204.012C1057.54 203.916 1057.66 203.762 1057.72 203.58V203.51C1057.72 203.51 1057.72 203.51 1057.72 203.46L1058.43 200.12C1058.48 199.829 1058.41 199.531 1058.25 199.288C1058.08 199.044 1057.83 198.873 1057.54 198.81C1057.25 198.75 1056.95 198.804 1056.7 198.961C1056.46 199.118 1056.28 199.365 1056.21 199.65L1055.31 203.86C1055.28 204.248 1055.38 204.634 1055.62 204.947C1055.85 205.26 1056.19 205.477 1056.57 205.557C1056.95 205.637 1057.34 205.575 1057.68 205.382C1058.02 205.189 1058.28 204.879 1058.4 204.51L1059.11 201.11L1058.81 201.05L1058.17 204.27Z" fill="#1A2E35"/>
<path d="M1045.54 198.41L1044.88 195.82L1043.23 197.92L1040.56 197.75L1042.05 199.97L1041.05 202.45L1043.62 201.72L1045.62 203.43L1045.73 200.76L1047.98 199.33L1045.54 198.41ZM1045.33 202.63L1043.72 201.29L1041.72 201.87L1042.45 200.02V199.92L1041.29 198.18L1043.38 198.32L1044.67 196.67L1045.19 198.67L1047.19 199.39L1045.5 200.46H1045.42L1045.33 202.63Z" fill="#1A2E35"/>
<path d="M1092.14 202.83L1091.76 202.75L1089.22 214.75L1089.6 214.83L1092.14 202.83ZM1089.41 214.78L1091.95 202.78L1089.41 214.78Z" fill="#1A2E35"/>
<path d="M1079.04 204.472L1077.96 209.56L1082.73 210.57L1083.81 205.483L1079.04 204.472Z" fill="#1A2E35"/>
<path d="M1080.88 203.63L1080.8 204.02L1082.56 204.4L1082.64 204L1084.15 204.32L1083.98 205.11L1079.21 204.1L1079.38 203.31L1080.88 203.63Z" fill="#1A2E35"/>
<path d="M1080.89 203.203L1080.8 203.595L1082.56 203.967L1082.65 203.576L1080.89 203.203Z" fill="#1A2E35"/>
<path d="M1080.81 203.604L1080.73 203.996L1082.49 204.368L1082.57 203.977L1080.81 203.604Z" fill="#1A2E35"/>
<path d="M1101.47 212.08L1103.24 210.93L1103.38 211.14L1101.39 212.44L1100.1 210.45L1100.31 210.31L1101.47 212.08Z" fill="#1A2E35"/>
<path d="M1318.69 73.94L1322.82 74.82L1322.87 74.6L1318.73 73.72L1322.87 74.6L1322.92 74.38L1318.78 73.5L1318.69 73.94Z" fill="#1A2E35"/>
<path d="M1339.78 76.18L1339.53 75.8L1337.21 77.31L1335.7 74.99L1335.33 75.24L1336.84 77.56L1334.52 79.07L1334.76 79.44L1337.08 77.93L1338.59 80.25L1338.97 80.01L1337.46 77.69L1339.78 76.18Z" fill="#1A2E35"/>
<path d="M1326.1 77.6801L1330.68 78.6801L1331.68 74.1101L1327.11 73.1101L1326.1 77.6801ZM1327.41 73.6301L1331.11 74.4101L1330.33 78.1101L1326.63 77.3301L1327.41 73.6301Z" fill="#1A2E35"/>
<path d="M1328 134C1328.05 133.788 1328.06 133.568 1328.02 133.353C1327.99 133.137 1327.91 132.931 1327.8 132.745C1327.69 132.56 1327.54 132.398 1327.36 132.27C1327.18 132.142 1326.98 132.051 1326.77 132L1320.61 130.7C1320.04 130.628 1319.46 130.773 1318.99 131.106C1318.51 131.439 1318.18 131.936 1318.06 132.5C1317.93 133.064 1318.02 133.654 1318.31 134.155C1318.6 134.657 1319.06 135.033 1319.61 135.21L1324.61 136.26L1324.7 135.82L1319.94 134.82C1319.49 134.689 1319.1 134.392 1318.85 133.987C1318.61 133.582 1318.53 133.099 1318.63 132.637C1318.72 132.174 1318.99 131.766 1319.38 131.494C1319.77 131.222 1320.24 131.106 1320.71 131.17L1326.62 132.42C1326.93 132.486 1327.21 132.675 1327.38 132.944C1327.56 133.213 1327.62 133.541 1327.56 133.855C1327.49 134.169 1327.3 134.444 1327.03 134.62C1326.76 134.795 1326.43 134.856 1326.12 134.79L1321.12 133.73C1320.98 133.666 1320.86 133.555 1320.79 133.418C1320.72 133.28 1320.7 133.122 1320.73 132.97C1320.76 132.816 1320.85 132.679 1320.97 132.579C1321.09 132.479 1321.24 132.423 1321.4 132.42L1325.26 133.24L1325.35 132.8L1321.67 132.02H1321.49C1321.22 132.004 1320.96 132.086 1320.74 132.249C1320.53 132.413 1320.38 132.647 1320.33 132.911C1320.27 133.174 1320.32 133.448 1320.45 133.683C1320.58 133.918 1320.79 134.098 1321.04 134.19H1321.14H1321.22L1326.1 135.19C1326.51 135.263 1326.93 135.181 1327.28 134.961C1327.63 134.741 1327.89 134.399 1328 134Z" fill="#1A2E35"/>
<path d="M1062.39 15.8901L1061.22 21.3801L1060.58 21.2401L1058.15 16.4501L1057.29 20.5501L1056.5 20.3801L1057.66 14.8901L1058.31 15.0301L1060.74 19.8201L1061.6 15.7201L1062.39 15.8901Z" fill="white"/>
<path d="M1066.88 20.67L1063.51 19.95C1063.48 20.3175 1063.6 20.6812 1063.83 20.9672C1064.06 21.2532 1064.39 21.4402 1064.76 21.49C1064.98 21.5437 1065.22 21.5492 1065.44 21.5061C1065.67 21.463 1065.88 21.3723 1066.07 21.24L1066.38 21.82C1066.01 22.0663 1065.57 22.1989 1065.12 22.202C1064.67 22.205 1064.23 22.0784 1063.86 21.8373C1063.48 21.5962 1063.18 21.251 1062.99 20.8434C1062.81 20.4357 1062.74 19.9831 1062.81 19.54C1062.86 19.2591 1062.96 18.991 1063.12 18.7525C1063.28 18.514 1063.48 18.3101 1063.72 18.1535C1063.96 17.9969 1064.22 17.891 1064.5 17.8422C1064.79 17.7934 1065.07 17.8029 1065.35 17.87C1065.63 17.9145 1065.9 18.0196 1066.14 18.1782C1066.38 18.3367 1066.59 18.545 1066.74 18.7889C1066.89 19.0327 1066.99 19.3065 1067.02 19.5914C1067.06 19.8763 1067.04 20.1658 1066.95 20.44C1066.93 20.518 1066.91 20.5948 1066.88 20.67ZM1063.63 19.41L1066.29 19.98C1066.32 19.6464 1066.23 19.3132 1066.03 19.0433C1065.83 18.7734 1065.54 18.5856 1065.21 18.5155C1064.89 18.4453 1064.54 18.4975 1064.25 18.6624C1063.96 18.8272 1063.74 19.0932 1063.63 19.41Z" fill="white"/>
<path d="M1074.64 19.8801L1072.21 23.7101L1071.49 23.5501L1070.96 20.1501L1069.07 23.0001L1068.35 22.8501L1067.69 18.3601L1068.4 18.5201L1068.91 22.0801L1070.86 19.0801L1071.5 19.2101L1072.03 22.8001L1073.97 19.7301L1074.64 19.8801Z" fill="white"/>
<path d="M1080.86 24.8302L1080.72 25.5102L1076.72 24.6602L1077.89 19.1702L1081.76 19.9902L1081.62 20.6802L1078.53 20.0202L1078.17 21.7102L1080.92 22.2902L1080.78 22.9602L1078.03 22.3802L1077.65 24.1502L1080.86 24.8302Z" fill="white"/>
<path d="M1089.29 24.8201L1088.78 27.2101L1088.03 27.0501L1088.51 24.7501C1088.69 23.9301 1088.38 23.4501 1087.7 23.3001C1087.52 23.2557 1087.34 23.2506 1087.16 23.2851C1086.98 23.3196 1086.81 23.3929 1086.67 23.4997C1086.52 23.6066 1086.4 23.7444 1086.31 23.9034C1086.22 24.0625 1086.17 24.2388 1086.16 24.4201L1085.7 26.5601L1084.95 26.4001L1085.44 24.1001C1085.61 23.2801 1085.3 22.8001 1084.62 22.6501C1084.44 22.6057 1084.26 22.6006 1084.08 22.6351C1083.9 22.6696 1083.73 22.7429 1083.59 22.8497C1083.44 22.9566 1083.32 23.0944 1083.23 23.2534C1083.14 23.4125 1083.09 23.5888 1083.08 23.7701L1082.63 25.9101L1081.88 25.7501L1082.76 21.5901L1083.48 21.7501L1083.35 22.3701C1083.56 22.1865 1083.82 22.0577 1084.09 21.9949C1084.36 21.9322 1084.65 21.9374 1084.92 22.0101C1085.21 22.0509 1085.49 22.174 1085.72 22.3652C1085.94 22.5563 1086.11 22.8076 1086.2 23.0901C1086.43 22.8768 1086.72 22.7256 1087.03 22.6505C1087.33 22.5753 1087.65 22.5786 1087.96 22.6601C1088.2 22.691 1088.43 22.7754 1088.64 22.9073C1088.84 23.0392 1089.01 23.2151 1089.14 23.4223C1089.27 23.6294 1089.35 23.8624 1089.37 24.1043C1089.4 24.3462 1089.37 24.5908 1089.29 24.8201Z" fill="white"/>
<path d="M1094 25.6901L1093.47 28.2001L1092.76 28.0501L1092.87 27.5001C1092.67 27.6755 1092.43 27.7962 1092.17 27.8505C1091.9 27.9048 1091.63 27.8909 1091.38 27.8101C1090.44 27.6101 1089.95 26.9801 1090.11 26.2601C1090.27 25.5401 1090.79 25.1401 1092.03 25.4001L1093.23 25.6501V25.5001C1093.36 24.8701 1093.07 24.4201 1092.33 24.2601C1091.85 24.1546 1091.35 24.2146 1090.91 24.4301L1090.72 23.8001C1091.29 23.5429 1091.94 23.4831 1092.55 23.6301C1092.79 23.6385 1093.03 23.7034 1093.25 23.8196C1093.46 23.9358 1093.65 24.1001 1093.79 24.2997C1093.93 24.4992 1094.02 24.7286 1094.06 24.9698C1094.09 25.2111 1094.07 25.4576 1094 25.6901ZM1093 26.7701L1093.12 26.1901L1091.96 25.9501C1091.22 25.7901 1090.96 26.0301 1090.87 26.3901C1090.78 26.7501 1091.07 27.1401 1091.64 27.2601C1091.89 27.3308 1092.15 27.3216 1092.4 27.2337C1092.64 27.1458 1092.85 26.9837 1093 26.7701Z" fill="white"/>
<path d="M1095.86 23C1095.87 22.9332 1095.9 22.8699 1095.94 22.8138C1095.98 22.7578 1096.03 22.7101 1096.09 22.6738C1096.15 22.6374 1096.21 22.613 1096.28 22.6021C1096.34 22.5911 1096.41 22.5938 1096.48 22.61C1096.55 22.6238 1096.61 22.6504 1096.66 22.6883C1096.72 22.7261 1096.77 22.7745 1096.8 22.8307C1096.84 22.8869 1096.86 22.9498 1096.88 23.0157C1096.89 23.0816 1096.89 23.1494 1096.87 23.215C1096.86 23.2807 1096.83 23.343 1096.8 23.3984C1096.76 23.4538 1096.71 23.5011 1096.65 23.5378C1096.6 23.5745 1096.54 23.5998 1096.47 23.6121C1096.4 23.6245 1096.34 23.6238 1096.27 23.61C1096.2 23.5995 1096.14 23.5749 1096.08 23.5379C1096.02 23.5008 1095.97 23.4521 1095.93 23.3948C1095.89 23.3375 1095.87 23.2728 1095.85 23.2049C1095.84 23.1369 1095.84 23.0672 1095.86 23ZM1095.72 24.31L1096.48 24.47L1095.6 28.63L1094.84 28.47L1095.72 24.31Z" fill="white"/>
<path d="M1098.26 23.1401L1099.02 23.3001L1097.78 29.1201L1097 29.0001L1098.26 23.1401Z" fill="white"/>
<path d="M1053.69 35.2301L1051.81 34.8301L1051.95 34.1501L1056.49 35.1501L1056.35 35.8301L1054.47 35.4301L1053.47 40.2401L1052.69 40.0801L1053.69 35.2301Z" fill="#1A2E35"/>
<path d="M1055.7 38.5101C1055.78 38.0791 1055.99 37.6827 1056.3 37.3712C1056.61 37.0598 1057.01 36.8475 1057.44 36.7614C1057.87 36.6753 1058.31 36.7194 1058.72 36.8879C1059.12 37.0564 1059.47 37.3417 1059.71 37.7076C1059.95 38.0734 1060.08 38.5032 1060.08 38.9421C1060.08 39.381 1059.94 39.8091 1059.7 40.172C1059.45 40.5348 1059.1 40.8159 1058.69 40.9794C1058.29 41.1429 1057.84 41.1815 1057.41 41.0901C1057.12 41.0446 1056.85 40.9399 1056.6 40.7825C1056.36 40.6252 1056.15 40.4187 1055.99 40.1761C1055.83 39.9335 1055.72 39.6601 1055.67 39.3733C1055.62 39.0865 1055.63 38.7926 1055.7 38.5101ZM1059.26 39.2601C1059.3 38.9839 1059.27 38.7006 1059.15 38.4454C1059.04 38.1902 1058.85 37.9742 1058.61 37.8243C1058.38 37.6743 1058.1 37.597 1057.82 37.6018C1057.54 37.6066 1057.27 37.6934 1057.04 37.8514C1056.81 38.0094 1056.63 38.2317 1056.52 38.4907C1056.42 38.7497 1056.39 39.0341 1056.45 39.3086C1056.5 39.5831 1056.63 39.8356 1056.83 40.035C1057.03 40.2343 1057.28 40.3717 1057.55 40.4301C1057.74 40.4751 1057.94 40.48 1058.13 40.4444C1058.32 40.4088 1058.5 40.3335 1058.66 40.2234C1058.82 40.1132 1058.96 39.9706 1059.06 39.8047C1059.17 39.6388 1059.23 39.4533 1059.26 39.2601Z" fill="#1A2E35"/>
<path d="M1063.15 38.4301C1063.16 38.3591 1063.19 38.2913 1063.23 38.231C1063.27 38.1706 1063.32 38.1191 1063.38 38.0796C1063.44 38.0402 1063.51 38.0136 1063.58 38.0016C1063.65 37.9897 1063.72 37.9925 1063.79 38.0101C1063.86 38.0243 1063.93 38.0522 1063.98 38.0923C1064.04 38.1324 1064.09 38.1838 1064.13 38.2435C1064.17 38.3032 1064.19 38.3699 1064.21 38.4397C1064.22 38.5096 1064.22 38.5811 1064.2 38.6501C1064.21 38.7353 1064.2 38.8214 1064.17 38.9013C1064.14 38.9813 1064.09 39.0528 1064.02 39.11C1063.96 39.1672 1063.88 39.2083 1063.8 39.2301C1063.72 39.2519 1063.63 39.2536 1063.55 39.2352C1063.46 39.2168 1063.39 39.1788 1063.32 39.1243C1063.25 39.0697 1063.2 39.0003 1063.17 38.9216C1063.13 38.843 1063.12 38.7574 1063.12 38.6719C1063.13 38.5864 1063.16 38.5036 1063.2 38.4301H1063.15ZM1062.48 41.6001C1062.49 41.5291 1062.52 41.4613 1062.56 41.401C1062.6 41.3406 1062.65 41.2891 1062.71 41.2496C1062.77 41.2102 1062.84 41.1836 1062.91 41.1716C1062.98 41.1597 1063.05 41.1625 1063.12 41.1801C1063.26 41.2112 1063.38 41.2959 1063.46 41.4158C1063.53 41.5356 1063.56 41.6809 1063.53 41.8201C1063.52 41.8907 1063.49 41.9579 1063.45 42.0179C1063.41 42.0779 1063.36 42.1294 1063.3 42.1695C1063.24 42.2095 1063.17 42.2373 1063.1 42.2511C1063.03 42.265 1062.96 42.2646 1062.89 42.2501C1062.82 42.236 1062.75 42.2078 1062.69 42.167C1062.63 42.1263 1062.58 42.0739 1062.55 42.0131C1062.51 41.9523 1062.48 41.8843 1062.47 41.8133C1062.46 41.7423 1062.46 41.6698 1062.48 41.6001Z" fill="#1A2E35"/>
<path d="M1048.58 55.6001C1048.65 55.2204 1048.81 54.8601 1049.03 54.5414C1049.25 54.2227 1049.53 53.9523 1049.86 53.7471C1050.18 53.5418 1050.55 53.406 1050.93 53.3481C1051.32 53.2901 1051.71 53.3112 1052.08 53.4101C1052.47 53.4753 1052.85 53.6253 1053.18 53.8498C1053.51 54.0743 1053.78 54.3679 1053.99 54.7101L1053.37 55.0901C1053.22 54.8332 1053.02 54.6111 1052.78 54.4386C1052.54 54.2661 1052.26 54.1473 1051.97 54.0901C1051.69 54.0153 1051.39 53.9987 1051.1 54.0413C1050.81 54.0839 1050.54 54.1848 1050.29 54.3379C1050.04 54.491 1049.82 54.6932 1049.65 54.9321C1049.48 55.171 1049.37 55.4417 1049.3 55.7277C1049.24 56.0138 1049.24 56.3092 1049.3 56.5962C1049.35 56.8831 1049.47 57.1556 1049.63 57.3971C1049.8 57.6386 1050.01 57.844 1050.26 58.0009C1050.51 58.1579 1050.78 58.2631 1051.07 58.3101C1051.36 58.379 1051.66 58.3851 1051.95 58.3282C1052.24 58.2713 1052.52 58.1526 1052.76 57.9801L1053.16 58.5801C1052.83 58.8093 1052.46 58.9654 1052.07 59.0379C1051.68 59.1103 1051.28 59.0975 1050.89 59.0001C1050.51 58.9384 1050.15 58.7999 1049.82 58.593C1049.5 58.3862 1049.22 58.1154 1049 57.7972C1048.79 57.479 1048.64 57.12 1048.57 56.7423C1048.49 56.3645 1048.5 55.9759 1048.58 55.6001Z" fill="#1A2E35"/>
<path d="M1053.88 57.42C1053.94 57.1323 1054.05 56.8593 1054.22 56.6179C1054.38 56.3765 1054.6 56.172 1054.85 56.0172C1055.09 55.8623 1055.37 55.7604 1055.66 55.7179C1055.95 55.6753 1056.25 55.6931 1056.53 55.77C1056.86 55.8243 1057.17 55.9671 1057.43 56.1835C1057.69 56.4 1057.89 56.6819 1058 57L1057.35 57.25C1057.27 57.0358 1057.14 56.8459 1056.96 56.6988C1056.78 56.5516 1056.57 56.4521 1056.35 56.41C1055.97 56.3527 1055.59 56.4423 1055.27 56.6603C1054.96 56.8783 1054.74 57.2082 1054.66 57.5826C1054.58 57.9569 1054.65 58.3474 1054.85 58.6741C1055.04 59.0008 1055.36 59.239 1055.73 59.34C1055.95 59.4002 1056.19 59.4005 1056.41 59.3408C1056.63 59.2811 1056.84 59.1635 1057 59L1057.49 59.49C1057.25 59.7411 1056.96 59.9232 1056.62 60.0166C1056.29 60.11 1055.94 60.1112 1055.61 60.02C1055.32 59.973 1055.04 59.8668 1054.8 59.7081C1054.55 59.5493 1054.34 59.3414 1054.18 59.0974C1054.02 58.8533 1053.91 58.5784 1053.85 58.2897C1053.8 58.0011 1053.81 57.705 1053.88 57.42Z" fill="#1A2E35"/>
<path d="M1060.83 57.24C1060.84 57.1686 1060.87 57.1006 1060.91 57.0403C1060.95 56.9799 1061 56.9284 1061.06 56.889C1061.13 56.8497 1061.19 56.8232 1061.26 56.8113C1061.34 56.7995 1061.41 56.8024 1061.48 56.82C1061.55 56.834 1061.61 56.862 1061.67 56.9023C1061.73 56.9425 1061.78 56.9941 1061.82 57.054C1061.86 57.1139 1061.88 57.1808 1061.89 57.2506C1061.9 57.3204 1061.9 57.3916 1061.88 57.46C1061.87 57.5302 1061.84 57.5972 1061.8 57.6572C1061.77 57.7171 1061.72 57.7686 1061.66 57.8088C1061.6 57.8489 1061.53 57.8768 1061.46 57.8907C1061.39 57.9047 1061.32 57.9044 1061.25 57.89C1061.11 57.8588 1060.99 57.7731 1060.91 57.6514C1060.83 57.5297 1060.8 57.3818 1060.83 57.24ZM1060.16 60.41C1060.17 60.3384 1060.2 60.2701 1060.24 60.2094C1060.28 60.1486 1060.33 60.0966 1060.39 60.0564C1060.45 60.0162 1060.52 59.9888 1060.59 59.9756C1060.67 59.9625 1060.74 59.964 1060.81 59.98C1060.95 60.0105 1061.08 60.0966 1061.16 60.2195C1061.24 60.3423 1061.27 60.4918 1061.24 60.635C1061.2 60.7782 1061.12 60.9034 1061 60.9832C1060.87 61.0629 1060.72 61.0905 1060.58 61.06C1060.51 61.0458 1060.44 61.0176 1060.38 60.977C1060.32 60.9364 1060.27 60.8842 1060.23 60.8236C1060.19 60.7631 1060.17 60.6952 1060.15 60.6242C1060.14 60.5531 1060.14 60.4803 1060.16 60.41Z" fill="#1A2E35"/>
<path d="M1043.34 76.26L1043.76 75.7C1044.19 76.2203 1044.78 76.5743 1045.44 76.7C1046.44 76.9 1046.87 76.62 1046.97 76.14C1047.26 74.8 1043.75 74.95 1044.18 72.91C1044.36 72.06 1045.18 71.48 1046.62 71.78C1047.24 71.9033 1047.82 72.2016 1048.28 72.64L1047.89 73.21C1047.5 72.8335 1047.01 72.5708 1046.48 72.45C1045.54 72.25 1045.06 72.56 1044.96 73.04C1044.68 74.38 1048.18 74.24 1047.75 76.26C1047.57 77.1 1046.75 77.68 1045.3 77.37C1044.54 77.2381 1043.84 76.8458 1043.34 76.26Z" fill="#1A2E35"/>
<path d="M1053.22 74.6601L1052.34 78.8201L1051.63 78.6701L1051.76 78.0401C1051.55 78.2223 1051.3 78.3511 1051.03 78.4155C1050.75 78.4799 1050.47 78.478 1050.2 78.4101C1049.95 78.3845 1049.71 78.3031 1049.5 78.172C1049.29 78.0409 1049.11 77.8634 1048.97 77.6529C1048.84 77.4424 1048.75 77.2042 1048.72 76.9561C1048.69 76.708 1048.72 76.4564 1048.8 76.2201L1049.31 73.8301L1050.06 73.9901L1049.57 76.3001C1049.51 76.4521 1049.49 76.6155 1049.5 76.778C1049.51 76.9404 1049.56 77.0978 1049.65 77.2383C1049.73 77.3787 1049.84 77.4987 1049.98 77.589C1050.11 77.6794 1050.27 77.7379 1050.43 77.7601C1050.61 77.8075 1050.79 77.8154 1050.98 77.7831C1051.16 77.7509 1051.33 77.6794 1051.48 77.5736C1051.63 77.4678 1051.76 77.3303 1051.85 77.1707C1051.94 77.0112 1051.99 76.8335 1052.01 76.6501L1052.47 74.5001L1053.22 74.6601Z" fill="#1A2E35"/>
<path d="M1058.52 78C1058.47 78.2847 1058.37 78.5568 1058.21 78.7989C1058.06 79.041 1057.85 79.2478 1057.61 79.4059C1057.37 79.5641 1057.1 79.6701 1056.81 79.7174C1056.53 79.7646 1056.24 79.7519 1055.96 79.68C1055.67 79.6343 1055.4 79.5193 1055.17 79.345C1054.94 79.1707 1054.75 78.9425 1054.63 78.68L1054.49 79.34L1053.77 79.19L1055 73.3L1055.76 73.46L1055.27 75.75C1055.49 75.567 1055.74 75.4387 1056.02 75.3761C1056.3 75.3134 1056.59 75.3182 1056.86 75.39C1057.15 75.4353 1057.43 75.5416 1057.67 75.7019C1057.92 75.8622 1058.12 76.0728 1058.28 76.3198C1058.44 76.5667 1058.54 76.8443 1058.58 77.134C1058.62 77.4238 1058.6 77.719 1058.52 78ZM1057.76 77.84C1057.8 77.566 1057.77 77.2851 1057.65 77.0315C1057.54 76.7779 1057.36 76.5627 1057.12 76.412C1056.89 76.2614 1056.62 76.1818 1056.34 76.1831C1056.06 76.1843 1055.79 76.2663 1055.56 76.4191C1055.33 76.5718 1055.15 76.7887 1055.04 77.0433C1054.93 77.2979 1054.89 77.5791 1054.94 77.8528C1054.98 78.1264 1055.11 78.3806 1055.3 78.5843C1055.49 78.788 1055.73 78.9325 1056 79C1056.2 79.0516 1056.4 79.0602 1056.6 79.0254C1056.8 78.9906 1056.99 78.9131 1057.16 78.7983C1057.32 78.6834 1057.46 78.5339 1057.57 78.3599C1057.67 78.1859 1057.74 77.9916 1057.76 77.79V77.84Z" fill="#1A2E35"/>
<path d="M1057.4 81.2601L1057.77 80.7401C1057.92 80.9076 1058.12 81.0203 1058.34 81.0601C1058.74 81.1501 1059.01 80.9401 1059.11 80.4601L1060.03 76.1001L1060.79 76.2601L1059.87 80.6101C1059.85 80.7956 1059.79 80.9747 1059.7 81.1348C1059.6 81.2949 1059.47 81.4321 1059.32 81.5369C1059.16 81.6417 1058.99 81.7115 1058.8 81.7414C1058.62 81.7713 1058.43 81.7606 1058.25 81.7101C1057.93 81.6567 1057.63 81.4987 1057.4 81.2601ZM1060.17 74.7901C1060.18 74.7232 1060.21 74.6599 1060.25 74.6038C1060.29 74.5478 1060.34 74.5002 1060.4 74.4638C1060.46 74.4274 1060.52 74.403 1060.59 74.3921C1060.65 74.3811 1060.72 74.3839 1060.79 74.4001C1060.86 74.4139 1060.92 74.4404 1060.97 74.4783C1061.03 74.5162 1061.08 74.5646 1061.11 74.6208C1061.15 74.6769 1061.17 74.7398 1061.19 74.8057C1061.2 74.8717 1061.2 74.9394 1061.18 75.0051C1061.17 75.0707 1061.14 75.133 1061.11 75.1884C1061.07 75.2438 1061.02 75.2912 1060.96 75.3279C1060.91 75.3645 1060.85 75.3898 1060.78 75.4022C1060.71 75.4146 1060.65 75.4139 1060.58 75.4001C1060.51 75.3895 1060.45 75.3649 1060.39 75.3279C1060.33 75.2909 1060.28 75.2422 1060.24 75.1848C1060.2 75.1275 1060.18 75.0629 1060.16 74.9949C1060.15 74.927 1060.15 74.8572 1060.17 74.7901Z" fill="#1A2E35"/>
<path d="M1065.47 79.69L1062.1 79C1062.07 79.3665 1062.18 79.7301 1062.41 80.0165C1062.64 80.3028 1062.98 80.4901 1063.34 80.54C1063.56 80.5937 1063.8 80.5992 1064.02 80.5561C1064.25 80.513 1064.46 80.4223 1064.65 80.29L1064.96 80.86C1064.59 81.1068 1064.15 81.2403 1063.7 81.2442C1063.26 81.2481 1062.82 81.1223 1062.44 80.882C1062.07 80.6417 1061.77 80.2973 1061.58 79.8905C1061.4 79.4837 1061.33 79.0319 1061.4 78.59C1061.45 78.3094 1061.55 78.0416 1061.71 77.8031C1061.86 77.5646 1062.06 77.3607 1062.3 77.204C1062.54 77.0473 1062.81 76.9412 1063.09 76.8923C1063.37 76.8435 1063.65 76.8529 1063.93 76.92C1064.21 76.9645 1064.48 77.0696 1064.72 77.2281C1064.96 77.3867 1065.17 77.595 1065.32 77.8389C1065.47 78.0827 1065.57 78.3564 1065.6 78.6413C1065.64 78.9263 1065.62 79.2157 1065.53 79.49C1065.51 79.5577 1065.49 79.6244 1065.47 79.69ZM1062.21 78.43L1064.88 79C1064.92 78.6594 1064.84 78.3151 1064.64 78.0353C1064.44 77.7554 1064.14 77.5603 1063.81 77.4886C1063.47 77.4169 1063.12 77.4739 1062.83 77.6483C1062.53 77.8226 1062.31 78.1016 1062.21 78.43Z" fill="#1A2E35"/>
<path d="M1066.19 79.5801C1066.24 79.2916 1066.36 79.0174 1066.52 78.7749C1066.69 78.5324 1066.9 78.3267 1067.15 78.1709C1067.4 78.015 1067.68 77.9122 1067.97 77.8691C1068.26 77.8259 1068.56 77.8433 1068.84 77.9201C1069.18 77.9722 1069.5 78.1161 1069.76 78.3364C1070.03 78.5567 1070.23 78.8449 1070.34 79.1701L1069.69 79.4201C1069.61 79.2059 1069.48 79.016 1069.3 78.8689C1069.13 78.7218 1068.91 78.6223 1068.69 78.5801C1068.31 78.5229 1067.93 78.6124 1067.61 78.8304C1067.3 79.0484 1067.08 79.3783 1067 79.7527C1066.92 80.1271 1066.99 80.5176 1067.19 80.8443C1067.38 81.171 1067.7 81.4091 1068.07 81.5101C1068.29 81.5611 1068.53 81.5548 1068.75 81.4919C1068.97 81.4289 1069.17 81.3114 1069.33 81.1501L1069.82 81.6301C1069.59 81.8821 1069.29 82.0655 1068.96 82.1606C1068.62 82.2557 1068.27 82.259 1067.94 82.1701C1067.65 82.1254 1067.37 82.0213 1067.12 81.8643C1066.88 81.7072 1066.66 81.5006 1066.5 81.2574C1066.34 81.0142 1066.22 80.7397 1066.17 80.451C1066.12 80.1624 1066.12 79.8659 1066.19 79.5801Z" fill="#1A2E35"/>
<path d="M1073.05 83.0002C1072.74 83.1525 1072.38 83.188 1072.05 83.1002C1071.87 83.0768 1071.7 83.0145 1071.55 82.9177C1071.4 82.8209 1071.27 82.692 1071.18 82.5401C1071.08 82.3883 1071.02 82.2173 1071 82.0393C1070.98 81.8613 1070.99 81.6806 1071.05 81.5102L1071.53 79.2302L1070.83 79.0802L1070.96 78.4602L1071.66 78.6102L1071.86 77.7002L1072.61 77.8602L1072.42 78.7702L1073.61 79.0202L1073.48 79.6402L1072.29 79.3902L1071.81 81.6402C1071.78 81.7281 1071.77 81.8221 1071.77 81.9153C1071.78 82.0086 1071.81 82.0987 1071.86 82.1791C1071.91 82.2596 1071.97 82.3283 1072.05 82.3804C1072.13 82.4325 1072.22 82.4666 1072.31 82.4802C1072.52 82.5258 1072.74 82.5012 1072.94 82.4102L1073.05 83.0002Z" fill="#1A2E35"/>
<path d="M1076.44 80.0901C1076.45 80.0194 1076.48 79.9522 1076.52 79.8926C1076.56 79.833 1076.62 79.7821 1076.68 79.7429C1076.74 79.7038 1076.8 79.6772 1076.88 79.6647C1076.95 79.6522 1077.02 79.654 1077.09 79.6701C1077.16 79.6842 1077.22 79.7122 1077.28 79.7524C1077.34 79.7926 1077.39 79.8443 1077.43 79.9042C1077.47 79.964 1077.49 80.0309 1077.5 80.1007C1077.51 80.1705 1077.51 80.2418 1077.49 80.3101C1077.48 80.3806 1077.45 80.448 1077.41 80.5083C1077.38 80.5687 1077.33 80.6208 1077.27 80.6618C1077.21 80.7027 1077.14 80.7316 1077.07 80.7467C1077 80.7619 1076.93 80.7631 1076.86 80.7501C1076.79 80.7348 1076.72 80.7054 1076.66 80.6638C1076.6 80.6222 1076.55 80.5692 1076.51 80.5078C1076.47 80.4464 1076.45 80.3779 1076.43 80.3062C1076.42 80.2345 1076.42 80.1611 1076.44 80.0901ZM1075.77 83.2601C1075.78 83.1898 1075.81 83.1228 1075.85 83.0633C1075.89 83.0037 1075.94 82.9528 1076 82.9135C1076.06 82.8743 1076.13 82.8476 1076.2 82.8349C1076.27 82.8223 1076.34 82.8241 1076.41 82.8401C1076.48 82.853 1076.55 82.8801 1076.61 82.9199C1076.67 82.9596 1076.72 83.0111 1076.75 83.0711C1076.79 83.1311 1076.82 83.1984 1076.83 83.2688C1076.84 83.3391 1076.84 83.4111 1076.82 83.4801C1076.81 83.5503 1076.78 83.6174 1076.74 83.6773C1076.71 83.7372 1076.66 83.7888 1076.6 83.8289C1076.54 83.869 1076.47 83.8969 1076.4 83.9109C1076.33 83.9248 1076.26 83.9246 1076.19 83.9101C1076.12 83.8959 1076.05 83.8677 1075.99 83.8271C1075.93 83.7865 1075.88 83.7344 1075.84 83.6738C1075.8 83.6132 1075.78 83.5454 1075.76 83.4743C1075.75 83.4033 1075.75 83.3304 1075.77 83.2601Z" fill="#1A2E35"/>
<path d="M1152.58 60.16C1152.58 60.32 1134.92 56.72 1113.21 52.16C1091.5 47.6 1073.91 43.7 1073.95 43.54C1073.99 43.38 1091.61 46.98 1113.33 51.54C1135.05 56.1 1152.62 60 1152.58 60.16Z" fill="#1A2E35"/>
<path d="M1183.9 85.5401C1183.9 85.7001 1158.37 80.4301 1126.97 73.7801C1095.57 67.1301 1070.12 61.6101 1070.15 61.4501C1070.18 61.2901 1095.67 66.5601 1127.09 73.2101C1158.51 79.8601 1183.93 85.3801 1183.9 85.5401Z" fill="#1A2E35"/>
<path d="M1138.07 94.4301C1137.89 94.4447 1137.71 94.4278 1137.53 94.3801L1136.03 94.1201L1130.51 93.0501C1125.85 92.1101 1119.42 90.7901 1112.33 89.2901C1105.24 87.7901 1098.83 86.3901 1094.2 85.3601L1088.71 84.1001L1087.23 83.7301C1087.05 83.6992 1086.88 83.6419 1086.72 83.5601C1086.9 83.5356 1087.07 83.5356 1087.25 83.5601L1088.76 83.8301L1094.28 84.9001C1098.94 85.8301 1105.37 87.1601 1112.46 88.6601C1119.55 90.1601 1125.96 91.5501 1130.59 92.5901L1136.07 93.8401L1137.56 94.2201C1137.74 94.2673 1137.91 94.3379 1138.07 94.4301Z" fill="#1A2E35"/>
<path d="M1329.35 145.05C1329.35 145.21 1263.21 131.35 1181.72 114.05C1100.23 96.7502 1034.17 82.6702 1034.21 82.5102C1034.25 82.3502 1100.33 96.2102 1181.85 113.51C1263.37 130.81 1329.38 144.89 1329.35 145.05Z" fill="#E1E1E1"/>
<path d="M1333.46 125.63C1333.46 125.79 1267.3 111.93 1185.78 94.63C1104.26 77.33 1038.17 63.24 1038.21 63.08C1038.25 62.92 1104.35 76.78 1185.9 94.08C1267.45 111.38 1333.5 125.48 1333.46 125.63Z" fill="#E1E1E1"/>
<path d="M1337.07 108.6C1337.07 108.75 1270.93 94.89 1189.44 77.6C1107.95 60.31 1041.89 46.26 1041.93 46.1C1041.97 45.94 1108.05 59.8 1189.57 77.1C1271.09 94.4 1337.1 108.44 1337.07 108.6Z" fill="#E1E1E1"/>
<path d="M1065.77 114C1062.6 113.63 1059.45 113.066 1056.34 112.31C1053.18 111.726 1050.06 110.955 1047 110C1050.17 110.372 1053.32 110.936 1056.43 111.69C1059.59 112.271 1062.71 113.043 1065.77 114Z" fill="#1A2E35"/>
<path d="M1124.43 141.08C1124.43 141.24 1106.43 137.56 1084.18 132.86C1061.93 128.16 1044.02 124.22 1044.05 124.06C1044.08 123.9 1062.11 127.58 1084.31 132.28C1106.51 136.98 1124.47 140.92 1124.43 141.08Z" fill="#1A2E35"/>
<path d="M1292.59 201.74H1209.82C1208.11 201.74 1206.47 201.06 1205.26 199.851C1204.05 198.641 1203.37 197.001 1203.37 195.29V139.39C1203.37 138.613 1203.68 137.868 1204.23 137.318C1204.78 136.769 1205.52 136.46 1206.3 136.46H1296.12C1296.9 136.46 1297.64 136.769 1298.19 137.318C1298.74 137.868 1299.05 138.613 1299.05 139.39V195.29C1299.05 196.138 1298.88 196.977 1298.56 197.761C1298.23 198.544 1297.76 199.255 1297.16 199.854C1296.56 200.453 1295.85 200.928 1295.06 201.252C1294.28 201.575 1293.44 201.741 1292.59 201.74Z" fill="#FE736B"/>
<path d="M1209.83 201.74H1209.62C1209.49 201.74 1209.28 201.74 1209.02 201.69C1208.24 201.58 1207.48 201.333 1206.78 200.96C1205.65 200.334 1204.73 199.388 1204.14 198.24C1203.76 197.515 1203.53 196.724 1203.46 195.91C1203.4 195.04 1203.46 194.1 1203.46 193.11C1203.46 185.11 1203.46 173.67 1203.52 159.48C1203.52 155.927 1203.52 152.21 1203.52 148.33V142.4C1203.52 141.4 1203.52 140.4 1203.52 139.4C1203.53 138.907 1203.67 138.425 1203.93 138.003C1204.18 137.581 1204.55 137.235 1204.98 137C1205.43 136.765 1205.93 136.652 1206.43 136.67H1231.51H1292.59H1295.59C1295.92 136.638 1296.26 136.638 1296.59 136.67C1297.22 136.785 1297.78 137.113 1298.19 137.597C1298.61 138.082 1298.84 138.694 1298.85 139.33C1298.85 142 1298.85 144.66 1298.85 147.33V162.92C1298.85 173.13 1298.85 182.99 1298.85 192.38C1298.85 193.55 1298.85 194.73 1298.85 195.86C1298.76 196.985 1298.36 198.064 1297.7 198.98C1297.05 199.885 1296.17 200.602 1295.16 201.06C1294.14 201.492 1293.04 201.681 1291.94 201.61H1279H1255.78L1222.15 201.67H1213H1210.63H1209.82H1210.63H1213H1222.15L1255.78 201.73H1279H1292C1293.15 201.796 1294.29 201.598 1295.35 201.15C1296.42 200.668 1297.35 199.908 1298.04 198.948C1298.72 197.988 1299.14 196.864 1299.24 195.69C1299.24 194.5 1299.24 193.36 1299.24 192.18C1299.24 182.79 1299.24 172.93 1299.24 162.72V139.33C1299.23 138.611 1298.97 137.918 1298.5 137.37C1298.03 136.823 1297.39 136.455 1296.68 136.33C1296.35 136.286 1296.01 136.27 1295.68 136.28H1292.68H1231.6H1206.52C1205.97 136.263 1205.42 136.39 1204.93 136.65C1204.45 136.908 1204.05 137.29 1203.76 137.756C1203.48 138.222 1203.33 138.755 1203.32 139.3V148.3C1203.32 152.18 1203.32 155.897 1203.32 159.45C1203.32 173.64 1203.32 185.13 1203.38 193.08C1203.38 194.08 1203.38 195 1203.38 195.89C1203.46 196.718 1203.7 197.523 1204.09 198.26C1204.7 199.42 1205.64 200.371 1206.79 200.99C1207.49 201.365 1208.26 201.602 1209.05 201.69C1209.31 201.721 1209.57 201.738 1209.83 201.74Z" fill="#1A2E35"/>
<path d="M1242.93 201.74H1259.54C1259.54 201.74 1264.66 210.27 1259.54 215.38H1242.36C1242.36 215.38 1250.83 209.83 1242.93 201.74Z" fill="#FE736B"/>
<g opacity="0.3">
<path opacity="0.3" d="M1259.54 201.74L1260.39 203.43L1245.16 204.62C1245.16 204.62 1243.9 202.82 1242.93 201.74H1259.54Z" fill="black"/>
</g>
<path d="M1249.18 197.28C1250.22 197.28 1251.06 196.438 1251.06 195.4C1251.06 194.362 1250.22 193.52 1249.18 193.52C1248.14 193.52 1247.3 194.362 1247.3 195.4C1247.3 196.438 1248.14 197.28 1249.18 197.28Z" fill="#FAFAFA"/>
<path d="M1294.47 140.06H1207.96V189.85H1294.47V140.06Z" fill="#FAFAFA"/>
<path d="M1208 189.84C1208 189.84 1208 189.53 1208 188.94C1208 188.35 1208 187.47 1208 186.34C1208 184.04 1208 180.68 1208 176.34C1208 167.72 1208 155.29 1208.08 140.03L1207.94 140.16H1294.44L1294.26 139.99C1294.26 157.6 1294.26 174.44 1294.26 189.77L1294.43 189.61L1232.21 189.69H1214.34H1209.57H1214.3L1232.13 189.74L1294.46 189.82H1294.62V189.65C1294.62 174.32 1294.62 157.48 1294.62 139.87V139.69H1294.44H1207.94H1207.8V139.83C1207.8 155.12 1207.86 167.58 1207.87 176.23C1207.87 180.53 1207.87 183.88 1207.87 186.16C1207.87 187.29 1207.87 188.16 1207.87 188.74C1207.87 189.32 1208 189.84 1208 189.84Z" fill="#1A2E35"/>
<path d="M1273.13 188.63H1293.49V144.28H1273.13V188.63Z" fill="#FE736B"/>
<g opacity="0.4">
<path opacity="0.4" d="M1273.15 165.02H1293.5V161.05H1273.15V165.02Z" fill="black"/>
</g>
<g opacity="0.4">
<path opacity="0.4" d="M1273.15 173.14H1293.5V169.17H1273.15V173.14Z" fill="black"/>
</g>
<g opacity="0.4">
<path opacity="0.4" d="M1273.15 183.23H1293.5V178.84H1273.15V183.23Z" fill="black"/>
</g>
<path d="M1276.68 167.11C1281.04 167.35 1285.41 167.35 1289.77 167.11C1285.41 166.87 1281.04 166.87 1276.68 167.11Z" fill="#1A2E35"/>
<path d="M1276.68 163C1281.04 163.227 1285.41 163.227 1289.77 163C1285.41 162.76 1281.04 162.76 1276.68 163Z" fill="#1A2E35"/>
<path d="M1273.14 183.24C1273.14 183.34 1277.65 183.42 1283.22 183.42C1288.79 183.42 1293.31 183.34 1293.31 183.24C1293.31 183.14 1288.79 183.06 1283.22 183.06C1277.65 183.06 1273.14 183.14 1273.14 183.24Z" fill="#1A2E35"/>
<path d="M1279.78 171.29C1283.11 171.53 1286.45 171.53 1289.78 171.29C1286.45 171.063 1283.11 171.063 1279.78 171.29Z" fill="#1A2E35"/>
<path d="M1278.37 180.57C1281.7 180.797 1285.04 180.797 1288.37 180.57C1285.04 180.33 1281.7 180.33 1278.37 180.57Z" fill="#1A2E35"/>
<path d="M1276.68 175.88C1281.04 176.12 1285.41 176.12 1289.77 175.88C1285.41 175.64 1281.04 175.64 1276.68 175.88Z" fill="#1A2E35"/>
<path d="M1276.68 185.84C1281.04 186.067 1285.41 186.067 1289.77 185.84C1285.41 185.6 1281.04 185.6 1276.68 185.84Z" fill="#1A2E35"/>
<path d="M1278.74 152.11C1278.74 152.969 1278.97 153.813 1279.4 154.554C1279.84 155.296 1280.46 155.909 1281.21 156.33V155C1281.25 154.42 1281.51 153.877 1281.93 153.479C1282.35 153.082 1282.91 152.861 1283.49 152.861C1284.08 152.861 1284.64 153.082 1285.06 153.479C1285.48 153.877 1285.74 154.42 1285.78 155V156.48C1286.56 156.096 1287.22 155.512 1287.69 154.787C1288.16 154.063 1288.43 153.224 1288.47 152.36C1288.52 151.495 1288.32 150.635 1287.92 149.869C1287.52 149.104 1286.91 148.46 1286.18 148.005C1285.44 147.551 1284.6 147.302 1283.73 147.284C1282.86 147.266 1282.01 147.48 1281.25 147.904C1280.5 148.328 1279.87 148.946 1279.44 149.695C1279 150.443 1278.78 151.294 1278.78 152.16L1278.74 152.11ZM1281.74 150.61C1281.74 150.272 1281.84 149.941 1282.03 149.66C1282.22 149.379 1282.48 149.16 1282.8 149.03C1283.11 148.901 1283.45 148.867 1283.78 148.933C1284.12 148.999 1284.42 149.162 1284.66 149.401C1284.9 149.64 1285.06 149.945 1285.13 150.276C1285.19 150.608 1285.16 150.952 1285.03 151.264C1284.9 151.577 1284.68 151.844 1284.4 152.032C1284.12 152.22 1283.79 152.32 1283.45 152.32C1283.01 152.307 1282.58 152.121 1282.27 151.802C1281.96 151.483 1281.79 151.055 1281.79 150.61H1281.74Z" fill="#FAFAFA"/>
<path d="M1283.5 152.67C1284.1 152.67 1284.68 152.91 1285.11 153.338C1285.54 153.765 1285.78 154.345 1285.78 154.95V156.43C1285.1 156.78 1284.35 156.961 1283.59 156.96C1282.76 156.959 1281.94 156.742 1281.21 156.33V155C1281.2 154.696 1281.26 154.393 1281.37 154.11C1281.48 153.827 1281.65 153.569 1281.86 153.352C1282.08 153.135 1282.33 152.962 1282.61 152.845C1282.89 152.728 1283.2 152.669 1283.5 152.67Z" fill="#FE736B"/>
<path d="M1283.5 148.9C1283.84 148.9 1284.17 149 1284.45 149.188C1284.73 149.376 1284.95 149.643 1285.08 149.956C1285.21 150.268 1285.24 150.612 1285.18 150.944C1285.11 151.275 1284.95 151.58 1284.71 151.819C1284.47 152.058 1284.17 152.221 1283.83 152.287C1283.5 152.353 1283.16 152.319 1282.85 152.19C1282.53 152.061 1282.27 151.841 1282.08 151.56C1281.89 151.279 1281.79 150.948 1281.79 150.61C1281.79 150.157 1281.97 149.722 1282.29 149.401C1282.61 149.08 1283.05 148.9 1283.5 148.9Z" fill="#FE736B"/>
<path d="M1278.71 152.11C1278.71 152.11 1278.71 151.68 1278.93 150.94C1279.22 149.909 1279.84 149.003 1280.7 148.36C1281.33 147.886 1282.07 147.578 1282.85 147.464C1283.63 147.351 1284.42 147.435 1285.16 147.71C1286.03 148.029 1286.79 148.6 1287.33 149.35C1287.92 150.151 1288.23 151.118 1288.23 152.11C1288.23 153.102 1287.92 154.069 1287.33 154.87C1286.81 155.583 1286.1 156.136 1285.28 156.465C1284.46 156.794 1283.56 156.886 1282.69 156.73C1281.97 156.6 1281.28 156.306 1280.69 155.87C1279.83 155.222 1279.21 154.313 1278.92 153.28C1278.72 152.54 1278.74 152.11 1278.7 152.11C1278.69 152.213 1278.69 152.317 1278.7 152.42C1278.7 152.72 1278.74 153.019 1278.81 153.31C1279.02 154.235 1279.5 155.078 1280.18 155.737C1280.86 156.396 1281.72 156.842 1282.65 157.02C1283.58 157.205 1284.55 157.121 1285.43 156.777C1286.32 156.434 1287.09 155.845 1287.65 155.08C1288.11 154.453 1288.42 153.725 1288.56 152.956C1288.69 152.187 1288.64 151.398 1288.41 150.652C1288.18 149.905 1287.79 149.222 1287.25 148.658C1286.71 148.093 1286.04 147.662 1285.31 147.4C1284.47 147.099 1283.56 147.03 1282.68 147.2C1281.91 147.365 1281.2 147.708 1280.59 148.2C1279.71 148.886 1279.09 149.858 1278.84 150.95C1278.77 151.242 1278.73 151.54 1278.73 151.84C1278.71 151.929 1278.71 152.02 1278.71 152.11Z" fill="#FAFAFA"/>
<path d="M1209.38 165.08H1273.13V159.12H1209.38V165.08Z" fill="#ECECEC"/>
<path d="M1209.38 147.26H1273.13V144.27H1209.38V147.26Z" fill="#F5F5F5"/>
<path d="M1227.83 146.33H1270.88C1271.15 146.33 1271.37 146.111 1271.37 145.84V145.65C1271.37 145.379 1271.15 145.16 1270.88 145.16H1227.83C1227.56 145.16 1227.34 145.379 1227.34 145.65V145.84C1227.34 146.111 1227.56 146.33 1227.83 146.33Z" fill="#E1E1E1"/>
<path d="M1221.68 146.33H1224.55C1224.82 146.33 1225.04 146.111 1225.04 145.84V145.65C1225.04 145.379 1224.82 145.16 1224.55 145.16H1221.68C1221.41 145.16 1221.19 145.379 1221.19 145.65V145.84C1221.19 146.111 1221.41 146.33 1221.68 146.33Z" fill="#E1E1E1"/>
<path d="M1218.67 145.57H1219.15V145.09H1218.67V145.57Z" fill="#E1E1E1"/>
<path d="M1218.67 146.21H1219.15V145.73H1218.67V146.21Z" fill="#E1E1E1"/>
<path d="M1217.92 145.57H1218.4V145.09H1217.92V145.57Z" fill="#E1E1E1"/>
<path d="M1217.92 146.21H1218.4V145.73H1217.92V146.21Z" fill="#E1E1E1"/>
<path d="M1209.38 153.23H1273.13V147.27H1209.38V153.23Z" fill="#E1E1E1"/>
<path d="M1269.57 151.01H1271.37V149.21H1269.57V151.01Z" fill="#FE736B"/>
<path d="M1241.68 150.11C1241.68 150.2 1247.54 150.28 1254.75 150.28C1261.96 150.28 1267.82 150.2 1267.82 150.11C1267.82 150.02 1261.97 149.93 1254.75 149.93C1247.53 149.93 1241.68 150 1241.68 150.11Z" fill="#1A2E35"/>
<path d="M1217.06 150.06C1217.53 150.237 1218.03 150.299 1218.53 150.24C1219.03 150.298 1219.53 150.236 1220 150.06C1219.53 149.884 1219.03 149.822 1218.53 149.88C1218.03 149.821 1217.53 149.883 1217.06 150.06Z" fill="#1A2E35"/>
<path d="M1209.38 170.99H1273.13V165.03H1209.38V170.99Z" fill="#FAFAFA"/>
<path d="M1269.8 168.78H1271.62V166.98H1269.8V168.78Z" fill="#FE736B"/>
<path d="M1241.64 167.87C1241.64 167.97 1247.55 168.05 1254.84 168.05C1262.13 168.05 1268.03 167.97 1268.03 167.87C1268.03 167.77 1262.12 167.69 1254.84 167.69C1247.56 167.69 1241.64 167.77 1241.64 167.87Z" fill="#1A2E35"/>
<path d="M1216.78 167.82C1217.77 168.065 1218.8 168.065 1219.78 167.82C1218.8 167.575 1217.77 167.575 1216.78 167.82Z" fill="#1A2E35"/>
<path d="M1209.38 176.87H1273.13V170.91H1209.38V176.87Z" fill="#E1E1E1"/>
<path d="M1269.8 174.66H1271.62V172.86H1269.8V174.66Z" fill="#FE736B"/>
<path d="M1241.64 173.75C1241.64 173.85 1247.55 173.93 1254.84 173.93C1262.13 173.93 1268.03 173.85 1268.03 173.75C1268.03 173.65 1262.12 173.57 1254.84 173.57C1247.56 173.57 1241.64 173.65 1241.64 173.75Z" fill="#1A2E35"/>
<path d="M1216.78 173.7C1217.77 173.945 1218.8 173.945 1219.78 173.7C1218.8 173.455 1217.77 173.455 1216.78 173.7Z" fill="#1A2E35"/>
<path d="M1209.38 182.75H1273.13V176.79H1209.38V182.75Z" fill="#FAFAFA"/>
<path d="M1269.8 180.53H1271.62V178.73H1269.8V180.53Z" fill="#FE736B"/>
<path d="M1241.64 179.63C1241.64 179.72 1247.55 179.8 1254.84 179.8C1262.13 179.8 1268.03 179.72 1268.03 179.63C1268.03 179.54 1262.12 179.45 1254.84 179.45C1247.56 179.45 1241.64 179.53 1241.64 179.63Z" fill="#1A2E35"/>
<path d="M1216.78 179.58C1217.77 179.825 1218.8 179.825 1219.78 179.58C1218.8 179.335 1217.77 179.335 1216.78 179.58Z" fill="#1A2E35"/>
<path d="M1209.38 188.62H1273.13V182.66H1209.38V188.62Z" fill="#ECECEC"/>
<path d="M1269.8 186.41H1271.62V184.61H1269.8V186.41Z" fill="#FE736B"/>
<path d="M1241.64 185.5C1241.64 185.6 1247.55 185.68 1254.84 185.68C1262.13 185.68 1268.03 185.6 1268.03 185.5C1268.03 185.4 1262.12 185.33 1254.84 185.33C1247.56 185.33 1241.64 185.41 1241.64 185.5Z" fill="#1A2E35"/>
<path d="M1216.78 185.45C1217.77 185.695 1218.8 185.695 1219.78 185.45C1218.79 185.219 1217.77 185.219 1216.78 185.45Z" fill="#1A2E35"/>
<path d="M1209.38 159.12H1273.14V153.16H1209.38V159.12Z" fill="#FAFAFA"/>
<path d="M1269.57 156.9H1271.37V155.1H1269.57V156.9Z" fill="#FE736B"/>
<path d="M1252.86 156C1252.86 156.09 1256.21 156.17 1260.34 156.17C1264.47 156.17 1267.82 156.09 1267.82 156C1267.82 155.91 1264.47 155.82 1260.34 155.82C1256.21 155.82 1252.86 155.9 1252.86 156Z" fill="#1A2E35"/>
<path d="M1217.06 156.17C1217.53 156.347 1218.03 156.409 1218.53 156.35C1219.03 156.408 1219.53 156.346 1220 156.17C1219.53 155.994 1219.03 155.932 1218.53 155.99C1218.03 155.931 1217.53 155.993 1217.06 156.17Z" fill="#1A2E35"/>
<path d="M1217.06 162C1217.53 162.177 1218.03 162.239 1218.53 162.18C1219.03 162.238 1219.53 162.176 1220 162C1219.53 161.824 1219.03 161.762 1218.53 161.82C1218.03 161.761 1217.53 161.823 1217.06 162Z" fill="#1A2E35"/>
<path d="M1269.57 162.86H1271.37V161.06H1269.57V162.86Z" fill="#FE736B"/>
<path d="M1231.78 162C1231.78 162.1 1239.85 162.18 1249.78 162.18C1259.71 162.18 1267.78 162.1 1267.78 162C1267.78 161.9 1259.71 161.83 1249.78 161.83C1239.85 161.83 1231.78 161.86 1231.78 162Z" fill="#1A2E35"/>
<path d="M1290.66 142.8C1290.66 142.943 1290.72 143.081 1290.82 143.182C1290.92 143.283 1291.06 143.34 1291.2 143.34C1291.34 143.34 1291.48 143.283 1291.58 143.182C1291.68 143.081 1291.74 142.943 1291.74 142.8C1291.74 142.657 1291.68 142.519 1291.58 142.418C1291.48 142.317 1291.34 142.26 1291.2 142.26C1291.06 142.26 1290.92 142.317 1290.82 142.418C1290.72 142.519 1290.66 142.657 1290.66 142.8Z" fill="#1A2E35"/>
<path d="M1288.54 142.8C1288.54 142.943 1288.6 143.081 1288.7 143.182C1288.8 143.283 1288.94 143.34 1289.08 143.34C1289.22 143.34 1289.36 143.283 1289.46 143.182C1289.56 143.081 1289.62 142.943 1289.62 142.8C1289.62 142.657 1289.56 142.519 1289.46 142.418C1289.36 142.317 1289.22 142.26 1289.08 142.26C1288.94 142.26 1288.8 142.317 1288.7 142.418C1288.6 142.519 1288.54 142.657 1288.54 142.8Z" fill="#1A2E35"/>
<path d="M1286.42 142.8C1286.42 142.943 1286.48 143.081 1286.58 143.182C1286.68 143.283 1286.82 143.34 1286.96 143.34C1287.1 143.34 1287.24 143.283 1287.34 143.182C1287.44 143.081 1287.5 142.943 1287.5 142.8C1287.5 142.657 1287.44 142.519 1287.34 142.418C1287.24 142.317 1287.1 142.26 1286.96 142.26C1286.82 142.26 1286.68 142.317 1286.58 142.418C1286.48 142.519 1286.42 142.657 1286.42 142.8Z" fill="#1A2E35"/>
<path d="M1209.39 188.62C1209.39 187.53 1209.39 170.27 1209.47 141.27L1209.39 141.36H1293.49L1293.38 141.25C1293.38 158 1293.38 174.01 1293.38 188.6L1293.48 188.5L1209.37 188.6L1293.48 188.7H1293.58V141.17H1293.47H1209.37H1209.28V141.25C1209.35 170.27 1209.38 187.53 1209.39 188.62Z" fill="#1A2E35"/>
<path d="M1168.27 324.3H1173.41L1184.88 221.33H1178.13L1168.27 324.3Z" fill="#375A64"/>
<path d="M1200.78 324.3H1205.92L1217.47 221.33H1210.72L1200.78 324.3Z" fill="#375A64"/>
<path d="M1166.69 221.33H1306.25H1347.91V215.38H1166.69V221.33Z" fill="#375A64"/>
<path d="M1310.3 324.3H1305.16L1294.13 221.33H1300.87L1310.3 324.3Z" fill="#1A2E35"/>
<path d="M1354.4 324.3H1349.26L1337.71 221.33H1344.46L1354.4 324.3Z" fill="#1A2E35"/>
<path d="M1347.91 215.38H1292.08V221.33H1347.91V215.38Z" fill="#1A2E35"/>
<path d="M1227.96 215.38H1266.51V213.6H1227.96V215.38Z" fill="#1A2E35"/>
</g>
<defs>
<clipPath id="clip0_3_312">
<rect width="1380" height="325" fill="white"/>
</clipPath>
</defs>
</svg>
