<svg id="Layer_1" xmlns="http://www.w3.org/2000/svg" viewBox="0 0 2400 800"><style>.st0{fill:#f9eded}.st1{fill:#fff}.st2{fill:#ca5d4f}.st3{fill:#b5d9fd}.st4{fill:#03ae94}.st5{fill:#0c0c0c}</style><path class="st0" d="M143.2 604.2c-62.1-70.6-100.9-187.7-58-290 33-78.8 100.7-115.8 143-139 143.6-78.6 294.3-46.6 323-40 105.2 24.3 111.3 64.7 277 117 77.8 24.5 116.7 36.8 162 35 129.5-5.2 141.1-94.5 278.5-135.5 153-45.7 211.9 41.5 375-20 70.9-26.8 55.6-43.5 128-69 187.3-66 357.5 21.9 367 27 37.6 20.2 99.4 53.3 143 124 81.8 132.5 63.1 337.3-38 408-88.9 62.1-165.3-32.7-364 5-157 29.8-147.6 89.9-297 124-180.7 41.2-222.5-45.1-550.5-65.5-111.4-6.9-218.4-13.6-361.5 3.5-140.3 16.7-214.5 44.2-333.5 16.5-56-13-133.6-32.2-194-101z"/><path class="st1" d="M2226 770.3c-1.2-210.8-2.3-421.6-3.5-632.4.5-36 .9-72 1.4-108l-91.3-.3c-130.5 1.2-261.1 2.3-391.6 3.5-3.5 245-6.9 489.9-10.4 734.9 165.2.8 330.3 1.6 495.4 2.3z"/><path d="M2226 773.8l-495.3-2.3c-.9 0-1.8-.4-2.5-1-.7-.7-1-1.6-1-2.5l10.4-734.9c0-1.9 1.6-3.4 3.5-3.5l391.6-3.5 91.3.3c.9 0 1.8.4 2.5 1 .7.7 1 1.6 1 2.5l-1.4 108 3.5 632.3c0 .9-.4 1.8-1 2.5-.8.7-1.7 1.1-2.6 1.1zm-491.7-9.3l488.2 2.3L2219 138l1.4-104.5-87.7-.3-388.2 3.4-10.2 727.9z"/><path class="st2" d="M1798.7 768c-6.3-22.1-33.7-113.5-85.2-150.9-9.5-6.9-26.2-19-43.8-15-10.4 2.4-20 11.2-39.2 28.8-17.1 15.7-17.3 18.4-23 19.6-19.7 3.9-30.1-25.3-50.7-23-15.4 1.7-25.8 20-33.4 33.4-13.7 24.1-5.5 31.4-19.6 48.4-16.1 19.4-27.6 27.6-27.6 27.6-2.8 2-8.3 5.7-11.5 12.7-2.8 6-2.8 12-2.3 16.1 112 .8 224.2 1.5 336.3 2.3zm402-566.7c-145.5.8-291 1.5-436.5 2.3 1.2 39.2 2.3 78.3 3.5 117.5l429.6 1.2c1.1-40.4 2.2-80.7 3.4-121z"/><path class="st3" d="M2139.6 356.8c-.8 26.5-1.5 53-2.3 79.5l-56.4 43.8c2.9 2.7 27.1 24.2 61 18.4 30.3-5.1 45.6-28 48.4-32.3 14-21.7 17.6-53.2 1.2-78.3-17.4-26.4-47.2-30.5-51.9-31.1z"/><path class="st4" d="M2130.4 356.8c-7 .4-18.6 1.9-31.1 8.1-17.3 8.6-27 21.3-31.1 27.6 20.7 13.4 41.5 26.9 62.2 40.3v-76z"/><path class="st2" d="M2064.7 401.7l64.5 36.9c-17.7 13.1-35.3 26.1-53 39.2-4.4-6.5-10.9-17.8-13.8-33.4-3.6-19.2 0-34.8 2.3-42.7z"/><path class="st1" d="M2150 216.3l1.2 95.6c-22.7-17.3-45.3-34.6-68-51.8 22.2-14.6 44.5-29.2 66.8-43.8zm-102.5 2.3l-72.6 1.2v91h71.4l1.2-92.2zm-175.1 2.3c26.6-2.2 54.1 18.1 55.3 46.1 1.3 28.7-25.7 52.6-54.1 50.7-26.7-1.8-49.7-25.9-47.2-53 2.1-24.1 23.5-42 46-43.8zm283.3-125.6c22.4 1.2 41.2 20.8 40.3 43.8-.8 21-17.8 38.2-38 40.3-23.2 2.5-45.7-15.3-47.2-39.2-1.6-24.9 20.3-46.2 44.9-44.9z"/><path d="M2153.8 183.1c-10.8 0-21.6-4-30.2-11.2-9.7-8.1-15.4-19.3-16.2-31.5-.8-12.6 4-25.3 13.3-34.6 9.5-9.6 22.3-14.7 35.3-14 24.6 1.3 44.5 23 43.6 47.4-.8 22.1-18.9 41.3-41.1 43.7-1.6.2-3.2.2-4.7.2zm-.2-84.3c-10.3 0-20.4 4.3-28 12-7.9 8-12 18.6-11.3 29.3.7 10.2 5.5 19.7 13.7 26.6 8.4 7 19.2 10.5 29.6 9.3 18.9-2 34.2-18.2 34.9-37 .8-20.7-16.2-39-37-40.1-.6-.1-1.2-.1-1.9-.1z"/><path class="st4" d="M2030.2 553.8l-1.2 95.6h-39.2l1.2-93.3c13.1-.8 26.1-1.6 39.2-2.3z"/><path class="st1" d="M2030.5 650.9h-42.2l1.2-96.2 42.2-2.5-1.2 98.7zm-39.1-3h36.2l1.1-92.5-36.2 2.1-1.1 90.4z"/><path class="st2" d="M1966.8 523.8l1.2 125.6h-40.3l1.2-124.4c12.6-.4 25.3-.8 37.9-1.2z"/><path class="st1" d="M1969.5 650.9h-43.3l1.2-127.4 41-1.2 1.1 128.6zm-40.3-3h37.3l-1.1-122.5-35 1.1-1.2 121.4z"/><path class="st4" d="M1908.1 576.8v70.3c-13.1.4-26.1.8-39.2 1.2.8-23 1.5-46.1 2.3-69.1 12.3-.9 24.6-1.6 36.9-2.4z"/><path class="st1" d="M1867.4 649.8l2.4-72.1 39.8-2.5v73.3l-42.2 1.3zm5.3-69.3l-2.2 66.2 36.1-1.1v-67.2l-33.9 2.1z"/><path class="st3" d="M2129.2 664.3c-5.8-4.5-19.1-16.2-24.2-35.7-5.1-19.7-2.9-51.8 19.6-63.4 18.2-9.4 40.5-.5 53 10.4 20.1 17.6 21.6 46.9 13.8 66.8-3.5 9.1-8.8 15.5-12.7 19.6-2.3 8.5-5.3 17.8-9.2 27.6-3 7.5-6.1 14.4-9.2 20.7-6.5.4-13.1.8-19.6 1.2-3-4.4-6.7-11-9.2-19.6-3.3-11.5-3-21.5-2.3-27.6z"/><path class="st5" d="M2167.3 695.4c2.9 6.7 2.4 11 1.2 13.8-1.7 3.9-4.3 3.8-9.2 9.2-6 6.7-6.5 11.6-9.2 11.5-2.4-.1-2.5-4-6.9-9.2-5-5.8-8.7-5.3-11.5-9.2-2.2-3-3.8-8.5 0-19.6 5.8-1.1 14.3-2 24.2 0 4.3 1 8.1 2.2 11.4 3.5z"/><path class="st2" d="M1465.8 766.9l1.2-50.7c.6-3.8 3.7-25.8-9.2-38-4.1-3.8-9.5-6.5-12.7-8.1-8.1-4-14-6.9-20.7-5.8-9.8 1.7-16.8 11.3-19.6 18.4-4 10 .5 14.3-4.6 25.3-3.1 6.7-5.1 5.8-8.1 12.7-1 2.3-2.8 6.9-3.5 23-.2 5.5-.4 12.9 0 21.9 25.7.5 51.5.9 77.2 1.3z"/><path class="st1" d="M2044.5 95.8c22.4 1.2 41.2 20.8 40.3 43.8-.8 21-17.8 38.2-38 40.3-23.2 2.5-45.7-15.3-47.2-39.2-1.6-24.9 20.3-46.2 44.9-44.9z"/><path d="M2042.6 183.6c-10.8 0-21.6-4-30.2-11.2-9.7-8.1-15.4-19.3-16.2-31.5-.8-12.6 4-25.3 13.3-34.6 9.5-9.6 22.3-14.7 35.3-14 24.6 1.3 44.5 23 43.6 47.4-.8 22.1-18.9 41.3-41.1 43.7-1.6.1-3.2.2-4.7.2zm-.2-84.4c-10.3 0-20.4 4.3-28 12-7.9 8-12 18.6-11.3 29.3.7 10.2 5.5 19.7 13.7 26.6 8.4 7 19.2 10.5 29.6 9.3 18.9-2 34.2-18.2 34.9-37 .8-20.7-16.2-39-37-40.1-.6 0-1.3-.1-1.9-.1z"/><path class="st1" d="M1927 99.3c22.4 1.2 41.2 20.8 40.3 43.8-.8 21-17.8 38.2-38 40.3-23.2 2.5-45.7-15.3-47.2-39.2-1.6-24.9 20.3-46.2 44.9-44.9z"/><path d="M1925.1 187.1c-10.8 0-21.6-4-30.2-11.2-9.7-8.1-15.4-19.3-16.2-31.5-.8-12.6 4-25.3 13.3-34.6 9.5-9.6 22.3-14.7 35.3-14 24.6 1.3 44.5 23 43.6 47.4-.8 22.1-18.9 41.3-41.1 43.7-1.6.1-3.2.2-4.7.2zm-.2-84.4c-10.3 0-20.4 4.3-28 12-7.9 8-12 18.6-11.3 29.3.7 10.2 5.5 19.7 13.7 26.6 8.4 7 19.2 10.5 29.6 9.3 18.9-2 34.2-18.2 34.9-37 .8-20.7-16.2-39-37-40.1-.6-.1-1.2-.1-1.9-.1z"/><path class="st1" d="M1809.6 99.3c22.4 1.2 41.2 20.8 40.3 43.8-.8 21-17.8 38.2-38 40.3-23.2 2.5-45.7-15.3-47.2-39.2-1.7-24.9 20.2-46.2 44.9-44.9z"/><path d="M1807.6 187.1c-10.8 0-21.6-4-30.2-11.2-9.7-8.1-15.4-19.3-16.2-31.5-.8-12.6 4-25.3 13.3-34.6 9.5-9.6 22.3-14.7 35.3-14 24.6 1.3 44.5 23 43.6 47.4-.8 22.1-18.9 41.3-41.1 43.7-1.6.1-3.2.2-4.7.2zm-.2-84.4c-10.3 0-20.4 4.3-28 12-7.9 8-12 18.6-11.3 29.3.7 10.2 5.5 19.7 13.7 26.6 8.4 7 19.2 10.5 29.6 9.3 18.9-2 34.2-18.2 34.9-37 .8-20.7-16.2-39-37-40.1-.6-.1-1.2-.1-1.9-.1zm416.3-71h-124.4c-1.1 0-2-.9-2-2s.9-2 2-2h124.4c1.1 0 2 .9 2 2s-.9 2-2 2zm-1.2 108.3c-1.1 0-2-.9-2-2l1.2-91.6c0-1.1.9-2 2-2s2 .9 2 2l-1.2 91.6c0 1.1-.9 2-2 2zm-154.9 228.4h-299.5c-1.9 0-3.5-1.6-3.5-3.5s1.6-3.5 3.5-3.5h299.5c1.9 0 3.5 1.6 3.5 3.5s-1.5 3.5-3.5 3.5zm-28.8 36.8h-162.4c-1.9 0-3.5-1.6-3.5-3.5s1.6-3.5 3.5-3.5h162.4c1.9 0 3.5 1.6 3.5 3.5 0 2-1.5 3.5-3.5 3.5zm0 26.5h-162.4c-1.9 0-3.5-1.6-3.5-3.5s1.6-3.5 3.5-3.5h162.4c1.9 0 3.5 1.6 3.5 3.5s-1.5 3.5-3.5 3.5zm-95.6 78.3H1828c-1.9 0-3.5-1.6-3.5-3.5s1.6-3.5 3.5-3.5h115.2c1.9 0 3.5 1.6 3.5 3.5s-1.5 3.5-3.5 3.5zm114.6 169.4h-115.2c-1.9 0-3.5-1.6-3.5-3.5s1.6-3.5 3.5-3.5h115.2c1.9 0 3.5 1.6 3.5 3.5s-1.5 3.5-3.5 3.5zm-20.1-209.7h-115.2c-1.9 0-3.5-1.6-3.5-3.5s1.6-3.5 3.5-3.5h115.2c1.9 0 3.5 1.6 3.5 3.5s-1.6 3.5-3.5 3.5zm20.1 248.8h-115.2c-1.9 0-3.5-1.6-3.5-3.5s1.6-3.5 3.5-3.5h115.2c1.9 0 3.5 1.6 3.5 3.5s-1.5 3.5-3.5 3.5zm100.8-23.2c0-5.5-.4-11.1-.8-16.6-.5-7.2-.9-14.4-1.2-21.6-.3-7.5-.4-15.1.1-22.6.1-1.8.3-3.6.4-5.4l.3-2.4c.1-.6 0-.1 0 0 0-.2.1-.5.1-.7.1-.5.1-.9.2-1.4.5-3 1.1-6.1 2.1-9 .2-.7.4-1.3.7-2 .1-.2.4-1.1.1-.3.1-.3.3-.7.4-1 .5-1.1 1.1-2.2 1.8-3.2.2-.3.4-.5.6-.8-.4.5-.2.2.1-.1.4-.4.8-.9 1.2-1.3 0 0 .4-.4.5-.4 0 0-.7.5-.3.2.1-.1.2-.1.3-.2l1.5-.9c.2-.1.5-.2.7-.4.1-.1 1-.5.5-.2-.5.2.4-.2.6-.2.3-.1.6-.2 1-.3.5-.2 1.1-.3 1.6-.4.7-.2-.7 0 .1 0h.8c.8 0-.6-.1-.1 0 .1 0 .2.1.3.1.3 0-.8-.4-.3-.1.6.4-.4-.4-.1-.1.3.3-.3-.4-.2-.4.1.1.2.2.2.4-.4-.9-.3-.6-.2-.4.1.1.1.6 0 0v.5c0 .3-.2.3 0-.2-.1.1-.1.3-.1.5-.1.4-.2.9-.4 1.3 0-.1-.3.9-.2.5.1-.3-.2.4-.2.4-.2.4-.6.6-.1.2l-.7.7c-.3.3.5-.2.1-.1-.2.1-.4.3-.6.4l-.4.2c-.3.1-.6.2-1 .4-.9.3-1.8.5-2.7.7-.4.1-.8.1-1.2.2-.2 0-.4.1-.6.1-.9.1.4 0-.2 0-.9.1-1.9.2-2.8.3-1.7.1-3.3.2-5 .3-4.2.2-8.3.5-12.6.5-2.6 0-5.2-.2-7.9-.4-.3 0-.6-.1-1-.1-.5 0 .7.1.3 0-.2 0-.4-.1-.5-.1l-1.8-.3c-1.2-.2-2.3-.5-3.4-.9-.3-.1-.5-.2-.7-.3-.8-.3.4.2 0 0s-.9-.4-1.3-.7c0 0-.6-.3-.5-.4l.1.1-.4-.4c-.4-.3.5.8 0 0-.4-.6.2.1.1.2 0 0-.1-.5-.2-.5-.2-.5 0 .9 0 .2 0-.1.1-.6 0-.6.2.2-.2.9 0 .2.1-.2.2-.4.2-.6.1-.4-.4.8-.1.3.1-.1.1-.2.2-.3.1-.3.3-.6.4-.8.3-.6.7-1.1 1.1-1.6-.4.5.2-.2.3-.3.3-.3.6-.7.9-1-1 .3-1.9.5-2.9.8.6.2.2.1.1 0 .2.1.3.2.5.2.3.1.6.3.8.5l.9.6c.1.1.2.2.3.2-.5-.4.2.2.2.2.5.4.9.8 1.3 1.2.2.2.4.5.7.8-.4-.5.3.4.4.5.4.5.7 1.1 1 1.7.1.3.3.5.4.8 0 .1.2.6.1.2-.1-.3.1.4.1.4.5 1.3.9 2.7 1.1 4 .1.7.3 1.4.4 2.1-.1-.6.1.5.1.6 0 .4.1.8.1 1.2.1 1.6.2 3.2.2 4.7 0 3.1-.1 6.2-.3 9.3-.2 2.9-.4 5.8-.5 8.7-.1 3.5.1 7 .3 10.5.5 9.9 1.3 19.8 2.2 29.7 1.1 11.2 2.5 22.4 4.1 33.5.3 1.8 2.5 2.7 4.1 2.3 1.9-.5 2.6-2.3 2.3-4.1-3.1-19.8-5.2-39.8-6.4-59.9-.2-3.8-.5-7.7-.5-11.5.1-3 .3-6 .4-8.9.3-6.4.6-12.9-.6-19.3-.6-3.3-1.7-6.6-3.6-9.3-2-3-4.7-5.1-7.9-6.6-1.3-.6-2.5-.4-3.6.5-2.3 1.9-4.7 4.3-5.3 7.3-.5 2.7.3 5.3 2.4 7.1 4.1 3.7 10.6 4.3 15.9 4.7 4.8.4 9.7.4 14.5 0 2.9-.3 5.9-.4 8.8-.6 3.9-.3 8.2-.8 11.7-2.8 3.4-1.9 5.5-6 5.4-9.9-.1-3.7-3-6-6.6-5.9-5.7.1-11.1 3.6-14.2 8.3-3.5 5.2-5 11.8-5.9 17.9-1.2 7.9-1.4 15.9-1.4 23.8.1 14.7 1.7 29.3 2.2 43.9 0 1.2.1 2.4.1 3.6.3 4.1 6.5 4.1 6.5.1zm-167.3-216.5c5.4 7.5 11.9 14.1 20 18.7 7.1 4 15.1 6.3 22.9 8.4 3.9 1.1 8 2 11.8 3.4.4.2.9.3 1.3.5.2.1.3.1.5.2-1.3-.5-.7-.3-.4-.2.9.4 1.8.8 2.6 1.3 1.7.9 3.4 1.9 5.1 2.9.8.5 1.6 1.1 2.4 1.6l1.2.9c.2.1.5.3.7.5-.2-.1-.3-.3-.5-.4.2.1.3.3.5.4 1.6 1.3 3.1 2.6 4.6 4.1 1.5 1.4 2.8 2.9 4.1 4.5.2.2.3.4.5.6.5.6-.8-1-.1-.1.3.4.5.7.8 1.1l1.8 2.7c.5.8.9 1.7 1.4 2.5.2.5.4.9.7 1.4.2.5 0 .5-.2-.4 0 .3.2.6.3.9.3.9.6 1.7.8 2.6.1.4.2.9.3 1.3.1.5.2 2.3.1.5 0 .9.2 1.8.2 2.7v2c0 .2-.2 1.3 0 .3s-.1.5-.2.8c-.1.5-.2.9-.3 1.4-.1.5-.3.9-.4 1.4-.1.2-.1.4-.2.6-.1.2-.2.4-.2.6.1-.2.2-.5.3-.7-.6.7-.8 1.8-1.3 2.5-.1.2-.3.3-.3.5 0 0 1-1.1.4-.5-.3.3-.5.6-.8.9-.3.3-.6.5-.9.8-.6.6 1.2-.8.2-.2l-2.1 1.2c-.7.4.8-.3.7-.3-.1.1-.4.1-.5.2-.3.1-.6.2-1 .3-.3.1-.6.2-1 .2-1.5.3 1.4-.1.1 0h-1.8c-.8 0 1.7.4.6.1-.3-.1-.6-.2-1-.3-.6-.2 1.5.8.8.3-.1-.1-.2-.1-.3-.2-.1-.1-.2-.1-.3-.2-.7-.4 1.1 1 .7.5l-.3-.3c-.4-.4.1-.4.6.8 0-.1-.1-.2-.2-.3-.5-.9.3.7.3.8 0 0-.2-.8-.2-.9.6 1.4.1 1.5.1.9v-.5c0-.7.4-1.5-.1.3.1-.4.2-.8.3-1.3.1-.5.4-.9.5-1.4 0 .1-.6 1.3-.2.4l.3-.6c.3-.5.5-.9.8-1.4.3-.4.5-.2-.4.5l.6-.6c.1-.1.3-.2.4-.4.7-.7-1.1.7-.5.4.2-.1.7-.3.9-.5-.9.8-1.3.5-.8.3.2 0 .4-.1.5-.1.6-.2.6.2-.8.1h1.1c.8-.1-1 0-.9-.1.1-.1 1 .2 1.1.3.3.1.6.3.9.3-1.3-.2-1.2-.5-.6-.2.2.1.4.2.7.3.3.2.7.4 1 .6.2.2 1.4 1 .5.3-.9-.7.2.2.5.4.4.3.8.7 1.1 1 .6.6 1.2 1.2 1.7 1.9.1.2.3.4.4.5 0 0-.9-1.2-.4-.5.3.4.5.7.8 1.1.4.6.8 1.3 1.2 2 .2.4.4.7.5 1.1.2.4.1.8-.3-.8.1.2.2.4.2.6.3.7.4 1.5.6 2.2 0 .2.1.5.1.7.2 1.2-.1-1.2 0-.3.1.6.1 1.3.2 1.9 0 1 0 2-.1 3.1 0 .2 0 .4-.1.7-.1 1 .1-.5.1-.6-.2.6-.2 1.2-.3 1.8-.2 1-.5 2.1-.9 3.1-.1.4-.3.8-.5 1.3-.1.2-.5 1.2-.1.2s-.1.2-.2.4c-.9 1.9-2 3.7-3.2 5.4-.2.2-.3.5-.5.7-.4.5-.8.5.2-.2-.3.3-.6.7-.9 1.1-.8.9-1.5 1.7-2.4 2.6-.7.7-1.5 1.5-2.3 2.2-.4.3-.8.7-1.2 1-.2.2-.4.4-.7.6-.3.3-1.3.8.1-.1-1.8 1.2-3.5 2.5-5.4 3.7-1.8 1-3.6 1.9-5.5 2.8-.7.3 1.5-.6.4-.2-.2.1-.4.2-.6.2-.4.2-.9.3-1.3.5-.9.3-1.8.6-2.8.9-3.1.9-5.3 4.4-4.3 7.6 1 3.1 4.3 5.3 7.6 4.3 9.4-2.8 18.3-8.5 24.9-15.7 7-7.6 12.3-17.7 11.3-28.2-.4-4.6-1.6-8.8-4.3-12.6-2.5-3.6-5.7-7.1-9.7-9.2-4.3-2.3-9.6-3-13.9-.1-4.4 2.9-7.3 8.6-7.3 13.9-.1 4.8 3.1 8.9 7.7 10.3 4.1 1.2 8.5.1 12.1-1.7 8.3-4.2 11.9-14.5 10.8-23.3-1.2-9.7-6.6-18.2-13.4-24.9-6.5-6.4-14.4-11.6-23-14.7-4.2-1.5-8.6-2.4-13-3.5-4.2-1.1-8.4-2.2-12.5-3.6-.9-.3-1.8-.7-2.7-1-.2-.1-.5-.2-.7-.3-.8-.3.3.1.3.1-.2-.3-1.3-.6-1.6-.7-1.8-.9-3.6-1.8-5.3-2.9-.9-.5-1.7-1.1-2.6-1.7-.4-.3-.9-.6-1.3-.9.8.7.3.2 0 0s-.6-.5-.9-.7c-1.8-1.5-3.4-3.1-5-4.8-.9-.9-1.7-1.9-2.5-2.8l-1.2-1.5c.1.1.5.6 0-.1-.3-.3-.5-.7-.7-1-1.4-1.9-3.9-3-6.1-1.6-1.5.9-2.7 3.8-1.3 5.8z"/><path d="M2062.5 618c-7.3-6.7-15.3-13-25.5-13.7 1.8 2.4 3.7 4.8 5.5 7.2.6-2.1 1.3-4.1 2.1-6.2.4-1.1.9-2.3 1.3-3.4.2-.6.5-1.1.7-1.7.4-1-.4.9-.1.2.1-.3.2-.6.4-.8 1.5-3.4 3.3-6.7 5-10 1.3-2.6.8-5.6-1.5-7.4-2.2-1.7-5.6-1.6-7.6.5-1.4 1.5-2.3 3.3-3.2 5.1-1.2 2.4-2.2 4.8-3.2 7.2-1.8 4.4-3.6 8.9-4.9 13.5-1.1 3.7 1.9 7 5.5 7.2.3 0 .5 0 .8.1.6.1.5 0-.3-.1.4-.1 1.2.2 1.6.3.9.2 1.8.5 2.7.8.3.1.5.2.7.3-.7-.3-.8-.3-.2-.1.4.2.7.3 1.1.5l2.7 1.5c.9.5 1.7 1.1 2.6 1.7.3.2.7.5 1 .7.5.4.4.3-.1-.1.2.2.4.3.6.5 1.6 1.3 3.1 2.6 4.6 3.9 2.2 1.9 5.7 2.3 7.8 0 1.9-2.1 2.2-5.7-.1-7.7zM1739.3 86.2c-1.9 0-3.5-1.6-3.5-3.5s1.5-3.5 3.5-3.5l480.3-2.3c1.9 0 3.5 1.6 3.5 3.5s-1.5 3.5-3.5 3.5l-480.3 2.3zm413.6 43.1c.2 3.5-.2 7-.8 10.4-.3 1.7-.6 3.3-.9 5-.3 1.7-.9 3.7-.7 5.4.2 1.9 2.6 2.3 3.3.4.3-.8.4-1.8.5-2.6.1-.9.3-1.8.5-2.7.3-1.7.6-3.5.9-5.2.6-3.6 1-7.2.7-10.8-.2-2.1-3.6-2.2-3.5.1z"/><path d="M2148.8 141.9c4.6 0 9.4.5 13.8-.9 2.2-.7 1.3-3.9-.9-3.4-2.1.5-4.1.7-6.3.8-2.2.1-4.4 0-6.6 0-2.3 0-2.3 3.5 0 3.5zm-105.2-11.8c0 3.2.3 6.5.3 9.7 0 1.6 0 3.2-.2 4.7-.1.6-.1 1.1-.3 1.7-.1.3-.2.6-.2.8 0 .1-.1.3 0 .1-.1.1-.1.3-.2.4-1.1 1.9 1.8 3.7 3 1.8 1.6-2.6 1.5-6.1 1.4-9 0-3.4-.4-6.8-.4-10.2 0-2.2-3.4-2.2-3.4 0z"/><path d="M2038.6 140.6c5.7.1 11.5 1.2 17.2-.5 2.1-.6 1.2-3.9-.9-3.3-5.4 1.4-10.8 1.1-16.2 1.2-1.8 0-1.8 2.6-.1 2.6zm-116.2-8c.1 6.4-.6 12.6-2.4 18.7-.3.9.3 2 1.3 2.2 1 .3 1.9-.3 2.2-1.3 1.2-3.1 1.7-6.3 2.1-9.6.4-3.3.5-6.7.5-10.1-.1-2.2-3.7-2.2-3.7.1z"/><path d="M1916.6 140.9c2.1 1.1 4.4 1.7 6.8 1.9 2.2.2 4.5.2 6.7 0 1-.1 1.8-.8 1.8-1.8s-.8-1.8-1.8-1.8c-2.1-.1-4.2.1-6.2 0-1.8-.1-3.8-.5-5.4-1.4-.9-.5-2-.2-2.5.7-.5.7-.2 1.9.6 2.4zm-112-7.5c-.1 7-1.4 13.9-.9 20.9.1 1 .8 1.9 1.9 1.9.9 0 2-.9 1.9-1.9-.6-7 .8-13.9.8-20.9.1-2.3-3.6-2.3-3.7 0z"/><path d="M1802.8 146.7c2.6-.9 5.3-1 8-.9 1.4 0 2.8.1 4.2.2 1.5.1 3 .2 4.5-.1 1.6-.3 1.6-2.9 0-3.2-1.5-.3-3-.3-4.5-.3-1.5-.1-3-.1-4.5-.1-2.9 0-5.9.2-8.6 1.3-.8.3-1.4 1.1-1.1 2 .2.8 1.1 1.4 2 1.1z"/><path class="st3" d="M2193.9 44.9c-10.8-.4-10.3 14.5.4 14.2 12.4-.3 8.9-16.1-2.9-15"/><path d="M2193.9 43.2c-4.2-.2-8.3 2.1-9.4 6.3-1 3.8.7 7.9 4 10 3.7 2.3 9.4 1.9 12.7-.9 3-2.5 3.3-6.7 1.7-10.1-2-4.4-6.9-6.7-11.6-6.3-1 .1-1.9.8-1.9 1.9 0 .9.9 1.9 1.9 1.9.5 0 1-.1 1.5 0H2193.7h.1l1.2.3c.2.1.4.1.6.2.1 0 .3.1.1 0-.3-.1.2.1.2.1.4.2.7.4 1 .6.2.1.3.2.4.3.3.2 0 0-.1 0l.3.3c.3.2.5.5.8.8.1.1.5.6.2.2.1.2.2.3.3.5.2.3.4.6.5.9.1.2.2.5.1.1.1.2.1.4.2.6.1.3.2.6.3 1 0 .1 0 .2.1.3v-.1 1.3c0 .1 0 .2-.1.3 0 .2-.1.4-.1.5 0 .1-.1.3-.1.4 0 .2.2-.4 0-.1 0 .1-.1.1-.1.2-.2.3-.4.6-.5.9.3-.4 0 0-.1.1s-.2.3-.4.4l-.2.2c-.2.2.3-.2.1-.1-.2.1-.3.2-.5.4-.2.1-.3.2-.5.3-.1 0-.2.1-.2.1.1 0 .4-.1.1 0-.4.1-.8.3-1.3.4-.2.1-.5.1-.7.1-.3.1.3 0 0 0h-.3c-.6 0-1.1.1-1.7 0-.2 0-.4 0-.6-.1.4 0-.2 0-.3-.1-.4-.1-.9-.2-1.3-.4l-.2-.1c.2.1 0 0-.1 0-.2-.1-.4-.2-.5-.3-.2-.1-.3-.2-.4-.3-.1 0-.1-.1-.2-.2.4.3 0 0 0 0-.3-.2-.5-.5-.8-.8l-.1-.1c-.1-.2-.2-.3-.3-.5-.1-.2-.2-.3-.3-.5-.1-.1-.2-.6-.1-.1-.1-.3-.2-.7-.3-1 0-.2-.1-.3-.1-.5-.1-.4 0 .3 0 .1v-.2-1.1c0-.5-.1.2 0-.2 0-.2.1-.4.1-.6 0-.2.1-.4.2-.6 0-.1.1-.1.1-.2.1-.1-.2.4 0 0 .2-.3.4-.6.6-1 .2-.3-.2.2 0 0 .1-.1.1-.2.2-.2.1-.2.3-.3.4-.4l.2-.2c.3-.3-.3.2 0 0 .2-.1.4-.2.5-.4l.6-.3c.1 0 .3-.1-.1 0 .1-.1.3-.1.4-.1.5-.2.9-.3 1.4-.4-.4.1.3 0 .4 0h.9c2.4 0 2.4-3.4.2-3.5z"/><path class="st4" d="M2150.5 45.8c-8.1 6.4-4.3 19.9 6.4 13.7 10.7-6.2-2.4-22.5-8.9-11.2"/><path d="M2149.7 44.4c-2 1.5-3.6 3.4-4.5 5.7-.8 2-1 4.2-.7 6.3.3 1.8 1.2 3.6 2.6 4.8 1.8 1.5 4 1.9 6.2 1.6 2.4-.4 4.9-1.6 6.7-3.3 1.6-1.5 2.6-3.5 2.8-5.7.4-3.9-1.7-7.9-4.9-10-1.8-1.2-3.9-1.7-6-1.2-2.5.5-4.4 2.5-5.7 4.7-1.3 2.2 2.2 4.3 3.5 2 .1-.2.3-.5.4-.7.1-.1.4-.6.3-.4-.2.2.2-.3.3-.3l.5-.5.3-.3s-.4.3-.1.1c.2-.1.3-.2.5-.3.1-.1.3-.2.5-.2.3-.2-.4.1-.1 0 .1 0 .2-.1.3-.1.2 0 .3-.1.5-.1h.2c.4-.1-.5 0-.1 0h1c.3 0-.5-.1-.2 0h.2c.2 0 .3.1.5.1.1 0 .3.1.4.1.4.1-.4-.2-.1 0 .1.1.2.1.3.1.3.1.6.3.8.5.1 0 .1.1.2.1.3.2-.3-.3-.1-.1.1.1.3.3.5.4l.7.7c0 .1.1.1.1.2.3.3-.2-.3-.1-.1.1.2.2.3.4.5.2.3.4.6.5.9.1.1.4.7.1.2.1.2.1.4.2.5.1.3.2.7.3 1l.1.6V52 53.4c0 .6.1-.4 0 .2 0 .2-.1.4-.1.6-.1.2-.1.4-.2.6 0 .1-.1.1-.1.2.1-.5.1-.2.1-.1-.2.4-.4.7-.6 1.1-.2.4.2-.2 0 0-.1.1-.1.2-.2.3-.1.2-.3.3-.4.4-.2.1-.3.3-.5.4-.1.1-.2.1-.2.2.4-.3-.1 0-.2.1-.4.3-.9.6-1.4.8-.2.1-.5.2-.7.3.3-.2 0 0-.1 0-.2.1-.3.1-.5.2-.5.2-.9.3-1.4.3h.1-1c-.2 0-.6-.1-.2 0-.2 0-.4-.1-.6-.1-.1 0-.3-.1-.4-.1-.1 0-.4-.2 0 0-.1-.1-.2-.1-.3-.1-.1-.1-.2-.1-.4-.2-.4-.3.2.2-.1-.1-.1-.1-.2-.2-.4-.3-.1-.1-.5-.6-.2-.2-.2-.3-.4-.6-.5-.9 0-.1-.3-.6-.1-.3.1.3 0 0 0-.1s-.1-.2-.1-.3l-.3-1.2c-.1-.3 0 .5 0 .1v-.4-.6-.8-.3c0-.4-.1.4 0 0l.3-1.5c.1-.2.1-.4.2-.7 0-.1.1-.2.1-.3-.2.4 0-.1.1-.2.2-.5.4-.9.7-1.4.5-.8 1.2-1.6 2.1-2.4 1.4-.8-.4-3.3-1.8-2.2z"/><path class="st2" d="M2117.9 44.9c-7.5.9-10.7 12.9-1.5 14.2 13.3 1.8 12.5-19.1 1.5-13.4"/><path d="M2117.9 43.3c-4.4.4-8.2 4-8.9 8.4-.3 2.1 0 4.4 1.3 6.1 1.6 2.1 3.9 3.1 6.4 3.4 4 .5 8.1-1.2 10.1-4.8 1.7-3 2-6.8.5-9.9-.8-1.6-2.3-2.9-4-3.5-2.1-.7-4.5-.1-6.4 1.1-.9.5-1.2 1.8-.7 2.7.6 1 1.7 1.1 2.7.7-.5.2.2-.1.3-.1.2-.1.4-.1.5-.2l1.2-.3c.5-.1-.3 0 0 0h1c.5 0-.5-.1 0 0 .2.1.6.2.7.2-.4 0-.4-.2-.2-.1l.1.1c.1.1.3.2.4.2.3.2-.4-.4-.1 0l.3.3c.1.1.2.2.2.3.2.2-.3-.5-.1-.2 0 .1.1.1.1.2.1.2.3.5.4.7.2.4-.2-.5 0 0 0 .1.1.3.1.4.1.3.2.6.2.9v.2c.1.3 0-.2 0-.3v2c0 .5.1-.5 0 .1-.1.7-.4 1.3-.5 1.9-.1.2.2-.5.1-.1 0 .1-.1.1-.1.2-.1.2-.2.3-.2.5l-.6.9c-.2.3.1-.2.1-.2s-.1.2-.2.2l-.3.3-.4.4c-.1 0-.1.1-.2.1-.3.3 0 .1.1 0-.1.2-.7.4-.9.6-.1.1-.3.2-.4.2-.1 0-.4.2-.1 0 .3-.1-.1 0-.2.1-.3.1-.7.2-1 .3-.1 0-.7.1-.4.1.4-.1-.1 0-.1 0H2117c-.2 0-.5 0-.7-.1.4 0 .1 0 0 0-.2 0-.4-.1-.6-.1-.2-.1-.5-.1-.7-.2-.1 0-.2-.1-.3-.1-.3-.1.4.2 0 0-.2-.1-.3-.2-.5-.3-.1-.1-.8-.6-.4-.2-.3-.2-.5-.5-.8-.8.4.4 0-.1-.1-.2-.1-.2-.2-.3-.3-.5-.2-.3.1.3 0 .1 0-.1-.1-.2-.1-.3-.1-.2-.1-.3-.1-.5-.1-.2-.1-.6 0-.1v-.7-.7-.2c0-.4-.1.4 0 0s.2-.9.3-1.3c0-.1.3-.9.1-.4l.3-.6c.2-.4.5-.8.8-1.2-.3.4.2-.2.3-.3l.5-.5c.2-.1.3-.3.5-.4-.4.3.3-.2.4-.3l.6-.3c.1-.1.2-.1.3-.1.1-.1.1 0-.1 0 .1 0 .2-.1.3-.1.5-.2 1-.3 1.5-.4 2-.3 1.6-3.5-.3-3.3zm32.4 199c-.2 17.9-.2 35.7-.3 53.6v15.4c0 2.1 3.2 2.1 3.2 0 0-17.9-.1-35.8-.2-53.6 0-5.1-.1-10.3-.1-15.4 0-1.7-2.6-1.7-2.6 0z"/><path d="M2152.7 311.3c-13.9-15.6-31.3-27.5-48.4-39.3-2.3-1.6-4.7-3.2-7-4.9-2.4-1.7-4.8-3.5-7.3-5-1.5-.9-3.2 1.3-1.9 2.4 3.8 3.3 8.2 6 12.4 8.9 4.2 2.9 8.5 5.9 12.7 8.8 8.5 6 16.8 12.1 24.6 19 4.4 3.9 8.7 8 12.7 12.3 1.4 1.5 3.6-.7 2.2-2.2zm-155.8-91.2c16.7.4 33.4-.8 50.1-.7 2.1 0 2.1-3.3 0-3.3-16.7-.1-33.4 1.6-50.1 1.5-1.7 0-1.7 2.5 0 2.5z"/><path d="M2045.5 221.1c0 11.3.7 22.6.8 33.8 0 4.4-.3 8.6-.9 12.9-.6 4.4-1.4 8.8-1.7 13.2-.3 4.5-.1 9.1 1.7 13.3.4.9 1.7 1.1 2.4.6.9-.5 1-1.5.6-2.4-1.5-3.5-1.5-7.5-1.2-11.1.3-4.2 1-8.4 1.6-12.7.6-4.1 1-8.2 1-12.4-.1-5.5-.3-11.1-.6-16.6-.3-6.2-.7-12.4-.7-18.7-.1-1.8-3-1.8-3 .1zm-158.8 4.8c9.2.7 17.6 5.6 24.2 11.9 6.9 6.5 12.4 14.7 15.5 23.7 1.5 4.3 2.4 8.8 2.2 13.4-.2 5.3-2 10.5-4.5 15.1-2.1 3.8-4.8 7.4-8.1 10.2-2.5 2.2-5.3 4-8.1 5.8-3.6 2.2-7.4 4.4-11.4 5.8-1.5.5-3.2 1-4.7 1.1-.7 0-1.3 0-1.7-.1-.2 0-.3-.1-.5-.1-.1 0-.5-.2-.2-.1-.3-.2-.5-.3-.5-.3-1.6-1.4-4 .9-2.4 2.4 2.3 2.1 5.7 1.8 8.4 1 3.9-1 7.5-2.8 11-4.7 7.1-4 13.7-8.6 18.4-15.3 3.3-4.7 5.7-10.1 6.7-15.7 1-5.2.7-10.3-.6-15.4-2.4-9.8-7.9-18.9-14.8-26.2-7.6-8.1-17.8-14.4-29.1-15.3-1.7-.2-1.7 2.6.2 2.8zm191.1 419.6c-1.5.5-3 .9-4.5 1.2-.4.1-.7.1-1.1.2-1 .2 1.2-.1-.2 0-.8.1-1.7.2-2.5.2-3.5.2-7 .2-10.5 0-6.8-.4-13.6-1.4-20.4-1.9-17-1.3-34.1-1.2-51.2-1.2-8.3 0-16.7.2-25 .4-8.3.3-16.7 1.1-25 .8-4-.1-8-.5-12-1-.5-.1-1.1-.1-1.6-.2-1.2-.1.9.1-.3 0-1-.1-2-.3-3-.4-2-.3-3.9-.6-5.9-.9-8.4-1.2-16.8-2.3-25.3-2-15.8.5-31.4 4.7-47.3 3.2-.5 0-.9-.1-1.4-.1-1.1-.1.8.1-.3 0-1.1-.2-2.2-.3-3.2-.6-2.9-.6-6.3.8-7.1 4-.6 2.8.9 6.4 4 7.1 8.3 1.6 16.6 1.7 25 1 8-.7 15.8-2 23.8-2.6 8.2-.7 16.2-.4 24.3.6.5.1.9.1 1.4.2.2 0 .5 0 .7.1-.2 0-1.3-.2-.2 0 1 .1 2 .3 3 .4 2 .3 3.9.6 5.9.9 4.4.6 8.8 1.2 13.2 1.6 8.4.7 16.7.2 25.1-.2 8.4-.3 16.8-.5 25.2-.6 17.2-.2 34.5-.2 51.7.8 14.3.8 29 3.9 43.3 1.1 1.5-.3 3-.7 4.5-1.2 2.7-.9 4.8-3.8 3.9-6.8-1.1-3-4.1-5.1-7-4.1z"/><path class="st1" d="M1660.7 657.5c2.3 0 4.6-2.1 4.5-4.5-.1-2.4-2-4.5-4.5-4.5-2.3 0-4.6 2.1-4.5 4.5.1 2.5 2 4.5 4.5 4.5zm-31.2 55.7c2.3 0 4.6-2.1 4.5-4.5-.1-2.4-2-4.5-4.5-4.5-2.3 0-4.6 2.1-4.5 4.5.1 2.4 2 4.5 4.5 4.5zm-49-35.7c2.3 0 4.6-2.1 4.5-4.5-.1-2.4-2-4.5-4.5-4.5-2.3 0-4.6 2.1-4.5 4.5.2 2.5 2 4.5 4.5 4.5zm-28.9 40.1c2.3 0 4.6-2.1 4.5-4.5-.1-2.4-2-4.5-4.5-4.5-2.3 0-4.6 2.1-4.5 4.5.1 2.5 2 4.5 4.5 4.5zm-31.2 34.1c3.8 0 3.8-5.9 0-5.9s-3.8 5.9 0 5.9zm98 1.9c2.5 0 4.9-2.2 4.8-4.8-.1-2.6-2.1-4.8-4.8-4.8-2.5 0-4.9 2.2-4.8 4.8.1 2.6 2.1 4.8 4.8 4.8zm-22.3-40.4c2.3 0 4.6-2.1 4.5-4.5-.1-2.4-2-4.5-4.5-4.5-2.3 0-4.6 2.1-4.5 4.5.1 2.4 2 4.5 4.5 4.5zm53.4 26.7c2.3 0 4.6-2.1 4.5-4.5-.1-2.4-2-4.5-4.5-4.5-2.3 0-4.6 2.1-4.5 4.5.2 2.4 2 4.5 4.5 4.5zm95.8 17.8c2.3 0 4.6-2.1 4.5-4.5-.1-2.4-2-4.5-4.5-4.5-2.3 0-4.6 2.1-4.5 4.5.1 2.4 2 4.5 4.5 4.5zm-2.2-35.6c2.3 0 4.6-2.1 4.5-4.5-.1-2.4-2-4.5-4.5-4.5-2.3 0-4.6 2.1-4.5 4.5.1 2.4 1.9 4.5 4.5 4.5zm-66.8-84.6c2.3 0 4.6-2.1 4.5-4.5-.1-2.4-2-4.5-4.5-4.5-2.3 0-4.6 2.1-4.5 4.5.1 2.4 2 4.5 4.5 4.5zm-8.9 71.2c2.3 0 4.6-2.1 4.5-4.5-.1-2.4-2-4.5-4.5-4.5-2.3 0-4.6 2.1-4.5 4.5.1 2.5 1.9 4.5 4.5 4.5zm-224.9 40.1c2.3 0 4.6-2.1 4.5-4.5-.1-2.4-2-4.5-4.5-4.5-2.3 0-4.6 2.1-4.5 4.5.1 2.4 2 4.5 4.5 4.5zm4.5-32.3c4.3 0 4.3-6.7 0-6.7-4.4 0-4.4 6.7 0 6.7zm-22.3-34.5c2.3 0 4.6-2.1 4.5-4.5-.1-2.4-2-4.5-4.5-4.5-2.3 0-4.6 2.1-4.5 4.5.1 2.4 2 4.5 4.5 4.5zm-6.7 40.1c2.3 0 4.6-2.1 4.5-4.5-.1-2.4-2-4.5-4.5-4.5-2.3 0-4.6 2.1-4.5 4.5.1 2.4 2 4.5 4.5 4.5z"/><g><path class="st1" d="M1406.9 749.5c3.8 0 3.8-5.9 0-5.9s-3.8 5.9 0 5.9z"/></g><g><path class="st1" d="M1429.1 739.9c2.3 0 4.6-2.1 4.5-4.5-.1-2.4-2-4.5-4.5-4.5-2.3 0-4.6 2.1-4.5 4.5.2 2.4 2 4.5 4.5 4.5z"/></g><g><path class="st1" d="M1429.1 704.3c2.3 0 4.6-2.1 4.5-4.5-.1-2.4-2-4.5-4.5-4.5-2.3 0-4.6 2.1-4.5 4.5.2 2.4 2 4.5 4.5 4.5z"/></g><g><path class="st1" d="M1576.1 753c2.2 0 4.3-1.9 4.2-4.2-.1-2.3-1.8-4.2-4.2-4.2-2.2 0-4.3 1.9-4.2 4.2.1 2.2 1.8 4.2 4.2 4.2z"/></g><g><path class="st1" d="M1549.4 664.2c2.3 0 4.6-2.1 4.5-4.5-.1-2.4-2-4.5-4.5-4.5-2.3 0-4.6 2.1-4.5 4.5.1 2.4 2 4.5 4.5 4.5z"/></g><g><path class="st1" d="M1549.4 685.4c1.9 0 3.4-1.6 3.4-3.4 0-1.9-1.6-3.4-3.4-3.4-1.9 0-3.4 1.6-3.4 3.4-.1 1.8 1.5 3.4 3.4 3.4z"/></g><g><path class="st1" d="M1569.4 657.5c2.3 0 4.6-2.1 4.5-4.5-.1-2.4-2-4.5-4.5-4.5-2.3 0-4.6 2.1-4.5 4.5.1 2.5 2 4.5 4.5 4.5z"/></g><g><path class="st1" d="M1618.4 684.2c2.3 0 4.6-2.1 4.5-4.5-.1-2.4-2-4.5-4.5-4.5-2.3 0-4.6 2.1-4.5 4.5.1 2.5 2 4.5 4.5 4.5z"/></g><g><path class="st1" d="M1629.3 657.5c0 .7 0 1.5.1 2.2 0 .6.1 1.2.4 1.8.2.6.5 1.1.9 1.5.4.4.9.8 1.5.9.5.3 1.1.4 1.8.4.4-.1.8-.1 1.2-.2.8-.2 1.4-.6 2-1.2.2-.3.5-.6.7-.9.4-.7.6-1.5.6-2.3 0-.7 0-1.5.1-2.2 0-.6-.1-1.2-.4-1.8-.2-.6-.5-1.1-1-1.5-.4-.5-.9-.8-1.5-1-.6-.3-1.1-.4-1.8-.4-.4.1-.8.1-1.2.2-.8.2-1.5.6-2 1.2-.2.3-.5.6-.7.9-.5.8-.7 1.5-.7 2.4z"/></g><g><path class="st1" d="M1660.7 690.9c2.3 0 4.6-2.1 4.5-4.5-.1-2.4-2-4.5-4.5-4.5-2.3 0-4.6 2.1-4.5 4.5.1 2.4 2 4.5 4.5 4.5z"/></g><g><path class="st1" d="M1731.6 141.8c-1 10.2-1.9 20.4-2.9 30.6-.9 2.5-2.6 6.3-5.8 10.2-3.1 3.7-6.5 6-8.7 7.3.5 2.8 1.5 6.8 2.9 11.7 3.1 10.3 8.2 22.1 11.7 26.2 9.4 11.5 40.7 7.8 74.4-8.7 6.2-2.4 14.1-6.4 21.9-13.1 2.8-2.4 5.2-4.9 7.3-7.3 1.6-4.6 4.1-11.8 7.3-20.4 7.1-19.1 10.7-28.6 14.6-37.9.1-.3 8.7-20.7 8.7-30.6v-7.3c-.1-6.3-.4-6.8 0-8.7.8-3.8 2.3-3.9 4.4-8.7 2.4-5.7 2.3-10.2 2.9-10.2.7 0-.4 5.9 2.9 11.7 1.6 2.7 2.5 2.5 4.4 5.8 2.1 3.7 2.7 7.2 2.9 8.7.4 2.4.8 5.3 0 8.7-.9 3.5-2.3 4.3-4.4 8.7-1.4 3-2 5.3-2.9 8.7-2.3 8.9-2.7 17.3-2.9 20.4-.6 10.9-1.8 19.3-2.9 27.7-2.7 19.8-4.5 17.4-5.8 32.1-.6 6.4-.5 10-2.9 14.6-3.9 7.5-10.6 11-14.6 13.1-11.9 6.3-25.7 14-42.3 23.3-13.6-2.8-45-7.3-78.7 7.3-63.3 27.4-77.5 96.8-78.7 103.5-9.6-7.4-16.2-14.9-20.4-20.4-5.6-7.2-10.4-13.5-13.1-23.3-2.7-9.8-1.9-17.8-1.5-21.9 1-8.8 3.5-15.6 10.2-29.2 9.1-18.4 13.6-27.6 19-35 6.7-9.2 19.3-23.8 40.8-36.5 1.5-2.5 3-5.4 4.4-8.7 3.9-9.7 4.5-18.6 4.4-24.8 14.2-9.1 28.8-18.3 43.4-27.6z"/><path d="M1646.2 374.7l-3.9-3c-7.9-6.1-15-13.2-21-21-5.8-7.5-10.8-14-13.6-24.4-2.9-10.5-2-19.3-1.6-23 1.1-9.7 4.1-17.1 10.5-30.2 9.1-18.6 13.7-27.9 19.2-35.4 10.7-14.6 24.5-27 41.1-36.9 1.4-2.5 2.7-5 3.8-7.7 3-7.4 4.4-15.3 4.2-23.6v-1.7l50.4-31.9-3.5 37.1-.1.3c-1.4 4.1-3.6 7.8-6.4 11.1-2.2 2.6-4.8 4.9-7.7 6.8.7 3.1 1.5 6.3 2.4 9.3 3.1 10.2 8.1 21.5 11.1 25.2 8.4 10.2 38.8 6.1 70.7-9.5l.2-.1c7.8-3 14.8-7.3 21-12.6 2.3-2 4.6-4.2 6.6-6.6 2.3-6.6 4.7-13.3 7.1-19.9 7.1-19.1 10.7-28.7 14.6-38 .1-.2 8.5-20.2 8.5-29.5v-7.2c0-2.2-.1-3.7-.1-4.8-.1-2.1-.1-3 .2-4.6.5-2.7 1.5-4.1 2.4-5.4.7-1 1.4-2 2.2-3.9 1.3-3.1 1.8-5.8 2.1-7.6.3-1.7.8-4.5 3.5-4.5h.2c2.9.1 3.1 3.1 3.2 4.6.1 2 .3 5.4 2.2 8.6.6 1 1 1.4 1.6 2 .7.8 1.7 1.8 2.8 3.9 2.4 4.3 3 8.3 3.3 9.7.4 2.5.9 5.9 0 9.9-.6 2.5-1.5 4-2.5 5.5-.6 1-1.3 2.1-2.1 3.8-1.3 2.8-1.8 4.8-2.7 8.2-2.2 8.4-2.6 16.2-2.8 19.6v.3c-.6 11.1-1.8 19.6-2.9 27.9-1.4 10-2.5 14.6-3.5 18.2-.9 3.7-1.7 6.6-2.3 13.7-.1.9-.2 1.8-.2 2.7-.4 5-.7 8.6-3 13-4.3 8.3-11.7 12.2-15.7 14.3l-.1.1c-11.4 6-24.8 13.5-40.3 22.2l-2.9 1.6-1.1-.2c-18.6-3.9-47.1-5.8-76.9 7.1-61.4 26.5-75.6 93.8-77 101.3l-1.2 5.2zm44.7-203.5c0 8.5-1.5 16.6-4.6 24.3-1.3 3.2-2.8 6.3-4.6 9.2l-.4.6-.7.4c-16.2 9.5-29.6 21.5-39.9 35.6-5.2 7.2-9.7 16.3-18.7 34.6-6.8 13.9-9 20.2-9.9 28.2-.4 3.7-1.2 11.3 1.4 20.7 2.6 9.3 7.2 15.3 12.6 22.3 4.7 6.1 10.1 11.8 16.1 16.8 4.4-18.2 22.4-76.2 79.5-100.9 30.7-13.3 60-11.6 79.4-7.7l1-.5c15.5-8.7 29-16.2 40.4-22.3l.1-.1c3.7-1.9 9.8-5.2 13.2-11.8 1.8-3.4 2-6 2.4-10.8.1-.8.1-1.7.2-2.7.7-7.6 1.5-10.9 2.5-14.7.9-3.7 2-7.9 3.3-17.5 1.2-8.6 2.3-16.7 2.9-27.5v-.3c.2-3.5.6-11.8 3-20.7.9-3.5 1.6-6 3.1-9.3 1-2 1.8-3.4 2.4-4.4.9-1.4 1.3-2.2 1.7-3.8.7-2.9.3-5.3 0-7.6-.2-1.3-.7-4.4-2.6-7.8-.8-1.4-1.3-2-2-2.7-.7-.7-1.5-1.5-2.4-3.1-.3-.4-.5-.9-.7-1.3-1 2.1-1.8 3.4-2.5 4.4-.8 1.2-1.2 1.7-1.5 3.3-.2.9-.2 1.2-.1 3.2 0 1.1.1 2.7.1 4.9v7.3c0 10.5-8.6 30.9-9 31.8-3.9 9.3-7.5 18.8-14.5 37.8-2.5 6.7-5 13.6-7.3 20.3l-.2.6-.4.4c-2.3 2.7-4.9 5.3-7.6 7.6-6.6 5.8-14.3 10.3-22.6 13.6-35.4 17.4-67.5 20.6-77.9 7.9-4.1-4.9-9.3-17.7-12.2-27.3-1.2-3.9-2.2-7.9-3-12l-.4-2.1 1.9-1.1c3-1.7 5.7-4 7.9-6.6 2.2-2.7 4-5.7 5.2-8.9l2.3-24.2-36.9 23.9z"/><path class="st1" d="M1785.6 436.4c2.9 33.5 5.8 67.1 8.7 100.6.6 32.5.3 67.1-1.5 103.5-1.8 37.6-4.9 73.2-8.7 106.5 15.1 7.8 30.1 15.6 45.2 23.3-28.2-1-56.4-1.9-84.6-2.9 1.5-6.3 2.9-12.6 4.4-19-8.8-33.8-16.8-70.3-23.3-109.4-3.5-21.1-6.4-41.5-8.7-61.2-1.7 19.6-5.1 42.3-11.7 67.1-10.9 40.9-26.7 73.6-40.8 97.7 8.7 8.3 17.5 16.5 26.2 24.8h-71.5c1.5-7.8 2.9-15.6 4.4-23.3 2.9-12.9 6.6-30.9 10.2-52.5 6.4-37.9 10.9-64.5 11.7-96.2.8-31.1-2.8-34.6-11.7-137.1-1.3-14.7-2.3-26.8-2.9-35 3.1-4.3 27.7-36.4 70-37.9 34.7-1.3 67.7 18.7 84.6 51z"/><path d="M1842.6 773.8l-101.6-3.5 5-21.8c-9.3-35.8-17.1-72.5-23.2-108.9-2.1-12.3-3.9-24.6-5.7-37-2.2 14.6-5.1 29-8.9 43.2-8.9 33.6-22.4 66-39.9 96.4l30 28.3h-82.6l5-26.9c3.8-17.3 7.2-34.9 10.2-52.4 6.3-37.3 10.8-64.3 11.6-95.8.4-17.6-.5-26.3-3.1-49.5-1.9-17.2-4.8-43.3-8.6-87.3-1-11.7-2-23.4-2.9-35l-.1-1.1.7-.9c4.6-6.3 29.8-37.7 72.3-39.1 35.7-1.2 70 19.4 87.3 52.6l.3.5 8.8 101.4c.7 34.4.2 69.3-1.5 103.7-1.7 34.8-4.5 70-8.5 104.6l55.4 28.5zm-94.1-9.3l67.6 2.3-35.2-18.2.2-2.1c4.1-35.1 7.1-70.9 8.7-106.2 1.6-34.2 2.1-69 1.5-103.2l-8.7-99.9c-16.4-30.9-48.3-50.1-81.5-48.9-38 1.3-61.3 28.3-67 35.8.9 11.2 1.8 22.6 2.8 33.8 3.8 43.9 6.7 69.9 8.6 87.1 2.6 23.5 3.6 32.3 3.1 50.3-.8 32-5.4 59.1-11.7 96.7-3 17.6-6.4 35.3-10.2 52.7l-3.7 19.7h60.3l-22.5-21.2 1.2-2.1c17.9-30.5 31.5-63.1 40.5-97 5.8-21.7 9.7-44.1 11.6-66.6l2.5-29.4 3.5 29.3c2.4 20.4 5.3 40.9 8.7 61.1 6.1 36.5 14 73.2 23.3 109.1l.2.7-3.8 16.2z"/><path class="st5" d="M1702.4 187c-1.1.5-.9-.1-5.8 0-6.3.1-7.1.9-8.7 0-1.9-1-1.7-2.4-4.4-5.8-1.9-2.3-2.6-2.5-4.4-4.4-4.4-4.7-3.3-7.2-8-13.9-2.3-3.2-2.9-3.1-4.4-5.8-1.8-3.2-2.4-6.1-2.9-8.7-1-4.8-1.5-7.5-.7-10.9 1-4.2 2.8-3.9 4.4-8.7 1.4-4.5 0-5.3 1.5-10.2 1-3.5 2.5-5.8 4.4-8.7 3.3-5.1 4.9-7.7 7.3-8.7 5-2.3 7.8 2.1 14.6 0 3.6-1.1 4-2.7 7.3-2.9 3.6-.2 4.8 1.7 8.7 2.9 7.5 2.3 10.1-2.4 16 0 4.7 1.9 7.4 6.5 8.7 8.7 2.4 4.1 1.7 5.7 4.4 8.7 3.3 3.7 5.7 2.9 7.3 5.8 2 3.7-.1 8.4-1.5 11.7-1.5 3.5-3.4 5.7-7.3 10.2-2.3 2.7-3.6 4.2-5.8 5.8-3.9 2.9-7.3 4.4-7.3 4.4-1.5.6-2.1.7-2.9 1.5-1.8 1.5-1.9 3.2-2.9 5.8-.1.3-1.7 4.2-4.4 7.3-2.5 2.8-3.4 2-5.8 4.4-5 4.6-3.4 9.9-7.4 11.5zm20.5 19c-2.9-.4-4 1.1-8.7 2.9-1 .4-16.5 6.3-30.6 0-2-.9-5.3-2.6-8.7-5.8-2.9.8-7 2.1-11.7 4.4-11.6 5.7-18.8 13.7-23.3 19-4.4 5-6.6 7.6-8.7 11.7-3.3 6.4-4 11.8-4.4 32.1-.3 15.5-.5 23.3 0 35 .3 7.8.6 11.7 1.5 23.3 1.4 20.7 2.4 34.5 2.9 46.7.5 11.7.8 28.1 0 48.1l103.5 8.7c15 1.3 36.1 3.1 51 4.4-.5-16.4-1.4-33.4-2.9-51-3.2-36.9-8.3-71-14.6-102.1 6.9-3.3 14.3-7.2 21.9-11.7 9.8-5.8 18.6-11.8 26.2-17.5-2.7-5.9-5.6-13.8-7.3-23.3-1.2-6.6-1.5-12.5-1.5-17.5-15.5 1-27.1 4.3-35 7.3-8.1 3-14.9 6.6-23.3 4.4-6.3-1.7-11.7-6.1-13.1-7.3-7-5.9-8.1-11.1-13.2-11.8z"/><path d="M1752.6 747.2c-4.1-6.2-6-13.6-7.4-20.9-1.5-7.9-2.2-16-3.3-24-1.2-8.9-3.5-17.7-5-26.5-1.7-10-3.1-20.1-4.6-30.2-1.5-9.9-3.2-19.8-5.3-29.6-2.1-9.8-4.5-19.6-6.5-29.5-2-9.7-3.6-19.4-4.3-29.3-.7-9.6-.8-19.1-1.1-28.7-.7-19.2-1.6-38.7-7.3-57.2-.7-2.3-1.5-4.6-2.3-6.8-.7-1.7-2.3-2.9-4.2-2.4-1.7.5-3.1 2.5-2.4 4.2 6.9 18 8.6 37.2 9.5 56.2.4 9.7.7 19.4 1.4 29 .7 9.9 1.9 19.6 3.7 29.4 3.7 19.9 9 39.5 12.2 59.5 1.6 10 3 20.1 4.5 30.2.8 5 1.6 10 2.6 15 .9 4.4 2 8.8 2.7 13.2 2.7 15.5 2.6 32.1 9.4 46.6.8 1.6 1.6 3.2 2.6 4.6 2.2 3.2 7.1.3 5.1-2.8zm37.7-186.9c-2.8-3.6-5.6-7.3-8.7-10.7-1-1.1-3 .4-2.1 1.6 2.8 3.8 5.8 7.5 8.7 11.2.5.6 1.6.5 2.1 0 .7-.6.5-1.4 0-2.1zm3.3 3.7c-2.1-.1-4.3.3-6 1.5-1.8 1.2-3 3-3.6 5-.4 1.2-.5 2.5-.6 3.8 0 .9.8 1.7 1.6 1.6.9 0 1.6-.7 1.6-1.6 0-.2 0-.5.1-.7 0-.3 0 .3 0 0 0-.1 0-.3.1-.4.1-.5.2-.9.3-1.3.1-.2.1-.4.2-.6 0-.1.1-.2.1-.3 0 0 0-.1.1-.1.1-.2-.2.3-.1.1.2-.4.4-.7.6-1.1.1-.2.2-.3.3-.5 0 0-.2.3-.1.2l.1-.1c.1-.1.1-.2.2-.2l.4-.4.2-.2.1-.1c.2-.1-.3.2-.1.1.3-.2.6-.4 1-.6.1 0 .2-.1.3-.1.3-.1-.3.1 0 0 .2-.1.4-.1.6-.2.2-.1.5-.1.7-.2.1 0 .2 0 .4-.1h.1c.6 0 1.1-.1 1.6-.1.9 0 1.7-.8 1.7-1.7-.3-.9-1-1.6-1.9-1.7zm-83 4.8l-2.2-2.2c-.3-.3-.8-.5-1.2-.5-.2 0-.5 0-.7.1-.2.1-.4.2-.6.4-.3.3-.5.8-.5 1.2 0 .5.2.9.5 1.2l2.2 2.2c.3.3.8.5 1.2.5.2 0 .5 0 .7-.1.2-.1.4-.2.6-.4.3-.3.5-.8.5-1.2 0-.4-.1-.9-.5-1.2z"/><path d="M1714.7 577.4c-2.9 2.9-5.7 5.8-8.6 8.7-.6.6-.7 1.7 0 2.3.7.6 1.7.6 2.3 0 2.9-2.8 5.8-5.7 8.7-8.6.6-.6.7-1.8 0-2.4-.7-.6-1.7-.6-2.4 0zm63.8 167.7c-11.5 1-23 2.4-34.5 2.1-2.4-.1-2.4 3.7 0 3.8 11.6.4 23-1.2 34.5-2.2 2.3-.2 2.3-3.9 0-3.7zm-123.5-4.3c-9.7 3.5-20.4 1-30.2 4.4-2.2.8-1.3 4.3 1 3.6 9.9-2.9 20.5-.8 30.2-4.2 2.3-.9 1.3-4.7-1-3.8z"/><g><path d="M1650.4 750.4c7.8 4 15.7 8.2 24.1 10.9 1.8.6 2.6-2.3.8-2.9-8.1-2.9-15.7-6.7-23.4-10.6-1.7-.9-3.2 1.7-1.5 2.6z"/></g><g><path d="M1770.4 752.2c6 11.1 17.5 16.6 29.6 18.1 1.9.2 2.4-3.1.5-3.5-5.3-.9-10.7-2.3-15.5-4.9-4.9-2.7-8.8-6.7-11.5-11.6-1-2-4.2-.2-3.1 1.9z"/></g><g><path class="st1" d="M1761.9 315.1c6.8 12.7 6.8 27.5 7.7 41.5.5 7.3 1.5 14.5 2.5 21.7 1.1 8 2.2 15.9 3.1 23.9 1 8.8 1.8 17.7 1.9 26.6 0 1.4 2.3 1.4 2.2 0-.3-16-2.5-32-4.8-47.8-1.1-7.6-2.4-15.1-3.1-22.7-.6-7.2-.8-14.4-1.6-21.6-.9-7.8-2.6-15.5-6.3-22.5-.5-1.2-2.2-.2-1.6.9z"/></g><g><path class="st1" d="M1776 427.8c-9.8-4.5-20.4-6.7-31-8.1-11.5-1.4-23.1-1.8-34.7-1.9-6-.1-12-.1-18 0-1.4 0-1.4 2.1 0 2.1 22.1.2 44.4-.5 66.1 4.4 5.6 1.3 11.2 2.9 16.5 5.3 1.3.7 2.4-1.2 1.1-1.8z"/></g><g><path class="st1" d="M1729.5 116.1c.8 3.2 2.3 5.9 3.9 8.7 1.4 2.3 1.9 4.4 1 7-.5 1.5-1.3 3.6-3 4.1-1.4.4-2.9 0-4.3.2-3.2.3-4.5 2.9-5.6 5.6-.5 1.3-.8 2.7-1.4 3.9-.4.8-1.3 1.3-2.1 1.8-2.2 1.5-4.4 2.8-6.6 4.3-4.9 3.2-9.8 6.6-13.6 11-4.2 4.8-6.7 10.7-5.1 17 .3 1.3 2.4.8 2.1-.6-2.9-11.9 9.8-20.5 18.3-26.1 2.1-1.4 4.3-2.7 6.4-4.2.8-.6 1.7-1.1 2.3-2 .7-1.1 1-2.4 1.4-3.7.5-1.4.9-2.9 1.9-4 1-1.2 2.5-1.2 4-1.2 1.4 0 2.8 0 4.1-.7 1.5-.8 2.2-2.5 2.8-4 1.2-2.8 1.3-5.6-.2-8.3-.7-1.3-1.5-2.5-2.2-3.8-1-1.8-1.7-3.6-2.2-5.6-.4-1-2.2-.5-1.9.6z"/></g></g><g><path class="st2" d="M538.1 768.5v-59c0-41.7-3.2-83.5 0-125 1.2-15.8.2-45.2-2-104-.2-5.1-.8-17.7-9-23-7-4.6-16.2-1.6-22 0-19 5.2-39.3 2.5-59 4-56.4 4.3-74.5-8-85 5-6.4 8-3.6 17.6-1 38 3.9 30.1 1.1 60.7 2 91 .7 21.2.1 11.1 2 117 .4 23.2.8 42.3 1 55-24-.7-48-1.3-72-2 1.2-12.9 2.9-32.8 4-57 2.2-49.5 0-70.4-1-134-.7-45.2-.4-85.6 0-133 .5-56.2 1.2-67.3-1-92-3-34-7.4-48.5-5-67 0 .2-.3-10.9-1-33-.1-3.6-.2-7.6-3-11-4.7-5.7-13.7-5.4-21-5-21.1 1-31.6 1.5-40 3-24.5 4.2-45.3 1.8-69-1-11.3-1.3-4.2-.2-30 2-1.6.1-5.1.5-8 3-8.3 7.3-3.2 25.4-2 30 11.3 43.3 2.4 89.4 6 134 5.3 66.8-4.3 55.1-2 182 .5 27.4 1.2 40.8 2 89 .7 40.3.9 73.3 1 95 145-.7 270-1.4 415-2z"/><path d="M123.1 774c-.9 0-1.8-.4-2.5-1-.7-.7-1-1.5-1-2.5-.1-31.2-.5-63.2-1-95-.5-28.5-.9-44.7-1.3-59-.3-10.1-.5-18.7-.7-30-1.2-65.3.8-94.3 2.2-115.5 1.4-20.5 2.3-34-.2-66.3-1.4-17.2-.9-34.8-.5-51.8.7-27.2 1.4-55.3-5.4-81.6l-.1-.5c-1.6-6.1-6.5-24.6 3.2-33 3.8-3.3 8.3-3.7 10-3.9 10.7-.9 15.7-1.6 18.7-2.1 4.6-.7 5.2-.7 12 .1 23.6 2.8 44 5.2 68 1 8.6-1.5 19.2-2 40.4-3 7.2-.4 18-.9 23.9 6.3 3.5 4.3 3.7 9.4 3.8 13.1.6 18.8.9 31.4 1 32.8v.8c-1.5 11.6-.2 21.5 1.7 36.5 1.1 8.3 2.3 17.7 3.3 29.7 1.8 20.1 1.6 31.2 1.3 64.3-.1 7.9-.2 17.1-.3 28-.4 47.1-.7 87.8 0 132.9.3 20 .8 35.7 1.1 49.5.8 30.5 1.4 50.7-.1 84.7-.8 17.8-2 35.8-3.7 53.4l64.6 1.8c-.2-12.6-.6-30.3-.9-51.3-1-54.3-1.3-78.4-1.5-91.3-.2-12.4-.2-15.4-.5-25.7-.3-11-.2-22.1 0-32.9.3-19 .5-38.7-1.9-57.8-.4-3.2-.8-6.1-1.2-8.8-2.1-14.9-3.4-23.9 3-31.8 7-8.7 16.8-7.9 33-6.7 12.6 1 29.8 2.3 54.4.4 7-.5 14.1-.5 20.9-.6 13.1 0 25.5 0 37.4-3.3l1-.3c6.3-1.8 15.9-4.4 23.8.7 9.9 6.4 10.4 21 10.6 25.8 2.2 58.8 3.2 88.4 2 104.4-2.1 27.4-1.4 55.5-.7 82.6.4 13.8.7 28.1.7 42.1v59c0 1.9-1.6 3.5-3.5 3.5-72.5.3-140 .7-207.5 1s-135 .9-207.5 1.3zm26.5-535.6c-1.2 0-2.2.1-4.2.4-3.1.4-8.2 1.2-19.1 2.1-1.3.1-3.9.3-6 2.1-2.9 2.6-5.5 9.1-1.1 26l.1.5c7.1 27.2 6.4 55.9 5.6 83.5-.4 16.8-.9 34.3.5 51.1 2.6 32.8 1.6 47.3.2 67.3-1.4 21.1-3.4 49.9-2.2 114.9.2 11.2.4 19.9.7 29.9.4 14.3.8 30.6 1.3 59.1.5 30.6.8 61.4 1 91.5 56.6-.3 110.1-.5 163.1-.8-.1-.3-.1-.7-.1-1 1.8-18.7 3.1-37.8 4-56.8 1.5-33.8 1-53.8.1-84.2-.4-13.9-.8-29.6-1.1-49.6-.7-45.2-.4-85.9 0-133 .1-11 .2-20.2.3-28.1.3-32.8.5-43.9-1.3-63.7-1-11.9-2.2-21.2-3.3-29.4-1.9-14.9-3.3-25.7-1.7-38.2-.1-.5-.1-1.1-.1-1.6 0-1.4-.1-3.5-.2-6.2-.2-5.5-.4-13.8-.7-24.7-.1-3.3-.2-6.4-2.2-8.9-3.7-4.4-12-4-18.1-3.7-20.9 1-31.4 1.5-39.6 3-25 4.3-45.8 1.9-70-1-3-.3-4.6-.5-5.9-.5zm227.7 225.4c-6.9 0-10.6 1.2-13.5 4.8-4.3 5.3-3.6 11.6-1.5 26.4.4 2.7.8 5.7 1.2 8.9 2.5 19.5 2.3 39.5 2 58.8-.1 10.7-.3 21.8 0 32.6.3 10.4.4 13.3.5 25.8.2 12.9.5 36.9 1.5 91.3.4 22.2.7 40.7 1 53.4 53.9-.3 108.4-.5 166-.8v-55.5c0-13.9-.4-28.2-.7-41.9-.7-27.3-1.4-55.6.7-83.4 1.2-15.6.1-45-2-103.6-.1-3.9-.6-15.8-7.4-20.2-5.3-3.4-12.7-1.4-18.1.1l-1.1.3c-12.9 3.5-26.3 3.5-39.2 3.6-6.7 0-13.7 0-20.4.5-25.2 1.9-42.7.6-55.5-.4-5.6-.4-10-.7-13.5-.7z"/><path class="st1" d="M122 275.3v5.8c0 1.9.1 3.9.2 5.8.1 1.8.7 3.5 2 4.8 1.2 1.2 3.1 2.1 4.8 2 1.8-.1 3.6-.7 4.8-2 1.3-1.4 1.9-2.9 2-4.8.1-1.9.2-3.9.2-5.8v-5.8c0-1.8-.8-3.7-2-4.9-1.2-1.2-3.2-2.1-4.9-2-1.8.1-3.7.7-4.9 2-1.4 1.4-2.2 3-2.2 4.9zm9.1 52.2c-.1 26.1-.8 52.2-1.5 78.3-.7 26.1-.8 52.2-.8 78.3-.1 51.9-.1 103.8 0 155.7.1 29.3 0 58.6.4 87.9.1 4.6 4 8.9 8.7 8.7 4.7-.2 8.7-3.8 8.7-8.7.2-52.2-.4-104.4-.9-156.5-.2-25.8-.5-51.6-.8-77.5-.3-26.1-.4-52.2-1.3-78.3-1-29.3-2.1-58.5-2.5-87.9-.1-6.5-10-6.5-10 0zm253.7 251.3c-.1 3.9-.2 7.7-.4 11.6l-.3 5.7c-.1 2 0 3.9.1 5.9.2 4 3.4 7.8 7.7 7.7 4.3-.2 7.5-3.4 7.7-7.7.1-2 .2-3.9.1-5.9l-.3-5.7c-.2-3.9-.3-7.7-.4-11.6-.1-3.7-3.2-7.2-7-7-4.1.1-7.1 3-7.2 7z"/><g><path class="st1" d="M386.6 634.9c.2 12 .1 24.1.6 36.1s.9 24.1 1.6 36.1c.4 6.8.8 13.6 1.5 20.4.2 2.2.8 4.1 2.4 5.7 1.4 1.4 3.7 2.5 5.7 2.4 4.4-.2 8.2-3.6 8.1-8.1-.1-12.1-1.1-24.1-1.9-36.1-.9-12.1-1.7-24.1-2.9-36.1l-2.1-20.4c-.2-1.8-.6-3.3-1.9-4.6-1.1-1.1-3-2-4.6-1.9-3.4.1-6.5 2.8-6.5 6.5z"/></g></g><g><path class="st3" d="M620 90.1c18.1 51.7 36.1 103.4 54.2 155.1.7 1.9 2.1 3.4 4 4.1 45.6 16.8 91.2 33.5 136.8 50.3 4.1 1.5 5.7 6.4 3.3 10.1-12.3 18.4-48.1 63.2-111.3 72.1-66.9 9.4-114.4-28.4-123-35.5-43.7-36.2-72.4-100-54.6-163.6 16.1-57.3 62.2-86.4 81.1-96.3 3.7-1.9 8.1-.1 9.5 3.7z"/><path d="M685.8 386.8c-53.8 0-92.5-28.2-104-37.8-22.8-18.9-41.1-44.8-51.4-73-11.4-31.1-12.9-63.7-4.3-94.2 16.4-58.3 63.4-88.3 82.8-98.5 2.6-1.4 5.7-1.5 8.5-.5 2.8 1.1 4.9 3.3 5.9 6.1L677.5 244c.3.9 1 1.6 1.9 2l136.8 50.3c3 1.1 5.2 3.4 6.2 6.4 1 3 .5 6.2-1.2 8.9-12.8 19.1-49.4 64.6-113.8 73.6-7.4 1.1-14.6 1.6-21.6 1.6zM613.7 89.1c-.5 0-1 .1-1.5.4-18.6 9.8-63.7 38.5-79.3 94.2-18.2 64.9 13.7 127.1 53.4 159.9 12.5 10.4 58.1 43.4 120.3 34.7 61.5-8.7 96.7-52.3 108.9-70.6.6-.8.7-1.9.4-2.8-.3-.9-1-1.7-1.9-2l-137-50.3c-2.9-1.1-5.1-3.3-6.1-6.2L616.7 91.3c-.3-.9-1-1.6-1.9-1.9-.3-.2-.8-.3-1.1-.3z"/><path class="st4" d="M636.1 74.6c-1.2-3.8 1.1-7.8 5-8.6 15.3-3.3 37.4-6.1 63.4-2.1 36.8 5.7 63.4 22 78.1 33 3.1 2.3 3.6 6.7 1.1 9.6-30.5 37-61 74.1-91.4 111.1-3.4 4.1-10 2.8-11.6-2.2L636.1 74.6z"/><path d="M687.2 223.7c-.6 0-1.3-.1-1.9-.2-3.7-.7-6.7-3.4-7.8-6.9L632.8 75.7c-.9-2.7-.5-5.7.9-8.2 1.4-2.5 3.9-4.3 6.7-4.9 21.5-4.7 43.2-5.4 64.7-2.1 36.1 5.5 63.3 21.4 79.7 33.7 2.2 1.7 3.7 4.1 4 6.9.3 2.8-.5 5.6-2.3 7.7L695.1 220c-1.9 2.3-4.8 3.7-7.9 3.7zm-8.8-158.2c-12.2 0-24.4 1.3-36.5 4-.9.2-1.7.8-2.1 1.6-.5.8-.6 1.7-.3 2.6l44.7 140.9c.5 1.6 1.9 2.1 2.5 2.2.6.1 2 .2 3.1-1.1l91.4-111.1c.6-.7.8-1.6.7-2.4-.1-.9-.5-1.6-1.2-2.2-15.8-11.8-41.9-27-76.6-32.3-8.6-1.6-17.1-2.2-25.7-2.2z"/><g><path class="st2" d="M799.8 123.7c-32.7 35.5-65.3 70.9-98 106.4-3.3 3.6-1.8 9.3 2.8 10.9 40.3 13.8 80.5 27.5 120.8 41.3 3.7 1.3 7.7-.9 8.7-4.7 4.3-16.9 8.4-42.2 4.8-72.3-4.4-36.5-18.1-64-28.4-80.5-2.4-3.9-7.7-4.4-10.7-1.1z"/><path d="M827.5 286.1c-1.1 0-2.2-.2-3.3-.5l-120.8-41.3c-3.3-1.1-5.7-3.8-6.6-7.2s0-6.9 2.4-9.4l98-106.4c2.2-2.4 5.3-3.6 8.5-3.2 3.2.3 6 2 7.7 4.8 15.5 24.8 25.4 53.2 28.9 82 3 24.6 1.3 49.4-4.9 73.6-.7 2.8-2.6 5.1-5.1 6.5-1.5.6-3.1 1.1-4.8 1.1zM804.7 125c-.9 0-1.7.4-2.4 1l-98 106.4c-.8.8-1 1.9-.8 3 .3 1.1 1 1.9 2.1 2.3L826.4 279c.9.3 1.8.2 2.6-.2s1.4-1.2 1.6-2c6-23.3 7.6-47.2 4.7-71-3.3-27.8-13-55.1-27.9-79.1-.5-.9-1.4-1.4-2.4-1.5-.1-.2-.2-.2-.3-.2zm-4.9-1.3z"/></g></g><g><path class="st4" d="M793.1 516.5l3 252.6c.1 4.9 4 8.8 8.9 8.8h93.2c4.9 0 8.9-4 8.9-9-1-82.4-2-164.8-3.1-247.1-.1-4.7-3.7-8.5-8.4-8.8-31.1-1.8-62.1-3.7-93.2-5.5-5-.2-9.3 3.9-9.3 9z"/><path d="M898.3 781.4H805c-6.7 0-12.3-5.5-12.4-12.2l-3-252.6c0-3.4 1.4-6.7 3.8-9.1 2.5-2.4 5.9-3.6 9.3-3.4l93.2 5.5c6.5.4 11.6 5.7 11.7 12.2l3.1 247.1c0 3.3-1.2 6.5-3.6 8.9s-5.5 3.6-8.8 3.6zM796.6 516.5l3 252.6c0 2.9 2.4 5.3 5.4 5.3h93.2c1.5 0 2.8-.6 3.8-1.6s1.6-2.4 1.6-3.8l-3.1-247.1c0-2.8-2.3-5.1-5.1-5.3l-93.2-5.5c-1.5-.1-2.9.4-4 1.5-1 1-1.6 2.4-1.6 3.9z"/></g><g><path class="st2" d="M972.5 431.2c-1 112.6-2.1 225.2-3.1 337.8 0 4.9 3.9 9 8.9 9h96.3c4.9 0 8.9-4 8.9-9-1-111.7-2.1-223.4-3.1-335 0-4.8-3.8-8.7-8.6-8.8l-90.1-2.7c-5.1-.2-9.2 3.7-9.2 8.7z"/><path d="M1074.6 781.4h-96.3c-3.3 0-6.5-1.3-8.8-3.7-2.3-2.4-3.6-5.5-3.6-8.8l3.1-337.8c0-3.4 1.4-6.5 3.8-8.8 2.4-2.3 5.6-3.6 9-3.4l90.1 2.7c6.7.2 11.9 5.6 12 12.3l3.1 335c0 3.3-1.2 6.5-3.6 8.8-2.4 2.4-5.5 3.7-8.8 3.7zM976 431.2L972.9 769c0 1.4.5 2.8 1.6 3.8 1 1 2.4 1.6 3.8 1.6h96.3c1.4 0 2.8-.6 3.8-1.6s1.6-2.4 1.6-3.8l-3.1-335c0-2.9-2.3-5.2-5.2-5.3l-90.1-2.7c-1.5 0-2.8.5-3.9 1.5s-1.7 2.3-1.7 3.7z"/></g><g><path class="st4" d="M1139 581.8v181c0 4.8 3.8 8.7 8.6 8.9l92.9 2.7c5.1.2 9.3-4.1 9.1-9.2-2-59.4-4-118.9-5.9-178.3-.2-4.6-3.8-8.3-8.3-8.6l-87-5.4c-5.1-.3-9.4 3.7-9.4 8.9z"/><path d="M1240.8 777.9h-.4l-92.9-2.7c-6.7-.2-12-5.6-12-12.4v-181c0-3.4 1.4-6.7 3.9-9s5.8-3.5 9.3-3.3l87 5.4c6.4.4 11.4 5.5 11.6 11.9l5.9 178.3c.1 3.4-1.2 6.7-3.6 9.2-2.3 2.3-5.5 3.6-8.8 3.6zm-92.9-201.5c-1.4 0-2.7.5-3.7 1.5-1.1 1-1.7 2.4-1.7 3.9v181c0 2.9 2.3 5.3 5.2 5.4l92.9 2.7c1.5 0 2.9-.5 4-1.6s1.6-2.5 1.6-4l-5.9-178.3c-.1-2.8-2.3-5-5-5.2l-87-5.4h-.4z"/></g><g><path d="M2340.5 766.4c-144.1-.3-288.1-1.4-432.2-1.4-135.5 0-271 .6-406.4 1.2-147.9.6-295.9 1-443.8 1.1-157.1 0-314.2-.5-471.3-1.6-154.1-1-308.2-2.8-462.3-3.9-20.3-.1-40.6-.3-60.9-.4-9.3-.1-9.3 14.3 0 14.4 155.6 1.7 311.3 3 466.9 4.1 155.5 1.1 311.1 1.9 466.6 2 151 .1 302.1-.3 453.1-.9 135.9-.5 271.8-1.3 407.7-2.4 141.7-1.1 283.4-3.3 425.1-3.7 19.2-.1 38.4-.1 57.5-.1 5.3-.2 5.3-8.4 0-8.4z"/></g><g><path class="st4" d="M1262.6 379.7c-.8 1.1-1.5 2.1-2.4 3.2.3-.3.6-.7.1-.2-.2.2-.4.5-.5.7l-1.2 1.5c-1.6 2.1-3.3 4.1-5.1 6.1-3.4 3.9-7 7.7-10.7 11.4-2.2 2.2-2.4 6.3 0 8.5s6.1 2.4 8.5 0c7.9-7.8 15-16.2 21.6-25.1.9-1.2 1-3.3.6-4.6-.4-1.4-1.5-2.9-2.8-3.6-3-1.7-6.1-.6-8.1 2.1z"/></g><g><path class="st4" d="M1289.6 329.9c-1 2.8-2.1 5.5-3.2 8.2-.4 1.1.3-.6 0 .1-.1.3-.2.6-.4.9l-.9 2.1c-.6 1.3-1.2 2.7-1.8 4-2.5 5.3-5.3 10.6-8.2 15.6-1.6 2.7-.7 6.7 2.2 8.2 2.9 1.5 6.5.7 8.2-2.2 6.3-10.8 11.5-22.1 15.8-33.8 1.1-3-1.2-6.7-4.2-7.4-3.5-.6-6.4 1.2-7.5 4.3z"/></g><g><path class="st4" d="M1301.1 281.7c-.1 1.3-.3 2.6-.4 3.8 0 .3-.3 2.4-.1.8-.1.6-.2 1.3-.3 1.9-.4 2.6-.8 5.1-1.3 7.6-.9 5.1-2.1 10.1-3.4 15.1-.8 3 1 6.7 4.2 7.4 3.1.7 6.5-.9 7.4-4.2 2.8-10.7 4.8-21.5 6-32.5.3-3.1-3-6.1-6-6-3.6.3-5.7 2.7-6.1 6.1z"/></g><g><path class="st4" d="M1301.7 247.6c.3 4.2.5 8.5.5 12.7 0 1.5.7 3.1 1.8 4.2 1 1 2.7 1.8 4.2 1.8 3.2-.1 6-2.6 6-6 0-4.2-.2-8.5-.5-12.7-.1-1.6-.6-3.1-1.8-4.2-1-1-2.7-1.8-4.2-1.8-1.6.1-3.2.6-4.2 1.8-1.1 1.1-1.9 2.6-1.8 4.2z"/></g><g><path class="st4" d="M1294.2 205.7c2.3 7.8 4.1 15.6 5.4 23.6.5 3.1 4.5 5.1 7.4 4.2 3.4-1.1 4.8-4.1 4.2-7.4-1.3-8-3.1-15.9-5.4-23.6-.9-3-4.3-5.2-7.4-4.2-3.1 1-5.1 4.2-4.2 7.4z"/></g><g><path class="st4" d="M1278.5 167.7c3.1 5.7 6 11.6 8.5 17.6-.2-.5-.4-1-.6-1.4.2.4.4.9.6 1.3.6 1.5 1.3 2.7 2.8 3.6 1.3.8 3.2 1.1 4.6.6 1.5-.5 2.9-1.4 3.6-2.8.7-1.3 1.2-3.2.6-4.6-2.9-7-6.1-13.8-9.7-20.4-1.5-2.8-5.5-3.9-8.2-2.2-2.8 1.9-3.8 5.3-2.2 8.3z"/></g><g><path class="st4" d="M1250.2 129c3.1 3.3 6 6.6 8.9 10.1 1.4 1.7 2.7 3.4 4.1 5.1.2.3.4.5.6.8-.2-.3-.7-.9-.2-.3.3.4.6.8 1 1.3.7.9 1.4 1.9 2.1 2.8 1 1.3 2 2.3 3.6 2.8 1.4.4 3.3.2 4.6-.6 2.5-1.6 4.1-5.5 2.2-8.2-5.7-7.7-11.7-15.2-18.3-22.2-2.2-2.3-6.3-2.3-8.5 0-2.4 2.4-2.4 6-.1 8.4z"/></g><g><path class="st4" d="M1218.2 104c5.8 3.1 11.3 6.8 16.5 10.8l-1.2-.9c.2.1.3.3.5.4 1.3 1 2.5 1.8 4.2 1.8 1.5 0 3.2-.7 4.2-1.8s1.8-2.6 1.8-4.2c-.1-1.5-.5-3.3-1.8-4.2-5.8-4.5-11.8-8.6-18.2-12.1-2.8-1.5-6.7-.8-8.2 2.2-1.4 2.6-.7 6.4 2.2 8z"/></g><g><path class="st4" d="M1175.3 87.5c8.1 1.9 16 4.3 23.7 7.3 1.4.5 3.4.1 4.6-.6 1.2-.7 2.4-2.2 2.8-3.6.8-3.4-1.1-6.2-4.2-7.4-7.7-3-15.7-5.4-23.7-7.3-3.1-.7-6.6.9-7.4 4.2-.7 3.1.9 6.6 4.2 7.4z"/></g><g><path class="st4" d="M1132.8 82.7c8.5.1 17 .7 25.4 1.7 1.4.2 3.3-.8 4.2-1.8 1-1 1.8-2.7 1.8-4.2-.1-1.6-.6-3.2-1.8-4.2-1.3-1.2-2.6-1.5-4.2-1.8-8.4-1.1-16.9-1.6-25.4-1.7-3.1 0-6.1 2.8-6 6 .2 3.3 2.6 5.9 6 6z"/></g><g><path class="st4" d="M1089.6 89.5c7.9-2.4 15.9-4.2 24.1-5.5 1.4-.2 2.9-1.6 3.6-2.8.8-1.3 1.1-3.2.6-4.6-1.1-3.4-4-4.7-7.4-4.2-8.1 1.3-16.2 3.1-24.1 5.5-3 .9-5.2 4.2-4.2 7.4 1 3.1 4.2 5.2 7.4 4.2z"/></g><g><path class="st4" d="M1061 101.7c2.8-1.6 5.7-3.2 8.7-4.5.7-.4 1.3-.9 1.7-1.5.5-.6.9-1.3 1.1-2 .2-.8.3-1.6.1-2.4 0-.8-.3-1.5-.7-2.2-.8-1.3-2.1-2.4-3.6-2.8-.5-.1-1.1-.1-1.6-.2-1.1 0-2.1.3-3 .8-3 1.4-5.9 2.9-8.7 4.5-1.3.8-2.4 2.1-2.8 3.6-.2.8-.3 1.6-.1 2.4 0 .8.3 1.5.7 2.2.8 1.3 2.1 2.4 3.6 2.8 1.6.2 3.2.1 4.6-.7z"/></g><g><path class="st4" d="M1028.5 140.6c.5-1.7 1-3.3 1.7-5 .1-.4.3-.7.4-1.1.4-1.1-.5 1.1 0 0 .3-.7.7-1.5 1-2.2 1.4-3 3.1-5.9 5-8.6.5-.7.9-1.3 1.4-2 .2-.3.4-.7.7-1-1.1.9-.2.3 0-.1 1.1-1.4 2.2-2.7 3.4-4 2.3-2.5 4.7-4.8 7.2-6.9 2.4-2 2.3-6.4 0-8.5-2.6-2.3-5.9-2.2-8.5 0-11.2 9.5-19.9 22-24 36.1-.9 3 1.1 6.7 4.2 7.4 3.3.8 6.6-.9 7.5-4.1z"/></g><g><path class="st4" d="M1028.7 175c-1.3-3.7-2.2-7.5-2.8-11.5.1.5.1 1.1.2 1.6-.3-2.5-.5-5-.5-7.5 0-3.1-2.8-6.1-6-6-3.3.1-6 2.6-6 6 0 7 1.1 14 3.5 20.5.5 1.5 1.4 2.8 2.8 3.6 1.3.8 3.2 1.1 4.6.6 2.9-.9 5.3-4.1 4.2-7.3z"/></g><g><path class="st4" d="M1056.4 202.3c-1-.3-2-.7-3-1-.2-.1-.4-.2-.7-.3-.8-.3.3.1.5.2-.5-.2-1-.4-1.4-.6-1.9-.9-3.7-1.9-5.5-3.1-.8-.5-1.7-1.1-2.5-1.7-.2-.1-1-.8-.2-.2.7.6.1.1-.1-.1-.4-.3-.8-.7-1.2-1-1.6-1.4-3.1-2.8-4.5-4.4-2.1-2.3-6.4-2.3-8.5 0-2.3 2.5-2.3 6 0 8.5 6.5 7.1 14.8 12.3 23.9 15.2 3 .9 6.7-1.1 7.4-4.2.8-3.1-.9-6.3-4.2-7.3z"/></g><g><path class="st4" d="M1090.4 195.4c-.7.7-1.4 1.3-2.2 1.9-.2.2-1.4 1.1-.6.5.8-.6-.1.1-.2.1-.2.1-.4.3-.6.4-1.6 1.1-3.2 2.1-5 3l-1.2.6-.6.3c.2 0 1.3-.5.5-.2-.9.3-1.8.7-2.7 1-1.9.6-3.8 1.1-5.8 1.4-1.4.2-2.9 1.6-3.6 2.8-.8 1.3-1.1 3.2-.6 4.6.5 1.5 1.4 2.9 2.8 3.6 1.5.8 2.9.9 4.6.6 8.9-1.4 17.2-5.8 23.7-12 2.3-2.2 2.3-6.3 0-8.5-2.5-2.3-6.1-2.4-8.5-.1z"/></g><g><path class="st4" d="M1100.9 151.6c.8 2.4 1.4 4.9 1.8 7.4.2 1.2-.1-.8 0 0 0 .3.1.6.1.9.1.6.1 1.2.1 1.8.1 1.3.1 2.7.1 4 0 1.3-.1 2.6-.2 3.8 0 .1-.2.8-.1.9-.1-.2.2-1.2 0-.3-.1.7-.2 1.3-.3 2-.5 2.6-1.2 5.1-2 7.6-1 3 1.2 6.7 4.2 7.4 3.3.8 6.3-1 7.4-4.2 3.8-11 4.3-23.5.6-34.6-1-3-4.2-5.2-7.4-4.2-3 1.1-5.3 4.4-4.3 7.5z"/></g><g><path class="st4" d="M1063.2 113.8c.4.2.8.3 1.1.5 1.2.5-1-.5.1 0 .7.3 1.5.7 2.2 1 1.5.7 2.9 1.4 4.4 2.2 2.9 1.6 5.7 3.3 8.4 5.2.7.5 1.3 1 2 1.4.4.3.2.2-.4-.3.2.1.3.3.5.4.3.3.6.5.9.8 1.3 1 2.5 2.1 3.7 3.2 2.4 2.3 4.7 4.7 6.8 7.3 2 2.5 6.5 2.2 8.5 0 2.4-2.6 2.1-5.9 0-8.5-9.1-11.3-21.4-19.5-34.9-24.8-1.4-.5-3.4-.1-4.6.6-1.2.7-2.4 2.2-2.8 3.6-.9 3.5 1 6.2 4.1 7.4z"/></g><g><path class="st4" d="M1008.3 107.8c6.2-.7 12.5-1.1 18.8-1 3.1.1 6.1.2 9.1.5l2.4.3c.4 0 .8.1 1.2.1.9.1-1.5-.2.1 0s3.2.5 4.8.8c3.1.6 6.6-.8 7.4-4.2.7-2.9-.9-6.8-4.2-7.4-13.1-2.4-26.4-2.8-39.6-1.2-1.6.2-3 .5-4.2 1.8-1 1-1.8 2.7-1.8 4.2.1 3.1 2.7 6.5 6 6.1z"/></g><g><path class="st4" d="M970.1 114.3c5.6-1.3 11.2-2.5 16.9-3.5 1.4-.3 2.9-1.6 3.6-2.8.8-1.3 1.1-3.2.6-4.6-.5-1.5-1.4-2.9-2.8-3.6-1.5-.8-3-.9-4.6-.6-5.6 1-11.3 2.2-16.9 3.5-3.1.7-5.2 4.4-4.2 7.4 1.1 3.2 4.1 5 7.4 4.2z"/></g><g><path class="st4" d="M930.3 126.8c6.3-2.6 12.8-4.9 19.3-6.9 3-.9 5.2-4.2 4.2-7.4-1-3-4.2-5.2-7.4-4.2-6.5 2-13 4.3-19.3 6.9-1.5.6-2.7 1.3-3.6 2.8-.8 1.3-1.1 3.2-.6 4.6.5 1.5 1.4 2.9 2.8 3.6 1.3.7 3.2 1.2 4.6.6z"/></g><g><path class="st4" d="M898.2 143.6c4.5-3 9.2-5.7 13.9-8.3 2.8-1.5 3.9-5.6 2.2-8.2-1.8-2.8-5.2-3.7-8.2-2.2-4.8 2.5-9.4 5.3-13.9 8.3-1.3.9-2.3 2.1-2.8 3.6-.4 1.4-.2 3.3.6 4.6.8 1.3 2.1 2.4 3.6 2.8 1.5.4 3.2.3 4.6-.6z"/></g><g><path class="st4" d="M868.2 169.7c4.2-4.8 8.7-9.3 13.5-13.6 1.1-1 1.8-2.8 1.8-4.2 0-1.5-.7-3.2-1.8-4.2s-2.6-1.8-4.2-1.8c-1.6.1-3 .7-4.2 1.8-4.8 4.2-9.3 8.7-13.5 13.6-1.1 1.2-1.8 2.6-1.8 4.2 0 1.5.7 3.2 1.8 4.2s2.6 1.8 4.2 1.8c1.5-.1 3.2-.6 4.2-1.8z"/></g><g><path class="st4" d="M1293.8 398.3c6.5-2.3 13.2-4.1 20-5.3 1.4-.3 2.9-1.6 3.6-2.8.8-1.3 1.1-3.2.6-4.6-1.1-3.3-4.1-4.8-7.4-4.2-6.8 1.2-13.4 3-20 5.3-3 1-5.2 4.2-4.2 7.4 1 3 4.3 5.3 7.4 4.2z"/></g><g><path class="st4" d="M1234.7 381.9c-.1 1-.2 2-.4 3 0 .2 0 .5-.1.7 0 0 .2-1.1.1-.4-.1.5-.2 1.1-.2 1.6-.3 2.1-.6 4.2-1 6.3-.7 4-1.5 8-2.4 12-1.8 8.1-4 16-6.6 23.9-1.5 4.5-3.1 8.9-4.8 13.3-.5 1.3-.1 3.5.6 4.6.7 1.1 1.6 1.9 2.9 2.5 2.9 1.2 5.8 0 7.5-2.5 1.2-1.7 2.4-3.4 3.6-5 .2-.2.3-.4.5-.7.6-.8-.1.1-.2.2.3-.4.6-.8.9-1.1.7-.9 1.4-1.7 2.1-2.6 2.7-3.2 5.5-6.3 8.5-9.3 2.9-2.9 6-5.7 9.2-8.3.8-.7 1.6-1.3 2.4-1.9.2-.1.3-.2.5-.4-1 .9-.5.4-.2.2.5-.4 1-.7 1.5-1.1 1.7-1.2 3.3-2.4 5.1-3.6 3.9-2.7 8-5.1 12.2-7.4 2.8-1.5 3.9-5.6 2.2-8.2-1.8-2.8-5.2-3.7-8.2-2.2-15.4 8.3-29.4 19.4-40.8 32.7-3.4 4-6.6 8.2-9.6 12.5 3.7 1.5 7.3 3.1 11 4.6 6.2-15.6 10.7-31.8 13.6-48.3.9-5.1 1.6-10.2 2.2-15.4.2-1.4-.8-3.3-1.8-4.2-1-1-2.7-1.8-4.2-1.8-1.6.1-3.2.6-4.2 1.8-1.2 1.5-1.7 2.8-1.9 4.5z"/></g><g><path class="st4" d="M1236 339.8c.4 7.4.5 14.7.3 22.1-.1 3.1 2.8 6.1 6 6 3.3-.1 5.9-2.6 6-6 .2-7.4.2-14.7-.3-22.1-.2-3.1-2.6-6.2-6-6-3.1.1-6.2 2.7-6 6z"/></g><g><path class="st2" d="M664.8 651c16.4 8.8 33.5 16.1 50.7 23.5 1.9.8 3.7 1.3 5.8.8 1.7-.5 3.6-1.8 4.5-3.4.9-1.7 1.4-3.8.8-5.8-.6-1.7-1.7-3.7-3.4-4.5-17.1-7.3-34.2-14.7-50.7-23.5-3.5-1.8-8.3-1-10.3 2.7-1.9 3.4-1.1 8.2 2.6 10.2z"/></g><g><path class="st2" d="M624.8 624.4c6.5 5.5 13.3 10.5 20.4 15.2 3.3 2.1 8.4.8 10.3-2.7 2-3.7.8-8-2.7-10.3-4.4-2.9-8.7-5.9-12.8-9.1l1.5 1.2c-2.1-1.6-4.1-3.2-6.1-4.9-1.6-1.3-3.2-2.2-5.3-2.2-1.8 0-4 .8-5.3 2.2-1.3 1.4-2.3 3.3-2.2 5.3.1 1.8.7 4 2.2 5.3z"/></g><g><path class="st2" d="M596.1 592.4c3.8 5.8 8.1 11.2 12.7 16.4 1.2 1.4 3.5 2.2 5.3 2.2 1.8 0 4-.8 5.3-2.2 1.3-1.4 2.3-3.3 2.2-5.3-.1-2.1-.8-3.8-2.2-5.3a190.579 190.579 0 0 1-4.8-5.7c-1.9-2.5-3.8-5-5.5-7.6-1.1-1.6-2.6-2.9-4.5-3.4-1.8-.5-4.2-.3-5.8.8-1.6 1-3 2.6-3.4 4.5-.5 1.7-.4 3.9.7 5.6z"/></g><g><path class="st2" d="M580.8 559.6c1.4 4.9 3.2 9.6 5.2 14.3.5.9 1.1 1.6 1.9 2.1.7.7 1.6 1.1 2.6 1.3 1.8.5 4.2.3 5.8-.8 1.6-1 3-2.6 3.4-4.5.1-.7.2-1.3.3-2 0-1.4-.3-2.6-1-3.8-.1-.3-.2-.6-.4-.9.3.6.5 1.2.8 1.8-1.6-3.8-3-7.7-4.1-11.6-.5-1.8-1.8-3.5-3.4-4.5-1.6-.9-4-1.3-5.8-.8-1.8.6-3.6 1.7-4.5 3.4-1 2-1.4 4.1-.8 6z"/></g><g><path class="st2" d="M578.3 515.1c-1.4 7.9-1.9 16-1.2 24 .2 2 .7 3.8 2.2 5.3 1.3 1.3 3.4 2.3 5.3 2.2 3.8-.2 7.8-3.3 7.5-7.5-.5-6.2-.4-12.5.4-18.6-.1.7-.2 1.3-.3 2 .2-1.1.3-2.2.5-3.4.4-2 .3-3.9-.8-5.8-.9-1.6-2.7-3-4.5-3.4-1.9-.4-4.1-.3-5.8.8-1.4.9-3 2.5-3.3 4.4z"/></g><g><path class="st2" d="M620.9 462c-3.6 1.1-7.1 2.6-10.4 4.5-3.3 1.8-6.4 4.1-9.3 6.4-1.4 1.1-2.2 3.6-2.2 5.3 0 1.8.8 4 2.2 5.3 1.4 1.3 3.3 2.3 5.3 2.2.7-.1 1.3-.2 2-.3 1.3-.4 2.4-1 3.3-1.9.4-.4.9-.7 1.3-1.1l-1.5 1.2c3.4-2.6 7.1-4.8 11-6.4-.6.3-1.2.5-1.8.8 1.3-.5 2.6-1 4-1.5 1.8-.6 3.5-1.7 4.5-3.4.9-1.6 1.3-4 .8-5.8-.6-1.8-1.7-3.6-3.4-4.5-1.7-1-3.8-1.4-5.8-.8z"/></g><g><path class="st2" d="M676.1 482.3c-6.2-11.8-18.2-20.3-31.5-22.2-2.1-.3-3.9-.4-5.8.8-1.6.9-3 2.7-3.4 4.5-.4 1.9-.3 4.1.8 5.8 1 1.5 2.6 3.2 4.5 3.4 3.3.5 6.5 1.3 9.5 2.6-.6-.3-1.2-.5-1.8-.8 1.8.8 3.5 1.6 5.1 2.7.7.5 1.6 1.3 2.4 1.6-.1 0-1.4-1.1-.7-.5.2.2.4.3.6.5.4.3.8.7 1.2 1.1.7.6 1.4 1.3 2 2 .3.4.6.7 1 1.1.2.3 1.3 1.6.4.5-.8-1.1.2.3.4.6.3.4.6.8.8 1.2.6.9 1.1 1.8 1.6 2.7 1.8 3.5 7 4.8 10.3 2.7 3.4-2.3 4.6-6.6 2.6-10.3z"/></g><g><path class="st2" d="M644.3 547.4c4.8.6 9.6.7 14.2-.9 4.2-1.5 7.9-3.8 11.1-6.9 5.7-5.7 9.3-13.4 10.9-21.2.9-4.4 1.5-8.9 1.3-13.4-.2-3.9-3.3-7.7-7.5-7.5-3.9.2-7.7 3.3-7.5 7.5.1 2.6 0 5.2-.4 7.8.1-.7.2-1.3.3-2-.5 4-1.6 7.9-3.1 11.5.3-.6.5-1.2.8-1.8-.7 1.5-1.4 3-2.3 4.5-.4.7-.9 1.4-1.3 2.1-.1.2-.3.4-.4.6 0 0 1.3-1.6.6-.8-.3.3-.5.7-.8 1-.5.6-1.1 1.2-1.7 1.7-.3.3-.5.5-.8.7-.1.1-.3.2-.4.4-.9.8 1.4-1 .8-.6-1.4.9-2.7 1.8-4.2 2.4.6-.3 1.2-.5 1.8-.8-1.6.7-3.3 1.1-5 1.4.7-.1 1.3-.2 2-.3-2 .3-4 .2-6 0 .7.1 1.3.2 2 .3h-.3c-2.1-.3-3.9-.4-5.8.8-1.6.9-3 2.7-3.4 4.5-.4 1.9-.3 4.1.8 5.8.8 1.2 2.4 2.9 4.3 3.2z"/></g><g><path class="st2" d="M598.1 500.1c4.8 14 12.9 27.1 24.5 36.5 1.6 1.3 3.2 2.2 5.3 2.2 1.8 0 4-.8 5.3-2.2 2.5-2.7 3.3-8 0-10.6-2.2-1.8-4.3-3.7-6.2-5.7-1-1.1-2-2.2-2.9-3.3-.4-.5-.8-1-1.3-1.6-.9-1.2 1.1 1.5.2.2-.2-.3-.4-.5-.6-.8-3.4-4.6-6.1-9.6-8.4-14.9.3.6.5 1.2.8 1.8-.8-1.9-1.5-3.7-2.2-5.7-1.3-3.7-5.2-6.5-9.2-5.2-3.7 1.2-6.7 5.3-5.3 9.3z"/></g><g><path class="st2" d="M597 435.3c-3.5 13.8-4.9 28.3-3.5 42.6.2 2 .7 3.8 2.2 5.3 1.3 1.3 3.4 2.3 5.3 2.2 3.7-.2 7.9-3.3 7.5-7.5-.9-8.9-.7-17.8.5-26.6-.1.7-.2 1.3-.3 2 .7-4.7 1.6-9.4 2.7-14 1-3.8-1.2-8.3-5.2-9.2-3.8-.9-8.1 1.1-9.2 5.2z"/></g><g><path class="st2" d="M616.7 384.9c-4.9 10.1-9.6 20.4-13.5 31-.6 1.7-.1 4.2.8 5.8.9 1.6 2.7 3 4.5 3.4 4.3 1 7.7-1.3 9.2-5.2 1.2-3.3 2.6-6.6 3.9-9.9-.3.6-.5 1.2-.8 1.8 2.8-6.5 5.7-12.9 8.8-19.3 1.7-3.5 1.1-8.3-2.7-10.3-3.3-1.7-8.4-1-10.2 2.7z"/></g><g><path class="st2" d="M695.2 672.8c-9.2 1-18.4 2.5-27.4 4.8-3.8 1-6.5 5.4-5.2 9.2 1.3 3.9 5.1 6.3 9.2 5.2 6.7-1.7 13.4-3 20.2-3.9-.7.1-1.3.2-2 .3 1.7-.2 3.5-.4 5.2-.6 2-.2 3.8-.7 5.3-2.2 1.3-1.3 2.3-3.4 2.2-5.3-.1-3.7-3.3-7.9-7.5-7.5z"/></g><g><path class="st2" d="M726.1 657.2c8.1 12.8 18.2 24.3 30.1 33.8 2.4-4.2 4.9-8.4 7.3-12.5-14.5-4-29.5-6.1-44.5-6.6-3.9-.1-7.7 3.5-7.5 7.5.2 4.2 3.3 7.4 7.5 7.5 6.4.2 12.7.7 19.1 1.5-.7-.1-1.3-.2-2-.3 7.9 1.1 15.7 2.7 23.4 4.8 3.1.8 6.9-.5 8.5-3.4.6-1.2 1-2.5 1-3.8.1-1.7-.9-4.2-2.2-5.3-5.6-4.5-10.9-9.4-15.7-14.8-1.2-1.3-2.3-2.6-3.4-3.9-.6-.7-1.2-1.4-1.8-2.2-.2-.2-1.1-1.5-.3-.4s-.3-.4-.5-.6c-2.2-2.9-4.2-5.8-6.1-8.9-2.1-3.3-6.8-4.9-10.3-2.7-3.2 2.2-4.8 6.8-2.6 10.3z"/></g><g><path class="st2" d="M708.6 615.5c1.9 8.3 4.8 16.2 8.1 24 .7 1.6 2.9 3 4.5 3.4 1.8.5 4.2.3 5.8-.8 1.6-1 3-2.6 3.4-4.5.1-.7.2-1.3.3-2 0-1.4-.3-2.6-1-3.8-.2-.5-.4-1-.7-1.5.3.6.5 1.2.8 1.8-2.8-6.7-5.1-13.6-6.7-20.7-.9-3.8-5.5-6.5-9.2-5.2-4.1 1.4-6.3 5.2-5.3 9.3z"/></g><g><path class="st3" d="M1389.6 482.6c-3.7-6.4-11.6-22-8.5-39.8 3.1-18 18.1-42 44-40.2 21 1.5 38.6 19.3 45.9 33.9 11.9 23.6 1.5 47.3-13.8 59.1-7 5.4-14.6 7.9-19.9 9.2-5.7 5.6-12.2 11.4-19.8 17.2-5.8 4.4-11.6 8.4-17.1 11.8-6.3-2.9-12.7-5.7-19-8.6-1.1-4.9-1.9-11.9-.8-19.8 1.5-10.7 5.9-18.4 9-22.8z"/><path class="st5" d="M1413 525.5c.1 6.7-2.2 9.8-4.5 11.4-3.2 2.2-5.6.9-12.4 2.7-8.4 2.3-10.8 6-13.4 4.6-2.2-1.3-.7-4.4-2.8-10.6-2.4-7-6.1-8.4-7.2-12.8-.8-3.4-.2-8.5 7.9-15.4 5.9 1.9 14.3 5.4 22.9 11.8 3.9 2.8 7 5.7 9.5 8.3z"/><path d="M1404.6 521.2c2.4-4.7 4.4-9.6 6.4-14.5l1.8-4.2c0-.1.3-.6.1-.3-.1.3.1-.2.1-.3.2-.4.3-.8.5-1.2.3-.8.7-1.5 1-2.3 1.3-3.1 2.7-6.3 4.2-9.3 2.9-6.2 6-12.4 9.8-18.2.8-1.3 1.7-2.6 2.6-3.9.2-.3.4-.6.7-.9.1-.2.3-.4.4-.5-.1.1-.4.5 0 0 .5-.6.9-1.2 1.4-1.7.9-1.1 1.9-2.1 2.9-3.1.5-.4.9-.9 1.4-1.3.2-.2.5-.4.7-.6.1-.1.2-.2.4-.3.3-.3-.5.4 0 0 1-.7 2-1.4 3.1-2 .2-.1.5-.2.8-.4.8-.4-.3.1.2-.1.6-.2 1.1-.4 1.7-.6.3-.1.5-.1.8-.2.1 0 .3 0 .4-.1.4-.1-.4.1-.4 0 .3.1 1.3-.1 1.6-.1.6 0 1.1 0 1.7.1.3 0 .6.1.9.1-.9-.1.3.1.5.1.6.1 1.2.3 1.8.4l.9.3c.1 0 .3.1.4.1.5.2-.4-.3-.1 0 .2.2.6.3.8.4.5.3.4.5.1 0 0 0 .5.4.5.5 0 0-.5-.7-.2-.3.3.4-.2-.7-.1-.3.2.6 0-.9 0-.2 0 .4.1-.8.1-.4 0 .1-.1.5 0 0 .2-.7-.4.6-.1.1.3-.5-.1.1-.2.2l-.5.5-.4.4c-.4.3.4-.2-.1.1-.1.1-.8.4-.8.5-.1.2.6-.1.2-.1-.1 0-.3.1-.4.1-.1 0-.6.1-.1 0s-.1 0-.2 0h-1.4c-.8 0 .5.1 0 0-.8-.1-1.6-.3-2.3-.5-1.7-.5-3.4-1.1-5-1.8-.2-.1-.4-.2-.6-.2.5.2 0 0-.1 0-.4-.2-.8-.3-1.2-.5-.8-.4-1.7-.8-2.5-1.1l-3.9-1.8c-.4-.2-.9-.3-1.3-.5s.9.4.3.1c-.3-.2-.7-.3-1-.5-.9-.4-1.7-.8-2.6-1.2-2.2-1.1-4.3-2.2-6.5-3.3-2.4-1.3-4.7-2.7-7-4.1-.5-.3-1-.7-1.5-1-.2-.2-.5-.3-.7-.5-.2-.1-1.1-.9-.4-.3-.9-.7-1.8-1.4-2.6-2.2l-1-1c-.1-.1-.1-.2-.2-.3-.3-.3 0 .1.2.3-.2-.1-.3-.5-.4-.6-.1-.2-.2-.3-.3-.5-.4-.7.2 0 .1.2 0 0-.1-.4-.2-.5-.1-.7 0 .2 0 .2.1-.4.2-1.3-.1-.1.1-.8.1.2-.1.2 0 0 .3-.4.3-.5 0 .2-.5.5-.1.1.1-.1.6-.5.2-.2-.5.3.2-.1.3-.2.2-.1.5-.3.7-.4.1-.1.2-.1.4-.2.6-.3-.4.1 0 0l.9-.3c.7-.2 1.5-.4 2.2-.5-.9-.2-1.9-.5-2.8-.7 1.9 2.1 3 4.1 3.5 6.8.1.5 0-.1.1.4 0 .3 0 .6.1.9 0 .7 0 1.4-.1 2.1 0 .1-.1.9 0 .4 0 .3-.1.6-.2.9-.1.7-.3 1.3-.5 2-.8 2.8-1.8 4.9-3.2 7.5-1.4 2.6-2.9 5.1-4.4 7.6-1.4 2.2-2.7 4.4-3.9 6.7-1.6 3.2-3 6.6-4.4 10-3.2 7.6-6.3 15.3-9.1 23-3.2 8.6-6.1 17.3-8.9 26.1-.5 1.7.6 3.6 2.3 4.1 1.7.5 3.5-.6 4.1-2.3 4.5-15.1 9.8-30 15.7-44.5 2.4-5.9 4.7-11.8 7.9-17.3 2.9-4.9 6-9.7 8.2-15 2.1-5.1 3.3-10.9 1.5-16.2-.5-1.4-1.1-2.7-1.8-3.9-.9-1.4-2.3-3.7-4-4.1-1.2-.3-2.9.2-4.1.6-1 .3-2 .7-3 1.1-.3.1-.6.3-.9.5-.4.2-1.2 1-.4.2-.3.2-.6.4-.8.7-.6.5-1 1.1-1.4 1.8-.8 1.6-.8 3.4-.2 5 1.3 3.4 4.4 5.9 7.3 8.1 5.7 4.3 12.2 7.7 18.7 10.6.7.3 1.3.6 2 .8.1 0 .2.1.3.1.7.3-.7-.3 0 0 .5.2 1 .5 1.6.7 2.5 1.1 4.9 2.2 7.4 3.3 4.3 1.7 10.3 4.1 14.8 1.6 2.1-1.2 4.4-3.3 5-5.7.6-2.6-.7-4.8-2.8-6.2-3.1-2.1-7.9-2.8-11.6-2.6-8.5.6-15.1 7.6-19.8 14-6 8-10.4 17.1-14.5 26.2-2.1 4.7-4.1 9.4-6 14.1-.8 2-1.7 4.1-2.5 6.1 0 .1-.4.9-.1.2-.1.2-.2.4-.3.7-.2.4-.4.9-.6 1.3l-1.2 2.7c-.6 1.4-1.3 2.8-2 4.2-.8 1.5-.4 3.3 1.1 4.2 1.2.3 3.3-.1 4-1.6z"/></g><g><path class="st3" d="M384.9 338.8c-6.3-3.1-21.1-11.3-29.2-28.1-8.1-16.9-11.2-46.3 8.6-60.6 16.1-11.6 39.1-7.5 52.8.2 22.2 12.4 28.5 38.7 24.2 58-1.9 8.8-5.9 15.6-9 19.9-.9 8.1-2.3 17-4.4 26.6-1.6 7.3-3.5 14.1-5.5 20.3-6.2 1.5-12.5 3-18.7 4.4-3.6-3.5-8.3-8.8-12.1-16.1-5.1-9.9-6.3-19-6.7-24.6z"/><path class="st5" d="M426.7 360.3c3.9 5.5 4.1 9.5 3.4 12.3-1 3.8-3.5 4.1-7.4 9.9-4.7 7.1-4.4 11.7-7 12-2.3.3-3.1-3.2-8.2-7.1-5.8-4.4-9.2-3.3-12.6-6.3-2.6-2.3-5.1-7-3.2-17.7 5.4-2 13.5-4.2 23.3-4.2 4.4 0 8.4.5 11.7 1.1z"/><path d="M418.3 361.4c-.9-5.2-2.3-10.4-3.6-15.6-1.7-6.7-3.4-13.4-4.8-20.2-.8-3.6-1.5-7.2-2.1-10.8-.6-3.7-1-6.1-1.3-9.8-.3-3.2-.5-6.5-.4-9.7 0-1.5.1-2.9.3-4.4 0-.2 0-.3.1-.5-.1.7 0 .3 0 .1.1-.3.1-.6.2-1 .1-.7.3-1.4.4-2.1.3-1.2.7-2.4 1.1-3.6-.3.7 0 .1.1-.2.1-.2.2-.5.4-.7l.9-1.5c.2-.3.7-.7.1-.1.1-.1.2-.3.4-.4.4-.4.7-.7 1.1-1 .6-.5-.3.2.1-.1.2-.2.4-.3.7-.5.5-.4 1.1-.7 1.6-1 .2-.1.5-.3.7-.4.2-.1 1-.4.2-.1.5-.2 1-.4 1.6-.5.1 0 .3-.1.4-.1.5-.1-.4.1-.4 0 .1-.1.5 0 .6 0 .4-.1-.8-.2-.1 0 .7.2-.6-.3-.1 0 .3.2-.6-.5-.3-.3.3.3-.1.1 0-.1 0-.1-.3-.4-.1 0 .2.4-.4-.8-.1-.3 0 .1 0 .2.1.3 0-.1 0-.8-.1-.3v1c0 .5.1-.6 0-.1 0 .2-.1.4-.1.6-.1.3-.4.9-.3 1.2 0 .3.4-.5.1-.2-.1.1-.2.3-.2.4-.1.2-.4.3.1-.2-.1.1-.2.3-.4.4-.1.1-.8.7-.4.4.4-.3-.5.3-.6.4-.7.4-1.4.8-2.1 1.1-.5.2.5-.2 0 0-.2.1-.4.1-.5.2-.4.1-.7.3-1.1.4-.8.3-1.6.5-2.5.8-2.9.8-5.9 1.4-8.9 2.2-3.7 1-7.4 1.7-11.2 2.3-.3 0-.6.1-.9.1-.3 0-1.2.2-.2 0-.7.1-1.3.2-2 .2-1.2.1-2.5.2-3.7.3-1.1.1-2.3.1-3.4 0-.5 0-1.1 0-1.6-.1-.2 0-.5-.1-.7-.1-.5 0 .9.2-.1 0-.5-.1-.9-.2-1.4-.3-.2-.1-.4-.1-.6-.2-.1 0-.9-.3-.3-.1.6.2 0 0-.2-.1-.1-.1-.3-.2-.4-.3-.5-.3.5.6.2.1l-.4-.4s.5.8.2.2c-.3-.6.1.3.1.3 0-.1-.1-.4-.1-.4.2.3 0 .9 0 .2 0-.2.1-.9 0-.2s0-.1 0-.2c.1-.5.3-.9.4-1.4.1-.5-.1.1-.1.2.6-1.5.3-.7.2-.4.2-.3.3-.6.5-.9.2-.3.3-.6.5-.8.1-.1.2-.3.3-.4.3-.4-.4.5.1-.2-.9.2-1.9.5-2.8.7.6.1 1.3.3 1.9.5.3.1.7.2 1 .4-.5-.2.3.2.5.2l1.5.9c.1.1.3.2.4.3 0 0-.4-.3-.1-.1.3.2.6.5.8.7l1.2 1.2c.1.1.2.2.2.3.3.3-.3-.4 0 0 .2.3.4.5.6.8.7 1.1 1.3 2.2 1.8 3.4.1.3 0-.1 0-.1.1.2.1.3.2.5l.3.9c.2.6.4 1.3.6 1.9.4 1.3.7 2.7 1 4.1.3 1.4.5 2.8.7 4.2 0 .3.1.7.1 1v-.1a7165183131591494 7165183131591494 0 0 1 3.1 19.9c2.1 9.1 4.5 18.1 7.1 27 2.9 10.1 6.1 20.2 9.5 30.1.6 1.7 2.3 2.8 4.1 2.3 1.6-.4 2.9-2.4 2.3-4.1-6.5-18.1-12-36.5-16.6-55.2-.8-3.2-1.6-6.3-2.1-9.5 0-.3-.1-.7-.1-1-.1-.5.1.4 0-.3l-.3-2.1c-.2-1.4-.3-2.7-.5-4.1-.7-5.9-1.5-11.9-3.9-17.4-2.5-6.1-7.1-10.9-13.8-12.2-.9-.2-2.2-.1-2.8.7-.2.2-.4.5-.6.7-.8.9.2-.2-.2.2-.3.4-.7.8-1 1.3-.4.5-.8 1.1-1.1 1.7-.8 1.3-1.3 2.6-1.4 4.1-.2 2.5 1.2 4.8 3.2 6.1 2 1.3 4.5 1.7 6.8 2 2.5.3 5 .2 7.5 0 5.1-.4 10.1-1.2 15-2.4 5.7-1.4 11.7-2.5 17.1-5 3.4-1.6 6-4 6.7-7.7.7-3.5.1-7.6-3.9-8.7-2.8-.8-6 .6-8.4 2-2.3 1.4-4.4 3.1-5.9 5.3-3.4 5-4.2 11.6-4.3 17.4-.1 7.5.9 15 2.2 22.3 2.5 14 6.6 27.6 9.7 41.5.3 1.1.5 2.3.7 3.4.3 1.6 2.3 2.6 3.8 2.1 1.8.1 2.5-1.6 2.2-3.2z"/></g></svg>