<svg width="1382" height="330" fill="none" xmlns="http://www.w3.org/2000/svg"><path d="M1364 0H16C7.163 0 0 7.163 0 16v293c0 8.837 7.163 16 16 16h1348c8.84 0 16-7.163 16-16V16c0-8.837-7.16-16-16-16z" fill="#D9EEED"/><path d="M1362.38 176.39h-75.02v141.82h75.02V176.39z" fill="#375A64"/><path d="M1340.11 176.39h-75.02v141.82h75.02V176.39z" fill="#F5F5F5"/><path d="M1334.56 205.58h-64.39V183.1h64.39v22.48zm-63.6-.79h62.81v-20.9h-62.81v20.9z" fill="#375A64"/><path d="M1290.61 183.5h24.44v.86a3.616 3.616 0 0 1-3.62 3.62h-17.19a3.622 3.622 0 0 1-3.62-3.62v-.86h-.01zm43.95 50.63h-64.39v-22.48h64.39v22.48zm-63.6-.79h62.81v-20.89h-62.81v20.89z" fill="#375A64"/><path d="M1290.61 212.05h24.44v.86a3.616 3.616 0 0 1-3.62 3.62h-17.19a3.622 3.622 0 0 1-3.62-3.62v-.86h-.01zm43.95 50.64h-64.39v-22.48h64.39v22.48zm-63.6-.79h62.81V241h-62.81v20.9z" fill="#375A64"/><path d="M1290.61 240.61h24.44v.86a3.616 3.616 0 0 1-3.62 3.62h-17.19a3.622 3.622 0 0 1-3.62-3.62v-.86h-.01zm43.95 50.67h-64.39v-22.51h64.39v22.51zm-63.6-.79h62.81v-20.9h-62.81v20.9z" fill="#375A64"/><path d="M1290.61 269.16h24.44v.84a3.616 3.616 0 0 1-3.62 3.62h-17.19a3.622 3.622 0 0 1-3.62-3.62v-.86l-.01.02z" fill="#375A64"/><path d="M1343.26 171.08h-81.49v7.06h81.49v-7.06z" fill="#52838E"/><path d="M1367.75 171.08h-24.5v7.06h24.5v-7.06zm-98.72 147.13h-3.94v7.24h3.94v-7.24zm24.36 0h-3.94v7.24h3.94v-7.24zm44.5 0h-3.94v7.24h3.94v-7.24zm22.25 0h-3.94v7.24h3.94v-7.24z" fill="#375A64"/><path d="M144.26 119.48a2.485 2.485 0 0 1 1.53 1.67c.65 2.37 1.77 7.4.07 8.45-.78.48-11.4.89-12.6.4-1.2-.49-7.08.58-7.08.58l-1-6.64 15.8-5.7 3.28 1.24z" fill="#FFCEB0"/><path d="M170.97 140.52H154.5a17.108 17.108 0 0 1-16.696-17.105A17.108 17.108 0 0 1 154.5 106.31h16.47v7H154.5a10.095 10.095 0 0 0-7.353 2.845 10.116 10.116 0 0 0-3.075 7.26A10.112 10.112 0 0 0 154.5 133.52h16.47v7z" fill="#1A2E35"/><path d="M125.18 120.19l4.33-1.14s1.72-4.78 4.26-5.23c2.54-.45 12.35 2.55 12.35 2.55s-.91 1.83-5.3 1.61l-2.73.26s.22 2.35-3.33 5c0 0-8.14 2.64-8.52 2.84-.38.2-1.06-5.89-1.06-5.89z" fill="#FFCEB0"/><path d="M145.08 120.05c-2.19.39-4.8.48-6.27 1-.378.133-.72.352-1 .64a1.082 1.082 0 0 0-.24 1.14c.23.5.89.63 1.45.67 1.175.072 2.354.028 3.52-.13a13.38 13.38 0 0 0-3.66.73c-.432.154-.82.412-1.13.75a1.277 1.277 0 0 0-.22 1.28c.31.65 1.17.76 1.89.75a29.52 29.52 0 0 0 3.86-.32c-1.15.2-2.29.46-3.41.77a1.548 1.548 0 0 0-1.08.66 1.12 1.12 0 0 0 .55 1.38 3.355 3.355 0 0 0 1.61.27c1.88 0 2.75 0 5-.08" fill="#FFCEB0"/><path d="M136.06 127.84a10.033 10.033 0 0 1-.09-1.53 6.738 6.738 0 0 0-1.28-3.37l-.23-.3.32-.22a7.5 7.5 0 0 0 .75-.58 6.522 6.522 0 0 0 2.29-3.53c.18-1.07-.22-1.72-.1-1.78.12-.06.67.55.61 1.84a6.221 6.221 0 0 1-2.32 4 9.99 9.99 0 0 1-.84.63l.09-.51a6.19 6.19 0 0 1 1.18 3.78c-.04 1.01-.3 1.59-.38 1.57zm10.66-1.78c0 .2-1.39.55-3.12.77-1.73.22-3.15.25-3.18 0-.03-.25 1.37-.54 3.12-.77 1.75-.23 3.17-.2 3.18 0zm-.47-3.04c0 .19-1.43.53-3.25.75-1.82.22-3.31.24-3.34.05-.03-.19 1.43-.54 3.25-.76 1.82-.22 3.31-.24 3.34-.04z" fill="#FF9A6C"/><path d="M245.11 111.77a7.531 7.531 0 0 0-2.65-1c-1.82-.29-4.51.26-7.43 1.83a29.013 29.013 0 0 1-5.05 2.19 9.928 9.928 0 0 1-3.11.37 13.297 13.297 0 0 1-3.25-.64 59.022 59.022 0 0 1-6.34-2.86 13.485 13.485 0 0 0-6.94-1.63 17.7 17.7 0 0 0-6.76 2.49 32.543 32.543 0 0 1-6.32 3 9.51 9.51 0 0 1-6.36-.25 48.188 48.188 0 0 1-4.86-2.56 8.93 8.93 0 0 0-7.39-1.13 5.059 5.059 0 0 0-2.2 1.71c.077-.241.2-.465.36-.66a3.88 3.88 0 0 1 1.75-1.35c1.75-.81 4.8-.76 7.78.91a50.676 50.676 0 0 0 4.83 2.44 8.832 8.832 0 0 0 5.91.17 32.766 32.766 0 0 0 6.15-3 18.351 18.351 0 0 1 7.07-2.6 14.226 14.226 0 0 1 7.34 1.72 63.827 63.827 0 0 0 6.24 2.87 9.872 9.872 0 0 0 6 .33 29.878 29.878 0 0 0 5-2.05c3-1.53 5.85-2 7.73-1.63.717.123 1.4.399 2 .81.193.146.362.321.5.52zm1.15 10.97a7.304 7.304 0 0 0-2.65-1c-1.81-.29-4.5.26-7.42 1.83a28.575 28.575 0 0 1-5 2.19 9.994 9.994 0 0 1-3.12.37 13.218 13.218 0 0 1-3.24-.64 59.266 59.266 0 0 1-6.35-2.86 13.448 13.448 0 0 0-6.93-1.63 17.7 17.7 0 0 0-6.76 2.49 32.978 32.978 0 0 1-6.33 3 9.482 9.482 0 0 1-6.35-.26 46.213 46.213 0 0 1-4.86-2.56 8.93 8.93 0 0 0-7.39-1.13 4.998 4.998 0 0 0-2.2 1.72c.07-.247.193-.475.36-.67a3.885 3.885 0 0 1 1.72-1.34c1.75-.8 4.8-.76 7.77.92a53.097 53.097 0 0 0 4.84 2.43 8.803 8.803 0 0 0 5.9.17 32.79 32.79 0 0 0 6.16-3 18.351 18.351 0 0 1 7.07-2.6 14.248 14.248 0 0 1 7.34 1.72 60.637 60.637 0 0 0 6.24 2.87 9.872 9.872 0 0 0 6 .33 29.096 29.096 0 0 0 5-2c3-1.53 5.84-2 7.72-1.63a5.197 5.197 0 0 1 2 .81c.32.26.5.46.48.47zm-.53 11.43a7.304 7.304 0 0 0-2.65-1c-1.81-.29-4.5.26-7.42 1.83a29.324 29.324 0 0 1-5 2.19 10.303 10.303 0 0 1-3.12.37 13.21 13.21 0 0 1-3.24-.64 59.266 59.266 0 0 1-6.35-2.86 13.429 13.429 0 0 0-6.93-1.63 17.7 17.7 0 0 0-6.76 2.49 32.368 32.368 0 0 1-6.33 3 9.421 9.421 0 0 1-6.35-.26 45.209 45.209 0 0 1-4.86-2.55 8.935 8.935 0 0 0-7.39-1.13 5.059 5.059 0 0 0-2.2 1.71c.072-.243.194-.468.36-.66a3.874 3.874 0 0 1 1.72-1.34c1.75-.81 4.8-.76 7.77.91a50.843 50.843 0 0 0 4.84 2.44 8.803 8.803 0 0 0 5.9.17 32.578 32.578 0 0 0 6.16-3 18.345 18.345 0 0 1 7.07-2.6 14.248 14.248 0 0 1 7.34 1.72 62.692 62.692 0 0 0 6.24 2.87 9.872 9.872 0 0 0 6 .33 29.878 29.878 0 0 0 5-2.05c3-1.53 5.85-2 7.72-1.63.718.121 1.4.398 2 .81.31.3.5.5.48.51z" fill="#1A2E35"/><path d="M170.94 106.34h-4.15v6.92h4.15v-6.92zm0 27.18h-4.15v6.92h4.15v-6.92z" fill="#2C5560"/><path d="M401.542 37.498l-8.97 19.968 29.619 13.305 8.97-19.968-29.619-13.305z" fill="#fff"/><path d="M431.14 50.79a1.367 1.367 0 0 1-.37.16l-1.1.4-4.11 1.41-13.6 4.57h-.12l-.07-.11-.47-.91c-2.73-5.18-5.19-9.87-7-13.31l-2.09-4c-.23-.45-.41-.82-.55-1.1a2.742 2.742 0 0 1-.17-.4c.087.117.164.24.23.37l.6 1.08 2.18 4c1.82 3.42 4.31 8.1 7.07 13.26l.47.91-.19-.08 13.71-4.49 4.07-1.27 1.12-.34.39-.15z" fill="#E1E1E1"/><path d="M392.56 57.62c0-.08 3.45-1.87 7.8-4s7.91-3.78 7.95-3.69c.04.09-3.45 1.87-7.8 4s-7.95 3.78-7.95 3.69zm29.62 13.14a15.363 15.363 0 0 1-.75-2.22c-.42-1.39-1-3.3-1.57-5.42-.57-2.12-1.12-4.06-1.48-5.46-.18-.7-.32-1.27-.41-1.67a2.64 2.64 0 0 1-.11-.63c.3.718.547 1.457.74 2.21.42 1.38 1 3.3 1.58 5.43.58 2.13 1.12 4.06 1.48 5.47.18.7.32 1.27.41 1.66.063.205.1.416.11.63z" fill="#E1E1E1"/><path d="M386.64 92.28c-.94 2.9-2.57 4.26-4.33 3.69a1.913 1.913 0 0 1-1.21-.954 1.927 1.927 0 0 1-.12-1.536 4 4 0 0 1-4 .76 4.643 4.643 0 0 1-2.802-5.782 4.643 4.643 0 0 1 5.662-3.038 3.998 3.998 0 0 1 2.8 2.89l.56-1.72 1.11.36-2.1 6.47c-.31 1 .06 1.45.64 1.64 1.06.35 2.17-.75 2.91-3 1.31-4-.72-7.62-4.85-9s-7.94.52-9.25 4.57a6.92 6.92 0 0 0 .333 5.622 6.937 6.937 0 0 0 4.397 3.518 8 8 0 0 0 3.52.31v.93a8.69 8.69 0 0 1-3.82-.37c-4.7-1.52-6.86-5.79-5.39-10.32 1.47-4.53 5.76-6.66 10.47-5.13 4.71 1.53 6.92 5.6 5.47 10.09zm-4.84-1.37a3.434 3.434 0 0 0-.207-2.61 3.434 3.434 0 0 0-1.993-1.7 3.423 3.423 0 0 0-4.31 2.2 3.423 3.423 0 0 0 .074 2.734 3.423 3.423 0 0 0 2.05 1.81 3.431 3.431 0 0 0 4.386-2.434z" fill="#06BE9E"/><path d="M257.72 71.08c.18 2.37-.59 3.83-2 3.94a1.492 1.492 0 0 1-1.7-1.39 3.1 3.1 0 0 1-2.67 1.73 3.611 3.611 0 0 1-2.893-5.89 3.609 3.609 0 0 1 2.343-1.3 3.12 3.12 0 0 1 2.87 1.25l-.11-1.41.91-.07.41 5.28c.06.78.47 1 .94 1 .87-.07 1.34-1.19 1.19-3.07-.25-3.27-2.77-5.27-6.14-5a5.624 5.624 0 0 0-4.989 3.823 5.614 5.614 0 0 0 1.676 6.058 5.624 5.624 0 0 0 4.123 1.329 6.092 6.092 0 0 0 2.62-.83l.29.67a6.858 6.858 0 0 1-2.86.87 6.338 6.338 0 0 1-6.987-5.845 6.35 6.35 0 0 1 1.594-4.683 6.345 6.345 0 0 1 4.473-2.112c3.75-.29 6.63 2 6.91 5.65zm-3.89.46a2.669 2.669 0 0 0-4.723-1.342 2.673 2.673 0 0 0-.286 2.928 2.67 2.67 0 0 0 2.579 1.414 2.6 2.6 0 0 0 2.43-3z" fill="#1A2E35"/><path d="M303.79 236.61c-1.05 2.56-2.63 3.68-4.18 3a1.748 1.748 0 0 1-1.013-.956 1.748 1.748 0 0 1 .013-1.394 3.648 3.648 0 0 1-1.795.709 3.649 3.649 0 0 1-1.905-.309 4.218 4.218 0 0 1-2.067-5.408 4.217 4.217 0 0 1 5.277-2.382 3.666 3.666 0 0 1 2.34 2.82l.62-1.52 1 .4-2.36 5.72c-.35.85-.05 1.32.46 1.53.94.39 2-.52 2.86-2.56 1.46-3.55-.12-7-3.77-8.46-3.65-1.46-7.24-.08-8.72 3.49a6.324 6.324 0 0 0 1.42 7.266 6.314 6.314 0 0 0 2.24 1.354 7.139 7.139 0 0 0 3.17.53v.85a8 8 0 0 1-3.44-.61 7.176 7.176 0 0 1-4.229-3.946 7.16 7.16 0 0 1 .059-5.784c1.66-4 5.7-5.63 9.86-3.92 4.16 1.71 5.79 5.62 4.16 9.58zm-4.29-1.58a3.115 3.115 0 0 0-2.441-4.119 3.123 3.123 0 0 0-3.62 3.134 3.116 3.116 0 0 0 1.941 2.835 2.994 2.994 0 0 0 2.48.01 2.998 2.998 0 0 0 1.64-1.86z" fill="#06BE9E"/><path d="M358.71 225.28c-1.06 2.57-2.63 3.68-4.18 3a1.74 1.74 0 0 1-1.013-.951 1.734 1.734 0 0 1 .013-1.389 3.663 3.663 0 0 1-3.7.4 4.223 4.223 0 0 1-2.068-5.408 4.219 4.219 0 0 1 5.278-2.382 3.626 3.626 0 0 1 2.33 2.81l.63-1.52 1 .4-2.44 5.79c-.35.84-.05 1.32.46 1.53.94.38 2-.53 2.86-2.57 1.46-3.55-.12-7-3.78-8.46a6.557 6.557 0 0 0-5.144-.161 6.562 6.562 0 0 0-4.187 6.173 6.566 6.566 0 0 0 4.281 6.108 7.106 7.106 0 0 0 3.17.52l-.05.85a7.995 7.995 0 0 1-3.44-.6 7.168 7.168 0 0 1-4.234-3.944 7.152 7.152 0 0 1 .064-5.786c1.65-4 5.69-5.64 9.86-3.93 4.17 1.71 5.92 5.58 4.29 9.52zm-4.3-1.58a3.111 3.111 0 1 0-5.75-2.36 3.101 3.101 0 0 0 .617 3.475 3.109 3.109 0 0 0 5.133-1.115z" fill="#375A64"/><path d="M432.81 125.52c-1.17 2.85-2.91 4.09-4.64 3.38a1.922 1.922 0 0 1-1.14-2.6 3.994 3.994 0 0 1-4.1.44 4.68 4.68 0 0 1 3.56-8.64 4.068 4.068 0 0 1 2.59 3.13l.69-1.69 1.09.44-2.61 6.35c-.38.94-.05 1.46.51 1.7 1 .42 2.24-.59 3.17-2.85 1.62-3.93-.13-7.71-4.18-9.38-4.05-1.67-8-.09-9.66 3.88a7.006 7.006 0 0 0 1.565 8.059 7.003 7.003 0 0 0 2.485 1.501 8.057 8.057 0 0 0 3.52.58l-.06.94a8.893 8.893 0 0 1-3.81-.67c-4.61-1.9-6.45-6.36-4.62-10.79 1.83-4.43 6.31-6.25 10.93-4.35 4.62 1.9 6.52 6.19 4.71 10.57zm-4.76-1.74a3.46 3.46 0 1 0-4.57 2 3.366 3.366 0 0 0 3.861-.8c.317-.346.559-.755.709-1.2z" fill="#1A2E35"/><path d="M285.1 141.68c.93 2.41.59 4.17-.87 4.73a1.622 1.622 0 0 1-1.303.015 1.639 1.639 0 0 1-.897-.945 3.382 3.382 0 0 1-2.231 2.64 3.918 3.918 0 0 1-4.891-5.23 3.922 3.922 0 0 1 2.072-2.08 3.368 3.368 0 0 1 3.37.41l-.551-1.43.921-.36 2.07 5.37c.31.79.82.92 1.3.74.87-.34 1-1.65.28-3.56-1.28-3.33-4.531-4.61-7.951-3.29a6.096 6.096 0 0 0-2.412 9.981 6.12 6.12 0 0 0 1.99 1.384 6.114 6.114 0 0 0 4.753.035 6.648 6.648 0 0 0 2.48-1.67l.509.6a7.385 7.385 0 0 1-2.709 1.8 6.642 6.642 0 0 1-5.359.031 6.65 6.65 0 0 1-3.641-3.931c-1.46-3.77.229-7.45 4.139-9 3.91-1.55 7.501.05 8.931 3.76zm-3.9 1.69a2.906 2.906 0 0 0-2.693-1.719 2.893 2.893 0 0 0-2.64 1.8 2.9 2.9 0 0 0 3.742 3.799 2.817 2.817 0 0 0 1.591-3.88z" fill="#06BE9E"/><path d="M258.573 192.101l-26.421 11.182 7.538 17.81 26.421-11.182-7.538-17.81z" fill="#1A2E35"/><path d="M266.12 209.88s-.06-.11-.15-.32c-.09-.21-.24-.54-.41-.94l-1.55-3.58c-1.32-3.1-3.22-7.53-5.53-12.92l.14.06-26.41 11.21s.14-.35.08-.18v.07l.06.15.13.3.25.59c.16.39.33.79.5 1.18l1 2.33 1.93 4.56 3.61 8.56-.16-.07 19-8 5.46-2.27 1.46-.6.38-.16.13-.05-.11.06-.37.16-1.42.62-5.41 2.33-19.06 8.14-.12.05v-.12l-3.63-8.56c-.667-1.493-1.31-3.01-1.93-4.55l-1-2.33c-.17-.39-.33-.79-.5-1.18l-.25-.59-.13-.3-.06-.15v-.07c-.07.16.09-.23.07-.19l26.44-11.15h.1v.1l5.46 13c.63 1.54 1.13 2.74 1.48 3.58l.38.93c.11.2.14.3.14.3z" fill="#1A2E35"/><path d="M258.56 192.07a1.362 1.362 0 0 1-.12.34c-.11.24-.24.56-.41 1-.37.85-.89 2-1.54 3.49-1.33 3-3.17 7-5.21 11.56l-.05.11h-.11l-.87-.24-12.82-3.47-3.87-1.17-1-.3a1.936 1.936 0 0 1-.36-.13l.37.07 1.07.26 3.9 1 12.84 3.39.87.24-.16.07 5.29-11.52c.67-1.44 1.22-2.61 1.62-3.45l.45-.93a1.89 1.89 0 0 1 .11-.32z" fill="#375A64"/><path d="M239.78 221.2a70.527 70.527 0 0 1 2-7.47 69.813 69.813 0 0 1 2.45-7.35 68.306 68.306 0 0 1-2 7.47 68.828 68.828 0 0 1-2.45 7.35zm26.34-11.32a9.448 9.448 0 0 1-1.91-.81c-1.15-.54-2.73-1.33-4.46-2.22-1.73-.89-3.29-1.72-4.41-2.34a10.153 10.153 0 0 1-1.79-1.09c.655.207 1.288.478 1.89.81 1.16.54 2.74 1.33 4.48 2.22 1.74.89 3.3 1.73 4.43 2.35.625.298 1.219.66 1.77 1.08z" fill="#375A64"/><path d="M283.327 22.37l-.428 31.817 47.206.634.428-31.817-47.206-.634z" fill="#06BE9E"/><path d="M330.56 23.01a2.666 2.666 0 0 1-.41.42l-1.24 1.17-4.62 4.23-15.5 14-.14.13-.16-.13-1.16-.92c-6.62-5.35-12.62-10.18-17-13.72l-5.12-4.2-1.38-1.16a3.5 3.5 0 0 1-.46-.43 3.2 3.2 0 0 1 .52.36l1.43 1.09 5.24 4.05c4.42 3.51 10.44 8.31 17.1 13.62l1.16.92h-.3c6.11-5.43 11.59-10.3 15.6-13.85l4.72-4.13 1.29-1.1c.132-.13.276-.247.43-.35z" fill="#1A2E35"/><path d="M282.92 54.19c-.09-.08 3.63-4.37 8.3-9.57 4.67-5.2 8.54-9.37 8.63-9.29.09.08-3.63 4.37-8.31 9.57-4.68 5.2-8.53 9.38-8.62 9.29zm47.2.63a3.353 3.353 0 0 1-.61-.66c-.38-.44-.91-1.09-1.56-1.9-1.3-1.62-3.07-3.87-5-6.37-1.93-2.5-3.67-4.79-4.92-6.46l-1.45-2a4.04 4.04 0 0 1-.5-.78c.231.19.436.408.61.65l1.55 1.9c1.3 1.62 3.08 3.88 5 6.39s3.68 4.8 4.93 6.47c.62.83 1.11 1.51 1.45 2 .199.23.367.486.5.76z" fill="#1A2E35"/><path d="M333.861 270.406l-2.488 32.254 47.848 3.69 2.487-32.254-47.847-3.69z" fill="#375A64"/><path d="M381.72 274.1c-.138.146-.289.28-.45.4l-1.33 1.11-5 4-16.62 13.17-.15.12-.15-.13-1.12-1-16.37-15-4.93-4.59-1.32-1.27a3.358 3.358 0 0 1-.44-.46c.181.11.349.24.5.39l1.38 1.2 5 4.48 16.47 14.92 1.11 1h-.3l16.71-13.05 5.06-3.88 1.39-1a2.11 2.11 0 0 1 .56-.41z" fill="#1A2E35"/><path d="M331.41 302.92c-.09-.09 3.89-4.31 8.87-9.44 4.98-5.13 9.1-9.21 9.19-9.13.09.08-3.91 4.31-8.91 9.43s-9.07 9.22-9.15 9.14zm47.82 3.43a4.13 4.13 0 0 1-.61-.71l-1.52-2c-1.27-1.72-3-4.11-4.89-6.76a435.26 435.26 0 0 1-4.79-6.85l-1.42-2.11a4.087 4.087 0 0 1-.48-.81c.229.207.43.442.6.7l1.52 2c1.27 1.71 3 4.11 4.9 6.77 1.9 2.66 3.59 5.09 4.8 6.86l1.42 2.1c.187.251.345.522.47.81zm-25.29-135s0-.15-.08-.45l-.2-1.28c-.17-1.14-.42-2.78-.74-4.87l-2.59-17.58.16.12-35.93 5.19.15-.2v.38l.06.41.11.8c.08.54.16 1.07.23 1.6.16 1.07.31 2.12.46 3.17.3 2.1.593 4.163.88 6.19.58 4.05 1.13 7.94 1.66 11.63l-.18-.14 25.84-3.63 7.41-1 2-.27.52-.06h.18a.612.612 0 0 1-.16 0l-.5.08-1.94.3-7.35 1.1-25.93 3.8h-.16v-.16c-.53-3.69-1.1-7.58-1.68-11.63-.287-2-.583-4.063-.89-6.19-.15-1.05-.3-2.1-.46-3.17-.07-.53-.15-1.06-.23-1.6l-.11-.8-.06-.41v-.38c-.13.17.18-.25.15-.21l35.91-5.12h.14v.14c1 7.39 1.87 13.45 2.46 17.69.28 2.08.5 3.72.66 4.85.07.54.12 1 .16 1.26.04.26.05.44.05.44z" fill="#1A2E35"/><path d="M350.47 147.15c-.076.133-.163.26-.26.38-.21.26-.48.6-.81 1l-3 3.77-10.09 12.44-.1.12-.13-.08-1-.56-14.52-8.35-4.41-2.59-1.18-.71a2.461 2.461 0 0 1-.4-.27l.43.2 1.22.66 4.45 2.48 14.6 8.29 1 .57h-.23l10.18-12.38 3.09-3.69.85-1c.098-.1.201-.193.31-.28z" fill="#1A2E35"/><path d="M318.1 176.69c-.1-.06 2.12-3.85 4.95-8.45s5.22-8.28 5.32-8.22c.1.06-2.11 3.85-4.95 8.45-2.84 4.6-5.22 8.28-5.32 8.22zm35.84-5.34a15.106 15.106 0 0 1-2.05-1.63c-1.22-1.05-2.89-2.53-4.72-4.17-1.83-1.64-3.47-3.16-4.65-4.27a16.268 16.268 0 0 1-1.86-1.88c.71.488 1.379 1.033 2 1.63 1.23 1.05 2.9 2.52 4.74 4.18 1.84 1.66 3.49 3.16 4.66 4.28.676.568 1.305 1.19 1.88 1.86zm58.49 52.22l.21-.4.64-1.13 2.44-4.28c2.13-3.69 5.16-9 8.86-15.4l.05.19-31.37-18.18.24-.06-.05.09-.11.17-.2.36-.41.7-.81 1.4-1.61 2.77c-1.07 1.83-2.11 3.63-3.14 5.4l-5.91 10.15-.06-.22 22.52 13.18 6.44 3.79 1.72 1 .44.27.16.1-.15-.07-.44-.25-1.7-1-6.46-3.69-22.7-13.1-.14-.08.09-.14c1.86-3.22 3.84-6.62 5.89-10.16l3.13-5.41 1.61-2.77.81-1.4.41-.7.21-.35.1-.18.05-.09c-.22.05.3-.08.25-.07l31.34 18.27.12.07-.07.12-9 15.4-2.49 4.22-.66 1.09-.25.39z" fill="#1A2E35"/><path d="M424.7 202.43a1.708 1.708 0 0 1-.43.13l-1.27.32-4.69 1.09-15.64 3.5h-.14l-.06-.14-.43-1.06c-2.42-6.08-4.61-11.57-6.22-15.6-.76-2-1.39-3.58-1.84-4.74-.2-.53-.37-1-.49-1.29a2.426 2.426 0 0 1-.15-.47c.091.137.165.285.22.44.14.32.32.74.54 1.27l2 4.7 6.31 15.56c.15.36.29.72.43 1l-.2-.1 15.65-3.4 4.72-1 1.28-.24c.137-.003.274.007.41.03z" fill="#1A2E35"/><path d="M381 205.54c0-.11 4-1.71 9.12-3.56 5.12-1.85 9.23-3.26 9.27-3.15.04.11-4 1.7-9.12 3.55-5.12 1.85-9.23 3.27-9.27 3.16zm31.43 18.03a15.691 15.691 0 0 1-.59-2.55c-.31-1.59-.71-3.78-1.13-6.2-.42-2.42-.76-4.63-1-6.24a16.124 16.124 0 0 1-.29-2.62c.258.827.452 1.673.58 2.53.31 1.59.71 3.79 1.13 6.22.42 2.43.77 4.65 1 6.25.167.861.267 1.734.3 2.61z" fill="#1A2E35"/><path d="M330.952 80.135l-28.459 14.009 9.443 19.182 28.459-14.01-9.443-19.181z" fill="#06BE9E"/><path d="M330.56 80.02c-.025.13-.062.257-.11.38l-.39 1.07-1.48 4c-1.29 3.36-3.05 8-5 13.08v.12h-.13l-1-.21-14.37-3-4.35-1-1.18-.28a1.633 1.633 0 0 1-.4-.11c.14-.01.281-.01.42 0l1.19.22 4.36.85 14.39 2.94 1 .2-.18.1 5.11-13c.65-1.63 1.19-3 1.57-3.91l.44-1.05c.019-.138.056-.272.11-.4z" fill="#1A2E35"/><path d="M311.56 113.21a80.18 80.18 0 0 1 1.2-8.29c.79-4.56 1.52-8.24 1.63-8.22a80.991 80.991 0 0 1-1.2 8.29 79.788 79.788 0 0 1-1.63 8.22zm14.56-22.2a76.252 76.252 0 0 1 7 3.91 73.23 73.23 0 0 1 6.81 4.28 77.815 77.815 0 0 1-7-3.91 75.902 75.902 0 0 1-6.81-4.28z" fill="#1A2E35"/><path d="M281.71 280.56h-31.72v21.38h31.72v-21.38z" fill="#375A64"/><path d="M281.71 280.56a1.727 1.727 0 0 1-.27.29l-.82.8-3.06 2.88-10.29 9.52-.09.09-.11-.08-.78-.61-11.56-9.06-3.48-2.78-.93-.76a2.2 2.2 0 0 1-.32-.29l.35.24 1 .72 3.54 2.7 11.61 9 .78.62h-.2l10.35-9.45 3.14-2.82.86-.75a1.5 1.5 0 0 1 .28-.26zM250 301.94a78.539 78.539 0 0 1 4.74-6.9c2.71-3.74 5-6.72 5.08-6.65a78.539 78.539 0 0 1-4.74 6.9c-2.71 3.74-4.99 6.72-5.08 6.65z" fill="#1A2E35"/><path d="M272.9 288.48a75.901 75.901 0 0 1 4.59 6.61 74.587 74.587 0 0 1 4.22 6.85 77.374 77.374 0 0 1-4.58-6.61 79.175 79.175 0 0 1-4.23-6.85z" fill="#1A2E35"/><path d="M64.56 311.71a24.01 24.01 0 0 0 0-4.78 23.52 23.52 0 0 0-.94-4.7l-12.6-1.42c.29 3.574-.098 7.17-1.14 10.6l4.7 5 9.98-4.7z" fill="#FFCEB0"/><path d="M48.82 310.71v1.05s-17.09 7-17.31 10.35l33.78.24-.38-11.8a18.527 18.527 0 0 1-16.09.16z" fill="#06BE9E"/><path opacity=".6" d="M61.44 314.28a1.451 1.451 0 0 1 .94 1.66 1.307 1.307 0 0 1-1.55 1 1.53 1.53 0 0 1-1-1.76 1.36 1.36 0 0 1 1.73-.85m3.71 8.02l-.09-2.84-32.34.77s-1.51.67-1.35 1.79l33.78.28z" fill="#fff"/><path d="M48.69 311.86c0 .18.82.26 1.63.82.81.56 1.24 1.3 1.39 1.23.15-.07-.09-1.07-1.08-1.73-.99-.66-1.98-.48-1.94-.32zm-3.56 1.52c0 .16.68.46 1.23 1.2.55.74.71 1.51.88 1.51.17 0 .27-1-.43-1.89-.7-.89-1.67-.99-1.68-.82zm-2.04 4.43c.15 0 .39-.82 0-1.77-.39-.95-1.19-1.34-1.26-1.2-.07.14.41.66.74 1.45.33.79.36 1.5.52 1.52z" fill="#1A2E35"/><path d="M103.06 311.16l-1.31-6.37 15.75-1.83.96 9.31-5.47 3.64-9.93-4.75z" fill="#FFCEB0"/><path d="M46.07 134.05c0 .59-5.85 21.36-5.85 21.36s-9.48 19.87-6.41 32.14c1.69 6.78 9.31 49.15 9.31 49.15s2.89 32.31 4.57 46.24c1.68 13.93 2.3 21.41 2.3 21.41l14.57-.61 3.41-62.31 1.07-48.94 19.25 61.61s4.11 19 6.35 27.08c2.24 8.08 7.27 25.1 7.27 25.1l15.65-2.41s-1.69-29.95-3.18-37.21c-1.49-7.26-6.45-33.32-6.45-33.32l-4.37-25.35-4.69-41.23-4.09-15.86-5.08-17.93-43.63 1.08z" fill="#1A2E35"/><path d="M68.72 76.93l7.47 9.61-1.69 3.96-8.8.69-9.02-1.56-5.03-1.89-3.23-8.71 1-6.88 3.52.15 15.78 4.63z" fill="#FFCEB0"/><path d="M75.7 85.75s.6 3.12-4.79 3.3c-5.39.18-19.27-3.3-19.27-3.3l-11.31 20.94 12 27.36 37.37-1.08v-6.84s3.25-2.34 3.6-9.54a31.38 31.38 0 0 0-1.74-12.24L75.7 85.75z" fill="#fff"/><path d="M71.41 74.91S81.72 76.77 83 77.44c1.28.67 6.44 6.77 8.06 11s3 14.55 3 14.55 4 6.08 4 7.1v2.7s3.06 4.91 3.06 5.41v.51l26.69-1c.793 4.893 1.58 9.78 2.36 14.66-18.71 4-25.75 6.09-27.41 7.17a4.584 4.584 0 0 1-1.83.69 4.73 4.73 0 0 1-4.6-2l6.56 42.95-4.1.67-9.17-48.8v-6.84s6.61-7.16 1-16.9c-1.93-3.38-7.57-12.51-10.63-17.08-3.06-4.57-10.62-14.47-10.62-14.47v-5.27l2.04 2.42zM50.2 70.52l-5.09.9-2.37 3s-14.36 3.81-16 6.12c-1.64 2.31 8.77 31.86 8.77 31.86l5.41 24s-8.3 23.79-9 35.53l38.47 12s1.18-40.61 0-47.91c-1.18-7.3-5.94-26-9.16-33.84-3.22-7.84-11.37-24.71-11.37-25.24 0-.53.34-6.42.34-6.42z" fill="#06BE9E"/><path opacity=".3" d="M40.32 138.9a2.89 2.89 0 0 1 1.29-1.15c3.79-2.08 8.25-2.33 12.28-3.87 3.82-1.47 7.57-4.14 11.58-3.44 1.58.28 2.36.28 3.93.58l.28 1.35c-2.44 1.35-6.63.07-8.93 1.67a25.334 25.334 0 0 0-2.13 2 12.351 12.351 0 0 1-3 1.85c-2.16 1.05-4.34 2.06-6.53 3-2.19.94-4.35 1.79-6.54 1.25a3.371 3.371 0 0 1-1.89-1.11 2.13 2.13 0 0 1-.34-2.13z" fill="#000"/><path d="M31.89 78.02c.58.24 6.91 12.81 8.38 19.14 1.47 6.33-5.58 25.47-5.58 25.47l21.7-1.52 2.11 11.24s-20 7.57-26.61 9.27c-6.61 1.7-13.23 2.78-15.14 0a15.258 15.258 0 0 1-2.35-5.72l2.94-23.62 2.79-15s.3-6.63 1.77-10.49c1.47-3.86 7.79-9.7 9.99-8.77z" fill="#06BE9E"/><path d="M88.34 134.02c.047-.173.07-.351.07-.53 0-.39.06-.89.1-1.51.09-1.36.2-3.25.34-5.56a6 6 0 0 1 .38-1.75 9.74 9.74 0 0 1 1-1.67 7.922 7.922 0 0 0 1.33-4.24 21.47 21.47 0 0 0-2.34-9.82 81.988 81.988 0 0 0-5.13-8.66c-1.62-2.6-3-5-4.29-6.94a50.445 50.445 0 0 0-3.19-4.46c-.41-.5-.74-.88-1-1.13a2.465 2.465 0 0 0-.37-.37c.09.153.193.297.31.43l.91 1.17c.78 1 1.85 2.56 3.08 4.53 1.23 1.97 2.61 4.36 4.22 7a89.233 89.233 0 0 1 5 8.6 21.318 21.318 0 0 1 2.33 9.62 7.53 7.53 0 0 1-1.2 4.07 9.445 9.445 0 0 0-1 1.74 6.577 6.577 0 0 0-.38 1.84c-.12 2.37-.17 4.26-.21 5.58v1.52c-.004.181.01.362.04.54z" fill="#1A2E35"/><path d="M71.5 89.03c.03.163.085.322.16.47.182.44.393.867.63 1.28a24.705 24.705 0 0 0 3.08 4.2 45.554 45.554 0 0 1 4.76 6 36.465 36.465 0 0 1 3.82 8.62c.48 1.62.87 3.23 1.19 4.79.356 1.483.517 3.006.48 4.53a17.06 17.06 0 0 1-1 4 12.162 12.162 0 0 0-.34 3.66c0 2.23 0 4-.07 5.28 0 .58-.05 1.06-.06 1.43a2.694 2.694 0 0 0 0 .5c.048-.16.078-.324.09-.49 0-.33.08-.81.14-1.43.1-1.25.2-3.06.19-5.29-.05-1.199.077-2.399.38-3.56a17.44 17.44 0 0 0 1.08-4.06 17.28 17.28 0 0 0-.47-4.68c-.31-1.58-.7-3.2-1.19-4.83a35.001 35.001 0 0 0-3.89-8.71 43.162 43.162 0 0 0-4.86-6 27.002 27.002 0 0 1-3.15-4.08c-.68-1.01-.91-1.65-.97-1.63zm-6.32-.84c.027.165.074.326.14.48.152.446.329.883.53 1.31a30.24 30.24 0 0 0 2.58 4.48c1.21 1.82 2.75 3.89 4.2 6.37a41.219 41.219 0 0 1 3.86 8.51 34.13 34.13 0 0 1 1.53 9.27c.12 2.9 0 5.53 0 7.74s0 4 .07 5.23c0 .62.07 1.1.1 1.42 0 .169.023.337.07.5a4.01 4.01 0 0 0 0-.5v-1.42c0-1.23 0-3 .06-5.22.06-2.22.17-4.84.06-7.77a33.862 33.862 0 0 0-1.51-9.38 40.997 40.997 0 0 0-3.93-8.59c-1.48-2.48-3-4.54-4.28-6.33-1.001-1.39-1.894-2.854-2.67-4.38-.28-.54-.47-1-.6-1.27a2.335 2.335 0 0 0-.21-.45zm-5.4-.76c.006.165.026.329.06.49.06.32.14.79.29 1.39a32.29 32.29 0 0 0 1.64 4.9c.83 2 2 4.34 3.24 6.92a58.985 58.985 0 0 1 3.55 8.59 102.418 102.418 0 0 1 3.83 16.56c.3 2.17.41 3.93.5 5.16.026.478.152.944.37 1.37.08.147.19.276.32.38 0 0-.11-.14-.25-.42a3.547 3.547 0 0 1-.28-1.34c0-1.22-.12-3-.38-5.18a93.557 93.557 0 0 0-3.69-16.69 57.86 57.86 0 0 0-3.64-8.64c-1.29-2.57-2.46-4.86-3.31-6.86a35.323 35.323 0 0 1-1.75-4.78c-.33-1.19-.46-1.85-.5-1.85zm38.29 45.85c.07 0-.07-.88-.14-2.29a24.813 24.813 0 0 1 .3-5.47c.23-1.8.797-3.54 1.67-5.13a7.123 7.123 0 0 1 1.47-1.63s-.21 0-.54.27a4.53 4.53 0 0 0-1.16 1.25 13.242 13.242 0 0 0-1.83 5.23 20.81 20.81 0 0 0-.19 5.57 8.52 8.52 0 0 0 .42 2.2zm-5.13-11.67a3.12 3.12 0 0 0 .3-.46c.252-.46.463-.942.63-1.44.58-1.877.71-3.864.38-5.8a32.91 32.91 0 0 0-2.69-8.15c-1.31-2.94-2.63-6.23-4.31-9.55a31.1 31.1 0 0 0-2.85-4.61 46.131 46.131 0 0 0-3.3-3.76 41.568 41.568 0 0 1-5-6.79c-1.34-2-2.53-3.57-3.38-4.62-.42-.52-.76-.92-1-1.18a2.208 2.208 0 0 0-.37-.39c.09.156.193.303.31.44l.9 1.24c.81 1.07 2 2.64 3.27 4.67a40.657 40.657 0 0 0 4.95 6.9 48.816 48.816 0 0 1 3.26 3.74 31.523 31.523 0 0 1 2.8 4.56c1.67 3.29 3 6.58 4.33 9.51a33.562 33.562 0 0 1 2.78 8 12.71 12.71 0 0 1-.25 5.7c-.206.681-.46 1.346-.76 1.99zm4.4 22.67a3.787 3.787 0 0 0-.1-.9c-.08-.57-.23-1.4-.42-2.42-.42-2.12-1-4.88-1.57-7.93a57.385 57.385 0 0 1-1-8c-.09-2.07 0-3.35-.07-3.36-.07.295-.11.597-.12.9a9.74 9.74 0 0 0-.07 1.06v1.4c.071 2.714.376 5.418.91 8.08.59 3.11 1.25 5.89 1.69 7.92.22.94.4 1.74.54 2.39.037.294.107.582.21.86zM43.22 74.79a5.184 5.184 0 0 0 0 .59c0 .38.06 1 .15 1.69.223 2.067.557 4.12 1 6.15a62.544 62.544 0 0 0 2.6 8.84c.62 1.62 1.33 3.29 2.14 5 .197.442.425.87.68 1.28a2.1 2.1 0 0 0 1.29.76l2.74.73.89.24-.06-.37-3.22 2.48-.16.12.12.17c3.93 5.37 7.38 10.1 9.89 13.52l3 4 .8 1c.093.126.193.247.3.36a1.838 1.838 0 0 0-.24-.4l-.75-1.1-2.86-4c-2.48-3.45-5.9-8.2-9.78-13.61v.29l3.22-2.48.34-.26-.41-.11-.89-.23-2.74-.73a1.67 1.67 0 0 1-1.08-.61 9.306 9.306 0 0 1-.64-1.22 63.88 63.88 0 0 1-2.15-4.94 65.249 65.249 0 0 1-2.66-8.77c-.59-2.55-.91-4.65-1.11-6.1-.09-.7-.16-1.26-.22-1.68-.035-.21-.1-.416-.19-.61zm-12.33 3.54c.563.023 1.122.12 1.66.29a7.74 7.74 0 0 1 3.57 2.91c.64.899 1.192 1.856 1.65 2.86a27.234 27.234 0 0 1 1.38 3.56 29.996 29.996 0 0 1 1.41 8.65c.07 3.14-.77 6-1.27 8.72-.5 2.72-1.08 5.06-1.54 7.06-.46 2-.89 3.61-1.21 4.71-.17.55-.29 1-.4 1.26-.067.142-.11.294-.13.45.079-.134.146-.274.2-.42.13-.27.28-.69.47-1.23.37-1.09.83-2.7 1.34-4.7.51-2 1.05-4.39 1.63-7 .27-1.34.56-2.74.86-4.19.31-1.517.458-3.062.44-4.61a29.268 29.268 0 0 0-1.46-8.77 27.113 27.113 0 0 0-1.43-3.6 16.468 16.468 0 0 0-1.72-2.89 7.68 7.68 0 0 0-3.78-2.93 4.262 4.262 0 0 0-1.23-.18c-.148 0-.296.017-.44.05zm8.87 60.81c.124-.017.245-.051.36-.1l1-.34 3.89-1.35 13.55-4.81.16-.06v-.16c-.67-3.44-1.41-7.19-2.18-11.12v-.32h-.16c-8.44.17-16.05.81-21.53 1.48-2.74.32-4.95.64-6.48.88l-1.75.29a2.889 2.889 0 0 0-.61.13c.206.011.413.011.62 0l1.76-.21c1.53-.19 3.75-.46 6.49-.75 5.48-.59 13.08-1.19 21.51-1.36l-.2-.16v.15c.78 3.93 1.53 7.68 2.21 11.11l.12-.22-13.46 5-3.86 1.45-1 .4c-.15.004-.297.027-.44.07z" fill="#1A2E35"/><path d="M26.44 121.4c0 .12 1.95.25 4.33.61s4.29.79 4.32.68a14.47 14.47 0 0 0-4.26-1.09 14.933 14.933 0 0 0-4.39-.2zm37.19 40.73c.058-.173.105-.35.14-.53.136-.454.413-.853.79-1.14a1.919 1.919 0 0 1 1.88-.26 2.104 2.104 0 0 1 1.284 1.935 2.1 2.1 0 0 1-1.284 1.935 1.943 1.943 0 0 1-1.88-.26 2.248 2.248 0 0 1-.79-1.14 4.593 4.593 0 0 0-.14-.54s-.07.21 0 .57c.092.523.364.997.77 1.34a2.184 2.184 0 0 0 2.18.39 2.472 2.472 0 0 0 1.556-2.295 2.47 2.47 0 0 0-1.556-2.295 2.172 2.172 0 0 0-1.144-.102 2.173 2.173 0 0 0-1.036.492 2.25 2.25 0 0 0-.77 1.33c-.07.37-.07.58 0 .57zm.42-20.73c.057-.174.104-.351.14-.53a2.23 2.23 0 0 1 .79-1.15 1.942 1.942 0 0 1 1.88-.26 2.098 2.098 0 0 1 .934 3.096 2.105 2.105 0 0 1-.934.774 1.89 1.89 0 0 1-1.88-.26 2.247 2.247 0 0 1-.79-1.14 4.796 4.796 0 0 0-.14-.53 1 1 0 0 0 0 .57c.094.522.366.996.77 1.34a2.205 2.205 0 0 0 2.18.38 2.472 2.472 0 0 0 1.131-3.682 2.472 2.472 0 0 0-1.13-.908 2.183 2.183 0 0 0-2.18.39 2.27 2.27 0 0 0-.77 1.34 1 1 0 0 0 0 .57z" fill="#1A2E35"/><path opacity=".3" d="M101.2 118.7a6.25 6.25 0 0 0-3.83 3.46 16.577 16.577 0 0 0-1.39 5.45 5.16 5.16 0 0 0 .38 3.31c.27.46 1 .81 1.27.38a.999.999 0 0 0 .14-.44c.38-2.23.48-4.51 1-6.72s.9-4 2.55-5.43m-36.14 2.32c-5.54-2.44-9.62-7.75-12.93-13.07-.7-1.15-1.39-2.3-2.08-3.46a4.672 4.672 0 0 1-.83-2.07 1.59 1.59 0 0 1 1.08-1.72 2.094 2.094 0 0 1-2.37-1 6.741 6.741 0 0 1-.86-2.71c-.38-2.3-.92-5.69-1.3-8 .61 1.65 1.92 4.41 2.53 6.07a8.25 8.25 0 0 0 1.75 3.36c1.44 1.31 2.9.85 4.59 1.4a10.134 10.134 0 0 0-3.2 2.5c4.22 6.27 13.64 18.7 13.64 18.7" fill="#000"/><path d="M69.81 24.87c1.54.32 3.16.08 4.67.53a7.741 7.741 0 0 1 4.64 4.88 24.342 24.342 0 0 1 1.16 7l.43 6.39c.044 1.371.225 2.735.54 4.07a44.72 44.72 0 0 1 1.56 7.31 21.29 21.29 0 0 1-4.53 14.44c-1.4 1.66-4.32 2.39-6.39 2.83l-4.33-3.92c-.16-.14 3.22-4 3.14-4.21a1.54 1.54 0 0 1 .09-1 53.29 53.29 0 0 0-2.05-37.94" fill="#1A2E35"/><path d="M69.36 78.93c.12-8.31 0-11.43 0-11.38 0 .05 6.81-1.21 8.2-10.53.69-4.64.45-12.24.07-18.46-.35-5.59-3.9-12.45-9.2-11.84l-16.57 4.43a3.24 3.24 0 0 0-2.79 3.34l1.87 44.29" fill="#FFCEB0"/><path d="M74.36 45.92a1.16 1.16 0 0 1-1.53 1.149 1.11 1.11 0 0 1-.74-1.02 1.16 1.16 0 0 1 1.535-1.139 1.1 1.1 0 0 1 .735 1.01zm1.2-1.7c-.14.15-1-.51-2.23-.51s-2.12.65-2.25.5c-.13-.15.08-.36.47-.66a3 3 0 0 1 1.8-.58 2.9 2.9 0 0 1 1.78.59c.37.31.49.59.43.66zm-13.17 1.86a1.18 1.18 0 0 1-1.1 1.2 1.111 1.111 0 0 1-1.17-1.08 1.16 1.16 0 0 1 1.09-1.21 1.119 1.119 0 0 1 1.18 1.09zm1.17-1.59c-.14.15-1-.52-2.23-.51-1.23.01-2.12.65-2.26.49-.14-.16.08-.35.47-.65a3 3 0 0 1 1.76-.54 3 3 0 0 1 1.77.6c.38.25.49.54.49.61zm4.42 9.1a7.937 7.937 0 0 1 2-.38c.31 0 .61-.1.66-.32a1.82 1.82 0 0 0-.21-1c-.3-.79-.61-1.62-.93-2.5a44.888 44.888 0 0 1-2.1-6.54 43.633 43.633 0 0 1 2.59 6.35l.89 2.52a2 2 0 0 1 .17 1.29.811.811 0 0 1-.51.48 2.348 2.348 0 0 1-.54.08c-.668.103-1.349.11-2.02.02z" fill="#1A2E35"/><path d="M69.36 67.55a22.93 22.93 0 0 1-12.4-3.27s3.52 6.56 12.4 5.66v-2.39z" fill="#FF9A6C"/><path d="M68.98 56.02a2.1 2.1 0 0 0-2.13.16 2.15 2.15 0 0 0-.92 1.35 1.381 1.381 0 0 0 .57 1.42 1.44 1.44 0 0 0 1.62-.37 4.807 4.807 0 0 0 1-1.61c.08-.16.13-.332.15-.51a.43.43 0 0 0-.2-.42" fill="#FF735D"/><path d="M65.28 55.49c.17-.1.77 1.15 2.21 1.5 1.44.35 2.64-.45 2.73-.28.09.17-.16.39-.69.69a3.18 3.18 0 0 1-2.25.3 2.93 2.93 0 0 1-1.78-1.29c-.29-.5-.3-.88-.22-.92zm-1.33-15.57c-.12.35-1.34.18-2.78.37-1.44.19-2.6.6-2.79.29-.08-.15.12-.48.58-.82a4.53 4.53 0 0 1 2.07-.77 4.36 4.36 0 0 1 2.18.27c.53.22.79.49.74.66zm11.45 1.05c-.21.29-1.06 0-2.07 0-1.01 0-1.87.2-2.07-.11-.09-.15 0-.44.42-.72a2.9 2.9 0 0 1 3.34.1c.36.28.48.58.38.73z" fill="#1A2E35"/><path d="M70.92 26.09a2.21 2.21 0 0 0-.91-1.3 12.181 12.181 0 0 0-9.64-2.32 22 22 0 0 0-9.25 4.22 17.18 17.18 0 0 0-5.94 6.74 23.157 23.157 0 0 0-1.44 6.36c-.7 5.37-2.08 10.76-2 16.18 0 2.11-.34 5.67 0 8.27.37 2.78 2.94 6.18 5.55 6.8l5.88.62s-3.21-11.53-2.97-15.69c.22-3.64.19-7.63.58-11.26a2 2 0 0 1 .2-.81 1.85 1.85 0 0 1 .81-.65l3.67-2c1.19-.6 2.346-1.268 3.46-2a35.645 35.645 0 0 0 3.5-2.9l4.77-4.28a14.388 14.388 0 0 0 2.72-2.95 5.13 5.13 0 0 0 .79-3.91" fill="#1A2E35"/><path d="M51.19 47.28a2.59 2.59 0 0 0-3.79-2.32c-.89.55-1.58 1.64-1.5 3.75.22 5.62 5.55 4.23 5.55 4.07 0-.16-.15-3.2-.26-5.5z" fill="#FFCEB0"/><path d="M49.73 50.7s-.09.07-.24.15a.89.89 0 0 1-.7 0 2.44 2.44 0 0 1-1.15-2.13c-.035-.479.033-.96.2-1.41a1.09 1.09 0 0 1 .72-.73.48.48 0 0 1 .56.24c.07.16 0 .27.07.28.07.01.11-.1.06-.33a.57.57 0 0 0-.22-.34.67.67 0 0 0-.52-.12 1.32 1.32 0 0 0-.94.91 3.379 3.379 0 0 0-.26 1.58 2.55 2.55 0 0 0 1.45 2.37 1 1 0 0 0 .8-.19c.17-.15.19-.27.17-.28z" fill="#FF9A6C"/><path d="M49.56 70.5c.13 0 .09-.89-.15-2.42-.24-1.53-.71-3.7-1.32-6.37a80.41 80.41 0 0 1-1.73-9.34 33.364 33.364 0 0 1-.18-5.51 18.53 18.53 0 0 1 1.09-5.58 8.381 8.381 0 0 1 1.37-2.33 10.483 10.483 0 0 1 2-1.73 29.82 29.82 0 0 1 4.68-2.49c3.14-1.35 6.14-2.36 8.56-3.53a11.31 11.31 0 0 0 5.09-4.06c.83-1.42.73-2.39.63-2.39-.1 0-.34.82-1.24 1.91a12 12 0 0 1-5 3.19c-2.4 1-5.39 1.81-8.69 3.11a28.78 28.78 0 0 0-5 2.55 11.821 11.821 0 0 0-2.43 2 10.42 10.42 0 0 0-1.74 2.92 20.1 20.1 0 0 0-1.18 6.32c-.09 1.957-.01 3.917.24 5.86a64.346 64.346 0 0 0 2.19 9.49c.79 2.63 1.46 4.73 1.93 6.18.47 1.45.78 2.25.88 2.22z" fill="#FAFAFA"/><path d="M44.78 69.65a4.154 4.154 0 0 0-.12-.59c-.1-.38-.26-.94-.41-1.68a41.414 41.414 0 0 1-1-6.26c-.243-3.13-.17-6.276.22-9.39.22-1.76.52-3.6.93-5.48.355-1.94.915-3.838 1.67-5.66a12.469 12.469 0 0 1 3.59-4.46 24.065 24.065 0 0 1 4.56-2.77c3.07-1.45 6-2.46 8.27-3.72a17.582 17.582 0 0 0 5-3.7c.226-.24.437-.493.63-.76.151-.188.292-.385.42-.59.113-.162.213-.333.3-.51 0 0-.45.69-1.46 1.75a18.364 18.364 0 0 1-5 3.55c-2.28 1.22-5.19 2.19-8.3 3.63a23.575 23.575 0 0 0-4.64 2.8 12.728 12.728 0 0 0-3.71 4.6 27.231 27.231 0 0 0-1.7 5.75c-.41 1.9-.7 3.75-.91 5.52a45.332 45.332 0 0 0-.13 9.47 36.632 36.632 0 0 0 1.1 6.27c.18.73.36 1.29.48 1.66.054.195.124.386.21.57zm26.62 1.87c.169.023.34.023.51 0 .498.021.997-.006 1.49-.08a3.56 3.56 0 0 0 2.12-1 12.238 12.238 0 0 0 1.56-2.84 29.24 29.24 0 0 0 2.67-8c.241-1.656.378-3.326.41-5 .06-1.73.08-3.53 0-5.37-.16-7.35-1.37-14-3.29-18.44a9.76 9.76 0 0 0-1.81-2.66 6.759 6.759 0 0 0-2-1.37 4.88 4.88 0 0 0-1.44-.39 3.133 3.133 0 0 0-.39 0h-.13a7 7 0 0 1 1.89.55 6.53 6.53 0 0 1 1.95 1.36 9.37 9.37 0 0 1 1.72 2.62c1.82 4.38 3 11 3.15 18.32v5.35a44.837 44.837 0 0 1-.38 4.94 30.149 30.149 0 0 1-2.57 7.93 12.76 12.76 0 0 1-1.5 2.84 3.45 3.45 0 0 1-2 1.05c-1.24.2-1.97.14-1.96.19z" fill="#FAFAFA"/><path d="M48.97 54.24c.58 0 1.05-.492 1.05-1.1 0-.608-.47-1.1-1.05-1.1-.58 0-1.05.492-1.05 1.1 0 .608.47 1.1 1.05 1.1z" fill="#1A2E35"/><path d="M118.75 310.16v1.06s17.09 6.95 17.31 10.34l-33.78.25.38-11.81a18.489 18.489 0 0 0 16.09.16z" fill="#06BE9E"/><path opacity=".6" d="M106.13 313.75a1.448 1.448 0 0 0-.94 1.66 1.32 1.32 0 0 0 1.55 1 1.538 1.538 0 0 0 1-1.77 1.343 1.343 0 0 0-1.203-.919 1.35 1.35 0 0 0-.527.079m-3.71 8.01l.09-2.84 32.34.8s1.51.68 1.35 1.79l-33.78.25z" fill="#fff"/><path d="M118.89 311.28c0 .17-.83.25-1.64.82-.81.57-1.24 1.29-1.39 1.22-.15-.07.09-1.07 1.08-1.73.99-.66 1.98-.43 1.95-.31zm3.55 1.55c0 .17-.67.47-1.23 1.2-.56.73-.71 1.51-.88 1.51-.17 0-.27-1 .44-1.89.71-.89 1.66-.99 1.67-.82zm2.04 4.45c-.15 0-.38-.83 0-1.78.38-.95 1.19-1.34 1.26-1.19.07.15-.4.65-.74 1.44-.34.79-.36 1.53-.52 1.53z" fill="#1A2E35"/><path d="M64.23 122.2l12.33-5.92 8.55.91 4 5s0 1.48-.87 1.25a5.6 5.6 0 0 1-1.82-1.16l-.1 3.75s-1.3 1.59-2.17 0l-.87 2.84s-1 1.25-1.73 0l-1.3 3.3a2.353 2.353 0 0 1-1.51-1.14 2.689 2.689 0 0 1-.22-1.7s-4.22.79-5.95 1.36c-1.73.57-10.29.34-10.29.34l-3.78 1.14-1.74-9.34 7.47-.63z" fill="#FFCEB0"/><path d="M78.4 117.67a5.3 5.3 0 0 1 1.53 0c.47.1 1 .28 1.63.48.63.2 1.29.41 2 .68.645.248 1.264.556 1.85.92a1 1 0 0 1 .5.62c.08.26.13.55.18.8.078.542.185 1.079.32 1.61a4.401 4.401 0 0 0 0-1.66 8.559 8.559 0 0 0-.15-.85 1.391 1.391 0 0 0-.61-.84c-.599-.401-1.24-.736-1.91-1-.71-.28-1.39-.48-2-.66a12.564 12.564 0 0 0-1.69-.4 2.003 2.003 0 0 0-1.65.3zm-.71 2.61c.416.3.89.511 1.39.62.89.29 2.16.51 3.48.92.31.058.6.188.85.38.181.248.326.521.43.81.25.48.386 1.01.4 1.55 0 .46-.12.84-.15 1.12a.832.832 0 0 0 0 .43s.07-.14.15-.4a6.32 6.32 0 0 0 .32-1.13 3.647 3.647 0 0 0-.35-1.73 3.482 3.482 0 0 0-.48-.94 2.413 2.413 0 0 0-1-.49c-1.38-.42-2.64-.59-3.53-.8-.494-.149-.999-.262-1.51-.34zm3.76 8.85s.34-.29.64-1a2.25 2.25 0 0 0 .15-1.33 1.712 1.712 0 0 0-1.1-1.19 3.758 3.758 0 0 0-1.51-.19h-1.2a5.361 5.361 0 0 0-.81.07c-.21.06-.28.2-.25.21.03.01.1 0 .27 0s.46 0 .79.06h1.2c.464-.016.928.049 1.37.19a1.39 1.39 0 0 1 .88.91 2 2 0 0 1 0 1.13 7.391 7.391 0 0 0-.43 1.14z" fill="#FF9A6C"/><path d="M1134.39 27.28a39.299 39.299 0 0 0-14.66 15.57c-1.47 2.9-8.56 16.82-2 27.4 4 6.47 11.33 8.76 14.9 9.88 9 2.82 13 .09 21.18 2.51 3.68 1.09 8.72 3.51 14 9.58" fill="#1A2E35"/><path d="M1201.01 96.28a19.77 19.77 0 0 0 10.64.66c7-1.68 12.69-9 14.19-18.27-3.76 6.44-10.06 10.19-15.91 9.32-5.48-.82-8.82-5.44-9.28-6.1-4.65-6.63-.41-12.34-4.46-15.61-3.28-2.66-6.68-1.12-14.91-3.79a6.575 6.575 0 0 1-2.94-1.79c-4.35-4.79-4.59-10.34-6-15.63-2.62-9.66-11.77-17.11-20-19.53-1.45-.42-12.18-3.41-17.88 1.78-6.64 6-5.44 22.3 6.66 38.12.6 3.26 1.86 6.36 3.73 9.1a23.783 23.783 0 0 0 7.08 6.82c2.79 1.72 5.26 3.87 6.38 5.91 2.28 4.13 5 8.76 9.59 9.78 3.51.77 7.13-.85 10.72-.57 3.83.29 4 2.17 11.59 6.28 5.77 3.13 8.72 4.69 12.35 4.73 3.87-.112 7.59-1.52 10.57-4a48.57 48.57 0 0 1-9.82-3.35 21.1 21.1 0 0 1-5.28-3.21 18.101 18.101 0 0 1-3.89-4.81 19.873 19.873 0 0 0 6.87 4.16z" fill="#1A2E35"/><path d="M1159.38 52.57c-.12.24-.69.28-1.61 0a10.12 10.12 0 0 1-3.46-2.06 13.808 13.808 0 0 1-3.56-5c-.45-1.09-.74-2.13-1.12-2.92a3.602 3.602 0 0 0-.59-1c-.23-.254-.5-.464-.81-.62-.94-.443-1.91-.817-2.9-1.12a16.167 16.167 0 0 1-3.25-1.61 16.52 16.52 0 0 1-2.54-2c-.66-.66-1.26-1.376-1.8-2.14a11.049 11.049 0 0 1-1.7-3.62 3.71 3.71 0 0 1-.12-1.1c0-.27.1-.44.23-.49.56-.24 1.63 1.39 3.77 3.32.58.514 1.19.998 1.82 1.45.72.499 1.46.95 2.24 1.35.85.434 1.73.793 2.64 1.07 1.24.32 2.45.769 3.6 1.34.73.4 1.39.932 1.93 1.57.48.604.87 1.278 1.15 2 .52 1.28.71 2.36 1 3.21a15.132 15.132 0 0 0 2.15 4.31c1.63 2.36 3.2 3.52 2.93 4.06z" fill="#1A2E35"/><path d="M1147.24 42.51c1.06 4.228.69 8.69-1.07 12.68-2.44 5-1.15 5.81 1.49 4.91 6.65-2.27 2.44 7.25 2.94 10.45.54 3.47 3.69 6 6.92 7.33s6.78 2 9.83 3.77c2.52 1.44 4.58 3.56 6.92 5.26 2.34 1.7 5.23 3 8.09 2.54-4.17-1.52-7.16-5.17-9.7-8.8-2.54-3.63-5-7.54-8.63-10-1.83-1.26-4-2.19-5.27-4-2.1-3.06-.84-7.17.12-10.75a23.559 23.559 0 0 0 1-8.67 11.22 11.22 0 0 0-3.86-7.62c-2.29-1.82 1.44.74-1.07 2.24" fill="#1A2E35"/><path d="M1154.73 30.34s-.22-.24-.62-.66a14.416 14.416 0 0 0-1.82-1.62 13.518 13.518 0 0 0-3.16-1.73 13.156 13.156 0 0 0-4.3-.9 13.39 13.39 0 0 0-7.62 2.16c-.68.441-1.32.94-1.92 1.49-.21.218-.43.425-.66.62a.837.837 0 0 1 .15-.18c.14-.176.29-.343.45-.5a13.244 13.244 0 0 1 5.18-3.15 13.058 13.058 0 0 1 12 2.08c.66.493 1.26 1.056 1.79 1.68.2.21.33.4.42.51.04.063.08.13.11.2zm56.01 59.94s-1.1-.15-3.06-.62a31.368 31.368 0 0 1-3.5-1.06c-.72-.268-1.42-.582-2.1-.94-.77-.383-1.49-.85-2.16-1.39a10.44 10.44 0 0 1-2-2 19.501 19.501 0 0 1-1.53-2.65 20.63 20.63 0 0 0-1.63-2.83c-.67-.933-1.5-1.744-2.44-2.4-.48-.356-1-.639-1.56-.84-.58-.2-1.17-.347-1.77-.44a21.43 21.43 0 0 0-3.78-.2c-1.29 0-2.6.15-3.92.28-1.36.156-2.74.04-4.06-.34a10.525 10.525 0 0 1-6.25-4.81c-1.31-2.26-1.92-4.73-3.1-6.78a9.615 9.615 0 0 0-2.15-2.66 5.719 5.719 0 0 0-2.91-1.3c-1-.107-2-.107-3 0-.94.104-1.89.134-2.83.09-.86-.06-1.71-.214-2.53-.46a12.26 12.26 0 0 1-2.11-.9 11.859 11.859 0 0 1-2.91-2.23c-.53-.568-1-1.188-1.4-1.85-.13-.22-.22-.41-.29-.52l-.09-.19.11.18.31.51a11.53 11.53 0 0 0 4.32 4c.67.357 1.37.648 2.1.87.81.242 1.65.393 2.5.45.94.03 1.88-.003 2.81-.1 1.02-.115 2.05-.115 3.07 0 1.1.156 2.14.617 3 1.33a9.65 9.65 0 0 1 2.19 2.71c1.2 2.08 1.82 4.54 3.11 6.77a10.408 10.408 0 0 0 6.13 4.71c1.3.374 2.66.486 4 .33 1.33-.12 2.64-.23 3.94-.27 1.27-.041 2.55.03 3.81.21.62.093 1.22.244 1.81.45.57.21 1.11.503 1.6.87.96.673 1.8 1.5 2.48 2.45.62.905 1.16 1.858 1.63 2.85.43.918.94 1.8 1.51 2.64.55.75 1.19 1.422 1.92 2 .66.536 1.37 1.001 2.13 1.39a21.2 21.2 0 0 0 2.08.94c1.14.429 2.3.796 3.48 1.1 1 .24 1.74.41 2.26.52l.58.12.2.01zm-24.88-25.32l-.15.07c-.15.066-.3.12-.46.16-.61.173-1.26.224-1.89.15-1-.126-1.96-.467-2.82-1a11.06 11.06 0 0 1-2.91-2.68c-.92-1.16-1.76-2.54-2.74-4a12.797 12.797 0 0 0-3.81-3.85 10.1 10.1 0 0 0-2.76-1c-1-.23-2-.39-3-.61a10.39 10.39 0 0 1-3-1.09 6.99 6.99 0 0 1-2.37-2.35 20.125 20.125 0 0 1-2.19-6.15 24.02 24.02 0 0 0-.89-3 12.13 12.13 0 0 0-1.41-2.59 12.326 12.326 0 0 0-4-3.59 11.369 11.369 0 0 0-4.52-1.41 12.237 12.237 0 0 0-3.91.25c-.97.224-1.9.56-2.79 1-.56.292-1.11.626-1.62 1l-.39.29-.14.09.13-.11.38-.31c.51-.376 1.04-.71 1.6-1 .89-.447 1.84-.783 2.81-1 1.31-.308 2.66-.406 4-.29 1.61.149 3.17.629 4.58 1.41 1.63.89 3.03 2.13 4.12 3.63a11.98 11.98 0 0 1 1.44 2.63c.36.98.67 1.983.91 3a20.007 20.007 0 0 0 2.17 6.09c.56.936 1.35 1.72 2.29 2.28.94.513 1.95.874 3 1.07 1 .23 2 .38 3 .62.98.207 1.93.56 2.8 1.05a12.918 12.918 0 0 1 3.86 3.92c1 1.42 1.81 2.8 2.71 3.95a10.722 10.722 0 0 0 2.67 2.69c.84.523 1.79.864 2.77 1 .62.076 1.25.035 1.86-.12.46-.11.67-.22.67-.2z" fill="#375A64"/><path d="M1200.23 62.28s-.27.14-.81.37c-.79.319-1.61.563-2.44.73-1.32.259-2.66.333-4 .22a13.748 13.748 0 0 1-5.13-1.48 14.247 14.247 0 0 1-4.91-4.21c-.71-.98-1.3-2.045-1.75-3.17-.45-1.16-.76-2.41-1.12-3.66-.32-1.294-.81-2.54-1.47-3.7a6.848 6.848 0 0 0-3.07-2.68 16.73 16.73 0 0 0-4.16-1.11 38.423 38.423 0 0 1-4.4-.85 9.241 9.241 0 0 1-2.1-.87c-.17-.09-.33-.194-.48-.31a3.97 3.97 0 0 1-.45-.33l-.42-.38a3.754 3.754 0 0 1-.38-.41 6.742 6.742 0 0 1-1.13-1.9 13.68 13.68 0 0 1-.64-2.08c-.32-1.39-.51-2.78-.87-4.1-.17-.65-.39-1.283-.68-1.89a7.295 7.295 0 0 0-1.07-1.64c-.42-.481-.9-.91-1.42-1.28-.51-.36-1.05-.67-1.62-.93a16.56 16.56 0 0 0-3.41-1.11c-1.13-.25-2.24-.42-3.32-.55-1.08-.13-2.1-.26-3.08-.34a28.74 28.74 0 0 0-5.33 0 13.46 13.46 0 0 0-3.88 1c-.25.12-.5.21-.71.33l-.6.34c-.35.23-.65.44-.88.62l-.5.43-.18.14.17-.16.49-.45c.23-.18.52-.39.87-.63l.6-.35c.23-.125.46-.239.7-.34a13.58 13.58 0 0 1 3.91-1c1.78-.17 3.57-.17 5.35 0 1 .08 2 .19 3.09.32 1.09.13 2.19.3 3.34.54 1.18.244 2.34.62 3.44 1.12.58.262 1.14.577 1.66.94.53.38 1.02.82 1.45 1.31.44.505.81 1.067 1.1 1.67.29.62.53 1.266.7 1.93.36 1.33.56 2.72.88 4.11.15.683.36 1.352.63 2 .26.67.63 1.295 1.09 1.85.11.142.24.273.38.39l.4.37c.14.121.29.231.44.33.15.108.3.208.46.3.65.363 1.34.645 2.06.84 2.87.84 5.93.78 8.58 2a7.047 7.047 0 0 1 3.16 2.75 14.991 14.991 0 0 1 1.48 3.76c.36 1.26.67 2.5 1.11 3.65a14.317 14.317 0 0 0 1.72 3.13 14.303 14.303 0 0 0 4.83 4.18c1.58.826 3.31 1.333 5.08 1.49 1.34.132 2.68.071 4-.18.84-.157 1.66-.388 2.45-.69.27-.1.47-.2.61-.25l.18-.13z" fill="#1A2E35"/><path d="M1202.56 104.16h-.71c-.29.018-.58.018-.87 0-.39-.03-.78-.084-1.17-.16a14.417 14.417 0 0 1-3.08-1 23.33 23.33 0 0 1-3.7-2.18c-1.3-.92-2.65-2-4.08-3.23a47.422 47.422 0 0 0-4.72-3.62 17.047 17.047 0 0 0-6-2.62 10.644 10.644 0 0 0-3.43-.12c-1.16.17-2.31.51-3.49.8-1.16.347-2.37.502-3.58.46a4.489 4.489 0 0 1-3.08-1.6 10.55 10.55 0 0 1-1.54-3c-.33-1.018-.76-2-1.29-2.93a13.192 13.192 0 0 0-4.28-4c-1.57-1-3.12-1.79-4.5-2.58a22.176 22.176 0 0 1-3.55-2.43c-.83-.691-1.57-1.5-2.17-2.4a8.383 8.383 0 0 1-.91-1.84c-.07-.22-.11-.4-.14-.51-.03-.11 0-.18 0-.18l.06.17.16.51c.24.637.55 1.244.93 1.81.62.88 1.35 1.674 2.18 2.36 1.11.897 2.3 1.694 3.55 2.38 1.38.78 2.94 1.56 4.53 2.56a13.59 13.59 0 0 1 4.34 4.08c.54.953.98 1.958 1.31 3 .33 1.077.84 2.09 1.51 3 .37.443.83.807 1.34 1.07.52.262 1.08.419 1.66.46 1.19.037 2.37-.115 3.51-.45a33.52 33.52 0 0 1 3.51-.81c1.17-.153 2.35-.109 3.5.13 2.15.485 4.19 1.386 6 2.65a45.514 45.514 0 0 1 4.73 3.65c1.42 1.21 2.76 2.32 4 3.24 1.15.84 2.38 1.573 3.67 2.19.96.46 1.96.812 3 1.05.44.07.82.16 1.17.18.29.037.57.057.86.06h.71l.06-.15z" fill="#375A64"/><path d="M1133.93 35.74a36.777 36.777 0 0 0-7.74 12.61c-1.48 4.14-4.23 11.78-.82 18a12.284 12.284 0 0 0 5.18 5.11 11.441 11.441 0 0 0 7 1c-.22 1.637-.77 3.21-1.63 4.62a11.356 11.356 0 0 1-5 4.4c-4 7.093-5.26 11.337-3.77 12.73 2 1.9 9.09-1.533 21.27-10.3a18.757 18.757 0 0 1 1.6-10.87 18.486 18.486 0 0 1 4.9-6.19c.87.376 1.81.53 2.75.448a5.67 5.67 0 0 0 2.64-.918 6.026 6.026 0 0 0 2.1-2.939c.38-1.172.39-2.433.03-3.611a4.77 4.77 0 0 0-2.54-2.86 4.523 4.523 0 0 0-3.57.1 66.732 66.732 0 0 0-8.21-8.67c-3-2.62-5.07-4-9-7.53a98.958 98.958 0 0 1-5.19-5.13z" fill="#FFBF9D"/><path d="M1157.15 63.43c.43.145.81.425 1.08.799.26.374.4.823.39 1.281.04.318 0 .64-.11.941-.11.301-.28.574-.51.797-.23.222-.51.39-.81.488a2.096 2.096 0 0 1-2.47-.963c-.16-.28-.25-.59-.26-.91-.02-.32.03-.638.16-.933.15-.527.49-.977.96-1.257.48-.279 1.04-.366 1.57-.243z" fill="#FCF4E4"/><path d="M1156.34 60.82c-.3-.49 1-3 2.76-2.73.6.164 1.13.53 1.49 1.036.37.506.55 1.122.51 1.744a8.575 8.575 0 0 0-1.74-.25c-1.9-.07-2.8.52-3.02.2z" fill="#C35532"/><path d="M1125.56 50.19c.1.16.93-.39 2-.28 1.07.11 1.77.79 1.9.65.13-.14 0-.33-.33-.64a2.47 2.47 0 0 0-1.49-.71 2.526 2.526 0 0 0-1.62.41c-.35.25-.46.5-.46.57zm11.73 1.69c.1.16.93-.39 2-.28 1.07.11 1.77.79 1.9.65.13-.14 0-.33-.33-.64-.4-.4-.93-.65-1.49-.71a2.525 2.525 0 0 0-1.62.41c-.37.25-.52.5-.46.57zm-5.18 7.8a6.333 6.333 0 0 0-1.69-.52c-.26-.06-.51-.15-.53-.36.01-.319.12-.627.3-.89.35-.71.72-1.46 1.1-2.25 1-1.902 1.87-3.873 2.59-5.9a46.59 46.59 0 0 0-3 5.68l-1.07 2.27c-.22.353-.33.765-.3 1.18.02.106.07.205.14.29.07.085.15.154.25.2.15.064.3.105.46.12.57.148 1.16.209 1.75.18zm5.03-11.4c.05.34 1.22.38 2.58.64s2.47.62 2.64.32c.17-.3-.84-1.21-2.43-1.5-1.59-.29-2.86.26-2.79.54zm-11-1.79c.1.14.35.1.63.06.34-.042.68-.015 1 .08.39.116.79.21 1.19.28.35 0 .6 0 .67-.15.07-.15-.06-.38-.33-.62-.36-.332-.79-.57-1.26-.69a1.753 1.753 0 0 0-1.6.34c-.34.3-.4.59-.3.7z" fill="#1A2E35"/><path d="M1133.63 62.07c-.26-.24-.57-.418-.9-.518-.34-.101-.69-.122-1.04-.062-.35.082-.67.282-.9.567-.22.286-.34.64-.34 1.003.06.377.23.727.5 1 .2.217.45.389.72.503.27.114.56.167.86.157.3-.025.59-.13.83-.307.25-.176.44-.416.56-.693.12-.283.14-.596.07-.893a1.448 1.448 0 0 0-.48-.757" fill="#AE4F34"/><path d="M1129.64 62.4s.22.27.71.46a3.27 3.27 0 0 0 2 .08 3.48 3.48 0 0 0 1.74-1.13c.35-.42.46-.74.42-.77-.04-.03-.24.24-.61.58-.47.436-1.03.755-1.64.93-.61.149-1.24.149-1.85 0-.46-.07-.74-.21-.77-.15zm4.92-3.12s-.11.15-.08.42c.04.338.18.656.41.91.21.257.5.439.82.52.24.05.4 0 .4 0s-.52-.25-.94-.75c-.42-.5-.46-1.16-.61-1.1z" fill="#1A2E35"/><path d="M1127.46 291.36l2.15 28.52 12.4-.25 1.7-29.68-16.25 1.41z" fill="#FFBF9D"/><path d="M1129.22 316.13v.82s-13.93 5.75-14.05 8.41l27.77-.41-.51-9.23a15.894 15.894 0 0 1-13.21.41z" fill="#06BE9E"/><path d="M1124.84 321.33c.11 0 .27-.58 0-1.23s-.88-.9-.92-.8c-.04.1.3.44.55 1 .25.56.26.98.37 1.03z" fill="#1A2E35"/><path d="M1139.66 318.71c.27.077.5.251.65.487.14.236.2.519.15.793a1.087 1.087 0 0 1-1.26.81 1.235 1.235 0 0 1-.69-.517 1.24 1.24 0 0 1-.16-.843 1.138 1.138 0 0 1 1.41-.7" fill="#fff"/><path d="M1129.13 317.03c0 .14.68.19 1.36.61s1 1 1.16.94c.16-.06-.09-.84-.92-1.34-.83-.5-1.63-.33-1.6-.21zm-2.9 1.25c0 .13.56.35 1 .92.44.57.61 1.17.75 1.16.14-.01.21-.77-.39-1.47s-1.36-.74-1.36-.61zm16.7 6.69l-.12-2.1-26.78 1.14c-.44.333-.74.812-.85 1.35l27.75-.39z" fill="#1A2E35"/><path d="M1062.45 43.57a88.627 88.627 0 0 0-6.58-6c-1.38-.86-3.08-2.82-4.15-3.26a30.799 30.799 0 0 1-3.55-2.14l-2.1-2.61s-1.57-.17-1.25 1.61l-3.93-.76s-1 .92.63 2c.81.621 1.83.908 2.85.8l1.65 1.84-.28 1-9.51 1.23c.05.433.25.834.57 1.128.33.293.74.457 1.18.462 1.56 0 7.34-.25 7.34-.25l-8.88 3.28s-.46 1.35 2.31.95a62.647 62.647 0 0 0 7.18-1.75l.77.7-2.41 1.41-2.27 2.92c.48.217 1.02.271 1.54.156.52-.115.98-.395 1.33-.796l1.46-1.43h2.11s5.77 4 7.7 3.08l1.63 1.64 4.66-5.21z" fill="#FFBF9D"/><path d="M1045.56 36.59s-.21.35-.32 1c-.14.846-.08 1.714.19 2.53.28.813.81 1.514 1.52 2 .53.38.92.5.95.45.03-.05-.31-.26-.77-.68a4.362 4.362 0 0 1-1.31-1.93c-.26-1.103-.35-2.24-.26-3.37zm8.12 6.79a5 5 0 0 1-2.36-.93 6.336 6.336 0 0 1-1.82-2.18c-.55-1.103-.98-2.26-1.3-3.45-1.13-.99-2.02-2.22-2.61-3.6a7.89 7.89 0 0 1-.56-2.19c-.02-.159 0-.32.05-.472.04-.153.12-.295.22-.418a1.116 1.116 0 0 1 .82-.29l-.15-.09a18 18 0 0 0 4.67 4.85c.53.375 1.09.709 1.67 1 .2.117.42.204.64.26 0-.05-.86-.46-2.17-1.45a19.194 19.194 0 0 1-4.48-4.86l-.05-.09h-.1a1.47 1.47 0 0 0-.61.08c-.2.069-.38.178-.53.32-.14.162-.25.351-.32.556a1.7 1.7 0 0 0-.07.634c.08.799.28 1.581.59 2.32a9.835 9.835 0 0 0 2.75 3.75l-.06-.09c.33 1.21.8 2.38 1.38 3.49a6.548 6.548 0 0 0 2 2.22c.54.373 1.15.622 1.8.73.2.007.41-.027.6-.1z" fill="#FF9A6C"/><path d="M1132.82 81.61l-37.89-16-32.69-23.67-6.62 7s22.91 23.87 28.88 28.74c5.97 4.87 38.21 25.41 38.21 25.41l10.11-21.48z" fill="#06BE9E"/><path d="M1111.06 86.46a4.846 4.846 0 0 1 2.9.22c.3.15.61.49.44.78a.686.686 0 0 1-.55.27c-3.76.59-7.13 1.71-10.89 2.3l-.64-.27a28.083 28.083 0 0 1 8.74-3.3zm-6.83-2.3a28.75 28.75 0 0 1-2.36 5.39l-.37-.22c-.08-1.903.04-3.81.34-5.69.23-1.824 1-3.536 2.22-4.91.64 1.745.7 3.648.17 5.43zm-6.18-2.13c.8 2.22 1.55 4.34 2.35 6.55l-1.55-1.62a22.809 22.809 0 0 1-3.49-6.15c-.11-.26-.15-.54-.14-.82.01-.14.05-.276.13-.392a.78.78 0 0 1 .32-.268 1.001 1.001 0 0 1 .87.21c.74.664 1.26 1.53 1.51 2.49zm-26.66-26.35a4.325 4.325 0 0 1-2.46-.81c-.23-.19-.43-.55-.22-.77a.662.662 0 0 1 .26-.118c.09-.02.19-.021.28-.002 3.37.3 6.53 0 9.9.35l.5.37a24.93 24.93 0 0 1-8.26.98zm5.4 3.45c.92-1.487 2-2.878 3.2-4.15l.27.27c-.34 1.66-.84 3.282-1.51 4.84a8.03 8.03 0 0 1-3 3.77 7.753 7.753 0 0 1 1.04-4.73zm4.89 3.15c-.21-2.08-.41-4.08-.63-6.16l1 1.73a20.626 20.626 0 0 1 1.7 6.06c.03.248.01.5-.06.74-.04.121-.1.23-.2.315a.672.672 0 0 1-.33.165.839.839 0 0 1-.39-.1.825.825 0 0 1-.31-.27 4.484 4.484 0 0 1-.78-2.48z" fill="#FAFAFA"/><path d="M1208.5 248.11l28.7 9.43 4.77-12.21-28.29-13.65-5.18 16.43z" fill="#FFBF9D"/><path d="M1233.38 256.4l.81.32s0 15.93 2.52 17.12l10.85-27.27-9.22-3.23c.16 2.405-.2 4.817-1.06 7.07a16.645 16.645 0 0 1-3.9 5.99z" fill="#06BE9E"/><path d="M1240.12 247.28a1.202 1.202 0 0 1 1.58-.26c.24.175.4.434.45.724.05.29-.01.59-.17.836-.2.244-.47.407-.78.457-.31.05-.63-.017-.89-.187a1.189 1.189 0 0 1-.11-1.65" fill="#fff"/><path d="M1247.56 246.57l-2.22-.77-9.56 26.41s0 1.43 1 1.63l10.78-27.27zm-13.33 10.28c.13.05.46-.59 1.15-1.08.69-.49 1.38-.61 1.38-.75s-.85-.25-1.68.35-.98 1.46-.85 1.48zm.05 3.33c.11.08.57-.41 1.31-.63.74-.22 1.39-.13 1.44-.26.05-.13-.67-.52-1.59-.22-.92.3-1.29 1.06-1.16 1.11zm2.77 2.98c.08-.11-.51-.56-1.38-.5-.87.06-1.4.56-1.31.66.09.1.63-.13 1.34-.17.71-.04 1.29.13 1.35.01zm-105.87-80.38s21 42.84 26.7 46.13c5.7 3.29 70.68 26.45 70.68 26.45l5-15.46-58.87-31.08s-7.69-21-10.55-36.9c-1.76-9.75-5.78-15.47-11.57-23.08a39.31 39.31 0 0 0-6.29-6.67l-26.45 5 11.35 35.61z" fill="#1A2E35"/><path d="M1112.56 148.55l28.4-4.75 5.78 33.37-5.75 70.11s4 24.37 3.3 40.41c-.61 15.12-1.2 20.83-1.2 20.83l-15 .05c-1.16 0-11.6-75.89-11.6-75.89l-3.93-84.13z" fill="#1A2E35"/><path d="M1125.56 166.86c.05.172.11.339.18.5.16.35.36.81.61 1.39.55 1.25 1.31 3 2.25 5.1 1.88 4.36 4.46 10.31 7.3 16.89s5.73 12.45 7.93 16.61c1.11 2.08 2 3.76 2.68 4.9.31.54.57 1 .76 1.31.08.157.18.304.29.44a2.813 2.813 0 0 0-.22-.48c-.17-.35-.4-.79-.69-1.35-.63-1.21-1.5-2.89-2.56-4.95-2.13-4.2-4.92-10.07-7.81-16.65-2.89-6.58-5.45-12.56-7.42-16.84-1-2.14-1.79-3.87-2.37-5l-.67-1.36c-.07-.179-.15-.35-.26-.51zm104.91 76.27c-.05.1.31.38.8.61.49.23.94.35 1 .25.06-.1-.31-.38-.81-.62s-.9-.34-.99-.24zm-7.11-3.43a9.84 9.84 0 0 0 3.56 1.72c.05-.11-.71-.57-1.69-1a4.81 4.81 0 0 0-1.87-.72zm-7.1-3.42c.49.441 1.07.78 1.69 1 .57.351 1.2.582 1.86.68a4.861 4.861 0 0 0-1.68-1.05 4.721 4.721 0 0 0-1.87-.63zm-7.07-3.52a9.339 9.339 0 0 0 3.54 1.74 4.861 4.861 0 0 0-1.68-1.05 5.005 5.005 0 0 0-1.86-.69zm-7.07-3.48a9.792 9.792 0 0 0 3.54 1.76 9.395 9.395 0 0 0-3.54-1.76zm-7.05-3.58a9.78 9.78 0 0 0 3.52 1.78 4.824 4.824 0 0 0-1.67-1.08 4.673 4.673 0 0 0-1.85-.7zm-7.03-3.61a9.509 9.509 0 0 0 3.51 1.81c.06-.1-.69-.59-1.66-1.09a4.847 4.847 0 0 0-1.85-.72zm-6.98-3.69a4.91 4.91 0 0 0 1.65 1.11c.56.37 1.18.626 1.84.75a4.985 4.985 0 0 0-1.65-1.11 4.73 4.73 0 0 0-1.84-.75zm-6.87-3.88a9.668 9.668 0 0 0 3.41 2 4.894 4.894 0 0 0-1.6-1.16 4.747 4.747 0 0 0-1.81-.84zm-4.3-5.87c-.07.67-.03 1.347.14 2 .04.242.06.486.07.73v.16a.37.37 0 0 0 .06.25c.06.097.13.184.22.26.28.25.49.34.53.3.04-.04-.11-.22-.31-.5a.876.876 0 0 1-.13-.21v-.07a.544.544 0 0 0 0-.18c.03-.266.03-.534 0-.8a4.41 4.41 0 0 0-.58-1.94zm-1.83-7.68c-.04.679.05 1.359.28 2 .09.664.33 1.301.68 1.87a5.037 5.037 0 0 0-.28-2 4.82 4.82 0 0 0-.68-1.87zm-2.02-7.63c-.04.681.07 1.362.31 2 .11.659.35 1.289.71 1.85a4.873 4.873 0 0 0-.31-2 4.925 4.925 0 0 0-.71-1.85zm-2.12-7.61c-.03.683.09 1.365.34 2 .11.657.36 1.284.73 1.84a4.814 4.814 0 0 0-.34-1.95 4.952 4.952 0 0 0-.73-1.89zm-2.19-7.59c-.02.683.1 1.364.35 2 .12.655.38 1.277.75 1.83a5.06 5.06 0 0 0-.35-2 5.063 5.063 0 0 0-.75-1.83zm-2.29-7.56c0 .668.13 1.33.38 1.95.13.657.4 1.279.78 1.83a4.739 4.739 0 0 0-.38-2 4.87 4.87 0 0 0-.78-1.78zm-2.64-7.43c.11.652.3 1.287.57 1.89.16.648.46 1.254.87 1.78a4.986 4.986 0 0 0-.49-1.93c-.34-1.04-.85-1.8-.95-1.74zm-4.24-6.65c-.1.07.32.85.93 1.75.61.9 1.19 1.58 1.29 1.52a4.912 4.912 0 0 0-.94-1.75c-.63-.91-1.2-1.58-1.28-1.52zm-4.67-6.38c.22.629.56 1.21 1 1.71.65.87 1.25 1.53 1.35 1.46a5.137 5.137 0 0 0-1-1.71c-.68-.87-1.25-1.53-1.35-1.46zm-3.6-4.72c-.09.07.11.48.44.91.33.43.68.73.77.66.09-.07-.11-.48-.44-.91-.33-.43-.68-.73-.77-.66z" fill="#375A64"/><path d="M1140.93 204.1c.11 0 .24-.42.28-1 .04-.58 0-1-.13-1s-.24.43-.28 1c-.04.57.02.99.13 1zm-.62 8.18c.26-.635.38-1.316.36-2 .13-.684.13-1.386 0-2.07a4.896 4.896 0 0 0-.36 2 5.154 5.154 0 0 0 0 2.07zm-.54 8.22c.35-1.337.44-2.729.26-4.1a5.057 5.057 0 0 0-.34 2c-.12.698-.09 1.413.08 2.1zm-.4 8.2c.23-.642.32-1.321.29-2 .1-.688.06-1.387-.11-2.06-.23.64-.33 1.32-.3 2-.09.688-.05 1.388.12 2.06zm-.19 8.21c.2-.646.28-1.324.24-2 .07-.692.01-1.392-.18-2.06-.2.646-.29 1.324-.24 2-.08.692-.02 1.393.18 2.06zm.05 8.21c.2-.667.26-1.368.18-2.06a1.014 1.014 0 0 0-.75.238 1.07 1.07 0 0 0-.26.315 1.085 1.085 0 0 0-.07.788c.04.13.11.25.2.354a1.018 1.018 0 0 0 .7.365zm.33 8.21c.2-1.367.13-2.759-.2-4.1a5.297 5.297 0 0 0-.11 2.06c-.03.694.08 1.386.31 2.04zm.58 8.2c.15-.681.16-1.383.05-2.07a5.467 5.467 0 0 0-.36-2 5.154 5.154 0 0 0 0 2.07c-.03.68.08 1.36.31 2zm.69 8.19c.14-.683.14-1.387 0-2.07 0-.685-.13-1.363-.38-2a5.542 5.542 0 0 0 0 2.07c0 .685.13 1.363.38 2zm.65 8.19c.13-.684.13-1.386 0-2.07a5.467 5.467 0 0 0-.36-2 5.154 5.154 0 0 0 0 2.07c-.02.684.1 1.365.36 2zm.44 8.2c.17-.673.21-1.373.11-2.06.03-.68-.07-1.36-.3-2a5.298 5.298 0 0 0-.11 2.06c-.03.68.07 1.359.3 2zm.08 8.22c.2-.663.27-1.36.21-2.05.08-.693.01-1.395-.2-2.06-.2.663-.27 1.359-.21 2.05-.08.693-.01 1.395.2 2.06zm-.44 8.2c.26-.635.38-1.316.36-2 .13-.684.13-1.386 0-2.07a5.256 5.256 0 0 0-.36 2 5.154 5.154 0 0 0 0 2.07zm-.8 6.06c.12 0 .27-.4.36-.95.09-.55 0-1-.06-1s-.27.41-.35.95c-.08.54-.06.98.05 1zm-8.66-159.88c.1.286.25.556.43.8.43.692.9 1.36 1.41 2a18.468 18.468 0 0 0 6.2 5.27 12.27 12.27 0 0 0 8 1.06 8.607 8.607 0 0 0 2.32-.88c.27-.132.53-.304.75-.51-1 .492-2.05.862-3.13 1.1-2.65.465-5.38.066-7.78-1.14a19.616 19.616 0 0 1-6.15-5.08c-1.3-1.57-1.99-2.66-2.05-2.62zm-14.17.49c.03.768.14 1.53.35 2.27.41 1.809.98 3.579 1.7 5.29a31.493 31.493 0 0 0 2.58 4.93c.38.667.84 1.288 1.37 1.85-.33-.69-.7-1.358-1.12-2a43.294 43.294 0 0 1-4.25-10.14c-.17-.745-.38-1.48-.63-2.2z" fill="#375A64"/><path d="M1144.36 95.81c.06 0 .06-.82.28-2.1a14.32 14.32 0 0 1 1.7-4.74 8.03 8.03 0 0 1 3.45-3.52c.64-.25 1.32-.359 2-.32 0 0-.18-.11-.56-.15a3.436 3.436 0 0 0-1.57.21c-1.6.737-2.91 2-3.69 3.58a13.112 13.112 0 0 0-1.64 4.9 5.92 5.92 0 0 0 .03 2.14z" fill="#1A2E35"/><path d="M1141.56 81.96l-18.79 14.37 5.4-16.67-4.56 2.33s-8.12 15-10.71 22.59c-1 2.93-1.75 5.941-2.24 9-.6 5.43 2.43 11.51 2.43 11.51l-2.6 19.57c-.36 2.12 1 4.15 1.94 4.15l29.41-3.95c3.84-.75 5.41-2.75 5.17-5l-.43-4.11 12.56-42.07c.74 2.48 1.51-6-4.1-8.11-2.34-.81-9.83-4.36-13.48-3.61z" fill="#06BE9E"/><path d="M1120.56 90.14c-.09.09-.17.19-.23.3-.17.24-.37.54-.61.9-.53.78-1.27 1.92-2.16 3.35a53.72 53.72 0 0 0-5.71 11.85 26.355 26.355 0 0 0-.88 13.07c.27 1.312.68 2.59 1.23 3.81.18.43.38.74.49 1 .06.112.12.22.2.32-.15-.463-.34-.914-.55-1.35a20.96 20.96 0 0 1-1.1-3.8 26.89 26.89 0 0 1 1-12.9 57.4 57.4 0 0 1 5.57-11.82l2-3.42c.22-.38.4-.68.54-.94.09-.108.17-.234.21-.37z" fill="#1A2E35"/><path d="M1117.56 141.85c.55.845.83 1.834.81 2.84 0 .35-.26.76-.6.71-.34-.05-.34-.25-.45-.44-1.88-3.38-3.66-6.26-5.54-9.64l.09-.67a26.702 26.702 0 0 1 5.69 7.2zm.51-8.05c-2 .115-4.01.031-6-.25v-.35c1.81-.8 3.7-1.427 5.63-1.87a9.077 9.077 0 0 1 5.46.4 8.869 8.869 0 0 1-5.09 2.07zm-.15-6.65l-5.66 4.77 1.25-2.27a23.152 23.152 0 0 1 4.63-5.49c.22-.187.47-.33.74-.42a.788.788 0 0 1 .79.2c.09.132.14.282.16.438.02.156 0 .315-.06.462a5.061 5.061 0 0 1-1.85 2.31zm16.58-5.87a23.335 23.335 0 0 1-4.89 2.05h-.34a27.746 27.746 0 0 1 3.77-4.07 9.117 9.117 0 0 1 5-2.2 8.838 8.838 0 0 1-3.54 4.22zm-4.17-4.76c-.9 2.22-1.77 4.33-2.67 6.55l-.07-2.28c.15-2.399.67-4.76 1.54-7 .1-.266.25-.508.45-.71a.798.798 0 0 1 .79-.2c.14.076.26.184.34.314.09.13.15.28.17.436.11.997-.08 2.002-.55 2.89z" fill="#FAFAFA"/><path d="M1119.21 114.36c.02.217.07.429.15.63.07.242.16.479.26.71.12.312.27.616.43.91.41.777.89 1.511 1.45 2.19.68.824 1.46 1.572 2.3 2.23.86.644 1.79 1.194 2.77 1.64.8.359 1.63.634 2.49.82.57.133 1.15.213 1.74.24.22.034.43.034.65 0 0-.07-.91-.12-2.33-.49a15.06 15.06 0 0 1-2.4-.88 14.356 14.356 0 0 1-4.94-3.78 14.742 14.742 0 0 1-1.48-2.08c-.74-1.29-1.02-2.16-1.09-2.14z" fill="#1A2E35"/><path opacity=".3" d="M1133.28 124a7.855 7.855 0 0 1-8.86.14 10.435 10.435 0 0 1-4.56-7.9 16.021 16.021 0 0 0 5.71 5.614c2.34 1.357 5 2.096 7.71 2.146zm17.38-18.72l3.57 5.08c-.75 2.81-1.73 5.47-2.47 8.28a23.981 23.981 0 0 1-1.1-13.36z" fill="#000"/><path d="M1202.34 164.91l5.13 8.15 11.37 3.41c.04-.381.01-.766-.11-1.132a2.74 2.74 0 0 0-.54-.998c-.79-.73 2.37.3 2.37.3l2.39 4.95s1.61-.11 1.49-1.5a36.285 36.285 0 0 0-1.88-5.75l-.85-.15c.13-.379.17-.782.11-1.178-.05-.396-.2-.773-.43-1.102a7.8 7.8 0 0 0-1.29-3.82 11.965 11.965 0 0 0-2.33-2.76l-9.94-4.1-5.49 5.68z" fill="#FFBF9D"/><path d="M1210.3 171.28c1.14.773 2.39 1.385 3.7 1.82 1.28.548 2.62.915 4 1.09 0-.1-1.74-.63-3.85-1.43-2.11-.8-3.81-1.63-3.85-1.48zm6.31-1.07c.91.546 1.89.982 2.9 1.3.96.445 1.97.78 3 1-.91-.55-1.89-.986-2.91-1.3-.96-.443-1.96-.778-2.99-1zm.14-2.49c.76.41 1.54.774 2.34 1.09.75.424 1.51.808 2.3 1.15a5.663 5.663 0 0 0-2.14-1.48 5.925 5.925 0 0 0-2.5-.76zm-.04-2.44c.58.36 1.2.655 1.85.88.6.336 1.23.601 1.89.79a4.298 4.298 0 0 0-1.74-1.12 4.2 4.2 0 0 0-2-.55z" fill="#FF9A6C"/><path d="M1149.26 86.41c-.55.425-1.02.939-1.4 1.52a14.084 14.084 0 0 0-2.15 4.52 14.05 14.05 0 0 0-.42 5c.03.686.18 1.363.44 2 .07 0-.09-.79-.15-2-.07-1.634.11-3.27.53-4.85a15.841 15.841 0 0 1 2-4.45c.67-1.1 1.2-1.69 1.15-1.74z" fill="#1A2E35"/><path d="M1152.72 85.37a5.66 5.66 0 0 0-3.54 1.545 5.645 5.645 0 0 0-1.71 3.455c-.27 3.1-.3 7.68 1.23 11.27 2.57 6 28.58 36.85 28.58 36.85l25.06 26.39 6.46-6.47s-13.33-21.77-15.13-24.4c-3.77-5.48-13.23-15.14-17-21.55-3.77-6.41-12.11-18.18-14.66-20.7-2.55-2.52-4.66-6.38-9.29-6.39z" fill="#06BE9E"/><path d="M1168.23 115.42c1.03.063 2.01.432 2.83 1.06.26.24.47.67.22.91a.757.757 0 0 1-.64.11c-3.92-.51-7.55-.81-11.48-1.31l-.3-.46a27.04 27.04 0 0 1 9.37-.31zm-6.34-5.3a29.105 29.105 0 0 1-3.69 4.59l-.22-.37c.37-1.863.93-3.682 1.67-5.43a9.352 9.352 0 0 1 3.64-4.26 9.028 9.028 0 0 1-1.4 5.47zm-5.56-4.22c.16 2.45.29 4.78.45 7.22l-1.08-2.07a24.068 24.068 0 0 1-1.7-7.14c-.03-.29.01-.584.1-.86.05-.138.13-.26.25-.353a.799.799 0 0 1 .39-.177c.16.007.32.052.46.132.14.08.25.193.34.328.55.874.82 1.89.79 2.92z" fill="#FAFAFA"/><path d="M1150.68 104.73s.05.13.18.34l.58.93c.53.79 1.31 1.92 2.31 3.3 2 2.75 4.85 6.48 8.07 10.54 3.22 4.06 6.22 7.68 8.42 10.28 1.09 1.29 2 2.33 2.62 3l.74.81c.17.19.27.28.28.27a1.446 1.446 0 0 0-.22-.32l-.68-.86c-.63-.79-1.49-1.84-2.52-3.13l-8.32-10.34c-3.22-4.06-6.11-7.76-8.16-10.46l-2.41-3.22c-.26-.36-.47-.65-.65-.88a1.887 1.887 0 0 0-.24-.26z" fill="#1A2E35"/><path d="M1191.91 131.68a27.115 27.115 0 0 1-9.31 1.1 5.145 5.145 0 0 1-2.91-.82c-.28-.21-.52-.62-.29-.89a.695.695 0 0 1 .29-.151c.11-.027.22-.03.33-.009 4 .17 7.6.16 11.55.33m-2.21 6.28a29.146 29.146 0 0 1 3.29-4.88l.25.35a27.72 27.72 0 0 1-1.2 5.55 9.35 9.35 0 0 1-3.27 4.55 9.11 9.11 0 0 1 .93-5.57zm5.88 4.45c-.36-2.42-.69-4.74-1.06-7.16l1.25 2a23.694 23.694 0 0 1 2.3 7c.06.287.06.583 0 .87a.878.878 0 0 1-.22.372.859.859 0 0 1-.38.208.975.975 0 0 1-.46-.094.983.983 0 0 1-.37-.296 5.34 5.34 0 0 1-1.06-2.9z" fill="#FAFAFA"/><path d="M991.1 11.76l-1.88 5.7 1.41 7.78-3.27-.91-1.23 4.82-30.99-13.76 35.96-3.63z" fill="#06BE9E"/><path opacity=".3" d="M987.42 24.36l1.46.39-.62-4.42-.84 4.03z" fill="#000"/><path opacity=".3" d="M989.22 17.46l-34.08-2.07 32.79 4.59 2.7 5.26-1.41-7.78z" fill="#000"/><path d="M955.14 15.39c.135.05.276.083.42.1l1.23.22 4.52.7 14.92 2.18 12 1.66-.15-.2c-.45 2.76-1 5-1.32 6.6-.18.75-.32 1.35-.43 1.82-.066.211-.11.43-.13.65.09-.2.163-.408.22-.62.14-.41.32-1 .53-1.8.43-1.57 1-3.83 1.47-6.59v-.18h-.18l-11.95-1.75-14.94-2.06-4.54-.57-1.25-.14a1.83 1.83 0 0 0-.42-.02z" fill="#1A2E35"/><path d="M955.14 15.39c0 .11 7.67.69 17.14 1.28 9.47.59 17.17 1 17.17.86s-7.66-.68-17.14-1.27-17.16-.98-17.17-.87zm35.49 9.89a10.125 10.125 0 0 0-1-2.67 9.902 9.902 0 0 0-1.4-2.49c.208.932.545 1.83 1 2.67.348.892.819 1.73 1.4 2.49zm34.93 8.09c0 .12.47.12 1 0s1-.29.93-.4c-.07-.11-.48-.11-1 0s-.93.31-.93.4zm-7.75-.62c.55.374 1.19.604 1.85.67.65.197 1.34.221 2 .07a6.26 6.26 0 0 0-1.89-.48 5.877 5.877 0 0 0-1.96-.26zm-6.77-3.78c-.08.08.51.75 1.41 1.38a3.92 3.92 0 0 0 1.77.87c.06-.1-.66-.59-1.53-1.21s-1.57-1.13-1.65-1.04zm-4.25-6.42c-.03.675.14 1.343.49 1.92.48 1 1.08 1.66 1.17 1.59a7.196 7.196 0 0 0-.8-1.77 8.71 8.71 0 0 0-.86-1.74zm2.65-6.63c-.68.094-1.3.453-1.72 1a2.624 2.624 0 0 0-.87 1.79c.13 0 .44-.76 1.17-1.51s1.48-1.17 1.42-1.28zm7.12 1.5c.09-.06-.4-.86-1.36-1.45a2.628 2.628 0 0 0-1.92-.52c0 .12.82.33 1.7.87s1.47 1.18 1.58 1.1zm1.23 7.36c.41-.543.63-1.202.63-1.88.14-.68.03-1.387-.29-2-.09.639-.13 1.284-.12 1.93-.09 1.07-.35 1.9-.22 1.95z" fill="#1A2E35"/><path d="M1012.56 30.28c.67-.082 1.3-.36 1.81-.8.91-.63 1.45-1.35 1.37-1.43-.08-.08-.74.49-1.61 1.09-.87.6-1.65 1.02-1.57 1.14zm-7.67 1a3.79 3.79 0 0 0 1.94.32 3.75 3.75 0 0 0 2-.31 6.522 6.522 0 0 0-1.94-.1 6.34 6.34 0 0 0-2 .09zm-7.48-2.13a4.657 4.657 0 0 0 1.77.85c.593.288 1.24.448 1.9.47a9.001 9.001 0 0 0-3.67-1.32zm-5.12-2.87c-.08.09.19.47.65.79.46.32.9.47 1 .37.1-.1-.28-.4-.72-.71-.44-.31-.85-.53-.93-.45z" fill="#1A2E35"/><path d="M1004.94 57.602l-34.641 6.728 4.533 23.344 34.638-6.728-4.53-23.344z" fill="#F5F5F5"/><path d="M970.24 64.6c.119.091.247.172.38.24l1.13.66 4.18 2.37 13.9 7.73.11.07.09-.1.2-.25 10.41-12.3 3.13-3.75.83-1c.1-.115.2-.239.28-.37-.12.1-.23.21-.33.33l-.88 1-3.2 3.69-10.48 12.2-.21.24h.2l-13.94-7.65-4.23-2.28-1.16-.6a1.892 1.892 0 0 0-.41-.23z" fill="#1A2E35"/><path d="M1009.41 81.22c.06-.07-3.17-2.77-7.2-6s-7.35-5.84-7.41-5.77c-.06.07 3.17 2.76 7.21 6s7.35 5.83 7.4 5.77zm-26.18-9.85c-.08 0-2 3.64-4.37 8.22s-4.16 8.31-4.09 8.35c.07.04 2-3.63 4.37-8.21 2.37-4.58 4.17-8.32 4.09-8.36z" fill="#1A2E35"/><path d="M1087.55 183.995l-34.64 6.728 4.53 23.344 34.65-6.728-4.54-23.344z" fill="#F5F5F5"/><path d="M1052.85 190.99c.11.1.24.185.38.25l1.13.66 4.2 2.38 13.89 7.73.12.06.08-.1.21-.24 10.41-12.3 3.12-3.75.84-1c.19-.24.28-.37.28-.37a2.19 2.19 0 0 0-.33.33l-.88 1-3.21 3.68-10.53 12.19-.2.25h.2l-13.94-7.65-4.23-2.28-1.16-.6a3.279 3.279 0 0 0-.38-.24z" fill="#1A2E35"/><path d="M1092.02 207.61c.06-.06-3.17-2.76-7.21-6s-7.35-5.84-7.4-5.77c-.05.07 3.17 2.76 7.2 6s7.35 5.84 7.41 5.77zm-26.18-9.84c-.08 0-2 3.64-4.37 8.21s-4.17 8.32-4.09 8.36c.08.04 2-3.63 4.37-8.21 2.37-4.58 4.16-8.32 4.09-8.36z" fill="#1A2E35"/><path d="M1080.15 107.09l-33.15-3.81-3.35 22.45 34.38 3.38 2.12-22.02zm0-.01l-14.34-14.39a1.786 1.786 0 0 0-2.27-.23L1047 103.28" fill="#06BE9E"/><path d="M1078.03 129.1s-2.29-3.22-5.23-7.11c-2.94-3.89-5.35-7-5.4-7-.05 0 2.3 3.22 5.23 7.12 2.93 3.9 5.36 7.03 5.4 6.99zm-34.38-3.37s2.93-2.52 6.46-5.72c3.53-3.2 6.36-5.84 6.32-5.88-.04-.04-2.93 2.52-6.46 5.72-3.53 3.2-6.36 5.84-6.32 5.88z" fill="#1A2E35"/><path d="M1078.34 108.14l1.17-10.36-29.01-3.46-1.5 10.86 13.25 13.02 16.09-10.06z" fill="#FAFAFA"/><path d="M1078.34 108.14c-.11.046-.21.103-.31.17l-.87.51-3.27 2-11.72 7.25h.19l-13.23-13 .06.16c.28-2.08.59-4.25.89-6.46.21-1.49.41-3 .61-4.41l-.21.16 29 3.4-.11-.13-.8 7.61c-.08.87-.15 1.55-.2 2V107.95l.07-.52c.06-.48.15-1.15.26-2 .22-1.8.53-4.39.92-7.63v-.12h-.13l-29-3.53h-.18v.19c-.2 1.44-.4 2.91-.61 4.4-.3 2.22-.6 4.39-.89 6.46v.1l.07.07 13.27 13 .09.09.1-.07 11.7-7.4 3.21-2.05.83-.55c.1-.073.18-.157.26-.25z" fill="#E1E1E1"/><path d="M1054.56 100.03c0 .1 4.42.69 9.89 1.31 5.47.62 9.93 1 9.94.94.01-.06-4.42-.69-9.89-1.32-5.47-.63-9.94-1.04-9.94-.93zm-.34 2.92c0 .11 4.41.7 9.89 1.32 5.48.62 9.92 1 9.93.94.01-.06-4.41-.7-9.89-1.32-5.48-.62-9.92-1.04-9.93-.94zm-.37 3.33c0 .11 4.42.7 9.9 1.32 5.48.62 9.92 1 9.93.94.01-.06-4.41-.7-9.89-1.32-5.48-.62-9.93-1-9.94-.94zm-.36 3.42c0 .1 4.21.67 9.44 1.26 5.23.59 9.47 1 9.48.89.01-.11-4.21-.67-9.44-1.27-5.23-.6-9.47-.99-9.48-.88zm3.4 3.36c.54.168 1.1.275 1.66.32 1 .16 2.46.35 4 .54 1.54.19 3 .34 4.06.43.56.079 1.13.099 1.69.06-.54-.179-1.1-.29-1.66-.33-1-.15-2.46-.34-4-.54s-3-.34-4-.42a7.33 7.33 0 0 0-1.75-.06zm3.43 3.22c1.37.396 2.8.549 4.23.45a6.325 6.325 0 0 0-2.09-.42 6.013 6.013 0 0 0-2.14-.03z" fill="#E1E1E1"/><path d="M1018.64 141.51l-27.02 19.57 12.69 18.82 27.64-20.72-13.31-17.67z" fill="#06BE9E"/><path d="M1018.65 141.51l-20.29-.94a1.831 1.831 0 0 0-1.85 1.36l-4.89 19.14" fill="#06BE9E"/><path d="M1031.95 159.18c0-.06-3.87-.82-8.66-1.71s-8.69-1.57-8.7-1.52c-.01.05 3.86.83 8.66 1.72 4.8.89 8.69 1.61 8.7 1.51zm-27.64 20.72s.46-3.84.9-8.58.75-8.6.69-8.6c-.06 0-.46 3.83-.9 8.58s-.75 8.6-.69 8.6z" fill="#1A2E35"/><path d="M1018.02 143.5l-6.13-8.42-23.74 17.02 6.23 9.03 18.56.66 5.08-18.29z" fill="#FAFAFA"/><path d="M1018.03 143.5c-.05.109-.09.223-.12.34l-.29 1c-.25.87-.61 2.11-1.07 3.68-.9 3.2-2.19 7.75-3.76 13.26l.16-.11-18.56-.7.15.08c-1.19-1.72-2.44-3.53-3.7-5.37-.86-1.23-1.7-2.46-2.53-3.66v.27l23.71-17.09h-.17l4.54 6.15 1.24 1.64.32.42c.04.051.08.098.13.14l-.09-.15-.3-.43-1.17-1.66-4.48-6.26-.07-.1-.1.08-23.78 17-.15.11.11.15 2.52 3.66 3.71 5.37.05.07h.1l18.56.63h.12v-.12c1.52-5.55 2.76-10.13 3.64-13.35.42-1.57.75-2.81 1-3.69.1-.4.19-.72.25-1s.03-.36.03-.36z" fill="#E1E1E1"/><path d="M994.98 153.59c.06.09 3.73-2.47 8.19-5.7 4.46-3.23 8-5.93 8-6 0-.07-3.73 2.47-8.19 5.71-4.46 3.24-8.06 5.91-8 5.99zm1.739 2.37c.07.09 3.731-2.47 8.191-5.7 4.46-3.23 8-5.93 8-6 0-.07-3.72 2.47-8.18 5.71-4.46 3.24-8.071 5.91-8.011 5.99zm2.011 2.74c.07.08 3.73-2.47 8.19-5.71 4.46-3.24 8-5.93 8-6 0-.07-3.72 2.47-8.18 5.71-4.46 3.24-8.07 5.91-8.01 6zm2.01 2.73c.06.09 3.56-2.35 7.82-5.44 4.26-3.09 7.65-5.66 7.59-5.74-.06-.08-3.56 2.35-7.82 5.43-4.26 3.08-7.65 5.67-7.59 5.75zm4.82.19c.51-.241.99-.536 1.44-.88.87-.59 2.05-1.41 3.34-2.33 1.29-.92 2.46-1.78 3.28-2.42.47-.317.9-.686 1.29-1.1-.51.241-1 .536-1.45.88-.86.58-2 1.41-3.34 2.33-1.34.92-2.45 1.78-3.28 2.42-.47.314-.9.683-1.28 1.1zm4.68.08c.67-.264 1.29-.64 1.83-1.11a6.282 6.282 0 0 0 1.6-1.41c-.67.256-1.29.628-1.83 1.1-.61.377-1.15.857-1.6 1.42z" fill="#E1E1E1"/><path d="M1316.02 120.77c-.76-4.064-.44-8.258.94-12.158a23.495 23.495 0 0 1 6.9-10.052s1.82-.66 1.66 1.37c-.09 1.22 1.08 2.94 2 2.19 1.69-1.3 1.16-4 1.88-6 .85-2.35 3.35-3.6 5.64-4.6a58.887 58.887 0 0 1 13-4.46c4.54-.97 9.26-.472 13.5 1.42l-3 6.06c-.16.378-.4.718-.7 1-.6.361-1.31.486-2 .35l-5.49-.4c-.8-.06-1.83 0-2.06.79-.23.79.78 1.51 1.62 1.82l5.76 2.06a18.432 18.432 0 0 1-7.62 6.35 55.363 55.363 0 0 1-9.48 3.24c-1 .386-2.1.469-3.15.24-1.68-.54-2.84-2.63-4.59-2.38.09.972.38 1.915.84 2.774a7.41 7.41 0 0 0 1.86 2.226c-6.79 2.66-11.52 5.92-17.61 8.15" fill="#06BE9E"/><path d="M1310.2 150.9a.485.485 0 0 0 0-.17l.12-.52.42-2c.35-1.76.86-4.28 1.48-7.37.31-1.56.65-3.27 1-5.1l.56-2.84.29-1.49c.07-.5.15-1 .22-1.54.63-4.13 1.38-8.74 3.39-13.13a33.403 33.403 0 0 1 8.41-10.57 71.04 71.04 0 0 1 9-6.61c2.67-1.71 4.9-3 6.43-3.9l1.76-1 .45-.28c.1-.06.16-.09.15-.1a.777.777 0 0 0-.16.08l-.47.24-1.8 1c-1.54.87-3.79 2.13-6.49 3.81a70.12 70.12 0 0 0-9 6.59 44.956 44.956 0 0 0-4.65 4.69 26.535 26.535 0 0 0-3.85 6c-2 4.45-2.78 9.09-3.4 13.23l-.21 1.54c-.1.5-.19 1-.29 1.48-.18 1-.36 1.93-.54 2.84-.35 1.84-.69 3.543-1 5.11l-1.38 7.39c-.15.86-.27 1.53-.35 2 0 .22-.07.39-.09.53v.09z" fill="#1A2E35"/><path d="M1310.56 94.51l-.21.2a40.414 40.414 0 0 0 14.44-15.923 40.357 40.357 0 0 0 4.2-21.077c-2.08.33-3.16 2.56-4.22 4.38-1.06 1.82-3.15 3.66-5 2.68-1.59-.83-1.64-3.19-.75-4.73.89-1.54 2.43-2.61 3.59-4 2.73-3.2 3.17-7.86 2.18-11.94-.99-4.08-3.23-7.74-5.44-11.31a21.338 21.338 0 0 0-7.73 3.917 21.403 21.403 0 0 0-5.55 6.663c1.72 1.26 3.51 2.62 4.34 4.58.83 1.96.24 4.69-1.75 5.44a4.07 4.07 0 0 1-4.24-1.33 11.794 11.794 0 0 1-2.15-4.17 61.97 61.97 0 0 0-2.31 22.82c1.87-1.84 5.73 0 5.47 2.61-.26 2.61-4.4 3.68-5.87 1.5a57.906 57.906 0 0 0 11 19.69zm-.37-33.76c-.03.352-.16.69-.36.978-.21.288-.49.517-.81.662-.45.215-.95.326-1.45.326-.51 0-1-.111-1.46-.326a5.388 5.388 0 0 1-2.23-2 4.28 4.28 0 0 1-.74-1.67c-.05-.304-.04-.616.03-.916.07-.3.21-.58.4-.824a1.492 1.492 0 0 1 1.65-.44c1.44.441 2.76 1.196 3.87 2.21.32.235.58.535.77.88.19.345.31.727.34 1.12h-.01z" fill="#06BE9E"/><path d="M1307.47 150.9v-.23-.67c0-.61 0-1.47.09-2.57l.38-9.48c.36-8 .92-19 1.82-31.22.9-12.22 1.94-23.2 2.81-31.15.42-4 .82-7.2 1.09-9.42.12-1.1.22-2 .29-2.56 0-.28 0-.5.07-.67a.885.885 0 0 0 0-.23v.23c0 .16-.06.38-.1.66-.09.6-.21 1.46-.36 2.55-.31 2.22-.74 5.43-1.19 9.41-.93 8-2 19-2.91 31.16-.91 12.16-1.42 23.23-1.72 31.23-.14 4-.23 7.24-.27 9.48v3.25a.885.885 0 0 0 0 .23z" fill="#1A2E35"/><path d="M1330.91 137.44l-5.84 24.79h-30.64l-6.48-24.79h42.96z" fill="#375A64"/><path d="M1321.28 157.02c0 .47-2.37 14.68-2.37 14.68h-18.64l-2-14.68h23.01z" fill="#375A64"/><path d="M1295.28 162.11c0 .09 6.69.17 14.93.17 8.24 0 14.93-.08 14.93-.17 0-.09-6.68-.16-14.93-.16s-14.93.07-14.93.16zm-3.19-9.99c0 .09 7.89.16 17.61.16 9.72 0 17.61-.07 17.61-.16s-7.88-.17-17.61-.17-17.61.08-17.61.17zm1.38 3.45c0 .09 7.42.16 16.58.16 9.16 0 16.57-.07 16.57-.16s-7.42-.16-16.57-.16-16.58.07-16.58.16zm.09 3.45c0 .09 7.16.17 16 .17s16-.08 16-.17c0-.09-7.16-.16-16-.16s-16 .07-16 .16zm-2.36-10.26c0 .09 8.24.17 18.4.17 10.16 0 18.4-.08 18.4-.17 0-.09-8.23-.16-18.4-.16-10.17 0-18.4.07-18.4.16zm-.59-2.76c0 .09 8.39.16 18.75.16s18.74-.07 18.74-.16-8.39-.16-18.74-.16c-10.35 0-18.75.07-18.75.16z" fill="#1A2E35"/></svg>