<svg width="1382" height="330" fill="none" xmlns="http://www.w3.org/2000/svg"><path d="M1364 4H16C7.163 4 0 11.163 0 20v293c0 8.837 7.163 16 16 16h1348c8.84 0 16-7.163 16-16V20c0-8.837-7.16-16-16-16z" fill="#D9EEED"/><path d="M265.2 86.08h-7.57v25.37h7.57V86.08z" fill="#fff"/><path d="M201.94 82.4h-7.57v29.05h7.57V82.4z" fill="#048B86"/><path d="M217.75 76.35h-7.57v35.1h7.57v-35.1z" fill="#fff"/><path d="M233.57 78.27H226v33.18h7.57V78.27zm15.82-11.22h-7.57v44.4h7.57v-44.4zm31.63.21h-7.57v44.18h7.57V67.26z" fill="#048B86"/><path d="M296.83 81.78h-7.57v29.67h7.57V81.78zm15.82-12.57h-7.57v42.24h7.57V69.21z" fill="#fff"/><path d="M328.46 59.7h-7.57v51.75h7.57V59.7z" fill="#048B86"/><path d="M344.28 68.99h-7.57v42.45h7.57V68.99zM149.62 49.78h-113L55 63.07v26.17a5.45 5.45 0 0 0 5.46 5.45h89.16a5.459 5.459 0 0 0 5.46-5.45v-34a5.46 5.46 0 0 0-5.46-5.46z" fill="#fff"/><path d="M144.9 68.24c0 .11-17 .2-38.07.2s-38.07-.09-38.07-.2c0-.11 17-.19 38.07-.19s38.07.09 38.07.19zm0 10.05c0 .11-17 .2-38.07.2s-38.07-.09-38.07-.2c0-.11 17-.2 38.07-.2s38.07.09 38.07.2z" fill="#E1E1E1"/><path d="M44.37 289.72s-19.54-22.48-26.91-45c-7.37-22.52-3.87-19.9-3.87-19.9s10 21.84 17.51 32.39c7.51 10.55 21 26 21 26l-7.73 6.51z" fill="#048B86"/><path d="M48.24 228.36a1.137 1.137 0 0 0-1.364-.517 1.137 1.137 0 0 0-.756 1.247c1.19 7.89 3.77 26.42 3.67 38.44-.14 15.62 0 21.65 0 21.65h8.15s-1.44-32.27-3.28-42.11c-1.29-6.91-4.02-14.56-6.42-18.71z" fill="#048B86"/><path d="M52.69 286.56a86.001 86.001 0 0 0 6.69-24.27c.67-5.75-.52-13.52-2.3-23.88a65.327 65.327 0 0 1-1-11.49 1.941 1.941 0 0 1 3.65-.91c1 1.75 3.82 7.73 4.54 11.48 2 10.23 4.2 15.35 2.49 25.06-1.71 9.71-8 24.66-8 24.66l-6.07-.65zm7.32.68s21.45-46.08 22.94-52.92c1.49-6.84 6.54-22.59 7.13-21.7.59.89 1.49 9.21-2.38 18.73s-20.36 57.3-20.36 57.3h-7.33" fill="#048B86"/><path d="M50.34 285.15c-.21-.123-.41-.26-.6-.41-.38-.29-1-.69-1.66-1.27a74.887 74.887 0 0 1-5.76-5.09 96.36 96.36 0 0 1-15.56-20 130.757 130.757 0 0 1-10.62-23c-1.08-3.06-1.87-5.57-2.38-7.31-.26-.87-.44-1.55-.57-2a3.783 3.783 0 0 1-.16-.71c.098.221.181.448.25.68.16.5.38 1.16.65 2 .56 1.72 1.4 4.21 2.51 7.25a139.64 139.64 0 0 0 10.71 22.88 101.109 101.109 0 0 0 15.39 20c2.3 2.28 4.26 4 5.65 5.18.69.6 1.25 1 1.61 1.34.194.136.375.29.54.46zm2.35-22.11a7.73 7.73 0 0 1-.19-1.35c-.1-.95-.24-2.2-.4-3.69-.34-3.12-.87-7.42-1.62-12.15-.75-4.73-1.61-9-2.27-12-.31-1.47-.58-2.69-.78-3.63a8.585 8.585 0 0 1-.19-1.38c.179.419.316.854.41 1.3.25.84.56 2.07.93 3.6.74 3.05 1.63 7.31 2.4 12s1.24 9.05 1.49 12.18c.13 1.57.22 2.84.26 3.72.024.467.01.935-.04 1.4zm5.02-37.4c.104.189.19.386.26.59.16.43.37 1 .64 1.71s.61 1.66.92 2.75c.31 1.09.73 2.3 1 3.69.17.69.35 1.41.53 2.16.18.75.31 1.56.48 2.38.35 1.63.56 3.41.82 5.27.462 4.052.633 8.133.51 12.21a86.095 86.095 0 0 1-1.38 12.15c-.39 1.84-.74 3.6-1.2 5.2-.23.81-.41 1.6-.64 2.33l-.65 2.16c-.41 1.36-.91 2.55-1.3 3.6-.39 1.05-.78 2-1.12 2.68l-.76 1.66a2.68 2.68 0 0 1-.3.56c.056-.205.126-.405.21-.6.18-.43.41-1 .69-1.69.28-.69.67-1.63 1-2.7.33-1.07.85-2.25 1.23-3.61l.66-2.12c.22-.74.4-1.53.61-2.33.45-1.61.77-3.36 1.15-5.19a90.008 90.008 0 0 0 1.35-12.08 89.071 89.071 0 0 0-.44-12.18c-.24-1.86-.45-3.62-.78-5.26-.15-.81-.27-1.61-.44-2.36-.17-.75-.34-1.48-.5-2.17-.29-1.38-.68-2.6-1-3.69-.32-1.09-.58-2-.84-2.76l-.54-1.76a4.82 4.82 0 0 1-.17-.6zm32.13-12.13c.004.07.004.14 0 .21 0 .16-.06.36-.1.6-.09.52-.21 1.3-.42 2.29-.41 2-1.1 4.84-2.18 8.3-1.08 3.46-2.53 7.52-4.27 12-1.74 4.48-3.76 9.33-5.63 14.48s-3.42 10.21-4.82 14.78c-1.4 4.57-2.71 8.69-4 12.09a79.846 79.846 0 0 1-3.38 7.88c-.44.91-.84 1.59-1.09 2.06l-.3.53c-.07.12-.11.17-.12.17-.01 0 0-.07.08-.19l.26-.55c.22-.48.59-1.18 1-2.1.86-1.83 2-4.51 3.24-7.91 1.24-3.4 2.51-7.51 3.87-12.1 1.36-4.59 2.86-9.64 4.8-14.82s3.93-10 5.68-14.49c1.75-4.49 3.25-8.49 4.36-11.93 1.11-3.44 1.84-6.27 2.31-8.24.23-1 .38-1.75.5-2.27.06-.24.11-.43.14-.59a.804.804 0 0 1 .07-.2z" fill="#1A2E35"/><path d="M23.7 203.33a1.841 1.841 0 0 0-3 1.89 52.026 52.026 0 0 0 2.69 6.93c2.95 6.26 11.61 28.74 15.66 41.09 4.05 12.35 9.77 35.38 9.77 35.38l8.63-1.38s-7.92-37.84-15.66-51.48c-6.22-10.98-12.44-26.82-18.09-32.43z" fill="#048B86"/><path d="M41.39 260.96c.185.317.335.652.45 1 .25.68.6 1.67 1 2.9.79 2.47 1.77 5.92 2.75 9.75s1.8 7.33 2.37 9.85c.26 1.2.48 2.2.65 3 .096.367.156.742.18 1.12a4.992 4.992 0 0 1-.35-1.07c-.21-.79-.48-1.79-.8-3l-2.49-9.81c-1-3.83-1.91-7.28-2.62-9.77-.35-1.18-.63-2.16-.86-2.95a5.169 5.169 0 0 1-.28-1.02zm11.75 26.96a.677.677 0 0 1 0-.24c0-.18-.06-.4-.1-.68-.09-.6-.17-1.48-.35-2.62-.32-2.27-.89-5.55-1.82-9.55a135.753 135.753 0 0 0-4-13.83c-1.78-5.13-4-10.67-6.53-16.4-5.09-11.46-10.18-21.62-13.52-29.14-1.69-3.75-3-6.81-3.86-8.94-.44-1.06-.76-1.9-1-2.46-.1-.26-.18-.48-.24-.65-.06-.17-.08-.22-.07-.22.043.066.08.137.11.21l.28.62c.26.593.61 1.403 1.05 2.43.91 2.11 2.27 5.15 4 8.88 3.42 7.47 8.55 17.61 13.65 29.08 2.53 5.75 4.75 11.3 6.51 16.45a131.892 131.892 0 0 1 4 13.9 95.86 95.86 0 0 1 1.67 9.6c.16 1.14.21 2 .27 2.63 0 .28.02.51.06.69a.752.752 0 0 1-.11.24zm4.31-.68a8.602 8.602 0 0 1-.3-1.45c-.17-1-.39-2.36-.67-4-.6-3.35-1.51-8-2.82-13-1.31-5-2.75-9.51-3.88-12.73-.55-1.55-1-2.83-1.35-3.8a8.5 8.5 0 0 1-.46-1.41c.242.429.45.878.62 1.34.38.88.9 2.16 1.5 3.76a126.357 126.357 0 0 1 4 12.72c1.31 5.05 2.17 9.69 2.69 13.07.25 1.69.44 3.05.53 4 .089.495.136.997.14 1.5z" fill="#1A2E35"/><path d="M75.21 285.97H41.42v41.17h33.79v-41.17z" fill="#FBB626"/><path opacity=".3" d="M75.21 285.83H41.42V327h33.79v-41.17z" fill="#000"/><path d="M64.43 285.97H34.45v41.17h29.98v-41.17z" fill="#FFDC6B"/><path d="M1251.58 27.069l-5.93.032.16 29.49 5.93-.033-.16-29.49zm-41.93.067l-15.35.083.09 16.28 15.35-.083-.09-16.28z" fill="#048B86"/><path d="M1224.93 27.053l-15.35.083.09 16.28 15.35-.083-.09-16.28z" fill="#F5F5F5"/><path d="M1194.33 31.79c10.2.08 20.41.033 30.62-.14.04-.01.07-.03.09-.06.03-.03.04-.067.04-.105a.141.141 0 0 0-.04-.105.143.143 0 0 0-.09-.06c-10.2-.06-20.41.003-30.62.19-.04 0-.07.015-.1.041a.125.125 0 0 0-.04.099c0 .037.01.073.04.099.03.026.06.041.1.041z" fill="#E1E1E1"/><path d="M1212.63 43.15l-27.88.15.07 13.27 27.88-.15-.07-13.27z" fill="#048B86"/><path d="M1240.38 43l-27.88.15.07 13.27 27.88-.15-.07-13.27z" fill="#F5F5F5"/><path d="M1184.76 47.06c18.52.21 37.11 0 55.63-.28.04 0 .08-.017.11-.047s.05-.07.05-.113a.163.163 0 0 0-.05-.113.157.157 0 0 0-.11-.047c-18.52-.1-37.11-.09-55.63.32-.04 0-.07.015-.1.041a.125.125 0 0 0-.04.1c0 .036.01.072.04.098.03.026.06.041.1.041z" fill="#E1E1E1"/><path d="M1282.35 56.63h-108.02v4.75h108.02v-4.75z" fill="#048B86"/><path d="M1196.41 58.92h-4.39v16.22h4.39V58.92zm65.46 0h-4.39v16.22h4.39V58.92zm-4.51-42.853l-5.93.033.22 40.559 5.93-.032-.22-40.56z" fill="#048B86"/><path d="M1266.62 23.637l-9.21.05.18 32.87 9.21-.05-.18-32.87z" fill="#F5F5F5"/><path d="M1266.55 30.02c-1.53.16-3.06.214-4.6.16-1.54.054-3.07 0-4.6-.16 3.06-.213 6.14-.213 9.2 0zm0-1.38c-1.53.16-3.06.214-4.6.16-1.54.054-3.07 0-4.6-.16 3.06-.213 6.14-.213 9.2 0zm0 22.97c-3.06.213-6.14.213-9.2 0 3.06-.213 6.14-.213 9.2 0zm0-1.37c-3.06.213-6.14.213-9.2 0 3.06-.213 6.14-.213 9.2 0zm-4.45-3c-.09 0-.16-3.31-.16-7.4s.07-7.41.16-7.41.16 3.32.16 7.41-.02 7.4-.16 7.4z" fill="#E1E1E1"/><path d="M1276.67 31.76h-10.02v24.81h10.02V31.76z" fill="#048B86"/><path d="M1256.01 23.06c0 .339-.1.67-.28.954a1.75 1.75 0 0 1-.77.634 1.71 1.71 0 0 1-1.87-.369c-.24-.24-.4-.545-.47-.878-.06-.333-.03-.677.1-.99.13-.313.35-.58.64-.767a1.724 1.724 0 0 1 1.6-.155c.21.086.39.21.55.369.16.158.28.345.37.551.09.207.13.428.13.65zm-1.18 4.69h-1.05v24.13h1.05V27.75z" fill="#E1E1E1"/><path d="M1337.01 324.4V54.18h-3.34v270.28l-27.66 2.08v2.05l58.6.19c0-.75.06-1.49.1-2.24l-27.7-2.14z" fill="#048B86"/><path d="M1316.24 32.64l-12.42 55.51h63.04l-14.18-55.34-36.44-.17z" fill="#048B86"/><path d="M1327.79 110.64c-.14 0-.24-6.81-.22-15.21.02-8.4.15-15.22.29-15.22.14 0 .25 6.81.23 15.22-.02 8.41-.15 15.21-.3 15.21z" fill="#048B86"/><path d="M1327.9 110.07c-.05-.08.55-.29 1.14.31.17.173.3.385.37.619.08.233.09.48.05.721-.04.221-.13.431-.26.614s-.3.334-.5.443a1.531 1.531 0 0 1-1.3.084 1.574 1.574 0 0 1-.55-.376 1.446 1.446 0 0 1-.33-.576 1.495 1.495 0 0 1-.06-.664c.03-.223.11-.436.23-.625.46-.71 1.09-.62 1.06-.53-.03.09-.41.22-.61.76a1.13 1.13 0 0 0 0 .89c.1.13.24.232.39.296.16.065.33.09.49.073a.946.946 0 0 0 .46-.169c.14-.094.25-.222.33-.37.03-.149.04-.303.01-.453a1.07 1.07 0 0 0-.18-.417c-.3-.46-.74-.52-.74-.63z" fill="#048B86"/><path d="M1072.48 151.4v29.94l10.25 11.06h-10.25v53.39h-98.21V151.4h98.21z" fill="#fff"/><path d="M974.24 158.57h98.21v-7.07h-98.21v7.07zm98.18 72.32v15h-98.18v-15h98.18z" fill="#048B86"/><path d="M1058.56 155.29c0 .261.08.516.22.733.15.217.35.387.59.486a1.307 1.307 0 0 0 1.44-.286c.19-.184.31-.419.36-.675.06-.257.03-.522-.07-.763s-.27-.448-.49-.593a1.295 1.295 0 0 0-.73-.222c-.35 0-.69.139-.93.387-.25.247-.39.583-.39.933zm8.01 0c0 .261.08.516.22.733.15.217.35.387.59.486a1.307 1.307 0 0 0 1.44-.286c.19-.184.31-.419.36-.675.06-.257.03-.522-.07-.763s-.27-.448-.49-.593a1.295 1.295 0 0 0-.73-.222c-.35 0-.69.139-.93.387-.25.247-.39.583-.39.933zm-4.01 0c0 .261.08.516.22.733.15.217.35.387.59.486a1.307 1.307 0 0 0 1.44-.286c.19-.184.31-.419.36-.675.06-.257.03-.522-.07-.763s-.27-.448-.49-.593a1.295 1.295 0 0 0-.73-.222c-.35 0-.69.139-.93.387-.25.247-.39.583-.39.933z" fill="#fff"/><path d="M983.78 175.06a6.22 6.22 0 0 0 6.23-6.22 6.227 6.227 0 0 0-6.23-6.23 6.23 6.23 0 0 0-4.402 1.825 6.234 6.234 0 0 0-1.818 4.405 6.219 6.219 0 0 0 1.819 4.401 6.208 6.208 0 0 0 4.401 1.819z" fill="#ECECEC"/><path d="M984 168.88a.998.998 0 0 1-.7-.94.997.997 0 0 1 1-1 .997.997 0 0 1 .32 1.94 1.72 1.72 0 0 1 1.45 1.71h-3.46a1.752 1.752 0 0 1 1.39-1.71zm-1.94.3a.14.14 0 0 0 .14-.14v-1.6a.14.14 0 0 0-.14-.14.151.151 0 0 0-.103.04.152.152 0 0 0-.047.1v1.6a.152.152 0 0 0 .047.1c.028.026.065.04.103.04z" fill="#1A2E35"/><path d="M981.24 168.38h1.59a.14.14 0 0 0 .14-.14.14.14 0 0 0-.14-.14h-1.59a.14.14 0 0 0-.14.14.14.14 0 0 0 .14.14z" fill="#1A2E35"/><path d="M1005.85 242.66c2.57 0 4.66-2.086 4.66-4.66 0-2.574-2.09-4.66-4.66-4.66a4.662 4.662 0 0 0-4.66 4.66c0 2.574 2.09 4.66 4.66 4.66z" fill="#FFDC6B"/><path d="M1005.93 239.26h.85c.41 0 .74-.331.74-.74v-.85c0-.409-.33-.74-.74-.74h-.85c-.41 0-.74.331-.74.74v.85c0 .409.33.74.74.74zm-.95-.75v-.78l-.58-.64a.136.136 0 0 0-.14-.027.224.224 0 0 0-.06.047.163.163 0 0 0-.02.07v1.79c0 .024.01.048.02.068.01.02.03.036.05.047.03.01.05.014.07.012a.13.13 0 0 0 .07-.027l.59-.56z" fill="#fff"/><path d="M1023.14 241.31a4.644 4.644 0 0 0 1.26-2.355c.18-.893.09-1.818-.26-2.659a4.65 4.65 0 0 0-1.69-2.066 4.626 4.626 0 0 0-2.56-.775c-.91 0-1.8.27-2.56.775a4.65 4.65 0 0 0-1.69 2.066 4.568 4.568 0 0 0-.26 2.659c.18.892.62 1.712 1.26 2.355a4.586 4.586 0 0 0 5.01.998c.56-.231 1.06-.57 1.49-.998z" fill="#FFDC6B"/><path d="M1021.9 238.82l-.82-.2a.195.195 0 0 1-.12-.074.225.225 0 0 1-.05-.136v-.17s0-.29-.23-.31h-1.44s-.33 0-.32.25v.25c0 .041-.01.081-.04.113a.207.207 0 0 1-.1.067l-.89.27a.195.195 0 0 1-.14-.011.199.199 0 0 1-.09-.099l-.11-.27a.43.43 0 0 1 0-.16.76.76 0 0 1 .15-.41 3.378 3.378 0 0 1 2.54-.69c1.51.08 1.84.71 1.93.86.04.14.04.29 0 .43 0 0 0 .09-.07.15a.218.218 0 0 1-.08.1.21.21 0 0 1-.12.04z" fill="#fff"/><path d="M1033.93 242.66a4.62 4.62 0 1 0-.001-9.241 4.62 4.62 0 0 0 .001 9.241z" fill="#FFDC6B"/><path d="M1035.4 238.49a.448.448 0 0 0 .28-.155.468.468 0 0 0 0-.6.448.448 0 0 0-.28-.155.484.484 0 0 0-.2.013.476.476 0 0 0-.29.25.62.62 0 0 0-.04.192c0 .066.02.131.04.192a.492.492 0 0 0 .29.25c.07.018.13.023.2.013zm-1.42 0c.09 0 .18-.027.26-.078a.553.553 0 0 0 .17-.208.489.489 0 0 0 .02-.268.44.44 0 0 0-.13-.235.44.44 0 0 0-.24-.123.434.434 0 0 0-.26.03.445.445 0 0 0-.28.432c0 .12.05.235.14.319.08.084.2.131.32.131zm-1.52.01c.25 0 .46-.206.46-.46s-.21-.46-.46-.46-.46.206-.46.46.21.46.46.46z" fill="#fff"/><path d="M1060.96 169.24c0 .593.18 1.173.51 1.667.33.493.79.878 1.34 1.105.55.227 1.15.286 1.74.17a2.983 2.983 0 0 0 1.53-.821c.42-.419.71-.954.82-1.536a2.94 2.94 0 0 0-.17-1.733 3.027 3.027 0 0 0-1.1-1.346c-.5-.33-1.08-.506-1.67-.506-.8 0-1.56.316-2.12.879a3.01 3.01 0 0 0-.88 2.121zm-18.11.55c0 .09 3.73.15 8.33.15s8.33-.06 8.33-.15-3.73-.15-8.33-.15-8.33.07-8.33.15z" fill="#375A64"/><path d="M1072.45 151.5h-26.91l-71.3-.13h-.13v94.67h98.41v-.06-53.39l-.1.11h10.47l-.15-.16-10.26-11V159.4v-7.26-.49 29.95l10.24 11.07.07-.16h-10.45V246v-.09h.1-98.2l.15.15v-94.39l-.13.13 71.19-.07H1072.52l-.07-.23z" fill="#1A2E35"/><path d="M1003.73 200.04c0 .08 2.7.27 6 .41 3.3.14 6.05.2 6.05.12a58.324 58.324 0 0 0-6-.42c-3.34-.14-6.05-.19-6.05-.11z" fill="#fff"/><path d="M1033.24 178.52c-.53-2.9-1.23-5.88-3-8.23-1.77-2.35-5-3.88-7.74-2.94l-3.45 2c.72 8.023 2.35 15.938 4.86 23.59.13.37.56 1 1.08 2.08a59.434 59.434 0 0 1 4.94 14.68c4.52.644 9.13-.194 13.13-2.39 1.61-.91 3.09-2.044 4.38-3.37a19.992 19.992 0 0 1-6.71-3.84 21.355 21.355 0 0 1-6-9.36c-1.34-4.2-.17-4.9-1.49-12.22z" fill="#FFDC6B"/><path d="M1013.84 173.37l10.62-3.53c3.43-.61 6 3.48 6.52 6.94.61 3.791.87 7.631.77 11.47-.5 5.86-4.89 6.92-4.89 6.92.35 1.442.47 2.931.35 4.41-.28 4-2.85 5-5 5.17-3.32.35-6.79-.7-7.18-4l-2.9-25.16c-.06-.52.08-1.044.4-1.46a2 2 0 0 1 1.31-.76z" fill="#FFBF9D"/><path d="M1029.48 181.32a.703.703 0 0 1-.17.535c-.12.15-.3.245-.49.265a.679.679 0 0 1-.28-.011.696.696 0 0 1-.54-.599.747.747 0 0 1 .66-.8.705.705 0 0 1 .73.342c.05.082.08.173.09.268zm.36-1.52c-.09.1-.68-.27-1.48-.21-.8.06-1.36.5-1.45.41-.09-.09 0-.22.28-.43.33-.264.73-.418 1.15-.44.41-.039.83.06 1.18.28.26.18.36.34.32.39zm-7.6 2.51a.712.712 0 0 1-.17.539.744.744 0 0 1-.49.271.743.743 0 0 1-.54-.141.752.752 0 0 1-.28-.479.748.748 0 0 1 .66-.8.696.696 0 0 1 .28.011.696.696 0 0 1 .54.599zm-.39-1.7c-.09.1-.68-.27-1.48-.21-.8.06-1.36.5-1.45.41-.09-.09 0-.22.27-.43.33-.261.74-.418 1.16-.45.41-.028.83.073 1.18.29.26.17.36.34.32.39zm3.44 5.17c.41-.168.84-.279 1.28-.33.2 0 .39-.09.42-.23 0-.213-.06-.423-.18-.6l-.72-1.51a26.216 26.216 0 0 1-1.65-4 28.838 28.838 0 0 1 2 3.83l.69 1.52c.14.238.2.516.16.79a.427.427 0 0 1-.12.201.484.484 0 0 1-.19.129c-.11.04-.22.063-.34.07-.44.096-.9.139-1.35.13z" fill="#1A2E35"/><path d="M1026.86 195.17c-2.83.264-5.68-.248-8.24-1.48 0 0 2.59 3.91 8.35 3l-.11-1.52z" fill="#FF9A6C"/><path d="M1022.24 178.15c-.06.22-.87.18-1.8.36s-1.67.49-1.81.3c-.14-.19.06-.3.35-.53.39-.292.84-.487 1.32-.57.47-.096.97-.075 1.43.06.34.11.51.27.51.38zm7.64-.73c-.16.19-.86 0-1.68.1s-1.51.24-1.68.06c-.17-.18 0-.28.31-.47.4-.247.87-.385 1.34-.4.47-.035.95.058 1.37.27.3.16.41.34.34.44z" fill="#BC8522"/><path d="M1026.06 169.34c-.12-.327-.35-.6-.65-.77a8.338 8.338 0 0 0-6.4-1 14.75 14.75 0 0 0-5.85 3 10.834 10.834 0 0 0-3.58 4.46 13.936 13.936 0 0 0-.66 4c-.22 3.37-.88 6.78-.61 10.15.02 1.719.14 3.436.37 5.14.24.953.73 1.826 1.41 2.529.69.702 1.55 1.21 2.5 1.471h2.21s-.93-6.91-.95-9.5c0-1.65 0-5.78-.07-7.08.19-.13.75-.06.92-.17.77-.46 1.17-1.67 1.94-2.13a17.747 17.747 0 0 0 4.32-3.38l2.93-2.88a9.21 9.21 0 0 0 1.64-2c.42-.65.8-1.03.53-1.84zm-12.33 12.5c0 .56-.08.16 0 0z" fill="#FFDC6B"/><path d="M1014.12 183.4a1.63 1.63 0 0 0-.3-.791 1.7 1.7 0 0 0-1.47-.719c-.29.014-.57.1-.81.25-.35.28-.62.655-.76 1.08-.15.425-.17.883-.06 1.32.4 3.48 3.81 2.37 3.8 2.27-.01-.1-.23-1.97-.4-3.41z" fill="#FFBF9D"/><path d="M1013.31 185.61s-.05 0-.15.11a.594.594 0 0 1-.45.06 1.53 1.53 0 0 1-.6-.52 1.54 1.54 0 0 1-.25-.75c-.04-.298-.01-.602.07-.89a.692.692 0 0 1 .41-.51.288.288 0 0 1 .37.12c.06.09 0 .17.07.17s.06-.07 0-.21a.417.417 0 0 0-.16-.2.457.457 0 0 0-.35-.05.84.84 0 0 0-.36.231.914.914 0 0 0-.21.379c-.12.319-.15.663-.1 1 .01.306.11.602.29.853.18.25.43.443.71.557.1.016.2.01.29-.017.1-.028.19-.077.26-.143.17-.1.18-.18.16-.19z" fill="#FF9A6C"/><path d="M1012.24 187.24c0 .09.03.178.07.258a.64.64 0 0 0 .16.212c.07.059.15.103.23.131.09.027.18.037.27.029a.668.668 0 0 0 .47-.231.71.71 0 0 0 .14-.233c.03-.085.04-.176.03-.266a.715.715 0 0 0-.24-.471.708.708 0 0 0-.5-.169.704.704 0 0 0-.47.24.697.697 0 0 0-.16.5z" fill="#1A2E35"/><path d="M1023.24 187.39c-.14.216-.23.464-.25.722-.03.258.01.518.11.757a1.579 1.579 0 0 0 1.14.951c.19.07.4.07.59 0 .15-.098.28-.226.38-.375.1-.15.17-.318.2-.495.09-.29.18-.57.28-.86a.362.362 0 0 0 0-.29.412.412 0 0 0-.28-.14l-2.17-.42" fill="#FF9A6C"/><path d="M1024.73 189.69c-.31.082-.63.082-.94 0a1.447 1.447 0 0 1-.87-.61 1.078 1.078 0 0 1-.17-.63c0-.229.04-.457.12-.67.08-.208.2-.398.35-.56v-.05h.07c1.39.38 2.48.55 2.47.61a8.407 8.407 0 0 1-2.54-.38h.12c-.13.141-.22.304-.29.48-.07.172-.11.358-.11.545 0 .188.04.373.11.545.17.266.43.465.73.56.59.12.96.12.95.16z" fill="#1A2E35"/><path d="M1017.24 173.39a20.328 20.328 0 0 0-5.47 5.83l1.88 3.19c3.19-.3 3.57-.63 5.82-2.92 2.25-2.29 6.73-6.84 7-10a30.925 30.925 0 0 0-9.23 3.9z" fill="#FFDC6B"/><path d="M1012.17 198.24c-.03-.12-.09-.234-.15-.34a24.26 24.26 0 0 1-1.84-4.53c-.53-1.826-.84-3.71-.92-5.61-.06-1.12 0-2.243.18-3.35a5.817 5.817 0 0 1 1.54-3.13 11.14 11.14 0 0 1 3-1.94c1.04-.48 2.04-1.038 3-1.67a22.26 22.26 0 0 0 4.26-3.85c.84-.985 1.6-2.035 2.28-3.14.23-.39.41-.69.52-.91.07-.104.12-.215.16-.33-.08.094-.15.194-.21.3-.12.21-.31.51-.56.89a28.398 28.398 0 0 1-2.34 3.06 20.979 20.979 0 0 1-7.19 5.41 11.434 11.434 0 0 0-3.08 2 6.124 6.124 0 0 0-1.61 3.29 15.477 15.477 0 0 0-.16 3.4c.1 1.921.43 3.823 1 5.66.38 1.235.87 2.433 1.47 3.58.21.41.38.72.51.92.04.101.08.198.14.29zm-2.47-18.18c.18-.882.56-1.711 1.11-2.42a7.82 7.82 0 0 1 2.18-1.91 28.04 28.04 0 0 1 3.21-1.62 21.827 21.827 0 0 0 5.53-3.58c.5-.439.97-.906 1.42-1.4.18-.168.33-.36.46-.57-.19.153-.37.321-.53.5-.34.32-.83.79-1.48 1.33a23.682 23.682 0 0 1-5.52 3.47 26.752 26.752 0 0 0-3.23 1.66 7.92 7.92 0 0 0-2.2 2c-.41.54-.7 1.155-.87 1.81-.04.177-.07.358-.08.54-.01.13-.01.19 0 .19zm31.22 22.79a29.688 29.688 0 0 1-4.17-3.45s-3-3-3-5v-.27-.58c0-.73-.07-1.8-.13-3.11-.15-2.62-.37-6.25-.91-10.23-.2-1.885-.61-3.742-1.21-5.54a10.228 10.228 0 0 0-2.43-3.93 7.046 7.046 0 0 0-2.64-1.67c-.27-.1-.54-.174-.82-.22-.1-.013-.19-.013-.29 0 0 0 .4.08 1.08.35.96.38 1.82.963 2.53 1.71a10.074 10.074 0 0 1 2.33 3.88 27.11 27.11 0 0 1 1.18 5.49c.58 4.32.74 6.44.79 7.69 0 1 .09 1.92.09 1.92.11 3 0 3.45.12 4.3a9.061 9.061 0 0 0 2.4 4.55 15.29 15.29 0 0 0 5.08 4.11z" fill="#fff"/><path d="M1042.82 212.5s-.63-5-3-7.53c-2.37-2.53-12.54-5.65-12.54-5.65s-.42 3.58-2.84 4.45a6.561 6.561 0 0 1-7.36-1.62 11.698 11.698 0 0 1-2.35-4.83s-12.09 1.12-14.07 4.43c-1.98 3.31-4.52 16.16-4.52 16.16l11.31 2.4-.73 10.42 27.78.16.86-9.22 8.18 1.17-.72-10.34z" fill="#375A64"/><path d="M1009.64 221.04a2.09 2.09 0 0 0 0-.5v-1.36c0-1.14 0-2.73-.05-4.48-.05-1.75-.08-3.33-.13-4.48 0-.57 0-1-.07-1.36.01-.165-.01-.331-.06-.49-.02.163-.02.328 0 .49v1.36c0 1.15 0 2.74.06 4.49s.08 3.33.13 4.48c0 .57.05 1 .07 1.36-.01.165.01.33.05.49zm28.46-9.11a51.505 51.505 0 0 0-1.58 5 49.712 49.712 0 0 0-1.32 5.09c.06 0 .77-2.23 1.57-5s1.4-5.07 1.33-5.09zm-36.22-10.97s.53.14 1.36.46a9.99 9.99 0 0 1 2.93 1.76 9.835 9.835 0 0 1 2.15 2.66c.43.77.6 1.3.65 1.28.05-.02 0-.14-.09-.38-.1-.344-.23-.678-.39-1a9.01 9.01 0 0 0-5.19-4.51 6.833 6.833 0 0 0-1-.25c-.28-.03-.42-.04-.42-.02zm38.08 5.03a5.08 5.08 0 0 0-.53 1.56 4.967 4.967 0 0 0-.28 1.62 5.08 5.08 0 0 0 .53-1.56c.17-.523.27-1.069.28-1.62z" fill="#1A2E35"/><path d="M1009.38 208.37c0 .08 6.41 1 14.34 1.93 7.93.93 14.37 1.72 14.38 1.63.01-.09-6.41-.94-14.34-1.93s-14.37-1.76-14.38-1.63zm-10.8-.38c1.73.586 3.49 1.073 5.27 1.46 1.76.488 3.55.879 5.35 1.17a51.535 51.535 0 0 0-5.27-1.46 49.775 49.775 0 0 0-5.35-1.17zm-1.83 6.99c0 .08 2.75.74 6.17 1.48s6.23 1.26 6.24 1.18c-2.03-.6-4.09-1.094-6.17-1.48-3.43-.73-6.23-1.26-6.24-1.18zm30.56-13.23c1.95.66 3.93 1.22 5.94 1.68 3.3.85 6 1.47 6 1.39 0-.08-2.64-.83-5.94-1.68-3.3-.85-5.98-1.47-6-1.39zm-17.48 17.19c0 .09 5.75.49 12.85.91 7.1.42 12.86.7 12.86.62 0-.08-5.74-.5-12.85-.92-7.11-.42-12.86-.69-12.86-.61zm32.1-3.58c-.73-.215-1.49-.346-2.25-.39a9.934 9.934 0 0 0-2.28-.19c.72.276 1.47.441 2.24.49a7.68 7.68 0 0 0 2.29.09zm-31.69 12.1c.29.062.58.095.88.1l2.39.16 7.88.52 7.87.62 2.39.19c.29.02.59.02.88 0a4.425 4.425 0 0 0-.87-.15c-.56-.08-1.37-.18-2.38-.29-2-.22-4.79-.48-7.87-.7-3.08-.22-5.87-.36-7.89-.44l-2.4-.06a6.04 6.04 0 0 0-.88.05z" fill="#fff"/><path d="M1035.31 221.67l3.86.5 3.65-9.41 5.91 2.39s-3.34 11.28-4.61 15.74h-12l3.19-9.22z" fill="#FFBF9D"/><path d="M1034.9 229.02c.73-.761 1.4-1.577 2-2.44.49-.705.92-1.447 1.29-2.22.32-.66.54-1.21.68-1.59.07-.207.15-.408.25-.6a3.38 3.38 0 0 1-.15.63 13.81 13.81 0 0 1-.61 1.64c-.36.792-.78 1.555-1.26 2.28-.6.879-1.26 1.705-2 2.47a10.64 10.64 0 0 0-1.45 1.7h-.31c.45-.68.97-1.307 1.56-1.87z" fill="#FF9A6C"/><path d="M1042.82 212.76a32.17 32.17 0 0 1 .34-5.28l2.91-6.51s.75-.45 1.11.84c.06.469.02.944-.11 1.397-.14.453-.36.873-.67 1.233l-.09 1.7 1.18-1 2.27-4.25s1.56-3.1 2-2.6c.44.5.27 1.48-.4 2.82-.67 1.34-1.53 3-1.53 3s-.23.54.57-.24c.8-.78 2.54-4.56 2.9-5 .36-.44.86-1.85 1.64-1.54.78.31-.22 2-.22 2l-2.5 5.6s1.45-2.12 1.71-2.48c.26-.36.87-1.57 1.34-2.19.47-.62 1-.86 1.34-.71a.7.7 0 0 1 .39.345c.08.159.09.344.04.515l-2.67 4.63s-1.33 2.08-1.33 2.24c0 .16 1.17-.69 1.17-.69l1.11-1.43s1.21-2.13 1.85-2c.64.13.52.59.52.59l-2.25 3.89-3.26 4.2-3.49 3.46-2-.65-3.87-1.89z" fill="#FFBF9D"/><path d="M1049.24 212.06a7.147 7.147 0 0 1-.21-1.3 4.136 4.136 0 0 0-1.34-2.66 2.218 2.218 0 0 0-1.36-.52h-.16v-.18-2.06c0-.5.07-.83.11-.82.05.267.08.538.08.81.06.705.08 1.413.07 2.12l-.16-.18c.57-.004 1.13.198 1.57.57.46.391.81.899 1 1.47.17.456.28.934.31 1.42.11.435.14.885.09 1.33z" fill="#FF9A6C"/><path d="M1008.54 220.56l2.15 10.34h-10.09c-.39-1.47-2.5-12.55-2.5-12.55l10.44 2.21z" fill="#FFBF9D"/><path d="M1042.54 123.58h96.98V30.37h-96.98v93.21z" fill="#fff"/><path d="M1042.54 37.35h96.98v-6.98h-96.98v6.98zm0 71.42h96.95v14.81h-5.05v13.82l-12.73-13.82h-79.17v-14.81z" fill="#048B86"/><path d="M1042.53 108.91V123.69c.12.12 0 0 .08.06H1121.76h-.1l12.72 13.83.24.25v-14.11l-.14.14h5.16v-.06-93.44H1042.37V87.64c0-13.61 0-33.21.06-57.16l-.12.12h97l-.15-.15V123.68v-.08l.12-.06h-5.04v13.96l.23-.09-12.73-13.81H1042.59s-.07-.06 0 0v-8.07-5c0-1.13-.06-1.62-.06-1.62z" fill="#1A2E35"/><path d="M1125.8 34.11c-.02.18.01.363.06.535.06.172.16.33.28.464.12.134.27.241.44.314.16.073.34.111.52.111.19 0 .37-.038.53-.11.17-.074.32-.18.44-.315.12-.134.22-.292.28-.464a1.324 1.324 0 0 0-.36-1.387 1.31 1.31 0 0 0-2.19.852zm7.91 0c-.02.18.01.363.06.535.06.172.16.33.28.464.12.134.27.241.44.314.16.073.34.111.53.111.18 0 .36-.038.52-.11.17-.074.32-.18.44-.315.12-.134.22-.292.28-.464a1.324 1.324 0 0 0-.36-1.387 1.31 1.31 0 0 0-2.19.852zm-3.95 0c0 .26.07.515.22.732.14.217.34.386.58.486a1.318 1.318 0 0 0 1.8-.955 1.316 1.316 0 0 0-1.3-1.563c-.34.003-.67.14-.92.384a1.31 1.31 0 0 0-.38.916z" fill="#fff"/><path d="M1051.96 53.64a6.149 6.149 0 0 0 4.35-10.495 6.106 6.106 0 0 0-2-1.33 6.093 6.093 0 0 0-2.35-.465 6.13 6.13 0 0 0-4.34 1.798 6.148 6.148 0 0 0-1.8 4.342c0 .807.16 1.607.46 2.353.31.746.76 1.424 1.33 1.995a6.226 6.226 0 0 0 2 1.334c.74.309 1.54.468 2.35.468z" fill="#ECECEC"/><path d="M1052.18 47.54a1 1 0 0 1-.69-1.105.97.97 0 0 1 .33-.608 1.01 1.01 0 0 1 1.31 0c.18.156.3.372.33.608a1 1 0 0 1-.69 1.105 1.718 1.718 0 0 1 1.47 1.7h-3.42a1.73 1.73 0 0 1 .37-1.094c.25-.31.6-.525.99-.606zm-1.94.29c.02 0 .04-.004.05-.01a.112.112 0 0 0 .05-.031.459.459 0 0 0 .03-.045c.01-.017.01-.036.01-.054v-1.57a.125.125 0 0 0-.04-.099.144.144 0 0 0-.1-.041c-.04 0-.07.015-.1.041a.125.125 0 0 0-.04.099v1.57c0 .037.01.073.04.099.03.026.06.041.1.041z" fill="#1A2E35"/><path d="M1049.47 47.04h1.58c.04 0 .07-.015.1-.041a.125.125 0 0 0 .04-.099.125.125 0 0 0-.04-.099.144.144 0 0 0-.1-.041h-1.58c-.04 0-.07.015-.1.041a.125.125 0 0 0-.04.099c0 .037.01.073.04.099.03.026.06.041.1.041z" fill="#1A2E35"/><path d="M1074.49 120.346a4.595 4.595 0 0 0 3.8-5.279c-.4-2.507-2.77-4.21-5.28-3.802a4.6 4.6 0 0 0 1.48 9.081z" fill="#FFDC6B"/><path d="M1073.84 117.04h.82c.41 0 .74-.331.74-.74v-.82c0-.409-.33-.74-.74-.74h-.82c-.41 0-.74.331-.74.74v.82c0 .409.33.74.74.74zm-.94-.74v-.78l-.58-.62a.153.153 0 0 0-.06-.034.121.121 0 0 0-.07.005c-.03.008-.05.023-.06.042a.094.094 0 0 0-.03.067v1.77c0 .025 0 .051.02.073.01.021.03.039.05.049.03.01.05.012.08.006a.144.144 0 0 0 .06-.038l.59-.54z" fill="#fff"/><path d="M1090.83 119.06a4.535 4.535 0 0 0 1.24-2.325 4.45 4.45 0 0 0-.26-2.623 4.493 4.493 0 0 0-1.67-2.037 4.511 4.511 0 0 0-2.52-.766c-.9 0-1.78.267-2.52.766a4.493 4.493 0 0 0-1.67 2.037 4.45 4.45 0 0 0-.26 2.623 4.535 4.535 0 0 0 7.66 2.325z" fill="#FFDC6B"/><path d="M1089.61 116.6l-.81-.19a.236.236 0 0 1-.17-.22v-.17s0-.28-.23-.3c-.23-.02-1.41 0-1.41 0s-.32 0-.32.25v.27c0 .04-.01.08-.03.112a.209.209 0 0 1-.1.068l-.88.27a.2.2 0 0 1-.14-.011.199.199 0 0 1-.09-.099l-.11-.27a.43.43 0 0 1 0-.16c0-.146.06-.287.15-.4a3.288 3.288 0 0 1 2.56-.68c1.49.07 1.81.7 1.9.85a.75.75 0 0 1 0 .42l-.07.16a.19.19 0 0 1-.11.093.214.214 0 0 1-.14.007z" fill="#fff"/><path d="M1102.53 120.233a4.564 4.564 0 0 0 3.39-5.489 4.563 4.563 0 0 0-8.88 2.103 4.562 4.562 0 0 0 5.49 3.386z" fill="#FFDC6B"/><path d="M1102.93 116.24a.46.46 0 0 0 .32-.132.467.467 0 0 0 .13-.318.467.467 0 0 0-.13-.318.46.46 0 0 0-.32-.132.46.46 0 0 0-.32.132.467.467 0 0 0-.13.318c0 .119.05.234.13.318.09.085.2.132.32.132zm-1.4 0a.46.46 0 0 0 .32-.132.467.467 0 0 0 .13-.318.467.467 0 0 0-.13-.318.46.46 0 0 0-.32-.132.46.46 0 0 0-.32.132.467.467 0 0 0-.13.318c0 .119.05.234.13.318.09.085.2.132.32.132zm-1.49 0a.482.482 0 0 0 .32-.135.458.458 0 0 0 .13-.315.467.467 0 0 0-.13-.318.46.46 0 0 0-.32-.132.46.46 0 0 0-.32.132.467.467 0 0 0-.13.318c0 .119.05.234.13.318.09.085.2.132.32.132z" fill="#fff"/><path d="M1132.06 50.07a2.95 2.95 0 1 0 .001-5.899 2.95 2.95 0 0 0-.001 5.899zm-16.28-3.43c1.82.154 3.65.204 5.48.15 1.83.054 3.66.004 5.49-.15-3.66-.201-7.34-.201-11 0h.03z" fill="#375A64"/><path d="M1105.78 108.56a56.437 56.437 0 0 0 2.16-5.61c1.12-3.14 2-5.7 1.88-5.72a56.333 56.333 0 0 0-2.16 5.61 60.22 60.22 0 0 0-1.88 5.72zm-34.47-19.63c-.09 0-.32 4.39-.51 9.82-.19 5.43-.3 9.83-.21 9.83s.31-4.39.51-9.82c.2-5.43.29-9.83.21-9.83zm13.43-24.69a42.254 42.254 0 0 1-1.42-7.22c-.27-2.45.07-4.927 1-7.21.15-.34 1.4-2.61 1.76-2.55.36.06-.54 2.18-.43 2.41a12.614 12.614 0 0 1 1 7.44c-.36 2.44-1 4.832-1.9 7.13" fill="#1A2E35"/><path d="M1083.7 82.5l1.36-27.66c.17-6.15 3.89-11.18 10-10.84l.56.06a11 11 0 0 1 9.76 11.3c-.18 5.33-.44 11.22-.8 14.05-.74 5.86-6.71 6.11-6.71 6.11s-.44 6.12-.56 7.85c-.36.54-1.67-2.64-4.76-2.1s-7 4.44-8.85 1.23z" fill="#FFBF9D"/><path d="M1097.91 75.52a14.36 14.36 0 0 1-7.39-3.13s1.34 4.62 7.26 4.76l.13-1.63z" fill="#FF9A6C"/><path d="M1102.35 60.08a.864.864 0 0 1-.3.558.858.858 0 0 1-.61.192.805.805 0 0 1-.31-.074.728.728 0 0 1-.25-.188.767.767 0 0 1-.17-.273.837.837 0 0 1-.04-.315.87.87 0 0 1 .29-.564.853.853 0 0 1 .61-.196c.11.005.21.031.31.077a.777.777 0 0 1 .42.466c.04.102.06.21.05.317zm1.53-2.27c-.12.09-.7-.45-1.6-.55-.9-.1-1.62.28-1.7.16-.08-.12.08-.24.39-.42.42-.225.9-.316 1.37-.26.47.055.91.254 1.27.57.25.25.32.45.27.5zm-9.64 1.68a.829.829 0 0 1-.3.562.843.843 0 0 1-.61.188.786.786 0 0 1-.31-.071.756.756 0 0 1-.26-.188.916.916 0 0 1-.16-.275.846.846 0 0 1-.04-.316.824.824 0 0 1 .3-.558c.17-.14.38-.209.6-.192.11.004.21.029.31.074a.766.766 0 0 1 .42.46c.04.102.06.209.05.316zm.77-2.48c-.12.1-.7-.45-1.6-.55-.9-.1-1.61.28-1.7.16-.09-.12.09-.24.4-.42.42-.22.9-.31 1.37-.26.47.05.91.25 1.26.57.26.25.33.46.27.5zm2.45 7.3c.49-.097.99-.131 1.49-.1.24 0 .46 0 .52-.17.04-.236.01-.48-.08-.7l-.48-1.83c-.46-1.557-.79-3.15-1-4.76a29.214 29.214 0 0 1 1.39 4.67c.16.667.31 1.277.45 1.83.11.298.11.622 0 .92a.513.513 0 0 1-.18.198.558.558 0 0 1-.24.102c-.13.01-.27.01-.4 0-.49.007-.99-.047-1.47-.16zm-1.84-10.07c-.14.22-1-.12-2.06-.27-1.06-.15-2-.08-2-.33s.17-.3.57-.45a3.54 3.54 0 0 1 1.62-.13c.54.074 1.06.276 1.51.59.29.23.43.47.36.59zm8.62.92c-.21.19-.92-.1-1.81-.2s-1.64 0-1.8-.25c-.16-.25.08-.31.42-.47a3.06 3.06 0 0 1 2.91.36c.28.25.35.47.28.56z" fill="#1A2E35"/><path d="M1085.04 59.24c-.09-.06-3.89-1.66-4.22 2.37-.33 4.03 3.78 3.53 3.8 3.41.02-.12.42-5.78.42-5.78z" fill="#FF9A6C"/><path d="M1083.51 63.41s-.07 0-.2.08a.633.633 0 0 1-.52 0 1.74 1.74 0 0 1-.68-1.62c.02-.35.11-.691.28-1 .05-.12.13-.228.23-.313.1-.085.21-.146.34-.177.08-.02.17-.008.24.033.08.04.13.107.16.187.05.12 0 .2 0 .21 0 .01.1-.07.08-.23a.413.413 0 0 0-.14-.27.466.466 0 0 0-.18-.106.46.46 0 0 0-.2-.024.954.954 0 0 0-.46.18.951.951 0 0 0-.32.38c-.2.333-.32.71-.34 1.1-.05.358.01.722.16 1.048.16.326.41.598.72.782a.764.764 0 0 0 .65-.06c.17-.11.19-.2.18-.2z" fill="#B4473E"/><path d="M1103.3 48.49c.68-.31-1.13-2.57-2.68-3.41-2.34-1.27-6-2.22-8.27-1.75a9.787 9.787 0 0 0-3.73 1.358 9.776 9.776 0 0 0-2.87 2.732 15.84 15.84 0 0 0-2.37 8c-.1.853.03 1.718.39 2.5.5.93 1.53 1.57 1.4 2.8-.03.221-.02.447.04.663.05.217.15.42.29.597.68.84 1.63.16 2.1-.54a11.714 11.714 0 0 0 1.45-5.2c.21-1.275.21-2.575 0-3.85-.15-.69-.42-1.34-.53-2a2.314 2.314 0 0 1 0-1.047c.07-.345.22-.67.43-.953.11-.112.23-.215.36-.31a4.222 4.222 0 0 1 4.22-.49c2.21 1 6 2.45 7.07 1.76a6.254 6.254 0 0 0 1.94-1.7l.76.84zm-8.72 16.17c.13 0 .07.93.82 1.64.75.71 1.74.68 1.74.81s-.23.16-.65.14a2.24 2.24 0 0 1-1.45-.62c-.38-.353-.61-.84-.64-1.36-.01-.39.11-.62.18-.61z" fill="#1A2E35"/><path d="M1070.47 81.53l14.42-4.56 12.94 2.51 15.31 8.37-7.03 20.92h-35.49l.74-20.47-.89-6.77z" fill="#FFDC6B"/><path d="M1098.08 80.15V77.9l-14.39-2.11.15 4.36 14.52 1.56-.28-1.56zm-35.55 6.39c2.06-5 8.75-5.4 9.19-5.4l1 3.92-1.78 20-.85 3.71h-15.52c2.39-7.92 6.67-18.99 7.96-22.23zm50.61 1.31s1.88 2 2.16 7.38c.28 5.38.9 13.54.9 13.54h-11.35l-.75-8 9.04-12.92z" fill="#FFDC6B"/><path d="M1261.97 328.57h11.14l4.13-28.07h-13.11l-2.16 28.07zm-96.51 0h-11.13l-4.13-28.07h13.11l2.15 28.07z" fill="#1A2E35"/><path d="M1142.55 304.05l143.33 1.89 4.37-51.84c.42-5.08-6.81-9.33-15.89-9.33h-122.12c-9.21 0-16.5 4.38-15.86 9.52l6.17 49.76z" fill="#375A64"/><path d="M1135.24 253.92h22.71c14 0 33.41-.08 54.8.2s40.81.33 54.84.21c7-.06 12.69-.14 16.61-.2l4.51-.09h1.58a2.966 2.966 0 0 0-.4 0H1284.19l-16.61.09c-14 .05-33.41.08-54.81-.32-21.4-.4-40.8-.15-54.82-.1l-16.62.08H1135.64a2.79 2.79 0 0 0-.4.13zm102.72-8.34c3.14.262 6.26.788 9.31 1.57a37.16 37.16 0 0 1 7.72 3.3 6.303 6.303 0 0 0-1.77-1.29 25.6 25.6 0 0 0-5.66-2.34 34.787 34.787 0 0 0-6.69-1.19c-.97-.105-1.94-.122-2.91-.05z" fill="#1A2E35"/><path opacity=".3" d="M1213.66 244.77c-2.52 2.66-6.65 3.82-10.4 4.36-6.74 1-13.64 1.48-20.36.4-4.31-.69-8.58-2-12.94-1.75-4.36.25-8.94 2.27-13.24 1.12a9.003 9.003 0 0 1-5.45-4.14c-.36-.63-.58-1.52 0-2 .3-.23.94.58 1.33.56 20.21-1.46 40.84 2.78 61.06 1.44m-44.75 12.48c.6 1.76-.93 3.58-3.16 4.87a42.693 42.693 0 0 1-7.87 3.06c-4.61 1.5-9.2 3.21-12.09 5.72-5.47 4.76-3.45 11-5.76 16.52 0 0-1.93-23.79-1.53-23.19" fill="#000"/><path d="M1132.09 202.15l3.07-4.65 4.94-2.48.19-.13a6.594 6.594 0 0 1 5.6-1c2 .53 4.7 1.2 7 1.6l5.31-1.46v10.38l-26.81-1.7.7-.56z" fill="#FFBF9D"/><path d="M1132.24 201.87c.34-.374.72-.71 1.13-1 .73-.61 1.75-1.43 2.88-2.32l1.07-.82c1.09-.21 2-.38 2.73-.48.36-.089.73-.126 1.1-.11-.34.144-.7.248-1.06.31-.67.16-1.62.37-2.71.59h.07l-1.06.83c-1.14.89-2.18 1.68-2.94 2.24-.37.297-.78.552-1.21.76zm2.12.91a30.321 30.321 0 0 1 3.86-2.33l.94-.52c1.14-.109 2.29-.129 3.43-.06-1.12.225-2.26.355-3.41.39h.07l-.94.52a29.499 29.499 0 0 1-3.95 2z" fill="#FF9A6C"/><path d="M1100.87 172.8a1.994 1.994 0 0 1 2.65.57l21.59 29.25 34.18.46c1.36.08 3 2.84 1.8 4.18l-38.6-.53-22.28-31a1.995 1.995 0 0 1-.33-1.614 1.975 1.975 0 0 1 .99-1.316z" fill="#E1E1E1"/><path d="M1100.87 172.8l-.17.09c-.16.105-.31.237-.43.39-.25.292-.41.647-.46 1.025-.06.378-.01.763.14 1.115.28.473.58.927.92 1.36l1.14 1.6 2.82 4 17.53 24.47.05.07h.08l37.89.54h.78l.06-.06c.33-.38.5-.876.47-1.38a3.625 3.625 0 0 0-.36-1.37 4.115 4.115 0 0 0-.83-1.13 1.995 1.995 0 0 0-1.3-.6l-5.27-.07-10.21-.13-18.6-.24.12.06-17-22.89-4.78-6.4a2.067 2.067 0 0 0-1.92-.69c-.24.031-.48.121-.68.26.22-.099.45-.169.68-.21a2.004 2.004 0 0 1 1.85.71l4.71 6.44 16.88 23v.06h.08l18.6.27 10.2.15 5.28.07c.41.028.78.211 1.06.51.31.287.56.625.75 1 .23.346.35.754.35 1.17 0 .416-.12.823-.35 1.17l.14-.06h-.7l-37.89-.5.12.07c-7.27-10.07-13.36-18.49-17.64-24.4l-2.86-3.94-1.15-1.59c-.34-.421-.64-.866-.92-1.33a1.974 1.974 0 0 1-.16-1.072c.04-.365.19-.71.42-.998.16-.208.35-.391.56-.54z" fill="#1A2E35"/><path d="M1135.37 269.13l5.32 39.19-13.91 2.28-9.9-34.77 18.49-6.7z" fill="#FFBF9D"/><path d="M1177.57 208.91s-59.36-5.64-63.76-1.61c-4.4 4.03-8.06 12.84-6.6 15.77 1.46 2.93 4.77 12.84 4.77 12.84l27.34-6.24 38.25-20.76z" fill="#1A2E35"/><path d="M1139.32 235.91l11.01 16.8-12.96 8.4-14.06-21.55 16.01-3.65z" fill="#FFBF9D"/><path d="M1213.24 205.84s5.13 23.47-3.3 33c-8.43 9.53-20.9 9.53-33.74 7.7-12.84-1.83-43.3-2.47-43.3-2.47s1.36 8.33 2.35 17.81c.99 9.48 1.2 15.48 1.2 15.48l-19.07 1.59s-10.63-32.35-12.26-38.75c-1.63-6.4-1.09-15 4.57-18.21 4.79-2.7 42.57-13.18 60.65-14.73l2-1.69 40.9.27z" fill="#1A2E35"/><path d="M1123.52 236.24c0 .07.74.17 1.87.58.66.237 1.3.531 1.91.88.74.443 1.43.948 2.08 1.51.63.585 1.2 1.227 1.71 1.92.41.568.77 1.17 1.08 1.8.52 1.09.7 1.82.76 1.8.06-.02 0-.19-.07-.52a7.453 7.453 0 0 0-.46-1.38c-.27-.666-.6-1.302-1-1.9a12.605 12.605 0 0 0-1.74-2 13.172 13.172 0 0 0-2.16-1.53c-.64-.346-1.31-.627-2-.84a9.33 9.33 0 0 0-1.42-.31 2.021 2.021 0 0 0-.56-.01zm2.27-19.49a5.753 5.753 0 0 0-1-2 5.285 5.285 0 0 0-1.47-1.65c.32.663.71 1.288 1.17 1.86.36.648.79 1.25 1.3 1.79z" fill="#375A64"/><path d="M1104.24 231.24s0-.06.06-.18l.13-.54c.11-.48.29-1.18.57-2.06a15.9 15.9 0 0 1 1.36-3.09 7.723 7.723 0 0 1 3.08-3.09 84.1 84.1 0 0 1 11-3.91c4.22-1.26 8.87-2.6 13.78-3.89 9.82-2.61 18.84-4.48 25.41-5.57 3.28-.55 5.95-.93 7.79-1.19l2.13-.29.55-.08h-.56l-2.14.22c-1.85.21-4.52.55-7.82 1.08a256.63 256.63 0 0 0-25.45 5.46c-4.92 1.3-9.57 2.65-13.79 3.93a81.08 81.08 0 0 0-11 4 7.93 7.93 0 0 0-3.1 3.2c-.55.999-.99 2.055-1.31 3.15a18.61 18.61 0 0 0-.51 2.08l-.1.55c-.08.11-.08.22-.08.22z" fill="#375A64"/><path d="M1125.7 309.58l-.46-1.69a26.472 26.472 0 0 0 15.35-6.62l4.72 10.19-31.45 14c-1.18-3.03 11.84-15.88 11.84-15.88z" fill="#FFDC6B"/><path d="M1145.31 311.46l-1.15-2.49-29.78 14.36s-1.12 1.22-.52 2.11l31.45-13.98z" fill="#E1E1E1"/><path d="M1126.12 309.39c.07.14.87-.13 1.85 0 .98.13 1.68.59 1.8.47.12-.12-.52-.89-1.72-1-1.2-.11-2.03.38-1.93.53z" fill="#1A2E35"/><path d="M1138.35 308.29a.908.908 0 0 0 1.21.42c.11-.047.2-.116.28-.202a.883.883 0 0 0 .19-.296c.04-.111.05-.228.05-.345a.98.98 0 0 0-.09-.337.922.922 0 0 0-1.21-.41.858.858 0 0 0-.51.835c0 .116.03.23.08.335z" fill="#E1E1E1"/><path d="M1126.31 309.18c.24 0 .48-.044.71-.13a3.903 3.903 0 0 0 1.77-.94c.16-.167.3-.351.41-.55.15-.214.24-.462.26-.72a.78.78 0 0 0-.12-.47.802.802 0 0 0-.37-.31 1.227 1.227 0 0 0-1 .05c-.57.288-1.05.726-1.4 1.266a3.495 3.495 0 0 0-.54 1.804l.46-.07a3.673 3.673 0 0 0-.31-.71 3.86 3.86 0 0 0-3.4-1.92c-.18-.009-.36.025-.53.1a.783.783 0 0 0-.24.192.699.699 0 0 0-.12.278c-.02.158-.02.319.02.474.04.154.11.299.21.426.29.443.71.79 1.2 1 .69.271 1.42.381 2.16.32.26.018.53-.002.79-.06a2.471 2.471 0 0 0-.78-.12 5.278 5.278 0 0 1-2-.43c-.4-.202-.75-.505-1-.88a.907.907 0 0 1-.15-.62c0-.17.19-.23.48-.23.61.003 1.2.165 1.73.468.52.303.96.738 1.27 1.262.11.198.2.406.27.62.02.059.06.108.12.136a.24.24 0 0 0 .3-.07.227.227 0 0 0 .05-.136 3.2 3.2 0 0 1 .45-1.568c.29-.473.7-.86 1.19-1.122.43-.23.93 0 .89.33-.07.403-.25.777-.54 1.07-.44.457-.98.801-1.58 1-.23.055-.45.143-.66.26zm-2.6 2.39a6.083 6.083 0 0 1 4 1 3.259 3.259 0 0 0-4-1zm-1.76 1.99c0 .11.86.09 1.84.38.98.29 1.69.77 1.76.69a3.688 3.688 0 0 0-1.65-1.03 3.68 3.68 0 0 0-1.95-.04z" fill="#1A2E35"/><path d="M1134.91 259.24l-.75-1.59a26.485 26.485 0 0 0 14-9.11l6.36 9.25-28.64 19.08c-1.64-2.8 9.03-17.63 9.03-17.63z" fill="#FFDC6B"/><path d="M1154.55 257.76l-1.55-2.26-26.94 19.17s-.9 1.39-.15 2.17l28.64-19.08z" fill="#E1E1E1"/><path d="M1135.29 258.95c.09.13.84-.27 1.83-.29.99-.02 1.75.3 1.84.16.09-.14-.66-.78-1.86-.74-1.2.04-1.93.77-1.81.87z" fill="#1A2E35"/><path d="M1147.16 255.81a.93.93 0 0 0 1.27.21c.1-.065.18-.149.24-.247a.768.768 0 0 0 .13-.321.808.808 0 0 0-.01-.346.756.756 0 0 0-.14-.316.923.923 0 0 0-1.26-.21.782.782 0 0 0-.24.246.773.773 0 0 0-.13.321c-.02.114-.02.232 0 .346a.92.92 0 0 0 .14.317z" fill="#E1E1E1"/><path d="M1135.44 258.71s.25-.05.68-.25a3.765 3.765 0 0 0 1.58-1.22c.13-.187.23-.388.31-.6.11-.237.16-.499.14-.76a.758.758 0 0 0-.2-.447.77.77 0 0 0-.42-.243 1.208 1.208 0 0 0-.49.008c-.16.036-.31.105-.44.202-.52.378-.92.89-1.17 1.48a3.62 3.62 0 0 0-.23 1.87l.45-.14a4.253 4.253 0 0 0-.43-.65 3.846 3.846 0 0 0-3.68-1.32c-.18.023-.35.088-.5.19a.717.717 0 0 0-.2.227.61.61 0 0 0-.08.293c0 .16.04.317.1.463.07.146.16.277.28.387.37.374.84.635 1.35.75a4.92 4.92 0 0 0 2.18 0c.26-.03.52-.098.77-.2a2.435 2.435 0 0 0-.79 0c-.69.1-1.39.069-2.07-.09a2.552 2.552 0 0 1-1.15-.7.872.872 0 0 1-.25-.57c0-.18.15-.27.43-.31a3.445 3.445 0 0 1 3.24 1.19c.15.176.27.367.38.57a.239.239 0 0 0 .4 0 .262.262 0 0 0 .04-.15 3.104 3.104 0 0 1 .19-1.623c.21-.514.54-.965.98-1.307.38-.3.91-.19.93.19 0 .405-.12.801-.34 1.14-.36.518-.84.943-1.4 1.24-.39.22-.61.35-.59.38zm-2.2 2.8c.68-.135 1.38-.205 2.08-.21.68.107 1.35.278 2 .51a3.288 3.288 0 0 0-4.1-.3h.02zm-1.36 2.26c0 .1.86-.07 1.88.06s1.79.48 1.84.38a3.608 3.608 0 0 0-3.72-.44zm58.94-137.48c.54-2.459.83-4.964.87-7.48.14-1.88.26-3.6 2.06-4.7a6.797 6.797 0 0 1 4.48-.74c4.12.55 5 4.41 4.59 8.05a25.98 25.98 0 0 1-2.61 8 6.523 6.523 0 0 0 4.52-2 8.581 8.581 0 0 1-2.44 4.15 13.514 13.514 0 0 0 10.88-6.38 21.245 21.245 0 0 0 3-12.52 24.443 24.443 0 0 0-5.13-14.38c-6.6-8.08-19.51-9.18-27.47-2.41a18.86 18.86 0 0 0-5.76 8.89 28.608 28.608 0 0 0-.44 13.91c.36 1.793.61 3.606.74 5.43.05.59.71 7.41.28 7.38 2.77.2 6-.3 7.87-2.3-.86 1.38-1.61 2.71-2.47 4.1 3.45-.51 6.11-3.6 7.03-7z" fill="#1A2E35"/><path d="M1205.34 117.24c1.25-.69 2.74-1 3.88.08 1.67 1.67-.83 9.29-4.46 7.38 0 0-5.38 7-9.29 9-3.91 2-6.66.92-8.09-.53-1.43-1.45-6.32-7.38-7.13-13.61-.29-2.22.11-6.58 0-7.51-.18-2.86-1.28-5.22 1.1-7.44a14.004 14.004 0 0 1 9.08-3.63 14.9 14.9 0 0 1 11.2 4.85c3.1 3.32 3.61 7.11 3.71 11.41z" fill="#FFBF9D"/><path d="M1208.59 119.36a1.377 1.377 0 0 0-.29-.778 1.368 1.368 0 0 0-2.19.048c-1 1-1.17 4.16-.93 4.63.24.47 1.87.46 2.2-.51.33-.97-.63-1.58-1.55-1.31-.13-.808.06-1.635.52-2.31.77-.9 1.55-.54 1.74-.31.16.189.32.369.5.54z" fill="#FF9A6C"/><path d="M1203.34 110.59a30.3 30.3 0 0 1-9.88-2.24c-.48-1.256-.7-2.596-.66-3.94a11.136 11.136 0 0 0-1.51 4.86c-2-.14-4-.27-6-.42a11.269 11.269 0 0 1-.47-4.65 19.648 19.648 0 0 0-1.3 5c-1.19-.42-2.71.16-4 .35-1.5-3.31-1.32-9.29 2-11.75 3.32-2.46 8.76-3 12.65-2.4 8.27 1.26 14.69 7.93 14.07 16.12-.5 4.763-2.8 9.157-6.42 12.29a18.238 18.238 0 0 0 1.52-13.22z" fill="#1A2E35"/><path d="M1195.47 120.48a2.797 2.797 0 0 1 3.15 2.32 2.716 2.716 0 0 1-.58 2.005 2.85 2.85 0 0 1-.82.682c-.32.17-.66.277-1.02.313a2.817 2.817 0 0 1-2.61-1.933 2.918 2.918 0 0 1-.13-1.137c.06-.537.29-1.042.65-1.445a2.59 2.59 0 0 1 1.36-.805z" fill="#E96A52"/><path d="M1186.3 116.67c.51 0 .87.73.84 1.29-.03.56-.54 1.28-1.07 1.23-.53-.05-.87-.73-.84-1.29.03-.56.54-1.28 1.07-1.23zm6 .57c.51 0 .87.73.84 1.29-.03.56-.54 1.28-1.07 1.23-.53-.05-.87-.73-.84-1.29.03-.56.54-1.23 1.07-1.23zm3.43-1.4a6.996 6.996 0 0 0-4.38-1c.2-.419.52-.769.92-1.007.4-.238.86-.354 1.33-.333.58.055 1.12.325 1.52.758.39.433.61.997.61 1.582zm-8.05-1.52c-.78-.105-1.57-.125-2.36-.06-.73.059-1.45.193-2.15.4.06-.51.29-.985.65-1.348.37-.363.84-.592 1.35-.652.55-.065 1.1.067 1.56.371.46.303.8.76.95 1.289z" fill="#12122B"/><path d="M1188.73 119.24c-.33-.07-.43 1.15-1.6 1.87-.58.36-1.2.46-1.2.74 0 .11.09.19.39.39.91.58 1.36.87 2 .78.3-.017.59-.15.8-.37.24-.3.15-.67 0-1.51-.26-1.52-.21-1.9-.39-1.9z" fill="#FF9A6C"/><path d="M1181.34 119.18c.72-.074 1.44.123 2.02.552.59.429.99 1.059 1.13 1.768a2.828 2.828 0 0 1-2.42 3c-.12.011-.25.011-.37 0a16.37 16.37 0 0 1-1.43-4.88c.31-.237.68-.389 1.07-.44z" fill="#E96A52"/><path d="M1187.93 126.94c.19-.263.45-.472.75-.605a1.873 1.873 0 0 1 1.63.048c.2.111.39.263.54.447.14.182.23.403.25.635.02.231-.04.463-.15.665-.17.198-.39.34-.64.408-.24.068-.51.058-.75-.028a3.917 3.917 0 0 1-1.37-.81 1.159 1.159 0 0 1-.3-.32.356.356 0 0 1-.06-.2c0-.071.02-.141.06-.2" fill="#FF9A6C"/><path d="M1190.58 125.02c-.18 0-.16 1.18-1.14 2-.98.82-2.2.74-2.21.91-.01.17.28.22.8.23a2.802 2.802 0 0 0 1.84-.69c.5-.435.82-1.048.88-1.71.04-.45-.09-.75-.17-.74z" fill="#1A2E35"/><path d="M1188.93 132.72a12.735 12.735 0 0 1 1.31 5.485c.02 1.904-.38 3.788-1.18 5.515l15.91-2.89a19.326 19.326 0 0 1-2.69-7.22c-.47-3.02-.19-6.109.8-9" fill="#FFBF9D"/><path d="M1189.74 134.79c1.55-.36 3.06-.879 4.5-1.55a21.107 21.107 0 0 0 4.55-2.85 11.17 11.17 0 0 1-3 3.86 13.128 13.128 0 0 1-5.54 2.64c-.03-.431-.1-.859-.2-1.28a7.936 7.936 0 0 0-.31-.82z" fill="#FF9A6C"/><path d="M1204.4 138.92c2.13.334 4.12 1.263 5.74 2.68a19.404 19.404 0 0 1 4.6 7.54c1.14 3.42.63 16.92.63 20.83 0 3.91-1 18.61-1.49 21.05-.49 2.44.32 6.08 1.45 8.45 2 4.24-1.14 6.41-1.14 6.41l-41.93-.31.17-1.57c.28-2.72-.73-5.5.31-8a26.392 26.392 0 0 0 1.93-11.75c-.54-7-2.63-11.76-1.34-15.81 2-6.18 8.41-20.25 16.21-26.25 0 0 6.15-1.32 7.55-1.81 3.15-1.14 4.84-1.73 7.31-1.46z" fill="#FFDC6B"/><path d="M1155.09 192.79l35.83-7.48.92-31.11s1.26-12.67 7.61-13.85l15.29 19c-.86 9.59-.08 27.74-4.49 34.74-4.41 7-8.69 12.61-19.55 12.12-10.86-.49-34.78-.73-34.78-.73l-.83-12.69z" fill="#FFDC6B"/><path d="M1190.85 185.43c-.09.07.77 1.19 1.49 2.75s1.05 2.94 1.15 2.92a6.872 6.872 0 0 0-.82-3.07 6.81 6.81 0 0 0-1.82-2.6z" fill="#1A2E35"/><path opacity=".3" d="M1192.09 152.87c-3.58 11-2.8 28-9.63 34.2l8.46-1.76a41.437 41.437 0 0 1-.07-6c.68-8.69.77-17.53 1.24-26.46" fill="#000"/><path d="M1192.88 148.95c-.26.818-.47 1.653-.62 2.5-.2 1.014-.35 2.039-.44 3.07-.12 1.23-.14 2.64-.19 4.22-.21 6.35-.5 15.46-.86 26.56l.12-.13-35.84 7.44h-.15v.16c.27 4.07.54 8.36.83 12.73v.17h4.52c6.23.08 12.31.17 18.18.3 2.93.06 5.81.137 8.64.23 2.76.221 5.54.19 8.3-.09 1.33-.183 2.64-.519 3.89-1a16.187 16.187 0 0 0 3.44-1.88c2-1.5 3.75-3.313 5.17-5.37.67-.98 1.33-1.96 2-2.94l.47-.73.41-.76.4-.76c.1-.26.2-.52.31-.78a30.352 30.352 0 0 0 1.6-6.22c.54-3.645.87-7.318 1-11 .16-3.24.23-6 .31-8.31.08-2.31.15-4 .22-5.25 0-.59.06-1 .08-1.37.02-.37 0-.46 0-.46s0 .16-.06.46l-.12 1.36c-.08 1.2-.19 3-.28 5.25-.09 2.25-.2 5.07-.38 8.31a95.55 95.55 0 0 1-1.1 10.94 29.717 29.717 0 0 1-1.6 6.15l-.31.78-.39.73c-.14.25-.26.5-.41.75l-.46.72c-.62 1-1.29 2-2 2.93a23.239 23.239 0 0 1-5.11 5.28 16.897 16.897 0 0 1-3.37 1.84c-1.24.471-2.52.807-3.83 1-2.74.274-5.5.297-8.24.07-2.83-.087-5.71-.167-8.64-.24-5.88-.13-12-.22-18.18-.3l-4.36-.05.18.17c-.29-4.37-.57-8.66-.83-12.73l-.14.18 35.82-7.51h.11v-.12c.31-11.1.56-20.21.73-26.56 0-1.59 0-3 .16-4.22.08-1.03.21-2.054.39-3.07.15-.83.29-1.45.4-1.87l.11-.48c.12-.04.13-.1.12-.1z" fill="#1A2E35"/><path d="M354.65 151.61H109.52a8.19 8.19 0 0 0-8.19 8.19v156.56a8.19 8.19 0 0 0 8.19 8.19h245.13a8.19 8.19 0 0 0 8.19-8.19V159.8a8.19 8.19 0 0 0-8.19-8.19z" fill="#375A64"/><path d="M92.77 313.38H376.1v5.12a10.001 10.001 0 0 1-10 10H102.78a10.002 10.002 0 0 1-10-10v-5.12h-.01z" fill="#375A64"/><path d="M206.31 311.76l3.52 5.59h49.47l3.26-5.59h-56.25z" fill="#1A2E35"/><path d="M360.6 311.76c0 .09-58 .17-129.63.17s-129.63-.08-129.63-.17c0-.09 58-.17 129.63-.17s129.63.08 129.63.17z" fill="#1A2E35"/><path d="M352.49 161.56H110.66a1.84 1.84 0 0 0-1.84 1.84v141.95a1.84 1.84 0 0 0 1.84 1.84h241.83a1.84 1.84 0 0 0 1.84-1.84V163.4a1.84 1.84 0 0 0-1.84-1.84z" fill="#ECECEC"/><path d="M354.07 307.4H108.56l.26-134.96h245.25V307.4z" fill="#fff"/><path d="M128.96 167.18a1.997 1.997 0 0 1-1.235 1.848 2.002 2.002 0 0 1-2.727-1.458 2.002 2.002 0 0 1 1.962-2.39 2 2 0 0 1 2 2zm-11.88 0a1.997 1.997 0 0 1-1.235 1.848 2.002 2.002 0 0 1-2.727-1.458 2.002 2.002 0 0 1 1.962-2.39 2 2 0 0 1 2 2zm5.7 0a2.007 2.007 0 0 1-1.235 1.848 1.994 1.994 0 0 1-1.155.113 1.999 1.999 0 1 1 1.804-3.375c.375.375.586.883.586 1.414zm231.56 127.19H108.56v13.03h245.78v-13.03z" fill="#1A2E35"/><path d="M117.85 302.39v.42h-2v-.33l1-1c.26-.25.31-.4.31-.55 0-.15-.17-.38-.5-.38a.745.745 0 0 0-.62.27l-.34-.26a1.204 1.204 0 0 1 1-.44c.57 0 .94.29.94.76a1.054 1.054 0 0 1-.44.84l-.7.67h1.35zm.26-1.31a.317.317 0 0 1 .087-.226.307.307 0 0 1 .102-.069.295.295 0 0 1 .121-.025.327.327 0 0 1 .262.07.314.314 0 0 1 .114.245.314.314 0 0 1-.237.309.327.327 0 0 1-.139.006.305.305 0 0 1-.219-.091.303.303 0 0 1-.091-.219zm0 1.44a.307.307 0 0 1 .088-.222.307.307 0 0 1 .222-.088.317.317 0 0 1 .226.087c.03.029.053.064.069.102a.32.32 0 0 1-.518.347.317.317 0 0 1-.087-.226zm1.86-2.37v2.66h-.49v-2.24h-.56v-.42h1.05zm2.89 2.09h-.47v.6h-.47v-.6h-1.46v-.34l1.31-1.72h.52l-1.23 1.64h.87v-.58h.46v.54h.47v.46zm205.79-1.09H127.2v.92h201.45v-.92z" fill="#fff"/><path d="M190 300.16h-62.95v1.69H190v-1.69z" fill="#FFDC6B"/><path d="M192.03 301.61c0 1.69-1.37 2.3-3.06 2.3s-3.06-.61-3.06-2.3a3.061 3.061 0 0 1 6.12 0z" fill="#FFDC6B"/><path d="M333.72 301.58a.872.872 0 0 1-.086.358.883.883 0 0 1-.914.502c-.72 0-1.15-.47-1.15-1.32a1.257 1.257 0 0 1 .768-1.315c.168-.07.35-.102.532-.095a1.27 1.27 0 0 1 .7.17l-.18.37a.881.881 0 0 0-.51-.13c-.5 0-.81.31-.81.91a.889.889 0 0 1 .71-.28.838.838 0 0 1 .66.2.826.826 0 0 1 .28.63zm-.48 0c0-.28-.2-.45-.53-.45a.494.494 0 0 0-.195.015.492.492 0 0 0-.345.435c0 .25.2.45.55.45a.46.46 0 0 0 .52-.43v-.02zm.72-.91a.31.31 0 1 1 .62 0 .31.31 0 0 1-.62 0zm0 1.44a.31.31 0 1 1 .62.001.31.31 0 0 1-.62-.001zm.94-1.04c0-.87.48-1.36 1.11-1.36.63 0 1.11.49 1.11 1.36 0 .87-.48 1.37-1.11 1.37-.63 0-1.11-.5-1.11-1.37zm1.72 0c0-.64-.25-.94-.61-.94s-.61.3-.61.94c0 .64.25.94.61.94s.61-.3.61-.94zm.83 0c0-.87.48-1.36 1.11-1.36.63 0 1.11.49 1.11 1.36 0 .87-.48 1.37-1.11 1.37-.63 0-1.11-.5-1.11-1.37zm1.72 0c0-.64-.25-.94-.61-.94s-.61.3-.61.94c0 .64.25.94.61.94s.61-.3.61-.94zm4.79-.16h-.92v-2.65h2.64v.92h-1.72v1.73zm1.72 3.45h-2.64v-2.64h.91v1.72h1.73v.92zm4.22 0h-2.64v-.92h1.72v-1.73h.92v2.65zm0-3.46h-.92v-1.72h-1.73v-.92h2.65v2.64z" fill="#fff"/><path d="M142.23 180.47h-14.47L120.52 193l7.24 12.53h14.47l7.23-12.53-7.23-12.53z" fill="#ECECEC"/><path d="M183.73 192.87c0 .08-6.51.15-14.53.15s-14.53-.07-14.53-.15c0-.08 6.5-.15 14.53-.15s14.53.07 14.53.15zm-13.44 3.04c0 .08-3.45.15-7.71.15s-7.72-.07-7.72-.15c0-.08 3.45-.14 7.72-.14s7.71.06 7.71.14z" fill="#1A2E35"/><path d="M267.05 181.8l4.94-8.71a23.309 23.309 0 0 1 22.14-35.416 23.31 23.31 0 1 1-16.55 41.636l-10.53 2.49z" fill="#FAFAFA"/><path d="M267.05 181.8l10.55-2.41h.11l-.07-.09-.11.1a24.077 24.077 0 0 0 4.79 2.89 23.281 23.281 0 0 0 6.39 1.82c1.222.17 2.457.234 3.69.19.63 0 1.28-.05 1.93-.11l2-.29a23.522 23.522 0 0 0 14.55-9.35 23.11 23.11 0 0 0 3.94-9 23.8 23.8 0 0 0-.28-10.37 22.939 22.939 0 0 0-5-9.58l-.95-1c-.31-.35-.68-.64-1-1a6.14 6.14 0 0 0-1.06-.92l-1.12-.83a9.726 9.726 0 0 0-1.15-.77l-1.19-.72-1.23-.6c-.405-.21-.822-.394-1.25-.55a23.684 23.684 0 0 0-10.44-1.61 22.997 22.997 0 0 0-9.59 2.84 23.652 23.652 0 0 0-11 13.6 25.264 25.264 0 0 0-1 7.58 23.09 23.09 0 0 0 1.14 6.54 23.55 23.55 0 0 0 2.33 5v-.07c-3.11 5.58-4.64 8.31-4.88 8.74l5-8.67a23.696 23.696 0 0 1-2.29-5 22.974 22.974 0 0 1-1.1-6.49 25.067 25.067 0 0 1 1-7.5 23.408 23.408 0 0 1 11-13.44 22.593 22.593 0 0 1 9.48-2.79 23.513 23.513 0 0 1 10.31 1.59c.424.159.838.342 1.24.55l1.22.59 1.16.71c.4.226.785.48 1.15.76l1.1.83c.351.283.685.587 1 .91.351.315.685.649 1 1l.93 1a22.695 22.695 0 0 1 4.89 9.36c.84 3.352.935 6.847.28 10.24a22.923 22.923 0 0 1-3.88 8.9 23.29 23.29 0 0 1-14.4 9.25l-1.94.3c-.65.06-1.29.08-1.92.12a20.815 20.815 0 0 1-3.65-.18 22.926 22.926 0 0 1-6.34-1.78 23.972 23.972 0 0 1-4.78-2.84l-.43-.33.33.43v-.11l-10.46 2.56z" fill="#1A2E35"/><path d="M298.11 159.93a2.28 2.28 0 1 0 4.558 0 2.28 2.28 0 0 0-4.558 0zm-9.1 0a2.284 2.284 0 0 0 1.41 2.107 2.282 2.282 0 0 0 3.107-1.668 2.283 2.283 0 0 0-.978-2.34 2.281 2.281 0 0 0-1.269-.379 2.264 2.264 0 0 0-1.609.668 2.268 2.268 0 0 0-.661 1.612zm-9.08-1.14a2.268 2.268 0 0 0 1.235 3.285 2.269 2.269 0 0 0 1.865-4.115 2.272 2.272 0 0 0-3.1.83z" fill="#1A2E35"/><path d="M267.17 217.67a38.13 38.13 0 0 1 9.58 12.3c2.32 4.83 2.6 8.58 5.91 21.78 1.19 4.73 2.26 8.54 3 11a15.63 15.63 0 0 1 4.72 4.43 12.003 12.003 0 0 1 2.68 6.41c.49 4.13-.48 14.13-1.93 16a3.996 3.996 0 0 1-3.52 1.56l-19-1.9-7.48-52.68c2.007-6.313 4.02-12.613 6.04-18.9z" fill="#FFDC6B"/><path d="M204.83 213.66s-13.58 4.48-17 8.37l11.12 54.42-.18 17.17h64.47c0-.85.58-57 .58-57l3.54-19.55a48.447 48.447 0 0 0-10.45-3.59c-2.5-.54-4-.64-9.84-1.59-2.93-.48-5.33-.9-6.93-1.19l-25.1.66-4.08.68-6.13 1.62z" fill="#FFDC6B"/><path opacity=".3" d="M209.99 261.63c-.2-.47-.48-1-.95-1.07-.78-.17-1.3.8-1.56 1.58a73.068 73.068 0 0 1-8.46 17.38l-.16 8.35c3.75-3.32 7.45-6.88 9.84-11.39 2.39-4.51 3.31-10.15 1.29-14.85z" fill="#000"/><path d="M188.02 221.95c-2.82 5.18-5.06 9.52-6.62 12.59-9.81 19.29-7.1 16.88-15.21 33.34a25.107 25.107 0 0 0-2.83 7.76c-1.2 7.27 1.51 13.74 3.71 17.73h14.47l14.52-30.89.74-35.84-8.78-4.69z" fill="#FFDC6B"/><path d="M182.46 271.82s-.32-.3-1-.69a10.813 10.813 0 0 0-3-1.16 12.985 12.985 0 0 0-2.21-.33 8.185 8.185 0 0 0-2.54.18 9.35 9.35 0 0 0-4.87 3.21 14.28 14.28 0 0 0-2.76 5.39 28.735 28.735 0 0 0-.87 5c-.13 1.44-.18 2.61-.23 3.42 0 .38 0 .69-.06.93.017.109.017.221 0 .33a1.654 1.654 0 0 1 0-.33v-.93c0-.81 0-2 .14-3.44a27.3 27.3 0 0 1 .83-5 14.121 14.121 0 0 1 2.79-5.51 9.522 9.522 0 0 1 5-3.29 8.354 8.354 0 0 1 2.61-.15c.756.057 1.506.181 2.24.37a9.813 9.813 0 0 1 3 1.26c.257.164.498.351.72.56.076.053.146.113.21.18zm-6.86-6.15c.159-.047.324-.074.49-.08a8.102 8.102 0 0 1 1.34 0c.675.042 1.344.146 2 .31.793.21 1.564.498 2.3.86.734.38 1.431.829 2.08 1.34.535.425 1.027.901 1.47 1.42.306.347.583.719.83 1.11.102.139.186.29.25.45 0 0-.44-.58-1.22-1.42a12.617 12.617 0 0 0-1.48-1.34 13.513 13.513 0 0 0-2.05-1.3 13.194 13.194 0 0 0-2.25-.86 11.812 11.812 0 0 0-1.92-.36c-1.14-.13-1.83-.07-1.84-.13zm13.08-1.69a3.07 3.07 0 0 1-.67-.05c-.42-.06-1-.13-1.81-.19-4.005-.31-8.03.2-11.83 1.5-.73.25-1.32.47-1.72.63a2.801 2.801 0 0 1-.64.22c.188-.128.389-.236.6-.32.552-.272 1.12-.512 1.7-.72a25.899 25.899 0 0 1 11.93-1.51c.607.059 1.211.149 1.81.27.216.032.427.089.63.17z" fill="#1A2E35"/><path opacity=".3" d="M246.65 259.9a32 32 0 0 0 3.72 18.25c3 5.48 7.38 10.36 12.85 13 .18-5.58-.08-12.16.1-17.74l-16.67-13.51z" fill="#000"/><path d="M248.24 252.55s-2.13.68-.54 5.72c1.59 5.04 2.13 4.73 3.19 9.45 1.06 4.72 2.3 9 4.16 11.68 1.86 2.68 8.77 8.1 8.77 8.1l6.2-6.77a39.733 39.733 0 0 1-.78-8.49c.25-3.43.87-11.83.78-13.27a27.059 27.059 0 0 0-1.42-4.92v-2.38l-3.18-11.35s-1.78-.92-2.4 2.36l-1.07-3.44s-1.68-.31-2.12 3.69a45.955 45.955 0 0 0 .35 9.53l-.88 7-1.33 4.72-1.15.2s-1.74-.54-2.69-4.32c-.95-3.78-3.51-8.33-5.89-7.51z" fill="#FFBF9D"/><path d="M267.73 270.37v-1c0-.69-.09-1.64-.15-2.83-.1-2.45-.25-5.85-.42-9.83v.09a1.3 1.3 0 0 0-1.38-.38 1.996 1.996 0 0 0-1.26 1 10.012 10.012 0 0 0-.82 3.59l-1 8.11c-.16 1.24-.34 2.43-.57 3.52a23.84 23.84 0 0 1-.84 3c-.3.9-.57 1.71-.74 2.44a8.245 8.245 0 0 0-.22 1.89c.023.546.114 1.087.27 1.61a2.367 2.367 0 0 1-.16-.39 4.689 4.689 0 0 1-.21-1.21 7.853 7.853 0 0 1 .17-1.94c.16-.74.41-1.57.7-2.47.339-.98.609-1.983.81-3 .22-1.09.38-2.27.53-3.51.32-2.5.66-5.23 1-8.11.09-.64.16-1.27.26-1.9a5.335 5.335 0 0 1 .6-1.8 2.357 2.357 0 0 1 1.44-1.1 1.57 1.57 0 0 1 1.64.48l.32 9.84.07 2.82v.75a2.287 2.287 0 0 1-.04.33z" fill="#FF9A6C"/><path d="M264 257.46a2.548 2.548 0 0 1-.29-.64 18.587 18.587 0 0 1-1.06-4.66 8.826 8.826 0 0 1 0-1.72c.05-.623.252-1.224.59-1.75a2.427 2.427 0 0 1 1.24-1h.11l.05.1c1 1.83 1.85 3.45 2.45 4.61l.7 1.38c.094.165.171.339.23.52a2.224 2.224 0 0 1-.31-.47c-.21-.36-.47-.8-.77-1.33-.65-1.14-1.54-2.74-2.53-4.57l.15.07a2.07 2.07 0 0 0-1.09.88 3.473 3.473 0 0 0-.55 1.61 9.204 9.204 0 0 0 0 1.66c.084.941.227 1.877.43 2.8.17.79.35 1.42.48 1.85.075.215.132.436.17.66zm-1.63.92a3.155 3.155 0 0 1-.07-.65c0-.49 0-1.08-.07-1.79 0-1.5-.09-3.59-.12-5.88a54.269 54.269 0 0 1 .09-5.9 8.667 8.667 0 0 1 .37-1.76c.043-.214.128-.418.25-.6a15.13 15.13 0 0 0-.42 2.38c-.14 1.49 0 3.57 0 5.87 0 2.3.05 4.38 0 5.89v1.79c.014.217.004.435-.03.65zm-5.77 18.86s.39-.56.91-1.52c.309-.563.576-1.148.8-1.75.264-.743.468-1.505.61-2.28.124-.781.188-1.57.19-2.36a13.266 13.266 0 0 0-.17-1.94c-.17-1.09-.4-1.74-.35-1.76.09.139.157.29.2.45.146.418.263.846.35 1.28.131.659.205 1.328.22 2 .02.81-.037 1.62-.17 2.42a13.05 13.05 0 0 1-.64 2.33c-.237.611-.528 1.2-.87 1.76a8.707 8.707 0 0 1-.75 1.07 1.88 1.88 0 0 1-.33.3z" fill="#FF9A6C"/><path d="M268.57 273.76l5.92 2.16s5.65-3.08 9.55 0c3.9 3.08 7.28 11.18 6.21 14.46 0 0-2.69 3.49-4.73 4-2.04.51-10-1.51-13.31-2.25-3.31-.74-9-4.63-9-4.63l5.36-13.74z" fill="#FFBF9D"/><path d="M269.3 282.93a2.08 2.08 0 0 1-.06-.55c0-.42-.05-.92-.09-1.51-.06-1.27-.14-3-.17-5s0-3.71.14-5c.05-.63.12-1.15.18-1.5.016-.184.057-.366.12-.54.05 0-.05.79-.1 2.06s-.09 3-.06 5 .07 3.62.09 5v1.51c.002.178-.015.356-.05.53z" fill="#FF9A6C"/><path d="M288.82 275.67a20.57 20.57 0 0 0-2-1.86 10.394 10.394 0 0 0-5.889-2.259 10.394 10.394 0 0 0-6.111 1.559 19.01 19.01 0 0 0-2.15 1.63c.14-.206.305-.394.49-.56a9.11 9.11 0 0 1 1.56-1.25 10.467 10.467 0 0 1 6.22-1.68 10.579 10.579 0 0 1 7.42 3.81c.175.186.329.391.46.61z" fill="#1A2E35"/><path d="M288.06 270.48a11.5 11.5 0 0 0-2.47-1.43 10.379 10.379 0 0 0-6.66-.21 15.117 15.117 0 0 0-3.45 1.51 16.3 16.3 0 0 0-2.49 1.86c-.67.59-1.17 1.11-1.52 1.47a3.312 3.312 0 0 1-.56.55c.138-.223.299-.431.48-.62a16.67 16.67 0 0 1 1.47-1.56 15.127 15.127 0 0 1 2.5-1.93 14.394 14.394 0 0 1 3.5-1.56 10.175 10.175 0 0 1 6.81.3 7.587 7.587 0 0 1 1.82 1.08c.151.121.295.251.43.39a.606.606 0 0 1 .14.15zm.05-4.5c0 .06-1.05-.27-2.77-.52a20.77 20.77 0 0 0-3-.2c-1.241.02-2.478.137-3.7.35a24.373 24.373 0 0 0-3.6 1c-.957.359-1.886.787-2.78 1.28-1.54.85-2.4 1.53-2.44 1.48.186-.182.387-.35.6-.5.231-.189.475-.363.73-.52.3-.2.62-.43 1-.64a18.835 18.835 0 0 1 2.8-1.35 19.761 19.761 0 0 1 7.38-1.37 19.15 19.15 0 0 1 3.07.27c.43.05.81.16 1.15.23.294.062.585.143.87.24.238.06.469.144.69.25z" fill="#1A2E35"/><path opacity=".3" d="M181.12 269.45a10.892 10.892 0 0 0-6.18-.81 11.579 11.579 0 0 0-6.16 2.45 7.392 7.392 0 0 0-2.69 6.11h.22c1.49-4.24 4.45-7.32 8.27-7.7a12.254 12.254 0 0 1 10.17 4.37c-.25-2.17-1.72-3.47-3.63-4.42zm107.97 4.34a9.644 9.644 0 0 0-5.51-3 11.998 11.998 0 0 0-10.29 3.14l.81-.7a12.555 12.555 0 0 1 6.86-2 9.678 9.678 0 0 1 6.53 2.75 18.684 18.684 0 0 1 3.47 5.87 7.647 7.647 0 0 0-1.87-6.06z" fill="#000"/><path d="M261.57 238.51c.038-.21.102-.415.19-.61l.61-1.64c.52-1.37 1.23-3.28 2-5.4.77-2.12 1.4-4 1.86-5.44l.56-1.66c.05-.208.131-.407.24-.59a3.476 3.476 0 0 1-.14.63c-.1.4-.26 1-.47 1.68-.42 1.42-1 3.36-1.78 5.49-.78 2.13-1.5 4-2.06 5.37-.28.68-.52 1.23-.69 1.6a2.439 2.439 0 0 1-.32.57zm-67.39.55c-.07 0-.66-2.66-1.3-6s-1.1-6-1-6c.1 0 .65 2.66 1.3 6s1.06 5.99 1 6z" fill="#1A2E35"/><path d="M193.01 272.51c.15.09-1.8-17.52-1.8-17.52s1.24-13.37 1.94-14v-4.72s1.91-1.33 2.42.81c0 0 1.69-1.68 2 2.32.31 4 .35 8.11.35 8.11l3.77 10.78.62.36s.81-8.45 1.28-9.69c.47-1.24.8-4.27 2.58-3.82 1.78.45 1.94 2.15 1.62 4.9a46.419 46.419 0 0 0-.58 7.39c.15 1.78.86 5.7.64 8.81a18.915 18.915 0 0 1-3.28 8.71c-1.56 2.31-4.55 7.08-6.17 8.51-.56.53-5.39-10.95-5.39-10.95z" fill="#FFBF9D"/><path d="M195.24 258.18a4.27 4.27 0 0 1 0-.75c0-.54.08-1.23.14-2.05.12-1.73.31-4.11.54-6.74.12-1.31.23-2.56.34-3.71a7.682 7.682 0 0 0 0-1.59 2.308 2.308 0 0 0-.52-1.21 2.246 2.246 0 0 0-1.67-.78 4.03 4.03 0 0 0-.7.1.617.617 0 0 1 .17-.09c.167-.073.347-.114.53-.12a2.3 2.3 0 0 1 1.82.75c.325.367.531.824.59 1.31.07.551.07 1.109 0 1.66-.09 1.14-.2 2.39-.31 3.71-.23 2.63-.45 5-.63 6.73l-.22 2c0 .262-.027.523-.08.78zm2.21-7.2a5.99 5.99 0 0 0-.73 1.39 24.483 24.483 0 0 0-.68 3.8c-.22 1.51-.44 2.87-.61 3.85a9.074 9.074 0 0 1-.33 1.58c0-.54.046-1.078.14-1.61.12-1 .3-2.36.52-3.87.133-1.299.395-2.582.78-3.83.14-.364.339-.702.59-1 .18-.24.31-.32.32-.31z" fill="#FF9A6C"/><path d="M195.94 236.87c.071.18.118.368.14.56.08.36.17.88.27 1.53.21 1.3.43 3.11.57 5.11.14 2 .17 3.83.15 5.15 0 .65 0 1.19-.05 1.55.006.192-.014.384-.06.57a16.857 16.857 0 0 1-.08-2.12c0-1.32-.1-3.13-.24-5.13-.14-2-.33-3.8-.48-5.1a18.176 18.176 0 0 1-.22-2.12zm11.83 16.52a1.479 1.479 0 0 1-1.38.12c-.79-.25-1.15-.88-1.08-.91.07-.03.47.42 1.16.63a8.35 8.35 0 0 0 1.3.16z" fill="#FF9A6C"/><path d="M193.4 270.32l-10.83 4.79h-6.46s-6.38 2.1-7.36 8.4c-.98 6.3-1.13 9.53 1.68 10.31 2.81.78 10.74.87 14.66-.51s14.23-10.07 14.23-10.07l1-6.33-6.92-6.59z" fill="#FFBF9D"/><path d="M195.94 277.24s-.12-.09-.31-.3a6.119 6.119 0 0 1-.7-.94 12.982 12.982 0 0 1-1.51-3.6 21.995 21.995 0 0 1-.67-3.88 7.193 7.193 0 0 1 0-1.62c.11.528.187 1.062.23 1.6.164 1.288.411 2.564.74 3.82a15.847 15.847 0 0 0 1.41 3.57c.45.89.85 1.35.81 1.35zm4.72 2c.288-.79.492-1.608.61-2.44a8.092 8.092 0 0 0-1.45-5.72c-.66-1-1.4-1.82-2-2.64a12.021 12.021 0 0 1-1.47-2.33 6.45 6.45 0 0 1-.54-1.79 2.102 2.102 0 0 1 0-.69c.128.829.377 1.634.74 2.39a12.4 12.4 0 0 0 1.49 2.25c.62.8 1.37 1.65 2.05 2.64a8.478 8.478 0 0 1 1.35 3.12c.18.919.204 1.863.07 2.79a7.713 7.713 0 0 1-.5 1.82 3.174 3.174 0 0 1-.22.45c-.073.1-.117.15-.13.15z" fill="#FF9A6C"/><path d="M183.95 251.84c-.06 0-1.25-2.23-2.64-5.06a56.862 56.862 0 0 1-2.39-5.19c.07 0 1.25 2.23 2.64 5.06a56.862 56.862 0 0 1 2.39 5.19zm17.53-20.52a36.44 36.44 0 0 1 1.63-4.22 37.03 37.03 0 0 1 1.88-4.09 74.51 74.51 0 0 1-3.51 8.31zm17.15 13.31a25.878 25.878 0 0 1-2.45-2.89 24.849 24.849 0 0 1-2.24-3.07 23.615 23.615 0 0 1 2.45 2.89 24.849 24.849 0 0 1 2.24 3.07zm-3.94 18.32a19.613 19.613 0 0 1 1.85-2.93 21.65 21.65 0 0 1 2.07-2.77 19.497 19.497 0 0 1-1.85 2.94 21.072 21.072 0 0 1-2.07 2.76zm-5.32 25.87a5.771 5.771 0 0 1-.62-1.13c-.35-.72-.81-1.72-1.27-2.86-.46-1.14-.83-2.17-1.08-2.94a5.38 5.38 0 0 1-.33-1.26c.204.383.377.78.52 1.19l1.15 2.9c.44 1.07.84 2 1.18 2.88.196.388.347.797.45 1.22zm15.1-11a36.523 36.523 0 0 1-6.44-1.31c1.096.073 2.184.244 3.25.51 1.083.178 2.15.445 3.19.8zm11.71-24.17a41.277 41.277 0 0 1 3.09-3.73 39.783 39.783 0 0 1 3.3-3.52 42.082 42.082 0 0 1-3.09 3.72 42.84 42.84 0 0 1-3.3 3.53zm11.78 32.24c-.06.05-1.79-2-3.86-4.7s-3.71-4.84-3.65-4.89c.06-.05 1.79 2.06 3.86 4.7s3.71 4.84 3.65 4.89zm-73.12-13.74c0 .08-1.54.92-3.26 2.31-1.72 1.39-2.92 2.76-3 2.7.185-.369.428-.707.72-1a18.037 18.037 0 0 1 2.09-2 16.76 16.76 0 0 1 2.36-1.6 3.551 3.551 0 0 1 1.09-.41zm4.4-12.43a11.027 11.027 0 0 1-1.25 2.25c-.419.749-.918 1.45-1.49 2.09a12.41 12.41 0 0 1 1.26-2.25c.416-.748.913-1.449 1.48-2.09zm9.93 12.2a5.671 5.671 0 0 1-.91-2.31 5.816 5.816 0 0 1-.13-2.49c.08 0 .11 1.11.4 2.43.29 1.32.71 2.34.64 2.37zm1.47-38.75a7.777 7.777 0 0 1-2.06.45 7.373 7.373 0 0 1-2.1.17 7.995 7.995 0 0 1 2.06-.46 7.597 7.597 0 0 1 2.1-.16zm7.45-13.93a8.178 8.178 0 0 1-1.8 1.22c-.6.417-1.252.754-1.94 1a8.337 8.337 0 0 1 1.8-1.21 8.121 8.121 0 0 1 1.94-1.01zm20.96 5.9a18.929 18.929 0 0 1-2.06-2.61 19.707 19.707 0 0 1-1.84-2.78 38.289 38.289 0 0 1 3.9 5.39zm26.6 13.98a13.922 13.922 0 0 1-3.23-5.47c.08 0 .65 1.28 1.55 2.78.9 1.5 1.75 2.63 1.68 2.69zm10.16 3.52a18.239 18.239 0 0 1-1.1 2.91c-.37.968-.825 1.902-1.36 2.79a16.802 16.802 0 0 1 1.1-2.91c.37-.969.825-1.902 1.36-2.79zm1.43-14.58a29.757 29.757 0 0 1-2.7-3.19 30.233 30.233 0 0 1-2.49-3.37 30.883 30.883 0 0 1 2.7 3.19 31.874 31.874 0 0 1 2.49 3.37zm-15.52-11.82a12.892 12.892 0 0 1-.24-2.73 14.252 14.252 0 0 1 0-2.74c.177.899.257 1.814.24 2.73.088.911.088 1.829 0 2.74zm12.64-.76a19.585 19.585 0 0 1-3.3.61 18.886 18.886 0 0 1-3.33.32 19.585 19.585 0 0 1 3.3-.61 18.886 18.886 0 0 1 3.33-.32zm19.88 15.39a35.956 35.956 0 0 1-2-4 37.287 37.287 0 0 1-1.73-4.11 33.917 33.917 0 0 1 2 4 35.583 35.583 0 0 1 1.73 4.11zm-3.31 13.3a18.19 18.19 0 0 1 .46-3.2c.163-1.068.411-2.121.74-3.15a18.19 18.19 0 0 1-.46 3.2 20.735 20.735 0 0 1-.74 3.15zm9.24 10.48a35.144 35.144 0 0 1-1.59-4.32 38.483 38.483 0 0 1-1.32-4.42 39.374 39.374 0 0 1 1.58 4.33 38.511 38.511 0 0 1 1.33 4.41zm-1.29 6.13a7.061 7.061 0 0 1-2.7-1 7.392 7.392 0 0 1-2.29-1.83c.06-.07 1 .79 2.42 1.57s2.59 1.18 2.57 1.26zm11.83 13.99a8.525 8.525 0 0 1-1-1.91 8.606 8.606 0 0 1-.7-2c.416.59.752 1.232 1 1.91.319.633.555 1.305.7 2zm-69.89 19.47a11.609 11.609 0 0 1-.42-2.49 12.41 12.41 0 0 1-.16-2.51c.235.811.376 1.647.42 2.49.138.829.191 1.67.16 2.51zm36.31-.94c.02-.821.138-1.637.35-2.43.115-.814.323-1.613.62-2.38a11.231 11.231 0 0 1-.35 2.44c-.121.81-.329 1.604-.62 2.37z" fill="#fff"/><path d="M218.53 193.79c.79 8.69-.58 17-2.41 18.89a28.276 28.276 0 0 0 14.12 12.93 22.442 22.442 0 0 0 10.64-12.37 3.903 3.903 0 0 1-1-.79 3.819 3.819 0 0 1-.85-1.67c-.667-3.813-1.333-7.62-2-11.42l-18.5-5.57z" fill="#FFC5AB"/><path d="M218.66 202.07c.05-2.85 0-5.62-.13-8.28l18.54 5.53c.44 2.52.89 5 1.33 7.57a6.898 6.898 0 0 1-1.81 1.87c-4 2.83-11.12.8-18-4.48.05-.73.06-1.46.07-2.21z" fill="#FF9A6C"/><path d="M237.37 192.53c-1.31-3.48-1.68-7.14-2.31-10.77-.46-2.71-.88-5.2-3.65-6.55a9.999 9.999 0 0 0-6.62-.45c-5.91 1.38-6.59 7.1-5.55 12.34.79 4 2.86 7.72 4.91 11.26-2.21.15-5.34-.63-6.85-2.24a12.44 12.44 0 0 0 4.12 5.69c-6.39.59-12.75-2.77-16.71-7.77-3.96-5-5.75-11.44-6.08-17.8-.39-7.54 1.24-15.32 5.45-21.62 8.49-12.68 27.11-16.07 39.63-7.33a27.491 27.491 0 0 1 9.62 12.12 41.702 41.702 0 0 1 2.58 20.18 65.156 65.156 0 0 0-.31 8c0 .86 0 10.88.62 10.77-4 .68-8.72.4-11.78-2.25 1.45 1.89 2.72 3.73 4.16 5.62-5.18-.26-9.36-4.39-11.23-9.2z" fill="#1A2E35"/><path d="M214.99 181.31c-1.91-.82-4.14-1.14-5.63.67-2.2 2.65 2.5 13.39 7.51 10.11 0 0 8.81 9.45 14.76 11.75 5.95 2.3 9.82.4 11.7-1.91 1.88-2.31 8.16-11.61 8.47-20.79.12-3.27-1.07-9.55-1.11-10.91-.14-4.19 1.14-7.78-2.64-10.67a20.41 20.41 0 0 0-13.72-4 21.747 21.747 0 0 0-15.61 8.63c-3.96 5.33-4.14 10.92-3.73 17.12z" fill="#FFBF9D"/><path d="M210.56 184.92c.24-2.09 2-2.69 3.51-1.41 1.51 1.28 2.28 5.88 2 6.6-.28.72-2.67.93-3.27-.43-.6-1.36.68-2.39 2.06-2.12a4.67 4.67 0 0 0-1.08-3.29c-1.24-1.21-2.32-.58-2.56-.21a10.37 10.37 0 0 1-.66.86z" fill="#FF9A6C"/><path d="M216.98 171.42a44 44 0 0 0 14.06-4.63c.518-1.898.657-3.879.41-5.83a16.188 16.188 0 0 1 2.88 6.87c2.85-.49 5.73-1 8.58-1.45a16.498 16.498 0 0 0 0-6.82 28.123 28.123 0 0 1 2.58 7.05c1.68-.78 4-.16 5.82 0 1.72-5 .63-13.71-4.52-16.82-5.15-3.11-13.16-3.13-18.73-1.73-11.86 3-20.28 13.57-18.23 25.41 1.16 6.75 5.42 12.8 11.05 17a26.607 26.607 0 0 1-3.9-19.05z" fill="#1A2E35"/><path d="M229.8 184.72a4.084 4.084 0 0 0-2.909 1.034 4.085 4.085 0 0 0-1.351 2.776 3.999 3.999 0 0 0 3.95 4 4.136 4.136 0 0 0 2.822-1.659 4.134 4.134 0 0 0 .728-3.191 3.797 3.797 0 0 0-3.24-2.96z" fill="#E96A52"/><path d="M242.61 177.89c-.73.13-1.16 1.18-1 2 .16.82 1 1.78 1.73 1.64.73-.14 1.17-1.19 1-2-.17-.81-.96-1.78-1.73-1.64zm-8.64 1.73c-.74.13-1.17 1.18-1 2 .17.82 1 1.79 1.72 1.65.72-.14 1.17-1.19 1-2-.17-.81-.96-1.8-1.72-1.65zm-5.19-1.62a10.07 10.07 0 0 1 3.46-1.68 10.326 10.326 0 0 1 2.77-.36 3.478 3.478 0 0 0-3.46-1.63 3.423 3.423 0 0 0-2.77 3.67zm11.46-3.33a16.173 16.173 0 0 1 3.43-.42 16.46 16.46 0 0 1 3.18.28 3.323 3.323 0 0 0-3.12-2.62 3.433 3.433 0 0 0-3.49 2.76z" fill="#12122B"/><path d="M239.43 181.96c.47-.15.79 1.61 2.6 2.5.88.43 1.81.49 1.84.91 0 .15-.1.29-.52.61-1.23 1-1.85 1.46-2.75 1.42a1.812 1.812 0 0 1-1.21-.43c-.4-.41-.32-.95-.24-2.2.15-2.23.02-2.74.28-2.81z" fill="#FF9A6C"/><path d="M250.17 180.85a4.249 4.249 0 0 0-4.25 3.82 4.13 4.13 0 0 0 3.94 4 1.94 1.94 0 0 0 .53-.07c.394-1.081.705-2.191.93-3.32.275-1.317.436-2.655.48-4a3.572 3.572 0 0 0-1.63-.43z" fill="#E96A52"/><path d="M241.67 193.06a2.745 2.745 0 0 0-2.58-.86 2.505 2.505 0 0 0-1.68 1.11 1.703 1.703 0 0 0 0 1.9 1.846 1.846 0 0 0 2.07.37 5.865 5.865 0 0 0 1.88-1.37c.166-.141.302-.315.4-.51a.54.54 0 0 0-.05-.59" fill="#FF9A6C"/><path d="M237.55 190.64c.25 0 .4 1.69 1.94 2.8 1.54 1.11 3.3.78 3.34 1 .04.22-.38.37-1.13.45a4.14 4.14 0 0 1-2.78-.75 3.77 3.77 0 0 1-1.51-2.36c-.12-.7.03-1.14.14-1.14z" fill="#1A2E35"/><path d="M131.75 199.41c.26 2.8-.18 5.49-.77 6.1h8.08a1.175 1.175 0 0 1-.42-.27 1.075 1.075 0 0 1-.25-.36l-.65-3.64-5.99-1.83z" fill="#FFBF9D"/><path d="M131.8 202.08c0-.92 0-1.81-.05-2.67l6 1.78.43 2.45c-.154.235-.35.438-.58.6-1.31.91-3.59.26-5.81-1.45 0-.23.01-.47.01-.71z" fill="#FF9A6C"/><path d="M137.84 199a18.717 18.717 0 0 1-.74-3.48c-.15-.88-.29-1.68-1.18-2.12a3.27 3.27 0 0 0-2.14-.14c-1.91.44-2.13 2.29-1.8 4a12.347 12.347 0 0 0 1.59 3.63 3.07 3.07 0 0 1-2.21-.72c.26.727.721 1.365 1.33 1.84a6.385 6.385 0 0 1-5.4-2.51 10 10 0 0 1-2-5.75 11.523 11.523 0 0 1 1.76-7 9.354 9.354 0 0 1 12.8-2.36 8.897 8.897 0 0 1 3.11 3.91 13.551 13.551 0 0 1 .83 6.52 20.393 20.393 0 0 0-.1 2.58c0 .28 0 3.52.2 3.48a4.691 4.691 0 0 1-3.81-.73c.47.62.88 1.21 1.35 1.82a4.365 4.365 0 0 1-3.59-2.97z" fill="#1A2E35"/><path d="M130.61 195.38a1.461 1.461 0 0 0-1.82.21c-.71.86.81 4.33 2.43 3.27 0 0 2.84 3 4.77 3.79 1.93.79 3.17.13 3.78-.61a13.263 13.263 0 0 0 2.73-6.72 33.496 33.496 0 0 0-.36-3.52c0-1.36.37-2.52-.85-3.45a6.58 6.58 0 0 0-4.43-1.3 7.007 7.007 0 0 0-5 2.79c-1.32 1.73-1.38 3.53-1.25 5.54z" fill="#FFBF9D"/><path d="M129.18 196.54a.648.648 0 0 1 .406-.637.651.651 0 0 1 .734.177c.45.62.675 1.375.64 2.14-.09.23-.86.3-1.06-.14-.2-.44.23-.77.67-.69a1.49 1.49 0 0 0-.35-1.06c-.4-.39-.75-.19-.83-.07a2.377 2.377 0 0 1-.21.28z" fill="#FF9A6C"/><path d="M131.24 192.18a14.473 14.473 0 0 0 4.55-1.49 5.017 5.017 0 0 0 .13-1.89c.474.66.792 1.419.93 2.22l2.77-.46a5.31 5.31 0 0 0 0-2.21c.38.72.662 1.486.84 2.28a4.215 4.215 0 0 1 1.87 0c.56-1.62.21-4.42-1.45-5.43a8.813 8.813 0 0 0-6-.56c-3.83 1-6.55 4.39-5.89 8.21a8.907 8.907 0 0 0 3.57 5.49 8.628 8.628 0 0 1-1.32-6.16z" fill="#1A2E35"/><path d="M135.39 196.48a1.312 1.312 0 0 0-1.37 1.23 1.269 1.269 0 0 0 1.27 1.3 1.326 1.326 0 0 0 1.141-1.028c.04-.178.043-.363.009-.542a1.21 1.21 0 0 0-1.05-.96z" fill="#E96A52"/><path d="M139.53 194.24c-.23 0-.37.38-.33.65.04.27.31.57.56.53.25-.04.37-.39.33-.65-.04-.26-.31-.53-.56-.53zm-2.79.59c-.24 0-.38.38-.34.64.04.26.31.58.56.53.25-.05.38-.38.34-.64-.04-.26-.31-.58-.56-.53zm-1.67-.52c.33-.255.707-.442 1.11-.55a3.55 3.55 0 0 1 .9-.11 1.119 1.119 0 0 0-1.12-.53 1.108 1.108 0 0 0-.89 1.19zm3.71-1.07a4.711 4.711 0 0 1 1.11-.13 4.31 4.31 0 0 1 1 .09 1.072 1.072 0 0 0-1-.85 1.098 1.098 0 0 0-1.11.89z" fill="#12122B"/><path d="M138.5 195.58c.16 0 .26.53.84.81.29.14.59.16.6.3.01.14 0 .09-.17.19-.4.32-.6.47-.89.46a.55.55 0 0 1-.39-.14c-.13-.13-.1-.3-.07-.71.04-.72 0-.88.08-.91z" fill="#FF9A6C"/><path d="M141.98 195.24a1.374 1.374 0 0 0-1.38 1.23 1.34 1.34 0 0 0 1.27 1.31h.18c.121-.35.221-.708.3-1.07a8.34 8.34 0 0 0 .15-1.28 1.146 1.146 0 0 0-.52-.19z" fill="#E96A52"/><path d="M139.24 199.17a.897.897 0 0 0-.83-.28.827.827 0 0 0-.55.36.577.577 0 0 0 0 .62.599.599 0 0 0 .67.11c.232-.101.441-.251.61-.44a.67.67 0 0 0 .13-.16.161.161 0 0 0 0-.19" fill="#FF9A6C"/><path d="M137.9 198.39c.08 0 .13.55.62.9s1.07.25 1.08.33c.01.08-.12.12-.36.15a1.382 1.382 0 0 1-.9-.25 1.251 1.251 0 0 1-.49-.76c-.04-.23.01-.37.05-.37z" fill="#1A2E35"/></svg>