<svg width="1380" height="325" fill="none" xmlns="http://www.w3.org/2000/svg"><path d="M1360.74-2.67H19.27c-11.046 0-20 8.954-20 20v290.35c0 11.046 8.954 20 20 20h1341.47c11.05 0 20-8.954 20-20V17.33c0-11.046-8.95-20-20-20z" fill="#FFEAE9"/><path d="M250.14 203.08c-8.09-12.38-6.91-30.06 2.75-41.25 3-3.48 7.19-6.5 11.77-6.1 4.58.4 8.45 4.41 9.88 8.89 1.43 4.48.93 9.33.09 13.95-1.17 6.48-3.13 13.1-7.62 17.91-4.49 4.81-11.1 9.75-16.87 6.6zm4.47 59.57a18.512 18.512 0 0 1 5.16-21c1.86-1.52 4.29-2.7 6.62-2.08 2.33.62 3.95 3 4.28 5.48a15.175 15.175 0 0 1-1.22 7.19c-1.19 3.23-2.8 6.47-5.55 8.54-2.75 2.07-6.6 4-9.29 1.87zm-19.51-4.25a26.749 26.749 0 0 0-13.49-28.24c-3.08-1.61-6.88-2.56-10-1s-4.71 5.47-4.46 9c.25 3.53 2 6.83 3.84 9.84 2.64 4.23 5.88 8.34 10.38 10.47 4.5 2.13 10.53 3.75 13.71-.09m1.42-29.65c3.88-12.5-2.69-27.66-13.64-34.83-3.4-2.23-7.7-3.78-11.5-2.33-3.8 1.45-6.12 5.81-6.24 10-.12 4.19 1.48 8.17 3.32 11.9 2.57 5.23 5.85 10.39 10.85 13.38s13.07 6 17.21 1.91" fill="#FE736B"/><path d="M244.28 289.84a3.52 3.52 0 0 1-.12-.61c-.07-.45-.16-1-.26-1.74-.06-.39-.11-.81-.18-1.26-.07-.45-.18-1-.28-1.49-.21-1.07-.42-2.29-.77-3.61-.16-.66-.33-1.36-.5-2.08-.17-.72-.43-1.46-.65-2.23-.42-1.55-1-3.16-1.62-4.87a94.798 94.798 0 0 0-4.82-10.7 96.389 96.389 0 0 0-6.25-9.94c-1.11-1.43-2.11-2.83-3.17-4-.52-.62-1-1.21-1.5-1.78l-1.45-1.57c-.91-1-1.81-1.87-2.59-2.63l-1.12-1.09-.95-.84-1.31-1.18a3.387 3.387 0 0 1-.44-.44s.19.1.51.35l1.37 1.11 1 .81 1.11 1c.8.74 1.73 1.58 2.66 2.59l1.49 1.56L226 247c1.08 1.2 2.1 2.59 3.22 4a81.218 81.218 0 0 1 11.14 20.76c.57 1.73 1.18 3.35 1.58 4.91.21.78.42 1.53.62 2.26.2.73.33 1.43.48 2.1.33 1.33.51 2.56.69 3.64.093.533.173 1.033.24 1.5.05.46.09.88.13 1.27.07.72.12 1.3.16 1.76.039.211.046.427.02.64z" fill="#1A2E35"/><path d="M244 292.08a.806.806 0 0 1 0-.25c0-.19 0-.43.05-.72.07-.68.15-1.61.26-2.78.06-.61.12-1.27.2-2 .08-.73.07-1.54.12-2.4.06-1.71.23-3.67.16-5.83v-3.4c0-1.18-.13-2.4-.19-3.67-.08-2.55-.43-5.24-.73-8.08a116.209 116.209 0 0 0-10.53-35.52c-1.3-2.55-2.48-5-3.79-7.18-.64-1.09-1.22-2.18-1.85-3.18l-1.84-2.85c-1.13-1.85-2.33-3.4-3.32-4.8-.51-.7-1-1.36-1.41-1.94-.41-.58-.87-1.1-1.25-1.58l-1.73-2.19-.44-.57a1.181 1.181 0 0 1-.14-.21s.07 0 .18.17l.48.55c.44.51 1 1.23 1.81 2.12l1.29 1.55c.46.58.93 1.23 1.45 1.92 1 1.39 2.24 2.93 3.39 4.77l1.88 2.85c.64 1 1.23 2.08 1.88 3.17 1.34 2.18 2.54 4.63 3.85 7.19a124.032 124.032 0 0 1 6.76 17.4 122.136 122.136 0 0 1 3.81 18.26c.3 2.86.63 5.57.69 8.12.05 1.28.16 2.51.16 3.69v3.41c0 2.17-.16 4.13-.25 5.85-.06.86-.09 1.66-.16 2.4s-.17 1.4-.25 2c-.15 1.17-.26 2.1-.35 2.77 0 .29-.08.53-.11.72a.68.68 0 0 1-.08.24z" fill="#1A2E35"/><path d="M265.06 170.67s0 .08-.1.23c-.1.15-.21.39-.35.65l-1.38 2.45c-.3.54-.65 1.12-1 1.78-.35.66-.69 1.4-1.08 2.18l-1.25 2.5c-.42.9-.82 1.86-1.27 2.86-.45 1-.92 2-1.37 3.17-.45 1.17-.87 2.28-1.34 3.48l-.71 1.84-.65 1.92-1.35 4c-1.72 5.55-3.34 11.72-4.71 18.28-1.37 6.56-2.26 12.89-2.95 18.66-.69 5.77-1 11-1.15 15.38-.11 2.2-.13 4.18-.14 5.93-.01 1.75 0 3.25 0 4.48v3.56a.657.657 0 0 1 0 .25 1.203 1.203 0 0 1 0-.24c0-.2 0-.44-.05-.74 0-.69-.08-1.63-.14-2.83-.06-1.2-.1-2.73-.1-4.48 0-1.75 0-3.74.07-5.94.07-4.4.47-9.63 1-15.42.53-5.79 1.61-12.09 2.96-18.62 1.35-6.53 3-12.77 4.76-18.33.48-1.37.94-2.72 1.38-4 .23-.65.45-1.29.67-1.93l.72-1.84c.48-1.2.94-2.36 1.38-3.48.46-1.11 1-2.15 1.4-3.16.4-1.01.87-2 1.31-2.85.44-.85.88-1.71 1.29-2.49l1.12-2.17c.36-.65.73-1.23 1-1.76l1.47-2.42.39-.63.17-.27zm-2.75 75.94a9.916 9.916 0 0 1-.86 1.51c-.59.95-1.4 2.35-2.35 4.1a89.5 89.5 0 0 0-3.07 6.29c-1.07 2.41-2.06 5.13-3 8s-1.56 5.72-2.08 8.31c-.52 2.59-.82 4.94-1 6.92-.18 1.98-.32 3.59-.37 4.71a9.732 9.732 0 0 1-.14 1.73 11.237 11.237 0 0 1-.06-1.74c0-1.12 0-2.74.19-4.73.19-1.99.45-4.37.91-7a71.732 71.732 0 0 1 5.09-16.45 69.683 69.683 0 0 1 3.18-6.27c1-1.74 1.86-3.11 2.51-4a11.92 11.92 0 0 1 1.05-1.38z" fill="#1A2E35"/><path d="M228.39 284.27h35.55l-4.3 36.3h-26.82l-4.43-36.3z" fill="#375A64"/><path d="M229.69 316.65l3.02 3.92h26.93l3.1-3.8-33.05-.12z" fill="#1A2E35"/><path d="M262.55 294.94c0 .15-7.37.27-16.47.27-9.1 0-16.48-.12-16.48-.27 0-.15 7.38-.26 16.48-.26 9.1 0 16.47.12 16.47.26zm0 2.42c0 .15-7.37.26-16.47.26-9.1 0-16.48-.11-16.48-.26 0-.15 7.38-.27 16.48-.27 9.1 0 16.47.12 16.47.27zm-.44 2.34c0 .15-7.12.26-15.9.26-8.78 0-15.9-.11-15.9-.26 0-.15 7.12-.27 15.9-.27 8.78 0 15.9.12 15.9.27z" fill="#FAFAFA"/><path d="M226.35 44.37c.375-2.12.092-4.305-.81-6.26a10.152 10.152 0 0 0-4-4.69 8.15 8.15 0 0 0-9.83 1.23 8.002 8.002 0 0 0-1.5-3.24 8.242 8.242 0 0 0-5.67-3.14 10 10 0 0 0-6 1.47 10.384 10.384 0 0 0-4.32 4.6 12.722 12.722 0 0 0-.9 8 18.097 18.097 0 0 0 4.14 7.47c3.12 3.58 7.28 8.15 7.28 8.15s5.35-1.84 10-2.92a18.239 18.239 0 0 0 7.72-3.64 12.792 12.792 0 0 0 3.89-7.03zm748.58.63a6.147 6.147 0 0 0-.49-3.7 6 6 0 0 0-2.37-2.78 4.83 4.83 0 0 0-5.81.73 5 5 0 0 0-.89-1.92 4.916 4.916 0 0 0-3.37-1.9 6 6 0 0 0-3.55.87 6.173 6.173 0 0 0-2.54 2.7 7.502 7.502 0 0 0-.53 4.71 10.775 10.775 0 0 0 2.44 4.42c1.85 2.12 4.31 4.82 4.31 4.82s3.17-1.08 5.91-1.72a10.809 10.809 0 0 0 4.56-2.16 7.592 7.592 0 0 0 2.33-4.07zM468.38 87.17c.369-2.087.09-4.237-.8-6.16a10.003 10.003 0 0 0-4-4.63A8.001 8.001 0 0 0 454 77.6a8.008 8.008 0 0 0-1.47-3.19 8.13 8.13 0 0 0-5.59-3.1 9.881 9.881 0 0 0-5.94 1.45 10.281 10.281 0 0 0-4.25 4.53 12.565 12.565 0 0 0-.89 7.85 17.857 17.857 0 0 0 4.07 7.35c3.08 3.53 7.17 8 7.17 8s5.27-1.81 9.83-2.88a17.682 17.682 0 0 0 7.6-3.58 12.61 12.61 0 0 0 3.85-6.86zm542.83-.82a10.386 10.386 0 0 0-4.94-3.77 10.002 10.002 0 0 0-6.07-.45 8.003 8.003 0 0 0-6 7.72 8 8 0 0 0-9.44.59 10.001 10.001 0 0 0-3.13 5.21 10.282 10.282 0 0 0 .22 6.21 12.583 12.583 0 0 0 5 6.16 17.787 17.787 0 0 0 8.09 2.29c4.67.3 10.74.56 10.74.56s2.43-5 4.89-9a17.842 17.842 0 0 0 2.8-7.92c.12-2.7-.64-5.365-2.16-7.6zM117 181.52a9.002 9.002 0 0 0-1.32-5.24 8.611 8.611 0 0 0-3.87-3.59 7.075 7.075 0 0 0-5.55 0 7.233 7.233 0 0 0-2.68 2 6.995 6.995 0 0 0-1.59-2.6 7.083 7.083 0 0 0-5.12-2.09 8.589 8.589 0 0 0-5 1.84 8.938 8.938 0 0 0-3.21 4.34 11 11 0 0 0 0 6.86A15.482 15.482 0 0 0 93 189c3 2.73 7 6.2 7 6.2s4.37-2.08 8.19-3.47a15.403 15.403 0 0 0 6.2-3.86 10.93 10.93 0 0 0 2.61-6.35zm238.23 134.23l-.05-9.11H338.1L338 320l1 .07c4.72.27 24 1 27.13.06 3.61-1.13-10.9-4.38-10.9-4.38z" fill="#FE736B"/><path opacity=".6" d="M344.21 320.05a5.868 5.868 0 0 0-2.18-3.64 5.762 5.762 0 0 0-4-1.25v4.77l6.18.12z" fill="#fff"/><path opacity=".6" d="M362.29 317.6s5.09 1.47 4.45 2.3c-.64.83-20.13.82-28.73.05v-.38l22.74.22s.55-2.15 1.54-2.19z" fill="#fff"/><path d="M337.92 319.44h1.13l3.11.14c2.62.1 6.24.18 10.24.19 4 .01 7.63-.06 10.25-.15l3.11-.12.84-.05h.29-1.14l-3.1.05c-2.62.05-6.25.1-10.25.09-4-.01-7.62-.07-10.24-.13l-3.11-.07h-1.13v.05z" fill="#1A2E35"/><path d="M360.78 320.12a6.793 6.793 0 0 1 .58-1.48c.31-.43.665-.826 1.06-1.18-.534.187-.977.57-1.24 1.07a2.292 2.292 0 0 0-.4 1.59zm-5.36-2.96c.05 0 .29-.26.54-.65.25-.39.41-.74.36-.77-.05-.03-.29.26-.54.65-.25.39-.41.74-.36.77zm-1.42-.73s.3-.14.6-.4.5-.52.46-.56c-.04-.04-.3.14-.6.4s-.46.52-.46.56zm-.84-1.62c.287.108.595.149.9.12.3.035.603.004.89-.09a2 2 0 0 0-.89-.12 2.382 2.382 0 0 0-.9.09zm-.29-1.13c.295.199.644.301 1 .29.34.054.688.006 1-.14a6.085 6.085 0 0 0-1-.07 5.006 5.006 0 0 0-1-.08z" fill="#1A2E35"/><path d="M356 315.67c.364.063.736.063 1.1 0 .397-.05.789-.137 1.17-.26.229-.068.45-.158.66-.27a.683.683 0 0 0 .28-.34.452.452 0 0 0-.17-.44 2.001 2.001 0 0 0-2.49.58 2.214 2.214 0 0 0-.36.73.758.758 0 0 0 0 .3 3.32 3.32 0 0 1 .5-.94c.253-.282.578-.49.94-.6a1.648 1.648 0 0 1 1.31.09c.17.13.11.33-.09.45-.196.103-.4.19-.61.26a8.63 8.63 0 0 1-1.13.29c-.69.12-1.11.12-1.11.15z" fill="#1A2E35"/><path d="M356.28 315.73a1.07 1.07 0 0 0 .13-.77 1.818 1.818 0 0 0-.3-.8 1.104 1.104 0 0 0-.91-.56.438.438 0 0 0-.34.51c.026.175.091.343.19.49.139.242.311.464.51.66.172.198.387.352.63.45 0 0-.22-.2-.52-.55a3.767 3.767 0 0 1-.46-.66c-.15-.23-.25-.64 0-.69.25-.05.56.24.73.46.15.217.255.462.31.72.037.245.047.493.03.74zm-18.48-.64h1.26a5.648 5.648 0 0 1 2.76 1.14 5.498 5.498 0 0 1 1.71 2.44c.127.398.234.802.32 1.21v-.34a4.373 4.373 0 0 0-.19-.92 5.187 5.187 0 0 0-4.59-3.67 4.475 4.475 0 0 0-.94 0 1.003 1.003 0 0 0-.33.14zm1.78-7.64a32.976 32.976 0 0 0-.15 3.5 32.047 32.047 0 0 0 .05 3.52 28.78 28.78 0 0 0 .16-3.51c.048-1.17.028-2.342-.06-3.51zm6.42 10.37c.815.196 1.653.28 2.49.25a9.896 9.896 0 0 0 2.5-.19c0-.06-1.12 0-2.49 0s-2.5-.12-2.5-.06z" fill="#1A2E35"/><path d="M342.68 317.81c0 .05.1.24.21.5.11.26.17.48.23.48s.09-.27 0-.57c-.09-.3-.4-.45-.44-.41zm-1.25-1.57c-.05 0 .06.22.24.4.18.18.35.29.39.25.04-.04-.06-.22-.24-.39s-.35-.3-.39-.26zm-1.81-.72c0 .06.24.06.49.15s.43.22.48.18c.05-.04-.1-.27-.41-.38-.31-.11-.58 0-.56.05zm-1.28-.34c0 .06.07.14.22.2s.27.06.29 0c.02-.06-.08-.14-.22-.19-.14-.05-.27-.06-.29-.01z" fill="#1A2E35"/><path d="M413.14 14.73l-150.33 6.05v34.67l152.56-5.6-2.23-35.12zM440 27.61s8.55-1 10.58 2.67c0 0-1.73 4.68-10.21 4.29l-.37-6.96z" fill="#FE736B"/><path d="M440.74 26l.87 9.59-10.31 1s-4.23.34-9.12 5.6c-4.89 5.26-6.81 7.65-6.81 7.65l-2.23-35.12 6.78 6.35a16.356 16.356 0 0 0 4.56 3 26.012 26.012 0 0 0 6.43 2.16c3.278.141 6.562.064 9.83-.23zm-177.93-5.22s-9.07 5.19-7.26 18.6c1.55 11.56 7.26 16.07 7.26 16.07V20.78z" fill="#1A2E35"/><path opacity=".4" d="M413.86 27.53l-151.05 5.52v9.38l151.61-6.03-.56-8.87z" fill="#fff"/><path d="M302.9 316.3l.05-9.12H320l.07 13.34-1.06.07c-4.71.26-24 1-27.13.06-3.49-1.07 11.02-4.35 11.02-4.35z" fill="#FE736B"/><path opacity=".6" d="M313.92 320.59a5.93 5.93 0 0 1 2.17-3.64 5.722 5.722 0 0 1 4-1.24v4.77l-6.17.11z" fill="#fff"/><path opacity=".6" d="M295.83 318.14s-5.08 1.47-4.45 2.31c.63.84 20.14.81 28.73.05v-.39l-22.75.23s-.53-2.16-1.53-2.2z" fill="#fff"/><path d="M320.21 320h-.29l-.85.06-3.1.13c-2.62.1-6.24.19-10.25.2-4.01.01-7.63-.07-10.25-.15l-3.1-.13-.84-.05h-.3 1.14l3.11.06c2.62 0 6.24.1 10.24.09 4-.01 7.62-.07 10.25-.13l3.1-.07h.84l.3-.01z" fill="#1A2E35"/><path d="M297.35 320.67a7.877 7.877 0 0 0-.59-1.48 6.283 6.283 0 0 0-1.06-1.19 2.28 2.28 0 0 1 1.24 1.08 2.33 2.33 0 0 1 .41 1.59zm5.36-2.96s-.29-.27-.54-.66c-.25-.39-.42-.73-.37-.76.05-.03.29.26.54.65.25.39.42.74.37.77zm1.38-.71s-.31-.13-.6-.4-.51-.51-.47-.55c.04-.04.31.13.6.4s.51.48.47.55zm.91-1.64a3.991 3.991 0 0 1-1.78 0c.285-.104.589-.141.89-.11.301-.035.606.003.89.11zm.26-1.14a1.734 1.734 0 0 1-1 .29 1.77 1.77 0 0 1-1-.13c.33-.057.665-.08 1-.07a6.709 6.709 0 0 1 1-.09z" fill="#1A2E35"/><path d="M302.13 316.22c-.364.06-.736.06-1.1 0a6.886 6.886 0 0 1-1.17-.25 3.706 3.706 0 0 1-.67-.28.553.553 0 0 1-.27-.34.432.432 0 0 1 .16-.44 2 2 0 0 1 2.49.59c.176.211.299.462.36.73a.587.587 0 0 1 0 .3 2.927 2.927 0 0 0-.5-.94 2.002 2.002 0 0 0-.94-.61 1.75 1.75 0 0 0-1.31.09c-.17.13-.1.34.09.45.196.111.404.198.62.26.368.131.746.231 1.13.3.69.1 1.11.1 1.11.14z" fill="#1A2E35"/><path d="M301.84 316.27a1.12 1.12 0 0 1-.13-.76c.038-.286.14-.56.3-.8a1.093 1.093 0 0 1 .92-.56.43.43 0 0 1 .33.5 1.137 1.137 0 0 1-.18.49 3.16 3.16 0 0 1-.52.67 1.423 1.423 0 0 1-.63.44s.22-.19.52-.54c.177-.202.332-.424.46-.66.15-.23.26-.65 0-.7-.26-.05-.55.25-.72.47a1.815 1.815 0 0 0-.31.71 5.229 5.229 0 0 0-.04.74zm18.48-.64s-.49 0-1.26.05a5.525 5.525 0 0 0-2.75 1.14 5.592 5.592 0 0 0-1.72 2.43c-.26.73-.28 1.23-.32 1.22a1.021 1.021 0 0 1 0-.34c.031-.315.091-.626.18-.93a5.37 5.37 0 0 1 1.73-2.54 5.282 5.282 0 0 1 2.87-1.13c.312-.033.628-.033.94 0 .115.016.226.05.33.1zm-1.78-7.63a28.78 28.78 0 0 1 .16 3.51c.048 1.17.028 2.342-.06 3.51a30.248 30.248 0 0 1-.15-3.51 31.862 31.862 0 0 1 .05-3.51zm-6.45 10.37a9.66 9.66 0 0 1-2.49.25 9.168 9.168 0 0 1-2.5-.2c0-.06 1.12 0 2.5 0s2.49-.11 2.49-.05z" fill="#1A2E35"/><path d="M315.44 318.36s-.09.24-.2.49c-.11.25-.18.49-.24.48-.06-.01-.09-.27.05-.56.14-.29.35-.45.39-.41zm1.26-1.57s-.07.22-.25.4c-.18.18-.35.29-.39.25-.04-.04.07-.22.25-.4.18-.18.35-.29.39-.25zm1.8-.72c0 .06-.24.06-.49.14-.25.08-.43.23-.47.19-.04-.04.1-.28.41-.38.31-.1.57-.02.55.05zm1.29-.34s-.08.14-.22.2-.27.05-.3 0c-.03-.05.08-.14.22-.2s.28-.05.3 0z" fill="#1A2E35"/><path d="M364.49 60.78S391 72 391.83 71.55c.83-.45 1.46-20.89 1.46-20.89l13.22-.49S409 81.44 401 86.51C390.18 93.44 363.9 79 363.9 79l.59-18.22zm-13.33-7.34c0-3.31.06-6.19.06-6.19s6.68-.71 7.09-7.34c.41-6.63 0-21.91 0-21.91l-12.17-5.95-13.39 10.14 1.41 31.56a8.502 8.502 0 0 0 14.479 5.656 8.509 8.509 0 0 0 2.521-5.966z" fill="#FFBF9D"/><path d="M356.67 29.64a1.074 1.074 0 0 1-.661.988 1.068 1.068 0 0 1-1.458-.78 1.064 1.064 0 0 1 .455-1.098 1.068 1.068 0 0 1 1.351.133c.2.201.313.473.313.757zm1.03-1.16c-.14.13-.93-.53-2.07-.59-1.14-.06-2 .48-2.12.33-.12-.15.08-.32.46-.58a2.8 2.8 0 0 1 3.34.21c.34.3.45.57.39.63zm-10.85 1.37a1.16 1.16 0 1 1-2.318.001 1.16 1.16 0 0 1 2.318-.001zm.72-1.26c-.15.15-1-.58-2.25-.64-1.25-.06-2.18.53-2.31.36-.13-.17.09-.35.5-.63a3.059 3.059 0 0 1 3.64.22c.37.33.49.62.42.69zm3.3 7.34c.49.142 1.002.19 1.51.14.136.018.274.018.41 0a.623.623 0 0 0 .44-.37 1.473 1.473 0 0 0-.08-1l-.59-1.91a23.824 23.824 0 0 0-1.84-4.79c.252 1.71.692 3.386 1.31 5 .21.65.42 1.27.63 1.89.11.209.158.445.14.68 0 .11-.2.16-.44.17a4.14 4.14 0 0 0-1.49.19z" fill="#1A2E35"/><path d="M346.49 36.38c0 .76-1.19 1.3-2.6 1.33-1.41.03-2.58-.46-2.62-1.21-.04-.75 1.11-1.5 2.59-1.5 1.48 0 2.65.63 2.63 1.38zm11.91 1.25c-1.46 0-2.49-.66-2.53-1.2-.04-.54 1-1.41 2.6-1.52v1.32c0 .45-.04.95-.07 1.4z" fill="#FF9A6E"/><path d="M348 38.11c-1.25-.57 3.42 1.35 5.7 1a3.13 3.13 0 0 1-3.53 1.65c-2.56-.64-2.17-2.65-2.17-2.65z" fill="#fff"/><path d="M351.53 47.25a16.53 16.53 0 0 1-8.78-3s2 4.87 8.64 4.59l.14-1.59z" fill="#FF9A6E"/><path d="M312.35 45.2a25.108 25.108 0 0 0 7.81-9.33c1.93-4.1 1.17-5.75 3.43-11.75 1.61-4.28 2.7-7.17 5.46-10.06a20.45 20.45 0 0 1 12.71-6.34c2.58 0 7.09-1.42 13.66 5.41s3 14.18 3 14.18l-1.1-1-9.7-2.5c.77-2.62-.36-5.87-1-7.38l-.06-.06c-1.94 9.92-12.87 11-12.87 11a46.002 46.002 0 0 1 1.44 16.88c-.197 2-.531 3.985-1 5.94a21.54 21.54 0 0 1-12.73.34 21.327 21.327 0 0 1-9.05-5.33z" fill="#1A2E35"/><path d="M348.36 9.38c0 .17 1.19.45 3 1.3a15.87 15.87 0 0 1 8.94 11.6c.37 1.94.32 3.19.5 3.2.18.01.47-1.24.29-3.31a14.48 14.48 0 0 0-9.42-12.23c-2-.7-3.3-.69-3.31-.56z" fill="#1A2E35"/><path d="M331.94 35.65a8.196 8.196 0 0 0-.36-3.27 3.107 3.107 0 0 0-2.38-2.06 2.613 2.613 0 0 0-2.69 2.18 3.219 3.219 0 0 0 1.64 3.19 4.238 4.238 0 0 0 3.68.1" fill="#FFBF9D"/><path d="M330 35.13c0-.08-.25-.17-.57-.46a1.793 1.793 0 0 1-.523-2.142c.11-.242.271-.456.473-.628.3-.29.57-.4.55-.48-.02-.08-.34-.11-.79.16a2.003 2.003 0 0 0-1 1.73 1.999 1.999 0 0 0 1 1.69c.5.25.86.2.86.13z" fill="#FF9A6E"/><path d="M370.12 137.45l-8.3 175.2-26.59.56 6.89-151.4-18 150.76-27.16.67 21.26-177.71" fill="#1A2E35"/><path d="M349.29 312.91c.16 0 2.07-39.15 4.27-87.44 2.2-48.29 3.87-87.47 3.71-87.47-.16 0-2.07 39.14-4.27 87.45-2.2 48.31-3.86 87.46-3.71 87.46zm-39.69-1.41c.15 0 4.93-38 10.67-84.92s10.27-85 10.12-85c-.15 0-4.94 38-10.68 84.92-5.74 46.92-10.27 84.98-10.11 85zm4.95-248.76a29.855 29.855 0 0 1 11.57-7.49 23.93 23.93 0 0 1 6.63-1.34v-1.35l7.34.15s.38 1.15.78 2.46c.39 1 .58 3.19 1.05 3.19.47 0 1.21-2.14 1.93-3.21l1.26-2.52 6.78-.33V54a41.51 41.51 0 0 1 12.78 3.82c.75 2.49 3.92 13.38 3 23.38a26.075 26.075 0 0 1-3.32 11.63 23.625 23.625 0 0 1-2.13 3l.32 17.83 7.54 23.75-51.9.54 5.9-25.64-2.69-25.41a32.376 32.376 0 0 1-6.88-24.2l.04.04z" fill="#375A64"/><path d="M345.27 52.88a4.71 4.71 0 0 0 .36 1.56l.54 1.65c.11.31.2.61.35 1 .085.231.247.426.46.55a.798.798 0 0 0 .79-.07 25.426 25.426 0 0 0 4.38-3.27 26.943 26.943 0 0 0-4.66 2.78c-.39.37-.58-.59-.83-1.15-.25-.56-.43-1.07-.65-1.6-.39-.93-.66-1.48-.74-1.45zm-13.13 1.39a15.151 15.151 0 0 0 4.44 4.52l.38.26.23.17.16-.24a13.778 13.778 0 0 0 2.44-5.35c-.15-.06-1.06 2.36-2.91 5l.4-.07-.37-.26c-2.81-1.99-4.64-4.14-4.77-4.03zm11.93 83.51a3.67 3.67 0 0 0 .07-.81c0-.58 0-1.35.08-2.31 0-2 0-4.93-.05-8.52-.12-7.19-.46-17.12-.89-28.08-.43-10.96-.78-20.83-1-28.07-.1-3.55-.17-6.44-.23-8.51v-2.31a3.923 3.923 0 0 0-.05-.81 4.287 4.287 0 0 0-.06.8c0 .59 0 1.36-.08 2.32 0 2 0 4.92.05 8.52.12 7.19.46 17.12.89 28.08.43 10.96.78 20.83 1 28.07.1 3.54.17 6.43.23 8.51v2.31c-.004.271.01.541.04.81zm-6.48-66.35c0-.06-.45-.13-.85.38a1.293 1.293 0 0 0-.22 1.08 1.277 1.277 0 0 0 1.06.88 1.259 1.259 0 0 0 1.26-.53 1.3 1.3 0 0 0 .11-1.1c-.23-.61-.7-.68-.7-.61 0 .07.25.26.31.72a.9.9 0 0 1-.15.7.773.773 0 0 1-.75.26.798.798 0 0 1-.64-.47.945.945 0 0 1 .06-.72c.2-.41.53-.5.51-.59zm-.18 17.94c0-.06-.39-.12-.75.31a1.128 1.128 0 0 0-.23.93 1.09 1.09 0 0 0 .9.82 1.052 1.052 0 0 0 1.12-.5.998.998 0 0 0 0-1c-.3-.5-.75-.43-.72-.35.03.08.26.16.36.52a.537.537 0 0 1-.074.57.545.545 0 0 1-.546.18.633.633 0 0 1-.559-.696.625.625 0 0 1 .119-.304c.13-.3.4-.39.38-.48z" fill="#1A2E35"/><path d="M295.431 133.186l7.46-36.117 34.394 7.104a15.84 15.84 0 0 1 12.309 18.716l-1.052 5.093a15.84 15.84 0 0 1-18.716 12.308l-34.395-7.104z" fill="#FE736B"/><path d="M275 91.3l55.33 11.44a4.189 4.189 0 0 0-.601-3.143 4.175 4.175 0 0 0-2.649-1.797l-47.18-9.74a4.162 4.162 0 0 0-4.9 3.24z" fill="#FE736B"/><path opacity=".4" d="M302.14 96.9c.955.365 1.943.64 2.95.82 1.85.43 4.41 1 7.24 1.58 2.83.58 5.4 1.09 7.27 1.43.985.233 1.989.374 3 .42a17.585 17.585 0 0 0-3-.81c-1.85-.44-4.4-1-7.24-1.59-2.84-.59-5.4-1.09-7.27-1.42a16.886 16.886 0 0 0-2.95-.43z" fill="#000"/><path opacity=".3" d="M300.06 111.14c.12-.86.25-1.71.37-2.56a133.803 133.803 0 0 1 17.8 17.42 20.984 20.984 0 0 1 3.94 5.88 7.824 7.824 0 0 1-.3 6.86l-14.38-3.21-7.43-24.39z" fill="#000"/><path d="M285.68 119c-.69-.78-5.41-6.34-4.09-13.76a15.998 15.998 0 0 1 4.16-8.11c9.5-10.553 19.023-21.1 28.57-31.64A31.491 31.491 0 0 0 319.91 85l-21.19 23.8 17.33 21.59c2.67 3.33 4.12 8 2.73 12.05l-2.31 4.84a7.11 7.11 0 0 1-9.33 3.42l-4.14-1.86a1.538 1.538 0 0 1-.818-1.931c.088-.242.235-.458.428-.629l1-.88a3.55 3.55 0 0 1 2.7-.86l5.28.53.24-1L285.68 119z" fill="#FFBF9D"/><path d="M302.16 147c.536.254 1.091.465 1.66.63a12.15 12.15 0 0 0 4.24 1 3.52 3.52 0 0 0 2.24-1.12 5.838 5.838 0 0 0 1.15-1.63c.5-1 .46-1.77.39-1.77s-.19.66-.74 1.58a6.082 6.082 0 0 1-1.16 1.44 3.13 3.13 0 0 1-1.9.93 15.81 15.81 0 0 1-4.1-.81 3.783 3.783 0 0 0-1.78-.25z" fill="#FF9A6E"/><path d="M303.62 145.4a15.388 15.388 0 0 0 4 1.4 4.32 4.32 0 0 0 3-.28c.72-.41.93-.91.87-.94-.06-.03-.37.31-1 .58a4.634 4.634 0 0 1-2.76.09c-2.2-.59-4.09-1.02-4.11-.85z" fill="#FF9A6E"/><path d="M139.413 43.433L35.235 85.418l28.363 70.379 104.178-41.985-28.363-70.38z" fill="#fff"/><path d="M167.79 113.81l-.52-1.28-1.5-3.72c-1.31-3.26-3.23-8-5.73-14.11-4.93-12.23-12.04-29.78-20.72-51.18l.2.09-104.17 42 .11-.27 28.37 70.38-.24-.1 75.09-30.17 21.46-8.59 5.7-2.3 1.47-.6.51-.2-.48.19-1.46.59-5.67 2.28-21.39 8.72L63.68 156l-.18.07-.07-.17-28.37-70.41-.06-.19.2-.08 104.21-42 .14-.06.07.16 20.6 51.38c2.46 6.11 4.38 10.88 5.66 14.15l1.48 3.68c.27.85.43 1.28.43 1.28z" fill="#375A64"/><path d="M37.77 91.7c0-.11 23.23-9.59 52-21.17 28.77-11.58 52.08-20.9 52.12-20.79.04.11-23.22 9.58-52 21.17C61.11 82.5 37.81 91.8 37.77 91.7zm2.83-4.83a.9.9 0 1 1-1.677.654.9.9 0 0 1 1.677-.654zm2.365.031a.905.905 0 0 0 .495-1.18.905.905 0 0 0-1.175-.508.905.905 0 0 0-.495 1.18.905.905 0 0 0 1.175.508zm2.82-1.141a.905.905 0 0 0 .494-1.18.905.905 0 0 0-1.175-.508.905.905 0 0 0-.494 1.18.905.905 0 0 0 1.175.508zm31.688-1.53l-27.788 11.2 11.3 28.038 27.788-11.199-11.3-28.038zm56.337-13.5c.05.1-10.76 4.55-24.12 9.94-13.36 5.39-24.25 9.68-24.29 9.57-.04-.11 10.76-4.55 24.14-9.95 13.38-5.4 24.23-9.67 24.27-9.56zm2.1 5.21c.05.1-10.76 4.55-24.12 9.94-13.36 5.39-24.25 9.68-24.29 9.57-.04-.11 10.76-4.56 24.14-10s24.23-9.62 24.27-9.51zm2.09 5.21c.05.1-10.76 4.55-24.12 9.94-13.36 5.39-24.25 9.68-24.29 9.57-.04-.11 10.76-4.56 24.14-10S138 81.05 138 81.15zm-17.68 13.19c-.349.21-.718.388-1.1.53l-3 1.29c-2.58 1.08-6.14 2.54-10.09 4.13-3.95 1.59-7.53 3-10.14 4l-3.09 1.17a6.065 6.065 0 0 1-1.16.38c.352-.203.72-.377 1.1-.52l3-1.3c2.58-1.08 6.15-2.54 10.1-4.14 3.95-1.6 7.52-3 10.13-4l3.09-1.18a6.813 6.813 0 0 1 1.16-.36zm-40.733 32.618l-13.06 5.263 5.312 13.18 13.06-5.263-5.312-13.18zm23.697-9.533l-13.06 5.263 5.312 13.18 13.059-5.264-5.311-13.179zm23.682-9.553l-13.059 5.263 5.312 13.18 13.059-5.264-5.312-13.179zm23.684-9.55l-13.059 5.263 5.311 13.18 13.06-5.263-5.312-13.18zM135.83 289.37l-109.62-49.5L46.45 195l109.63 49.5-20.25 44.87zM27 239.57l108.53 49 19.76-43.75-108.54-49L27 239.57z" fill="#375A64"/><path d="M104.86 275l22.67 10.29 6.07 2.71 1.57.71.54.25-.54-.25-1.56-.7-6-2.73-22.67-10.17-78.39-35.29-.17-.08.08-.16 20-44.31.08-.17.18.08 109.05 49.3.12.06v.12c-6.2 13.72-11.25 24.78-14.73 32.44-1.72 3.81-3.06 6.78-4 8.78l-1 2.27a7.408 7.408 0 0 1-.43.83" fill="#fff"/><path d="M46.53 195.61l.25-.1-.25.1zM44 201.45c0-.09 24.46 10.84 54.53 24.42 30.07 13.58 54.42 24.67 54.38 24.76-.04.09-24.46-10.83-54.53-24.41S44 201.55 44 201.45zm5.78-.597a.87.87 0 1 0-1.586-.716.87.87 0 0 0 1.586.716zm2.71 1.217a.86.86 0 1 1-.43-1.15.88.88 0 0 1 .44 1.15h-.01zm2.68 1.21a.87.87 0 1 1 .077-.337.858.858 0 0 1-.077.327v.01zm-7.61 14.734l-7.18 15.904a5.73 5.73 0 0 0 2.864 7.58l15.904 7.181a5.73 5.73 0 0 0 7.58-2.864l7.18-15.904a5.73 5.73 0 0 0-2.864-7.581l-15.903-7.181a5.73 5.73 0 0 0-7.58 2.865zM139 261.51c-.05.1-13.64-5.95-30.36-13.5s-30.23-13.74-30.18-13.83c.05-.09 13.63 5.95 30.35 13.5S139 261.42 139 261.51zm-2.43 5.37c0 .1-13.63-5.95-30.36-13.5C89.48 245.83 76 239.63 76 239.53c0-.1 13.63 5.95 30.36 13.5 16.73 7.55 30.26 13.75 30.21 13.85zm-23.99-4.4a2.045 2.045 0 0 1-.41-.14l-1.15-.48-4.2-1.83L93 253.86l-13.76-6.28-4.15-1.94-1.09-.55a1.597 1.597 0 0 1-.36-.2c.122.029.243.065.36.11l1.14.51 4.2 1.83 13.81 6.18 13.76 6.27 4.15 1.94 1.14.52c.133.065.261.142.38.23z" fill="#375A64"/><path d="M1046.5 18.355l-37.67 178.007c-1.42 6.716 2.87 13.313 9.59 14.734l273.93 57.977c6.71 1.421 13.31-2.871 14.73-9.587l37.68-178.007c1.42-6.716-2.87-13.313-9.59-14.735L1061.24 8.768c-6.72-1.421-13.32 2.87-14.74 9.587z" fill="#FAFAFA"/><path d="M1343.45 89.65L1045 26.45l2.15-10.17c.28-1.3.8-2.533 1.56-3.628a10.012 10.012 0 0 1 2.83-2.755 10.09 10.09 0 0 1 7.61-1.407l278.7 59c1.3.274 2.53.803 3.63 1.555 1.1.752 2.03 1.713 2.76 2.828a10.093 10.093 0 0 1 1.4 7.617l-2.19 10.16z" fill="#FE736B"/><path d="M1290.72 269.22l-271.07-57.39a14.17 14.17 0 0 1-8.92-6.114 14.159 14.159 0 0 1-1.98-10.626l3.66-17.3L1311.12 241l-3.66 17.3a14.076 14.076 0 0 1-2.16 5.076 14.218 14.218 0 0 1-3.94 3.859 14.195 14.195 0 0 1-5.12 2.053c-1.83.34-3.7.317-5.52-.068z" fill="#ECECEC"/><path d="M1067.39 204.85l2.46.52.44 1.78.53.11-1.38-5.67h-.14l-3.56 4.62.54.12 1.11-1.48zm1.78-2.31l.55 2.3-2-.42 1.45-1.88zm-4.13 4.624l-.09.411 5.83 1.234.09-.41-5.83-1.235zm-33.1-13.824l-.36-.08A2.205 2.205 0 0 0 1029 195a9.309 9.309 0 0 0 1.12 4.82s.09.3.39.09a9.416 9.416 0 0 0 3-4 2.215 2.215 0 0 0-1.57-2.57zm-.94 3.46a1.275 1.275 0 0 1-.46-.177 1.238 1.238 0 0 1-.54-1.283 1.244 1.244 0 0 1 1.47-.96c.32.068.6.26.78.536.18.276.25.612.18.934a1.23 1.23 0 0 1-1.43.95zm27.17 7.47c-.03.163-.1.319-.19.457-.1.138-.22.256-.36.347a1.244 1.244 0 0 1-.95.181c-.17-.034-.32-.1-.46-.194a1.233 1.233 0 0 1-.53-.815 1.185 1.185 0 0 1 0-.496l.85-4a.832.832 0 0 1 .97-.581c.2.043.38.162.5.332a.78.78 0 0 1 .15.589l-.73 3.43a.476.476 0 0 1-.53.26.472.472 0 0 1-.26-.168.455.455 0 0 1-.11-.292l.56-2.64-.3-.06-.54 2.52v.12c-.02.188.02.379.13.534.11.155.28.264.46.304.19.04.38.009.55-.087a.79.79 0 0 0 .34-.431v-.07-.05l.71-3.34c.05-.291-.02-.589-.18-.833a1.168 1.168 0 0 0-.71-.477c-.29-.06-.59-.006-.84.15-.24.157-.42.405-.49.69l-.9 4.21c-.03.387.07.774.31 1.087a1.585 1.585 0 0 0 2.06.435c.34-.193.6-.503.72-.872l.71-3.4-.3-.06-.64 3.22zm-12.63-5.86l-.66-2.59-1.65 2.1-2.67-.17 1.49 2.22-1 2.48 2.57-.73 2 1.71.11-2.67 2.25-1.43-2.44-.92zm-.21 4.22l-1.61-1.34-2 .58.73-1.85v-.1l-1.16-1.74 2.09.14 1.29-1.65.52 2 2 .72-1.69 1.07h-.08l-.09 2.17zm46.81.2l-.38-.08-2.54 12 .38.08 2.54-12zm-2.73 11.95l2.54-12-2.54 12zm-10.37-10.308l-1.08 5.087 4.77 1.011 1.08-5.087-4.77-1.011zm1.84-.842l-.08.39 1.76.38.08-.4 1.51.32-.17.79-4.77-1.01.17-.79 1.5.32zm.01-.427l-.09.392 1.76.372.09-.391-1.76-.373z" fill="#1A2E35"/><path d="M1080.81 203.604l-.08.392 1.76.372.08-.391-1.76-.373zm20.66 8.476l1.77-1.15.14.21-1.99 1.3-1.29-1.99.21-.14 1.16 1.77zm217.22-138.14l4.13.88.05-.22-4.14-.88 4.14.88.05-.22-4.14-.88-.09.44zm21.09 2.24l-.25-.38-2.32 1.51-1.51-2.32-.37.25 1.51 2.32-2.32 1.51.24.37 2.32-1.51 1.51 2.32.38-.24-1.51-2.32 2.32-1.51zm-13.68 1.5l4.58 1 1-4.57-4.57-1-1.01 4.57zm1.31-4.05l3.7.78-.78 3.7-3.7-.78.78-3.7zM1328 134c.05-.212.06-.432.02-.647a1.647 1.647 0 0 0-.22-.608 1.568 1.568 0 0 0-.44-.475 1.716 1.716 0 0 0-.59-.27l-6.16-1.3a2.307 2.307 0 0 0-1.62.406c-.48.333-.81.83-.93 1.394-.13.564-.04 1.154.25 1.655.29.502.75.878 1.3 1.055l5 1.05.09-.44-4.76-1a1.913 1.913 0 0 1-1.09-.833 1.874 1.874 0 0 1-.22-1.35c.09-.463.36-.871.75-1.143s.86-.388 1.33-.324l5.91 1.25c.31.066.59.255.76.524.18.269.24.597.18.911-.07.314-.26.589-.53.765-.27.175-.6.236-.91.17l-5-1.06a.699.699 0 0 1-.33-.312.693.693 0 0 1-.06-.448.688.688 0 0 1 .24-.391c.12-.1.27-.156.43-.159l3.86.82.09-.44-3.68-.78h-.18a1.107 1.107 0 0 0-1.16.891c-.06.263-.01.537.12.772s.34.415.59.507h.18l4.88 1a1.666 1.666 0 0 0 1.9-1.19z" fill="#1A2E35"/><path d="M1062.39 15.89l-1.17 5.49-.64-.14-2.43-4.79-.86 4.1-.79-.17 1.16-5.49.65.14 2.43 4.79.86-4.1.79.17zm4.49 4.78l-3.37-.72c-.03.367.09.731.32 1.017.23.286.56.473.93.523a1.612 1.612 0 0 0 1.31-.25l.31.58c-.37.246-.81.379-1.26.382a2.35 2.35 0 0 1-2.13-1.359c-.18-.407-.25-.86-.18-1.303.05-.281.15-.55.31-.788s.36-.442.6-.599a2.065 2.065 0 0 1 1.63-.283c.28.044.55.15.79.308.24.159.45.367.6.61.15.245.25.518.28.803.04.285.02.575-.07.849-.02.078-.04.155-.07.23zm-3.25-1.26l2.66.57a1.365 1.365 0 0 0-1.08-1.465c-.32-.07-.67-.018-.96.147-.29.165-.51.431-.62.748zm11.01.47l-2.43 3.83-.72-.16-.53-3.4-1.89 2.85-.72-.15-.66-4.49.71.16.51 3.56 1.95-3 .64.13.53 3.59 1.94-3.07.67.15zm6.22 4.95l-.14.68-4-.85 1.17-5.49 3.87.82-.14.69-3.09-.66-.36 1.69 2.75.58-.14.67-2.75-.58-.38 1.77 3.21.68zm8.43-.01l-.51 2.39-.75-.16.48-2.3c.18-.82-.13-1.3-.81-1.45-.18-.044-.36-.05-.54-.015-.18.035-.35.108-.49.215-.15.106-.27.244-.36.403-.09.16-.14.336-.15.517l-.46 2.14-.75-.16.49-2.3c.17-.82-.14-1.3-.82-1.45-.18-.044-.36-.05-.54-.015-.18.034-.35.108-.49.215-.15.106-.27.244-.36.403-.09.16-.14.336-.15.517l-.45 2.14-.75-.16.88-4.16.72.16-.13.62a1.727 1.727 0 0 1 1.57-.36c.29.04.57.164.8.355.22.191.39.443.48.725.23-.213.52-.364.83-.44.3-.075.62-.072.93.01.24.03.47.115.68.247.2.132.37.308.5.515.13.207.21.44.23.682.03.242 0 .487-.08.716zm4.71.87l-.53 2.51-.71-.15.11-.55a1.536 1.536 0 0 1-1.49.31c-.94-.2-1.43-.83-1.27-1.55.16-.72.68-1.12 1.92-.86l1.2.25v-.15c.13-.63-.16-1.08-.9-1.24a2.169 2.169 0 0 0-1.42.17l-.19-.63a2.849 2.849 0 0 1 1.83-.17c.24.008.48.073.7.19.21.116.4.28.54.48.14.2.23.428.27.67.03.241.01.488-.06.72zm-1 1.08l.12-.58-1.16-.24c-.74-.16-1 .08-1.09.44-.09.36.2.75.77.87.25.07.51.061.76-.026.24-.088.45-.25.6-.464zm2.86-3.77a.506.506 0 0 1 .23-.326.51.51 0 0 1 .39-.064c.07.014.13.04.18.078.06.038.11.086.14.143.04.056.06.119.08.185.01.066.01.133 0 .199-.02.066-.05.128-.08.183a.518.518 0 0 1-.15.14.425.425 0 0 1-.18.074.514.514 0 0 1-.2-.002.508.508 0 0 1-.34-.215.632.632 0 0 1-.08-.19.473.473 0 0 1 .01-.205zm-.14 1.31l.76.16-.88 4.16-.76-.16.88-4.16zm2.54-1.17l.76.16-1.24 5.82-.78-.12 1.26-5.86z" fill="#fff"/><path d="M1053.69 35.23l-1.88-.4.14-.68 4.54 1-.14.68-1.88-.4-1 4.81-.78-.16 1-4.85zm2.01 3.28c.08-.431.29-.828.6-1.139a2.23 2.23 0 0 1 1.14-.61c.43-.086.87-.042 1.28.127a2.216 2.216 0 0 1 .98 3.284 2.228 2.228 0 0 1-2.29.918c-.29-.046-.56-.15-.81-.308a2.132 2.132 0 0 1-.93-1.409c-.05-.287-.04-.58.03-.863zm3.56.75c.04-.276.01-.56-.11-.815-.11-.255-.3-.47-.54-.62a1.418 1.418 0 0 0-1.57.027c-.23.157-.41.38-.52.639-.1.259-.13.543-.07.817.05.275.18.528.38.727.2.2.45.337.72.395a1.382 1.382 0 0 0 1.11-.207c.16-.11.3-.253.4-.418.11-.166.17-.352.2-.545zm3.89-.83a.53.53 0 0 1 .43-.428c.07-.012.14-.01.21.008.07.014.14.042.19.082.06.04.11.092.15.151.04.06.06.127.08.197.01.07.01.141-.01.21.01.085 0 .171-.03.251a.49.49 0 0 1-.15.209.524.524 0 0 1-.47.125.534.534 0 0 1-.38-.313.54.54 0 0 1-.05-.25.676.676 0 0 1 .08-.242h-.05zm-.67 3.17a.529.529 0 0 1 .43-.428.553.553 0 0 1 .55.244c.07.12.1.265.07.404a.541.541 0 0 1-.84.347.41.41 0 0 1-.14-.154.494.494 0 0 1-.07-.413zm-13.9 14c.07-.38.23-.74.45-1.059.22-.318.5-.589.83-.794.32-.205.69-.341 1.07-.399.39-.058.78-.037 1.15.062.39.065.77.215 1.1.44.33.224.6.518.81.86l-.62.38a2.11 2.11 0 0 0-.59-.652 2.086 2.086 0 0 0-.81-.348 2.133 2.133 0 0 0-1.68.248 2.19 2.19 0 0 0-.64.594c-.17.239-.28.51-.35.796-.06.286-.06.581 0 .868.05.287.17.56.33.801a2.203 2.203 0 0 0 1.44.913 2.078 2.078 0 0 0 1.69-.33l.4.6a2.768 2.768 0 0 1-2.27.42c-.38-.062-.74-.2-1.07-.407-.32-.207-.6-.478-.82-.796a2.872 2.872 0 0 1-.43-1.055c-.08-.378-.07-.766.01-1.142zm5.3 1.82c.06-.288.17-.56.34-.802.16-.242.38-.446.63-.6.24-.156.52-.258.81-.3.29-.043.59-.025.87.052.33.054.64.197.9.413.26.217.46.499.57.817l-.65.25a1.285 1.285 0 0 0-.39-.551 1.375 1.375 0 0 0-.61-.289c-.38-.057-.76.032-1.08.25-.31.218-.53.548-.61.923-.08.374-.01.764.19 1.091.19.327.51.565.88.666A1.308 1.308 0 0 0 1057 59l.49.49c-.24.251-.53.433-.87.527-.33.093-.68.094-1.01.003a2.078 2.078 0 0 1-.81-.312 2.061 2.061 0 0 1-.62-.61 2.34 2.34 0 0 1-.33-.808c-.05-.289-.04-.585.03-.87zm6.95-.18a.527.527 0 0 1 .43-.429.548.548 0 0 1 .22.009.546.546 0 0 1 .34.234c.04.06.06.127.07.197.01.07.01.14-.01.209a.483.483 0 0 1-.08.197.407.407 0 0 1-.14.152.56.56 0 0 1-.41.081.525.525 0 0 1-.34-.239.545.545 0 0 1-.08-.411zm-.67 3.17a.539.539 0 0 1 .43-.434.565.565 0 0 1 .57.244c.08.122.11.272.07.415a.548.548 0 0 1-.23.348.572.572 0 0 1-.62-.006.548.548 0 0 1-.23-.353.516.516 0 0 1 .01-.214zm-16.82 15.85l.42-.56c.43.52 1.02.874 1.68 1 1 .2 1.43-.08 1.53-.56.29-1.34-3.22-1.19-2.79-3.23.18-.85 1-1.43 2.44-1.13.62.123 1.2.422 1.66.86l-.39.57c-.39-.376-.88-.64-1.41-.76-.94-.2-1.42.11-1.52.59-.28 1.34 3.22 1.2 2.79 3.22-.18.84-1 1.42-2.45 1.11a3.361 3.361 0 0 1-1.96-1.11zm9.88-1.6l-.88 4.16-.71-.15.13-.63a1.724 1.724 0 0 1-1.56.37 1.639 1.639 0 0 1-.7-.238 1.755 1.755 0 0 1-.53-.52 1.73 1.73 0 0 1-.25-.696c-.03-.248 0-.5.08-.736l.51-2.39.75.16-.49 2.31c-.06.152-.08.315-.07.478.01.162.06.32.15.46.08.14.19.26.33.35.13.091.29.15.45.172a1.248 1.248 0 0 0 1.05-.187c.15-.105.28-.243.37-.402.09-.16.14-.338.16-.521l.46-2.15.75.16zm5.3 3.34c-.05.285-.15.557-.31.799-.15.242-.36.449-.6.607-.24.158-.51.264-.8.311-.28.047-.57.035-.85-.037-.29-.046-.56-.16-.79-.335a1.762 1.762 0 0 1-.54-.665l-.14.66-.72-.15 1.23-5.89.76.16-.49 2.29a1.765 1.765 0 0 1 1.59-.36c.29.045.57.151.81.312.25.16.45.37.61.618.16.247.26.524.3.814.04.29.02.585-.06.866zm-.76-.16c.04-.274.01-.555-.11-.809a1.368 1.368 0 0 0-.53-.62c-.23-.15-.5-.23-.78-.228a1.417 1.417 0 0 0-1.3.86c-.11.255-.15.536-.1.81.04.273.17.528.36.731.19.204.43.348.7.416a1.409 1.409 0 0 0 1.76-1.21v.05zm-.36 3.42l.37-.52c.15.167.35.28.57.32.4.09.67-.12.77-.6l.92-4.36.76.16-.92 4.35c-.02.186-.08.365-.17.525-.1.16-.23.297-.38.402a1.305 1.305 0 0 1-1.07.173 1.536 1.536 0 0 1-.85-.45zm2.77-6.47a.507.507 0 0 1 .23-.326.507.507 0 0 1 .39-.064c.07.014.13.04.18.078.06.038.11.086.14.143.04.056.06.119.08.185.01.066.01.133 0 .199-.02.066-.05.128-.08.183a.515.515 0 0 1-.15.14.425.425 0 0 1-.18.074.514.514 0 0 1-.2-.002.51.51 0 0 1-.34-.215.63.63 0 0 1-.08-.19.473.473 0 0 1 .01-.205zm5.3 4.9l-3.37-.69c-.03.367.08.73.31 1.016.23.287.57.474.93.524a1.612 1.612 0 0 0 1.31-.25l.31.57a2.31 2.31 0 0 1-3.38-.97c-.18-.406-.25-.858-.18-1.3.05-.28.15-.548.31-.787.15-.238.35-.442.59-.599.24-.157.51-.263.79-.312.28-.048.56-.04.84.028.28.044.55.15.79.308.24.159.45.367.6.61.15.245.25.518.28.803.04.285.02.575-.07.849l-.06.2zm-3.26-1.26l2.67.57c.04-.34-.04-.685-.24-.965-.2-.28-.5-.475-.83-.546a1.357 1.357 0 0 0-.98.16c-.3.174-.52.453-.62.781zm3.98 1.15c.05-.289.17-.563.33-.805.17-.243.38-.448.63-.604a2.15 2.15 0 0 1 1.69-.251c.34.052.66.196.92.416.27.22.47.509.58.834l-.65.25a1.327 1.327 0 0 0-1-.84c-.38-.057-.76.032-1.08.25-.31.218-.53.548-.61.923-.08.374-.01.764.19 1.091.19.327.51.565.88.666.22.05.46.045.68-.018.22-.063.42-.18.58-.342l.49.48c-.23.252-.53.435-.87.53-.33.096-.68.099-1.01.01a2.163 2.163 0 0 1-.82-.306 2.156 2.156 0 0 1-.62-.607 1.997 1.997 0 0 1-.33-.806 2.13 2.13 0 0 1 .02-.871zm6.86 3.42c-.31.152-.67.188-1 .1a1.207 1.207 0 0 1-.87-.56c-.1-.152-.16-.323-.18-.501-.02-.178-.01-.359.05-.529l.48-2.28-.7-.15.13-.62.7.15.2-.91.75.16-.19.91 1.19.25-.13.62-1.19-.25-.48 2.25a.852.852 0 0 0-.04.275c.01.093.04.183.09.264a.627.627 0 0 0 .45.301c.21.046.43.021.63-.07l.11.59zm3.39-2.91a.48.48 0 0 1 .08-.198.566.566 0 0 1 .57-.222.546.546 0 0 1 .34.234c.04.06.06.127.07.197.01.07.01.14-.01.209a.488.488 0 0 1-.08.198.414.414 0 0 1-.14.154.573.573 0 0 1-.41.088.56.56 0 0 1-.43-.444.526.526 0 0 1 .01-.216zm-.67 3.17a.53.53 0 0 1 .64-.42c.07.013.14.04.2.08s.11.09.14.151a.484.484 0 0 1 .07.409.483.483 0 0 1-.08.197.407.407 0 0 1-.14.152.56.56 0 0 1-.41.081.549.549 0 0 1-.35-.236.69.69 0 0 1-.08-.2.517.517 0 0 1 .01-.214zm76.81-23.1c0 .16-17.66-3.44-39.37-8-21.71-4.56-39.3-8.46-39.26-8.62.04-.16 17.66 3.44 39.38 8 21.72 4.56 39.29 8.46 39.25 8.62zm31.32 25.38c0 .16-25.53-5.11-56.93-11.76-31.4-6.65-56.85-12.17-56.82-12.33.03-.16 25.52 5.11 56.94 11.76 31.42 6.65 56.84 12.17 56.81 12.33zm-45.83 8.89c-.18.015-.36-.002-.54-.05l-1.5-.26-5.52-1.07c-4.66-.94-11.09-2.26-18.18-3.76s-13.5-2.9-18.13-3.93l-5.49-1.26-1.48-.37a1.78 1.78 0 0 1-.51-.17c.18-.025.35-.025.53 0l1.51.27 5.52 1.07c4.66.93 11.09 2.26 18.18 3.76s13.5 2.89 18.13 3.93l5.48 1.25 1.49.38c.18.047.35.118.51.21z" fill="#1A2E35"/><path d="M1329.35 145.05c0 .16-66.14-13.7-147.63-31s-147.55-31.38-147.51-31.54c.04-.16 66.12 13.7 147.64 31 81.52 17.3 147.53 31.38 147.5 31.54zm4.11-19.42c0 .16-66.16-13.7-147.68-31-81.52-17.3-147.61-31.39-147.57-31.55.04-.16 66.14 13.7 147.69 31s147.6 31.4 147.56 31.55zm3.61-17.03c0 .15-66.14-13.71-147.63-31s-147.55-31.34-147.51-31.5c.04-.16 66.12 13.7 147.64 31 81.52 17.3 147.53 31.34 147.5 31.5z" fill="#E1E1E1"/><path d="M1065.77 114c-3.17-.37-6.32-.934-9.43-1.69A80.396 80.396 0 0 1 1047 110c3.17.372 6.32.936 9.43 1.69 3.16.581 6.28 1.353 9.34 2.31zm58.66 27.08c0 .16-18-3.52-40.25-8.22-22.25-4.7-40.16-8.64-40.13-8.8.03-.16 18.06 3.52 40.26 8.22 22.2 4.7 40.16 8.64 40.12 8.8z" fill="#1A2E35"/><path d="M1292.59 201.74h-82.77a6.452 6.452 0 0 1-6.45-6.45v-55.9a2.931 2.931 0 0 1 2.93-2.93h89.82a2.931 2.931 0 0 1 2.93 2.93v55.9c0 .848-.17 1.687-.49 2.471a6.53 6.53 0 0 1-1.4 2.093 6.41 6.41 0 0 1-2.1 1.398c-.78.323-1.62.489-2.47.488z" fill="#FE736B"/><path d="M1209.83 201.74h-.21c-.13 0-.34 0-.6-.05a6.783 6.783 0 0 1-2.24-.73 6.518 6.518 0 0 1-2.64-2.72 6.155 6.155 0 0 1-.68-2.33c-.06-.87 0-1.81 0-2.8 0-8 0-19.44.06-33.63V142.4v-3c.01-.493.15-.976.41-1.397.25-.422.62-.768 1.05-1.003.45-.235.95-.348 1.45-.33h89.16a5.22 5.22 0 0 1 1 0c.63.115 1.19.443 1.6.927.42.485.65 1.097.66 1.733V195.86a6.185 6.185 0 0 1-1.15 3.12 6.367 6.367 0 0 1-2.54 2.08c-1.02.432-2.12.62-3.22.55h-36.16l-33.63.06h-12.33 12.33l33.63.06H1292a7.482 7.482 0 0 0 3.35-.58 6.616 6.616 0 0 0 3.89-5.46v-3.51-52.85a3.073 3.073 0 0 0-.74-1.96 3.108 3.108 0 0 0-1.82-1.04c-.33-.044-.67-.06-1-.05h-89.16c-.55-.017-1.1.11-1.59.37-.48.258-.88.64-1.17 1.106-.28.466-.43.999-.44 1.544v20.15c0 14.19 0 25.68.06 33.63v2.81c.08.828.32 1.633.71 2.37a6.573 6.573 0 0 0 2.7 2.73c.7.375 1.47.612 2.26.7.26.031.52.047.78.05z" fill="#1A2E35"/><path d="M1242.93 201.74h16.61s5.12 8.53 0 13.64h-17.18s8.47-5.55.57-13.64z" fill="#FE736B"/><path opacity=".3" d="M1259.54 201.74l.85 1.69-15.23 1.19s-1.26-1.8-2.23-2.88h16.61z" fill="#000"/><path d="M1249.18 197.28a1.88 1.88 0 1 0 0-3.76 1.88 1.88 0 1 0 0 3.76zm45.29-57.22h-86.51v49.79h86.51v-49.79z" fill="#FAFAFA"/><path d="M1208 189.84v-.9-2.6-10c0-8.62 0-21.05.08-36.31l-.14.13h86.5l-.18-.17v49.78l.17-.16-62.22.08h-22.64 4.73l17.83.05 62.33.08h.16v-.17-49.96H1207.8v.14c0 15.29.06 27.75.07 36.4v12.51c0 .58.13 1.1.13 1.1z" fill="#1A2E35"/><path d="M1273.13 188.63h20.36v-44.35h-20.36v44.35z" fill="#FE736B"/><path opacity=".4" d="M1273.15 165.02h20.35v-3.97h-20.35v3.97zm0 8.12h20.35v-3.97h-20.35v3.97zm0 10.09h20.35v-4.39h-20.35v4.39z" fill="#000"/><path d="M1276.68 167.11c4.36.24 8.73.24 13.09 0-4.36-.24-8.73-.24-13.09 0zm0-4.11c4.36.227 8.73.227 13.09 0-4.36-.24-8.73-.24-13.09 0zm-3.54 20.24c0 .1 4.51.18 10.08.18s10.09-.08 10.09-.18c0-.1-4.52-.18-10.09-.18s-10.08.08-10.08.18zm6.64-11.95c3.33.24 6.67.24 10 0a73.507 73.507 0 0 0-10 0zm-1.41 9.28c3.33.227 6.67.227 10 0-3.33-.24-6.67-.24-10 0zm-1.69-4.69c4.36.24 8.73.24 13.09 0-4.36-.24-8.73-.24-13.09 0zm0 9.96c4.36.227 8.73.227 13.09 0-4.36-.24-8.73-.24-13.09 0z" fill="#1A2E35"/><path d="M1278.74 152.11c0 .859.23 1.703.66 2.444a4.902 4.902 0 0 0 1.81 1.776V155c.04-.58.3-1.124.72-1.521.42-.397.98-.618 1.56-.618.59 0 1.15.221 1.57.618.42.397.68.941.72 1.521v1.48a4.799 4.799 0 0 0 1.91-1.693c.47-.724.74-1.563.78-2.427a4.794 4.794 0 0 0-.55-2.491 4.872 4.872 0 0 0-1.74-1.864 4.868 4.868 0 0 0-4.93-.101 4.824 4.824 0 0 0-1.81 1.791 4.85 4.85 0 0 0-.66 2.465l-.04-.05zm3-1.5c0-.338.1-.669.29-.95.19-.281.45-.5.77-.63.31-.129.65-.163.98-.097.34.066.64.229.88.468.24.239.4.544.47.875a1.721 1.721 0 0 1-.73 1.756c-.28.188-.61.288-.95.288a1.727 1.727 0 0 1-1.18-.518 1.708 1.708 0 0 1-.48-1.192h-.05z" fill="#FAFAFA"/><path d="M1283.5 152.67a2.286 2.286 0 0 1 2.28 2.28v1.48c-.68.35-1.43.531-2.19.53a4.857 4.857 0 0 1-2.38-.63V155a2.289 2.289 0 0 1 .65-1.648c.22-.217.47-.39.75-.507.28-.117.59-.176.89-.175zm0-3.77c.34 0 .67.1.95.288a1.721 1.721 0 0 1 .73 1.756c-.07.331-.23.636-.47.875-.24.239-.54.402-.88.468-.33.066-.67.032-.98-.097-.32-.13-.58-.349-.77-.63a1.71 1.71 0 0 1 1.42-2.66z" fill="#FE736B"/><path d="M1278.71 152.11s0-.43.22-1.17a4.858 4.858 0 0 1 1.77-2.58 4.71 4.71 0 0 1 2.15-.896 4.673 4.673 0 0 1 2.31.246c.87.319 1.63.89 2.17 1.64.59.801.9 1.768.9 2.76 0 .992-.31 1.959-.9 2.76a4.706 4.706 0 0 1-4.64 1.86 4.814 4.814 0 0 1-2-.86 4.898 4.898 0 0 1-1.77-2.59c-.2-.74-.18-1.17-.22-1.17-.01.103-.01.207 0 .31 0 .3.04.599.11.89a4.895 4.895 0 0 0 3.84 3.71c.93.185 1.9.101 2.78-.243a4.966 4.966 0 0 0 2.22-1.697c.46-.628.77-1.355.91-2.124.13-.769.08-1.558-.15-2.305a4.998 4.998 0 0 0-1.16-1.993 5.05 5.05 0 0 0-1.94-1.258 4.995 4.995 0 0 0-2.63-.2c-.77.165-1.48.508-2.09 1a4.866 4.866 0 0 0-1.75 2.75c-.07.291-.11.59-.11.89-.02.089-.02.179-.02.27z" fill="#FAFAFA"/><path d="M1209.38 165.08h63.75v-5.96h-63.75v5.96z" fill="#ECECEC"/><path d="M1209.38 147.26h63.75v-2.99h-63.75v2.99z" fill="#F5F5F5"/><path d="M1227.83 146.33h43.05a.49.49 0 0 0 .49-.49v-.19a.49.49 0 0 0-.49-.49h-43.05a.49.49 0 0 0-.49.49v.19c0 .271.22.49.49.49zm-6.15 0h2.87a.49.49 0 0 0 .49-.49v-.19a.49.49 0 0 0-.49-.49h-2.87a.49.49 0 0 0-.49.49v.19c0 .271.22.49.49.49zm-3.01-.76h.48v-.48h-.48v.48zm0 .64h.48v-.48h-.48v.48zm-.75-.64h.48v-.48h-.48v.48zm0 .64h.48v-.48h-.48v.48zm-8.54 7.02h63.75v-5.96h-63.75v5.96z" fill="#E1E1E1"/><path d="M1269.57 151.01h1.8v-1.8h-1.8v1.8z" fill="#FE736B"/><path d="M1241.68 150.11c0 .09 5.86.17 13.07.17s13.07-.08 13.07-.17c0-.09-5.85-.18-13.07-.18-7.22 0-13.07.07-13.07.18zm-24.62-.05c.47.177.97.239 1.47.18.5.058 1-.004 1.47-.18a3.143 3.143 0 0 0-1.47-.18c-.5-.059-1 .003-1.47.18z" fill="#1A2E35"/><path d="M1209.38 170.99h63.75v-5.96h-63.75v5.96z" fill="#FAFAFA"/><path d="M1269.8 168.78h1.82v-1.8h-1.82v1.8z" fill="#FE736B"/><path d="M1241.64 167.87c0 .1 5.91.18 13.2.18 7.29 0 13.19-.08 13.19-.18 0-.1-5.91-.18-13.19-.18-7.28 0-13.2.08-13.2.18zm-24.86-.05c.99.245 2.02.245 3 0a6.214 6.214 0 0 0-3 0z" fill="#1A2E35"/><path d="M1209.38 176.87h63.75v-5.96h-63.75v5.96z" fill="#E1E1E1"/><path d="M1269.8 174.66h1.82v-1.8h-1.82v1.8z" fill="#FE736B"/><path d="M1241.64 173.75c0 .1 5.91.18 13.2.18 7.29 0 13.19-.08 13.19-.18 0-.1-5.91-.18-13.19-.18-7.28 0-13.2.08-13.2.18zm-24.86-.05c.99.245 2.02.245 3 0a6.214 6.214 0 0 0-3 0z" fill="#1A2E35"/><path d="M1209.38 182.75h63.75v-5.96h-63.75v5.96z" fill="#FAFAFA"/><path d="M1269.8 180.53h1.82v-1.8h-1.82v1.8z" fill="#FE736B"/><path d="M1241.64 179.63c0 .09 5.91.17 13.2.17 7.29 0 13.19-.08 13.19-.17 0-.09-5.91-.18-13.19-.18-7.28 0-13.2.08-13.2.18zm-24.86-.05c.99.245 2.02.245 3 0a6.214 6.214 0 0 0-3 0z" fill="#1A2E35"/><path d="M1209.38 188.62h63.75v-5.96h-63.75v5.96z" fill="#ECECEC"/><path d="M1269.8 186.41h1.82v-1.8h-1.82v1.8z" fill="#FE736B"/><path d="M1241.64 185.5c0 .1 5.91.18 13.2.18 7.29 0 13.19-.08 13.19-.18 0-.1-5.91-.17-13.19-.17-7.28 0-13.2.08-13.2.17zm-24.86-.05c.99.245 2.02.245 3 0a6.58 6.58 0 0 0-3 0z" fill="#1A2E35"/><path d="M1209.38 159.12h63.76v-5.96h-63.76v5.96z" fill="#FAFAFA"/><path d="M1269.57 156.9h1.8v-1.8h-1.8v1.8z" fill="#FE736B"/><path d="M1252.86 156c0 .09 3.35.17 7.48.17 4.13 0 7.48-.08 7.48-.17 0-.09-3.35-.18-7.48-.18-4.13 0-7.48.08-7.48.18zm-35.8.17c.47.177.97.239 1.47.18.5.058 1-.004 1.47-.18a3.143 3.143 0 0 0-1.47-.18c-.5-.059-1 .003-1.47.18zm0 5.83c.47.177.97.239 1.47.18.5.058 1-.004 1.47-.18a3.143 3.143 0 0 0-1.47-.18c-.5-.059-1 .003-1.47.18z" fill="#1A2E35"/><path d="M1269.57 162.86h1.8v-1.8h-1.8v1.8z" fill="#FE736B"/><path d="M1231.78 162c0 .1 8.07.18 18 .18s18-.08 18-.18c0-.1-8.07-.17-18-.17s-18 .03-18 .17zm58.88-19.2a.54.54 0 0 0 .92.382c.1-.101.16-.239.16-.382a.54.54 0 0 0-.92-.382.547.547 0 0 0-.16.382zm-2.12 0a.54.54 0 0 0 .92.382c.1-.101.16-.239.16-.382a.54.54 0 0 0-.92-.382.547.547 0 0 0-.16.382zm-2.12 0a.54.54 0 0 0 .92.382c.1-.101.16-.239.16-.382a.54.54 0 0 0-.92-.382.547.547 0 0 0-.16.382z" fill="#1A2E35"/><path d="M1209.39 188.62c0-1.09 0-18.35.08-47.35l-.08.09h84.1l-.11-.11v47.35l.1-.1-84.11.1 84.11.1h.1v-47.53h-84.3v.08c.07 29.02.1 46.28.11 47.37z" fill="#1A2E35"/><path d="M1168.27 324.3h5.14l11.47-102.97h-6.75l-9.86 102.97zm32.51 0h5.14l11.55-102.97h-6.75l-9.94 102.97zm-34.09-102.97h181.22v-5.95h-181.22v5.95z" fill="#375A64"/><path d="M1310.3 324.3h-5.14l-11.03-102.97h6.74l9.43 102.97zm44.1 0h-5.14l-11.55-102.97h6.75l9.94 102.97zm-6.49-108.92h-55.83v5.95h55.83v-5.95zm-119.95 0h38.55v-1.78h-38.55v1.78z" fill="#1A2E35"/></svg>