<svg id="Layer_1" xmlns="http://www.w3.org/2000/svg" xmlns:xlink="http://www.w3.org/1999/xlink" viewBox="0 0 1380 325"><style>.st0{fill:#1b4d71}.st0,.st1{clip-path:url(#SVGID_2_)}.st2{fill:#113753}.st3{fill:#b6a99d}.st4{fill:#d66d84}.st5{fill:#d6c5af}.st6{fill:#f4e3cf}.st7{fill:#e5d4c1}.st8{fill:#f8f4e5}.st9{fill:#72c3c0}.st10{fill:#f5f5e1}.st11{fill:#3baaa8}.st12{fill:#a6999c}.st13{fill:#fff}.st14{fill:#122e43}.st15{fill:#85afcc}.st16,.st17{clip-path:url(#SVGID_2_);fill:#ab4057}.st17{fill:#eb6c7a}.st18{fill:#113854}.st19{fill:#e7d7c2}</style><defs><path id="SVGID_1_" d="M0 0H1380V325H0z"/></defs><clipPath id="SVGID_2_"><use xlink:href="#SVGID_1_" overflow="visible"/></clipPath><path class="st0" d="M0 0H1380V325H0z"/><g class="st1"><path class="st2" d="M1357.1 186.7c-20.9-17.8-41.8-35.6-62.7-53.5l-25.2 89.7c29.3-12.1 58.6-24.2 87.9-36.2z"/><path class="st2" d="M1371.1 205.3c4.6.6 6.8 2.9 6.8 2.9 1.8 1.9 2.1 4.2 2 5.7-77.5 22.2-155 44.5-232.6 66.7-1.5 2.1-6.1 7.7-15 10.9-10.1 3.6-19.2 1.8-21.8 1.1-85 23.8-170 47.5-255.1 71.3-43.6-45.8-87.3-91.6-130.9-137.4.8-1 2.2-2.3 4.1-3.4 4.8-2.8 9.9-2.5 11.6-2.3 149.5 61.6 252.9 61.4 321.2 48.3 92.6-17.8 124.8-28.2 124.8-28.2.1.1 132.1-42.6 184.9-35.6z"/><path class="st2" d="M1173.4 69.4c.9-1.3 5.8-8.5 10.2-19 3.4-8.1 5.2-15 6.1-19.5 47.7 40.6 95.5 81.2 143.2 121.9-3.2 12.8-10.3 31.2-28 46.6-24 20.9-59.1 29-80.5 33.9-33.4 7.7-102.2 31-107.4 45.4-1.2 3.4-26.3-15-26.6-14.9-2 0 64.5-166.2 83-194.4z"/><path class="st2" d="M748.5 201.3c-4.5 7.7-9.1 15.3-13.6 23 41.4 43.3 82.8 86.6 124.1 129.9 83.4-23.6 166.9-47.1 250.3-70.7 1.7-1.4 4.1-3.2 7.5-4.6 6.9-2.9 13.4-2.6 16.4-2.3l244.8-68.4c-7-7.3-14.1-14.6-21.1-21.8-10.8 3.6-25 8.2-41.6 13.2-21.6 6.5-45.5 13.8-75 20.7-44.6 10.5-49.7 8-71.6 16.1-23.9 8.9-41.1 20.4-51.8 28.7-122.9-21.2-245.7-42.5-368.4-63.8z"/><path class="st2" d="M1139.9 64.5c.9-1.3 5.8-8.5 10.2-19 3.4-8.1 5.2-15 6.1-19.5 47.7 40.6 95.5 81.2 143.2 121.9-3.2 12.8-10.3 31.2-28 46.6-24 20.9-59.1 29-80.5 33.9-33.4 7.7-21.5-.3-52.2 18.7-3.4 2.1-16.5 10.1-16.7 10.1-1.9 0-.5-164.6 17.9-192.7z"/><path class="st2" d="M748.5 201.3c41.4 42.5 82.8 85.1 124.1 127.6 76.1-18.4 116.9-33.7 140.5-44.8 7.5-3.5 27.5-13.4 55.9-16.1 18-1.7 33.1 0 43 1.7 6.2-6.5 15-14.6 26.6-23 3.6-2.6 14.5-10.3 30.7-18.4 18.5-9.3 21.2-7.8 38.9-16.7 13-6.5 23.7-12 33.4-22.4 7-7.5 15.6-16.7 13-27.6-1.5-6.2-6.9-14.4-17.1-16.7-10.3-2.3-22.3 2.2-28.6 11.5 1.6-2.3 6.2-8.2 15-10.9 3.2-1 9.7-3 13.6-.6 5.8 3.6 3.3 14.6 0 21.3-4.2 8.6-11.8 14.2-25.9 21.8-13.9 7.5-27.1 13.3-57.3 25.3-20.5 8.1-27.2 10.5-35.5 17.2-9.7 7.8-15.2 16.3-18.4 22.4-8.4-1-20.8-1.9-35.5-.6-17.1 1.6-29.8 5.5-45.7 10.9-31.7 10.9-48.9 18.7-68.9 26.4-14.7 5.7-37 13.8-65.5 21.8-33-33.3-65.9-66.7-98.9-100 50.6-6.3 84.9-18.8 107.1-29.3 13.3-6.3 32-16.4 59.3-18.4 19.9-1.4 36.7 2 47.7 5.2.5-6.4 2.6-16.2 10.2-25.3 3-3.6 8.9-9.4 35.5-20.7 22.4-9.5 27.1-9.2 40.9-15.5 9.9-4.5 23.7-12.2 38.2-25.3-5.5-4.6-10.9-9.2-16.4-13.8-2.2 4.1-6 10.1-12.3 16.1-23.5 22.3-53 17.3-78.4 33.9-10.2 6.6-22.3 18.4-29.3 40.8-9.7-3-25.7-6.9-45-5.7-24.5 1.4-33 9.5-78.4 23.6-7.5 2.3-27.6 8.4-52.5 13.8-26.2 5.9-48.5 8.9-64 10.5z"/><path class="st2" d="M770.3 205.9c35.2 37.7 70.5 75.5 105.7 113.2 54.1-17.8 108.2-35.6 162.3-53.5 21.1-2.7 42.3-5.4 63.4-8 5.1-5.2 12.7-12.3 23.2-19.5 5.7-3.9 14.5-9.5 35.5-19 32.4-14.7 35.1-12.1 51.8-21.8 15-8.7 29.3-17.2 31.4-31 1.4-9.1-3-16.8-6.1-21.3L1125 68.5c-12.1 14.9-24.7 23.3-33.4 28.2-18.5 10.2-28.1 8.8-58.7 23.6-15.8 7.6-23.7 13.1-29.3 21.3-5.6 8.1-7.1 16-7.5 21.3-12.3-3.3-31.7-7-54.6-4.6-31.9 3.4-48.4 16.4-77.7 28.2-19.9 7.8-50.5 17.1-93.5 19.4z"/><path class="st2" d="M1072.4 35.8c45.5 40.2 90.9 80.5 136.4 120.7 1.8-2.1 5.1-5.2 10.2-7.5 10.2-4.6 20.3-2.9 23.2-2.3-43.9-39.5-87.8-78.9-131.6-118.4-2.3-.9-12.3-4.5-23.9-1.1-7.8 2.2-12.4 6.5-14.3 8.6zm-25.5 155.8c-2.3 2.9-4.6 5.8-6.9 8.6-38.9-4.8-77.1 10.2-111.4 26.4-34.3 16.2-66 33.4-105.2 35.6M996 164.8c33.3 31.8 68.1 62.5 104.3 92"/></g><g class="st1"><path class="st3" d="M1287.2 154.7c-19-16-37.9-32-56.9-48.1-7.6 26.9-15.3 53.7-22.9 80.6 26.6-10.8 53.2-21.7 79.8-32.5z"/><path class="st4" d="M1299.9 171.5c4.2.6 6.2 2.6 6.2 2.6 1.7 1.7 1.9 3.8 1.9 5.2l-210.9 60c-1.4 1.9-5.5 6.9-13.6 9.8-9.2 3.3-17.4 1.6-19.8 1-77.1 21.4-154.2 42.7-231.3 64.1-39.6-41.2-79.2-82.3-118.7-123.5.8-.9 1.9-2.1 3.7-3.1 4.3-2.5 9-2.2 10.5-2.1 135.6 55.4 229.3 55.2 291.3 43.4 84-16 113.2-25.3 113.2-25.3-.1-.1 119.6-38.5 167.5-32.1z"/><path class="st5" d="M1120.6 49.3c.8-1.2 5.3-7.6 9.3-17.1 3.1-7.3 4.7-13.5 5.6-17.6 43.3 36.5 86.6 73 129.9 109.6-2.9 11.5-9.4 28-25.4 41.9-21.7 18.8-53.6 26.1-73 30.5-30.2 6.9-92.7 27.9-97.4 40.8-1.1 3.1-23.9-13.4-24.1-13.4-2 0 58.3-149.4 75.1-174.7z"/><path class="st6" d="M735.2 167.9c-4.1 6.9-8.2 13.8-12.4 20.7 37.5 38.9 75 77.9 112.6 116.8 75.7-21.2 151.3-42.4 227-63.6 1.5-1.3 3.7-2.9 6.8-4.1 6.2-2.6 12.1-2.3 14.8-2.1l222-61.5c-6.4-6.5-12.8-13.1-19.2-19.6-9.8 3.2-22.6 7.4-37.7 11.9-19.6 5.9-41.3 12.4-68 18.6-40.4 9.4-45 7.2-64.9 14.5-21.7 8-37.3 18.4-47 25.8-111.3-19.2-222.6-38.3-334-57.4z"/><path class="st7" d="M1090.2 44.9c.8-1.2 5.3-7.6 9.3-17.1 3.1-7.3 4.7-13.5 5.6-17.6 43.3 36.5 86.6 73 129.9 109.6-2.9 11.5-9.4 28-25.4 41.9-21.7 18.8-53.6 26.1-73 30.5-30.2 6.9-19.5-.3-47.3 16.8-3.1 1.9-14.9 9-15.2 9-1.8.1-.6-147.8 16.1-173.1z"/><path class="st8" d="M735.2 167.9c37.5 38.2 75 76.5 112.6 114.7 69-16.6 106-30.3 127.4-40.3 6.8-3.2 24.9-12 50.7-14.5 16.3-1.5 30 0 39 1.6 5.6-5.8 13.6-13.1 24.1-20.7 3.3-2.3 13.1-9.2 27.8-16.5 16.8-8.4 19.2-7 35.3-15 11.8-5.9 21.5-10.8 30.3-20.2 6.3-6.7 14.1-15 11.8-24.8-1.3-5.5-6.3-12.9-15.5-15-9.4-2.1-20.2 2-26 10.3 1.5-2.1 5.6-7.3 13.6-9.8 2.9-.9 8.8-2.7 12.4-.5 5.2 3.2 3 13.1 0 19.1-3.8 7.7-10.7 12.7-23.5 19.6-12.6 6.8-24.6 12-52 22.7-18.6 7.3-24.6 9.5-32.2 15.5-8.8 7-13.8 14.7-16.7 20.2-7.6-.9-18.8-1.7-32.2-.5-15.5 1.4-27 4.9-41.4 9.8-28.8 9.8-44.3 16.8-62.5 23.8-13.4 5.2-33.5 12.4-59.4 19.6-29.9-30-59.8-60-89.7-89.9 45.9-5.7 77-16.9 97.1-26.4 12.1-5.6 29-14.8 53.8-16.5 18.1-1.3 33.3 1.8 43.3 4.7.5-5.8 2.3-14.6 9.3-22.7 2.8-3.2 8.1-8.5 32.2-18.6 20.3-8.6 24.6-8.3 37.1-14 9-4.1 21.5-11 34.6-22.7-4.9-4.1-9.9-8.3-14.8-12.4-2 3.7-5.4 9.1-11.1 14.5-21.3 20.1-48 15.6-71.1 30.5-9.2 6-20.2 16.5-26.6 36.7-8.8-2.7-23.3-6.2-40.8-5.2-22.2 1.3-29.9 8.6-71.1 21.2-6.8 2.1-25 7.5-47.6 12.4-23.9 5.1-44 7.8-58.2 9.3z"/><path class="st9" d="M755 172c32 33.9 63.9 67.9 95.9 101.8 49.1-16 98.1-32 147.2-48.1 19.2-2.4 38.3-4.8 57.5-7.2 4.6-4.7 11.5-11.1 21-17.6 5.2-3.5 13.1-8.5 32.2-17.1 29.4-13.2 31.8-10.9 47-19.6 13.6-7.8 26.5-15.5 28.4-27.9 1.3-8.2-2.7-15.1-5.6-19.1l-102-68.7c-11 13.4-22.4 21-30.3 25.3-16.8 9.2-25.5 7.9-53.2 21.2-14.3 6.9-21.5 11.7-26.6 19.1-5 7.3-6.4 14.4-6.8 19.1-11.2-3-28.8-6.3-49.5-4.1-28.9 3.1-43.9 14.8-70.5 25.3-17.9 7.1-45.6 15.5-84.7 17.6z"/><path class="st10" d="M1029 19c41.2 36.2 82.5 72.4 123.7 108.5 1.7-1.9 4.6-4.6 9.3-6.7 9.2-4.2 18.4-2.6 21-2.1L1063.6 12.2c-2.1-.8-11.2-4.1-21.6-1-7.1 2.1-11.2 6-13 7.8z"/><path class="st11" d="M1005.4 158.6c-1.6 2-3.8 3.5-5.7 5.1-1 .8-2 1.7-3 2.6l-1.2 1.2c-.2.2-.3.2-.4.3-.5.1-1.4-.2-1.8-.2-7.3-.8-14.6-.8-21.9-.3-14.2 1.1-28.1 4.6-41.4 9.4-27.2 9.8-52.2 24.5-79.2 34.6-15.2 5.7-31.1 9.7-47.4 10.6-1 .1-1 1.6 0 1.5 14.5-.8 28.8-4 42.5-8.8 13.5-4.7 26.5-10.7 39.4-16.8 26.2-12.4 53-25.6 82.2-28.8 8.3-.9 16.6-1 24.9-.2.5 0 .9.1 1.4.1.5.1 1.3.3 1.8.2.6-.1.8-.5 1.2-.9 1-1 2.1-2 3.2-2.9 2.2-1.8 4.7-3.5 6.5-5.8.5-.6-.5-1.6-1.1-.9z"/><path class="st11" d="M959.2 135.5c11.8 11.2 23.7 22.2 35.9 33 12.3 10.9 24.7 21.6 37.3 32.1 7.1 5.9 14.3 11.8 21.5 17.6.7.6 1.8-.5 1.1-1.1-12.8-10.3-25.4-20.7-37.8-31.4-12.4-10.7-24.7-21.5-36.8-32.6-6.7-6.2-13.4-12.4-20.1-18.7-.8-.6-1.8.5-1.1 1.1z"/></g><g class="st1"><path class="st11" d="M1104.6 120.6c.9.3 2.8 1 3.6 2.4 1.4 2.5-1.5 5-2.2 5.6-1.3 1.1-3.3 2-7.3 3.6-5.3 2.2-6.5 2.2-8 3.5-1.2 1.1-.5 1.3-2.4 3.9-1.1 1.5-2 2.6-3.8 3.8-1.3.8-2.8 1.7-4.7 2-4.3.5-7.9-2.8-9.2-4.9-.5-.9-1.8-2.9-.2-4.4.6-.5 1.5-.9 3.2-1.6 1.9-.7 3.5-1.2 4.6-1.5.8-.2 2-.5 3.1-1.2.9-.5 1.4-1.2 2-2.1 1.5-2.4 1.1-3.6 2.3-6.1.5-.9 1-1.7 1.3-2.1l17.7-.9zm-124.9 13.1c2.9-1.7 16.5 6.6 46.3 18.5 14.9 5.9 25.5 9.4 43.7 17.9 4 1.9 7.2 3.4 9.3 4.5-1 .8-2.9 2-5.7 2.8-1.2.3-3.7 1-8.7.9-6-.2-11-1.3-14.8-2.6-16.3-3.5-28-8.2-35.5-11.7-3.9-1.8-20.8-10-32.1-24.3-3.4-4.6-3.2-5.6-2.5-6zm64.9-17.2c2.1 1.2 4.4 2.6 6.6 4.3 4.4 3.5 7 7 8.6 9.8-1.2.1-2.4.2-3.6.2-1.7-2.3-3.9-4.8-6.4-7.4-2.3-2.3-4.6-4.3-6.8-6.1.6-.3 1.1-.6 1.6-.8z"/><path class="st11" d="M1087 139.2c-.8-1-4.1-.4-11.2-.2-2.4.1-4.4.1-5.7.1 1.1-.9 2.3-1.9 3.6-2.9 1.5-1.2 2.9-2.3 4.4-3.3-5.7.2-10.2.2-13.4.2-14.4-.2-21.6-.3-21.7-.3-1-.1-3-.5-5 .2-1.1.4-1.4.8-3.2 1.6-1.4.6-2.4.9-3.1 1.2-3.3 1.1-7 2.7-11 4.3-3 1.2-7.4 2.8-13.2 4.6-1.7-.1-4.1-.2-7 .1-1.9.2-5.2.6-5.2 1 0 .1.4.4 6.8.8 3.2.2 5.8.3 7.6.4.3-.3.9-.8 1.7-1.2 3-1.7 5.9-1.5 9.7-2.1 1.6-.3 4.7-1.5 10.8-3.8 3.3-1.3 6-2.3 7.8-3.1 4.3.6 8.9 1.1 13.6 1.6 4.2.4 8.4.8 12.3 1.1-1.9.2-3.8.3-5.8.6-2.5.3-5 .6-7.3.9-.3.3-.7.7-1 1.3-.7.9-1.1 1.8-1.6 3.5-.4 1.2-.7 2.3-1 3.9-.4 2.3-.2 2.5-.5 4.4-.4 2.7-1 3.2-1.6 6.1-.2 1.1-.5 2.8-.6 4.8-1.1.8-2.8 2-5.1 3.3-3.1 1.8-5.2 2.6-5 2.8.3.3 4.4-.9 7.5-1.8 2.6-.8 4.7-1.4 6.1-1.9-.1-.7-.1-1.8.1-3.1.2-1.1.5-1.7 2.1-5.2.6-1.3 1.2-2.6 1.7-3.9 1.1-2.4 1.6-3.6 1.7-3.9.6-1.3 1.4-3.2 2.2-5.6 4.3.1 7.8.1 10.5.1 10 0 12.4-.4 14.4-1.4 1.3-.7 2.8-1.9 3.7-3.3 1-1.1 1.3-1.6.9-1.9zm15.3-30c-2.6.2-4.5 2-4.9 2.4-1.8 1.9-1.2 3.7-1 3.9.7 1.8 3 2.7 3.5 2.9-.1.4-.2.9-.3 1.3-5.3.3-9.6.5-12.9.6-3.8.2-5.7.2-8 .3-4.3 0-6.2-.1-11.9-.2-2.4-.1-6-.1-10.5-.1-.1-.1-3.1-1.9-6.7-1.3-1.7.3-3.7 1.2-4.2 2.4-.2.4-.2 1.2.3 1.3.7.2 1.6-.6 3-.7.9-.1 2.2.1 3.9 1.1 1.9-.1 3.7-.1 5.7-.1 9.6-.2 18.7.1 27.2.6 1.7-.7 3.8-1.6 6.2-2.3 2.8-.9 5.4-1.4 7.5-1.8-3.9.6-6.4 1.8-6.3 2.8.1.9 2.5 1.8 4.5 1.6 2-.2 2.6-1.3 5.4-1.9 1.2-.3 2.3-.3 2.9-.3.1-.8.3-1.7.7-2.6.7-1.9 1.7-3.5 2.7-4.7-.5-3.4-3.8-5.4-6.8-5.2z"/><path class="st11" d="M1108.2 123.1c-.8-.5-2.5 0-5.1.6-3.9 1-7 1.7-7.5 1.8-1.1.3-3 .6-13.4.2-9-.4-7.4-.6-11.1-.6-6.7 0-10.4.8-13.3-.3-.4-.2-1.7-.7-3.3-.6-1.5.1-2.6.5-3 .7-.8.3-1.9 1-1.7 1.2.2.2 1.5-.1 3.6-.2 1.4-.1 2.4 0 4.2.2 4.7.5 7.1.8 7.5.9 5.8.9 12 1.1 15.1 1.3 2.5.1 6.6 0 14.8-.1 1 0 4.1-.1 8-.9 4.5-1 5.3-2 5.5-2.4.3-.6.4-1.5-.3-1.8zm-6.7-14.7c1-1.2 5.3-1 6.6-1 1.4.1 4.9.2 8 1.8 2.3 1.2 3.2 2.7 4.9 5.6 2.4 4.3 2 5.6 4.2 8.2 1.7 2 3.7 3.4 5.2 4.3-2.5-.2-6.1-.7-10.1-1.9-2.4-.7-8.3-2.6-12-6.7-2.5-2.7-1.2-3.5-4.5-6.9-1.6-1.5-3-2.5-2.3-3.4z"/></g><g class="st1"><path class="st4" d="M1092.1 108.4c.9.3 2.7 1 3.7 2.6 1.9 2.8-.2 6-.6 6.7-.9 1.4-2.5 2.5-5.6 4.7-4.2 2.9-5.2 3-6.2 4.7-.8 1.4-.1 1.5-1.2 4.7-.6 1.8-1.1 3.2-2.5 4.7-1 1.1-2 2.2-3.7 2.6-3.7.8-7.6-2.8-9.3-5.2-.7-1-2.3-3.3-1.2-5.2.4-.7 1.1-1.1 2.5-2.1 1.5-1 2.8-1.6 3.7-2.1.6-.2 1.7-.7 2.5-1.6.7-.7 1-1.4 1.2-2.6.7-2.9.2-4.3.6-7.2.2-1.1.4-2 .6-2.6 5.2-.7 10.3-1.4 15.5-2.1zm-107 23.3c2.1-2.2 16.1 6.7 45.1 18.6 14.5 6 24.6 9.3 42.7 18.1 3.9 1.9 7.1 3.5 9.3 4.7-.7 1-2.1 2.5-4.3 3.6-.9.5-3 1.4-7.4 1.6-5.3.2-10-.8-13.6-2.1-15.2-3.1-26.6-7.8-34-11.4-3.9-1.9-20.7-10.3-34-26.4-4.3-5-4.3-6.2-3.8-6.7z"/><path class="st12" d="M1038.3 107.4c2.1 1.2 4.5 2.8 6.8 4.7 4.7 3.8 7.9 7.7 9.9 10.9-1 .2-2.1.3-3.1.5-2.1-2.6-4.5-5.4-7.4-8.3-2.5-2.5-5-4.8-7.4-6.7.4-.4.8-.8 1.2-1.1z"/><path class="st13" d="M1081 131.2c-.9-1.1-3.7-.2-9.9.5-2.1.3-3.8.4-4.9.5.8-1.2 1.6-2.4 2.5-3.6 1-1.4 2.1-2.8 3.1-4.1-4.9.6-9 .9-11.8 1-12.8.7-19.1 1-19.2 1-.9-.1-2.8-.3-4.3.5-.9.5-1.1 1-2.5 2.1-1 .8-1.9 1.2-2.5 1.6-2.7 1.5-5.6 3.6-8.7 5.7-2.4 1.6-5.8 3.7-10.5 6.2-1.5-.1-3.7 0-6.2.5-1.6.3-4.4 1.1-4.3 1.6 0 .2.4.4 6.2.5h6.8c.2-.4.6-1 1.2-1.6 2.2-2.1 4.9-2.1 8-3.1 1.3-.4 3.8-2 8.7-5.2 2.6-1.7 4.7-3.1 6.2-4.1 4 .4 8.1.8 12.4 1 3.8.2 7.5.4 11.1.5-1.6.3-3.3.6-4.9 1-2.2.5-4.2 1-6.2 1.6-.2.4-.4.9-.6 1.6-.4 1.1-.5 2.2-.6 4.1-.1 1.4-.1 2.7 0 4.7.2 2.7.4 2.9.6 5.2.3 3.2-.1 3.8 0 7.2.1 1.3.2 3.3.6 5.7-.8 1-2 2.5-3.7 4.1-2.3 2.3-3.9 3.4-3.7 3.6.3.3 3.6-1.3 6.2-2.6 2.1-1 3.8-2 4.9-2.6-.2-.8-.5-2.1-.6-3.6-.1-1.3.1-2 .6-6.2.2-1.6.4-3.1.6-4.7.4-2.8.6-4.3.6-4.7.2-1.6.4-3.9.6-6.7 3.8-.1 6.9-.3 9.3-.5 8.8-.6 10.8-1.2 12.4-2.6 1-.9 2.1-2.3 2.5-4.1.2-1.1.3-1.6 0-2zm6.4-36c-2.2.4-3.5 2.6-3.7 3.1-1.2 2.3-.2 4.4 0 4.7 1.1 2.1 3.2 2.9 3.7 3.1v1.6c-4.6.7-8.4 1.2-11.2 1.6-3.3.4-5 .6-7 .8-3.8.3-5.5.3-10.5.5-2.1.1-5.3.2-9.3.5-.1-.1-3.2-2.1-6.2-1-1.4.5-3 1.7-3.1 3.1 0 .5.1 1.4.6 1.6.6.2 1.3-.8 2.5-1 .8-.2 2-.1 3.7 1 1.6-.2 3.3-.4 4.9-.5 8.5-.8 16.5-1.1 24.1-1 1.3-1 3-2.1 4.9-3.1 2.3-1.2 4.4-2 6.2-2.6-3.3.9-5.2 2.5-4.9 3.6.3 1 2.6 1.9 4.3 1.6 1.7-.4 2-1.7 4.3-2.6 1-.4 1.9-.5 2.5-.5-.1-.9-.1-2 0-3.1.2-2.2.7-4.2 1.2-5.7-1-4-4.4-6.2-7-5.7z"/><path class="st13" d="M1095.8 111c-.8-.5-2.2.1-4.3 1-3.2 1.4-5.8 2.4-6.2 2.6-.9.4-2.5.9-11.8 1-8 .1-6.6-.3-9.9 0-5.9.5-8.9 1.6-11.8.5-.4-.2-1.6-.7-3.1-.5-1.3.2-2.2.8-2.5 1-.6.4-1.5 1.3-1.2 1.6.2.3 1.3-.3 3.1-.5 1.2-.2 2.1-.1 3.7 0 4.3.3 6.4.5 6.8.5 5.3.6 10.8.6 13.6.5 2.2 0 5.8-.4 13-1 .9-.1 3.6-.4 6.8-1.6 3.7-1.4 4.2-2.6 4.3-3.1.3-.6.2-1.6-.5-2z"/><path class="st14" d="M1086.5 94.4c.6-1.4 4.4-1.5 5.6-1.6 1.2 0 4.4-.1 7.4 1.6 2.3 1.2 3.4 2.9 5.6 6.2 3.1 4.8 3 6.4 5.6 9.3 1.9 2.3 4.1 3.8 5.6 4.7-2.2-.1-5.5-.4-9.3-1.6-2.3-.7-8-2.5-12.1-7-2.8-3-1.9-4-5.6-7.8-1.8-1.7-3.2-2.8-2.8-3.8z"/></g><g class="st1"><path class="st15" d="M1036.5 110.4c-2.8 3.5-5.7 7-8.5 10.5-.5.6-.6 1.5 0 2.1.5.5 1.6.6 2.1 0 2.8-3.5 5.7-7 8.5-10.5.5-.6.6-1.5 0-2.1-.5-.5-1.6-.6-2.1 0z"/><path class="st15" d="M1029.2 124.3c8.4 1.8 17 2.3 25.5 1.4 1.9-.2 1.9-3.2 0-3-8.2.8-16.6.4-24.7-1.3-1.8-.4-2.6 2.5-.8 2.9zm-1-4.8c-24.3 6.6-48.8 11.9-73.6 16.1-25.1 4.2-50.4 7.2-75.8 9-25.3 1.8-50.7 2.4-76.1 1.8-25.3-.6-50.6-2.4-75.8-5.3-25.2-3-50.3-7.2-75.1-12.6-3-.7-6-1.3-9-2-.9-.2-1.3 1.2-.4 1.4 24.6 5.7 49.5 10.2 74.6 13.5 25.2 3.3 50.6 5.4 76.1 6.3 25.5.9 51 .6 76.4-.9 25.3-1.5 50.6-4.2 75.7-8.1 25-3.9 49.8-8.9 74.2-15.2 3.1-.8 6.2-1.6 9.2-2.4 1-.4.6-1.8-.4-1.6zM559.5 61.1C581 77.3 602 94.3 622.4 112c5.7 4.9 11.3 9.9 16.8 15 .7.6 1.8-.4 1.1-1.1-20-18.2-40.7-35.6-61.9-52.3-6-4.7-12-9.3-18.1-13.9-.8-.4-1.5.9-.8 1.4z"/><path class="st15" d="M516.1 110.8c16.2 2.9 32.5 5.6 48.8 7.9 16.2 2.3 32.5 4.4 48.8 6.2 9.3 1 18.6 1.9 28 2.8 1 .1 1-1.4 0-1.5-32.8-2.9-65.5-7-98-12.2-9.1-1.5-18.1-3-27.1-4.6-1.1-.2-1.5 1.3-.5 1.4z"/></g><path class="st16" d="M563.3 62.9c-11.4-6.3-32.9-16.3-62.5-19.6-22.7-2.6-41.6-.3-53.8 2.1-.2-3.4-.2-10.6 4.9-17.6 9-12.3 26.4-14.1 30.3-14.5 16.4-1.6 29 4.8 39.6 10.3 22.7 11.9 35.1 28.5 41.5 39.3z"/><path class="st17" d="M482.3 13.3c-27 2.3-48.3 16.8-52.6 34.6-5.9 24.7 24 43.4 31.5 48.1 22.1 13.7 46.2 14.2 55 14-11.4-5.3-34.9-18-47-41.9-4.7-9.3-12.2-24.1-4.3-38.8 4.6-8.4 12.5-13.4 17.4-16z"/><g><path class="st18" d="M764.5 260.8c-30.4 3.2-61 2.7-91.5 2.7-8 0-15.9.1-23.9.3-1 0-1 1.5 0 1.5 30-.7 60 .3 89.9-1.1 8.5-.4 17-1 25.5-1.9 1-.1 1-1.7 0-1.5z"/><path class="st18" d="M530.1 236.5c30.9 7.4 61.8 14.7 92.6 22.1 8.7 2.1 17.4 4.2 26.1 6.2.9.2 1.3-1.2.4-1.4-30.7-7.3-61.4-14.7-92.2-22-8.9-2.1-17.7-4.2-26.6-6.4-.9-.2-1.3 1.3-.3 1.5z"/><path class="st18" d="M649.3 263.8c-12.5 5-25.1 9.8-38 14-14.6 4.8-29.4 8.7-44.5 11.5-9 1.7-18.2 2.8-27.3 3.5-1 .1-1 1.6 0 1.5 15.9-1.2 31.7-3.9 47.2-7.8 14.3-3.6 28.4-8.2 42.3-13.2 7-2.6 13.9-5.2 20.8-8 .8-.4.4-1.9-.5-1.5z"/><path class="st18" d="M533.3 235.7c-54.6 7.9-68 16.6-68.5 23.7-.7 9.9 23.8 19.4 33.2 23 26.4 10.2 50.6 9.9 65.7 8.4-31.8 8.4-57.6 8.3-74.2 7-17.7-1.4-27.8-4.6-36-8.4-13.2-6.1-37.8-21.5-35.3-35.6 2.3-13.1 27.1-18.7 40.3-21.6 14.3-3.2 40.5-6.5 74.8 3.5z"/></g><g><path class="st19" d="M801.9 224c-1.2 2.4-4 4-6.8 3.6-.4-.1-.8.1-.9.5-.1.4.1.9.5.9 3.4.5 6.9-1.2 8.5-4.3.4-.8-.9-1.6-1.3-.7z"/></g><g><path class="st19" d="M794.1 227.9c-3.3 7.1-8.3 13.4-14.6 18.2-.8.6 0 1.9.8 1.3 6.5-4.9 11.7-11.4 15.1-18.7.4-.9-.9-1.6-1.3-.8z"/></g></svg>