<svg viewBox="0 0 248 312" xmlns="http://www.w3.org/2000/svg" xml:space="preserve" style="fill-rule:evenodd;clip-rule:evenodd;stroke-linecap:round;stroke-linejoin:round"><g transform="translate(.434 .047)"><path style="fill:none" d="M-.434-.047h247.518v311.866H-.434z"/><clipPath id="a"><path d="M-.434-.047h247.518v311.866H-.434z"/></clipPath><g clip-path="url(#a)"><path d="M4.721 101.64a2.364 2.364 0 0 1-1.457 2.182 2.367 2.367 0 0 1-2.573-.512 2.361 2.361 0 1 1 4.03-1.67ZM17.694 101.705a2.358 2.358 0 0 1-4.03 1.669 2.358 2.358 0 0 1 .358-3.632 2.366 2.366 0 0 1 2.981.294c.442.442.691 1.043.691 1.669M4.803 118.143a2.36 2.36 0 1 1-4.718.001 2.36 2.36 0 0 1 4.718-.001M17.773 118.208a2.366 2.366 0 0 1-1.456 2.182 2.363 2.363 0 0 1-3.22-1.72 2.359 2.359 0 0 1 1.004-2.424 2.358 2.358 0 0 1 2.98.294c.443.442.692 1.042.692 1.668M4.803 134.615a2.364 2.364 0 0 1-1.457 2.18 2.356 2.356 0 0 1-2.572-.512 2.358 2.358 0 0 1 1.669-4.028 2.363 2.363 0 0 1 2.36 2.36M17.773 134.679a2.357 2.357 0 0 1-1.457 2.182 2.367 2.367 0 0 1-2.573-.512 2.361 2.361 0 1 1 4.03-1.67M4.763 151.07a2.358 2.358 0 0 1-2.821 2.316 2.365 2.365 0 0 1-1.855-1.855 2.359 2.359 0 0 1 1.005-2.424 2.36 2.36 0 0 1 3.671 1.963ZM17.733 151.134a2.357 2.357 0 0 1-1.457 2.182 2.358 2.358 0 0 1-2.573-.512 2.361 2.361 0 1 1 4.03-1.67ZM4.843 167.573a2.364 2.364 0 0 1-1.457 2.18 2.358 2.358 0 0 1-3.083-3.083 2.354 2.354 0 0 1 3.083-1.278 2.373 2.373 0 0 1 1.277 1.278c.119.286.18.593.18.903M17.815 167.637a2.356 2.356 0 0 1-1.456 2.181 2.356 2.356 0 0 1-2.572-.511 2.358 2.358 0 0 1 .357-3.631 2.367 2.367 0 0 1 1.312-.398 2.363 2.363 0 0 1 2.359 2.359M4.843 184.044a2.362 2.362 0 0 1-4.675.461 2.36 2.36 0 1 1 4.675-.461M17.815 184.109a2.36 2.36 0 1 1-4.721.002 2.36 2.36 0 0 1 4.721-.002ZM31.249 101.36a2.358 2.358 0 0 1-4.029 1.67 2.361 2.361 0 1 1 4.029-1.67ZM44.219 101.424a2.364 2.364 0 0 1-1.457 2.182 2.367 2.367 0 0 1-2.573-.512 2.361 2.361 0 1 1 4.03-1.67M31.328 117.863a2.359 2.359 0 0 1-4.675.462 2.358 2.358 0 0 1 2.316-2.821 2.363 2.363 0 0 1 2.359 2.359M44.299 117.928a2.364 2.364 0 0 1-1.457 2.182 2.367 2.367 0 0 1-2.572-.512 2.354 2.354 0 0 1-.646-1.209 2.351 2.351 0 0 1 1.004-2.423 2.362 2.362 0 0 1 2.98.294 2.36 2.36 0 0 1 .691 1.668M31.328 134.334a2.356 2.356 0 0 1-1.456 2.182 2.36 2.36 0 0 1-3.219-1.72 2.364 2.364 0 0 1 2.316-2.821 2.355 2.355 0 0 1 2.359 2.359ZM44.299 134.399a2.358 2.358 0 0 1-2.821 2.316 2.358 2.358 0 0 1-1.854-1.855 2.358 2.358 0 0 1 2.315-2.821 2.36 2.36 0 0 1 2.36 2.36M31.289 150.792a2.356 2.356 0 0 1-1.457 2.18 2.364 2.364 0 0 1-2.572-.512 2.36 2.36 0 1 1 4.029-1.668M44.259 150.854a2.358 2.358 0 0 1-2.821 2.316 2.365 2.365 0 0 1-1.855-1.855 2.359 2.359 0 0 1 1.005-2.423 2.362 2.362 0 0 1 3.671 1.962M31.369 167.292a2.365 2.365 0 0 1-1.457 2.182 2.36 2.36 0 0 1-3.219-1.72 2.367 2.367 0 0 1 1.004-2.424 2.356 2.356 0 0 1 1.312-.397 2.358 2.358 0 0 1 2.36 2.359M44.338 167.357a2.356 2.356 0 0 1-1.456 2.182 2.359 2.359 0 0 1-3.085-3.084 2.358 2.358 0 0 1 2.181-1.457 2.363 2.363 0 0 1 2.36 2.359M31.369 183.763a2.365 2.365 0 0 1-1.457 2.182 2.368 2.368 0 0 1-2.573-.512 2.361 2.361 0 1 1 4.03-1.67M44.338 183.829a2.358 2.358 0 0 1-2.82 2.316 2.358 2.358 0 0 1-1.721-3.219 2.363 2.363 0 0 1 3.85-.766c.443.442.691 1.043.691 1.669" style="fill:#224860;fill-rule:nonzero" transform="translate(5.396 -90.715)"/><path d="M230.545 389.622C130.987 196.14 82.049 158.065 55.863 165.306c-29.094 8.045-41.01 75.051-25.814 123.403C51.97 358.458 135.691 406.51 230.545 389.622Z" style="fill:#008b86;fill-rule:nonzero" transform="translate(5.396 -90.715)"/><path d="M189.71 318.659 26.791 235.357M182.77 304.55 26.348 225.176M205.227 346.284l-178.56-90.578M196.835 331.224 25.623 244.638" style="fill:none;fill-rule:nonzero;stroke:#224860;stroke-width:3.83px" transform="translate(5.396 -90.715)"/><path d="m230.255 131.246-87.395 234.5M163.843 112.675l-87.395 234.5M180.283 131.484 92.887 365.985M213.818 112.436l-87.396 234.5" style="fill:none;fill-rule:nonzero;stroke:#b6d8e2;stroke-width:2.87px;stroke-linecap:butt;stroke-linejoin:miter;stroke-miterlimit:10" transform="translate(5.396 -90.715)"/></g></g></svg>
