<svg width="1380" height="537" fill="none" xmlns="http://www.w3.org/2000/svg"><mask id="a" style="mask-type:alpha" maskUnits="userSpaceOnUse" x="0" y="0" width="1380" height="538"><path d="M1364 .001H16c-8.837 0-16 7.163-16 16v505c0 8.837 7.163 16 16 16h1348c8.84 0 16-7.163 16-16v-505c0-8.837-7.16-16-16-16z" fill="#F5F5F7"/></mask><g opacity=".2" mask="url(#a)"><path d="M191.562 191.744c-30.607 34.9-83.71 38.38-118.61 7.773l-55.291-48.492c-4.363-3.825-4.798-10.463-.972-14.826L179.48-49.424c30.607-34.899 83.71-38.379 118.609-7.772 34.9 30.607 38.38 83.71 7.773 118.61l-114.301 130.33z" fill="#D8DADF"/><path d="M-117.516 262.833c4.362 3.826 11 3.391 14.826-.971L60.102 76.239c30.607-34.9 27.127-88.003-7.772-118.61-34.9-30.607-88.003-27.127-118.61 7.772l-114.3 130.332c-30.607 34.899-27.128 88.002 7.772 118.609l55.292 48.491z" fill="#E4E5E9"/><circle cx="12.941" cy="265.451" r="84.049" transform="rotate(131.251 12.941 265.451)" fill="#CED0D4"/></g></svg>