<svg width="1380" height="537" fill="none" xmlns="http://www.w3.org/2000/svg"><mask id="a" style="mask-type:alpha" maskUnits="userSpaceOnUse" x="0" y="0" width="1380" height="538"><path d="M1364 .001H16c-8.837 0-16 7.163-16 16v505c0 8.837 7.163 16 16 16h1348c8.84 0 16-7.163 16-16v-505c0-8.837-7.16-16-16-16z" fill="#F5F5F7"/></mask><g opacity=".2" mask="url(#a)"><path d="M1291.92 416.525c-30.61 34.899-83.71 38.379-118.61 7.772l-55.3-48.491c-4.36-3.826-4.79-10.464-.97-14.826l162.8-185.623c30.6-34.9 83.71-38.379 118.6-7.773 34.9 30.607 38.38 83.711 7.78 118.61l-114.3 130.331z" fill="#D8DADF"/><mask id="b" style="mask-type:alpha" maskUnits="userSpaceOnUse" x="1373" y="-14" width="169" height="199"><path d="M1442.92-10.11c3.83-4.363 10.46-4.798 14.83-.972l55.23 48.438c34.8 30.519 38.24 83.5 7.72 118.299-30.55 34.833-83.58 38.336-118.41 7.788-34.83-30.549-38.3-83.55-7.76-118.383l48.39-55.17z" fill="#D8DADF"/></mask><g mask="url(#b)"><path d="M1351.54 85.504l81.21-92.595a31.324 31.324 0 0 1 9.45-7.45 30.55 30.55 0 0 1 11.47-3.282c3.98-.323 7.96.152 11.71 1.398a28.82 28.82 0 0 1 10.11 5.861l89.76 78.725a28.942 28.942 0 0 1 7.14 9.264 29.647 29.647 0 0 1 2.91 11.426c.2 3.987-.4 7.999-1.76 11.8a31.435 31.435 0 0 1-6.15 10.339l-81.2 92.595a31.343 31.343 0 0 1-9.46 7.44 30.567 30.567 0 0 1-11.47 3.276c-3.97.323-7.95-.151-11.7-1.396a28.77 28.77 0 0 1-10.12-5.851l-89.76-78.721a28.83 28.83 0 0 1-7.14-9.26 29.63 29.63 0 0 1-2.91-11.43 30.69 30.69 0 0 1 1.76-11.799c1.36-3.8 3.45-7.314 6.15-10.335v-.005z" fill="#E4E5E9"/></g><path d="M982.838 487.613c4.362 3.826 11 3.391 14.826-.971l162.796-185.623c30.6-34.9 27.12-88.003-7.78-118.61s-88-27.127-118.61 7.772L919.774 320.512c-30.607 34.9-27.127 88.003 7.772 118.61l55.292 48.491z" fill="#E4E5E9"/><path d="M998.914 509.241c-4.362-3.826-11-3.391-14.826.972l-48.279 55.05c-30.607 34.899-27.127 88.002 7.772 118.609l185.439 162.633c4.37 3.826 11 3.391 14.83-.971l48.28-55.05c30.6-34.9 27.12-88.003-7.77-118.61L998.914 509.241z" fill="#D8DADF"/><path d="M1245.08 494.446c-4.37-3.825-11-3.391-14.83.972l-48.28 55.05c-30.6 34.899-27.13 88.003 7.77 118.609l184.03 161.39c4.36 3.826 11 3.391 14.82-.971l48.28-55.05c30.61-34.9 27.13-88.003-7.77-118.61l-184.02-161.39z" fill="#E4E5E9"/><circle cx="1113.3" cy="490.231" r="84.049" transform="rotate(131.251 1113.3 490.231)" fill="#CED0D4"/><circle cx="1211.51" cy="115.334" r="84.049" transform="rotate(131.251 1211.51 115.334)" fill="#EDEFF3"/><ellipse cx="1325.84" cy="-15.027" rx="84.009" ry="84.049" transform="rotate(131.251 1325.84 -15.027)" fill="#CED0D4"/><mask id="c" style="mask-type:alpha" maskUnits="userSpaceOnUse" x="1248" y="364" width="223" height="223"><rect x="1477.67" y="467.752" width="167.777" height="167.777" rx="17.575" transform="rotate(131.251 1477.67 467.752)" fill="#E4E5E9"/></mask><g mask="url(#c)"><path d="M1414.6 412.44c34.83 30.548 38.31 83.55 7.76 118.382-30.55 34.833-83.55 38.306-118.38 7.757l-63.07-55.312 55.31-63.07c30.55-34.832 83.55-38.306 118.38-7.757z" fill="#B0B4BB"/></g></g></svg>