<svg width="1380" height="658" viewBox="0 0 1380 658" fill="none" xmlns="http://www.w3.org/2000/svg">
<path opacity="0.57" d="M1380 0H0V658H1380V0Z" fill="#DBEEFE"/>
<mask id="mask0_1_17" style="mask-type:alpha" maskUnits="userSpaceOnUse" x="0" y="0" width="1380" height="658">
<path d="M1380 0H0V658H1380V0Z" fill="#DBEEFE"/>
</mask>
<g mask="url(#mask0_1_17)">
<g opacity="0.05">
<path d="M358.105 718.046C362.452 721.858 362.885 728.472 359.073 732.819L262.44 843.005C258.628 847.352 252.014 847.785 247.667 843.973L137.721 747.55C133.375 743.738 132.941 737.124 136.753 732.777L185.07 677.685C215.567 642.911 268.479 639.444 303.253 669.94L358.105 718.046Z" fill="#118AF7"/>
<mask id="mask1_1_17" style="mask-type:alpha" maskUnits="userSpaceOnUse" x="134" y="649" width="228" height="198">
<path d="M358.105 718.046C362.452 721.858 362.885 728.472 359.073 732.819L262.44 843.005C258.628 847.352 252.014 847.785 247.667 843.973L137.721 747.55C133.375 743.738 132.941 737.124 136.753 732.777L185.07 677.685C215.567 642.911 268.479 639.444 303.253 669.94L358.105 718.046Z" fill="#FFDC63"/>
</mask>
<g mask="url(#mask1_1_17)">
</g>
</g>
<path opacity="0.05" d="M149.918 185.524C119.312 220.424 66.2082 223.903 31.3089 193.297L-23.9831 144.805C-28.3456 140.98 -28.7805 134.342 -24.9547 129.979L137.837 -55.6438C168.444 -90.5432 221.547 -94.023 256.447 -63.4161V-63.4161C291.346 -32.8093 294.826 20.2939 264.219 55.1932L149.918 185.524Z" fill="#118AF7"/>
<path opacity="0.1" d="M-159.163 256.612C-154.8 260.438 -148.162 260.003 -144.336 255.641L18.4557 70.018C49.0625 35.1187 45.5828 -17.9847 10.6834 -48.5915V-48.5915C-24.2159 -79.1983 -77.3191 -75.7186 -107.926 -40.8193L-222.227 89.5118C-252.834 124.411 -249.354 177.514 -214.455 208.121L-159.163 256.612Z" fill="#118AF7"/>
<path opacity="0.07" d="M-143.084 278.24C-147.446 274.414 -154.084 274.849 -157.91 279.212L-206.189 334.262C-236.796 369.161 -233.316 422.264 -198.417 452.871L-12.9752 615.504C-8.61276 619.33 -1.97486 618.895 1.85099 614.533L50.13 559.483C80.7369 524.583 77.2571 471.48 42.3578 440.873L-143.084 278.24Z" fill="#118AF7"/>
<g opacity="0.1">
<path d="M473.002 587.435C477.364 591.261 477.799 597.898 473.973 602.261L425.483 657.552C394.876 692.451 341.772 695.931 306.873 665.324L251.823 617.045C247.461 613.219 247.026 606.581 250.852 602.219L299.342 546.928C329.949 512.029 383.052 508.549 417.951 539.156L473.002 587.435Z" fill="#118AF7"/>
<mask id="mask2_1_17" style="mask-type:alpha" maskUnits="userSpaceOnUse" x="248" y="518" width="229" height="169">
<path d="M473.002 587.435C477.364 591.261 477.799 597.898 473.973 602.261L425.483 657.552C394.876 692.451 341.772 695.931 306.873 665.324L251.823 617.045C247.461 613.219 247.026 606.581 250.852 602.219L299.342 546.928C329.949 512.029 383.052 508.549 417.951 539.156L473.002 587.435Z" fill="#728AFD"/>
</mask>
<g mask="url(#mask2_1_17)">
</g>
</g>
<path opacity="0.04" d="M103.079 263.446C98.7166 259.62 92.0787 260.055 88.2529 264.417L39.9738 319.467C9.36699 354.366 12.8467 407.47 47.746 438.077L231.77 599.467C236.133 603.292 242.771 602.857 246.597 598.495L294.876 543.445C325.482 508.546 322.003 455.442 287.103 424.836L103.079 263.446Z" fill="#118AF7"/>
<g opacity="0.07">
<ellipse cx="117.752" cy="618.245" rx="84.0488" ry="83.9304" transform="rotate(131.251 117.752 618.245)" fill="#118AF7"/>
<mask id="mask3_1_17" style="mask-type:alpha" maskUnits="userSpaceOnUse" x="33" y="534" width="169" height="169">
<ellipse cx="117.752" cy="618.245" rx="84.0488" ry="83.9304" transform="rotate(131.251 117.752 618.245)" fill="#03BE9C"/>
</mask>
<g mask="url(#mask3_1_17)">
</g>
</g>
<g opacity="0.1">
<circle cx="-28.7024" cy="259.231" r="84.0488" transform="rotate(131.251 -28.7024 259.231)" fill="#118AF7"/>
<mask id="mask4_1_17" style="mask-type:alpha" maskUnits="userSpaceOnUse" x="-113" y="175" width="169" height="169">
<circle cx="-28.7024" cy="259.231" r="84.0488" transform="rotate(131.251 -28.7024 259.231)" fill="#03BE9C"/>
</mask>
<g mask="url(#mask4_1_17)">
</g>
</g>
<g opacity="0.07">
<circle cx="69.5144" cy="-115.666" r="84.0488" transform="rotate(131.251 69.5144 -115.666)" fill="#118AF7"/>
<mask id="mask5_1_17" style="mask-type:alpha" maskUnits="userSpaceOnUse" x="-15" y="-200" width="169" height="169">
<circle cx="69.5649" cy="-115.727" r="84.0488" transform="rotate(131.251 69.5649 -115.727)" fill="#03BE9C"/>
</mask>
<g mask="url(#mask5_1_17)">
</g>
</g>
<g opacity="0.07">
<mask id="mask6_1_17" style="mask-type:alpha" maskUnits="userSpaceOnUse" x="106" y="133" width="223" height="223">
<rect x="335.674" y="236.752" width="167.777" height="167.777" rx="17.5749" transform="rotate(131.251 335.674 236.752)" fill="#E4E5E9"/>
</mask>
<g mask="url(#mask6_1_17)">
<path d="M272.604 181.439C307.437 211.987 310.91 264.989 280.361 299.821V299.821C249.813 334.654 196.812 338.127 161.979 307.579L98.9092 252.266L154.222 189.196C184.77 154.364 237.771 150.891 272.604 181.439V181.439Z" fill="#118AF7"/>
</g>
</g>
<path opacity="0.1" d="M1141.92 744.524C1111.31 779.423 1058.21 782.903 1023.31 752.296L968.015 703.805C963.653 699.979 963.218 693.341 967.043 688.979L1129.84 503.356C1160.44 468.457 1213.55 464.977 1248.44 495.584V495.584C1283.34 526.19 1286.82 579.294 1256.22 614.193L1141.92 744.524Z" fill="#118AF7"/>
<path opacity="0.05" d="M1345.46 119.313C1380.3 149.861 1383.77 202.863 1353.22 237.695L1304.84 292.866C1301.01 297.229 1294.37 297.664 1290.01 293.838L1234.84 245.453C1200.01 214.904 1196.53 161.903 1227.08 127.071V127.071C1257.63 92.2379 1310.63 88.7648 1345.46 119.313V119.313Z" fill="#118AF7"/>
<path opacity="0.07" d="M1485.03 353.293C1454.48 388.125 1401.48 391.598 1366.65 361.05L1311.48 312.665C1307.11 308.839 1306.68 302.201 1310.5 297.839L1358.89 242.667C1389.44 207.835 1442.44 204.362 1477.27 234.91V234.91C1512.1 265.458 1515.58 318.46 1485.03 353.293V353.293Z" fill="#118AF7"/>
<g opacity="0.15">
<mask id="mask7_1_17" style="mask-type:alpha" maskUnits="userSpaceOnUse" x="1223" y="314" width="169" height="199">
<path d="M1292.92 317.888C1296.75 313.526 1303.38 313.091 1307.75 316.917L1362.98 365.355C1397.78 395.874 1401.22 448.855 1370.7 483.654V483.654C1340.15 518.487 1287.12 521.99 1252.29 491.442V491.442C1217.46 460.894 1213.99 407.892 1244.53 373.059L1292.92 317.888Z" fill="#D8DADF"/>
</mask>
<g mask="url(#mask7_1_17)">
<path d="M1201.55 413.503L1282.75 320.908C1285.39 317.833 1288.61 315.3 1292.2 313.458C1295.79 311.615 1299.69 310.499 1303.67 310.176C1307.65 309.852 1311.63 310.328 1315.38 311.574C1319.12 312.821 1322.56 314.813 1325.49 317.435L1415.25 396.16C1418.23 398.724 1420.66 401.873 1422.39 405.424C1424.11 408.982 1425.1 412.863 1425.3 416.85C1425.5 420.837 1424.9 424.849 1423.54 428.649C1422.18 432.45 1420.09 435.965 1417.39 438.989L1336.19 531.584C1333.54 534.654 1330.33 537.184 1326.74 539.024C1323.14 540.864 1319.24 541.978 1315.26 542.3C1311.29 542.623 1307.31 542.149 1303.56 540.904C1299.81 539.66 1296.38 537.671 1293.44 535.053L1203.68 456.332C1200.7 453.774 1198.27 450.625 1196.54 447.072C1194.82 443.518 1193.83 439.632 1193.63 435.642C1193.44 431.655 1194.03 427.644 1195.39 423.843C1196.75 420.042 1198.84 416.529 1201.54 413.508L1201.55 413.503Z" fill="#118AF7"/>
</g>
</g>
<path opacity="0.05" d="M832.838 815.612C837.2 819.438 843.838 819.003 847.664 814.641L1010.46 629.018C1041.06 594.119 1037.58 541.015 1002.68 510.408V510.408C967.785 479.802 914.681 483.281 884.075 518.181L769.774 648.512C739.167 683.411 742.647 736.514 777.546 767.121L832.838 815.612Z" fill="#118AF7"/>
<g opacity="0.05">
<circle cx="1061.51" cy="443.333" r="84.0488" transform="rotate(131.251 1061.51 443.333)" fill="#118AF7"/>
<mask id="mask8_1_17" style="mask-type:alpha" maskUnits="userSpaceOnUse" x="977" y="359" width="169" height="169">
<circle cx="1061.56" cy="443.272" r="84.0488" transform="rotate(131.251 1061.56 443.272)" fill="#03BE9C"/>
</mask>
<g mask="url(#mask8_1_17)">
</g>
</g>
<g opacity="0.05">
<ellipse cx="1175.84" cy="312.972" rx="84.0086" ry="84.0488" transform="rotate(131.251 1175.84 312.972)" fill="#118AF7"/>
<mask id="mask9_1_17" style="mask-type:alpha" maskUnits="userSpaceOnUse" x="1091" y="228" width="169" height="169">
<ellipse cx="1175.84" cy="312.972" rx="84.0086" ry="84.0488" transform="rotate(131.251 1175.84 312.972)" fill="#03BE9C"/>
</mask>
<g mask="url(#mask9_1_17)">
</g>
</g>
</g>
<rect width="1380" height="658" fill="url(#paint0_linear_1_17)"/>
<defs>
<linearGradient id="paint0_linear_1_17" x1="91.6034" y1="90.436" x2="1339.41" y2="646.04" gradientUnits="userSpaceOnUse">
<stop stop-color="white" stop-opacity="0.35"/>
<stop offset="1" stop-color="white" stop-opacity="0.57"/>
</linearGradient>
</defs>
</svg>
