<svg xmlns="http://www.w3.org/2000/svg" width="100%" height="100%" viewBox="0 0 345 129" fill="none"><rect width="55.116" height="55.116" x="217.207" y=".861" fill="#EDEFF3" rx="12.057"/><rect width="55.116" height="55.116" x="72.527" y=".861" fill="#EDEFF3" rx="12.057"/><rect width="55.116" height="55.116" x=".188" y="73.201" fill="#EDEFF3" rx="12.057"/><path fill="#EDEFF3" d="M332.606 127.887h-31.003a12.057 12.057 0 0 1-12.056-12.056V84.828a12.055 12.055 0 0 1 12.056-12.056h31.003a12.058 12.058 0 0 1 12.057 12.056v31.003a12.058 12.058 0 0 1-12.057 12.056z"/><rect width="55.116" height="55.116" x=".188" fill="#fff" rx="12.057"/><path fill="#000" d="M32.63 20.226c0 .782.127 1.962-1.74 2.63-.579.208-.97.58-.97.58 0-1.86.287-2.534 1.057-2.932.592-.307 1.654-.278 1.654-.278zm-7.03 2.133-2.08 7.964-1.73-6.518c-.466-1.92-1.263-2.913-2.94-2.913-1.662 0-2.47.971-2.941 2.913l-1.73 6.518-2.079-7.964c-.337-1.604-1.908-2.297-3.357-2.117l3.982 14.883s1.313.093 1.971-.238c.864-.435 1.274-.77 1.797-2.795.466-1.805 1.768-7.108 1.89-7.486.289-.897.673-.829.935 0 .12.378 1.424 5.68 1.89 7.486.522 2.024.933 2.36 1.797 2.795.657.331 1.971.238 1.971.238l3.982-14.883c-1.483-.184-3.026.536-3.358 2.117zm7.03.313s-.248.38-.817.694c-.365.202-.715.34-1.091.517-.92.436-.8.838-.8 2.113v9.129s1.005.125 1.662-.206c.846-.426 1.04-.837 1.048-2.688v-9.02h-.001v-.539zm9.926 5.047 5.052-7.428s-2.132-.359-3.188.592c-.808.726-1.482 1.773-3.29 4.35-.029.044-.38.633-.794 0-1.779-2.535-2.477-3.62-3.29-4.35-1.056-.95-3.188-.592-3.188-.592l5.052 7.428-5.038 7.405s2.22.278 3.276-.673c.698-.627 1.068-1.222 3.189-4.245.413-.631.763-.046.794 0 1.785 2.544 2.382 3.485 3.226 4.245 1.056.95 3.238.673 3.238.673l-5.04-7.405z"/><rect width="55.116" height="55.116" x="289.547" y=".861" fill="#fff" rx="12.057"/><path fill="#2BA9E0" d="M316.3 43.46a5.423 5.423 0 1 0 0-10.848 5.423 5.423 0 0 0 0 10.849zm6.748-11.88a9.313 9.313 0 0 1 2.596 6.465 9.329 9.329 0 0 1-4.009 7.67c4.478-1.384 8.175-4.747 9.834-8.816 2.292-5.639.157-9.88-3.422-13.725.112.498.171 1.012.171 1.547 0 3.251-2.187 5.996-5.17 6.86zm-1.979-2.723a4.151 4.151 0 1 0 0-8.302 4.151 4.151 0 0 0 0 8.302z"/><path fill="#2BA9E0" d="M309.15 44.056a9.342 9.342 0 0 1 6.033-15.295 7.147 7.147 0 0 1 6.844-11.137c-2.336-2.016-4.672-4.062-6.517-6.3.937 9.797-8.927 6.24-12.572 15.272-2.44 6.055-.238 13.547 6.212 17.46z"/><rect width="55.116" height="55.116" x="72.527" y="72.34" fill="#fff" rx="12.057"/><path fill="#1899D6" d="M92.38 111.942c-6.202 0-9.87-4.183-9.698-9.632.21-6.966 6.36-12.746 13.695-12.746 3.14 0 5.661.819 7.336 1.663l-.976 5.159c-2.098-1.135-3.892-1.82-6.808-1.82-4.566 0-7.587 3.403-7.693 7.084-.092 2.93 1.676 5.357 5.08 5.357.765 0 1.663-.118 2.27-.264l1.332-7.045h5.199l-2.019 10.634c-2.203 1.016-5.106 1.61-7.719 1.61zm26.293-12.246-10.358-6.174-2.731 14.447 13.089-8.273z"/><rect width="55.116" height="55.116" x="216.889" y="72.34" fill="#fff" rx="12.057"/><path fill="#59473C" d="M258.883 107.558v-.239c0-.096-.048-.143-.048-.239a1.026 1.026 0 0 0-.239-.383c-.095-.096-.239-.191-.335-.287-.143-.048-.239-.096-.383-.144h-.095c.143-.622-.048-1.1-.144-1.34l.048-.047c.144-.144.287-.288.383-.431v-.048c.096-.143.143-.287.191-.383.048-.095.048-.191.048-.287v-.239c0-.192-.048-.431-.191-.718a1.146 1.146 0 0 0-.287-.431c-.096-.143-.288-.239-.431-.335h-.048c-.335-.526-.766-.909-1.101-1.244-.191-.143-.334-.287-.526-.382-.143-.096-.287-.192-.335-.24a3.22 3.22 0 0 1-.335-.239c-.143-.096-.239-.144-.287-.191-.048-.048-.048-.048-.096-.048v-.814c0-.43.048-1.005.144-1.77v-.718c0-.335-.048-.67-.144-.957 0-.048-.048-.144-.048-.191 0-.048-.047-.096-.047-.096 0-.048-.048-.096-.048-.144 0 0 0-.048-.048-.096-.048-.047-.048-.143-.096-.19v-.049a1.47 1.47 0 0 0-.239-.335c-.048-.191-.096-.43-.239-.765a3.656 3.656 0 0 0-.431-.862c-.048-.095-.144-.191-.239-.287l.048-.048c.047-.047.957-1.004 1.722-2.296 1.34-2.345.909-3.78.287-4.594-.574-.67-1.387-1.053-2.392-1.197-2.058-.239-4.45.766-5.025 1.053l-1.1-1.244c-.096-.096-.192-.192-.335-.287-.096-.096-.239-.144-.383-.24-.287-.143-.574-.19-.861-.239-.622-.095-1.34 0-2.106.192-1.148.287-2.44.861-3.78 1.674-1.34.814-2.728 1.867-4.115 3.11-1.675 1.532-3.063 3.111-4.02 4.643-.479.765-.909 1.483-1.196 2.2a9.744 9.744 0 0 0-.575 1.963c-.047.43-.047.861.048 1.244.048.191.096.335.192.478.095.192.191.383.383.527l1.292 1.387c0 .048-.048.048-.048.096s-.048.096-.048.096c0 .048-.048.048-.048.096 0 .047-.048.095-.048.095 0 .048 0 .048-.048.096 0 .048-.048.096-.048.096 0 .048 0 .048-.047.095 0 .048-.048.096-.048.144 0 .048 0 .048-.048.096 0 .048-.048.095-.048.143v.096c0 .048 0 .096-.048.143v.335c0 .048 0 .096-.048.144v2.058c0 .047 0 .047.048.095v.048c0 .048 0 .048.048.096 0 0 0 .048.048.096 0 .047 0 .047.048.047v.192s.048.048.048.096v.047s0 .048.047.048c0 0 .048.048.048.096v.048s0 .048.048.048c0 0 0 .048.048.048 0 0 0 .047.048.047l.048.048s.048.048.048.096c0 0 0 .048.047.048l.048.048.048.048.048.047.048.048s0 .048.048.048c0 .048.047.048.047.096v.048s0 .047.048.047l.096.096.048.048.048.048.095.096.048.047c.048.048.096.048.144.096l.096.096h.095c.048 0 .048.048.096.048h.096c.048 0 .048.048.095.048 0 0 .048 0 .048.047h.048c.048.048.096.048.144.096h.047c.048.048.096.048.144.096h.048c.048 0 .048.048.096.048h.095c.048 0 .048 0 .096.048.048 0 .048.047.096.047h.048c.047 0 .095.048.143.048.048 0 .144.048.192.048.047 0 .095.048.191.048.048 0 .096 0 .143.048h.144v.048l.287.717c1.579 4.307 5.886 7.657 10.815 8.279 4.929.622 10.192-2.68 12.346-7.082.095-.192.191-.335.239-.479.191-.239.383-.43.478-.67.335-.095.383-.383.335-.67z"/><path fill="#141B26" d="M254.672 85.978a2.47 2.47 0 0 0-.813-.622c-.048 0-.096-.048-.192-.048-.047 0-.047-.048-.095-.048-.287-.095-.527-.191-.814-.191-1.435-.191-3.062.335-4.019.718-.048 0-.096.048-.144.048-.096.047-.143.047-.239.095-.144.048-.287.144-.431.192 0 0-.048 0-.048.048l-.382-.431-.096-.144-.048-.047-.957-1.101-.048-.144-.096-.143-.287.048-.335.047a2.36 2.36 0 0 0-.622-.19c-.478-.049-1.1 0-1.77.19-.67.192-1.484.48-2.297.91-1.627.813-3.493 2.057-5.216 3.684A29.775 29.775 0 0 0 234 90.572c-.526.574-.957 1.1-1.387 1.675a15.424 15.424 0 0 0-1.915 3.158 7.978 7.978 0 0 0-.526 1.77c-.048.383-.048.67.048.958 0 .095.048.143.096.239.047.144.143.287.239.43l1.053 1.101.095.096c.048-.048.048-.096.096-.096l.048-.048.096-.095.047-.048.048-.048.048-.048.048-.048.096-.096.048-.047.095-.096.048-.048c.048-.048.096-.048.096-.096l.048-.047c.048-.048.095-.048.095-.048l.048-.048c.048 0 .096-.048.144-.048 0 0 .048 0 .048-.048h.047c.048 0 .048-.048.096-.048 0 0 .048 0 .048-.048.048 0 .048-.047.096-.047s.048 0 .095-.048h.048c.048-.048.144-.048.192-.096h.191c.048 0 .048 0 .096-.048.048 0 .048 0 .096-.048H234c.048 0 .096 0 .096-.047h.957c.144 0 .335.047.526.095.048 0 .096 0 .144.048 0 0 0-.048.048-.048.095-.191.191-.335.287-.526.574-1.005 1.244-1.866 1.866-2.632.239-.24.431-.526.67-.718a16.177 16.177 0 0 1 2.728-2.297c.191-.143.382-.239.574-.383l.718-.43c.191-.096.382-.192.526-.287.287-.144.526-.24.766-.335.047-.048.143-.048.191-.096.096-.048.191-.096.287-.096h-.67c-.143 0-.287 0-.43.048-.048 0-.096 0-.144.048a4.866 4.866 0 0 1 1.053-.43c.239-.049.43-.144.67-.144.287-.048.574-.096.813-.096h.909c.431.048.718.096.718.096-.048-.096-.143-.144-.239-.24-.144-.095-.335-.19-.479-.287-.048 0-.095-.047-.191-.047-.048 0-.096 0-.096-.048.096 0 .144 0 .239-.048.096 0 .144 0 .24-.048.622-.048 1.148 0 1.579.048.478.096.813.24.813.24-.048-.145-.191-.24-.287-.336-.095-.096-.191-.143-.239-.191.144.048.335.095.478.143.383.144.718.24 1.005.383.096.048.144.096.24.096 0 0 .047 0 .047.048.24.143.383.239.383.239a1.039 1.039 0 0 0-.239-.383l-.096-.096h.048s.048 0 .048.048c.096.048.287.096.479.192h.047c.048 0 .048.047.096.047a.364.364 0 0 0 .192.096c.047.048.143.096.191.144.048 0 .048.048.096.048.095.047.143.095.191.143.096.048.144.144.191.192l.048.047.144.144c.096.096.191.24.239.335.096.143.144.287.239.478v.048c.048-.047.096-.143.192-.239.861-.861 3.158-3.78 1.77-5.55z"/><path fill="#856249" d="M258.116 107.654s.048-.191-.095-.382v-.048l-.048-.048-.096-.096s-.048 0-.048-.048c-.048-.047-.143-.047-.239-.047h-.287v.095c0 .048.048.096.048.144v.048c-.048.095-.144.287-.383.574l-.144.143c-.67.67-2.105 1.675-5.12 2.202a10.907 10.907 0 0 1-2.775.047c-1.196-.143-2.058-.526-2.488-1.052-.048-.048-.048-.096-.096-.144 0-.048-.048-.048-.048-.096v-.047c-.191-.335-.239-.67-.239-1.005 0-.383.143-.814.335-1.101.191-.239.382-.431.67-.526.143-.048.287-.048.43-.048h.096c.096 0 .239.048.383.048h.048c.574.048 1.483.143 2.536.095 1.962-.143 4.594-.765 6.938-2.871 0-.191 0-.478-.239-.765l-.143-.144c-.048 0-.048-.048-.096-.048s-.048-.048-.096-.048c-.048-.047-.096-.047-.096-.095s-.047-.048-.047-.096c-.623-.909-1.436-1.483-1.819-1.723-.143-.095-.239-.191-.239-.191-.718-.43-.814-.574-.766-1.818.048-.431.048-1.005.144-1.771V95.883c0-.048 0-.144-.048-.191V95.404c0-.047 0-.095-.048-.095V95.165c0-.048 0-.048-.048-.096v-.095c0-.048-.048-.096-.048-.144v-.048c-.047-.048-.047-.095-.095-.143 0-.048-.048-.048-.048-.096l-.048-.048-.096-.096v-.047c0-.048 0-.096-.048-.192v-.095c0-.048-.047-.096-.047-.144v-.048c0-.048-.048-.096-.048-.144 0 0 0-.047-.048-.095 0-.048-.048-.096-.048-.096 0-.048 0-.048-.048-.096 0-.047-.048-.095-.048-.095 0-.048-.048-.048-.048-.096s-.047-.096-.047-.096c0-.048-.048-.048-.048-.095-.048-.048-.048-.096-.096-.144l-.048-.048-.048-.048c-.047-.047-.047-.095-.095-.143l-.144-.144s-.048-.048-.096-.048l-.047-.047s-.048-.048-.144-.048c0 0-.048 0-.048-.048-.096-.048-.287-.096-.431-.144h-.047a1.697 1.697 0 0 0-.479-.095c-.048 0-.143 0-.191-.048h-.575c-.191 0-.382 0-.526.047.048-.047.144-.143.287-.19.144-.097.287-.144.287-.144-.095 0-.143 0-.239.047h-.191c-.431.096-.814.24-1.005.335-.048 0-.048.048-.096.048h-.048c.144-.287.383-.478.574-.526.048 0 .048-.048.096-.048h.144-.192a2.934 2.934 0 0 0-1.196.383c-.239.143-.431.287-.622.43-.048 0-.096 0-.144.048-.478.096-1.052.24-1.674.431-.24.048-.431.144-.67.24-.192.047-.335.143-.527.19-.143.049-.239.096-.383.144-.909.43-1.818.957-2.584 1.675l-.095.096-.192.191-.095.096c-.048.048-.048.096-.096.096a2.117 2.117 0 0 0-.383.526l-.287.43a3.493 3.493 0 0 0-.431.958 2.321 2.321 0 0 1-.191.526c0 .048-.048.096-.048.144v.047a2.8 2.8 0 0 0-.096.622v.144c0 .096-.048.24-.048.335v1.005c0 .144 0 .239.048.383v.287c0 .143.048.287.048.431v.095c0 .144.048.24.048.383V101.386c0-.144.048-.287.096-.431 0-.048.048-.096.048-.096v-.047c.047-.048.047-.144.095-.192 0 .048 0 .096.048.144v.622c0 .431.048 1.005.144 1.435 0 0 0-.861.143-.957 0 0 .24 1.532.479 2.154.048.095.048.143.095.191v-.143l-.047-.862v-.095c.191.334.382.717.574 1.1.048.096.143.192.191.335-.43.383-.813.909-1.1 1.531-.048.096-.096.192-.144.335 0 .048-.048.144-.048.192v.048c0 .047-.048.095-.048.143v.048c0 .048 0 .096-.047.144v.047c0 .048-.048.144-.048.192 0 .048 0 .143-.048.191v1.484c0 .047 0 .095.048.143v.096c0 .048 0 .096.048.143v.096c0 .048 0 .096.047.144 0 .048 0 .048.048.095 0 .048.048.096.048.144 0 .048 0 .048.048.096 0 .048.048.095.048.143 0 0 0 .048.048.048.048.144.143.287.191.431 0 0 0 .048.048.048.048.047.048.095.096.143 0 .048.047.048.047.096.048.048.048.096.096.143 0 .048.048.048.048.096.048.048.048.096.096.144 0 .048.048.048.048.095.047.048.047.096.095.144 0 .048.048.048.048.096.048.047.048.095.096.143 0 .048.048.048.048.096l.143.143.048.048.192.192s-.048-.048-.096-.144c0 0 0-.048-.048-.048 0 0 0-.048-.048-.095 0-.048-.048-.048-.048-.096a2.616 2.616 0 0 1-.191-.957c.048.048.096.096.096.143.047.096.095.192.191.335 0 .048.048.096.048.144.096.191.239.383.335.574.143.239.335.479.478.718 0 0-.191-.431-.287-.718 0-.096-.048-.143 0-.191l.048.048.048.047c.048.048.096.096.096.144v.048c0 .048.047.048.047.096.048.047.048.095.096.095.287.383.67.814.909 1.101a.838.838 0 0 0 .24.191l-.479-.574c.861.718 4.498 1.627 8.039.622.431-.143.862-.287 1.292-.478.239-.096.527-.24.766-.383h.048c.191-.096.335-.192.526-.287.144-.096.239-.144.383-.24.191-.143.431-.287.622-.478l.048-.048a5.71 5.71 0 0 1 .574-.526c.239-.24.431-.479.622-.766.048-.048.096-.144.144-.191l.048-.048c.047-.096.143-.192.191-.287l.048-.048c.048-.048.048-.096.096-.144 0-.048.047-.095.047-.095 0-.048.048-.096.048-.096a.364.364 0 0 0 .096-.192c0-.047.048-.047.048-.095.048-.048.048-.096.095-.144 0-.048.048-.048.048-.096.048-.047.048-.143.096-.191l.287-.287s0-.048.048-.048c.144-.383.191-.574.191-.766zm-21.243-2.536c-.048-.287-.096-.526-.096-.765v-.048c-.047 0-.095.048-.143.143 0 .048-.048.048-.048.096a3.013 3.013 0 0 0-.239.526c0-.095 0-.191.048-.335v-.047c0-.096.047-.24.047-.335v-.048c0-.144.048-.24.048-.383v-.144c0-.095.048-.191.048-.287 0-.095.048-.143.048-.239v-.479h-.048l-.048.048v.048c0 .048-.048.048-.048.096.096 0 .048.048.048.096v.047c0 .048-.048.048-.048.096s-.047.096-.047.096c-.048.096-.096.191-.096.287 0 .048 0 .048-.048.096 0 .048-.048.095-.048.143V102.821c0-.048 0-.095.048-.143v-.096c0-.048.048-.143.048-.191v-.096c.048-.096.048-.191.096-.287.047-.096.047-.192.095-.239 0-.048.048-.048.048-.096s.048-.096.048-.144c0 0 0-.048.048-.095 0 0 0-.048.048-.048 0-.048.048-.048.048-.096v-.048l.239-.383s0-.047.048-.047c.048-.048.048-.096.095-.144.048-.048.048-.144.096-.191.048-.096.144-.24.144-.288 0-.047.047-.047.047-.047s-.095-.048-.191-.144c-.143-.096-.335-.191-.526-.287-.096-.048-.144-.048-.24-.096-.095-.048-.191-.096-.287-.096-.048 0-.048 0-.095-.047-.096-.048-.192-.048-.287-.096-.048 0-.144-.048-.192-.048-.048 0-.096 0-.143-.048h-.479c-.144 0-.287 0-.431.048h-.047a3.622 3.622 0 0 0-.766.191c-.096.048-.144.048-.239.096 0 0-.048 0-.048.048-.048 0-.048.048-.096.048-.239.144-.478.287-.67.431-.191.143-.335.335-.478.478l-.144.144c-.048.048-.096.143-.144.191-.095.144-.143.239-.239.383 0 .048-.048.096-.048.143v.048c-.143.335-.239.67-.287 1.005v1.531c0 .048 0 .048.048.096 0 .048 0 .048.048.096 0 .048 0 .048.048.096v.047c0 .048 0 .048.048.096 0 .048 0 .048.048.096v.096c0 .047 0 .047.047.095 0 .048.048.048.048.096l.048.048c0 .048.048.048.048.096l.048.047c0 .048.048.048.048.096l.047.048c0 .048.048.048.048.096l.048.047c0 .048.048.048.096.096l.048.048.095.096.048.048.096.095.048.048.096.096.047.048.096.095.048.048c.048.048.096.048.096.096h.048c.047.048.095.048.095.096h.048c.048.048.096.048.144.095h.047c.048.048.096.048.144.096.048.048.096.048.144.048.047 0 .095.048.143.048.048 0 .096.048.144.048.048 0 .095.047.143.047h.096c.048 0 .048 0 .096.048.048 0 .095.048.191.048.048 0 .096 0 .192.048.191.048.382.048.574.048h.335c.095 0 .191 0 .239-.048.096 0 .144-.048.239-.048.096-.048.239-.048.335-.096.335-.095.622-.239.814-.382 0 0-.096-.527-.24-1.053.096 0 .096-.048.096-.096z"/><path fill="#3578AD" d="m245.338 85.45-.048-.526.288-.574h.095a2.399 2.399 0 0 0-.622-.191c-.478-.048-1.1 0-1.77.191a11.98 11.98 0 0 0-2.297.91c-1.627.813-3.494 2.057-5.216 3.684a29.156 29.156 0 0 0-1.723 1.723c-.526.574-.957 1.1-1.388 1.675-.861 1.1-1.483 2.2-1.914 3.158a7.978 7.978 0 0 0-.526 1.77c-.048.383-.048.67.048.957 0 .096.048.144.096.24.047.143.143.287.239.43l1.053 1.1.095.097c.048-.048.048-.096.096-.096l.048-.048.096-.096.047-.047.048-.048.048-.048.048-.048.096-.096.047-.048.096-.095.048-.048c.048-.048.096-.048.096-.096l.048-.048c.047-.048.095-.048.095-.048l.048-.047c.048 0 .096-.048.144-.048 0 0 .048 0 .048-.048h.047c.24-.718.622-1.483 1.149-2.297a20.995 20.995 0 0 1 2.297-3.015c.574-.622 1.196-1.292 1.914-1.914a32.958 32.958 0 0 1 2.68-2.153c.622-.43 1.196-.814 1.77-1.149.048-.047.096-.047.144-.095.143-.096.287-.192.478-.24.335-.191.67-.334.957-.478l-.143-.192-.048-.047-1.292-1.58v-.957l.765-.239 1.675.766z"/><path fill="#FCE9C8" d="M258.118 107.655s.048-.191-.096-.382v-.048l-.048-.048-.096-.096s-.047 0-.047-.048c-.048-.048-.144-.048-.24-.048h-.287v.096c0 .048.048.096.048.144v.048c-.048.095-.143.287-.383.574l-.143.143c-.67.67-2.106 1.675-5.12 2.202a10.914 10.914 0 0 1-2.776.047c-1.196-.143-2.058-.526-2.488-1.052-.048-.048-.048-.096-.096-.144 0-.048-.048-.048-.048-.096v-.047c-.191-.335-.239-.67-.239-1.005 0-.383.144-.814.335-1.101.191-.239.383-.431.67-.526.143-.048.287-.048.431-.048h.095c.096 0 .24.048.383.048h.048c.574.048 1.483.143 2.536.095 1.962-.143 4.594-.765 6.939-2.871 0-.191 0-.478-.24-.765l-.143-.144c-.048 0-.048-.048-.096-.048s-.048-.048-.096-.048c-.047-.047-.095-.047-.095-.095s-.048-.048-.048-.096c-.622-.909-1.436-1.483-1.818-1.723-.144-.095-.24-.191-.24-.191-.718-.43-.813-.574-.765-1.819.047-.43.047-1.004.143-1.77v-.909c0-.048 0-.144-.048-.192V95.405c0-.048 0-.095-.048-.095V95.166c0-.048 0-.048-.047-.096v-.095c0-.048-.048-.096-.048-.144v-.048c-.048-.048-.048-.096-.096-.143 0-.048-.048-.048-.048-.096l-.048-.048-.095-.096-.096-.095c-.048-.048-.096-.048-.096-.048h-.048c-.047 0-.047-.048-.095-.048h-.718c-.096 0-.144.048-.239.096h-.048c-.048 0-.048.047-.096.047h-.048c-.048 0-.048.048-.095.048h-.048c-.048 0-.048.048-.096.048h-.048c-.048 0-.048.048-.096.048h-.047c-.048 0-.048.048-.096.048s-.048.048-.096.048c-.048.048-.143.096-.191.143-.048.048-.096.096-.144.096h-.048c-.048.048-.095.096-.191.096h-.048c-.048.048-.096.048-.191.095h-.048c-.048.048-.096.048-.192.096h-.047c-.048.048-.144.048-.192.096h-.048c-.048 0-.143.048-.191.048-.048 0-.144.048-.192.048h-.382c-.192 0-.383 0-.622-.048-.048 0-.144 0-.192-.048h-.048c-.191-.048-.335-.096-.526-.096-.096 0-.144-.048-.239-.048-.144-.047-.24-.047-.383-.095h-.383c-.048 0-.096 0-.144-.048h-1.579c-.047 0-.095 0-.143.048h-.048c-.048 0-.096.047-.144.047h-.047a.364.364 0 0 0-.192.096 4.86 4.86 0 0 0-1.292 1.149c-.096.143-.239.335-.335.478-.096.192-.191.335-.239.526 0 .048-.048.096-.048.144-.048.096-.048.191-.096.287v.048c-.047.096-.047.24-.095.335 0 .096-.048.24-.048.335v.909c0 .144.048.24.048.335 0 .048 0 .096.048.144 0 .047 0 .095.047.143.096.287.192.574.335.814.527.957 1.436 1.531 2.106 1.818.239.096.526.192.813.287h-.048c-.047 0-.095.048-.191.048-.096.048-.191.048-.335.096l-.431.143c-.43.192-.909.431-1.339.766l-.144.144c-.096.095-.191.143-.239.239l-.048.048-.048.047-.096.096s0 .048-.048.048c-.047.048-.095.096-.095.144-.048.047-.048.095-.096.143a2.762 2.762 0 0 0-.335 1.579v-.191c0-.048 0-.048.048-.096 0-.048 0-.048.048-.096 0-.047.048-.047.048-.095s.048-.048.048-.096c.047-.048.047-.096.095-.144 0 0 0-.047.048-.047.048-.048.048-.096.096-.096 0-.048.048-.048.095-.096l.048-.048.048-.047.048-.048.096-.096s-.574 1.292-.335 2.297V107.081c0-.048 0-.096.048-.096 0-.047 0-.095.047-.095v-.048c0-.048 0-.048.048-.096 0-.048.048-.095.048-.143v-.048c0-.048.048-.096.096-.096 0 0-.048.335-.048.718v.335c.048-.431.096-.814.191-1.149-.095.335-.191.718-.191 1.149v.813a6 6 0 0 0 .335 1.484s-.191-.574.096-1.197c0 .048.048.096.095.144 0 .191.048.431.096.718.048.478.287 1.866 1.196 2.823 0 0-.335-.478-.287-1.053.048.096.096.144.096.192.144.287.479.861.813 1.244 0 0-.287-.526-.239-.67 0 0 .909 1.148 1.197 1.244l-.383-.622c1.34.957 3.158 1.34 5.455.718a5.98 5.98 0 0 0 1.196-.431 5.7 5.7 0 0 0 .766-.383h.048c.191-.095.335-.191.526-.287.144-.095.239-.143.383-.239.191-.144.431-.287.622-.479l.048-.047c.191-.192.383-.383.574-.527.239-.239.431-.478.622-.765.048-.048.096-.144.144-.192l.047-.048c.048-.095.144-.191.192-.287l.048-.048c.048-.047.048-.095.095-.143 0-.048.048-.096.048-.096 0-.048.048-.096.048-.096a.358.358 0 0 0 .096-.191c0-.048.048-.048.048-.096.048-.048.048-.095.095-.143 0-.048.048-.048.048-.096.048-.048.048-.144.096-.191l.287-.287s0-.048.048-.048c.335-.192.383-.383.383-.575zm-21.389-3.35c-.048 0-.096.048-.144.143 0 .048-.048.048-.048.096-.143.239-.239.526-.239.526 0-.095 0-.191.048-.335v-.047c0-.096.048-.24.048-.335v-.048c0-.144.047-.24.047-.383v-.144c0-.095.048-.191.048-.287 0-.095.048-.143.048-.239v-.479h-.048l-.048.048v.048c0 .048-.047.048-.047.096.143 0 .095.048.095.096v.047c0 .048-.048.048-.048.096s-.047.096-.047.096c-.048.096-.096.191-.096.287 0 .048 0 .048-.048.096 0 .048-.048.095-.048.143V102.821c0-.048 0-.095.048-.143v-.096c0-.048.048-.144.048-.191v-.096c.048-.096.048-.191.096-.287.047-.096.047-.192.095-.239 0-.048.048-.048.048-.096s.048-.096.048-.144c0 0 0-.048.048-.095 0 0 0-.048.048-.048 0-.048.048-.048.048-.096v-.048s-.048 0-.048-.048c-.144-.048-.24-.095-.383-.143-.096 0-.192-.048-.287-.048h-.718c-.048 0-.096 0-.144.048h-.047c-.048 0-.096.048-.192.048 0 0-.048 0-.048.047-.048 0-.048.048-.095.048h-.048c-.048 0-.048.048-.096.048s-.048.048-.096.048c-.047 0-.047.048-.095.048l-.048.048c-.048.048-.096.095-.144.095l-.048.048-.095.096-.048.048s0 .048-.048.048c-.048.095-.144.191-.191.287v.048c0 .048-.048.095-.048.143v.048c0 .048-.048.096-.048.144v.047c0 .048 0 .096-.048.144v.574c0 .096.048.192.048.287 0 .096.048.144.096.24.047.143.143.239.191.382.144.24.383.431.622.623.144.095.287.143.431.239.143.048.287.096.478.096h.527c.095 0 .143-.048.239-.048.048 0 .048 0 .096-.048.095-.048.191-.048.287-.096 0 0 .048 0 .048-.048a3.675 3.675 0 0 1-.096-.718l.096.24z"/><path fill="#fff" d="M257.307 107.129v-.096c-.048-.191-.144-.383-.24-.478-.095-.144-.191-.24-.191-.24 0-.047.048-.095.048-.143 0-.048.048-.144.048-.192a1.948 1.948 0 0 0-.192-1.052c0-.048-.047-.048-.047-.096-.096.048-.144.096-.24.144a11.99 11.99 0 0 1-4.737 1.866c-1.196.191-2.441.191-3.733.048 0 0-.765.095-1.004.861l-.048.479c0 .669.335 1.1.67 1.339a5.1 5.1 0 0 0 1.292.288 9.825 9.825 0 0 0 2.871-.096c1.34-.192 3.254-.909 4.594-1.819.287-.191.574-.43.813-.67.096-.047.096-.095.096-.143z"/><path fill="#EFCFA5" d="M254.72 100.622c-.718-.431-.814-.574-.766-1.819.048-.43.048-1.004.144-1.77v-.909c0-.048 0-.144-.048-.192V95.645a3.085 3.085 0 0 0-.383-.43h-.048l-.048-.048-.047-.048c-.24-.144-.479-.192-.718-.24-.144 0-.287-.047-.431 0h-.191c-.192 0-.383.048-.575.144-.047.048-.143.096-.191.144-.048.048-.096.096-.143.096h-.048c-.048.047-.096.095-.192.095h-.048c-.047.048-.095.048-.191.096h-.048c-.048.048-.096.048-.191.096h-.048c-.048.047-.144.047-.192.095h-.047c-.048 0-.144.048-.192.048-.048 0-.143.048-.191.048h-.383c-.191 0-.383 0-.622-.048-.048 0-.144 0-.192-.048h-.047c-.192-.048-.335-.095-.527-.095-.095 0-.143-.048-.239-.048-.144-.048-.239-.048-.383-.096h-.096c-.095 0-.191 0-.287.048-.287.048-.622.096-.909.191h-.048c-.048 0-.095.048-.143.048-.048.048-.144.048-.192.096a4.83 4.83 0 0 0-1.244.766l-.43.43-.575.718s0 .048-.048.048c-.095.143-.191.287-.239.43-.048.048-.048.096-.095.144-.096.144-.144.335-.192.526v.144c-.048.096-.048.143-.048.24 0 .095-.048.143-.048.239v.047c0 .048 0 .096-.047.144-.048.191-.048.383-.048.574v.144c.095.287.191.574.335.813.526.957 1.435 1.531 2.105 1.819.239.095.527.191.814.287l.095-.096s.048 0 .048-.048c.048-.048.096-.048.096-.096 0 0 .048 0 .048-.047.048-.048.095-.048.095-.096 0 0 .048 0 .048-.048.048-.048.096-.048.144-.096 0 0 .048 0 .048-.048.048-.047.095-.047.143-.095 0 0 .048 0 .048-.048.048-.048.096-.048.144-.096 0 0 .048 0 .048-.048.047-.048.095-.048.143-.095 0 0 .048 0 .048-.048.048-.048.096-.048.143-.096 0 0 .048 0 .048-.048.048 0 .096-.048.144-.048 0 0 .048 0 .048-.048.048 0 .095-.047.143-.047.048 0 .048 0 .096-.048.048 0 .096-.048.144-.048.047 0 .047-.048.095-.048s.096-.048.144-.048c.048 0 .048-.048.096-.048.047 0 .095-.047.143-.047.048 0 .096-.048.096-.048.048 0 .095-.048.143-.048.048 0 .096-.048.144-.048.048 0 .096-.048.143-.048.048 0 .096-.048.144-.048.048 0 .096-.048.144-.048.047 0 .095-.047.143-.047.048 0 .096-.048.144-.048.048 0 .095-.048.143-.048h.096c.239-.527.861-1.914 1.962-2.058.096 0 .239 0 .335-.048h.096c0-.095 0-.143-.048-.239-.048-.574.143-1.053.383-1.1.191 0 .334.287.382.382.096.192.144.383.144.67 0 .24 0 .43-.048.622 0 0 .048.048.048.096.239.335.287.766.287 1.053.096 0 .191 0 .287-.048h.144c.143 0 .239 0 .382-.048.288 0 .575-.048.91-.048-.287.144-.383.096-.383.096zm2.774 8.133c-.478.431-1.005.766-1.483 1.053-.239.143-.479.239-.718.382-.526.24-1.053.383-1.531.527-1.005.239-1.723.239-1.723.239.574.287 1.244.287 1.723.239.335-.048.574-.095.574-.095 0 .191-.048.382-.096.574-.048.191-.095.383-.143.526a5.425 5.425 0 0 1-.287.527s0 .047-.048.047h.048c.191-.095.335-.191.526-.287.144-.095.239-.143.383-.239.191-.143.43-.287.622-.478l.048-.048c.191-.192.383-.383.574-.527.239-.239.431-.478.622-.765.048-.048.096-.144.144-.192l.047-.048c.048-.095.144-.191.192-.287l.048-.048c.048-.047.048-.095.095-.143 0-.048.048-.096.048-.096 0-.048.048-.095.048-.095a.364.364 0 0 0 .096-.192c0-.048.048-.048.048-.096.047-.047.047-.095.095-.143 0-.048.048-.048.048-.096.048-.048.048-.143.096-.191-.048-.144-.048-.096-.096-.048zm-12.058-5.36-.431.144c-.43.191-.909.431-1.34.766l-.143.143c-.096.096-.192.144-.239.239l-.048.048-.048.048-.096.096s0 .048-.048.048c-.047.047-.095.095-.095.143-.048.048-.048.096-.096.144a2.76 2.76 0 0 0-.335 1.579v-.192c0-.047 0-.047.048-.095 0-.048 0-.048.048-.096 0-.048.048-.048.048-.096s.047-.048.047-.095c.048-.048.048-.096.096-.144 0 0 0-.048.048-.048.048-.048.048-.095.096-.095 0-.048.048-.048.095-.096l.048-.048.048-.048.048-.048.096-.095s-.575 1.292-.335 2.296V107.463c0-.048 0-.096.048-.096 0-.048 0-.096.047-.096v-.047c0-.048 0-.048.048-.096 0-.048.048-.096.048-.144v-.048c0-.047.048-.095.096-.095 0 0-.048.335-.048.717v.335c.048-.43.096-.813.191-1.148.048-.096.048-.191.096-.287v-.048c.048-.096.048-.191.096-.239v-.048c.048-.096.095-.191.095-.239v-.048c.096-.192.192-.335.288-.479v-.048c.047-.047.095-.095.095-.143 0 0 0-.048.048-.048 0 0 0-.048.048-.048.048-.048.096-.143.144-.191v-.048c.047-.048.095-.144.143-.191.048-.096.144-.144.191-.24l.144-.143.048-.048c.096-.096.239-.192.335-.287a2.61 2.61 0 0 1 .622-.479c-.048 0-.096.048-.191.048.095-.144 0-.096-.144-.096z"/><path fill="#EFCFA5" d="M253.048 100.573v-.096c-.048-.191-.239-.622-.957-.574-.766.096-1.005.718-1.101.909v.048c.096-.096.287-.096.431.048a.375.375 0 0 1 .191.191c.048.096.096.192.048.288 0 0 0 .047-.048.047 0 0 .048 0 .096.048.191.048.814.192 1.148-.239l.048-.048a.263.263 0 0 1-.143-.239v-.144c.095-.191.191-.287.287-.239zm-3.83 5.646c-.479.095-.957.191-1.292.239h.048c.574.048 1.483.144 2.536.096 1.962-.144 4.594-.766 6.938-2.871 0-.192 0-.479-.239-.766l-.143-.144h-.048c-.048-.047-.096-.047-.144-.095-.048-.048-.096-.048-.096-.096-.143.191-.335.431-.526.574l-.191.192a9.213 9.213 0 0 1-2.393 1.483c-1.483.67-3.158 1.101-4.45 1.388zm-12.489-3.446-.048.096c0 .048-.048.048-.048.096-.096 0-.144.048-.144.096v.047c0 .048-.048.048-.048.096s-.047.096-.047.096c-.048.096-.096.191-.096.287 0 .048 0 .048-.048.096 0 .048-.048.095-.048.143V102.821c0-.048 0-.095.048-.143v-.096c0-.048.048-.144.048-.191v-.096c.048-.096.048-.191.096-.287.047-.096.047-.192.095-.239 0-.048.048-.048.048-.096s.048-.096.048-.144c0 0 0-.048.048-.095 0 0 0-.048.048-.048 0-.048.048-.048.048-.096v-.048s-.048 0-.048-.048c-.144-.048-.24-.095-.383-.143-.096 0-.192-.048-.287-.048h-.718c-.048 0-.096 0-.144.048h-.047c-.048 0-.096.048-.192.048 0 0-.048 0-.048.047-.048 0-.048.048-.095.048h-.048c-.048 0-.048.048-.096.048s-.048.048-.096.048-.047.048-.095.048l-.048.048c-.048.048-.096.095-.144.095l-.048.048-.095.096-.048.048s0 .048-.048.048c-.048.095-.144.191-.191.287v.048c-.048.048-.048.095-.048.143v.096c0 .048.048.096.048.143 0 .048.047.096.047.144.048.144.096.239.144.335 0 0 0 .048.048.048.048.096.096.143.143.191.048.096.096.144.144.192v.095-.047c-.048-.192-.048-.335-.048-.479v-.287c0 .048 0 .096.048.096 0 .047.048.095.048.143.095.239.191.431.287.574.096.192.191.288.239.383 0 0 0 .048.048.048l.048.048c.048 0 .048-.191.048-.335v-.431c.048.144.048.24.095.335.144.383.335.67.431.814 0 .048.048.048.048.095 0 0 0 .048.048.048 0 0 0 .048.048.048V104.353c0-.096-.048-.192-.048-.288v-.669c0 .047.048.095.048.143 0 .048 0 .048.048.096 0 .048.047.095.047.095.048.048.048.144.096.192.048.096.048.143.096.191 0 .048.048.048.048.096a.15.15 0 0 1 .047.096c0 .048.048.048.048.095l.048.048s0 .048.048.048c0 .048.048.048.048.048v-.048c0-.096.048-.239.048-.335v-.048c0-.143.048-.239.048-.383v-.143c0-.096.047-.191.047-.287 0-.096.048-.144.048-.239v-.431c.24.191.24.143.24.143zm15.982 5.504a1.46 1.46 0 0 0 .479-.191 2.26 2.26 0 0 0 .382-.192c0-.048-.143 0-.43.048-.144.048-.287.048-.479.096-.096 0-.191.048-.287.048-.096 0-.239.048-.335.048-.239.047-.526.047-.766.095-.143 0-.287 0-.43.048h-.479c-.622 0-1.34 0-2.057-.143-.383-.048-.862-.24-1.245-.431.192-.766 1.005-.861 1.005-.861h-.047c-.096 0-.192-.048-.288-.048h-.239c-.478-.048-.718.383-.813.526 0 .048-.048.048-.048.096-.048.143-.096.335-.144.526 0 .335.048.766.335 1.053.192.239.479.431.909.574a1.593 1.593 0 0 1-.67-1.34c.383.192.862.287 1.245.335.765.144 1.483.144 2.153.096.144 0 .335-.048.478-.048.144 0 .288-.048.431-.048.287-.048.527-.095.814-.143.143 0 .239-.048.335-.096 0 0 .095 0 .191-.048z"/><path fill="#59473C" d="M252.087 99.472c.383 0 .67.143.862.335.048-.192.048-.383.048-.622 0-.24-.048-.479-.144-.67-.048-.096-.191-.383-.383-.383-.239 0-.43.478-.383 1.1v.24zm.671 1.485c0 .095.048.191.096.239.095.048.191-.048.287-.239v-.048c.047-.144 0-.335-.096-.335-.096-.048-.191.048-.287.239v.144zm-1.77.285c.048.048.095.144.191.192.192.095.383.095.479.048l.048-.048c.047-.096.047-.192-.048-.287-.048-.048-.096-.144-.192-.192-.191-.095-.335-.095-.43-.048l-.048.048c-.096.096-.096.192 0 .287zm6.318 6.077c-.239.24-.527.479-.862.67-1.339.909-3.253 1.627-4.593 1.819-1.005.143-2.01.191-2.871.095-.479-.047-.958-.191-1.292-.287-.431-.143-.718-.335-.91-.574-.287-.335-.382-.718-.335-1.053a.96.96 0 0 1 .144-.526c0-.048 0-.048.048-.096.095-.191.335-.574.813-.526h.24c.095 0 .191.048.287.048h.047c1.292.143 2.584.143 3.733-.048 1.723-.287 3.35-.861 4.737-1.866.096-.048.144-.096.24-.144l.765-1.148c-2.345 2.105-4.976 2.727-6.938 2.871-1.101.048-2.01 0-2.537-.096h-.047c-.192 0-.287-.048-.383-.048h-.096c-.143 0-.287 0-.431.048-.287.096-.478.287-.669.526-.192.288-.335.67-.335 1.101 0 .335.095.67.239 1.005v.048c0 .048.048.048.048.095.048.048.048.096.095.144.431.526 1.292.909 2.489 1.053.813.095 1.722.095 2.775-.048 3.015-.526 4.45-1.531 5.12-2.201l.144-.144c.191-.383.287-.622.335-.718.048 0 .048 0 0 0z"/><path fill="#E1B27E" d="M247.734 96.886c-.095-.047-.191-.095-.287-.095-.048 0-.143-.048-.191-.048h-.096c-.335-.048-.67.048-.67.048-.048 0-.143.048-.191.048-.479.143-.814.382-1.053.67-.191.239-.287.478-.383.717v.048c0 .048-.048.144-.048.192-.047.191-.047.382-.047.574v.335c.095-.192.191-.335.239-.527.239-.382.478-.717.718-.957.478-.478.957-.765 1.339-.861.383-.144.67-.144.67-.144zm5.743-.668c-.048-.096-.144-.144-.192-.192-.191-.143-.43-.191-.765-.095 0 0-.431.095-.67.383 0 0 .717-.288 1.483.239.048.048.144.095.191.191.048.048.144.144.192.24 0 0-.048-.336-.239-.623v-.143z"/><path fill="#59473C" d="M247.83 101.482c.287-.095.575-.143.909-.239.048-.239.048-.574.048-.909-.095-.766-.43-1.34-.765-1.34-.335.048-.527.718-.431 1.484 0 .382.096.765.239 1.004z"/><path fill="#FACE55" d="m246.248 84.208-.718.144.144 1.292-1.914-.958-.766.24 2.297 2.632h.048c.048-.048.143-.096.191-.144.048 0 .048-.048.096-.048.096-.048.191-.143.335-.191l-.957-1.1 1.579.765c.048-.048.096-.048.144-.096l-.144-1.148.718.813c.048-.048.143-.048.191-.096h.096c.048 0 .048-.047.096-.047.095-.048.191-.096.239-.096l-1.675-1.962z"/><path fill="#4D94C3" d="M245.532 84.35h.096a2.399 2.399 0 0 0-.622-.191c-.479-.048-1.101 0-1.771.191a12 12 0 0 0-2.296.91c-1.627.813-3.494 2.057-5.216 3.684A28.856 28.856 0 0 0 234 90.667l2.153 2.632c.575-.623 1.197-1.292 1.867-1.915.909-.813 1.818-1.579 2.775-2.2.909-.623 1.771-1.15 2.632-1.58l-.383-1.675v-.957l.766-.239 1.531.766-.048-.527.239-.622z"/><path fill="#141B26" d="m245.533 84.35-.287.575.048.526.383.192-.144-1.292zm-.527 1.675 1.579.766-.622.335-.957-1.1zm1.58-.429.143 1.148.575-.287-.718-.861z"/><path fill="#fff" d="M252.567 85.165h.287c.287 0 .526.047.765.095h.048c-.048 0-.048-.047-.096-.047-.287-.096-.526-.192-.813-.192-1.436-.191-3.063.335-4.02.718-.047 0-.095.048-.143.048-.096.048-.144.048-.239.095-.144.048-.288.144-.431.192 0 0-.048 0-.048.048-.096.047-.143.095-.239.095-.048 0-.048.048-.096.048h-.096c-.047.048-.095.048-.191.096h-.096l-.287.143c-.048.048-.143.048-.191.096-.048.048-.096.048-.144.096a1.511 1.511 0 0 1-.478.24s-.048 0-.048.047h-.096c-.096.048-.191.144-.335.191-.048 0-.048.048-.096.048-.095.048-.143.096-.191.144h-.048c-.191.143-.383.24-.574.383-.335.239-.622.43-.957.67-.048.047-.096.047-.144.095a31.193 31.193 0 0 0-2.392 2.01 33.744 33.744 0 0 0-2.297 2.25c-.383.382-.718.765-1.005 1.052-.574.574-.861.957-.861.957l.143-.144c-.048.096-.143.144-.191.24a50.853 50.853 0 0 1 3.972-3.876 29.879 29.879 0 0 1 2.727-2.154c.431-.287.814-.574 1.244-.861.144-.096.287-.192.431-.24.048-.047.143-.095.191-.143.048 0 .096-.048.096-.048.096-.048.144-.096.239-.143.096-.048.144-.096.24-.144.047 0 .095-.048.095-.048l.287-.143c.048-.048.096-.048.144-.096.191-.096.335-.191.526-.287h.048c.048 0 .048-.048.096-.048s.096-.048.096-.048h.047c.048 0 .048 0 .096-.048.096-.048.144-.095.239-.095h.048c.048 0 .048 0 .096-.048a1.04 1.04 0 0 0 .239-.144s.048 0 .048-.048h.048c.048 0 .048 0 .096-.047l.287-.144c.095-.048.191-.096.287-.096.478-.191.957-.383 1.388-.526.909-.048 1.627-.191 2.249-.24z"/><rect width="55.116" height="55.116" x="144.867" fill="#fff" rx="12.057"/><path fill="#6772E5" fill-rule="evenodd" d="M170.087 21.505c0-1.28 1.146-1.775 2.998-1.775 3.065.061 6.073.785 8.786 2.112v-7.726a24.926 24.926 0 0 0-8.786-1.5c-7.139 0-11.927 3.475-11.927 9.277 0 9.077 13.415 7.602 13.415 11.515 0 1.53-1.407 2.005-3.388 2.005-2.921 0-6.694-1.123-9.653-2.618v7.827a26.094 26.094 0 0 0 9.654 1.89c7.337 0 12.394-3.369 12.394-9.271 0-9.797-13.493-8.047-13.493-11.734v-.002z" clip-rule="evenodd"/></svg>
