<svg viewBox="0 0 320 534" xmlns="http://www.w3.org/2000/svg" xml:space="preserve" style="fill-rule:evenodd;clip-rule:evenodd;stroke-linecap:round;stroke-linejoin:round"><g transform="matrix(1.29092 0 0 1.71196 .56 .08)"><path style="fill:none" d="M-.434-.047h247.518v311.866H-.434z"/><clipPath id="a"><path d="M-.434-.047h247.518v311.866H-.434z"/></clipPath><g clip-path="url(#a)"><path d="M1174.09 392.634c-48.54-221.491-87.65-272.924-115.96-272.633-31.46.324-61.374 64.625-58.997 117.388 3.427 76.112 74.907 146.893 174.957 155.245Z" style="fill:#008b86;fill-rule:nonzero" transform="matrix(.77464 0 0 .58413 -772.271 4.392)"/><path d="m1151.93 310.243-141.81-127.46M1148.71 294.178 1012.39 172.41M1160.18 342.217l-155.63-138.971M1155.75 324.803l-149.29-132.986" style="fill:none;fill-rule:nonzero;stroke:#224860;stroke-width:3.8px" transform="matrix(.77464 0 0 .58413 -772.271 4.392)"/><path d="m1038.38 242.113 105.18 174.647M1021.76 235.613l105.19 174.591M1124.43 308.369l-48.44 198.035M1111.03 325.32l-48.4 198.001" style="fill:none;fill-rule:nonzero;stroke:#b6d8e2;stroke-width:2.85px;stroke-linecap:butt;stroke-linejoin:miter;stroke-miterlimit:10" transform="matrix(.77464 0 0 .58413 -772.271 4.392)"/><path d="M1162.3 410.435c102.59-155.604 110.45-208.129 94.05-224.633-18.23-18.337-73.26.921-102.96 32.58-42.85 45.668-43.55 128.348 8.91 192.053" style="fill:#ff8780;fill-rule:nonzero" transform="matrix(.77464 0 0 .58413 -772.271 4.392)"/><path d="m1198.12 350.14-6.28-156.607M1205.73 339.031l-6.48-150.107M1184.01 373.33l-7.41-171.34M1191.73 360.737l-7.31-164.176" style="fill:none;fill-rule:nonzero;stroke:#224860;stroke-width:3.12px" transform="matrix(.77464 0 0 .58413 -772.271 4.392)"/><path d="m1110.44 125.241 84.94 144.457M1112.25 142.913l84.95 144.41M1127.15 124.643l84.94 144.457M1128.97 142.313l84.94 144.411" style="fill:none;fill-rule:nonzero;stroke:#b6d8e2;stroke-width:2.34px;stroke-linecap:butt;stroke-linejoin:miter;stroke-miterlimit:10" transform="matrix(.77464 0 0 .58413 -772.271 4.392)"/><path d="M1267.72 2.64c0 .467-.14.924-.4 1.312s-.62.691-1.06.87a2.356 2.356 0 0 1-2.57-.512c-.33-.33-.55-.751-.64-1.209-.1-.458-.05-.932.13-1.364a2.358 2.358 0 0 1 2.18-1.457 2.353 2.353 0 0 1 2.36 2.36M1280.69 2.705c0 .467-.14.924-.4 1.312-.26.389-.62.691-1.06.87a2.358 2.358 0 0 1-2.57-.512c-.33-.33-.55-.75-.64-1.208-.1-.458-.05-.933.13-1.364a2.36 2.36 0 0 1 4.54.902ZM1267.8 19.143c0 .467-.14.924-.4 1.312-.26.389-.62.691-1.06.87a2.356 2.356 0 0 1-2.57-.511c-.33-.33-.55-.751-.64-1.209-.1-.458-.05-.932.13-1.364a2.358 2.358 0 0 1 2.18-1.457 2.353 2.353 0 0 1 2.36 2.359ZM1280.77 19.209c0 .466-.14.923-.4 1.311-.26.388-.62.69-1.06.869a2.356 2.356 0 0 1-2.57-.512c-.33-.33-.55-.75-.64-1.208-.09-.458-.05-.932.13-1.364a2.363 2.363 0 0 1 3.85-.765c.44.443.69 1.043.69 1.669M1267.8 35.615c0 .467-.14.923-.4 1.312-.26.388-.62.691-1.06.869a2.356 2.356 0 0 1-2.57-.511c-.33-.33-.55-.751-.64-1.209-.1-.458-.05-.933.13-1.364a2.36 2.36 0 0 1 4.54.903M1280.77 35.679c0 .467-.14.923-.4 1.311-.26.388-.62.691-1.06.869a2.356 2.356 0 0 1-2.57-.511c-.33-.33-.55-.751-.64-1.208-.09-.458-.05-.933.13-1.364a2.358 2.358 0 0 1 2.18-1.457c.63.001 1.23.249 1.67.692.44.442.69 1.042.69 1.668ZM1267.76 52.069c0 .467-.14.923-.4 1.311-.25.389-.62.691-1.05.87-.44.179-.91.225-1.37.135a2.345 2.345 0 0 1-1.85-1.854c-.09-.458-.05-.933.13-1.364a2.358 2.358 0 0 1 2.18-1.457 2.353 2.353 0 0 1 2.36 2.359M1280.73 52.134c0 .467-.14.924-.4 1.312s-.62.691-1.06.87a2.356 2.356 0 0 1-2.57-.512c-.33-.33-.55-.751-.64-1.209-.1-.458-.05-.932.13-1.364a2.358 2.358 0 0 1 2.18-1.457c.63 0 1.23.249 1.67.692.44.442.69 1.042.69 1.668M1267.84 68.575c0 .467-.14.923-.4 1.311a2.35 2.35 0 0 1-2.42 1.004 2.344 2.344 0 0 1-1.85-1.854c-.09-.457-.05-.932.13-1.363a2.358 2.358 0 0 1 2.18-1.457 2.353 2.353 0 0 1 2.36 2.359M1280.81 68.638c0 .466-.14.923-.4 1.311-.26.389-.62.692-1.06.87a2.356 2.356 0 0 1-2.57-.511c-.33-.33-.55-.75-.64-1.208a2.28 2.28 0 0 1 .13-1.365 2.358 2.358 0 0 1 2.18-1.457 2.353 2.353 0 0 1 2.36 2.36ZM1267.84 85.044c0 .467-.14.923-.4 1.312-.26.388-.62.69-1.06.869a2.356 2.356 0 0 1-2.57-.512c-.33-.33-.55-.75-.64-1.208-.09-.458-.05-.932.13-1.364a2.363 2.363 0 0 1 3.85-.765c.44.442.69 1.043.69 1.668ZM1280.81 85.109c0 .467-.14.923-.4 1.312-.26.388-.62.691-1.06.869a2.356 2.356 0 0 1-2.57-.511c-.33-.33-.55-.751-.64-1.209-.1-.458-.05-.933.13-1.364a2.358 2.358 0 0 1 2.18-1.457 2.353 2.353 0 0 1 2.36 2.36M1294.25 2.36c0 .467-.14.923-.4 1.311-.26.388-.63.69-1.06.869a2.356 2.356 0 0 1-2.57-.512c-.33-.33-.56-.75-.65-1.208-.09-.458-.04-.932.14-1.363.18-.431.48-.8.87-1.059.38-.26.84-.398 1.31-.398.62 0 1.22.249 1.67.691.44.443.69 1.043.69 1.669M1307.22 2.425c0 .467-.14.924-.4 1.312s-.63.691-1.06.87a2.359 2.359 0 0 1-2.57-.512 2.36 2.36 0 0 1-.65-1.209c-.09-.458-.04-.932.14-1.364.17-.431.48-.8.87-1.059.38-.259.84-.398 1.31-.398.62 0 1.22.249 1.67.692.44.442.69 1.042.69 1.668M1294.33 18.86a2.361 2.361 0 0 1-1.46 2.181 2.351 2.351 0 0 1-2.57-.511 2.36 2.36 0 0 1-.65-1.209 2.36 2.36 0 0 1 .14-1.364 2.336 2.336 0 0 1 2.18-1.457c.62 0 1.22.249 1.67.691.44.443.69 1.043.69 1.669M1307.3 18.932a2.359 2.359 0 0 1-1.46 2.181 2.351 2.351 0 0 1-2.57-.511 2.36 2.36 0 0 1-.65-1.209c-.09-.458-.04-.932.14-1.364a2.336 2.336 0 0 1 2.18-1.457c.31 0 .61.061.9.18.29.118.55.292.77.511.21.219.39.48.51.766.12.286.18.593.18.903ZM1294.33 35.335c0 .467-.14.924-.4 1.312s-.63.691-1.06.87a2.356 2.356 0 0 1-2.57-.512 2.36 2.36 0 0 1-.65-1.209c-.09-.457-.04-.932.14-1.364.17-.431.48-.8.86-1.059a2.38 2.38 0 0 1 2.99.294c.44.442.69 1.043.69 1.668M1307.3 35.399a2.361 2.361 0 0 1-1.46 2.181 2.351 2.351 0 0 1-2.57-.511 2.36 2.36 0 0 1-.65-1.209 2.36 2.36 0 0 1 .14-1.364 2.336 2.336 0 0 1 2.18-1.457c.31 0 .61.061.9.18.29.118.55.292.77.511.21.219.39.479.51.766.12.286.18.593.18.903M1294.29 51.789a2.37 2.37 0 0 1-1.46 2.182 2.351 2.351 0 0 1-2.57-.511 2.364 2.364 0 0 1-.65-1.209 2.36 2.36 0 0 1 .14-1.364c.17-.432.48-.8.87-1.06.38-.259.84-.398 1.31-.397.62 0 1.22.248 1.67.691.44.442.69 1.043.69 1.668M1307.25 51.854c0 .467-.14.923-.39 1.311a2.369 2.369 0 0 1-3.64.358c-.33-.33-.55-.751-.64-1.209-.09-.457-.05-.932.13-1.363a2.358 2.358 0 0 1 2.18-1.457 2.353 2.353 0 0 1 2.36 2.36ZM1294.37 68.292c0 .467-.14.923-.4 1.311a2.359 2.359 0 0 1-3.63.358c-.33-.33-.56-.75-.65-1.208-.09-.458-.04-.932.14-1.363.17-.432.48-.8.87-1.06.38-.259.84-.397 1.31-.397.62 0 1.22.248 1.66.691.45.442.7 1.042.7 1.668M1307.34 68.36a2.369 2.369 0 0 1-1.46 2.18c-.43.179-.91.226-1.36.134a2.349 2.349 0 0 1-1.21-.646c-.33-.329-.56-.75-.65-1.208-.09-.457-.04-.932.14-1.363.17-.431.48-.8.87-1.059a2.348 2.348 0 0 1 2.97.293c.45.443.7 1.043.7 1.669M1294.37 84.763a2.369 2.369 0 0 1-2.82 2.315 2.356 2.356 0 0 1-1.21-.646c-.33-.33-.56-.751-.65-1.208a2.36 2.36 0 0 1 .14-1.364c.17-.431.48-.8.87-1.059a2.344 2.344 0 0 1 2.97.294c.45.442.7 1.042.7 1.668M1307.34 84.829a2.36 2.36 0 0 1-1.46 2.18 2.359 2.359 0 0 1-2.57-.512c-.33-.33-.56-.75-.65-1.208-.09-.458-.04-.932.14-1.363.17-.432.48-.8.87-1.06.38-.259.84-.397 1.31-.397.62 0 1.22.248 1.66.691.45.442.7 1.043.7 1.669" style="fill:#224860;fill-rule:nonzero" transform="matrix(.77464 0 0 .58413 -772.271 4.392)"/></g></g></svg>
