<svg viewBox="0 0 345 129" xmlns="http://www.w3.org/2000/svg" xml:space="preserve" fill-rule="evenodd" clip-rule="evenodd" stroke-linejoin="round" stroke-miterlimit="2"><path d="M272.323 12.918c0-6.654-5.403-12.057-12.057-12.057h-31.002c-6.654 0-12.057 5.403-12.057 12.057V43.92c0 6.654 5.403 12.057 12.057 12.057h31.002c6.654 0 12.057-5.403 12.057-12.057V12.918zM127.643 12.918c0-6.654-5.403-12.057-12.057-12.057H84.584c-6.654 0-12.057 5.403-12.057 12.057V43.92c0 6.654 5.403 12.057 12.057 12.057h31.002c6.654 0 12.057-5.403 12.057-12.057V12.918zM55.304 85.258c0-6.654-5.403-12.057-12.057-12.057H12.245C5.591 73.201.188 78.604.188 85.258v31.002c0 6.654 5.403 12.057 12.057 12.057h31.002c6.654 0 12.057-5.403 12.057-12.057V85.258z" fill="#edeff3"/><path d="M332.606 127.887h-31.003a12.057 12.057 0 0 1-12.056-12.056V84.828a12.055 12.055 0 0 1 12.056-12.056h31.003a12.058 12.058 0 0 1 12.057 12.056v31.003a12.058 12.058 0 0 1-12.057 12.056z" fill="#edeff3" fill-rule="nonzero"/><path d="M55.304 12.057C55.304 5.403 49.901 0 43.247 0H12.245C5.591 0 .188 5.403.188 12.057v31.002c0 6.654 5.403 12.057 12.057 12.057h31.002c6.654 0 12.057-5.403 12.057-12.057V12.057zM344.663 12.918c0-6.654-5.403-12.057-12.057-12.057h-31.002c-6.654 0-12.057 5.403-12.057 12.057V43.92c0 6.654 5.403 12.057 12.057 12.057h31.002c6.654 0 12.057-5.403 12.057-12.057V12.918zM127.643 84.397c0-6.654-5.403-12.057-12.057-12.057H84.584c-6.654 0-12.057 5.403-12.057 12.057v31.002c0 6.654 5.403 12.057 12.057 12.057h31.002c6.654 0 12.057-5.403 12.057-12.057V84.397zM272.005 84.397c0-6.654-5.403-12.057-12.057-12.057h-31.002c-6.654 0-12.057 5.403-12.057 12.057v31.002c0 6.654 5.403 12.057 12.057 12.057h31.002c6.654 0 12.057-5.403 12.057-12.057V84.397zM199.983 12.057C199.983 5.403 194.58 0 187.926 0h-31.002c-6.654 0-12.057 5.403-12.057 12.057v31.002c0 6.654 5.403 12.057 12.057 12.057h31.002c6.654 0 12.057-5.403 12.057-12.057V12.057z" fill="#fff"/><path d="m84.264 94.721.891-3.983 10.083-1.978-4.651 22.368h-9.693l.858-3.205h4.517l3.036-14.288-5.04 1.086h-.001z" fill="#aad154"/><path d="M93.55 107.878h.035c1.508 0 3.134-.59 3.441-2.237.066-.354.082-.727-.049-1.069-.32-.834-1.559-1.353-2.323-1.65l-.069-.027.827-3.978c.559.38 1.288.67 1.732.853 1.403.575 2.9 1.417 3.58 2.844.434.914.46 1.918.276 2.899a6.37 6.37 0 0 1-.724 1.99c-1.464 2.577-4.37 3.626-7.207 3.626l-.196-.002.676-3.25.001.001zm3.278-15.762a9.068 9.068 0 0 1 1.266-.088c1.441 0 3.112.344 4.327 1.154l.33.22-1.643 3.095-.406-.29c-.888-.636-2.043-.927-3.123-.927-.503 0-1.01.087-1.47.288l.719-3.452zm18.871 14.407.134 3.287-.26.124c-1.555.739-3.688 1.087-5.39 1.087-2.225 0-4.45-.634-5.961-2.351-1.713-1.947-1.94-4.646-1.482-7.1 1.06-5.677 5.726-9.613 11.523-9.613 1.38 0 3.21.278 4.438.954l.361.2-1.57 3.266-.415-.266c-.93-.594-2.207-.76-3.284-.76-3.71 0-6.305 2.72-6.961 6.236-.314 1.68-.18 3.593 1.128 4.84.882.842 2.081 1.163 3.276 1.163 1.432 0 2.577-.3 3.887-.833l.576-.234z" fill="#4077bc"/><g fill-rule="nonzero"><path d="M253.511 87.373c-1.362-1.552-3.824-2.217-6.97-2.217h-9.139c-.644 0-1.191.468-1.292 1.103l-3.804 24.13a.785.785 0 0 0 .776.906h5.64l1.417-8.986-.044.282a1.304 1.304 0 0 1 1.288-1.104h2.68c5.266 0 9.39-2.139 10.594-8.326a15.5 15.5 0 0 0 .093-.535c-.152-.08-.152-.08 0 0 .359-2.287-.002-3.844-1.24-5.253h.001z" fill="#27346a"/><path d="M242.297 91.802c.15-.072.319-.112.494-.112h7.163c.849 0 1.64.056 2.363.172a9.08 9.08 0 0 1 1.442.345c.356.119.687.257.991.419.359-2.288-.002-3.844-1.24-5.253-1.36-1.552-3.821-2.217-6.969-2.217h-9.139c-.643 0-1.19.468-1.291 1.103l-3.805 24.129a.784.784 0 0 0 .775.907h5.641l2.94-18.638c.06-.382.305-.696.636-.854l-.001-.001z" fill="#27346a"/><path d="M254.657 93.163c-1.205 6.186-5.328 8.326-10.594 8.326h-2.682c-.643 0-1.186.468-1.286 1.104l-1.762 11.172a.687.687 0 0 0 .677.794h4.755c.563 0 1.042-.41 1.13-.966l.046-.242.896-5.68.058-.314a1.145 1.145 0 0 1 1.13-.965h.711c4.607 0 8.213-1.871 9.267-7.284.44-2.261.213-4.15-.951-5.476a4.539 4.539 0 0 0-1.302-1.005 15.19 15.19 0 0 1-.094.536h.001z" fill="#2790c3"/><path d="M253.487 92.124a8.562 8.562 0 0 0-.568-.146 11.563 11.563 0 0 0-.604-.115 14.872 14.872 0 0 0-2.363-.172h-7.162a1.142 1.142 0 0 0-1.13.966l-1.523 9.653-.044.281c.1-.635.644-1.103 1.287-1.103h2.681c5.266 0 9.39-2.14 10.594-8.327.036-.183.066-.36.094-.535a6.641 6.641 0 0 0-1.261-.502h-.001z" fill="#1f264f"/></g><g fill="#007298" fill-rule="nonzero"><path d="M172.363 12.178c2.051 0 4.039.402 5.916 1.192a15.235 15.235 0 0 1 4.829 3.258 15.315 15.315 0 0 1 1.857 2.25 15.121 15.121 0 0 1 2.594 8.495 15.118 15.118 0 0 1-4.451 10.745 15.315 15.315 0 0 1-2.25 1.857 15.121 15.121 0 0 1-8.495 2.594c-2.05 0-4.039-.403-5.915-1.193a15.245 15.245 0 0 1-8.088-8.088 15.264 15.264 0 0 1-1.188-5.92c0-2.05.403-4.039 1.193-5.915a15.245 15.245 0 0 1 8.088-8.087 15.183 15.183 0 0 1 5.91-1.189v.001zm0-.97c-8.926 0-16.16 7.233-16.16 16.16s7.234 16.16 16.16 16.16c8.927 0 16.16-7.233 16.16-16.16.007-8.926-7.232-16.16-16.159-16.16h-.001z"/><path d="M158.9 27.368c0 5.328 3.098 9.94 7.593 12.121l-6.425-17.6a13.35 13.35 0 0 0-1.168 5.479zm22.56-.68c0-1.662-.596-2.816-1.11-3.713-.683-1.11-1.323-2.051-1.323-3.157 0-1.236.94-2.39 2.26-2.39.057 0 .115.005.174.01a13.414 13.414 0 0 0-9.097-3.535c-4.703 0-8.844 2.414-11.253 6.07.315.01.615.015.868.015 1.406 0 3.588-.17 3.588-.17.727-.043.81 1.023.087 1.11 0 0-.732.088-1.542.127l4.907 14.59 2.948-8.84-2.1-5.75a26.586 26.586 0 0 1-1.41-.127c-.728-.043-.64-1.153.087-1.11 0 0 2.225.17 3.549.17 1.406 0 3.588-.17 3.588-.17.727-.043.81 1.023.087 1.11 0 0-.732.088-1.542.127l4.864 14.478 1.391-4.403c.616-1.925.98-3.287.98-4.441l-.001-.001zm-8.858 1.858-4.044 11.742a13.505 13.505 0 0 0 8.277-.213 2.136 2.136 0 0 1-.097-.184l-4.136-11.346v.001zm11.584-7.638c.058.427.092.887.092 1.387 0 1.367-.257 2.904-1.023 4.824l-4.117 11.89a13.457 13.457 0 0 0 6.696-11.642c0-2.342-.596-4.544-1.648-6.459z"/></g><path d="M331.821 19.857v17.224l-4.19 2.456V22.329l-10.461-6.156-10.476 6.156.03 17.216-4.183-2.464V19.872l14.65-8.619 14.63 8.604zm-12.556 19.68-2.088 1.236-2.102-1.22V22.329l-4.183 2.463.007 17.217 6.263 3.691 6.278-3.691V24.785l-4.19-2.464.015 17.216z" fill="#f26322" fill-rule="nonzero"/><g><g fill-rule="nonzero"><path d="M38.404 17.786c0-.164-.164-.274-.274-.274-.11 0-2.466-.055-2.466-.055s-1.973-1.918-2.138-2.083c-.22-.219-.548-.11-.712-.11 0 0-.384.11-.987.33a6.583 6.583 0 0 0-.493-1.151c-.713-1.316-1.7-2.028-2.96-2.028H28.1c-.055-.055-.055-.11-.11-.11-.548-.548-1.205-.877-2.028-.822-1.589.055-3.178 1.206-4.44 3.234-.93 1.425-1.589 3.233-1.808 4.658-1.809.549-3.124.987-3.124.987-.932.274-.932.329-1.096 1.206-.11.548-2.521 19.238-2.521 19.238l20.224 3.508 8.77-2.193s-3.563-24.17-3.563-24.335zm-7.618-1.918c-.494.164-.987.329-1.59.493 0-.822-.11-1.918-.493-2.905 1.206.22 1.809 1.59 2.083 2.412zm-2.631.822c-1.042.329-2.193.712-3.398 1.041.329-1.26.931-2.521 1.699-3.288.274-.33.657-.658 1.15-.823.44.877.549 2.193.549 3.07zm-2.193-4.22c.384 0 .713.054.932.274-.438.219-.822.548-1.26.986-.987 1.096-1.81 2.795-2.083 4.385-.987.274-1.919.603-2.795.877.602-2.576 2.74-6.413 5.206-6.523v.001z" fill="#95bf47"/><path d="M38.13 17.511c-.11 0-2.466-.054-2.466-.054s-1.973-1.919-2.138-2.083c-.11-.11-.22-.11-.329-.165v29.104l8.77-2.192s-3.563-24.226-3.618-24.39c0-.11-.11-.22-.219-.22z" fill="#5e8e3e"/><path d="m28.374 22.006-1.042 3.836s-1.15-.493-2.466-.438c-1.973.11-1.973 1.37-1.973 1.699.11 1.7 4.604 2.083 4.823 6.084.22 3.124-1.644 5.316-4.33 5.48-3.234.22-4.988-1.698-4.988-1.698l.658-2.905s1.809 1.37 3.234 1.26c.932-.054 1.26-.822 1.26-1.37-.164-2.247-3.781-2.083-4-5.755-.22-3.07 1.808-6.193 6.302-6.467 1.645-.165 2.522.274 2.522.274z" fill="#fff"/></g></g></svg>
