<svg width="1380" height="814" fill="none" xmlns="http://www.w3.org/2000/svg"><mask id="a" style="mask-type:alpha" maskUnits="userSpaceOnUse" x="0" y="0" width="1380" height="814"><path d="M1364 0H16C7.163 0 0 7.163 0 16v782c0 8.837 7.163 16 16 16h1348c8.84 0 16-7.163 16-16V16c0-8.837-7.16-16-16-16z" fill="#DBEEFE"/></mask><g mask="url(#a)"><path opacity=".05" d="M313.783 340.719c-39.071 44.551-106.859 48.993-151.41 9.922L91.791 288.74c-5.57-4.884-6.124-13.358-1.24-18.926L298.36 32.858c39.071-44.55 106.86-48.993 151.41-9.922 44.551 39.071 48.993 106.86 9.922 151.41l-145.91 166.373z" fill="#BEC2C9"/><g opacity=".07"><mask id="b" style="mask-type:alpha" maskUnits="userSpaceOnUse" x="418" y="-209" width="215" height="254"><path d="M506.543-203.899c4.884-5.569 13.358-6.124 18.927-1.24l70.505 61.833c44.422 38.959 48.818 106.592 9.859 151.014-38.996 44.465-106.689 48.937-151.154 9.941-44.465-38.996-48.898-106.654-9.902-151.12l61.765-70.428z" fill="#D8DADF"/></mask><g mask="url(#b)"><path d="M389.902-75.287l103.663-131.525c3.375-4.367 7.474-7.965 12.059-10.583 4.586-2.617 9.564-4.202 14.645-4.661 5.08-.46 10.16.216 14.943 1.986 4.782 1.771 9.171 4.601 12.909 8.325l114.59 111.823c3.804 3.643 6.9 8.115 9.109 13.159 2.199 5.054 3.46 10.566 3.719 16.23a48.023 48.023 0 0 1-2.249 16.76c-1.734 5.4-4.402 10.392-7.849 14.686L561.777 92.438c-3.378 4.362-7.479 7.954-12.065 10.568-4.586 2.614-9.564 4.196-14.643 4.655a34.142 34.142 0 0 1-14.941-1.984c-4.782-1.767-9.171-4.593-12.912-8.312L392.632-14.452c-3.812-3.634-6.911-8.106-9.114-13.153-2.204-5.047-3.466-10.567-3.715-16.235a47.94 47.94 0 0 1 2.242-16.76c1.733-5.398 4.402-10.39 7.852-14.68l.005-.007z" fill="#BEC2C9"/></g></g><path opacity=".1" d="M-80.77 431.466c5.568 4.884 14.041 4.329 18.925-1.24L145.966 193.27c39.071-44.55 34.629-112.339-9.921-151.41-44.55-39.07-112.34-34.628-151.41 9.922l-145.91 166.373c-39.071 44.551-34.629 112.339 9.922 151.41l70.582 61.901z" fill="#BEC2C9"/><path opacity=".07" d="M-60.247 459.075c-5.569-4.884-14.042-4.329-18.926 1.24l-61.63 70.274c-39.071 44.55-34.629 112.339 9.921 151.409l236.724 207.608c5.569 4.884 14.043 4.329 18.926-1.24l61.631-70.274c39.071-44.55 34.628-112.339-9.922-151.409L-60.247 459.075z" fill="#BEC2C9"/><g opacity=".1"><path d="M726.212 853.775c5.568 4.883 6.124 13.357 1.24 18.926l-61.9 70.581c-39.071 44.551-106.86 48.993-151.41 9.922l-70.274-61.63c-5.569-4.884-6.124-13.358-1.24-18.927l61.9-70.581c39.071-44.55 106.859-48.993 151.41-9.922l70.274 61.631z" fill="#BEC2C9"/></g><path opacity=".04" d="M253.991 440.189c-5.569-4.884-14.042-4.329-18.926 1.24l-61.63 70.274c-39.071 44.55-34.629 112.339 9.921 151.41l234.915 206.021c5.569 4.884 14.043 4.328 18.926-1.241l61.631-70.273c39.071-44.551 34.629-112.339-9.922-151.41L253.991 440.189z" fill="#BEC2C9"/><g opacity=".07"><ellipse cx="272.72" cy="893.106" rx="107.292" ry="107.141" transform="rotate(131.251 272.72 893.106)" fill="#BEC2C9"/></g><g opacity=".1"><circle cx="85.767" cy="434.808" r="107.292" transform="rotate(131.251 85.767 434.808)" fill="#BEC2C9"/></g><g opacity=".07"><circle cx="211.144" cy="-43.764" r="107.292" transform="rotate(131.251 211.144 -43.764)" fill="#BEC2C9"/></g><g opacity=".07"><mask id="c" style="mask-type:alpha" maskUnits="userSpaceOnUse" x="257" y="274" width="285" height="284"><rect x="550.908" y="406.113" width="214.174" height="214.174" rx="22.435" transform="rotate(131.251 550.908 406.113)" fill="#E4E5E9"/></mask><g mask="url(#c)"><path d="M470.397 335.504c44.465 38.996 48.899 106.655 9.902 151.12-38.996 44.465-106.654 48.899-151.12 9.903l-80.511-70.609 70.609-80.511c38.996-44.465 106.655-48.899 151.12-9.903z" fill="#BEC2C9"/></g></g><path opacity=".1" d="M1376.11 557.304c-39.07 44.551-106.86 48.993-151.41 9.922l-70.58-61.901c-5.57-4.884-6.13-13.358-1.24-18.926l207.81-236.956c39.07-44.551 106.86-48.993 151.41-9.922s48.99 106.86 9.92 151.41l-145.91 166.373z" fill="#BEC2C9"/><path opacity=".05" d="M981.559 648.051c5.569 4.884 14.042 4.329 18.921-1.24l207.82-236.956c39.07-44.55 34.62-112.338-9.93-151.409s-112.33-34.629-151.41 9.921L901.055 434.74c-39.071 44.551-34.629 112.339 9.921 151.41l70.583 61.901z" fill="#BEC2C9"/><path opacity=".07" d="M1002.08 675.66c-5.568-4.884-14.042-4.329-18.926 1.24l-61.63 70.274c-39.071 44.55-34.629 112.339 9.922 151.41l236.724 207.606c5.57 4.89 14.04 4.33 18.93-1.24l61.63-70.27c39.07-44.553 34.63-112.341-9.93-151.412L1002.08 675.66z" fill="#BEC2C9"/><path opacity=".15" d="M1316.32 656.774c-5.57-4.884-14.05-4.329-18.93 1.24l-61.63 70.274c-39.07 44.55-34.63 112.339 9.92 151.409l234.92 206.023c5.57 4.88 14.04 4.33 18.92-1.24l61.63-70.28c39.07-44.546 34.63-112.334-9.92-151.405l-234.91-206.021z" fill="#BEC2C9"/><g opacity=".1"><circle cx="1148.09" cy="651.393" r="107.292" transform="rotate(131.251 1148.09 651.393)" fill="#BEC2C9"/></g><g opacity=".05"><circle cx="1273.47" cy="172.822" r="107.292" transform="rotate(131.251 1273.47 172.822)" fill="#BEC2C9"/></g><g opacity=".05"><ellipse cx="1419.41" cy="6.41" rx="107.24" ry="107.292" transform="rotate(131.251 1419.41 6.41)" fill="#BEC2C9"/></g><g opacity=".07"><mask id="d" style="mask-type:alpha" maskUnits="userSpaceOnUse" x="1320" y="490" width="285" height="285"><rect x="1613.23" y="622.698" width="214.174" height="214.174" rx="22.435" transform="rotate(131.251 1613.23 622.698)" fill="#E4E5E9"/></mask><g mask="url(#d)"><path d="M1532.72 552.089c44.47 38.996 48.9 106.655 9.91 151.12-39 44.465-106.66 48.899-151.12 9.903l-80.52-70.609 70.61-80.511c39-44.465 106.66-48.899 151.12-9.903z" fill="#BEC2C9"/></g></g></g></svg>