<svg xmlns="http://www.w3.org/2000/svg" width="645" height="1805" fill="none" xmlns:v="https://vecta.io/nano"><style><![CDATA[.B{fill:#118af7}.C{opacity:.1}.D{opacity:.07}.E{fill:#d8dadf}]]></style><g clip-path="url(#E)"><g opacity=".65"><g class="B"><path d="M416.444 1432.6c4.089 4.09 4.089 10.72 0 14.8l-103.631 103.64c-4.088 4.08-10.716 4.08-14.805 0l-103.405-103.41c-4.088-4.09-4.088-10.72 0-14.8l51.815-51.82c32.706-32.71 85.732-32.71 118.437 0l51.589 51.59z" class="C"/><path opacity=".05" d="M243.523 887.604c-32.824 32.823-86.041 32.823-118.864 0l-52.003-52.003a10.51 10.51 0 0 1 0-14.858l174.581-174.581c32.823-32.824 86.041-32.824 118.864 0h0c32.823 32.823 32.823 86.04 0 118.863L243.523 887.604zm-372.188-372.188c-32.823 32.823-86.04 32.823-118.864 0l-52.002-52.003a10.51 10.51 0 0 1 0-14.858l174.581-174.581c32.823-32.824 86.04-32.824 118.864 0h0c32.823 32.823 32.823 86.04 0 118.863l-122.579 122.579zm251.223-239.543c32.824-32.823 86.041-32.824 118.864 0l52.003 52.003a10.51 10.51 0 0 1 0 14.858L118.844 517.315c-32.823 32.823-86.041 32.823-118.864 0h0c-32.823-32.823-32.823-86.041 0-118.864l122.578-122.578zm364.96 1.168c32.76 32.76 32.76 85.875 0 118.636l-51.889 51.889a10.51 10.51 0 0 1-14.858 0l-51.89-51.889c-32.76-32.761-32.76-85.876 0-118.636h0c32.761-32.761 85.876-32.761 118.637 0h0z"/><path d="M611.484 519.645c-32.76 32.761-85.876 32.761-118.636 0l-51.889-51.889a10.51 10.51 0 0 1 0-14.858l51.889-51.889c32.76-32.761 85.876-32.761 118.636 0h0c32.761 32.76 32.761 85.876 0 118.636h0zM239.295 147.457c-32.76 32.761-85.875 32.761-118.635 0L68.77 95.568a10.51 10.51 0 0 1 0-14.858l51.89-51.889c32.76-32.76 85.875-32.76 118.635 0h0c32.761 32.761 32.761 85.876 0 118.636h0z" class="C"/><path opacity=".05" d="M369.751 1622.9c-32.761-32.76-32.761-85.88 0-118.64l51.889-51.89c4.103-4.1 10.755-4.1 14.858 0l51.889 51.89c32.761 32.76 32.761 85.88 0 118.64h0c-32.76 32.76-85.876 32.76-118.636 0h0z"/></g><g class="D"><mask id="A" maskUnits="userSpaceOnUse" x="345" y="468" width="169" height="199" mask-type="alpha"><path d="M422.099 471.755a10.51 10.51 0 0 1 14.858 0l51.946 51.946c32.729 32.729 32.701 85.822-.028 118.551h0c-32.761 32.761-85.904 32.789-118.665.029h0c-32.76-32.761-32.76-85.876 0-118.637l51.889-51.889z" class="E"/></mask><g mask="url(#A)" class="B"><path d="M324.669 561.19l87.087-87.087a31.33 31.33 0 0 1 9.914-6.816 30.58 30.58 0 0 1 11.662-2.525c3.992-.062 7.932.672 11.589 2.161s6.958 3.702 9.708 6.509l84.426 84.426c2.806 2.754 5.02 6.055 6.515 9.711 1.486 3.664 2.218 7.6 2.16 11.592-.066 3.992-.926 7.955-2.53 11.659a31.38 31.38 0 0 1-6.812 9.915l-87.087 87.087c-2.841 2.891-6.213 5.205-9.918 6.806a30.61 30.61 0 0 1-11.66 2.52 29.55 29.55 0 0 1-11.588-2.158 28.8 28.8 0 0 1-9.711-6.501l-84.421-84.422c-2.813-2.748-5.03-6.048-6.52-9.707s-2.223-7.601-2.156-11.595.921-7.955 2.524-11.659a31.31 31.31 0 0 1 6.814-9.911l.004-.005z"/></g></g><g class="D"><mask id="B" maskUnits="userSpaceOnUse" x="-27" y="96" width="169" height="199" mask-type="alpha"><path d="M49.911 99.567a10.51 10.51 0 0 1 14.858 0l51.946 51.946c32.729 32.729 32.7 85.822-.029 118.551h0c-32.76 32.761-85.904 32.789-118.664.029h0c-32.761-32.761-32.761-85.876 0-118.637l51.889-51.889z" class="E"/></mask><g mask="url(#B)" class="B"><path d="M-47.519 189.002l87.087-87.087a31.33 31.33 0 0 1 9.914-6.816 30.57 30.57 0 0 1 11.662-2.525 29.5 29.5 0 0 1 11.589 2.161c3.657 1.489 6.957 3.702 9.708 6.509l84.425 84.426c2.807 2.754 5.021 6.055 6.515 9.711 1.486 3.664 2.218 7.6 2.16 11.592-.066 3.992-.926 7.955-2.529 11.659s-3.92 7.075-6.812 9.915l-87.087 87.087c-2.841 2.892-6.213 5.205-9.918 6.806a30.61 30.61 0 0 1-11.66 2.52 29.55 29.55 0 0 1-11.588-2.158 28.8 28.8 0 0 1-9.711-6.501l-84.421-84.422c-2.813-2.748-5.029-6.048-6.519-9.707a29.42 29.42 0 0 1-2.156-11.595c.062-3.992.92-7.955 2.523-11.659s3.92-7.073 6.814-9.911l.004-.005z"/></g></g><g class="D"><mask id="C" maskUnits="userSpaceOnUse" x="-148" y="496" width="169" height="199" mask-type="alpha"><path d="M-56.012 691.721a10.51 10.51 0 0 1-14.858 0l-51.946-51.945c-32.729-32.73-32.701-85.822.028-118.552h0c32.761-32.76 85.904-32.788 118.665-.028h0c32.76 32.76 32.76 85.876 0 118.636l-51.889 51.889z" class="E"/></mask><g mask="url(#C)" class="B"><path d="M41.418 602.286l-87.087 87.087c-2.839 2.896-6.209 5.213-9.914 6.817a30.58 30.58 0 0 1-11.662 2.525c-3.992.062-7.933-.673-11.59-2.162a28.74 28.74 0 0 1-9.708-6.509l-84.426-84.426c-2.806-2.754-5.02-6.054-6.515-9.711-1.486-3.663-2.218-7.6-2.16-11.591.066-3.992.926-7.956 2.53-11.66a31.39 31.39 0 0 1 6.812-9.915l87.087-87.087c2.841-2.891 6.213-5.205 9.918-6.806s7.669-2.457 11.66-2.519 7.931.671 11.588 2.158a28.8 28.8 0 0 1 9.711 6.501l84.422 84.421a28.69 28.69 0 0 1 6.519 9.707c1.49 3.659 2.223 7.602 2.156 11.596a30.57 30.57 0 0 1-2.524 11.659c-1.603 3.703-3.92 7.073-6.814 9.911l-.004.004z"/></g></g><g class="B"><path d="M-69.544 938.33a10.51 10.51 0 0 0 14.858 0l174.581-174.581c32.823-32.824 32.823-86.041 0-118.864h0c-32.823-32.823-86.04-32.823-118.864 0l-122.578 122.578c-32.823 32.823-32.823 86.041 0 118.864l52.003 52.003z" class="C"/><path d="M-54.914 960.963a10.51 10.51 0 0 0-14.858 0l-51.775 51.777c-32.823 32.82-32.823 86.04 0 118.86l174.41 174.41c4.103 4.11 10.755 4.11 14.858 0l51.776-51.77c32.823-32.83 32.823-86.04 0-118.87L-54.914 960.963z" class="D"/></g><g class="C B"><path d="M539.635 1309.78a10.51 10.51 0 0 1 0 14.86l-52.002 52c-32.823 32.82-86.04 32.82-118.863 0l-51.776-51.78a10.5 10.5 0 0 1 0-14.85l52.002-52.01c32.824-32.82 86.041-32.82 118.864 0l51.775 51.78z"/></g><g class="C B"><path d="M53.362 1573.41c4.103-4.1 10.755-4.1 14.858 0l52.002 52c32.823 32.83 32.823 86.05 0 118.87l-51.775 51.77c-4.103 4.11-10.755 4.11-14.858 0l-52.002-52c-32.823-32.82-32.823-86.04 0-118.86l51.775-51.78z"/></g><g class="C B"><path d="M418.048 1678.36a10.5 10.5 0 0 1 0 14.85l-52.003 52.01c-32.823 32.82-86.04 32.82-118.863 0l-51.776-51.78a10.51 10.51 0 0 1 0-14.86l52.002-52c32.824-32.82 86.041-32.82 118.864 0l51.776 51.78z"/></g><g class="B"><path opacity=".04" d="M191.69 962.296a10.51 10.51 0 0 0-14.858 0l-51.776 51.774c-32.823 32.82-32.823 86.04 0 118.87l173.078 173.07c4.103 4.11 10.755 4.11 14.858 0l51.775-51.77c32.824-32.83 32.824-86.04 0-118.87L191.69 962.296zm-367.411 367.414c-4.103-4.11-10.755-4.11-14.858 0l-51.776 51.77c-32.823 32.83-32.823 86.04 0 118.87l173.078 173.07c4.103 4.11 10.755 4.11 14.858 0l51.775-51.77c32.823-32.83 32.823-86.04 0-118.87l-173.077-173.07zm245.824 1.16c-4.103-4.1-10.755-4.1-14.858 0L3.47 1382.65c-32.823 32.82-32.823 86.04 0 118.86l173.078 173.08c4.103 4.1 10.755 4.1 14.858 0l51.775-51.78c32.824-32.82 32.824-86.04 0-118.86L70.103 1330.87z"/></g><g class="D B"><ellipse cx="183.132" cy="1317.3" rx="84.049" ry="83.93" transform="rotate(135 183.132 1317.3)"/></g><g class="C B"><circle cx="60.465" cy="949.473" r="84.049" transform="rotate(135 60.465 949.473)"/></g><g class="C B"><circle cx="-61.122" cy="1318.05" r="84.049" transform="rotate(135 -61.122 1318.05)"/></g><g class="C B"><circle cx="305.616" cy="214.004" r="84.049" transform="rotate(315 305.616 214.004)"/></g><g class="D B"><circle cx="182.986" cy="581.8" r="84.049" transform="rotate(135 182.986 581.8)"/></g><g class="C B"><ellipse cx="305.592" cy="459.194" rx="84.009" ry="84.049" transform="rotate(135 305.592 459.194)"/></g><g class="D"><mask id="D" maskUnits="userSpaceOnUse" x="195" y="839" width="224" height="224" mask-type="alpha"><rect x="425.533" y="950.868" width="167.777" height="167.777" rx="17.575" transform="rotate(135 425.533 950.868)" fill="#e4e5e9"/></mask><g mask="url(#D)" class="B"><path d="M366.215 891.55c32.761 32.761 32.761 85.876 0 118.64h0c-32.76 32.76-85.876 32.76-118.636 0l-59.318-59.322 59.318-59.318c32.76-32.76 85.876-32.76 118.636 0h0z"/></g></g></g></g><defs><clipPath id="E"><path fill="#fff" d="M0 0h645v1805H0z"/></clipPath></defs></svg>