<svg xmlns="http://www.w3.org/2000/svg" width="207" height="54" fill="none" xmlns:v="https://vecta.io/nano"><path d="M0 47V16C0 7.163 7.163 0 16 0h170.172a12 12 0 0 1 10.552 6.285l7.487 13.823a8 8 0 0 1-.07 7.747l-7.376 13.051A12 12 0 0 1 186.318 47H0z" fill="#ffdc63"/><mask id="A" maskUnits="userSpaceOnUse" x="1" y="0" width="205" height="47" mask-type="alpha"><path d="M1.32 47V16c0-8.837 7.163-16 16-16h168.891a12 12 0 0 1 10.561 6.302l7.454 13.817a8 8 0 0 1-.069 7.723l-7.344 13.045A12 12 0 0 1 186.356 47H1.32z" fill="#ffdc63"/></mask><g mask="url(#A)"><path opacity=".51" d="M219.755-3.239l16.453 91.328-223.81 41.622-16.454-91.328L219.755-3.239z" fill="url(#B)"/></g><path d="M1.32 47h13v7l-13-7z" fill="#e4bb2b"/><defs><linearGradient id="B" x1="205.64" y1="20.917" x2="24.138" y2="84.942" gradientUnits="userSpaceOnUse"><stop stop-color="#fff" stop-opacity=".67"/><stop offset="1" stop-color="#fff" stop-opacity="0"/></linearGradient></defs></svg>