<svg xmlns="http://www.w3.org/2000/svg" width="645" height="1805" fill="none" xmlns:v="https://vecta.io/nano"><style><![CDATA[.B{fill:#bec2c9}.C{opacity:.1}.D{opacity:.07}.E{fill:#d8dadf}]]></style><g clip-path="url(#E)"><g opacity=".05" class="B"><path d="M182.127 245.393a10.47 10.47 0 0 1 0-14.805l103.631-103.631a10.47 10.47 0 0 1 14.805 0l103.405 103.406a10.47 10.47 0 0 1 0 14.804l-51.815 51.815c-32.705 32.706-85.731 32.706-118.437 0l-51.589-51.589z"/></g><g class="B"><path opacity=".05" d="M355.049 790.388c32.823-32.823 86.04-32.823 118.863 0l52.003 52.003a10.51 10.51 0 0 1 0 14.858L351.334 1031.83c-32.823 32.82-86.04 32.82-118.864 0h0c-32.823-32.823-32.823-86.04 0-118.864l122.579-122.578zm372.187 372.192c32.823-32.83 86.041-32.83 118.864 0l52.003 52a10.51 10.51 0 0 1 0 14.86l-174.581 174.58c-32.824 32.82-86.041 32.82-118.864 0h0c-32.824-32.82-32.824-86.04 0-118.86l122.578-122.58zm-251.22 239.54c-32.823 32.82-86.041 32.82-118.864 0l-52.003-52.01a10.5 10.5 0 0 1 0-14.85l174.581-174.58c32.824-32.83 86.041-32.83 118.864 0h0c32.824 32.82 32.824 86.04 0 118.86l-122.578 122.58zm-491.248 489.29c-32.76 32.76-85.875 32.76-118.636 0l-51.889-51.89a10.51 10.51 0 0 1 0-14.86l51.889-51.89c32.761-32.76 85.876-32.76 118.636 0h0c32.761 32.76 32.761 85.88 0 118.64h0z"/><path d="M482.225 1653.48c32.76-32.76 85.876-32.76 118.636 0l51.889 51.89a10.51 10.51 0 0 1 0 14.86l-51.889 51.89c-32.76 32.76-85.876 32.76-118.636 0h0c-32.761-32.76-32.761-85.88 0-118.64h0zm-122.947-122.95c32.76-32.76 85.875-32.76 118.636 0l51.889 51.89a10.51 10.51 0 0 1 0 14.86l-51.889 51.89c-32.761 32.76-85.876 32.76-118.636 0h0c-32.761-32.76-32.761-85.88 0-118.64h0zM231.339 1646.8c-32.76 32.76-85.875 32.76-118.635 0l-51.89-51.89a10.51 10.51 0 0 1 0-14.86l51.89-51.89c32.76-32.76 85.875-32.76 118.635 0h0c32.761 32.76 32.761 85.88 0 118.64h0z" class="C"/><path opacity=".05" d="M228.822 55.095c32.76 32.76 32.76 85.875 0 118.635l-51.89 51.89a10.51 10.51 0 0 1-14.858 0l-51.889-51.889c-32.76-32.761-32.76-85.876 0-118.636h0c32.761-32.761 85.876-32.761 118.637 0h0z"/></g><g class="D"><mask id="A" maskUnits="userSpaceOnUse" x="85" y="1011" width="168" height="199" mask-type="alpha"><path d="M176.477 1206.23c-4.103 4.11-10.755 4.11-14.858 0l-51.946-51.94c-32.729-32.73-32.701-85.82.028-118.55 32.761-32.76 85.904-32.79 118.665-.03s32.76 85.87 0 118.64l-51.889 51.88z" class="E"/></mask><g mask="url(#A)" class="B"><path d="M273.906 1116.8l-87.087 87.09a31.33 31.33 0 0 1-9.914 6.81 30.6 30.6 0 0 1-11.661 2.53c-3.993.06-7.933-.68-11.59-2.16-3.657-1.49-6.957-3.71-9.708-6.51l-84.426-84.43c-2.806-2.75-5.021-6.05-6.515-9.71a29.65 29.65 0 0 1-2.16-11.59 30.63 30.63 0 0 1 2.53-11.66 31.34 31.34 0 0 1 6.812-9.92l87.087-87.084c2.841-2.891 6.213-5.204 9.918-6.805a30.59 30.59 0 0 1 11.66-2.52c3.992-.062 7.931.671 11.588 2.158a28.8 28.8 0 0 1 9.711 6.501l84.422 84.42a28.71 28.71 0 0 1 6.519 9.71c1.49 3.66 2.223 7.6 2.156 11.59a30.5 30.5 0 0 1-2.524 11.66 31.15 31.15 0 0 1-6.813 9.91l-.005.01z"/></g></g><g class="D"><mask id="B" maskUnits="userSpaceOnUse" x="580" y="1506" width="169" height="199" mask-type="alpha"><path d="M671.613 1701.37c-4.103 4.1-10.755 4.1-14.858 0l-51.946-51.95c-32.729-32.73-32.701-85.82.028-118.55 32.761-32.76 85.904-32.79 118.665-.03s32.76 85.88 0 118.64l-51.889 51.89z" class="E"/></mask><g mask="url(#B)" class="B"><path d="M769.042 1611.93l-87.087 87.09a31.36 31.36 0 0 1-9.914 6.82c-3.705 1.6-7.669 2.46-11.662 2.52a29.52 29.52 0 0 1-11.589-2.16c-3.657-1.49-6.958-3.7-9.708-6.51l-84.426-84.42a29 29 0 0 1-6.515-9.72 29.65 29.65 0 0 1-2.16-11.59c.066-3.99.926-7.95 2.53-11.66a31.4 31.4 0 0 1 6.812-9.91l87.087-87.09a31.34 31.34 0 0 1 9.918-6.8c3.705-1.61 7.669-2.46 11.66-2.52 3.992-.07 7.931.67 11.588 2.15a28.9 28.9 0 0 1 9.711 6.5l84.421 84.43c2.813 2.74 5.03 6.04 6.52 9.7a29.43 29.43 0 0 1 2.156 11.6 30.62 30.62 0 0 1-2.524 11.66c-1.603 3.7-3.92 7.07-6.814 9.91h-.004z"/></g></g><g class="D"><mask id="C" maskUnits="userSpaceOnUse" x="457" y="1383" width="169" height="199" mask-type="alpha"><path d="M548.666 1578.42c-4.103 4.11-10.755 4.11-14.858 0l-51.946-51.94c-32.729-32.73-32.7-85.82.029-118.55 32.76-32.76 85.904-32.79 118.664-.03s32.761 85.87 0 118.63l-51.889 51.89z" class="E"/></mask><g mask="url(#C)" class="B"><path d="M646.096 1488.99l-87.087 87.08c-2.839 2.9-6.209 5.22-9.914 6.82s-7.67 2.46-11.662 2.53c-3.992.06-7.933-.68-11.59-2.17-3.656-1.48-6.957-3.7-9.707-6.5l-84.426-84.43c-2.806-2.75-5.021-6.06-6.515-9.71-1.486-3.67-2.218-7.6-2.16-11.59.066-4 .926-7.96 2.53-11.66a31.33 31.33 0 0 1 6.811-9.92l87.087-87.08a31.23 31.23 0 0 1 9.918-6.81c3.705-1.6 7.669-2.46 11.661-2.52s7.931.67 11.588 2.16c3.656 1.48 6.958 3.69 9.711 6.5l84.421 84.42c2.813 2.75 5.03 6.05 6.519 9.71s2.223 7.6 2.156 11.59a30.56 30.56 0 0 1-2.523 11.66 31.28 31.28 0 0 1-6.814 9.91l-.004.01z"/></g></g><g class="D"><mask id="D" maskUnits="userSpaceOnUse" x="578" y="983" width="168" height="199" mask-type="alpha"><path d="M654.586 986.271a10.51 10.51 0 0 1 14.858 0l51.946 51.949c32.729 32.73 32.7 85.82-.029 118.55-32.76 32.76-85.904 32.79-118.664.03s-32.761-85.88-.001-118.64l51.89-51.889z" class="E"/></mask><g mask="url(#D)" class="B"><path d="M557.156 1075.71l87.087-87.09c2.839-2.895 6.209-5.213 9.914-6.817s7.67-2.462 11.662-2.524 7.933.672 11.589 2.161 6.958 3.701 9.708 6.509l84.426 84.421c2.806 2.76 5.021 6.06 6.515 9.72a29.65 29.65 0 0 1 2.16 11.59c-.066 3.99-.926 7.95-2.53 11.66a31.4 31.4 0 0 1-6.811 9.91l-87.088 87.09c-2.841 2.89-6.213 5.2-9.917 6.8-3.705 1.61-7.669 2.46-11.661 2.52a29.51 29.51 0 0 1-11.588-2.15 28.91 28.91 0 0 1-9.711-6.5l-84.421-84.43c-2.813-2.74-5.03-6.04-6.519-9.7a29.43 29.43 0 0 1-2.156-11.6 30.6 30.6 0 0 1 2.523-11.66c1.603-3.7 3.92-7.07 6.814-9.91h.004z"/></g></g><g class="B"><path d="M668.116 739.663a10.51 10.51 0 0 0-14.858 0L478.676 914.244c-32.823 32.824-32.823 86.036 0 118.866h0c32.824 32.82 86.041 32.82 118.864 0l122.578-122.58c32.824-32.823 32.824-86.04 0-118.864l-52.002-52.003z" class="C"/><path d="M653.485 717.03a10.51 10.51 0 0 0 14.858 0l51.775-51.775c32.824-32.824 32.824-86.041 0-118.864L545.708 371.98a10.51 10.51 0 0 0-14.858 0l-51.775 51.776c-32.824 32.823-32.824 86.04-.001 118.863L653.485 717.03z" class="D"/><g class="C"><path d="M58.936 368.212a10.51 10.51 0 0 1 0-14.858l52.002-52.002c32.823-32.823 86.04-32.823 118.864 0l51.775 51.775a10.51 10.51 0 0 1 0 14.858l-52.002 52.003c-32.823 32.823-86.04 32.823-118.864 0l-51.775-51.776z"/></g><path opacity=".04" d="M406.882 715.696a10.51 10.51 0 0 0 14.858 0l51.775-51.775c32.823-32.824 32.823-86.041 0-118.864L300.437 371.979a10.51 10.51 0 0 0-14.858 0l-51.775 51.776c-32.823 32.823-32.823 86.04 0 118.863l173.078 173.078zm367.411-367.411a10.51 10.51 0 0 0 14.858 0l51.775-51.775c32.823-32.823 32.823-86.04 0-118.864L667.848 4.569a10.51 10.51 0 0 0-14.858 0l-51.775 51.775c-32.823 32.823-32.823 86.04 0 118.864l173.078 173.077zm-245.825-1.164a10.51 10.51 0 0 0 14.858 0l51.776-51.776c32.823-32.823 32.823-86.04 0-118.863L422.024 3.404a10.51 10.51 0 0 0-14.858 0l-51.775 51.775c-32.823 32.823-32.823 86.041 0 118.864l173.077 173.078z"/><g class="D"><ellipse cx="415.439" cy="360.697" rx="84.049" ry="83.93" transform="rotate(315 415.439 360.697)"/></g><g class="C"><circle cx="538.106" cy="728.52" r="84.049" transform="rotate(315 538.106 728.52)"/></g><g class="C"><circle cx="297.659" cy="1713.34" r="84.049" transform="rotate(315 297.659 1713.34)"/></g><g class="C"><circle cx="659.693" cy="359.945" r="84.049" transform="rotate(315 659.693 359.945)"/></g><g class="C"><circle cx="292.958" cy="1463.99" r="84.049" transform="rotate(135 292.958 1463.99)"/></g><g class="D"><circle cx="415.588" cy="1096.19" r="84.049" transform="rotate(315 415.588 1096.19)"/></g><g class="C"><ellipse cx="292.981" cy="1218.8" rx="84.009" ry="84.049" transform="rotate(315 292.981 1218.8)"/></g></g></g><defs><clipPath id="E"><path fill="#fff" d="M0 0h645v1805H0z"/></clipPath></defs></svg>