<svg width="740" height="342" xmlns="http://www.w3.org/2000/svg" xmlns:xlink="http://www.w3.org/1999/xlink"><defs><linearGradient x1="0%" y1="41.225%" y2="60.118%" id="a"><stop stop-color="#118AF7" offset="0%"/><stop stop-color="#118AF7" offset=".01%"/><stop stop-color="#03BE9C" stop-opacity=".79" offset="52.083%"/><stop stop-color="#3FC57F" stop-opacity=".84" offset="98.438%"/></linearGradient><path d="M40.798 2.11a6.194 6.194 0 0 1 8.741-.573L82.1 30.093c20.516 17.992 22.546 49.226 4.554 69.741-18.009 20.535-49.27 22.6-69.806 4.591-20.535-18.009-22.583-49.255-4.573-69.79L40.798 2.11z" id="b"/><circle id="d" cx="69.924" cy="69.924" r="49.55"/><circle id="e" cx="69.924" cy="69.924" r="49.55"/><ellipse id="f" cx="69.908" cy="69.906" rx="49.526" ry="49.55"/><rect id="g" x="20.335" y="20.335" width="98.91" height="98.91" rx="10.361"/><path d="M40.798 2.11a6.194 6.194 0 0 1 8.741-.573L82.1 30.093c20.515 17.992 22.545 49.226 4.553 69.741-18.009 20.535-49.271 22.6-69.806 4.591-20.535-18.009-22.582-49.255-4.573-69.79L40.798 2.11z" id="i"/><circle id="k" cx="69.924" cy="69.924" r="49.55"/><ellipse id="l" cx="69.908" cy="69.906" rx="49.526" ry="49.55"/></defs><g transform="translate(-1)" fill="none" fill-rule="evenodd"><rect fill="url(#a)" fill-rule="nonzero" width="740" height="342" rx="20"/><rect x=".5" y=".5" width="739" height="341" rx="19.5"/><g opacity=".2"><g transform="translate(-177.21 -114.665)"><path d="M231.688 380.857c-18.044 20.574-49.35 22.626-69.925 4.582l-32.596-28.587a6.194 6.194 0 0 1-.573-8.741l95.972-109.431c18.043-20.574 49.35-22.626 69.924-4.582 20.574 18.044 22.625 49.35 4.582 69.924l-67.384 76.835z" fill="#D8DADF" fill-rule="nonzero"/><path d="M351.687 12.274c20.534 18.01 22.582 49.255 4.573 69.79l-28.525 32.525a6.194 6.194 0 0 1-8.74.573l-32.526-28.525c-20.535-18.009-22.582-49.255-4.573-69.79 18.01-20.534 49.256-22.582 69.791-4.573z" fill="#B0B4BB" fill-rule="nonzero"/><path d="M433.964 150.213c-18.009 20.535-49.255 22.582-69.79 4.573l-32.525-28.525a6.193 6.193 0 0 1-.573-8.74l28.525-32.526c18.01-20.534 49.255-22.582 69.79-4.573 20.535 18.01 22.582 49.256 4.573 69.79z" fill="#EDEFF3" fill-rule="nonzero"/><g transform="translate(279.91 127.23)"><mask id="c" fill="#fff"><use xlink:href="#b"/></mask><path d="M-13.07 58.478L34.804 3.89a18.46 18.46 0 0 1 5.57-4.392 18.02 18.02 0 0 1 6.762-1.935 17.39 17.39 0 0 1 6.901.825A16.949 16.949 0 0 1 60 1.843l52.92 46.41a17.052 17.052 0 0 1 4.206 5.462 17.483 17.483 0 0 1 1.718 6.736 18.054 18.054 0 0 1-1.039 6.956 18.494 18.494 0 0 1-3.625 6.095L66.306 128.09a18.51 18.51 0 0 1-5.573 4.386 18.025 18.025 0 0 1-6.762 1.932c-2.346.19-4.69-.09-6.9-.823a16.986 16.986 0 0 1-5.963-3.45l-52.917-46.408a16.91 16.91 0 0 1-4.21-5.46 17.347 17.347 0 0 1-1.714-6.738 18.018 18.018 0 0 1 1.035-6.955c.8-2.241 2.033-4.312 3.626-6.094l.002-.002z" fill="#E4E5E9" fill-rule="nonzero" mask="url(#c)"/></g><path d="M58.954 435.516a6.195 6.195 0 0 0-8.74.573L21.75 468.543c-18.044 20.574-15.992 51.88 4.582 69.924l109.324 95.877a6.194 6.194 0 0 0 8.74-.572l28.463-32.454c18.044-20.575 15.992-51.881-4.582-69.924L58.954 435.516z" fill="#D8DADF" fill-rule="nonzero"/><path d="M204.075 426.794a6.194 6.194 0 0 0-8.74.573l-28.463 32.454c-18.043 20.574-15.992 51.88 4.582 69.924l108.49 95.144a6.193 6.193 0 0 0 8.74-.572l28.461-32.454c18.044-20.574 15.993-51.881-4.582-69.924l-108.488-95.145z" fill="#E4E5E9" fill-rule="nonzero"/><circle fill="#CED0D4" fill-rule="nonzero" transform="rotate(131.251 126.386 424.309)" cx="126.386" cy="424.309" r="49.55"/><circle fill="#EDEFF3" fill-rule="nonzero" transform="rotate(131.251 184.288 203.295)" cx="184.288" cy="203.295" r="49.55"/><ellipse fill="#CED0D4" fill-rule="nonzero" transform="rotate(131.251 251.687 126.443)" cx="251.687" cy="126.443" rx="49.526" ry="49.55"/><g transform="translate(201.617 345.84)"><mask id="h" fill="#fff"><use xlink:href="#g" transform="rotate(131.251 69.79 69.79)"/></mask><path d="M102.4 32.608c20.535 18.01 22.582 49.256 4.573 69.791-18.01 20.535-49.256 22.582-69.79 4.573L0 74.363l32.609-37.18c18.01-20.536 49.256-22.584 69.79-4.575z" fill="#B0B4BB" fill-rule="nonzero" mask="url(#h)"/></g></g><g transform="translate(184.791 45.335)"><path d="M231.687 380.857c-18.043 20.574-49.35 22.626-69.924 4.582l-32.596-28.587a6.195 6.195 0 0 1-.573-8.741l95.97-109.431c18.045-20.574 49.35-22.626 69.926-4.582 20.574 18.044 22.625 49.35 4.582 69.924l-67.385 76.835z" fill="#D8DADF" fill-rule="nonzero"/><path d="M351.686 12.274c20.535 18.01 22.583 49.256 4.574 69.79l-28.525 32.526a6.195 6.195 0 0 1-8.741.573l-32.525-28.525c-20.535-18.01-22.582-49.256-4.573-69.79 18.009-20.536 49.255-22.583 69.79-4.574z" fill="#B0B4BB" fill-rule="nonzero"/><path d="M433.964 150.213c-18.01 20.535-49.255 22.583-69.79 4.573l-32.526-28.524a6.195 6.195 0 0 1-.572-8.741L359.6 84.996c18.01-20.535 49.256-22.583 69.79-4.573 20.536 18.009 22.583 49.255 4.574 69.79z" fill="#EDEFF3" fill-rule="nonzero"/><g transform="translate(279.91 127.23)"><mask id="j" fill="#fff"><use xlink:href="#i"/></mask><path d="M-13.071 58.477L34.803 3.89a18.5 18.5 0 0 1 5.569-4.392 18.02 18.02 0 0 1 6.763-1.934 17.385 17.385 0 0 1 6.902.824 16.966 16.966 0 0 1 5.961 3.455l52.92 46.411a17.056 17.056 0 0 1 4.207 5.461 17.504 17.504 0 0 1 1.718 6.736 18.076 18.076 0 0 1-1.039 6.957 18.502 18.502 0 0 1-3.625 6.095L66.305 128.09a18.494 18.494 0 0 1-5.572 4.386 18.054 18.054 0 0 1-6.762 1.932 17.43 17.43 0 0 1-6.9-.823 16.99 16.99 0 0 1-5.964-3.45L-11.81 83.726a16.906 16.906 0 0 1-4.209-5.459 17.328 17.328 0 0 1-1.715-6.738 18.014 18.014 0 0 1 1.035-6.956c.8-2.24 2.033-4.312 3.626-6.093l.002-.003z" fill="#E4E5E9" fill-rule="nonzero" mask="url(#j)"/></g><path d="M49.476 422.766a6.195 6.195 0 0 0 8.74-.573l95.972-109.431c18.044-20.574 15.992-51.88-4.582-69.924-20.574-18.044-51.88-15.992-69.924 4.582l-67.384 76.834c-18.044 20.575-15.993 51.88 4.582 69.924l32.596 28.588z" fill="#E4E5E9" fill-rule="nonzero"/><circle fill="#EDEFF3" fill-rule="nonzero" transform="rotate(131.251 184.287 203.295)" cx="184.287" cy="203.295" r="49.55"/><ellipse fill="#CED0D4" fill-rule="nonzero" transform="rotate(131.251 251.687 126.443)" cx="251.687" cy="126.443" rx="49.526" ry="49.55"/></g></g></g></svg>