<svg width="135" height="123" viewBox="0 0 135 123" fill="none" xmlns="http://www.w3.org/2000/svg">
<rect x="1.14844" y="24.2919" width="70.6742" height="3.82022" rx="1.91011" fill="#CED0D4"/>
<rect x="116.711" y="5.19092" width="11.4607" height="3.82022" rx="1.91011" fill="#CED0D4"/>
<rect x="131.039" y="5.19092" width="3.82022" height="3.82022" rx="1.91011" fill="#CED0D4"/>
<rect x="102.383" y="5.19092" width="11.4607" height="3.82022" rx="1.91011" fill="#CED0D4"/>
<rect x="123.398" y="116.933" width="11.4607" height="3.82022" rx="1.91011" fill="#CED0D4"/>
<rect x="90.9219" y="116.933" width="11.4607" height="3.82022" rx="1.91011" fill="#CED0D4"/>
<rect x="84.2422" y="5.19092" width="15.2809" height="3.82022" rx="1.91011" fill="#CED0D4"/>
<rect x="105.25" y="116.933" width="15.2809" height="3.82022" rx="1.91011" fill="#CED0D4"/>
<rect x="72.7812" y="116.933" width="15.2809" height="3.82022" rx="1.91011" fill="#CED0D4"/>
<rect x="1.14844" y="80.6401" width="96.4607" height="3.82022" rx="1.91011" fill="#CED0D4"/>
<rect x="1.14844" y="33.8425" width="47.7528" height="3.82022" rx="1.91011" fill="#CED0D4"/>
<rect x="1.14844" y="43.3931" width="37.2472" height="3.82022" rx="1.91011" fill="#CED0D4"/>
<g clip-path="url(#clip0_3_3584)">
<path d="M28.0593 56.7875C27.9175 56.2209 27.6287 55.7018 27.222 55.2826C26.8154 54.8633 26.3053 54.5588 25.7433 54.3998C23.6899 53.8984 15.4765 53.8984 15.4765 53.8984C15.4765 53.8984 7.26297 53.8984 5.2096 54.4476C4.64761 54.6066 4.13752 54.9111 3.73087 55.3303C3.32422 55.7495 3.0354 56.2687 2.89359 56.8352C2.51779 58.9191 2.33397 61.0331 2.34443 63.1505C2.33104 65.284 2.51487 67.414 2.89359 69.5136C3.04993 70.0626 3.34522 70.562 3.75092 70.9635C4.15663 71.365 4.65904 71.6551 5.2096 71.8057C7.26297 72.3549 15.4765 72.3549 15.4765 72.3549C15.4765 72.3549 23.6899 72.3549 25.7433 71.8057C26.3053 71.6467 26.8154 71.3423 27.222 70.923C27.6287 70.5038 27.9175 69.9847 28.0593 69.4181C28.4322 67.3499 28.616 65.2521 28.6085 63.1505C28.6219 61.0171 28.438 58.8871 28.0593 56.7875V56.7875Z" stroke="#CED0D4" stroke-width="2" stroke-linecap="round" stroke-linejoin="round"/>
<path d="M12.7891 67.0542L19.6535 63.1504L12.7891 59.2466V67.0542Z" stroke="#CED0D4" stroke-width="2" stroke-linecap="round" stroke-linejoin="round"/>
</g>
<rect x="1.14844" y="90.1909" width="64.9438" height="3.82022" rx="1.91011" fill="#CED0D4"/>
<rect x="1.14844" y="99.7414" width="43.9326" height="3.82022" rx="1.91011" fill="#CED0D4"/>
<path d="M105.96 25.0083H89.247C87.9284 25.0083 86.8594 26.0773 86.8594 27.3959V44.1094C86.8594 45.4281 87.9284 46.4971 89.247 46.4971H105.96C107.279 46.4971 108.348 45.4281 108.348 44.1094V27.3959C108.348 26.0773 107.279 25.0083 105.96 25.0083Z" stroke="#CED0D4" stroke-width="2" stroke-linecap="round" stroke-linejoin="round"/>
<path d="M93.4314 33.3652C94.4203 33.3652 95.2221 32.5634 95.2221 31.5744C95.2221 30.5854 94.4203 29.7837 93.4314 29.7837C92.4424 29.7837 91.6406 30.5854 91.6406 31.5744C91.6406 32.5634 92.4424 33.3652 93.4314 33.3652Z" stroke="#CED0D4" stroke-width="2" stroke-linecap="round" stroke-linejoin="round"/>
<path d="M108.351 39.3338L102.382 33.3647L89.25 46.4968" stroke="#CED0D4" stroke-width="2" stroke-linecap="round" stroke-linejoin="round"/>
<path d="M2.67789 8.30553H4.97789V9.41553H1.27789V2.43553H2.67789V8.30553ZM8.32773 9.50553C7.7944 9.50553 7.3144 9.38886 6.88773 9.15553C6.46107 8.91553 6.1244 8.57886 5.87773 8.14553C5.63773 7.71219 5.51773 7.21219 5.51773 6.64553C5.51773 6.07886 5.64107 5.57886 5.88773 5.14553C6.14107 4.71219 6.4844 4.37886 6.91773 4.14553C7.35107 3.90553 7.8344 3.78553 8.36773 3.78553C8.90107 3.78553 9.3844 3.90553 9.81773 4.14553C10.2511 4.37886 10.5911 4.71219 10.8377 5.14553C11.0911 5.57886 11.2177 6.07886 11.2177 6.64553C11.2177 7.21219 11.0877 7.71219 10.8277 8.14553C10.5744 8.57886 10.2277 8.91553 9.78773 9.15553C9.3544 9.38886 8.86773 9.50553 8.32773 9.50553ZM8.32773 8.28553C8.58107 8.28553 8.81773 8.22553 9.03773 8.10553C9.2644 7.97886 9.4444 7.79219 9.57773 7.54553C9.71107 7.29886 9.77773 6.99886 9.77773 6.64553C9.77773 6.11886 9.63773 5.71553 9.35773 5.43553C9.0844 5.14886 8.74773 5.00553 8.34773 5.00553C7.94773 5.00553 7.61107 5.14886 7.33773 5.43553C7.07107 5.71553 6.93773 6.11886 6.93773 6.64553C6.93773 7.17219 7.06773 7.57886 7.32773 7.86553C7.5944 8.14553 7.92773 8.28553 8.32773 8.28553ZM14.4147 3.78553C14.828 3.78553 15.1914 3.86886 15.5047 4.03553C15.818 4.19553 16.0647 4.40553 16.2447 4.66553V3.87553H17.6547V9.45553C17.6547 9.96886 17.5514 10.4255 17.3447 10.8255C17.138 11.2322 16.828 11.5522 16.4147 11.7855C16.0014 12.0255 15.5014 12.1455 14.9147 12.1455C14.128 12.1455 13.4814 11.9622 12.9747 11.5955C12.4747 11.2289 12.1914 10.7289 12.1247 10.0955H13.5147C13.588 10.3489 13.7447 10.5489 13.9847 10.6955C14.2314 10.8489 14.528 10.9255 14.8747 10.9255C15.2814 10.9255 15.6114 10.8022 15.8647 10.5555C16.118 10.3155 16.2447 9.94886 16.2447 9.45553V8.59553C16.0647 8.85553 15.8147 9.07219 15.4947 9.24553C15.1814 9.41886 14.8214 9.50553 14.4147 9.50553C13.948 9.50553 13.5214 9.38553 13.1347 9.14553C12.748 8.90553 12.4414 8.56886 12.2147 8.13553C11.9947 7.69553 11.8847 7.19219 11.8847 6.62553C11.8847 6.06553 11.9947 5.56886 12.2147 5.13553C12.4414 4.70219 12.7447 4.36886 13.1247 4.13553C13.5114 3.90219 13.9414 3.78553 14.4147 3.78553ZM16.2447 6.64553C16.2447 6.30553 16.178 6.01553 16.0447 5.77553C15.9114 5.52886 15.7314 5.34219 15.5047 5.21553C15.278 5.08219 15.0347 5.01553 14.7747 5.01553C14.5147 5.01553 14.2747 5.07886 14.0547 5.20553C13.8347 5.33219 13.6547 5.51886 13.5147 5.76553C13.3814 6.00553 13.3147 6.29219 13.3147 6.62553C13.3147 6.95886 13.3814 7.25219 13.5147 7.50553C13.6547 7.75219 13.8347 7.94219 14.0547 8.07553C14.2814 8.20886 14.5214 8.27553 14.7747 8.27553C15.0347 8.27553 15.278 8.21219 15.5047 8.08553C15.7314 7.95219 15.9114 7.76553 16.0447 7.52553C16.178 7.27886 16.2447 6.98553 16.2447 6.64553ZM21.482 9.50553C20.9487 9.50553 20.4687 9.38886 20.042 9.15553C19.6154 8.91553 19.2787 8.57886 19.032 8.14553C18.792 7.71219 18.672 7.21219 18.672 6.64553C18.672 6.07886 18.7954 5.57886 19.042 5.14553C19.2954 4.71219 19.6387 4.37886 20.072 4.14553C20.5054 3.90553 20.9887 3.78553 21.522 3.78553C22.0554 3.78553 22.5387 3.90553 22.972 4.14553C23.4054 4.37886 23.7454 4.71219 23.992 5.14553C24.2454 5.57886 24.372 6.07886 24.372 6.64553C24.372 7.21219 24.242 7.71219 23.982 8.14553C23.7287 8.57886 23.382 8.91553 22.942 9.15553C22.5087 9.38886 22.022 9.50553 21.482 9.50553ZM21.482 8.28553C21.7354 8.28553 21.972 8.22553 22.192 8.10553C22.4187 7.97886 22.5987 7.79219 22.732 7.54553C22.8654 7.29886 22.932 6.99886 22.932 6.64553C22.932 6.11886 22.792 5.71553 22.512 5.43553C22.2387 5.14886 21.902 5.00553 21.502 5.00553C21.102 5.00553 20.7654 5.14886 20.492 5.43553C20.2254 5.71553 20.092 6.11886 20.092 6.64553C20.092 7.17219 20.222 7.57886 20.482 7.86553C20.7487 8.14553 21.082 8.28553 21.482 8.28553Z" fill="#CED0D4"/>
<path d="M5.57422 114.177V115.307H2.66422V117.097H4.89422V118.207H2.66422V121.157H1.26422V114.177H5.57422ZM9.02695 121.247C8.49362 121.247 8.01362 121.131 7.58695 120.897C7.16029 120.657 6.82362 120.321 6.57695 119.887C6.33695 119.454 6.21695 118.954 6.21695 118.387C6.21695 117.821 6.34029 117.321 6.58695 116.887C6.84029 116.454 7.18362 116.121 7.61695 115.887C8.05029 115.647 8.53362 115.527 9.06695 115.527C9.60029 115.527 10.0836 115.647 10.517 115.887C10.9503 116.121 11.2903 116.454 11.537 116.887C11.7903 117.321 11.917 117.821 11.917 118.387C11.917 118.954 11.787 119.454 11.527 119.887C11.2736 120.321 10.927 120.657 10.487 120.897C10.0536 121.131 9.56695 121.247 9.02695 121.247ZM9.02695 120.027C9.28029 120.027 9.51695 119.967 9.73695 119.847C9.96362 119.721 10.1436 119.534 10.277 119.287C10.4103 119.041 10.477 118.741 10.477 118.387C10.477 117.861 10.337 117.457 10.057 117.177C9.78362 116.891 9.44695 116.747 9.04695 116.747C8.64695 116.747 8.31029 116.891 8.03695 117.177C7.77029 117.457 7.63695 117.861 7.63695 118.387C7.63695 118.914 7.76695 119.321 8.02695 119.607C8.29362 119.887 8.62695 120.027 9.02695 120.027ZM15.4039 121.247C14.8706 121.247 14.3906 121.131 13.9639 120.897C13.5372 120.657 13.2006 120.321 12.9539 119.887C12.7139 119.454 12.5939 118.954 12.5939 118.387C12.5939 117.821 12.7172 117.321 12.9639 116.887C13.2172 116.454 13.5606 116.121 13.9939 115.887C14.4272 115.647 14.9106 115.527 15.4439 115.527C15.9772 115.527 16.4606 115.647 16.8939 115.887C17.3272 116.121 17.6672 116.454 17.9139 116.887C18.1672 117.321 18.2939 117.821 18.2939 118.387C18.2939 118.954 18.1639 119.454 17.9039 119.887C17.6506 120.321 17.3039 120.657 16.8639 120.897C16.4306 121.131 15.9439 121.247 15.4039 121.247ZM15.4039 120.027C15.6572 120.027 15.8939 119.967 16.1139 119.847C16.3406 119.721 16.5206 119.534 16.6539 119.287C16.7872 119.041 16.8539 118.741 16.8539 118.387C16.8539 117.861 16.7139 117.457 16.4339 117.177C16.1606 116.891 15.8239 116.747 15.4239 116.747C15.0239 116.747 14.6872 116.891 14.4139 117.177C14.1472 117.457 14.0139 117.861 14.0139 118.387C14.0139 118.914 14.1439 119.321 14.4039 119.607C14.6706 119.887 15.0039 120.027 15.4039 120.027ZM20.9509 116.767V119.447C20.9509 119.634 20.9942 119.771 21.0809 119.857C21.1742 119.937 21.3275 119.977 21.5409 119.977H22.1909V121.157H21.3109C20.1309 121.157 19.5409 120.584 19.5409 119.437V116.767H18.8809V115.617H19.5409V114.247H20.9509V115.617H22.1909V116.767H20.9509ZM28.3478 118.267C28.3478 118.467 28.3345 118.647 28.3078 118.807H24.2578C24.2911 119.207 24.4311 119.521 24.6778 119.747C24.9245 119.974 25.2278 120.087 25.5878 120.087C26.1078 120.087 26.4778 119.864 26.6978 119.417H28.2078C28.0478 119.951 27.7411 120.391 27.2878 120.737C26.8345 121.077 26.2778 121.247 25.6178 121.247C25.0845 121.247 24.6045 121.131 24.1778 120.897C23.7578 120.657 23.4278 120.321 23.1878 119.887C22.9545 119.454 22.8378 118.954 22.8378 118.387C22.8378 117.814 22.9545 117.311 23.1878 116.877C23.4211 116.444 23.7478 116.111 24.1678 115.877C24.5878 115.644 25.0711 115.527 25.6178 115.527C26.1445 115.527 26.6145 115.641 27.0278 115.867C27.4478 116.094 27.7711 116.417 27.9978 116.837C28.2311 117.251 28.3478 117.727 28.3478 118.267ZM26.8978 117.867C26.8911 117.507 26.7611 117.221 26.5078 117.007C26.2545 116.787 25.9445 116.677 25.5778 116.677C25.2311 116.677 24.9378 116.784 24.6978 116.997C24.4645 117.204 24.3211 117.494 24.2678 117.867H26.8978ZM30.7697 116.477C30.9497 116.184 31.183 115.954 31.4697 115.787C31.763 115.621 32.0964 115.537 32.4697 115.537V117.007H32.0997C31.6597 117.007 31.3264 117.111 31.0997 117.317C30.8797 117.524 30.7697 117.884 30.7697 118.397V121.157H29.3697V115.617H30.7697V116.477Z" fill="#CED0D4"/>
<defs>
<clipPath id="clip0_3_3584">
<rect width="28.6517" height="28.6517" fill="white" transform="translate(1.14844 49.123)"/>
</clipPath>
</defs>
</svg>
