<svg xmlns="http://www.w3.org/2000/svg" width="1373" height="581" fill="none"><path fill="#224860" d="M6.16 98.527a2.97 2.97 0 0 1-3.551 2.917 2.966 2.966 0 0 1-2.166-4.053 2.965 2.965 0 0 1 2.746-1.833c.788 0 1.543.312 2.1.87.557.556.87 1.311.87 2.1zm16.329.083a2.975 2.975 0 0 1-1.834 2.745 2.968 2.968 0 0 1-3.882-3.882 2.975 2.975 0 0 1 4.845-.964c.558.557.87 1.313.87 2.1zM6.26 119.302a2.975 2.975 0 0 1-1.833 2.746 2.968 2.968 0 0 1-3.238-.644 2.977 2.977 0 0 1-.645-3.238 2.967 2.967 0 0 1 1.095-1.333 2.965 2.965 0 0 1 3.75.369c.558.557.871 1.312.871 2.1zm16.328.085a2.974 2.974 0 0 1-5.071 2.101 2.965 2.965 0 0 1-.644-3.238 2.968 2.968 0 0 1 4.845-.964c.557.558.87 1.313.87 2.101zM6.26 140.042a2.974 2.974 0 0 1-5.071 2.101 2.97 2.97 0 1 1 5.071-2.101zm16.328.082a2.974 2.974 0 0 1-5.071 2.101 2.969 2.969 0 0 1 2.1-5.072 2.968 2.968 0 0 1 2.971 2.971zM6.21 160.759a2.976 2.976 0 0 1-1.834 2.745 2.968 2.968 0 0 1-3.237-.644 2.973 2.973 0 0 1 .448-4.571 2.976 2.976 0 0 1 3.752.369c.276.276.495.603.644.964.15.36.227.747.227 1.137zm16.329.081a2.975 2.975 0 0 1-1.834 2.746 2.965 2.965 0 0 1-1.716.169 2.964 2.964 0 0 1-2.335-2.334 2.969 2.969 0 0 1 2.913-3.551 2.971 2.971 0 0 1 2.972 2.97zM6.31 181.536a2.97 2.97 0 0 1-1.835 2.745 2.974 2.974 0 0 1-4.051-2.165 2.968 2.968 0 0 1 1.264-3.05 2.965 2.965 0 0 1 3.75.369c.558.558.87 1.313.871 2.101zm16.33.082a2.976 2.976 0 0 1-1.834 2.746 2.976 2.976 0 0 1-3.238-.644 2.97 2.97 0 1 1 5.071-2.102zM6.31 202.273a2.976 2.976 0 0 1-1.834 2.746 2.968 2.968 0 0 1-3.238-.644 2.97 2.97 0 1 1 5.071-2.102zm16.33.082c0 .587-.175 1.162-.502 1.65a2.967 2.967 0 0 1-3.049 1.264 2.979 2.979 0 0 1-1.522-.813 2.974 2.974 0 0 1 2.101-5.072 2.972 2.972 0 0 1 2.971 2.971zM39.555 98.174a2.975 2.975 0 0 1-1.833 2.746 2.968 2.968 0 0 1-3.238-.644 2.97 2.97 0 1 1 5.071-2.101zm16.329.082a2.97 2.97 0 0 1-5.071 2.101 2.97 2.97 0 1 1 5.071-2.101zm-16.228 20.696a2.972 2.972 0 1 1-5.942 0 2.972 2.972 0 0 1 5.941 0zm16.329.082c0 .588-.174 1.162-.5 1.651a2.979 2.979 0 0 1-3.051 1.263 2.973 2.973 0 0 1-1.071-5.384 2.968 2.968 0 0 1 4.621 2.47zm-16.329 20.655a2.972 2.972 0 1 1-5.942 0 2.972 2.972 0 0 1 5.941 0zm16.329.082a2.972 2.972 0 0 1-5.885.579 2.957 2.957 0 0 1 .17-1.716 2.963 2.963 0 0 1 2.744-1.834 2.968 2.968 0 0 1 2.97 2.971zm-16.38 20.631a2.975 2.975 0 0 1-1.833 2.746 2.968 2.968 0 0 1-3.238-.644 2.97 2.97 0 1 1 5.071-2.102zm16.329.085a2.974 2.974 0 0 1-5.071 2.101 2.966 2.966 0 0 1-.644-3.237 2.964 2.964 0 0 1 2.743-1.835 2.972 2.972 0 0 1 2.972 2.971zm-16.228 20.696a2.97 2.97 0 1 1-5.941-.002 2.97 2.97 0 0 1 5.941.002zm16.329.082c0 .588-.174 1.162-.5 1.651a2.979 2.979 0 0 1-3.051 1.263 2.965 2.965 0 0 1-2.165-4.051 2.971 2.971 0 0 1 5.716 1.137zM39.706 201.92a2.976 2.976 0 0 1-1.834 2.745 2.968 2.968 0 0 1-3.238-.644 2.965 2.965 0 0 1-.644-3.238 2.965 2.965 0 0 1 2.744-1.834 2.974 2.974 0 0 1 2.972 2.971zm16.329.082c0 .588-.174 1.162-.5 1.651a2.979 2.979 0 0 1-3.051 1.263 2.965 2.965 0 0 1-2.334-2.334 2.968 2.968 0 0 1 1.263-3.05 2.968 2.968 0 0 1 3.751.37 2.97 2.97 0 0 1 .87 2.1zm404.538 235.716a3.614 3.614 0 1 1 0-7.228 3.614 3.614 0 0 1 0 7.228zm-.099 19.866a3.614 3.614 0 1 1 .005-7.228 3.614 3.614 0 0 1-.005 7.228zm-25.179-19.744a3.62 3.62 0 0 1-3.34-2.232 3.613 3.613 0 0 1 4.723-4.723 3.615 3.615 0 0 1-1.383 6.955zm-.095 19.862a3.616 3.616 0 0 1-3.338-2.231 3.614 3.614 0 1 1 3.338 2.231zm-25.133-19.862a3.614 3.614 0 1 1 0-7.228 3.614 3.614 0 0 1 0 7.228zm-.1 19.862a3.614 3.614 0 1 1 0-7.228 3.614 3.614 0 0 1 0 7.228zm-25.104-19.923a3.614 3.614 0 1 1 0-7.228 3.614 3.614 0 0 1 0 7.228zm-.1 19.866a3.613 3.613 0 1 1 .001-7.227 3.613 3.613 0 0 1-.001 7.227zm-25.178-19.743a3.62 3.62 0 0 1-3.34-2.232 3.613 3.613 0 0 1 4.723-4.723 3.615 3.615 0 0 1-1.383 6.955zm-.099 19.865a3.61 3.61 0 0 1-3.543-4.319 3.604 3.604 0 0 1 .989-1.85 3.614 3.614 0 1 1 2.554 6.169zm-25.129-19.865a3.614 3.614 0 1 1 0-7.228 3.614 3.614 0 0 1 0 7.228zm-.099 19.865a3.614 3.614 0 1 1 0-7.228 3.614 3.614 0 0 1 0 7.228zM461 478.347a3.62 3.62 0 0 1-3.34-2.232 3.613 3.613 0 0 1 4.723-4.723 3.619 3.619 0 0 1 2.232 3.34 3.618 3.618 0 0 1-3.615 3.615zm-.1 19.866a3.614 3.614 0 1 1 0-7.228 3.614 3.614 0 0 1 0 7.228zm-25.176-19.744a3.614 3.614 0 1 1 0-7.228 3.614 3.614 0 0 1 0 7.228zm-.099 19.866a3.62 3.62 0 0 1-3.34-2.232 3.613 3.613 0 0 1 4.723-4.723 3.619 3.619 0 0 1 2.232 3.34 3.614 3.614 0 0 1-3.615 3.615zM410.5 478.469a3.62 3.62 0 0 1-3.34-2.231 3.618 3.618 0 0 1 .784-3.94 3.61 3.61 0 0 1 3.939-.783 3.61 3.61 0 0 1 2.232 3.339 3.617 3.617 0 0 1-3.615 3.615zm-.1 19.866a3.614 3.614 0 1 1 0-7.228 3.614 3.614 0 0 1 0 7.228zm-25.106-19.927a3.62 3.62 0 0 1-3.34-2.231 3.618 3.618 0 0 1 .783-3.94 3.618 3.618 0 0 1 5.562.548 3.618 3.618 0 0 1-3.005 5.623zm-.1 19.866a3.614 3.614 0 1 1 0-7.228 3.614 3.614 0 0 1 0 7.228zm-25.18-19.744a3.614 3.614 0 1 1 0-7.228 3.614 3.614 0 0 1 0 7.228zm-.098 19.866a3.607 3.607 0 0 1-3.338-2.232 3.61 3.61 0 0 1 .783-3.938 3.613 3.613 0 1 1 2.555 6.17zm-25.129-19.866a3.62 3.62 0 0 1-3.34-2.231 3.618 3.618 0 0 1 .784-3.94 3.603 3.603 0 0 1 1.851-.989 3.605 3.605 0 0 1 2.088.206 3.61 3.61 0 0 1 2.232 3.339 3.617 3.617 0 0 1-3.615 3.615zm-.099 19.866a3.61 3.61 0 0 1-3.339-2.231 3.613 3.613 0 0 1 4.722-4.722 3.617 3.617 0 0 1 2.231 3.338 3.615 3.615 0 0 1-3.614 3.615z"/><path fill="#008B86" d="M389.212 447.433C239.591 225.056 174.247 185.516 143.254 198.14c-34.435 14.026-39.376 97.711-13.832 154.677 36.849 82.175 146.179 128.918 259.79 94.616z"/><path stroke="#224860" stroke-linecap="round" stroke-linejoin="round" stroke-width="3.826" d="m329.053 366.493-211.287-78.475m200.765 62.214-202.774-74.605m236.251 122.43L120.54 312.93m219.034 67.91L117.67 299.539"/><path stroke="#B6D8E2" stroke-miterlimit="10" stroke-width="2.869" d="m317.814 273.077-73.189 299.444m-10.724-312.613-73.189 299.444m96.002-278.797-73.189 299.444m111.476-327.57-73.189 299.444"/><path fill="#224860" d="M1059.63 227.874a4.01 4.01 0 0 1-2.22-.672 3.958 3.958 0 0 1-1.47-1.791 4.04 4.04 0 0 1-.23-2.305c.16-.774.54-1.485 1.09-2.043a3.996 3.996 0 0 1 6.82 2.82c0 .524-.11 1.043-.31 1.527s-.49.924-.86 1.295a3.93 3.93 0 0 1-1.3.865c-.48.201-1 .304-1.52.304zm-.11 21.928a4.01 4.01 0 0 1-2.22-.672 3.953 3.953 0 0 1-1.47-1.791 4.04 4.04 0 0 1-.23-2.305c.16-.774.54-1.485 1.09-2.043a3.996 3.996 0 0 1 6.82 2.82c0 1.059-.42 2.074-1.17 2.822a4.006 4.006 0 0 1-2.82 1.169zm-27.8-21.793a4.01 4.01 0 0 1-2.22-.672 4.08 4.08 0 0 1-1.47-1.79c-.3-.73-.38-1.532-.22-2.306.15-.774.53-1.485 1.09-2.043s1.27-.938 2.04-1.092a4.01 4.01 0 0 1 2.31.227c.72.302 1.35.813 1.79 1.469.44.656.67 1.427.67 2.216 0 1.059-.42 2.074-1.17 2.822a3.984 3.984 0 0 1-2.82 1.169zm-.11 21.932c-.79 0-1.56-.234-2.22-.673a4.083 4.083 0 0 1-1.47-1.791 3.953 3.953 0 0 1-.22-2.305 3.94 3.94 0 0 1 1.09-2.042 4.005 4.005 0 0 1 2.04-1.092 3.994 3.994 0 0 1 4.1 1.696c.44.656.67 1.427.67 2.216 0 .524-.1 1.043-.3 1.527-.2.485-.5.925-.87 1.295-.37.371-.81.665-1.29.865-.49.201-1.01.304-1.53.304zm-27.74-21.932c-.79 0-1.56-.234-2.22-.673a3.95 3.95 0 0 1-1.47-1.79 3.988 3.988 0 0 1 .87-4.348 3.966 3.966 0 0 1 2.04-1.092 4.018 4.018 0 0 1 4.1 1.696c.43.656.67 1.427.67 2.216 0 .524-.11 1.043-.31 1.528a3.962 3.962 0 0 1-2.16 2.16c-.48.2-1 .303-1.52.303zm-.11 21.932a4.01 4.01 0 0 1-2.22-.672 3.958 3.958 0 0 1-1.47-1.791 3.982 3.982 0 0 1 .87-4.348 3.984 3.984 0 0 1 6.13.604c.44.656.68 1.427.68 2.216 0 1.058-.42 2.073-1.17 2.822a3.988 3.988 0 0 1-2.82 1.169zm-27.717-22a3.987 3.987 0 0 1-3.686-2.464 3.988 3.988 0 0 1 5.214-5.212 3.986 3.986 0 0 1 2.463 3.686 3.981 3.981 0 0 1-1.169 2.822 3.999 3.999 0 0 1-2.822 1.168zm-.11 21.933a3.99 3.99 0 1 1 0-7.981 3.99 3.99 0 0 1 0 7.981zm-27.797-21.798a3.99 3.99 0 1 1 0-7.981 3.99 3.99 0 0 1 0 7.981zm-.11 21.932a3.984 3.984 0 0 1-3.685-2.463 3.993 3.993 0 0 1 .865-4.348 3.99 3.99 0 1 1 2.82 6.811zm-27.742-21.932a3.988 3.988 0 1 1 1.527-7.676 3.989 3.989 0 0 1-1.527 7.676zm-.109 21.932a3.991 3.991 0 0 1-3.914-4.768 3.99 3.99 0 1 1 3.914 4.768zm139.925 22.72a4.01 4.01 0 0 1-2.22-.672 4.089 4.089 0 0 1-1.47-1.791 3.953 3.953 0 0 1-.22-2.305c.15-.774.53-1.485 1.09-2.043s1.27-.938 2.04-1.092a4.01 4.01 0 0 1 2.31.227c.72.301 1.35.813 1.79 1.469a3.987 3.987 0 0 1-.5 5.038 3.988 3.988 0 0 1-2.82 1.169zm-.11 21.932a4.01 4.01 0 0 1-2.22-.672 4.089 4.089 0 0 1-1.47-1.791 3.953 3.953 0 0 1-.22-2.305c.15-.774.53-1.485 1.09-2.043s1.27-.938 2.04-1.092a3.985 3.985 0 0 1 3.6 6.734 3.988 3.988 0 0 1-2.82 1.169zm-27.8-21.798c-.79 0-1.56-.235-2.21-.673a3.958 3.958 0 0 1-1.47-1.791 4.043 4.043 0 0 1-.23-2.306c.16-.773.54-1.484 1.09-2.042a3.996 3.996 0 0 1 4.35-.864c.73.302 1.35.814 1.79 1.47.44.656.67 1.428.67 2.217 0 .524-.1 1.043-.3 1.527-.2.484-.49.923-.87 1.294a3.977 3.977 0 0 1-2.82 1.168zm-.11 21.933c-.79 0-1.56-.234-2.21-.673a3.95 3.95 0 0 1-1.47-1.79 4.04 4.04 0 0 1-.23-2.305c.16-.774.54-1.485 1.09-2.043a3.996 3.996 0 0 1 6.14.604c.44.656.67 1.427.67 2.216a3.997 3.997 0 0 1-1.16 2.823c-.37.37-.81.664-1.3.865-.48.2-1 .303-1.53.303zm-27.74-21.933c-.79 0-1.56-.235-2.21-.673a3.958 3.958 0 0 1-1.47-1.791 3.96 3.96 0 0 1-.23-2.306c.15-.773.53-1.484 1.09-2.042a3.996 3.996 0 0 1 4.35-.864c.73.302 1.35.814 1.79 1.47.44.656.67 1.428.67 2.217 0 .524-.1 1.043-.3 1.527-.2.484-.5.924-.87 1.294a4.01 4.01 0 0 1-1.29.865c-.49.2-1 .303-1.53.303zm-.11 21.933c-.79 0-1.56-.234-2.21-.672a3.958 3.958 0 0 1-1.47-1.791 3.877 3.877 0 0 1-.23-2.305c.15-.774.53-1.485 1.09-2.043s1.27-.938 2.04-1.092a3.994 3.994 0 0 1 4.1 1.696c.44.656.67 1.427.67 2.216 0 1.058-.42 2.073-1.17 2.822a3.97 3.97 0 0 1-2.82 1.169zm-27.712-22a3.984 3.984 0 0 1-3.685-2.463 3.988 3.988 0 0 1 5.213-5.213 3.986 3.986 0 0 1 2.463 3.685c0 1.059-.42 2.074-1.169 2.822a3.987 3.987 0 0 1-2.822 1.169zm-.11 21.933a3.994 3.994 0 0 1-3.686-2.463 3.988 3.988 0 0 1 5.212-5.213 3.988 3.988 0 0 1 1.295 6.507 3.99 3.99 0 0 1-2.821 1.169zm-27.797-21.798a3.994 3.994 0 0 1-3.913-4.768 3.99 3.99 0 1 1 3.913 4.768zm-.111 21.932a3.987 3.987 0 0 1-3.912-4.769 3.99 3.99 0 1 1 3.912 4.769zm-27.741-21.932a3.984 3.984 0 0 1-3.686-2.464 3.988 3.988 0 0 1 7.004-3.742 3.984 3.984 0 0 1-.496 5.038 3.999 3.999 0 0 1-2.822 1.168zm-.11 21.932a3.99 3.99 0 1 1 0-7.979 3.99 3.99 0 0 1 0 7.979z"/><path fill="#008B86" d="M1246.85 391.734c-56.93-259.76-102.8-320.08-136-319.738-36.89.38-71.97 75.791-69.19 137.67 4.03 89.262 87.85 172.273 205.19 182.068z"/><path stroke="#224860" stroke-linecap="round" stroke-linejoin="round" stroke-width="3.796" d="m1220.86 295.107-166.31-149.482m162.54 130.642L1057.21 133.46m173.32 199.145-182.51-162.982m177.32 142.56L1050.25 156.22"/><path stroke="#B6D8E2" stroke-miterlimit="10" stroke-width="2.847" d="m1087.69 215.206 123.36 204.822m-120.5-179.638 123.36 204.756m-25.3-152.236-56.81 232.251m41.09-212.372L1116.13 545"/><path fill="#FF8780" d="M1233.02 412.61c120.32-182.489 129.54-244.09 110.3-263.445-21.38-21.505-85.91 1.08-120.75 38.209-50.26 53.558-51.07 150.524 10.45 225.236z"/><path stroke="#224860" stroke-linecap="round" stroke-linejoin="round" stroke-width="3.12" d="m1275.02 341.898-7.35-183.665m16.28 170.636-7.59-176.042m-17.87 216.266-8.7-200.943m17.75 186.175-8.57-192.542"/><path stroke="#B6D8E2" stroke-miterlimit="10" stroke-width="2.34" d="m1172.2 78.142 99.62 169.416m-97.49-148.692 99.62 169.361M1191.8 77.439l99.62 169.416m-97.49-148.692 99.62 169.361"/><path fill="#224860" d="M1231.56 4.085a3.279 3.279 0 0 1-5.6 2.321 3.3 3.3 0 0 1-.9-1.68 3.286 3.286 0 0 1 3.22-3.921 3.277 3.277 0 0 1 3.28 3.28zm18.03.09a3.281 3.281 0 0 1-2.02 3.033 3.292 3.292 0 0 1-3.58-.712 3.304 3.304 0 0 1-.9-1.68 3.286 3.286 0 0 1 3.22-3.921 3.277 3.277 0 0 1 3.28 3.28zm-17.91 22.848c0 .649-.2 1.283-.56 1.823-.36.54-.87.96-1.47 1.208a3.272 3.272 0 0 1-3.57-.71 3.227 3.227 0 0 1-.9-1.68 3.319 3.319 0 0 1 .18-1.895 3.291 3.291 0 0 1 3.04-2.025c.86 0 1.7.346 2.31.96.62.616.96 1.45.97 2.32zm18.02.09a3.281 3.281 0 0 1-2.02 3.033 3.293 3.293 0 0 1-3.58-.711 3.3 3.3 0 0 1-.9-1.68 3.286 3.286 0 0 1 3.22-3.921 3.277 3.277 0 0 1 3.28 3.279zm-18.02 22.804c0 .649-.2 1.283-.56 1.822a3.272 3.272 0 0 1-5.04.497 3.224 3.224 0 0 1-.9-1.679 3.318 3.318 0 0 1 .18-1.895 3.286 3.286 0 0 1 3.04-2.025c.87 0 1.7.346 2.31.96.62.616.97 1.45.97 2.32zm18.02.09a3.279 3.279 0 0 1-3.92 3.219 3.313 3.313 0 0 1-1.68-.898 3.304 3.304 0 0 1-.9-1.68 3.286 3.286 0 0 1 3.22-3.921 3.277 3.277 0 0 1 3.28 3.28zm-18.08 22.781c0 .649-.19 1.283-.55 1.823a3.298 3.298 0 0 1-3.37 1.396 3.281 3.281 0 0 1-2.58-2.578 3.294 3.294 0 0 1 1.4-3.369c.54-.36 1.17-.552 1.82-.552.87 0 1.7.345 2.32.96.61.616.96 1.45.96 2.32zm18.03.09c0 .65-.19 1.284-.55 1.823-.36.54-.88.96-1.48 1.21-.6.248-1.26.313-1.89.186a3.266 3.266 0 0 1-1.68-.898c-.46-.459-.77-1.043-.9-1.68s-.06-1.296.19-1.896c.24-.6.67-1.112 1.2-1.472a3.294 3.294 0 0 1 4.15.407c.61.616.96 1.45.96 2.32zm-17.92 22.848a3.27 3.27 0 0 1-3.92 3.217 3.272 3.272 0 0 1-1.68-.897 3.308 3.308 0 0 1-.9-1.68 3.321 3.321 0 0 1 .19-1.895 3.291 3.291 0 0 1 3.03-2.025c.43 0 .86.085 1.26.25.39.165.76.406 1.06.71.31.305.55.667.71 1.065.17.398.25.825.25 1.255zm18.03.09c0 .649-.19 1.283-.55 1.823a3.284 3.284 0 0 1-5.95-1.182 3.286 3.286 0 0 1 3.22-3.92c.87 0 1.7.346 2.32.96.61.615.96 1.45.96 2.319zm-18.03 22.804a3.278 3.278 0 0 1-2.02 3.03 3.3 3.3 0 0 1-1.9.187 3.274 3.274 0 0 1-1.68-.898 3.3 3.3 0 0 1-.9-1.679 3.286 3.286 0 0 1 4.48-3.671c.39.165.76.407 1.06.711.31.305.55.666.71 1.065.17.398.25.824.25 1.255zm18.03.09a3.278 3.278 0 0 1-5.6 2.32 3.304 3.304 0 0 1-.9-1.68c-.12-.636-.06-1.296.19-1.895a3.291 3.291 0 0 1 3.03-2.025c.87 0 1.71.346 2.32.961.62.615.96 1.449.96 2.319zm18.67-115.015a3.279 3.279 0 0 1-3.92 3.219 3.313 3.313 0 0 1-1.68-.898 3.304 3.304 0 0 1-.9-1.68 3.286 3.286 0 0 1 3.22-3.921 3.277 3.277 0 0 1 3.28 3.28zm18.03.09a3.284 3.284 0 0 1-2.02 3.032 3.281 3.281 0 1 1 2.02-3.032zm-17.92 22.848a3.281 3.281 0 0 1-2.02 3.033 3.293 3.293 0 0 1-3.58-.711 3.3 3.3 0 0 1-.9-1.68 3.325 3.325 0 0 1 .19-1.896c.25-.6.67-1.112 1.21-1.473a3.277 3.277 0 0 1 5.1 2.727zm18.03.091a3.279 3.279 0 0 1-5.6 2.321 3.3 3.3 0 0 1-.9-1.68 3.286 3.286 0 0 1 3.22-3.921c.87 0 1.71.346 2.32.961.62.615.96 1.45.96 2.32zm-18.03 22.803a3.281 3.281 0 0 1-2.02 3.033 3.3 3.3 0 0 1-1.9.186 3.313 3.313 0 0 1-1.68-.898 3.304 3.304 0 0 1-.9-1.68 3.286 3.286 0 0 1 3.22-3.921 3.277 3.277 0 0 1 3.28 3.28zm18.03.09a3.281 3.281 0 0 1-2.02 3.032 3.3 3.3 0 0 1-1.9.187 3.32 3.32 0 0 1-1.68-.898 3.304 3.304 0 0 1-.9-1.68 3.324 3.324 0 0 1 .19-1.896c.25-.6.67-1.112 1.21-1.473a3.273 3.273 0 0 1 4.14.409c.62.615.96 1.45.96 2.319zm-18.08 22.785c0 .649-.19 1.283-.55 1.823a3.296 3.296 0 0 1-3.37 1.394 3.281 3.281 0 0 1-2.39-4.473c.25-.6.67-1.111 1.21-1.472a3.274 3.274 0 0 1 3.07-.302c.4.165.76.406 1.07.71.3.306.54.667.71 1.065.16.398.25.824.25 1.255zm18.03.086c0 .649-.2 1.283-.56 1.823a3.272 3.272 0 0 1-5.04.498 3.23 3.23 0 0 1-.9-1.68 3.32 3.32 0 0 1 .18-1.896c.25-.6.67-1.112 1.21-1.473a3.294 3.294 0 0 1 4.15.408c.61.616.96 1.45.96 2.32zm-17.92 22.848c0 .65-.19 1.284-.55 1.823-.36.54-.88.96-1.48 1.21-.6.248-1.26.313-1.89.186a3.266 3.266 0 0 1-1.68-.898 3.3 3.3 0 0 1-.9-1.68 3.286 3.286 0 0 1 3.22-3.921c.87 0 1.7.346 2.32.96.61.616.96 1.45.96 2.32zm18.03.09c0 .649-.2 1.284-.56 1.823a3.274 3.274 0 0 1-3.36 1.397 3.228 3.228 0 0 1-1.68-.898 3.227 3.227 0 0 1-.9-1.68 3.322 3.322 0 0 1 .18-1.896 3.286 3.286 0 0 1 3.04-2.025c.87 0 1.7.346 2.32.96.61.615.96 1.45.96 2.319zm-18.03 22.804c0 .649-.19 1.284-.55 1.823-.36.54-.88.961-1.48 1.209a3.266 3.266 0 0 1-3.57-.711 3.3 3.3 0 0 1-.9-1.68 3.291 3.291 0 0 1 3.22-3.921c.87 0 1.7.346 2.32.961a3.3 3.3 0 0 1 .96 2.319zm18.03.09c0 .649-.2 1.284-.56 1.823a3.266 3.266 0 0 1-3.36 1.396 3.235 3.235 0 0 1-1.68-.898 3.23 3.23 0 0 1-.9-1.68 3.321 3.321 0 0 1 .18-1.896 3.286 3.286 0 0 1 3.04-2.025c.87 0 1.7.346 2.32.961a3.3 3.3 0 0 1 .96 2.319zm31.12-23.562a3.279 3.279 0 0 1-3.92 3.219 3.313 3.313 0 0 1-1.68-.898 3.3 3.3 0 0 1-.9-1.68 3.286 3.286 0 0 1 3.22-3.921 3.277 3.277 0 0 1 3.28 3.28zm18.03.09c0 .65-.19 1.284-.55 1.823-.36.54-.88.96-1.48 1.21a3.25 3.25 0 0 1-1.89.186 3.266 3.266 0 0 1-1.68-.898 3.3 3.3 0 0 1-.9-1.68 3.286 3.286 0 0 1 4.48-3.671c.39.165.75.406 1.06.71.3.305.55.667.71 1.065.17.398.25.825.25 1.255zm-17.92 22.848a3.281 3.281 0 0 1-2.02 3.033 3.293 3.293 0 0 1-3.58-.711 3.3 3.3 0 0 1-.9-1.68 3.325 3.325 0 0 1 .19-1.896 3.291 3.291 0 0 1 3.03-2.025c.87 0 1.71.346 2.32.961.62.614.96 1.448.96 2.318zm18.03.091a3.278 3.278 0 0 1-2.02 3.03 3.3 3.3 0 0 1-1.9.187 3.313 3.313 0 0 1-1.68-.898 3.212 3.212 0 0 1-.89-1.679 3.235 3.235 0 0 1 .18-1.895 3.286 3.286 0 0 1 3.03-2.025c.87 0 1.71.346 2.32.961.62.615.96 1.449.96 2.319zm-18.03 22.803a3.281 3.281 0 0 1-2.02 3.032 3.284 3.284 0 0 1-4.48-2.391 3.325 3.325 0 0 1 .19-1.896 3.291 3.291 0 0 1 3.03-2.025c.87 0 1.71.346 2.32.961.62.615.96 1.449.96 2.319zm18.03.09a3.278 3.278 0 0 1-3.92 3.217 3.313 3.313 0 0 1-1.68-.898 3.208 3.208 0 0 1-.89-1.679 3.235 3.235 0 0 1 .18-1.895 3.286 3.286 0 0 1 3.03-2.025c.87 0 1.71.346 2.32.961.62.615.96 1.449.96 2.319zm-18.08 22.78c0 .649-.19 1.283-.55 1.823-.36.539-.88.96-1.48 1.208-.59.249-1.25.314-1.89.187a3.265 3.265 0 0 1-1.68-.897 3.3 3.3 0 0 1-.9-1.68 3.322 3.322 0 0 1 .19-1.895 3.291 3.291 0 0 1 3.03-2.025c.87 0 1.7.346 2.32.961a3.3 3.3 0 0 1 .96 2.318zm18.03.091c0 .649-.2 1.283-.56 1.823-.36.54-.87.961-1.47 1.209a3.3 3.3 0 0 1-1.9.187 3.313 3.313 0 0 1-1.68-.898 3.288 3.288 0 0 1-.89-1.68 3.238 3.238 0 0 1 .18-1.896c.25-.6.67-1.112 1.21-1.473.54-.36 1.18-.552 1.83-.552.87 0 1.7.346 2.31.961.62.615.97 1.449.97 2.319zm-17.92 22.851c0 .649-.19 1.283-.55 1.823a3.296 3.296 0 0 1-3.37 1.395 3.272 3.272 0 0 1-1.68-.897 3.3 3.3 0 0 1-.9-1.68 3.291 3.291 0 0 1 3.22-3.92c.87 0 1.7.346 2.32.961.61.615.96 1.448.96 2.318zm18.03.087c0 .649-.2 1.284-.56 1.823a3.274 3.274 0 0 1-3.36 1.397 3.266 3.266 0 0 1-1.68-.898 3.227 3.227 0 0 1-.9-1.68 3.322 3.322 0 0 1 .18-1.896 3.286 3.286 0 0 1 3.04-2.025c.87 0 1.7.346 2.32.961.61.614.96 1.448.96 2.318zm-18.03 22.804c0 .649-.19 1.283-.55 1.822-.36.54-.88.96-1.48 1.208a3.272 3.272 0 0 1-3.57-.71 3.304 3.304 0 0 1-.9-1.68 3.291 3.291 0 0 1 3.22-3.92c.87 0 1.7.346 2.32.961a3.3 3.3 0 0 1 .96 2.319zm18.03.09c0 .649-.2 1.284-.56 1.823a3.266 3.266 0 0 1-3.36 1.396 3.235 3.235 0 0 1-1.68-.898 3.23 3.23 0 0 1-.9-1.68 3.321 3.321 0 0 1 .18-1.896 3.286 3.286 0 0 1 3.04-2.025c.87 0 1.7.346 2.32.961a3.3 3.3 0 0 1 .96 2.319zm18.67-115.015a3.28 3.28 0 0 1-2.02 3.03 3.3 3.3 0 0 1-1.9.187 3.32 3.32 0 0 1-1.68-.898 3.3 3.3 0 0 1-.9-1.68 3.286 3.286 0 0 1 3.22-3.919c.87 0 1.71.345 2.32.96.62.616.96 1.45.96 2.32zm18.03.09c0 .65-.19 1.284-.55 1.823-.36.54-.88.96-1.48 1.21-.6.248-1.26.313-1.89.186a3.266 3.266 0 0 1-1.68-.898 3.3 3.3 0 0 1-.9-1.68 3.286 3.286 0 0 1 3.22-3.921c.87 0 1.7.346 2.32.96.61.616.96 1.45.96 2.32zm-17.92 22.844a3.284 3.284 0 0 1-2.02 3.032 3.293 3.293 0 0 1-3.58-.711 3.304 3.304 0 0 1-.9-1.68 3.324 3.324 0 0 1 .19-1.896c.25-.6.67-1.112 1.21-1.473a3.273 3.273 0 0 1 4.14.409c.62.615.96 1.449.96 2.319zm18.03.1c0 .649-.19 1.284-.55 1.823-.36.54-.88.961-1.48 1.209a3.266 3.266 0 0 1-3.57-.711c-.46-.459-.77-1.043-.9-1.68s-.06-1.296.19-1.896a3.286 3.286 0 0 1 3.03-2.025c.43 0 .86.085 1.25.249a3.266 3.266 0 0 1 1.78 1.776c.16.398.25.824.25 1.255zm-18.03 22.8a3.284 3.284 0 0 1-2.02 3.032 3.3 3.3 0 0 1-1.9.187 3.274 3.274 0 0 1-1.68-.898 3.304 3.304 0 0 1-.9-1.68 3.324 3.324 0 0 1 .19-1.896c.25-.6.67-1.112 1.21-1.473.54-.36 1.17-.552 1.82-.552.87 0 1.71.345 2.32.961.62.615.96 1.449.96 2.319zm18.03.088c0 .649-.19 1.284-.55 1.823-.36.54-.88.961-1.48 1.209a3.266 3.266 0 0 1-3.57-.711c-.46-.459-.77-1.043-.9-1.68s-.06-1.296.19-1.896a3.291 3.291 0 0 1 3.03-2.025 3.32 3.32 0 0 1 2.32.961c.3.304.55.666.71 1.064.16.398.25.824.25 1.255zm-18.08 22.781c0 .649-.19 1.284-.56 1.823a3.266 3.266 0 0 1-3.36 1.396 3.274 3.274 0 0 1-1.68-.898 3.23 3.23 0 0 1-.9-1.68 3.242 3.242 0 0 1 .19-1.896c.24-.6.66-1.112 1.2-1.472a3.29 3.29 0 0 1 4.15.408 3.3 3.3 0 0 1 .96 2.319zm18.02.09c0 .649-.19 1.283-.55 1.822-.36.54-.88.96-1.48 1.208a3.274 3.274 0 0 1-3.57-.711 3.3 3.3 0 0 1-.9-1.679 3.286 3.286 0 0 1 3.22-3.92c.87 0 1.7.345 2.32.961a3.3 3.3 0 0 1 .96 2.319zm-17.91 22.848c0 .649-.19 1.283-.55 1.823-.37.539-.88.96-1.48 1.208a3.275 3.275 0 0 1-3.57-.71 3.3 3.3 0 0 1-.9-1.68 3.291 3.291 0 0 1 3.22-3.92c.87 0 1.7.346 2.32.961.61.614.96 1.448.96 2.318zm18.02.093a3.276 3.276 0 0 1-3.91 3.217 3.234 3.234 0 0 1-1.68-.897 3.23 3.23 0 0 1-.9-1.68 3.319 3.319 0 0 1 .18-1.895c.25-.599.67-1.111 1.21-1.472a3.273 3.273 0 0 1 4.14.408c.62.615.96 1.449.96 2.319zm-18.02 22.8a3.21 3.21 0 0 1-.56 1.822c-.36.54-.87.96-1.47 1.208a3.274 3.274 0 0 1-3.57-.711 3.297 3.297 0 0 1-.9-1.679 3.291 3.291 0 0 1 3.22-3.92c.87 0 1.7.346 2.32.961a3.3 3.3 0 0 1 .96 2.319zm18.02.091a3.278 3.278 0 0 1-2.02 3.03 3.275 3.275 0 0 1-3.57-.711 3.228 3.228 0 0 1-.9-1.679 3.317 3.317 0 0 1 .18-1.895 3.286 3.286 0 0 1 3.03-2.025c.87 0 1.71.345 2.32.96.62.616.96 1.45.96 2.32z"/></svg>
