<svg viewBox="0 0 65 65" xmlns="http://www.w3.org/2000/svg" xml:space="preserve" style="fill-rule:evenodd;clip-rule:evenodd;stroke-linejoin:round;stroke-miterlimit:2; opacity: 0.5"><path d="M65.036 19.1a32.501 32.501 0 0 0-36.293-6.663 32.509 32.509 0 0 0-10.547 7.585c-11.73 12.65-11.437 32.471.631 44.782a32.498 32.498 0 0 0 39.702 5.284 3.163 3.163 0 0 1 2.443-.336l9.273 2.566a1.507 1.507 0 0 0 1.85-1.85l-2.539-9.183a3.141 3.141 0 0 1 .349-2.467A32.515 32.515 0 0 0 65.036 19.1Z" style="fill:#46a6ff;fill-rule:nonzero" transform="translate(-9.584 -9.583)"/><path d="M54.655 54.659a17.903 17.903 0 0 0 4.288-18.45A17.905 17.905 0 1 0 26.57 51.08c.119.201.197.424.229.655a1.76 1.76 0 0 1-.046.693l-1.411 5.108a.822.822 0 0 0 .212.807.827.827 0 0 0 .807.212l5.051-1.395a1.74 1.74 0 0 1 1.361.191 17.917 17.917 0 0 0 21.882-2.692Z" style="fill:#fff;fill-rule:nonzero" transform="translate(-9.584 -9.583)"/><path d="M48.482 41.999c0 .286.112.562.315.783.204.221.488.372.803.428.316.055.643.012.926-.123.284-.134.506-.352.629-.616.122-.264.139-.558.045-.831a1.251 1.251 0 0 0-.557-.668 1.526 1.526 0 0 0-1.754.154 1.179 1.179 0 0 0-.306.399 1.07 1.07 0 0 0-.101.474ZM43.346 43.096c.28-.251.455-.583.495-.939a1.432 1.432 0 0 0-.273-1.01 1.688 1.688 0 0 0-.917-.624 1.856 1.856 0 0 0-1.144.048 1.654 1.654 0 0 0-.85.697 1.422 1.422 0 0 0-.17 1.029c.076.351.284.667.587.894.304.227.685.351 1.079.351.222.004.442-.034.647-.11.206-.077.392-.191.546-.336ZM36.442 42.007a1.859 1.859 0 0 0-.415-1.178 1.856 1.856 0 0 0-2.306-.467 1.856 1.856 0 0 0-.904 2.172 1.853 1.853 0 0 0 3.083.773 1.77 1.77 0 0 0 .542-1.3Z" style="fill:#46a6ff;fill-rule:nonzero" transform="translate(-9.584 -9.583)"/></svg>
