<svg id="Layer_1" data-name="Layer 1" xmlns="http://www.w3.org/2000/svg" viewBox="0 0 1080 1080"><defs><style>.cls-1{fill:#f5f5f5}.cls-2{fill:#e1e1e1}.cls-3{fill:#ececec}.cls-4{fill:#fafafa}.cls-5{fill:#fff}.cls-6{fill:#1a2e35}.cls-7{fill:#46a6ff}.cls-8{fill:#375a64}.cls-9{fill:#ffbf9d}.cls-10{fill:#ff9a6c}.cls-11{opacity:.6}.cls-12{opacity:.2}.cls-13{fill:#4b332c}.cls-14{fill:#c15530}.cls-15{fill:#dc9e87}.cls-16{fill:#faf2e1}.cls-17{fill:#ae4f32}</style></defs><path class="cls-1" transform="rotate(-12.19 194.675 705.785)" d="M120.39 604.18H269.09V807.66H120.39z"/><path class="cls-1" d="M796.54 100.1H997.2099999999999V230.59H796.54z"/><circle class="cls-2" cx="896.88" cy="159.83" r="27.31" transform="rotate(-76.57 896.844 159.846)"/><path class="cls-1" d="M906.05 159.83L898.92 163.95 891.79 168.06 891.79 159.83 891.79 151.6 898.92 155.71 906.05 159.83z"/><path class="cls-2" d="M796.54 207.15H997.2099999999999V230.59H796.54z"/><path class="cls-1" d="M816.04 218.87L813.15 220.54 810.25 222.21 810.25 218.87 810.25 215.53 813.15 217.2 816.04 218.87z"/><path class="cls-1" d="M832.67 218.34H980.6899999999999V219.4H832.67z"/><path class="cls-1" d="M835.67 218.87a2.21 2.21 0 1 1-2.2-2.2 2.21 2.21 0 0 1 2.2 2.2z"/><rect class="cls-1" x="474.05" y="649.19" width="391.15" height="352.51" rx="11.1"/><path class="cls-3" d="M487 649.19h365.24a13 13 0 0 1 13 13v26.4H474.05v-26.4a13 13 0 0 1 12.95-13z"/><circle class="cls-4" cx="497.92" cy="668.94" r="3.09"/><path class="cls-4" d="M519.52 668.94a3.09 3.09 0 1 1-3.08-3.09 3.08 3.08 0 0 1 3.08 3.09z"/><circle class="cls-4" cx="534.95" cy="668.94" r="3.09"/><path class="cls-4" d="M670.47 720.28H818.1700000000001V725.63H670.47z"/><path class="cls-4" d="M670.47 742.28H818.1700000000001V747.63H670.47z"/><path class="cls-4" d="M670.47 764.28H818.1700000000001V769.63H670.47z"/><path class="cls-4" d="M670.47 786.27H818.1700000000001V791.62H670.47z"/><path class="cls-4" d="M670.47 808.27H744.32V813.62H670.47z"/><path class="cls-4" transform="rotate(180 587.445 854.215)" d="M513.59 851.54H661.29V856.89H513.59z"/><path class="cls-4" transform="rotate(180 587.445 876.21)" d="M513.59 873.54H661.29V878.89H513.59z"/><path class="cls-4" transform="rotate(180 587.445 898.21)" d="M513.59 895.54H661.29V900.89H513.59z"/><path class="cls-4" transform="rotate(180 587.445 920.21)" d="M513.59 917.53H661.29V922.88H513.59z"/><path class="cls-4" transform="rotate(180 624.37 942.205)" d="M587.44 939.53H661.2900000000001V944.88H587.44z"/><path class="cls-4" d="M686.81 845.63H813.1999999999999V950.79H686.81z"/><path class="cls-3" d="M686.6 919.03L723.95 892.86 750.01 910.89 790.99 876.21 813.2 898.21 813.2 950.79 686.81 950.79 686.6 919.03z"/><circle class="cls-3" cx="752.19" cy="876.21" r="10.59"/><path class="cls-4" d="M513.59 717.04H639.98V822.1999999999999H513.59z"/><path class="cls-3" d="M513.38 790.45L550.73 764.28 576.79 782.31 617.78 747.63 639.99 769.62 639.99 822.21 513.59 822.21 513.38 790.45z"/><circle class="cls-3" cx="578.97" cy="747.63" r="10.59"/><path class="cls-1" d="M25.54 78.3h455.53v237.63A9.11 9.11 0 0 1 472 325H34.64a9.11 9.11 0 0 1-9.11-9.11V78.3z"/><path class="cls-3" d="M25.54 78.3H481.07V124.14H25.54z"/><circle class="cls-4" cx="53.33" cy="101.3" r="3.59"/><circle class="cls-4" cx="74.89" cy="101.3" r="3.59"/><circle class="cls-4" cx="96.45" cy="101.3" r="3.59"/><path class="cls-3" d="M254.28 161.1H426.28999999999996V167.32999999999998H254.28z"/><path class="cls-3" d="M254.28 186.71H426.28999999999996V192.94H254.28z"/><path class="cls-3" d="M254.28 212.33H426.28999999999996V218.56H254.28z"/><path class="cls-3" d="M254.28 237.95H426.28999999999996V244.17999999999998H254.28z"/><path class="cls-3" d="M254.28 263.57H340.28V269.8H254.28z"/><path class="cls-4" d="M63.43 156.73H210.62V279.2H63.43z"/><path class="cls-3" d="M63.18 242.22L106.67 211.74 137.03 232.74 184.76 192.35 210.62 217.97 210.62 279.2 63.43 279.2 63.18 242.22z"/><path class="cls-3" d="M151.9 192.35A12.33 12.33 0 1 1 139.57 180a12.33 12.33 0 0 1 12.33 12.35z"/><path class="cls-5" transform="rotate(-12.19 169.267 678.066)" d="M108.93 595.58H229.71V760.86H108.93z"/><path class="cls-6" d="M245.79 746.25s-.08-.27-.2-.78-.29-1.3-.52-2.28c-.45-2-1.11-5-2-8.81l-7.3-33.16c-6.2-28.41-15-68.72-25.4-116.42l.6.39L93 610.73l.42-.66c13 60.35 25 116.23 34.79 161.58l-.53-.35 85.75-18.3 23.87-5 6.3-1.3c1.43-.3 2.19-.43 2.19-.43s-.68.18-2.08.5l-6.19 1.39-23.72 5.24-86 18.81-.44.1-.1-.44-35-161.54-.12-.54.54-.12 118.05-25.44.5-.11.1.49c10.24 47.87 18.88 88.33 25 116.85 3 14.18 5.38 25.39 7 33.1.8 3.79 1.41 6.72 1.83 8.74.19 1 .34 1.7.45 2.23s.18.72.18.72z"/><path class="cls-6" d="M172.06 627.07c.06.3-12.73 3.32-28.57 6.74s-28.74 6-28.81 5.65 12.73-3.31 28.57-6.73 28.75-5.96 28.81-5.66zm34.06 7.34c.06.3-19.68 4.82-44.09 10.09s-44.25 9.3-44.32 9 19.67-4.81 44.09-10.09 44.25-9.3 44.32-9zm3.16 14.64c.06.3-19.67 4.82-44.08 10.09s-44.26 9.31-44.32 9 19.67-4.82 44.08-10.09 44.25-9.3 44.32-9zm3.16 14.65c.07.3-19.67 4.82-44.08 10.09s-44.25 9.3-44.32 9 19.67-4.81 44.09-10.09 44.25-9.3 44.31-9zm3.17 14.64c.06.3-19.68 4.82-44.09 10.09s-44.25 9.31-44.32 9 19.67-4.82 44.09-10.09 44.25-9.29 44.32-9zm3.16 14.66c.06.3-19.68 4.82-44.08 10.09s-44.26 9.3-44.32 9S150 707.27 174.45 702s44.25-9.31 44.32-9zm3.16 14.64c.07.3-19.67 4.81-44.08 10.08s-44.26 9.31-44.32 9 19.67-4.82 44.09-10.09 44.25-9.29 44.31-8.99zm-37.72 23.47c.06.3-10.52 2.84-23.64 5.67s-23.81 4.89-23.88 4.59 10.52-2.84 23.64-5.67 23.81-4.89 23.88-4.59z"/><path class="cls-7" d="M963.93 665.75L997.67 752.37 1011.73 729.65 1031.22 755.24 1054.46 733.13 1032.32 711.79 1052.75 697.97 963.93 665.75z"/><path class="cls-6" d="M951.24 678.55c.18.29-5.33 4.11-12.3 8.53s-12.78 7.78-13 7.49 5.32-4.11 12.3-8.53 12.81-7.77 13-7.49zm2.62-17.44c-.06.16-2.13-.38-5.43-1.43s-7.79-2.68-12.68-4.68-9.25-3.94-12.38-5.41-5-2.47-5-2.62 2.09.55 5.3 1.82l12.49 5.06 12.52 5c3.26 1.27 5.23 2.09 5.18 2.26zM964 621.78c.17 0 .65 1.79 1.23 4.78s1.27 7.13 1.84 11.73.94 8.79 1.11 11.82.16 4.92 0 4.94c-.35 0-1.17-7.43-2.33-16.61s-2.16-16.6-1.85-16.66zm46.73 19.38c.14.34-6.1 3-13.14 7.54s-12.6 8.45-12.83 8.13c-.1-.13 1.18-1.27 3.36-3s5.24-4 8.81-6.21c7.14-4.54 13.71-6.76 13.8-6.46zM369.61 251.42a29.19 29.19 0 0 0-.71-4.68 18.16 18.16 0 0 0-2.14-5.08 19.09 19.09 0 0 0-22.9-8.1 18.12 18.12 0 0 0-4.81 2.59 21.8 21.8 0 0 0-2.15 1.85 20.78 20.78 0 0 0-1.86 2.2 18.93 18.93 0 0 0 0 22.46 20.78 20.78 0 0 0 1.86 2.2 21.8 21.8 0 0 0 2.15 1.84 18.12 18.12 0 0 0 4.81 2.59 19.14 19.14 0 0 0 22.9-8.1 18.53 18.53 0 0 0 2.15-5.08 29.71 29.71 0 0 0 .7-4.68.94.94 0 0 1 0 .31v.92a9.89 9.89 0 0 1-.13 1.49 12.57 12.57 0 0 1-.37 2 18 18 0 0 1-2.09 5.19 19.08 19.08 0 0 1-4.9 5.55 19.35 19.35 0 0 1-8.18 3.69 19.55 19.55 0 0 1-10.25-.82 18.25 18.25 0 0 1-4.95-2.65 20.64 20.64 0 0 1-2.22-1.88 21 21 0 0 1-1.92-2.23 19.41 19.41 0 0 1 0-23.1 21 21 0 0 1 1.92-2.26 21.66 21.66 0 0 1 2.22-1.88 18.25 18.25 0 0 1 4.95-2.65 19.44 19.44 0 0 1 10.25-.81 19.42 19.42 0 0 1 13.06 9.2 18.32 18.32 0 0 1 2.09 5.19 12.57 12.57 0 0 1 .37 2 9.89 9.89 0 0 1 .13 1.49v.92a.9.9 0 0 1 .02.32z"/><path class="cls-6" d="M350.34 261.1a85.27 85.27 0 0 1-.28-9.68 85.27 85.27 0 0 1 .28-9.68 85.27 85.27 0 0 1 .28 9.68 85.27 85.27 0 0 1-.28 9.68z"/><path class="cls-6" d="M360 251.42a85.27 85.27 0 0 1-9.68.28 85.27 85.27 0 0 1-9.68-.28 85.27 85.27 0 0 1 9.68-.28 85.27 85.27 0 0 1 9.68.28zm541.2 566.9c-.36.23-37.67-57.48-83.33-128.88s-82.39-129.49-82-129.72 37.66 57.46 83.33 128.89 82.36 129.48 82 129.71z"/><circle class="cls-5" cx="917.4" cy="857.74" r="86.58"/><path class="cls-6" d="M830.82 857.74v-1.4c0-.93.08-2.37.13-4.13 0-.91.08-1.92.12-3s.31-2.32.49-3.64a60.29 60.29 0 0 1 1.69-9 81.8 81.8 0 0 1 9.45-23.23 87.1 87.1 0 0 1 58.62-41.24 81.12 81.12 0 0 1 11-1.31c1.88-.07 3.78-.26 5.69-.23l5.77.28a38.33 38.33 0 0 1 5.83.62c1.94.32 3.92.54 5.87.94 3.86 1 7.85 1.82 11.65 3.39a91.37 91.37 0 0 1 11.4 5c1.84 1 3.61 2.16 5.44 3.24a45.7 45.7 0 0 1 5.28 3.62 80.15 80.15 0 0 1 18.48 18.52 84.72 84.72 0 0 1 12.51 24.06 86.49 86.49 0 0 1 0 55.13 84.31 84.31 0 0 1-12.5 24.06 99.53 99.53 0 0 1-8.57 10.12 100.55 100.55 0 0 1-9.92 8.41 45.7 45.7 0 0 1-5.28 3.62c-1.82 1.08-3.59 2.24-5.44 3.24a91.37 91.37 0 0 1-11.4 5c-3.8 1.58-7.79 2.36-11.65 3.39-2 .4-3.93.63-5.87.94a38.48 38.48 0 0 1-5.83.63L918 945c-1.91 0-3.81-.17-5.69-.24a79.71 79.71 0 0 1-11-1.31 87.07 87.07 0 0 1-58.62-41.25 81.88 81.88 0 0 1-9.45-23.2 60.29 60.29 0 0 1-1.69-9c-.18-1.32-.39-2.52-.49-3.64s-.08-2.13-.12-3c-.05-1.76-.1-3.13-.13-4.12s0-1.41 0-1.41.08.48.15 1.4.16 2.36.28 4.11c.06.91.12 1.92.19 3s.36 2.31.56 3.61a63.83 63.83 0 0 0 1.82 8.93 82.5 82.5 0 0 0 9.61 22.92 86.37 86.37 0 0 0 58.11 40.43 80.35 80.35 0 0 0 10.86 1.25c1.86.06 3.72.24 5.61.21l5.68-.29a37.33 37.33 0 0 0 5.74-.63c1.91-.32 3.85-.54 5.77-.94 3.8-1 7.72-1.81 11.46-3.37a89.71 89.71 0 0 0 11.19-4.92c1.82-1 3.55-2.13 5.35-3.2a44.15 44.15 0 0 0 5.18-3.57 78.32 78.32 0 0 0 18.15-18.24 83 83 0 0 0 12.26-23.65 85 85 0 0 0 0-54.16A83.15 83.15 0 0 0 986.52 807a97.14 97.14 0 0 0-8.41-10 96 96 0 0 0-9.73-8.28 44.15 44.15 0 0 0-5.18-3.57c-1.8-1.06-3.54-2.21-5.35-3.19a88.33 88.33 0 0 0-11.19-4.93c-3.74-1.56-7.66-2.33-11.45-3.36-1.93-.4-3.87-.63-5.78-1a37.17 37.17 0 0 0-5.74-.62l-5.68-.3c-1.88 0-3.75.15-5.6.21a80.69 80.69 0 0 0-10.87 1.25 86.43 86.43 0 0 0-58.11 40.43 82.8 82.8 0 0 0-9.61 22.92 63.83 63.83 0 0 0-1.82 9.04c-.2 1.3-.44 2.5-.56 3.61s-.13 2.11-.19 3c-.12 1.76-.21 3.12-.28 4.11s-.15 1.42-.15 1.42z"/><path class="cls-6" d="M893.79 825.93L881.94 893.67 917.4 888.79 952.87 893.67 938.61 825.93 893.79 825.93z"/><path class="cls-6" d="M932.39 826.81c-.26.09-1-2.4-2.85-6a18.78 18.78 0 0 0-4.26-5.5 12.82 12.82 0 0 0-3.46-2 13.73 13.73 0 0 0-4.25-.74 14.65 14.65 0 0 0-8.08 2 12.94 12.94 0 0 0-4.44 5.18c-1.77 3.63-2.36 6.17-2.63 6.09s.05-2.63 1.65-6.56a13.33 13.33 0 0 1 4.63-5.9 15.47 15.47 0 0 1 8.89-2.31 14.71 14.71 0 0 1 4.76.87 14 14 0 0 1 3.86 2.35 18.24 18.24 0 0 1 4.31 6.09c1.7 3.81 2.02 6.39 1.87 6.43zm-360.5-2.69c-.43 0-.77-59.63-.77-133.16s.34-133.18.77-133.18.77 59.62.77 133.18-.34 133.16-.77 133.16z"/><circle class="cls-5" cx="570.12" cy="859.68" r="86.58"/><path class="cls-6" d="M483.54 859.68v-1.41c0-.93.07-2.36.13-4.12 0-.92.07-1.93.12-3s.31-2.33.48-3.64a61.71 61.71 0 0 1 1.69-9 82.23 82.23 0 0 1 9.45-23.22A87.15 87.15 0 0 1 554 774a82.89 82.89 0 0 1 11-1.31c1.88-.07 3.78-.25 5.69-.23l5.77.28a38.46 38.46 0 0 1 5.83.62c1.94.32 3.92.54 5.87.94 3.86 1 7.85 1.82 11.65 3.39a91.31 91.31 0 0 1 11.39 5c1.85 1 3.62 2.15 5.45 3.24a44.37 44.37 0 0 1 5.27 3.62 79.41 79.41 0 0 1 18.49 18.52A84.26 84.26 0 0 1 653 832.1a86.4 86.4 0 0 1 0 55.13 84.39 84.39 0 0 1-12.51 24.07 98.14 98.14 0 0 1-8.57 10.11 95.75 95.75 0 0 1-9.92 8.41 43.57 43.57 0 0 1-5.27 3.62c-1.83 1.08-3.6 2.24-5.44 3.24a91.44 91.44 0 0 1-11.4 5c-3.8 1.57-7.8 2.35-11.65 3.39-2 .4-3.93.62-5.88.94a38.33 38.33 0 0 1-5.82.62l-5.78.28c-1.91 0-3.8-.16-5.69-.23a81.12 81.12 0 0 1-11-1.32 87.1 87.1 0 0 1-58.62-41.24 82.17 82.17 0 0 1-9.45-23.23 62 62 0 0 1-1.69-9c-.17-1.31-.39-2.52-.48-3.64s-.09-2.12-.12-3c-.06-1.76-.1-3.13-.13-4.12s0-1.4 0-1.4.07.47.15 1.4.16 2.35.28 4.1c.06.91.12 1.92.19 3s.36 2.3.56 3.61a62.31 62.31 0 0 0 1.82 8.92 82.49 82.49 0 0 0 9.6 22.92 86.43 86.43 0 0 0 58.11 40.43 79.1 79.1 0 0 0 10.87 1.26c1.85.06 3.72.24 5.6.21l5.69-.3a36 36 0 0 0 5.73-.63c1.91-.32 3.86-.54 5.78-.94 3.79-1 7.72-1.8 11.45-3.36a89.91 89.91 0 0 0 11.2-4.93c1.81-1 3.55-2.13 5.35-3.2a43.77 43.77 0 0 0 5.18-3.57 94.7 94.7 0 0 0 9.73-8.28 96.08 96.08 0 0 0 8.41-10 83.2 83.2 0 0 0 12.27-23.65 85.07 85.07 0 0 0 0-54.16 83.18 83.18 0 0 0-12.26-23.65 99.54 99.54 0 0 0-8.41-10 97.07 97.07 0 0 0-9.74-8.27 43.05 43.05 0 0 0-5.18-3.58c-1.79-1.06-3.53-2.21-5.34-3.19a89.91 89.91 0 0 0-11.2-4.93c-3.73-1.56-7.66-2.33-11.45-3.36-1.92-.4-3.86-.62-5.78-.94a35.88 35.88 0 0 0-5.73-.63l-5.68-.3c-1.89 0-3.75.15-5.6.22a77.24 77.24 0 0 0-10.87 1.25 86.47 86.47 0 0 0-58.11 40.42 82.42 82.42 0 0 0-9.61 22.93 62.31 62.31 0 0 0-1.82 8.92c-.2 1.31-.44 2.51-.56 3.61s-.13 2.12-.19 3c-.12 1.75-.22 3.11-.28 4.1s-.2 1.52-.2 1.52z"/><path class="cls-6" d="M570.12 820.89L532.56 855.02 532.56 898.29 561.81 898.29 561.81 872.36 580.43 872.36 580.43 898.29 607.68 898.29 607.68 855.02 570.12 820.89z"/><path class="cls-6" d="M236.72 821.34c-.36-.23 36.92-59.17 83.26-131.64s84.21-131.05 84.57-130.82-36.92 59.12-83.27 131.65-84.2 131.04-84.56 130.81z"/><circle class="cls-5" cx="222.69" cy="858.58" r="86.58"/><path class="cls-6" d="M309.28 858.58s-.08-.48-.15-1.4-.16-2.36-.28-4.11c-.06-.91-.13-1.92-.2-3s-.36-2.3-.55-3.61a63.71 63.71 0 0 0-1.82-8.92 82.72 82.72 0 0 0-9.61-22.93 86.47 86.47 0 0 0-58.11-40.42 80.69 80.69 0 0 0-10.87-1.25c-1.85-.07-3.72-.25-5.6-.22l-5.69.3a37.2 37.2 0 0 0-5.73.63c-1.91.32-3.86.54-5.78.94-3.79 1-7.71 1.8-11.45 3.37a88.26 88.26 0 0 0-11.19 4.92c-1.82 1-3.55 2.13-5.35 3.2a44.15 44.15 0 0 0-5.18 3.57 94.7 94.7 0 0 0-9.72 8.25 96.08 96.08 0 0 0-8.41 10 83 83 0 0 0-12.27 23.64 85 85 0 0 0 0 54.16 83.18 83.18 0 0 0 12.26 23.65 78.53 78.53 0 0 0 18.15 18.23 43.05 43.05 0 0 0 5.18 3.58c1.79 1.06 3.53 2.21 5.35 3.19a89.79 89.79 0 0 0 11.19 4.93c3.74 1.56 7.66 2.33 11.45 3.36 1.93.4 3.87.63 5.78.94a36.13 36.13 0 0 0 5.74.63l5.68.3c1.88 0 3.75-.15 5.6-.21a80.31 80.31 0 0 0 10.86-1.3 86.52 86.52 0 0 0 58.11-40.43 82.42 82.42 0 0 0 9.61-22.93 63.71 63.71 0 0 0 1.82-8.92c.2-1.31.44-2.5.56-3.61s.13-2.12.19-3c.12-1.75.21-3.11.28-4.1s.15-1.4.15-1.4v1.4c0 .93-.08 2.37-.13 4.12 0 .92-.08 1.93-.12 3s-.31 2.32-.49 3.63a60.4 60.4 0 0 1-1.69 9 81.87 81.87 0 0 1-9.44 23.24 87.1 87.1 0 0 1-58.61 41.25 82.89 82.89 0 0 1-11 1.31c-1.88.07-3.78.26-5.69.23l-5.77-.28a38.46 38.46 0 0 1-5.83-.62c-1.94-.32-3.92-.54-5.87-.94-3.86-1-7.85-1.82-11.65-3.39a90 90 0 0 1-11.4-5c-1.85-1-3.62-2.15-5.44-3.24a43.68 43.68 0 0 1-5.28-3.62 97.89 97.89 0 0 1-9.92-8.41 99.41 99.41 0 0 1-8.57-10.11 84.37 84.37 0 0 1-12.5-24.07 86.49 86.49 0 0 1 0-55.13 84.53 84.53 0 0 1 12.51-24 80.15 80.15 0 0 1 18.48-18.52 44.48 44.48 0 0 1 5.28-3.62c1.83-1.08 3.6-2.24 5.44-3.24a89.92 89.92 0 0 1 11.4-5c3.8-1.58 7.79-2.36 11.65-3.39 1.95-.4 3.93-.63 5.87-.94a38.35 38.35 0 0 1 5.83-.63l5.77-.28c1.91 0 3.81.17 5.69.24a79.56 79.56 0 0 1 11 1.31 87.1 87.1 0 0 1 58.62 41.24 81.87 81.87 0 0 1 9.45 23.22 60.64 60.64 0 0 1 1.69 9c.18 1.31.39 2.52.49 3.64s.08 2.12.12 3c0 1.76.1 3.13.13 4.12s-.02 1.45-.02 1.45z"/><path class="cls-6" d="M188.2 813.5H256.18V903.65H188.2z"/><path class="cls-8" d="M225.5 827.9c0 .43-5 .78-11.16.78s-11.17-.35-11.17-.78 5-.77 11.17-.77 11.16.34 11.16.77zm19.68 12.68c0 .43-10 .77-22.33.77s-22.32-.34-22.32-.77 10-.77 22.32-.77 22.33.34 22.33.77zm0 7.71c0 .43-10 .77-22.33.77s-22.32-.34-22.32-.77 10-.77 22.32-.77 22.33.34 22.33.77zm0 7.71c0 .42-10 .77-22.33.77s-22.32-.35-22.32-.77 10-.78 22.32-.78 22.33.35 22.33.78zm0 7.7c0 .43-10 .78-22.33.78s-22.32-.35-22.32-.78 10-.77 22.32-.77 22.33.35 22.33.77zm0 7.71c0 .43-10 .78-22.33.78s-22.32-.35-22.32-.78 10-.77 22.32-.77 22.33.36 22.33.77zm0 7.71c0 .43-10 .77-22.33.77s-22.32-.34-22.32-.77 10-.77 22.32-.77 22.33.34 22.33.77zm0 7.71c0 .43-10 .77-22.33.77s-22.32-.34-22.32-.77 10-.77 22.32-.77 22.33.34 22.33.77z"/><rect class="cls-5" x="132.95" y="412.01" width="907.92" height="149.08" rx="70.67"/><path class="cls-7" d="M839.71 410.66v150.43h126.85a75.22 75.22 0 0 0 75.22-75.22 75.22 75.22 0 0 0-75.22-75.21z"/><path class="cls-5" d="M957.76 481.7c-.21 0 0-2.83-1.29-7.68a31.62 31.62 0 0 0-11.59-17.13 31.1 31.1 0 0 0-29.46-4.35A31.12 31.12 0 0 0 901 463.37a30.88 30.88 0 0 0 0 36.63 31.21 31.21 0 0 0 14.39 10.83 31.1 31.1 0 0 0 29.46-4.35 31.63 31.63 0 0 0 11.59-17.12c1.26-4.85 1.08-7.7 1.29-7.68a24.75 24.75 0 0 1-.7 7.82 32 32 0 0 1-25.08 24 32.41 32.41 0 0 1-17-1.33 30.22 30.22 0 0 1-8.24-4.39 30.64 30.64 0 0 1-6.89-6.89 32.29 32.29 0 0 1 0-38.43 32.36 32.36 0 0 1 15.13-11.28 32.41 32.41 0 0 1 17-1.33 32.06 32.06 0 0 1 13.6 6.15 31.66 31.66 0 0 1 11.51 17.85 24.81 24.81 0 0 1 .7 7.85z"/><path class="cls-5" d="M987.25 526.12c-.25.35-8.44-5.09-18.3-12.15s-17.65-13.06-17.4-13.41 8.44 5.09 18.3 12.15 17.65 13.07 17.4 13.41z"/><path class="cls-3" d="M219.28 472.59H774.3V504.5H219.28z"/><path class="cls-6" d="M970.2 561.09s1.74-.14 5.13-.34a45.21 45.21 0 0 0 6.27-.78 66 66 0 0 0 8.52-1.93 71.79 71.79 0 0 0 21.76-10.93l3-2.22c.95-.81 1.88-1.7 2.84-2.57a56.2 56.2 0 0 0 5.63-5.78c1.93-2 3.46-4.47 5.28-6.8l2.33-3.86 1.19-2 1-2.1a68.9 68.9 0 0 0 6.23-18.78l.79-5.23c.09-1.78.18-3.58.28-5.4.16-3.64.12-7.42 0-11.23a70.21 70.21 0 0 0-68.05-68.55c-20.27-.2-41.75 0-64.28-.05l-704.42.22a70.35 70.35 0 0 0-46.36 17.64 69.14 69.14 0 0 0-22.94 43.24 47.4 47.4 0 0 0-.51 6.19c-.14 2-.17 4.13-.14 6.22a121.06 121.06 0 0 0 .49 12.39 67.88 67.88 0 0 0 7 23.4A69.42 69.42 0 0 0 199 560.1c3.95.29 8 .25 12 .24H361.79l316.69.17 213.51.24 58 .15 15.1.07c3.4 0 5.14.08 5.14.08s-1.74.06-5.14.08l-15.1.08-58 .14-213.51.25-316.69.17H210.93c-4 0-8 0-12.07-.23a71 71 0 0 1-59-39.06 69.23 69.23 0 0 1-7.19-23.92 122.9 122.9 0 0 1-.51-12.56c0-2.08 0-4.17.15-6.29a47.64 47.64 0 0 1 .51-6.31 70.68 70.68 0 0 1 23.45-44.2 71.78 71.78 0 0 1 47.38-18l704.42.22c22.54.07 44-.07 64.31.17a71 71 0 0 1 68.76 69.51c.11 3.85.13 7.59 0 11.27-.1 1.84-.2 3.66-.3 5.45q-.42 2.67-.81 5.28a69 69 0 0 1-6.35 18.93c-.35.71-.69 1.42-1 2.12l-1.2 2q-1.2 2-2.37 3.88a86.72 86.72 0 0 1-5.35 6.84 60.19 60.19 0 0 1-5.69 5.8c-1 .87-1.92 1.76-2.88 2.57l-3 2.22a71.72 71.72 0 0 1-21.95 10.85 64.23 64.23 0 0 1-8.57 1.87 44.27 44.27 0 0 1-6.3.71c-3.43.17-5.17.2-5.17.2z"/><path class="cls-9" d="M576.84 468.41c-2.7-3.15-3-5.82 3.1-6.36 13.4-1.21 23.28-7.06 24.84-10.45s-2.7-6.7-6.33-4.66c-2.94 1.65-8.69 2.91-13.05 3.69a32.58 32.58 0 0 1-10.88.15c-3.12-.49-5.86-1-8.31-1.53 0 0-14.19-3.06-20.31-7.84l-30 32.06 14.1 15.9s6.72 10 18.79 8.85 28.3-9.85 28.3-9.85c2.2-3.37 21.63 8.61 27.89 13.11s10.88 3.36 10.65-1c-.16-2.95-19-17.16-25.28-21.46-3.44-2.35-10.23-6.86-13.48-10.65"/><path class="cls-10" d="M559.21 496.26c0 .18-.87.57-2.42.52a10 10 0 0 1-5.59-2.07 10.13 10.13 0 0 1-3.51-4.81c-.46-1.48-.34-2.45-.16-2.46.43-.1 1.17 3.52 4.61 6s7.04 2.38 7.07 2.82zm11.88-4.68c0 .19-.85.51-2.33.42a10.24 10.24 0 0 1-8.65-6.73c-.46-1.41-.36-2.34-.17-2.37.43-.1 1.22 3.32 4.47 5.77s6.67 2.47 6.68 2.91z"/><path class="cls-7" d="M783 346.46l-189.15-56.15c-15.68-6.65-27.55-8.31-27.55-8.31l-63.85.43a62.18 62.18 0 0 0-24.45 5.14l-142.85 47.48a61.11 61.11 0 0 0-26 10.3 59.83 59.83 0 0 0-10.3 9.22c-8 16.31-7.58 34 1.63 45.54A33.43 33.43 0 0 0 313.8 410h79.5c-.23.74-.35 1.16-.35 1.16l276.5 1v-.11l105.53.24c16.31 0 29.54-15 29.54-33.54 0-15.03-8.8-28.22-21.52-32.29z"/><path class="cls-6" d="M745.07 366.91a7.36 7.36 0 0 1-1.71-.09l-4.87-.55c-4.22-.54-10.35-1.22-17.91-1.95A539.1 539.1 0 0 0 602 365.88c-7.55.92-13.65 1.76-17.85 2.41l-4.86.68a7.09 7.09 0 0 1-1.71.13 7.45 7.45 0 0 1 1.66-.44l4.81-1c4.18-.83 10.26-1.84 17.81-2.91a475 475 0 0 1 118.82-1.56c7.57.87 13.68 1.72 17.88 2.44l4.83.84a7.11 7.11 0 0 1 1.68.44z"/><g class="cls-11"><path class="cls-5" d="M700.69 321a3.59 3.59 0 0 1-.53.63l-1.66 1.76c-1.49 1.52-3.7 3.76-6.69 6.48a106.67 106.67 0 0 1-11.49 9.26 57.1 57.1 0 0 1-17.66 8.42c-7 2-15.37 1.77-23.63-.48s-16.51-6.42-24.88-11-17.09-9.64-26.95-12.63a41.55 41.55 0 0 0-30.8 1.56c-9.95 4.48-18.42 11.33-27.67 16.26-2.29 1.27-4.72 2.26-7.06 3.32-2.44.86-4.81 1.82-7.27 2.42a70.41 70.41 0 0 1-14.56 2.51 75 75 0 0 1-48.39-13.31c-5.95-4.24-10.46-9-14.61-13a71 71 0 0 0-11.32-9.2c-6.89-4.27-11.7-4.06-11.59-4.35a17.27 17.27 0 0 1 3.23.39 27.14 27.14 0 0 1 8.67 3.44 69.18 69.18 0 0 1 11.6 9.14c4.22 3.89 8.77 8.61 14.65 12.71a74.36 74.36 0 0 0 47.65 12.78 69.52 69.52 0 0 0 14.27-2.53c2.41-.59 4.73-1.55 7.1-2.39 2.3-1.05 4.66-2 6.91-3.27 9.09-4.85 17.55-11.72 27.76-16.33a43 43 0 0 1 31.88-1.59c10.09 3.09 18.79 8.34 27.18 12.83s16.42 8.78 24.54 11 16.11 2.5 23 .65a56.57 56.57 0 0 0 17.44-8.08 111.61 111.61 0 0 0 11.58-9c3-2.64 5.31-4.81 6.87-6.25l1.77-1.65a3 3 0 0 1 .66-.5z"/></g><path class="" d="M406.8 366.53L526.35 389.06 512.54 411.56 508.9 411.61 406.8 366.53z"/><g class="cls-11"><path class="cls-5" d="M768.68 342.9a8 8 0 0 1 .06 1.84 40.25 40.25 0 0 1-.52 5.23 45.85 45.85 0 0 1-46.6 37.84 77.12 77.12 0 0 1-17.94-3.28c-6-1.69-11.74-3.55-17.42-4.7a50.53 50.53 0 0 0-16.52-.86A52.87 52.87 0 0 0 644 389.53a51.85 51.85 0 0 0-12.8 14l-1.55 2.58-1 2a8.09 8.09 0 0 1-.9 1.59 7.7 7.7 0 0 1 .62-1.72l.86-2.05 1.44-2.67a49.78 49.78 0 0 1 12.65-14.55 53 53 0 0 1 26.28-11.11 51.33 51.33 0 0 1 17 .79c5.8 1.15 11.59 3 17.54 4.69a76.1 76.1 0 0 0 17.57 3.25 45.3 45.3 0 0 0 38.44-19.05 46.9 46.9 0 0 0 7.51-17.38c.87-4.47.86-7.01 1.02-7z"/></g><path class="cls-7" d="M306 406.12s216.13 95.36 215 93.2 34.32-64.71 34.32-64.71l-175.14-86.54z"/><path class="cls-6" d="M405.17 360.42a27.89 27.89 0 0 1 4.45 1.86l11.9 5.61c10 4.79 23.8 11.51 39 19s28.9 14.38 38.79 19.43l11.69 6a29 29 0 0 1 4.19 2.41 27.89 27.89 0 0 1-4.45-1.86l-11.89-5.61c-10-4.79-23.8-11.51-39-19s-28.9-14.38-38.79-19.43l-11.68-6.05a29 29 0 0 1-4.21-2.36z"/><g class="cls-11"><path class="cls-5" d="M452.63 389.35a18.44 18.44 0 0 1-2 6.41c-1.83 3.93-6 9.09-12.89 12.88a39.55 39.55 0 0 1-12 4.27 47.53 47.53 0 0 1-14.62.18c-10.27-1.32-20.87-5.61-31.52-10.58s-20.79-9.79-30.65-12.09a55.13 55.13 0 0 0-14.15-1.64 44.09 44.09 0 0 0-12.23 2.07 33.38 33.38 0 0 0-15.08 9.44c-2.81 3.22-3.75 5.47-3.91 5.37a20.15 20.15 0 0 1 3.42-5.76 32.93 32.93 0 0 1 15.2-10.09 44.32 44.32 0 0 1 12.52-2.31 55.37 55.37 0 0 1 14.55 1.5c10.07 2.28 20.35 7.11 31 12.08s21 9.2 31.05 10.56a46.62 46.62 0 0 0 14.21 0 38.94 38.94 0 0 0 11.7-4 30.63 30.63 0 0 0 12.88-12.2c1.99-3.73 2.33-6.15 2.52-6.09z"/></g><g class="cls-11"><path class="cls-5" d="M544.39 454.71c0 .29-4.79-.5-12.51-.63a107.15 107.15 0 0 0-13.52.69 112.25 112.25 0 0 0-16.23 3.23 114 114 0 0 0-15.52 5.77 105.85 105.85 0 0 0-11.87 6.51c-6.5 4.15-10.13 7.32-10.32 7.09a14.47 14.47 0 0 1 2.42-2.37 69.82 69.82 0 0 1 7.3-5.64 92.62 92.62 0 0 1 11.86-6.89 96.4 96.4 0 0 1 32.21-9.12 92.14 92.14 0 0 1 13.7-.36 69 69 0 0 1 9.18 1 15 15 0 0 1 3.3.72z"/></g><path class="cls-9" d="M579.25 412.29v-43.63s-64.79 13.44-66 43.11z"/><path class="cls-13" d="M592.17 177.46a37.79 37.79 0 0 0 7.69-16.17c1.74-9-.54-16.51-1.73-20.29-5.28-16.73-17.78-25.82-24.37-30.61A81.87 81.87 0 0 0 547.37 98c-8.43-2.25-17.6-2.27-35.94-2.31-11.84 0-15.27.56-18.93 1.88-9.28 3.36-15.08 9.65-19 14-7.73 8.6-7.88 12.91-17.25 28.26-7.25 11.88-7.36 9.62-15.31 22.19-9.05 14.32-8.8 17.08-19.19 34.34-7.3 12.13-11.07 18.31-17.21 24.2-8.46 8.12-11.2 6.69-20.92 14-4.38 3.3-25.76 19.45-30.62 44.38-2.36 12.11 1.62 13.76-2.08 24.32s-10.55 17.46-19.13 26.22c-9.71 9.92-12.13 9.67-17.15 16.09-7.41 9.48-10.42 20.6-11.59 30.34a57.25 57.25 0 0 1 15.3-20.17c8.77-7.16 15.27-7.44 22.79-12s16.71-13.82 23-34.3c-1 24.63-8.43 36.35-15.47 42.47-10.07 8.76-21.5 7.89-30.43 20.05-5.52 7.51-7.2 16.09-7.74 22.25a53.07 53.07 0 0 1 15.25-14.08c9-5.36 13.63-4.11 26.56-9.94 6.56-2.95 12-5.42 17.11-10 3.8-3.43 12.46-12.64 15.39-32.33 3.39 20.15-.18 32.74-4.1 40.53s-7.62 9.58-9.6 18.18c-3 13 1.66 25.44 3.55 30.45a65.32 65.32 0 0 0 7.46 14.26c-2-6.08-3.89-14.85-1.71-24.35 2.3-10 7.73-14.61 13.43-24.24 5.16-8.69 7.16-17.32 11.57-34.28a289.1 289.1 0 0 0 7.28-38.23 821 821 0 0 1 44.05-14.28c17.88-5.25 35.05-9.63 51.37-13.29 43.71-53.9 75.25-93.77 84.06-105.15z"/><path class="cls-13" d="M480.65 102.7c-15 7.8-24.84 22.33-33.57 37.08-10.91 18.43-22.38 35.32-37.87 49.75-3.47 3.24-6.94 6.26-9.87 10.1s-5.37 8.24-8.63 11.9c-5.28 5.92-12.5 9.76-19 13.84-6.9 4.32-13.25 9.48-17.3 17.06-4.24 7.94-6.39 17.44-7.83 26.38-1.85 11.51-3.54 22.71-8.24 33.39a90.8 90.8 0 0 1-19 27.62c-3.15 3.15 1.47 8.09 4.66 5.07a97 97 0 0 0 27.07-45.52c2.49-9.35 3.06-19.4 6.35-28.5 3.39-9.36 11.61-12.44 18.95-17.27 6.55-4.3 13.58-8 19.32-13.59 7-6.75 8.5-15.59 13-23.95 5-9.38 13.67-16.7 20-25.1A285.83 285.83 0 0 0 445 156.49c10.73-17.82 20.22-38.26 38.73-48.11 3.54-1.88.49-7.51-3-5.68z"/><path class="cls-14" d="M569.21 209.73a124 124 0 0 0-6.7 46.91 121.51 121.51 0 0 0 4.25 26.09 32.06 32.06 0 0 1-32.06-14.45c-11.36-18.19 1.46-39.32 2.21-40.54 9.71-15.86 28.77-17.74 32.3-18.01z"/><path class="cls-15" d="M579.27 132.74a121.38 121.38 0 0 1 18.57 44.76c2.74 14.18 7.79 40.35-6.13 58.77a39.3 39.3 0 0 1-19 14 36.44 36.44 0 0 1-22.7-.17 39.71 39.71 0 0 0 2.92 15.9 37 37 0 0 0 13.83 16.76c-2.33 2.77-10.39 11.67-23.44 13.46-20.19 2.77-33.8-14.05-34.82-15.36a58.62 58.62 0 0 0 1.33-35 54.34 54.34 0 0 0-12.63-22.49c-.66.18-10.07 2.69-17-4.19a19.93 19.93 0 0 1-3.62-22.34c.84-1.63 3.7-6.55 9.53-8a14.25 14.25 0 0 1 11.33 2.12 215.17 215.17 0 0 1 30.47-24.11c10.8-7 18.1-10.32 32.32-20 8.21-5.66 14.77-10.67 19.04-14.11z"/><path class="cls-16" d="M491.62 211.16a7 7 0 0 0-5.72 6c-.53 3.89 2.16 7.64 5.61 8.16 4.15.63 8.15-3.6 7.63-8.05a6.93 6.93 0 0 0-7.52-6.11z"/><path class="cls-14" d="M495.47 203.08c1.2-1.43-1.9-10.22-7.49-10.2-3.41 0-6.85 3.29-7.63 8.05a27.67 27.67 0 0 1 5.67 0c5.98.73 8.65 3.07 9.45 2.15z"/><path class="cls-6" d="M598.92 183.77c-.41.46-2.79-1.73-6.24-1.89s-6 1.69-6.39 1.18c-.18-.22.24-1.07 1.37-1.93a7.8 7.8 0 0 1 5.12-1.54 8 8 0 0 1 5 2.1c1 .99 1.34 1.88 1.14 2.08zm-38.22-.29c-.41.46-2.8-1.73-6.25-1.9s-6 1.69-6.39 1.19c-.18-.23.24-1.07 1.37-1.94a7.89 7.89 0 0 1 10.08.57c1.04.99 1.38 1.87 1.19 2.08zm12.74 27.89c0-.23 2.14-.55 5.63-.88.89-.06 1.72-.22 1.89-.9a5.93 5.93 0 0 0-.52-3q-1.17-3.74-2.44-7.83c-3.37-11.16-5.79-20.31-5.4-20.45s3.44 8.78 6.81 19.93q1.22 4.13 2.33 7.87a6.72 6.72 0 0 1 .37 4 2.26 2.26 0 0 1-1.49 1.4 5.23 5.23 0 0 1-1.5.17c-3.5 0-5.67-.09-5.68-.31zM562.91 172c-.33 1.07-4.09.65-8.56.82s-8.21.78-8.6-.27 3.27-3.54 8.49-3.69 9.02 2.14 8.67 3.14zm36.02-.5c-.39.38-1.17.12-2.06-.13a7.87 7.87 0 0 0-3.14-.24 35.12 35.12 0 0 1-4 .35c-1.14 0-1.92-.29-2.06-.82s.37-1.2 1.33-1.88a9.57 9.57 0 0 1 4.38-1.6 5.58 5.58 0 0 1 5 1.9c.87 1.14.91 2.08.55 2.42z"/><path class="cls-17" d="M567.4 218.38a7.29 7.29 0 0 1 6.5-.94 5.25 5.25 0 0 1 3.18 5.71 5.66 5.66 0 0 1-2.11 3.16 6.39 6.39 0 0 1-5.37 1.36 5.38 5.38 0 0 1-4-3.93 4.73 4.73 0 0 1 2.13-5.15"/><path class="cls-6" d="M580 221.41c.06.15-.83.78-2.49 1.14a10.48 10.48 0 0 1-6.51-.73 11.39 11.39 0 0 1-5-4.52c-.9-1.53-1.09-2.65-1-2.71s.64.87 1.65 2.16a13.19 13.19 0 0 0 4.79 3.85 12.24 12.24 0 0 0 5.92 1c1.64-.08 2.57-.38 2.64-.19zm-14.29-12.75c.15 0 .25.56 0 1.4a5.59 5.59 0 0 1-1.75 2.76 5 5 0 0 1-2.87 1.28c-.81.05-1.28-.16-1.28-.33 0-.37 1.79-.54 3.38-2s2.17-3.18 2.52-3.11z"/></svg>