<svg id="Layer_1" data-name="Layer 1" xmlns="http://www.w3.org/2000/svg" viewBox="0 0 1080 1080"><defs><style>.cls-1{fill:#fbb626}.cls-2{fill:#1a2e35}.cls-3{fill:#e1e1e1}.cls-4{fill:#ececec}.cls-5{fill:#f5f5f5}.cls-6{fill:#ff2439}.cls-7{fill:#ff4f5b}.cls-8{opacity:.3}.cls-9{fill:#fafafa}.cls-10{fill:#375a64}.cls-11{fill:#ffbf9d}.cls-12{fill:#ff9a6c}.cls-13{fill:#fff}.cls-14{fill:#0f0304}.cls-15{fill:#5b2445}</style></defs><path class="cls-1" d="M238.86 783.14c26.06-26.3 25.78-66.25 18.26-100.84-1.26-5.77-1.74-12-5.43-16.61s-10.77-6.9-15.53-3.51c-3.94 2.82-4.91 8.18-6.57 12.77a34.49 34.49 0 0 1-11.25 15.5c-3.35 2.59-7.72 4.6-11.73 3.25-5.52-1.85-7.37-8.67-8.39-14.45q-2.83-16.18-5.68-32.35c-1-5.78-2.08-11.68-4.87-16.84S180 620.53 174.2 620s-12 3.87-12.13 9.74c-.06 2.44.87 4.8 1.15 7.22s-.36 5.29-2.52 6.37-4.79-.12-6.83-1.49c-7-4.75-12.44-11.53-17.58-18.31s-10.21-13.77-16.78-19.15-15-9.06-23.34-8-16.25 7.75-16.86 16.26 5.65 15.93 12 21.58a131.32 131.32 0 0 0 31.52 20.7c2.06 1 4.28 2 5.37 4 2 3.62-1 8.11-4.57 10.07-4 2.22-8.8 2.62-13.21 4s-8.93 4.23-9.85 8.8c-1.3 6.34 4.77 11.63 10.37 14.8a112.61 112.61 0 0 0 36.14 12.92c4.53.78 9.25 1.33 13.23 3.69s7 7.18 5.65 11.62-6.4 6.73-11 6.71-9-1.7-13.56-2.53c-8.49-1.55-18.64.86-22.48 8.65-2.52 5.12-1.67 11.46 1 16.53s6.94 9.07 11.36 12.68c15.45 12.61 33.93 21.67 53.52 24.7s37 1.65 54.05-8.38"/><path class="cls-2" d="M244 808.86A258.64 258.64 0 0 0 225.9 763c-8.32-16.63-19-34.11-30.71-52l-8.75-13.22c-2.88-4.33-5.73-8.63-8.79-12.65a261 261 0 0 0-18.88-22.15c-6.34-6.75-12.61-12.93-18.51-18.66s-11.53-10.95-16.86-15.5a207.42 207.42 0 0 0-26.68-19.62c-3.32-2.05-6-3.56-7.74-4.56l-2-1.13a4.64 4.64 0 0 0-.71-.35 3.64 3.64 0 0 0 .66.45l2 1.22c1.76 1.06 4.35 2.63 7.63 4.73a220.79 220.79 0 0 1 26.41 19.8c5.28 4.58 10.85 9.83 16.73 15.57s12.11 12 18.42 18.7a267.52 267.52 0 0 1 18.75 22.1c3 4 5.86 8.27 8.74 12.62l8.75 13.21c11.74 17.88 22.37 35.3 30.72 51.85a262.7 262.7 0 0 1 18.26 45.66"/><path class="cls-2" d="M177.34 685.1a12.45 12.45 0 0 0 .12-2.57c0-1.65-.05-4-.17-7-.23-5.9-.83-14-1.52-23s-1.17-17.11-1.31-23c-.08-2.95-.12-5.33-.13-7a12 12 0 0 0-.13-2.57 11 11 0 0 0-.29 2.56c-.12 1.64-.2 4-.22 7-.05 5.91.31 14.08 1 23.06s1.35 16.86 1.84 23c.2 2.77.37 5.1.51 7a11.22 11.22 0 0 0 .3 2.52zm-76.82-.35a17.09 17.09 0 0 0 3-.19c1.94-.17 4.74-.45 8.21-.67 6.94-.51 16.55-.87 27.16-.8s20.23.56 27.17 1.12c3.48.25 6.28.53 8.22.71a16.34 16.34 0 0 0 3 .18 15.46 15.46 0 0 0-3-.61c-1.93-.31-4.73-.7-8.2-1-6.94-.75-16.58-1.36-27.23-1.45a266 266 0 0 0-27.24 1.13c-3.47.32-6.27.71-8.2 1a15.45 15.45 0 0 0-2.89.58zm124.22 77.01a4.44 4.44 0 0 0 .34-1l.78-2.92c.67-2.54 1.54-6.24 2.55-10.82 2-9.16 4.45-21.91 6.92-36s4.76-26.85 6.6-36c.91-4.47 1.66-8.15 2.21-10.88.24-1.18.43-2.16.59-3a3.81 3.81 0 0 0 .13-1.06 3.81 3.81 0 0 0-.35 1l-.78 2.92c-.66 2.54-1.53 6.24-2.55 10.82-2 9.16-4.44 21.91-6.91 36s-4.76 26.86-6.6 36.05c-.91 4.47-1.66 8.15-2.21 10.88-.24 1.19-.43 2.17-.59 3a3.75 3.75 0 0 0-.13 1.01zm-104.52-13.84a3.78 3.78 0 0 0 1.06.23l3 .44 11.19 1.5c9.46 1.27 22.49 3.17 36.89 5.29s27.48 3.91 37 5c4.74.54 8.58.94 11.24 1.16l3.06.23a4.06 4.06 0 0 0 1.08 0 3.78 3.78 0 0 0-1.06-.23l-3-.44-11.19-1.5c-9.45-1.26-22.49-3.17-36.9-5.29s-27.46-3.91-37-5c-4.74-.54-8.58-.93-11.24-1.15l-3.06-.24a4.73 4.73 0 0 0-1.07 0z"/><path class="cls-3" d="M159.57 724.4H336.65V1060.47H159.57z"/><path class="cls-4" d="M253.62 724.4H336.65V1060.47H253.62z"/><path class="cls-5" d="M196.7 756.02H212.61999999999998V794.6999999999999H196.7z"/><path class="cls-5" d="M196.7 907.42H212.61999999999998V946.0999999999999H196.7z"/><path class="cls-5" d="M253.62 809.89c0 .33-21.06.6-47 .6s-47-.27-47-.6 21.05-.61 47-.61 47 .27 47 .61z"/><path class="cls-5" d="M196.7 832.29H212.61999999999998V870.9699999999999H196.7z"/><path class="cls-5" d="M253.62 886.16c0 .33-21.06.6-47 .6s-47-.27-47-.6 21.05-.6 47-.6 47 .27 47 .6z"/><path class="cls-3" d="M271.25 756.02H287.17V794.6999999999999H271.25z"/><path class="cls-3" d="M305.79 756.02H321.71000000000004V794.6999999999999H305.79z"/><path class="cls-3" d="M271.25 829.42H287.17V868.0999999999999H271.25z"/><path class="cls-3" d="M305.79 829.42H321.71000000000004V868.0999999999999H305.79z"/><path class="cls-3" d="M271.25 902.83H287.17V941.51H271.25z"/><path class="cls-3" d="M305.79 902.83H321.71000000000004V941.51H305.79z"/><path class="cls-3" d="M146.25 716.27H349.95V724.6899999999999H146.25z"/><path class="cls-4" d="M337.88 725.49c0 .33-39.58.6-88.39.6s-88.4-.27-88.4-.6 39.57-.61 88.4-.61 88.39.27 88.39.61z"/><path class="cls-4" d="M43.19 850.44H201.72V1059.53H43.19z"/><path class="cls-3" d="M127.39 850.44H201.72V1059.53H127.39z"/><path class="cls-5" d="M76.43 878.75H90.68V913.38H76.43z"/><path class="cls-5" d="M76.43 1014.28H90.68V1048.91H76.43z"/><path class="cls-5" d="M127.39 927c0 .39-18.85.7-42.09.7s-42.11-.31-42.11-.7 18.85-.71 42.11-.71 42.09.29 42.09.71z"/><path class="cls-5" d="M76.43 947.03H90.68V981.66H76.43z"/><path class="cls-5" d="M127.39 995.25c0 .39-18.85.71-42.09.71s-42.11-.32-42.11-.71 18.85-.7 42.11-.7 42.09.31 42.09.7z"/><path class="cls-5" d="M143.18 878.75H157.43V913.38H143.18z"/><path class="cls-5" d="M174.1 878.75H188.35V913.38H174.1z"/><path class="cls-5" d="M143.18 944.46H157.43V979.09H143.18z"/><path class="cls-5" d="M174.1 944.46H188.35V979.09H174.1z"/><path class="cls-5" d="M143.18 1010.17H157.43V1044.8H143.18z"/><path class="cls-5" d="M174.1 1010.17H188.35V1044.8H174.1z"/><path class="cls-3" d="M31.28 843.16H213.64000000000001V850.6999999999999H31.28z"/><path class="cls-4" d="M202.83 851.41c0 .39-35.43.7-79.13.7s-79.14-.31-79.14-.7 35.43-.71 79.14-.71 79.13.3 79.13.71z"/><path class="cls-5" d="M865.16 616.14c-45.82-32-56.22-91.43-54.4-144.84.3-8.92-.68-18.32 3.56-26.14s14.14-13.17 22.12-9.41c6.62 3.11 9.51 10.81 13.21 17.18a52.2 52.2 0 0 0 20.91 20c5.68 2.94 12.7 4.74 18.31 1.65 7.69-4.24 8.59-14.87 8.54-23.73q-.17-24.79-.31-49.58c-.06-8.87-.08-17.93 2.68-26.34s8.85-16.24 17.28-18.6 18.87 2.5 20.65 11.18c.74 3.61 0 7.36.25 11s2 7.76 5.46 8.78 7.09-1.47 9.74-4.07c9.15-8.95 15.36-20.48 21.17-31.95s11.44-23.22 19.74-33 19.79-17.51 32.49-18.23 26.23 7.12 29.44 19.59-4.07 25.19-12 35.3a197.85 197.85 0 0 1-41.21 39.29c-2.8 2-5.83 4.13-6.9 7.41-1.92 5.91 3.68 11.78 9.52 13.73 6.61 2.2 13.78 1.51 20.69 2.33s14.41 3.86 17 10.39c3.63 9.07-3.95 18.57-11.41 24.79a169.55 169.55 0 0 1-50.18 29c-6.52 2.39-13.39 4.48-18.65 9.06s-8.43 12.56-5.25 18.8 11.33 8.25 18.17 7 12.94-5 19.46-7.43c12.18-4.6 27.92-3.76 35.72 6.77 5.13 6.93 5.59 16.57 3 24.82s-7.85 15.36-13.44 21.91C1001 585.71 976 604.16 947.71 614s-54.46 12.45-82.55 2.18"/><path class="cls-3" d="M864.46 655.74c1.93-21.16 6.57-46.15 14.49-73.08s18.93-55.79 31.54-85.55l9.42-22c3.11-7.21 6.19-14.37 9.63-21.18a398.27 398.27 0 0 1 22.05-38c7.6-11.74 15.24-22.62 22.45-32.73s14.17-19.39 20.84-27.58a315.36 315.36 0 0 1 34.34-36.3c4.38-3.95 7.87-6.9 10.27-8.88l2.73-2.22a7.11 7.11 0 0 1 1-.71 6.69 6.69 0 0 1-.86.84l-2.63 2.35a361.25 361.25 0 0 0-10 9.1 331.24 331.24 0 0 0-33.87 36.56c-6.6 8.21-13.46 17.52-20.64 27.64s-14.75 21-22.29 32.76a402.43 402.43 0 0 0-21.93 37.9c-3.42 6.78-6.47 13.87-9.58 21.11l-9.41 22c-12.6 29.73-23.68 58.48-31.6 85.33s-12.7 51.69-14.77 72.76"/><path class="cls-3" d="M930 453.87a18.18 18.18 0 0 1-.87-3.78c-.46-2.45-1-6-1.64-10.44-1.26-8.83-2.57-21.08-4-34.59s-2.88-25.72-4.27-34.5c-.68-4.4-1.26-7.95-1.7-10.4a17.4 17.4 0 0 1-.5-3.85 18.08 18.08 0 0 1 1.12 3.72c.63 2.41 1.39 5.94 2.21 10.33 1.69 8.76 3.36 21 4.76 34.52 1.35 13.34 2.56 25.41 3.49 34.63.45 4.16.83 7.67 1.13 10.48a17.94 17.94 0 0 1 .27 3.88z"/><path class="cls-3" d="M1044 432.56a24.32 24.32 0 0 1-4.55.55c-2.93.26-7.16.61-12.38 1.22-10.44 1.12-24.81 3.19-40.56 6.15s-29.9 6.32-40.06 9c-5.09 1.31-9.18 2.48-12 3.28a24.56 24.56 0 0 1-4.45 1.09 24.54 24.54 0 0 1 4.26-1.71c2.78-1 6.83-2.33 11.9-3.79 10.11-3 24.26-6.5 40.06-9.51a400.26 400.26 0 0 1 40.75-5.69c5.25-.46 9.51-.64 12.46-.7a24.84 24.84 0 0 1 4.57.11zm-163.65 148a6.07 6.07 0 0 1-.78-1.39l-2-4.13c-1.68-3.59-4-8.84-6.72-15.37-5.5-13.06-12.53-31.34-20-51.62s-14.34-38.61-19.56-51.76c-2.56-6.4-4.67-11.66-6.23-15.57l-1.67-4.24A5.68 5.68 0 0 1 823 435a6.07 6.07 0 0 1 .78 1.39l1.95 4.12c1.68 3.59 4 8.85 6.71 15.38 5.5 13.06 12.53 31.34 20 51.63s14.34 38.59 19.56 51.75c2.56 6.4 4.66 11.66 6.23 15.57.67 1.69 1.22 3.1 1.67 4.24a6.34 6.34 0 0 1 .45 1.48z"/><path class="cls-3" d="M1031.85 531.73a6 6 0 0 1-1.51.62l-4.4 1.48-16.22 5.25c-13.7 4.45-32.55 10.8-53.36 17.85s-39.75 13.23-53.55 17.39c-6.89 2.08-12.49 3.71-16.38 4.76l-4.49 1.18a6.3 6.3 0 0 1-1.59.3 5.55 5.55 0 0 1 1.5-.62l4.4-1.48 16.22-5.25c13.7-4.44 32.55-10.8 53.37-17.85s39.74-13.23 53.54-17.39c6.89-2.08 12.49-3.71 16.38-4.76l4.49-1.18a6.26 6.26 0 0 1 1.6-.3z"/><path class="cls-6" d="M681.76 1064.72s-5.4-17.55-4.31-25 11.07-14.18 11.07-14.18L677.68 744.1s-1.4-123.1 63.76-161.37l38.88-9.79 95.93-5.68c3.1 1 115.83 43.43 131.34 60L959 875.44s5.91 73.35 11.81 126c1.2 10.77 9.28 64 9.28 64z"/><path class="cls-7" d="M980.65 1066h-.58l-298.67-.77-.11-.35c-.23-.72-5.43-17.75-4.34-25.2 1-7 9.5-13.27 11.06-14.36l-10.83-281.2a332.76 332.76 0 0 1 7.46-66.46c7.13-32.54 22.73-75.5 56.54-95.36h.13l38.89-9.8 96.11-5.7h.1c1.09.37 115.56 43.07 131.54 60.12l.18.18v.25l-48.64 248.12c.21 2.63 6 74.57 11.79 126 1.19 10.64 9.2 63.45 9.28 64zm-298.51-1.77l297.35.76c-.88-5.8-8.07-53.38-9.2-63.44-5.83-52.1-11.75-125.32-11.81-126.06v-.13l48.56-248c-16-16.48-127.18-58.3-130.87-59.64l-95.83 5.67-38.72 9.77c-33.46 19.69-48.93 62.35-56 94.67a331.43 331.43 0 0 0-7.44 66.23L689 1025.82l-.23.16c-.1.06-9.82 6.71-10.86 13.83-.91 6.66 3.48 21.9 4.23 24.41z"/><path d="M969 984.92c-.91 6.84-3.51 15.18-10.08 17.3s-13.71 1.51-20.51.3c-24-4.28-46.16-15.58-67.88-26.74-40.6-20.85-81.57-41.94-116.61-71.18-4.93-4.11-10.19-10.52-7.18-16.18 3.42-6.42 13-4.27 19.64-1.22 68.85 31.74 133.78 66 202.62 97.72" class=""/><path class="cls-6" d="M726.88 590.4s-42.94 14.33-56.82 54.11c-15.34 44-25.52 129.27-25.52 129.27l42.46 5.33z"/><path class="cls-7" d="M687.36 779.67L644 774.22l.06-.5c.1-.85 10.37-85.88 25.55-129.38 13.8-39.55 56.7-54.27 57.13-54.41l.83-.28zm-42.26-6.32l41.47 5.21 39.64-187.38c-6 2.26-43.1 17.46-55.68 53.49C656 686.34 646 766.3 645.1 773.35z"/><path class="cls-6" d="M1007.59 627.24s23 30.28 34.24 67.1 17.6 143.47 17.6 143.47l-115.5-1.61-6.13-93.85s-11.66-156.6 69.79-115.11z"/><path class="cls-7" d="M1060 838.32h-.54l-116-1.61-6.17-94.32c-.07-.94-6.62-94.5 27.92-117.48 11.19-7.44 25.52-6.81 42.59 1.89l.18.15c.23.3 23.21 30.77 34.31 67.25s17.57 142.52 17.63 143.59zm-115.6-2.61l114.5 1.59c-.51-8.25-6.9-107.82-17.55-142.82-10.75-35.32-32.7-65-34.09-66.85-16.69-8.47-30.64-9.11-41.49-1.9-34 22.66-27.55 115.65-27.48 116.58z"/><path class="cls-9" d="M659.69 682.85a13.27 13.27 0 0 1 3.19-3 15.75 15.75 0 0 1 12.12-2.34c5.6.83 11 5.22 18.2 8 3.54 1.37 7.68 2.43 11.9 1.47s7.88-3.94 11.74-6.88a32 32 0 0 1 6.43-4 10.21 10.21 0 0 1 8-.34c2.68 1 4.66 3.23 6.2 5.54s2.87 4.84 4.54 7.1a12.67 12.67 0 0 0 6.52 5 15.28 15.28 0 0 0 8.58-.07 32.67 32.67 0 0 0 8.36-3.6c2.65-1.57 5.23-3.48 8-5.19a38.07 38.07 0 0 1 8.93-4.33 16.85 16.85 0 0 1 10.23 0 26.61 26.61 0 0 1 8.88 5.43c2.66 2.24 5.12 4.7 7.85 6.83a20.07 20.07 0 0 0 9.14 4.48 19.1 19.1 0 0 0 10.24-1.06c6.68-2.51 12.57-7 19.13-10.67a36.29 36.29 0 0 1 10.45-4.22 20.64 20.64 0 0 1 11.13.88c7 2.73 12.18 8 18.4 11a22 22 0 0 0 4.78 1.71 19.29 19.29 0 0 0 5 .32 27.8 27.8 0 0 0 9.57-2.74c6.08-2.75 11.58-6.6 17.86-8.67a19.43 19.43 0 0 1 9.7-.86 18.1 18.1 0 0 1 8.44 4.31c4.71 3.94 8.42 8.93 13.81 10.61a16.15 16.15 0 0 0 8.08.23 58.91 58.91 0 0 0 7.73-2.31c5-1.74 10.14-3.54 15.17-2.39a16.22 16.22 0 0 1 6.52 3.21c1.86 1.45 3.5 3 5.14 4.46a28.13 28.13 0 0 0 5.07 3.72 17.19 17.19 0 0 0 5.57 1.79 23.11 23.11 0 0 0 10.48-1.07 31.32 31.32 0 0 0 8-4.07 71 71 0 0 0 9.45-8.18l2.31-2.31a6.89 6.89 0 0 1 .81-.76 6.77 6.77 0 0 1-.71.85l-2.22 2.41a64.72 64.72 0 0 1-9.35 8.41 31.11 31.11 0 0 1-8.07 4.25 23.65 23.65 0 0 1-10.8 1.21 17.71 17.71 0 0 1-5.83-1.83 28.28 28.28 0 0 1-5.26-3.78c-3.31-2.81-6.61-6.43-11.31-7.39s-9.67.67-14.62 2.44a57.55 57.55 0 0 1-7.86 2.39 17.33 17.33 0 0 1-8.63-.22 21.13 21.13 0 0 1-7.59-4.67c-2.24-2-4.31-4.18-6.63-6.09a16.9 16.9 0 0 0-7.92-4 18.2 18.2 0 0 0-9.09.86c-6 2-11.51 5.82-17.72 8.65a28.88 28.88 0 0 1-10 2.87 20.48 20.48 0 0 1-5.35-.34 22.67 22.67 0 0 1-5.07-1.8c-6.48-3.1-11.66-8.36-18.3-10.91a19.25 19.25 0 0 0-10.4-.81 35.23 35.23 0 0 0-10.07 4c-6.45 3.55-12.36 8.13-19.32 10.75a20.24 20.24 0 0 1-10.94 1.1 21.14 21.14 0 0 1-9.7-4.74c-5.56-4.35-10-10-16.31-12.07a15.5 15.5 0 0 0-9.48 0 36.88 36.88 0 0 0-8.64 4.18c-2.73 1.67-5.27 3.56-8 5.18a33.78 33.78 0 0 1-8.67 3.7 16.43 16.43 0 0 1-9.22 0 13.78 13.78 0 0 1-7.06-5.47c-1.73-2.36-3-4.9-4.53-7.15s-3.32-4.3-5.7-5.18a9.19 9.19 0 0 0-7.22.29 30.76 30.76 0 0 0-6.24 3.88c-3.85 2.88-7.62 6-12.13 7s-8.77-.18-12.36-1.6c-7.27-2.87-12.6-7.28-18-8.14a15.67 15.67 0 0 0-11.91 2 28.11 28.11 0 0 0-3.42 2.74zm-13.61 69.4a7.5 7.5 0 0 1 1.14.07l3.31.33c2.92.18 7.23 1.4 12.63-.32 2.72-.6 5.78-1.14 9.11-1.72s6.93-1.39 10.88-1.86a30.1 30.1 0 0 1 12.7.92c4.36 1.29 8.59 3.52 13.26 5.08a25.62 25.62 0 0 0 15.1.44c5.24-1.24 10.37-3.64 15.93-5.57s11.81-3.48 18.09-1.75 11.22 6.33 17.46 7.85a14.39 14.39 0 0 0 4.72.33 22.14 22.14 0 0 0 4.73-1.13c3.13-1.09 6.16-2.68 9.48-3.83s7.14-1.72 10.63-.36 6.17 3.87 9 6a21.31 21.31 0 0 0 4.46 2.7 12.51 12.51 0 0 0 5 1c3.49-.13 6.9-1.51 10.22-3.06a60.86 60.86 0 0 1 10.47-4.2 17.23 17.23 0 0 1 5.83-.39 16.1 16.1 0 0 1 5.59 1.81c3.47 1.83 6.33 4.37 9.39 6.45a23.92 23.92 0 0 0 4.77 2.62 12 12 0 0 0 2.56.72l1.31.23 1.34.05a29.16 29.16 0 0 0 10.47-2.19c3.39-1.24 6.72-2.68 10.21-3.72s7.21-1.69 10.82-.78 6.61 3.12 9.11 5.48 4.82 4.9 7.51 6.78a14.14 14.14 0 0 0 9 2.57 24.53 24.53 0 0 0 9-2.75c2.85-1.38 5.56-3 8.3-4.52 5.39-3 11.32-5.76 17.46-5.05s11 4.08 15.4 7.22 8.43 6.54 12.89 8.63a37.43 37.43 0 0 0 13.44 3.66 47.31 47.31 0 0 0 12.46-1 44.69 44.69 0 0 0 17.94-8.75 40.12 40.12 0 0 0 8.35-9.55c.73-1.26 1.2-2.27 1.57-2.92a8.32 8.32 0 0 1 .57-1 7.84 7.84 0 0 1-.44 1c-.33.67-.77 1.71-1.47 3a39 39 0 0 1-8.25 9.81 44.87 44.87 0 0 1-18.1 9.08 47.58 47.58 0 0 1-12.69 1.08 38 38 0 0 1-13.8-3.65c-4.6-2.13-8.67-5.51-13.07-8.64s-9.21-6.32-14.92-7-11.42 2-16.77 5c-2.71 1.51-5.43 3.15-8.34 4.58a25.8 25.8 0 0 1-9.49 2.89 15.38 15.38 0 0 1-9.81-2.77c-2.85-2-5.18-4.55-7.66-6.88s-5.23-4.46-8.54-5.15-6.79-.24-10.15.77-6.69 2.45-10.13 3.71a30 30 0 0 1-11 2.27h-1.44l-1.43-.25a12.85 12.85 0 0 1-2.79-.78 25.42 25.42 0 0 1-5-2.75c-3.13-2.15-6-4.65-9.25-6.37a15 15 0 0 0-5.13-1.68 16.13 16.13 0 0 0-5.36.37 60.08 60.08 0 0 0-10.23 4.11c-3.35 1.55-6.9 3-10.74 3.17a14.11 14.11 0 0 1-5.57-1 22.85 22.85 0 0 1-4.74-2.87c-2.88-2.17-5.5-4.6-8.65-5.8a14 14 0 0 0-9.77.36c-3.19 1.1-6.23 2.68-9.48 3.81a23.67 23.67 0 0 1-5 1.18 15.77 15.77 0 0 1-5.13-.37c-6.66-1.69-11.61-6.29-17.49-7.92s-12-.27-17.41 1.67-10.68 4.28-16 5.52a26.59 26.59 0 0 1-15.64-.54c-4.76-1.63-9-3.88-13.21-5.17a29.32 29.32 0 0 0-12.37-1c-3.9.42-7.5 1.19-10.85 1.74s-6.39 1-9.11 1.6c-1.37.26-2.64.57-3.88.74a14.16 14.16 0 0 1-3.5 0c-2.14-.22-3.94-.49-5.39-.68l-3.3-.47a7.91 7.91 0 0 1-1.12-.24zm42.73 60.53a3.73 3.73 0 0 1 .77 0l2.23.22c2 .21 4.84.59 8.54 1.14 7.4 1 18 3.23 31.33 4.32a109.61 109.61 0 0 0 21.74-.39 51.92 51.92 0 0 1 12.29-.1 22.06 22.06 0 0 1 6.25 1.84 30.65 30.65 0 0 1 5.59 3.64c3.49 2.7 6.81 6 11.08 7.26a11.72 11.72 0 0 0 6.56 0 45.32 45.32 0 0 0 6.51-2.71 24.83 24.83 0 0 1 7-2.37 11.09 11.09 0 0 1 7.5 1.63c4.43 2.69 7.34 7.18 11.87 9.09s9.67.75 14.32-.63 9.4-3.24 14.42-3.35a16.53 16.53 0 0 1 7.22 1.5 27 27 0 0 1 5.92 4c3.55 3 6.68 6.36 10.58 8.15s8.28 1.33 12.16 0 7.58-3.15 11.53-4.05 8-1 11.48.86a9.35 9.35 0 0 1 3.92 4 36 36 0 0 1 1.79 4.88 11 11 0 0 0 2.22 4.11 8.75 8.75 0 0 0 3.68 2.37 13.45 13.45 0 0 0 8.12 0 14.36 14.36 0 0 0 6.09-3.76 24.06 24.06 0 0 0 3.71-4.88 55.66 55.66 0 0 0 3.61-7.76l.82-2.08a3.33 3.33 0 0 1 .32-.7 3.12 3.12 0 0 1-.19.74l-.7 2.13a49.27 49.27 0 0 1-3.41 7.93 24.18 24.18 0 0 1-3.71 5.07 15.1 15.1 0 0 1-6.32 4 14.18 14.18 0 0 1-8.62.14 9.62 9.62 0 0 1-4.06-2.57 11.89 11.89 0 0 1-2.45-4.41 35.35 35.35 0 0 0-1.78-4.73 8.39 8.39 0 0 0-3.52-3.51c-3.1-1.62-7-1.54-10.75-.68s-7.38 2.79-11.42 4.08a23.54 23.54 0 0 1-6.39 1.27 14.5 14.5 0 0 1-6.64-1.3c-4.21-1.93-7.4-5.37-10.89-8.3a26.12 26.12 0 0 0-5.65-3.82 15.19 15.19 0 0 0-6.65-1.36c-4.68.1-9.29 1.89-14.06 3.31a38.72 38.72 0 0 1-7.45 1.63 15.25 15.25 0 0 1-7.78-1c-5-2.18-7.92-6.75-12-9.18a9.7 9.7 0 0 0-6.65-1.46 23.88 23.88 0 0 0-6.67 2.25 45.89 45.89 0 0 1-6.72 2.73 12.9 12.9 0 0 1-7.26 0c-4.71-1.46-8-4.86-11.48-7.51a29.55 29.55 0 0 0-5.35-3.52 20.75 20.75 0 0 0-5.91-1.77 50.75 50.75 0 0 0-12 .05 110 110 0 0 1-21.92.23c-13.37-1.23-24-3.58-31.33-4.75l-8.5-1.4-2.21-.35a3.28 3.28 0 0 1-.73-.17zM685.23 984a3 3 0 0 1 .76-.31l2.24-.78c2-.69 4.89-1.75 8.68-3a66.46 66.46 0 0 1 14.17-3.3 20.69 20.69 0 0 1 9 1.5c3 1 6.17 2.4 9.63 2.74s7-.78 10.53-2.37 7.1-3.59 11.32-4.55 8.75-.37 13.08.76 8.64 2.88 13.11 4.19 9.24 2.19 13.94 1.2 9.11-3.51 13.92-5.42a23.08 23.08 0 0 1 7.71-1.82 14.09 14.09 0 0 1 7.86 2.06c4.69 2.79 8.06 7.35 13 9.17a13 13 0 0 0 7.58.18 44.45 44.45 0 0 0 7.34-2.79 54.49 54.49 0 0 1 7.4-2.93 14.05 14.05 0 0 1 8-.17 15.45 15.45 0 0 1 6.53 4.34c1.8 1.8 3.39 3.71 5.22 5.25 3.55 3.31 8.6 3.74 13.06 2.73s8.81-2.65 13.16-3.8a26.36 26.36 0 0 1 6.64-1 12.16 12.16 0 0 1 6.39 1.55 13.07 13.07 0 0 1 4.65 4.32c1.17 1.7 2.1 3.47 3.06 5.15 1.84 3.33 4.14 6.42 7.46 7.46a12.7 12.7 0 0 0 9.5-1 22.37 22.37 0 0 0 7-5.36c3.59-4.26 5.5-8.85 7.41-12.32a50.12 50.12 0 0 1 4.83-7.81 17.91 17.91 0 0 1 2.17-2.36c0 .05-.72.84-2 2.52a54.2 54.2 0 0 0-4.59 7.89c-1.84 3.5-3.65 8.11-7.31 12.57a22.86 22.86 0 0 1-7.22 5.63 13.55 13.55 0 0 1-10.17 1.11c-3.67-1.12-6.17-4.51-8.05-7.85s-3.73-7.16-7.34-9c-3.5-2.08-8-1.49-12.2-.38s-8.51 2.92-13.22 3.87a18.91 18.91 0 0 1-7.32.28 15.35 15.35 0 0 1-3.63-1.11 17.15 17.15 0 0 1-3.18-2.13c-1.94-1.64-3.55-3.57-5.3-5.32a14.37 14.37 0 0 0-6-4 12.76 12.76 0 0 0-7.26.19 54.35 54.35 0 0 0-7.21 2.87 44.82 44.82 0 0 1-7.57 2.87 14.28 14.28 0 0 1-8.36-.21c-5.42-2.08-8.77-6.72-13.19-9.28a12.63 12.63 0 0 0-7.14-1.89 22.11 22.11 0 0 0-7.28 1.72c-4.69 1.84-9.15 4.41-14.13 5.45s-10 .09-14.55-1.27-8.8-3.07-13.06-4.23-8.55-1.7-12.55-.81-7.56 2.84-11.13 4.4-7.34 2.77-11 2.37-6.82-1.83-9.82-2.88a19.8 19.8 0 0 0-8.68-1.55 68.11 68.11 0 0 0-14.07 3l-8.74 2.73-2.29.66a3.89 3.89 0 0 1-.79.27zm144.19-63.62a8.78 8.78 0 0 1-1.46.94 32.47 32.47 0 0 1-4.53 2.06 37.12 37.12 0 0 1-18.1 1.87 37.89 37.89 0 0 1-5.94-1.39c-2-.65-4-1.57-6.11-2.43a14 14 0 0 0-6.52-1.33 13.57 13.57 0 0 0-6.45 2.77c-2 1.44-4 3.16-6.36 4.59a14.87 14.87 0 0 1-3.84 1.68 9.15 9.15 0 0 1-2.14.32 8.29 8.29 0 0 1-2.17 0c-5.87-.75-10.54-4.62-15.65-7.21-2.53-1.32-5.26-2.34-7.91-2l-1 .13c-.32.07-.62.21-.94.31a7.77 7.77 0 0 0-1.78.82 16.28 16.28 0 0 0-3 2.63c-1.85 2-3.43 4.26-5.64 6a8.41 8.41 0 0 1-3.83 1.76 7.08 7.08 0 0 1-4.12-.61c-2.51-1.24-4-3.43-5.43-5.38a50 50 0 0 0-4.08-5.58 14.18 14.18 0 0 0-10.92-4.35c-3.76.08-6.81 2-9.22 3.71a22.16 22.16 0 0 0-5.33 5.52 11.61 11.61 0 0 0-2.07 6.15 4.66 4.66 0 0 1-.07-1.74 11.24 11.24 0 0 1 1.7-4.69 21.91 21.91 0 0 1 5.32-5.83c2.4-1.85 5.59-3.9 9.63-4.07a15.14 15.14 0 0 1 11.77 4.54 52.08 52.08 0 0 1 4.23 5.66c1.37 1.92 2.88 3.94 5 5a6.19 6.19 0 0 0 6.65-1.05c2-1.57 3.55-3.81 5.46-5.88a17.69 17.69 0 0 1 3.26-2.86 9.09 9.09 0 0 1 2-1c.36-.11.71-.27 1.08-.35l1.14-.16c3.09-.35 6 .81 8.66 2.16 5.25 2.7 9.88 6.44 15.18 7.1a11.19 11.19 0 0 0 7.35-1.76c2.21-1.33 4.19-3 6.31-4.5a14.72 14.72 0 0 1 7.06-2.94 15.15 15.15 0 0 1 7.05 1.48c2.1.91 4 1.83 6 2.48a38.24 38.24 0 0 0 5.77 1.43 37.79 37.79 0 0 0 17.78-1.42c4.11-1.42 6.14-2.71 6.21-2.58zm-141.68 132.15a3.61 3.61 0 0 1 .78.21l.93.31c.38.08.83.12 1.34.19 2 .26 5.08-.33 8.59-2.08 3.56-1.57 7.56-4.49 13.16-5.8a14.84 14.84 0 0 1 4.44-.21 14.65 14.65 0 0 1 4.49 1.49c2.9 1.48 5.44 3.75 8.26 5.79s6.12 3.84 9.84 3.49 7.25-2.29 11-4a26.09 26.09 0 0 1 6.11-2 18.54 18.54 0 0 1 6.68.14c4.44.82 8.63 2.73 13.05 3.93a27.3 27.3 0 0 0 13.83.21 96.13 96.13 0 0 0 14-4.65c4.73-1.79 9.64-3.65 15-4.3a28.38 28.38 0 0 1 15.83 2.5c5 2.16 9.53 5 14.32 6.88s9.9 2.74 14.66 1.36c9.59-2.76 16.59-10.52 25.7-13.53a21.22 21.22 0 0 1 13.72-.07 48 48 0 0 1 11.49 5.95c3.47 2.27 6.72 4.59 10 6.46a36.94 36.94 0 0 0 10.08 4 37.76 37.76 0 0 0 18.55-.78 38.66 38.66 0 0 0 12.58-6.45c6.19-4.86 8-9.08 8.22-8.89a3.38 3.38 0 0 1-.39.7c-.32.51-.73 1.18-1.25 2a34.12 34.12 0 0 1-6.26 6.6 38.49 38.49 0 0 1-31.65 7.74 37.34 37.34 0 0 1-10.38-4.06c-3.39-1.89-6.67-4.19-10.13-6.43s-7.11-4.49-11.24-5.75a19.92 19.92 0 0 0-13 .11c-4.32 1.44-8.29 4.1-12.36 6.75s-8.34 5.46-13.38 6.87-10.64.63-15.51-1.39-9.48-4.77-14.35-6.88a27 27 0 0 0-15.14-2.41c-5.1.62-9.93 2.42-14.65 4.2a95.85 95.85 0 0 1-14.23 4.68 28.52 28.52 0 0 1-14.43-.27c-4.54-1.26-8.69-3.16-12.94-4a17.45 17.45 0 0 0-6.27-.16 25.17 25.17 0 0 0-5.85 1.9c-3.73 1.63-7.36 3.7-11.4 4s-7.69-1.67-10.48-3.75-5.34-4.37-8.09-5.81a11.75 11.75 0 0 0-8.4-1.29c-5.38 1.17-9.46 4-13.09 5.53-3.57 1.7-6.75 2.24-8.84 1.88-.51-.1-1-.16-1.35-.26l-.93-.38a3.43 3.43 0 0 1-.66-.27zm6.35-441.33c.06-.06.75.92 2.49 2.31a20.68 20.68 0 0 0 8.82 3.86c4.14.9 9.35.89 15.37.3 3-.24 6.24-.54 9.71-.5a30.19 30.19 0 0 1 10.79 1.93c3.61 1.42 7 3.62 10.62 5.58a35.36 35.36 0 0 0 5.72 2.53 23.7 23.7 0 0 0 6.34 1c4.4.17 8.94-.71 13.63-1.56s9.64-1.72 14.79-1.12 9.94 3.24 14.41 6 9.09 5.66 14.38 6.39a22 22 0 0 0 8-.54 49.93 49.93 0 0 0 7.76-2.9c5.11-2.32 10.13-5.3 15.91-6.78a22.62 22.62 0 0 1 8.86-.53 25 25 0 0 1 8.18 3c5 2.83 9.28 6.49 14.17 8.74a26.36 26.36 0 0 0 15.39 1.91c5.15-.72 10.05-2.39 14.86-3.85a83.79 83.79 0 0 1 14.38-3.48 39.34 39.34 0 0 1 14 .87c8.83 2.1 16.34 5.93 23.41 8.65a39.32 39.32 0 0 0 19.88 3.15 47.21 47.21 0 0 0 14.88-3.73c7.83-3.49 10.36-7.94 10.52-7.7a15.87 15.87 0 0 1-2.19 2.64A27.81 27.81 0 0 1 1001 643a46.71 46.71 0 0 1-15 4 43.21 43.21 0 0 1-9.76-.08 40.77 40.77 0 0 1-10.56-2.92c-7.13-2.69-14.66-6.44-23.31-8.45a38.21 38.21 0 0 0-13.58-.79 84.75 84.75 0 0 0-14.16 3.49c-4.81 1.47-9.73 3.19-15 3.94a27.57 27.57 0 0 1-16.13-2c-5.11-2.36-9.41-6-14.27-8.77a23.83 23.83 0 0 0-7.75-2.89 21.07 21.07 0 0 0-8.31.51c-5.52 1.4-10.51 4.34-15.68 6.68a48.7 48.7 0 0 1-8 3 23.49 23.49 0 0 1-8.47.56c-5.68-.81-10.4-3.9-14.86-6.6s-9-5.27-13.9-5.84c-9.88-1.08-19.15 3-28.32 2.57a25.16 25.16 0 0 1-6.62-1.14 36.52 36.52 0 0 1-5.88-2.65c-3.67-2-7-4.21-10.48-5.6-7-2.8-14.13-1.91-20.1-1.56-6 .51-11.34.46-15.53-.54a20.37 20.37 0 0 1-8.88-4.16 11.33 11.33 0 0 1-2.36-2.56z"/><path class="cls-2" d="M695.83 1030.69a5.09 5.09 0 0 1 1.38.16l3.9.71 14.32 2.73c12.09 2.27 28.84 5.18 47.43 7.78s35.5 4.36 47.76 5.49l14.51 1.29 4 .38a5.9 5.9 0 0 1 1.37.22 5.32 5.32 0 0 1-1.39 0l-4-.13c-3.44-.14-8.42-.43-14.56-.87-12.29-.88-29.24-2.52-47.87-5.11s-35.36-5.66-47.42-8.17c-6-1.25-10.9-2.33-14.25-3.15l-3.85-1a5.73 5.73 0 0 1-1.33-.33zm56.4-6.69a13.11 13.11 0 0 1 2.13.46c1.4.3 3.4 1 6.06 1.47a126.36 126.36 0 0 0 150.25-93.8c.72-2.61 1-4.7 1.34-6.08a12.19 12.19 0 0 1 .53-2.12 14.86 14.86 0 0 1-.26 2.16c-.26 1.41-.46 3.51-1.1 6.16a117.27 117.27 0 0 1-7 21.9A124.34 124.34 0 0 1 783 1029.79a116.74 116.74 0 0 1-22.74-3.36c-2.65-.58-4.64-1.33-6-1.71a14.43 14.43 0 0 1-2.03-.72zM775 572.82a8.79 8.79 0 0 1 .06 1.85v5.29a77.06 77.06 0 0 0 2 19.23 34.74 34.74 0 0 0 5.55 11.95 34.08 34.08 0 0 0 11.39 9.75 58.13 58.13 0 0 0 15.84 5.67 74.64 74.64 0 0 0 18 1.74c12.45-.25 24.21-3.71 33.34-9.42a52.55 52.55 0 0 0 19.14-20.77 46.4 46.4 0 0 0 5-18.52c.17-4.58-.31-7.1-.14-7.12a8.87 8.87 0 0 1 .33 1.82 33.13 33.13 0 0 1 .33 5.31 45 45 0 0 1-4.67 18.93 52.71 52.71 0 0 1-19.33 21.39c-9.3 5.9-21.29 9.47-34 9.72a75.1 75.1 0 0 1-18.34-1.8 59 59 0 0 1-16.11-5.84 35 35 0 0 1-11.78-10.17 35.54 35.54 0 0 1-5.61-12.4 72.3 72.3 0 0 1-1.52-19.43c.08-2.3.2-4.08.29-5.29a9.79 9.79 0 0 1 .23-1.89z"/><path class="cls-10" d="M708.49 807.67L678.87 753.02 588.77 753.02 585.92 758.45 662.19 885.25 748.53 889.41 708.49 807.67z"/><path class="cls-11" d="M1052 837.81v95.5a58 58 0 0 1-21.34 45 58 58 0 0 1-58.6 8.79l-210.24-93.23 20.6-70.14 169.16 55.76-.19-43.49z"/><path class="cls-2" d="M705.63 813.09L676.02 758.45 585.92 758.45 659.33 890.67 745.67 894.83 705.63 813.09z"/><path class="cls-11" d="M790.68 831.25l-14.25-17.69a49.43 49.43 0 0 0-38.49-18.41h-12.45L717 804.7s-60.93 2.66-63.18 10.17l-.05 2.43v1.42l52.11 3.5s-44.33-.14-47 0c-2.91.11-12.37-.74-12.17 4.46.16 4.28 5.21 7.65 12.88 8.77 3.15.46 41.55 3.8 41.55 3.8l-42.27-.4c-4.74 0-4.14 7.58-1.32 8.53 2.22.75 56.37 16.55 56.37 16.55s-9.11 6.11-16.54 5.58-20.17-10.09-22.83-5.58-2.12 7.17-.53 8.23 19.11 10.09 25 11.68 53.51 9.14 53.51 9.14l17.21 2.77zm-192.17-51.5s-9.42 3.29-4.63 15.4A103.37 103.37 0 0 0 613 825.42a11.08 11.08 0 0 0 3.76 10.84s-6.68 1.67-2.51 12.93c0 0-4.59 11.68 7.93 16.69 0 0-3.34 9.59 8.76 14.18s23.77-3.34 23.77-3.34z"/><path class="cls-11" d="M617.62 824.5c8.57 2.31 18 4.15 25.9 7.16 2.6 1 5.18 1 6.91 3.23s2.13 5.67.15 7.63c-1.74 1.73-4.52 1.7-7 1.41-9.14-1.11-17.89-4.24-26.55-7.36"/><path class="cls-11" d="M621 838.79c8.57 2.31 18 4.15 25.89 7.16 2.61 1 5.19 1 6.92 3.23s2.13 5.67.15 7.63c-1.74 1.74-4.53 1.7-7 1.41-9.14-1.11-17.89-4.24-26.55-7.36"/><path class="cls-11" d="M625.91 853.5c8.56 2.31 18 4.15 25.89 7.16 2.61 1 5.19 1 6.92 3.22s2.12 5.67.15 7.64c-1.74 1.73-4.53 1.7-7 1.41-9.13-1.11-17.88-4.25-26.54-7.36"/><path class="cls-12" d="M617.58 836.87c.15-.36 6.19 1.75 13.78 3.86s13.85 3.45 13.78 3.83-6.48-.39-14.14-2.54-13.55-4.83-13.42-5.15zM616 849.48c.14-.36 7.06 1.93 15.67 4.45s15.68 4.34 15.6 4.72-7.3-.88-16-3.44-15.41-5.4-15.27-5.73zm5.61 16.22c.09-.36 6.68 1 14.72 3s14.48 3.93 14.39 4.29S644 872 636 870s-14.48-3.95-14.39-4.3zm-11.11-42.95c.14-.37 7.72 2.2 17.27 4.66s17.41 3.91 17.35 4.29c0 .18-2 0-5.25-.43a126.06 126.06 0 0 1-12.44-2.57c-4.8-1.25-9.08-2.64-12.12-3.78s-4.87-2-4.81-2.17zm85.76-17.31c0-.37 9.57-.72 21.38-.78s21.39.18 21.39.55-9.57.72-21.38.78-21.39-.18-21.39-.55z"/><path class="cls-4" d="M631.66 781.39A4.53 4.53 0 1 0 631 775a4.53 4.53 0 0 0 .66 6.39z"/><path class="cls-12" d="M940.54 877a6.5 6.5 0 0 1 2.08.23 45.25 45.25 0 0 1 5.51 1.4 63.42 63.42 0 0 1 30.47 21.14 44.88 44.88 0 0 1 3.24 4.67c.68 1.16 1 1.82.94 1.87s-1.82-2.34-4.91-5.94a72.41 72.41 0 0 0-30-20.84c-4.5-1.63-7.38-2.3-7.33-2.53z"/><path class="cls-11" d="M825.83 624a51.48 51.48 0 0 1-47.32-53.87c1-19.5 2-37.09 2-37.09s-41.82-6.51-42.33-48.31 6.73-137.81 6.73-137.81a145.3 145.3 0 0 1 146 18.35l6.2 4.77-15.86 206.59A51.47 51.47 0 0 1 825.83 624z"/><path class="cls-12" d="M780.42 532.43s26.42 2.15 54.51-15.49c0 0-12.89 30.09-54.61 26.33z"/><path class="cls-2" d="M755.21 412.44a6 6 0 0 0 5.76 6 5.71 5.71 0 0 0 6.15-5.39 6 6 0 0 0-5.75-6 5.72 5.72 0 0 0-6.16 5.39zm-2.41-6.71c.74.78 5.26-2.57 11.69-2.55s11.13 3.23 11.83 2.44c.34-.35-.41-1.75-2.47-3.25a16.4 16.4 0 0 0-9.47-2.92 15.78 15.78 0 0 0-9.3 3c-1.98 1.55-2.64 2.93-2.28 3.28zm62.99 8.27a6 6 0 0 0 5.76 6 5.71 5.71 0 0 0 6.15-5.38 6 6 0 0 0-5.75-6 5.72 5.72 0 0 0-6.16 5.38zm.21-7.07c.74.78 5.27-2.57 11.69-2.55s11.14 3.23 11.83 2.44c.35-.35-.4-1.75-2.46-3.25a16.42 16.42 0 0 0-9.47-2.92 15.74 15.74 0 0 0-9.31 3c-2.02 1.52-2.69 2.93-2.28 3.28zm-23.36 47.64c0-.36-4-1.05-10.44-1.88-1.64-.17-3.19-.49-3.47-1.61s.3-3 1.1-4.87q2.31-6 4.85-12.49c6.74-17.78 11.61-32.41 10.9-32.68s-6.77 13.94-13.51 31.73c-1.62 4.39-3.17 8.57-4.64 12.57-.62 1.86-1.69 4-.85 6.43a4.09 4.09 0 0 0 2.69 2.4 11.34 11.34 0 0 0 2.79.39c6.51.35 10.55.38 10.58.01zm18.9 4.43c-1-.06-1 6.91-7 11.86s-13.4 4.19-13.45 5.16c-.1.44 1.66 1.36 4.79 1.44a17.33 17.33 0 0 0 11.23-3.91 15.1 15.1 0 0 0 5.44-9.95c.25-2.89-.55-4.6-1.01-4.6zm2.76-77.25c.63 1.75 7 .92 14.58 1.83 7.56.75 13.64 3 14.64 1.39.44-.75-.62-2.39-3.07-4.08a25.56 25.56 0 0 0-22.27-2.46c-2.76 1.12-4.18 2.49-3.88 3.32zm-59.14 5.38c1.13 1.46 5.56-.05 10.88-.12 5.32-.26 9.83 1 10.87-.55.45-.74-.26-2.2-2.23-3.58a15.76 15.76 0 0 0-17.52.54c-1.88 1.5-2.5 3-2 3.71z"/><path class="cls-11" d="M891.94 413.34c.71-.31 28.72-8.49 27.81 20.09s-29.42 21.77-29.45 20.95 1.64-41.04 1.64-41.04z"/><path class="cls-12" d="M899.38 443.83c.13-.09.49.36 1.32.78a5 5 0 0 0 3.72.19c3.05-1 5.75-5.72 6.05-10.87a16.46 16.46 0 0 0-1.16-7.17c-.81-2.12-2.12-3.63-3.63-3.95a2.54 2.54 0 0 0-3 1.28c-.41.78-.25 1.36-.4 1.4s-.6-.5-.33-1.67a3.17 3.17 0 0 1 1.18-1.75 3.75 3.75 0 0 1 2.78-.64c2.2.22 4.12 2.31 5.06 4.59a16.91 16.91 0 0 1 1.47 8c-.37 5.75-3.49 11.05-7.66 12.11a5.36 5.36 0 0 1-4.53-.9c-.84-.71-.97-1.35-.87-1.4z"/><path class="cls-2" d="M728.88 310.8a44.21 44.21 0 0 1 68.67-13.21 43.28 43.28 0 0 1 71.12-9.23c8 9.08 12.17 21.42 21.56 29.06 8.12 6.62 19.14 8.82 27.31 15.38a31.56 31.56 0 0 1-11.26 55c9 16.17.56 39.36-16.68 46l-4.17-1.73c-15.82-17.36-19.43-44.77-8.65-65.64-.52 0-1-.05-1.5-.06a33.42 33.42 0 0 1-43.51-9.95 37.1 37.1 0 0 1-39.83 1.68c-1.9-1.14-3.8-2.5-6-2.73-2.62-.28-5.11 1.07-7.48 2.24-6.27 3.08-13.32 5.09-20.24 4.08-6.45-.93-12.64-4.94-15.19-10.87l-.48-.06c-8-1.45-14.52-8.33-16.74-16.21s-.62-16.45 3.07-23.75z"/><path class="cls-13" d="M363.04 58.61H694.1800000000001V316.33000000000004H363.04z"/><path class="cls-2" d="M694.18 316.33c0-2.57-.12-102.19-.31-257.72l.31.31-331.12.08.37-.38v257.72L363 316l331.14.33-331.14.34h-.34v-.34V58.24h.4l331.12.06h.31v.31c-.19 155.53-.31 255.15-.31 257.72z"/><path class="cls-2" d="M460.89 284.76c-.2 0-.37-26-.37-58.08s.17-58.08.37-58.08.38 26 .38 58.08-.17 58.08-.38 58.08zm133.43 0c-.21 0-.37-26-.37-58.08s.16-58.08.37-58.08.37 26 .37 58.08-.16 58.08-.37 58.08zm-87.87 0c-.21 0-.38-33.25-.38-74.25s.17-74.25.38-74.25.37 33.24.37 74.25-.17 74.25-.37 74.25zm-92.34 0c-.2 0-.37-33.25-.37-74.25s.17-74.25.37-74.25.38 33.24.38 74.25-.17 74.25-.38 74.25zm232.58 0c-.21 0-.37-33.25-.37-74.25s.16-74.25.37-74.25.37 33.24.37 74.25-.16 74.25-.37 74.25zm-100.3 0c-.21 0-.38-38.39-.38-85.73s.17-85.73.38-85.73.37 38.38.37 85.73-.17 85.73-.37 85.73z"/><path class="cls-2" d="M462 168.6a1.09 1.09 0 1 1-1.09-1.09 1.09 1.09 0 0 1 1.09 1.09zm45.53-32.34a1.09 1.09 0 1 1-1.08-1.09 1.08 1.08 0 0 1 1.08 1.09z"/><path class="cls-7" d="M506.44 140.14a3.88 3.88 0 1 1 3.88-3.88 3.88 3.88 0 0 1-3.88 3.88zm0-7.4a3.52 3.52 0 1 0 3.52 3.52 3.52 3.52 0 0 0-3.52-3.52z"/><circle class="cls-2" cx="546.39" cy="113.3" r="1.09"/><path class="cls-2" d="M595.41 169.69a1.09 1.09 0 1 1-1.09-1.09 1.09 1.09 0 0 1 1.09 1.09zm52.4-33.43a1.09 1.09 0 1 1-1.09-1.09 1.09 1.09 0 0 1 1.09 1.09zm-232.61 1.09a1.09 1.09 0 1 1-1.09-1.09 1.09 1.09 0 0 1 1.09 1.09z"/><path class="cls-1" d="M657 188.82c0 .12-1.2.29-3.31 1.19a24 24 0 0 0-7.86 6.05c-3 3.22-5.91 7.71-9.63 12.76a61.77 61.77 0 0 1-6.59 7.68 37.08 37.08 0 0 1-4.29 3.57 29.61 29.61 0 0 1-5.18 2.84 29.22 29.22 0 0 1-12.42 2.09 33.26 33.26 0 0 1-6.69-.83 17.59 17.59 0 0 1-6.52-2.85 21.12 21.12 0 0 1-5.08-5.29c-1.4-2-2.65-4.14-3.85-6.3-2.4-4.34-4.89-8.67-7.71-13s-5.37-9.11-8.24-13.7a67.22 67.22 0 0 0-10-12.92 28.68 28.68 0 0 0-6.7-4.75 25.54 25.54 0 0 0-3.82-1.57c-.67-.17-1.35-.29-2-.44l-1-.22a9.12 9.12 0 0 0-1-.09 28.8 28.8 0 0 0-16.46 3.5c-5 2.87-9.12 7.16-12.58 11.74a130.08 130.08 0 0 0-9.05 14.53c-5.48 9.91-11.51 19.36-19.5 26.45a33.47 33.47 0 0 1-13.57 7.55 25.89 25.89 0 0 1-7.5.82 27.83 27.83 0 0 1-7.16-1.34 48.36 48.36 0 0 1-12.16-6.29c-3.56-2.47-6.81-5-10-7.31a53 53 0 0 0-9.44-5.75 31.29 31.29 0 0 0-9.39-2.69 23.06 23.06 0 0 0-8.43.52 12.07 12.07 0 0 0-1.82.58 11.65 11.65 0 0 0-1.71.66 22.78 22.78 0 0 0-3 1.64 32.12 32.12 0 0 0-4.52 3.58c-1.11 1.25-2.15 2.23-2.84 3.15a20.79 20.79 0 0 1-2.24 2.74 22 22 0 0 1 1.88-3c.64-1 1.64-2 2.73-3.34a31 31 0 0 1 4.51-3.84 22.82 22.82 0 0 1 3.06-1.79 12.06 12.06 0 0 1 1.76-.74 14.68 14.68 0 0 1 1.9-.66 24.25 24.25 0 0 1 8.85-.73 32.24 32.24 0 0 1 9.83 2.64 54.43 54.43 0 0 1 9.79 5.76c3.23 2.28 6.51 4.78 10 7.16a47.06 47.06 0 0 0 11.64 6 26.68 26.68 0 0 0 6.68 1.19 24 24 0 0 0 6.92-.81 31.65 31.65 0 0 0 12.71-7.2c7.62-6.82 13.54-16.1 18.94-26a130.52 130.52 0 0 1 9.18-14.79c3.56-4.73 7.83-9.26 13.26-12.36a31 31 0 0 1 17.79-3.76 10.73 10.73 0 0 1 1.14.1l1.12.24c.75.17 1.5.31 2.23.5a27.5 27.5 0 0 1 4.19 1.72 31 31 0 0 1 7.21 5.13 68.85 68.85 0 0 1 10.33 13.39c2.89 4.66 5.45 9.35 8.18 13.73s5.33 8.88 7.67 13.19 4.71 8.49 8.3 11a15.82 15.82 0 0 0 5.86 2.63 32.52 32.52 0 0 0 6.33.84 27.71 27.71 0 0 0 11.75-1.85 28.7 28.7 0 0 0 4.94-2.63 36.47 36.47 0 0 0 4.16-3.35 61.51 61.51 0 0 0 6.57-7.41c3.78-4.93 6.88-9.4 10-12.6a23 23 0 0 1 8.33-5.87 13.09 13.09 0 0 1 2.58-.68 2.56 2.56 0 0 1 .94-.11z"/><path class="cls-2" d="M413.02 92.47H466.63V95.45H413.02z"/><path class="cls-2" d="M413.02 99.45H439.51V102.43H413.02z"/><path class="cls-2" d="M363.04 51.1H694.1800000000001V71.8H363.04z"/><path class="cls-13" transform="rotate(-.99 878.226 174.853)" d="M775.75 106.67H976.83V242.2H775.75z"/><path class="cls-14" d="M776.45 244.44l-2.36-136.51h.5l201.54-3.49 2.37 136.51h-.5zm-1.34-135.53l2.32 134.51L977.48 240l-2.33-134.51z"/><path class="cls-15" d="M976.31 106.56a14.75 14.75 0 0 1-1.84 1.83l-5.51 5-20.51 18.16-68.3 59.53-.56.49-.59-.46-1.43-1.1L805 133.76l-21.87-17.21-5.89-4.76a14.12 14.12 0 0 1-2-1.75 14.08 14.08 0 0 1 2.2 1.46l6.1 4.48 22.21 16.75 72.9 55.83 1.43 1.11h-1.15l68.65-59.12 20.89-17.72 5.73-4.74a14 14 0 0 1 2.11-1.53z"/><path class="cls-15" d="M777.61 245.55c-.39-.32 14.41-19.16 33-42.07s34.07-41.24 34.46-40.92-14.4 19.15-33 42.07-34.07 41.24-34.46 40.92zm134.31-85.84c.39-.32 15.65 17.86 34.08 40.6s33 41.44 32.66 41.76-15.66-17.86-34.08-40.61-33.05-41.46-32.66-41.75z"/><path class="cls-13" d="M506.85 497.95L390.36 497.95 390.36 614.43 401.5 614.43 401.5 631.78 418.86 614.43 506.85 614.43 506.85 497.95z"/><path class="cls-2" d="M506.85 498s0 .68.06 2.07 0 3.5.06 6.16c0 5.47.07 13.42.13 23.54.06 20.43.16 49.6.27 84.71v.52h-.52l-88 .08.42-.17-17.35 17.35-1 1v-18.83l.6.61h-11.76v-.61c0-42.77.06-82.59.09-116.48v-.52h.51l84.69.27 23.56.13 6.16.06c1.39 0 2.08.06 2.08.06s-.76 0-2.19.06l-6.26.05-23.67.14-84.37.26.52-.51c0 33.89.06 73.71.09 116.48l-.61-.6h11.75v18l-1-.43 17.32-17.4.18-.18h.25l88 .09-.52.51c.11-35 .2-64 .27-84.39.06-10.16.1-18.15.13-23.65q0-4 .06-6.26c.01-1.41.05-2.12.05-2.12z"/><path class="cls-10" d="M454.83 556.2a17.62 17.62 0 0 0 10.5-16.3c0-9.73-7.33-17.65-16.45-17.7s-16.55 7.82-16.59 17.55a17.61 17.61 0 0 0 10.53 16.45c-25.43 3.83-24.27 31.46-24.27 31.46l60.11.27S480 560 454.83 556.2z"/><path class="cls-13" d="M556.07 413.08L672.55 413.08 672.55 529.56 661.41 529.56 661.41 546.91 644.06 529.56 556.07 529.56 556.07 413.08z"/><path class="cls-2" d="M556.07 413.08v2.18c0 1.42 0 3.55.06 6.26 0 5.5.08 13.49.14 23.65.06 20.36.15 49.41.26 84.39l-.51-.51 88-.09h.25l.17.18 17.36 17.35-1 .42V529h11.75l-.6.6c0-42.77.06-82.59.09-116.48l.51.51-84.36-.26-23.67-.14-6.27-.06c-1.42 0-2.18-.05-2.18-.05s.68 0 2.07-.06l6.17-.06 23.55-.13 84.69-.27h.52v.52c0 33.89 0 73.71.09 116.48v.61h-11.75l.61-.61v18.82l-1-1L643.64 530l.42.17-88-.08h-.52v-.52c.11-35.11.2-64.28.27-84.72 0-10.11.1-18.06.13-23.53 0-2.66 0-4.72.06-6.16s.07-2.08.07-2.08z"/><path class="cls-1" d="M642.64 464.28a28.33 28.33 0 1 0-52.75 14.31l.08.11c1.09 1.83 2.45 3.14 3.83 5.06l16.45 21.79a5.1 5.1 0 0 0 8.16 0l16.18-21.43a60.3 60.3 0 0 0 4.11-5.45l.06-.08a28.13 28.13 0 0 0 3.88-14.31zm-28.33 12.34a12.47 12.47 0 1 1 12.47-12.47 12.47 12.47 0 0 1-12.47 12.47z"/><path class="cls-13" d="M554.93 734.91H433.71a11 11 0 0 0-11 11v111.81a11 11 0 0 0 11 11h99.5l19.94 19.93v-19.9h1.78a11 11 0 0 0 11-11V745.93a11 11 0 0 0-11-11.02z"/><path class="cls-2" d="M554.93 734.91a8.64 8.64 0 0 1 2.72.26 11.1 11.1 0 0 1 8.47 9.94c.09 2.17 0 4.48.07 7 0 5.06 0 10.85.08 17.34 0 13 .07 28.74.12 46.78 0 9 0 18.63.05 28.74v11.59a14.15 14.15 0 0 1-.38 4.06 11.53 11.53 0 0 1-4.77 6.71 11.15 11.15 0 0 1-3.93 1.67 19.65 19.65 0 0 1-4.23.27l.54-.53V890l-1-.94-20-19.92.4.16h-99.91a11.61 11.61 0 0 1-10.89-8.88 14.34 14.34 0 0 1-.33-3.66v-10.53-13.87-52.89-24.63V746a12.28 12.28 0 0 1 .41-3 11.49 11.49 0 0 1 8.05-8.1 20.45 20.45 0 0 1 5.67-.43H472.19l60.38.19 16.41.12 4.27.06c1 0 1.46.06 1.46.06s-.5 0-1.46.06l-4.27.06-16.41.11-60.38.2h-35.9a19.64 19.64 0 0 0-5.4.41 10.49 10.49 0 0 0-7.32 7.4 22 22 0 0 0-.36 5.69V853.19c.08 2.34-.21 4.77.3 6.91a10.35 10.35 0 0 0 9.75 8h100.11l.17.17 19.92 19.95-.94.39v-20.47h.53a18.11 18.11 0 0 0 4-.24 10.06 10.06 0 0 0 3.57-1.5 10.54 10.54 0 0 0 4.36-6.1 13.64 13.64 0 0 0 .35-3.8v-3.91-7.68-28.74c0-18 .09-33.79.13-46.78 0-6.49.05-12.28.07-17.34 0-2.51.06-4.87 0-7a10.88 10.88 0 0 0-8.1-9.8 19 19 0 0 0-2.5-.34z"/><rect class="cls-10" x="446.47" y="761.73" width="97.55" height="82.11" rx="17.89"/><path class="cls-13" d="M488.83 820.84a3.8 3.8 0 0 1-5.7-3.3V788a3.8 3.8 0 0 1 5.7-3.3l12.78 7.38 12.78 7.38a3.8 3.8 0 0 1 0 6.59l-12.78 7.38z"/><circle class="cls-13" cx="246.34" cy="438.09" r="83.04" transform="rotate(-45 246.335 438.095)"/><path class="cls-2" d="M329.38 438.09s-.06-.45-.13-1.34-.15-2.24-.26-3.94c-.05-.87-.11-1.84-.17-2.9s-.34-2.22-.53-3.47a61.89 61.89 0 0 0-1.73-8.57 79.21 79.21 0 0 0-9.21-22A83 83 0 0 0 261.57 357a75.81 75.81 0 0 0-10.43-1.21c-1.78-.06-3.58-.23-5.38-.2l-5.46.28c-.92.06-1.84.06-2.76.18l-2.75.42c-1.84.31-3.7.52-5.55.9-3.64 1-7.41 1.73-11 3.23a87.12 87.12 0 0 0-10.75 4.73c-1.74.95-3.41 2-5.14 3.07a42.66 42.66 0 0 0-5 3.43 92.18 92.18 0 0 0-9.35 7.97 94.42 94.42 0 0 0-8.08 9.56 79.83 79.83 0 0 0-11.78 22.71 81.66 81.66 0 0 0 0 52q1.13 3.06 2.24 6.11 1.41 2.91 2.8 5.81a20.7 20.7 0 0 0 1.53 2.82l1.66 2.73 1.66 2.71 1.9 2.54a75.46 75.46 0 0 0 17.43 17.51 42.77 42.77 0 0 0 5 3.43c1.72 1 3.39 2.13 5.14 3.07a84.21 84.21 0 0 0 10.75 4.73 87.12 87.12 0 0 0 11 3.23c1.85.38 3.72.6 5.55.9l2.75.43c.92.12 1.85.11 2.76.18l5.46.28c1.81 0 3.6-.15 5.38-.21a77.54 77.54 0 0 0 10.44-1.2 83 83 0 0 0 55.78-38.85 79.46 79.46 0 0 0 9.2-22 61.89 61.89 0 0 0 1.73-8.57c.19-1.25.41-2.4.53-3.46s.12-2 .17-2.9c.11-1.7.2-3 .26-3.94s.13-1.35.13-1.35v1.35c0 .89-.08 2.25-.14 3.95 0 .88-.08 1.85-.12 2.92s-.3 2.22-.47 3.48a60.08 60.08 0 0 1-1.64 8.63 78.49 78.49 0 0 1-9.07 22.25 83.48 83.48 0 0 1-56.18 39.49 77.53 77.53 0 0 1-10.56 1.25c-1.8.07-3.62.25-5.45.22l-5.53-.27c-.92-.06-1.86-.05-2.79-.17l-2.79-.43c-1.86-.3-3.75-.51-5.62-.9a91.42 91.42 0 0 1-22.07-8c-1.77-1-3.47-2.07-5.22-3.11a42.68 42.68 0 0 1-5-3.47 93.34 93.34 0 0 1-9.49-8.05 94.59 94.59 0 0 1-8.21-9.69l-1.99-2.52-1.68-2.75-1.69-2.77a21.86 21.86 0 0 1-1.56-2.85l-2.84-5.9c-.76-2.06-1.51-4.13-2.27-6.2a82.8 82.8 0 0 1 0-52.79 80.93 80.93 0 0 1 12-23 94.38 94.38 0 0 1 8.2-9.68 93.45 93.45 0 0 1 9.5-8.05 41.88 41.88 0 0 1 5.05-3.47c1.75-1 3.44-2.15 5.21-3.1a87.23 87.23 0 0 1 10.91-4.78c3.64-1.51 7.46-2.25 11.16-3.25 1.87-.38 3.76-.6 5.62-.9l2.79-.42c.93-.12 1.86-.11 2.79-.18l5.53-.27c1.83 0 3.65.16 5.45.23a77.71 77.71 0 0 1 10.54 1.13 83.49 83.49 0 0 1 56.18 39.48 78.79 78.79 0 0 1 9.06 22.28 60.08 60.08 0 0 1 1.64 8.63c.17 1.26.38 2.42.47 3.49s.08 2 .12 2.91c.06 1.71.1 3 .14 4s.01 1.3.01 1.3z"/><path class="cls-2" d="M231.17 470.2q5.94-.56 7.5-2t1.56-8v-26.5a16.93 16.93 0 0 0-.5-5 3.37 3.37 0 0 0-3.5-2.28 6.78 6.78 0 0 0-1.2.11c-.39.08-1.51.37-3.36.89v-1.72l2.39-.78q9.72-3.17 13.56-4.78a7.34 7.34 0 0 1 2-.67 3.22 3.22 0 0 1 .11.84v39.89q0 6.33 1.52 7.94c1 1.08 3.33 1.76 6.92 2.06v1.55h-27zm8.83-74.29a5.84 5.84 0 1 1-1.66 4.09 5.66 5.66 0 0 1 1.66-4.09z"/><path class="cls-13" d="M190.44 529.93a13.07 13.07 0 1 1-13.06-13.07 13.06 13.06 0 0 1 13.06 13.07z"/><path class="cls-2" d="M190.44 529.93c-.13 0-.09-1.17-.64-3.13a13 13 0 0 0-4.78-6.91A12.54 12.54 0 1 0 185 540a13.05 13.05 0 0 0 4.78-6.91c.55-2 .51-3.14.64-3.13s.07.28.08.84a10.18 10.18 0 0 1-.26 2.4 13 13 0 0 1-4.72 7.48 13.5 13.5 0 0 1-19.14-2.68 13.58 13.58 0 0 1 6.36-20.87 13.45 13.45 0 0 1 12.8 2.07 13 13 0 0 1 4.72 7.48 10.2 10.2 0 0 1 .26 2.41 2.24 2.24 0 0 1-.08.84z"/><path class="cls-6" d="M282.28 318.22a34.8 34.8 0 1 0-64.8 17.58l.1.13c1.34 2.25 3 3.86 4.7 6.22l20.2 26.77a6.29 6.29 0 0 0 10 0l19.87-26.33a76.32 76.32 0 0 0 5.05-6.69l.07-.1a34.61 34.61 0 0 0 4.81-17.58zm-34.8 15.15a15.32 15.32 0 1 1 15.32-15.32 15.32 15.32 0 0 1-15.32 15.32z"/><path class="cls-7" d="M247.48 371.92a6.76 6.76 0 0 1-5.42-2.7l-20.2-26.77c-.69-1-1.38-1.8-2-2.61a29.88 29.88 0 0 1-2.69-3.65l-.67-.89h.16a35.27 35.27 0 0 1 24-51.74 35.28 35.28 0 0 1 37.7 51.74h.13l-.65.89a73.71 73.71 0 0 1-5.07 6.72l-19.86 26.31a6.73 6.73 0 0 1-5.43 2.7zM218 335.69a29.92 29.92 0 0 0 2.6 3.52c.68.82 1.37 1.67 2.07 2.65l20.2 26.76a5.79 5.79 0 0 0 9.24 0L272 342.29a76 76 0 0 0 5-6.65l.06-.09a34.3 34.3 0 1 0-59.14 0zm29.49-1.82a15.82 15.82 0 1 1 15.82-15.82 15.84 15.84 0 0 1-15.83 15.82zm0-30.63a14.82 14.82 0 1 0 14.82 14.81 14.83 14.83 0 0 0-14.83-14.81z"/><path class="cls-6" d="M908 79.64a34.8 34.8 0 1 0-64.8 17.59l.1.13c1.33 2.25 3 3.85 4.69 6.22l20.21 26.76a6.28 6.28 0 0 0 10 0L898.11 104a73.41 73.41 0 0 0 5-6.7l.08-.09A34.56 34.56 0 0 0 908 79.64zM873.22 94.8a15.32 15.32 0 1 1 15.32-15.32 15.32 15.32 0 0 1-15.32 15.32z"/><path class="cls-7" d="M873.22 133.34a6.71 6.71 0 0 1-5.41-2.7l-20.21-26.76c-.69-1-1.38-1.81-2-2.62a29.07 29.07 0 0 1-2.68-3.65l-.67-.88h.16a35.26 35.26 0 0 1 24-51.74 35.27 35.27 0 0 1 37.69 51.74h.15l-.67.89a71.86 71.86 0 0 1-5.07 6.72l-19.85 26.3a6.73 6.73 0 0 1-5.44 2.7zm-29.48-36.23a29.11 29.11 0 0 0 2.6 3.52c.67.82 1.37 1.67 2.07 2.66l20.2 26.71a5.78 5.78 0 0 0 9.23 0l19.87-26.32a75.5 75.5 0 0 0 5-6.65l.06-.1a34.3 34.3 0 1 0-59.13 0zm29.48-1.81A15.82 15.82 0 1 1 889 79.48a15.83 15.83 0 0 1-15.78 15.82zm0-30.63A14.82 14.82 0 1 0 888 79.48a14.83 14.83 0 0 0-14.78-14.81z"/><path class="cls-6" d="M676.87 374.35a34.8 34.8 0 1 0-64.8 17.58l.09.13c1.34 2.25 3 3.86 4.7 6.22l20.21 26.77a6.28 6.28 0 0 0 10 0L667 398.73a74.93 74.93 0 0 0 5-6.7l.07-.1a34.61 34.61 0 0 0 4.8-17.58zm-34.8 15.15a15.32 15.32 0 1 1 15.32-15.31 15.3 15.3 0 0 1-15.32 15.31z"/><path class="cls-7" d="M642.07 428.05a6.7 6.7 0 0 1-5.41-2.7l-20.21-26.77c-.69-1-1.38-1.8-2-2.61a29.13 29.13 0 0 1-2.69-3.65l-.67-.89h.16a35.27 35.27 0 0 1 24-51.74 35.27 35.27 0 0 1 37.69 51.74h.15l-.67.9a75.2 75.2 0 0 1-5.07 6.72l-19.85 26.3a6.73 6.73 0 0 1-5.43 2.7zm-29.45-36.17a29.84 29.84 0 0 0 2.57 3.46c.67.82 1.36 1.67 2.07 2.65l20.2 26.76a5.78 5.78 0 0 0 9.23 0l19.87-26.33a74.4 74.4 0 0 0 5-6.65l.06-.09a34.31 34.31 0 1 0-59.13 0zm29.45-1.88a15.82 15.82 0 1 1 15.82-15.81A15.82 15.82 0 0 1 642.07 390zm0-30.63a14.82 14.82 0 1 0 14.82 14.82 14.83 14.83 0 0 0-14.82-14.82z"/><path class="cls-6" d="M458.13 461a34.8 34.8 0 1 0-64.8 17.59l.1.13c1.33 2.24 3 3.85 4.69 6.22l20.21 26.76a6.28 6.28 0 0 0 10 0l19.87-26.32a74.93 74.93 0 0 0 5.05-6.7l.08-.09a34.56 34.56 0 0 0 4.8-17.59zm-34.81 15.16a15.32 15.32 0 1 1 15.32-15.32 15.31 15.31 0 0 1-15.32 15.3z"/><path class="cls-7" d="M423.32 514.68a6.71 6.71 0 0 1-5.41-2.7l-20.21-26.76c-.69-1-1.37-1.81-2-2.61A29.93 29.93 0 0 1 393 479l-.68-.88h.16a35.28 35.28 0 0 1 24-51.75 35.28 35.28 0 0 1 37.69 51.75h.15l-.67.89a73.71 73.71 0 0 1-5.07 6.72L428.74 512a6.73 6.73 0 0 1-5.42 2.68zm-29.48-36.23a29.11 29.11 0 0 0 2.6 3.52c.67.82 1.36 1.67 2.07 2.65l20.2 26.76a5.78 5.78 0 0 0 9.23 0l19.87-26.32a77.6 77.6 0 0 0 5-6.65l.06-.1a34.31 34.31 0 1 0-59.13 0zm29.48-1.81a15.82 15.82 0 1 1 15.82-15.82 15.83 15.83 0 0 1-15.82 15.82zm0-30.64a14.82 14.82 0 1 0 14.82 14.82A14.83 14.83 0 0 0 423.32 446z"/><path class="cls-6" d="M558.71 699.51a34.8 34.8 0 1 0-64.8 17.59l.1.13c1.33 2.25 3 3.85 4.69 6.22l20.21 26.76a6.28 6.28 0 0 0 10 0l19.87-26.32a74.86 74.86 0 0 0 5.06-6.7l.07-.09a34.56 34.56 0 0 0 4.8-17.59zm-34.8 15.16a15.32 15.32 0 1 1 15.31-15.32 15.32 15.32 0 0 1-15.31 15.32z"/><path class="cls-7" d="M523.91 753.21a6.72 6.72 0 0 1-5.42-2.7l-20.21-26.76c-.69-1-1.37-1.81-2-2.62a29.07 29.07 0 0 1-2.68-3.65l-.67-.88h.16a35.26 35.26 0 0 1 24-51.74 35.27 35.27 0 0 1 37.69 51.74h.15l-.67.9a72.74 72.74 0 0 1-5.07 6.71l-19.85 26.3a6.71 6.71 0 0 1-5.43 2.7zM494.42 717a29.11 29.11 0 0 0 2.6 3.52c.67.82 1.37 1.67 2.07 2.66l20.2 26.75a5.78 5.78 0 0 0 9.23 0l19.87-26.32a77.08 77.08 0 0 0 5-6.65l.05-.1a34.21 34.21 0 0 0-7.67-43.74 34.58 34.58 0 0 0-28.55-7.26 34.27 34.27 0 0 0-22.91 51zm29.49-1.81a15.82 15.82 0 1 1 15.81-15.82 15.84 15.84 0 0 1-15.81 15.8zm0-30.63a14.82 14.82 0 1 0 14.81 14.81 14.83 14.83 0 0 0-14.81-14.83z"/><path class="cls-13" d="M289.64 79.86H67.58A14.63 14.63 0 0 0 53 94.48v129.2a12.82 12.82 0 0 0 12.78 12.82h181l28.43 28.5v-28.5h10.55a15.47 15.47 0 0 0 15.47-15.5V91.45a11.59 11.59 0 0 0-11.59-11.59z"/><path class="cls-3" d="M68.52 79.86h221.4a11.31 11.31 0 0 1 11.31 11.31V109a1.31 1.31 0 0 1-1.31 1.31H54.27A1.31 1.31 0 0 1 53 109V95.42a15.56 15.56 0 0 1 15.52-15.56z"/><rect class="cls-1" x="78.31" y="135.25" width="74.32" height="74.32" rx="10.43"/><path d="M146.13 180.92a19.14 19.14 0 0 1-2.47-2.33l-6.4-6.64-4.38-4.62a3.88 3.88 0 0 0-5.71.15c-3.19 4.06-6.68 8.49-10.35 13.14l-.8 1-.35.44-.46-.31-8-5.37-1.88-1.25a3.81 3.81 0 0 0-5 1.06L89.19 189 86 192.56a6.92 6.92 0 0 1-1.21 1.18 6.07 6.07 0 0 1 1-1.4c.81-1 1.78-2.26 3-3.74l10.7-13.06a4.93 4.93 0 0 1 6.5-1.44c.71.43 1.29.84 2 1.27l8 5.34-.81.13.8-1 10.46-13.13a4.92 4.92 0 0 1 7.28-.1l4.28 4.73 6.12 6.9a17.4 17.4 0 0 1 2.01 2.68zm-30.67-26.37a6.64 6.64 0 1 1-6.64-6.65 6.64 6.64 0 0 1 6.64 6.65z" class=""/><path class="cls-2" d="M289.64 79.86a9.63 9.63 0 0 1 3.28.4 11.68 11.68 0 0 1 7.27 6.06 13.85 13.85 0 0 1 1.22 7v8.51c0 6.16 0 13.23.07 21.16 0 15.88.07 35.19.11 57.42 0 11.12 0 23 .06 35.48 0 3.07.23 6.42-1 9.55a17.18 17.18 0 0 1-15.27 11.53c-3.42.1-6.79 0-10.24.06l.5-.5v29.73l-.9-.9-28.48-28.44.4.17-162.26.05h-16a28.23 28.23 0 0 1-5.39-.27 13.39 13.39 0 0 1-8.78-6.14 13.22 13.22 0 0 1-1.85-5.11 45.34 45.34 0 0 1-.15-5.3v-41-77.54-4.62a36.54 36.54 0 0 1 .15-4.65 15 15 0 0 1 4-8.37 15.21 15.21 0 0 1 8-4.46 21.84 21.84 0 0 1 4.53-.3h38.46l61.13.08 88.52.19 24.06.11 6.26.06c1.41 0 2.13.06 2.13.06s-.72 0-2.13.07l-6.26.06-24.06.11-88.52.19-61.13.08H73.31c-2.9.08-5.94-.2-8.71.29a14.14 14.14 0 0 0-7.42 4.15 14 14 0 0 0-3.69 7.76 37.11 37.11 0 0 0-.14 4.51V220.26a45.57 45.57 0 0 0 .13 5.13 12.25 12.25 0 0 0 9.68 10.23 27.14 27.14 0 0 0 5.15.24h16l162.26.05h.43l.16.16 28.44 28.48-.9.38V236h.51c3.43 0 6.87.05 10.19 0a15.89 15.89 0 0 0 8.95-3.3 16.11 16.11 0 0 0 5.48-7.55c1.14-3 .89-6.11.93-9.25 0-12.51 0-24.36.05-35.48.05-22.23.09-41.54.12-57.42 0-7.93.05-15 .07-21.16v-8.51a13.59 13.59 0 0 0-1.12-6.84 11.61 11.61 0 0 0-7-6 16.84 16.84 0 0 0-3.24-.63z"/><path class="cls-13" d="M74.38 94.55a5.23 5.23 0 1 1-5.23-5.23 5.23 5.23 0 0 1 5.23 5.23zm15.72 0a5.23 5.23 0 1 1-5.23-5.23 5.23 5.23 0 0 1 5.23 5.23zm15.73 0a5.23 5.23 0 1 1-5.23-5.23 5.23 5.23 0 0 1 5.23 5.23z"/><path class="cls-2" d="M268 149.78c0 .34-20.29.61-45.32.61s-45.32-.27-45.32-.61 20.28-.6 45.32-.6 45.32.27 45.32.6zm0 17.22c0 .34-20.29.61-45.32.61s-45.32-.27-45.32-.61 20.28-.61 45.32-.61 45.32.24 45.32.61zm0 17.14c0 .33-20.29.61-45.32.61s-45.32-.28-45.32-.61 20.28-.61 45.32-.61 45.32.27 45.32.61z"/></svg>