<svg id="Layer_1" data-name="Layer 1" xmlns="http://www.w3.org/2000/svg" viewBox="0 0 1080 1080"><defs><style>.cls-1{fill:#ececec}.cls-2{fill:#1a2e35}.cls-3{fill:#e1e1e1}.cls-4{fill:#fff}.cls-5{fill:#46a6ff}.cls-6{fill:#f5f5f5}.cls-7{fill:#375a64}.cls-8{opacity:.3}.cls-9{fill:#06b65d}.cls-10{fill:#ffbf9d}.cls-11{fill:#ff9a6c}.cls-12{opacity:.6}.cls-13{fill:#b4473e}</style></defs><path class="cls-1" d="M389.67 762.88H431.05V1016.5799999999999H389.67z"/><path class="cls-1" d="M913.71 763.47H955.09V1017.1700000000001H913.71z"/><path class="cls-1" d="M1002.1 917.58H1043.48V1017.1700000000001H1002.1z"/><path class="cls-1" d="M44.04 778.92H85.42V1016.5799999999999H44.04z"/><path class="cls-1" d="M130.45 597.1H171.82999999999998V1016.58H130.45z"/><path class="cls-1" d="M216.86 868.23H258.24V1016.58H216.86z"/><path class="cls-1" d="M303.27 577.77H344.65V1016.5799999999999H303.27z"/><path class="cls-1" d="M476.08 615.71H517.46V1016.58H476.08z"/><path class="cls-1" d="M562.49 719.88H603.87V1016.5799999999999H562.49z"/><path class="cls-1" d="M648.89 574.77H690.27V1016.5799999999999H648.89z"/><path class="cls-1" d="M735.3 499.09H776.68V1016.5799999999999H735.3z"/><path class="cls-1" d="M821.71 649.98H863.09V1016.58H821.71z"/><path class="cls-2" d="M1040.52 1017.07c0 .33-229.18.6-511.83.6s-511.87-.27-511.87-.6 229.13-.6 511.87-.6 511.83.27 511.83.6z"/><rect class="cls-3" x="224.33" y="35.46" width="733.04" height="510.8" rx="26.71"/><path class="cls-2" d="M957.37 62.18s0-.54-.11-1.59a24.86 24.86 0 0 0-.71-4.64 26 26 0 0 0-2.9-7.14 26.39 26.39 0 0 0-7.09-7.91 25.54 25.54 0 0 0-12.42-5 60.84 60.84 0 0 0-7.85-.24h-8.57l-41.06.06-261.66.17-180.67.11H254.17a47.8 47.8 0 0 0-6.69.27A25.86 25.86 0 0 0 230.54 46a25.85 25.85 0 0 0-5.31 12.19 41.2 41.2 0 0 0-.34 6.79v454.53a28.76 28.76 0 0 0 1.12 7.61 28.34 28.34 0 0 0 3.28 6.95 29.26 29.26 0 0 0 5.15 5.68 26.09 26.09 0 0 0 14 5.8c2.53.18 5.17.12 7.78.13h671.56a54.09 54.09 0 0 0 5.86-.17 27.61 27.61 0 0 0 5.62-1.29 26.23 26.23 0 0 0 15.89-15.41 28.65 28.65 0 0 0 1.75-11.09v-11.36-86.7c.09-110.46.15-199.85.2-261.64.05-30.88.08-54.86.11-71.13 0-8.12 0-14.32.06-18.5s.06-6.3.06-6.3 0 2.13.06 6.3 0 10.38.06 18.5c0 16.27.07 40.25.11 71.13 0 61.79.12 151.18.2 261.64v98.06a29.85 29.85 0 0 1-1.8 11.42 27.16 27.16 0 0 1-16.46 16 27.71 27.71 0 0 1-5.83 1.34 57 57 0 0 1-6 .19h-35.95l-207.4.06H256.24c-2.62 0-5.2.06-7.89-.13a27.33 27.33 0 0 1-14.63-6.07 30.13 30.13 0 0 1-5.39-5.94 27.37 27.37 0 0 1-4.6-15.23v-246-117V65a41.81 41.81 0 0 1 .36-7 26.9 26.9 0 0 1 5.53-12.71A26.94 26.94 0 0 1 247.3 35.2a47.59 47.59 0 0 1 6.83-.28h180.16L615 35l261.65.19 41.06.05h8.57a61.56 61.56 0 0 1 7.89.27 27.44 27.44 0 0 1 6.94 1.87 28 28 0 0 1 5.59 3.27 26.63 26.63 0 0 1 7.1 8 25.83 25.83 0 0 1 2.86 7.21 23.37 23.37 0 0 1 .65 4.67c.05 1.11.06 1.65.06 1.65z"/><path class="cls-4" transform="rotate(-90 582.715 292.755)" d="M343.43 -13.33H822.01V598.8499999999999H343.43z"/><circle class="cls-2" cx="920.53" cy="288.8" r="19.6"/><rect class="cls-2" x="172.57" y="286.81" width="153.85" height="8.1" rx="2.81" transform="rotate(-90 249.49 290.86)"/><path class="cls-5" d="M276.63 51.82H333.97V532.0500000000001H276.63z"/><path class="cls-4" d="M282.1 260.77h54.36v47.75H282.1a5.47 5.47 0 0 1-5.47-5.47v-36.8a5.47 5.47 0 0 1 5.47-5.48zm23.2-139.86a10.48 10.48 0 0 1-10.46-10.49 10.47 10.47 0 0 1 10.46-10.49 10.47 10.47 0 0 1 10.45 10.49 10.47 10.47 0 0 1-10.45 10.49zm8.7 37.64c0 .33-4.23.6-9.43.6s-9.43-.27-9.43-.6 4.22-.6 9.43-.6 9.43.27 9.43.6zm1.67 53.15c0 .33-4.22.6-9.43.6s-9.42-.27-9.42-.6 4.22-.61 9.42-.61 9.43.27 9.43.61zm0 135.17c0 .33-4.22.6-9.43.6s-9.42-.27-9.42-.6 4.22-.6 9.42-.6 9.43.27 9.43.6zm0 69.72c0 .33-4.22.6-9.43.6s-9.42-.27-9.42-.6 4.22-.61 9.42-.61 9.43.27 9.43.61z"/><path class="cls-2" d="M315.67 285.34c0 .33-4.22.6-9.43.6s-9.42-.27-9.42-.6 4.22-.6 9.42-.6 9.43.26 9.43.6z"/><path class="cls-2" d="M888.8 532.05c0-4.15-.19-190.54-.49-480.23l.49.5-612.12.1h-.05l.6-.6c0 173.2 0 337-.06 480.23l-.54-.54 612.17.54-612.17.54h-.54v-.54c0-143.26 0-307-.06-480.23v-.61h.65l612.12.11h.5v.5c-.3 289.69-.49 476.08-.5 480.23z"/><path class="cls-5" d="M694.23 447.11H702.48V474.73H694.23z"/><path class="cls-5" d="M625.34 443.11H633.59V474.74H625.34z"/><path class="cls-5" d="M642.56 436.52H650.81V474.74H642.56z"/><path class="cls-5" d="M659.78 438.62H668.03V474.74H659.78z"/><path class="cls-5" d="M677.01 426.4H685.26V474.74H677.01z"/><path class="cls-5" d="M711.45 426.63H719.7V474.74H711.45z"/><path class="cls-5" d="M728.67 442.43H736.92V474.74H728.67z"/><path class="cls-5" d="M745.89 428.75H754.14V474.74H745.89z"/><path class="cls-5" d="M763.11 418.39H771.36V474.74H763.11z"/><path class="cls-5" d="M780.33 428.52H788.58V474.74H780.33z"/><path class="cls-3" d="M805.81 509H603a16.77 16.77 0 0 1-16.74-16.75V371A16.76 16.76 0 0 1 603 354.23h202.81A16.76 16.76 0 0 1 822.56 371v121.25A16.77 16.77 0 0 1 805.81 509zM603 355.88A15.11 15.11 0 0 0 587.87 371v121.25A15.11 15.11 0 0 0 603 507.34h202.81a15.11 15.11 0 0 0 15.1-15.09V371a15.11 15.11 0 0 0-15.1-15.09z"/><path class="cls-3" d="M718.44 394.55c0 .23-23.47.43-52.4.43s-52.41-.2-52.41-.43 23.46-.43 52.41-.43 52.4.19 52.4.43z"/><path class="cls-6" d="M380.42 355.59L380.42 505.38 398.54 505.38 423.49 505.38 539.8 505.38 539.8 355.59 380.42 355.59z"/><path class="cls-2" d="M459.4 372.56a49.18 49.18 0 1 0 49.18 49.18 49.18 49.18 0 0 0-49.18-49.18zm.74 78.65A30.21 30.21 0 1 1 490.35 421a30.21 30.21 0 0 1-30.21 30.21z"/><path class="cls-5" d="M460.16 372.58v18.21a30.22 30.22 0 0 1 28.78 39.37l17.82 4.84a49.16 49.16 0 0 0-46.6-62.41z"/><path class="cls-7" d="M429.93 421a30.21 30.21 0 0 1 17.91-27.59l-7.56-17a49.2 49.2 0 0 0-30.06 45.32c0 .69 0 1.38.06 2.07h19.79c-.07-.92-.14-1.8-.14-2.8z"/><path class="cls-5" d="M460.14 451.21a30.58 30.58 0 0 1-6.39-.68c-.76 4.38-2.19 12.87-3.32 19.56A49.15 49.15 0 0 0 506.76 435l-17.83-4.83a30.21 30.21 0 0 1-28.79 21.04z"/><path d="M459.78 450.82a29.93 29.93 0 0 1-6.39-.69c-.76 4.39-2.19 12.88-3.32 19.57a50 50 0 0 0 9 .83 49.2 49.2 0 0 0 47.33-35.93l-17.83-4.83a30.23 30.23 0 0 1-28.79 21.05z" class=""/><path class="cls-2" d="M453.62 423.45h-1.82v2.34h-2.53v-2.34h-6v-1.74l5.26-7.09h2.72l-4.89 6.72h3v-2.09h2.45v2.09h1.82zm.76-3.25c0-3.68 2-5.77 4.79-5.77s4.79 2.09 4.79 5.77-2 5.78-4.79 5.78-4.79-2.09-4.79-5.78zm7 0c0-2.53-.9-3.59-2.19-3.59s-2.19 1.06-2.19 3.59.89 3.6 2.17 3.6 2.19-1.06 2.19-3.6zm3.62-2.63a2.79 2.79 0 1 1 2.78 3.08 2.78 2.78 0 0 1-2.78-3.08zm3.94 0c0-1.2-.46-1.77-1.16-1.77s-1.17.59-1.17 1.77.48 1.77 1.17 1.77 1.22-.57 1.22-1.77zm5.49-2.95h1.9l-7.63 11.17h-1.9zm-1.83 8.22a2.79 2.79 0 1 1 2.76 3.08 2.78 2.78 0 0 1-2.73-3.08zm3.92 0c0-1.18-.46-1.77-1.16-1.77s-1.17.57-1.17 1.77.48 1.77 1.17 1.77 1.19-.61 1.19-1.77zm23.57 60.49c0 .26-18.22.46-40.69.46s-40.69-.2-40.69-.46 18.21-.47 40.69-.47 40.69.21 40.69.47zM482 490.8c0 .26-10.1.47-22.57.47s-22.57-.21-22.57-.47 10.1-.47 22.57-.47 22.57.21 22.57.47z"/><path class="cls-3" d="M855 136.05s-.8 0-2.37.06h-7l-27 .1-100.63.23-341.68.21.83-.6V304.97l-.83-.6 339.3.21 99.79.18 26.82.1 6.94.05c1.56 0 2.35.06 2.35.06h-2.35l-6.94.06-26.82.1-99.79.18-339.3.21h-.84V305v-85.72-83.8h.84l341.68.21 100.57.18 27 .1 7 .06c1.58-.03 2.43.02 2.43.02z"/><path class="cls-3" d="M855 164.49c0 .34-107.16.61-239.32.61s-239.34-.27-239.34-.61 107.13-.61 239.34-.61 239.32.27 239.32.61zm0 23.27c0 .34-107.16.61-239.32.61s-239.34-.27-239.34-.61 107.13-.62 239.34-.62 239.32.28 239.32.62zm0 23.24c0 .34-107.16.62-239.32.62s-239.34-.28-239.34-.62 107.13-.61 239.34-.61 239.32.3 239.32.61zm0 23.29c0 .34-107.16.61-239.32.61s-239.34-.27-239.34-.61 107.13-.61 239.34-.61S855 234 855 234.29zm0 23.27c0 .34-107.16.61-239.32.61s-239.34-.27-239.34-.61 107.08-.56 239.29-.56 239.37.22 239.37.56zm-478.71 23.27c0-.34 107.16-.62 239.32-.62s239.34.28 239.34.62-107.14.61-239.34.61-239.32-.28-239.32-.61z"/><path class="cls-3" d="M444.13 307.54c-.33 0-.61-38.39-.61-85.74s.28-85.75.61-85.75.62 38.39.62 85.75-.28 85.74-.62 85.74zm68.94 0c-.33 0-.61-38.39-.61-85.74s.28-85.75.61-85.75.62 38.39.62 85.75-.28 85.74-.62 85.74zm68.93 0c-.34 0-.61-38.39-.61-85.74s.27-85.75.61-85.75.62 38.39.62 85.75-.27 85.74-.62 85.74zm69 0c-.34 0-.61-38.39-.61-85.74s.27-85.75.61-85.75.62 38.39.62 85.75-.33 85.74-.62 85.74zm68.89 0c-.34 0-.61-38.39-.61-85.74s.27-85.75.61-85.75.61 38.39.61 85.75-.27 85.74-.61 85.74zm66.74 0c-.34 0-.62-38.39-.62-85.74s.28-85.75.62-85.75.61 38.39.61 85.75-.24 85.74-.61 85.74zm68.94 0c-.34 0-.62-38.39-.62-85.74s.28-85.75.62-85.75.61 38.39.61 85.75-.27 85.74-.61 85.74z"/><path class="cls-9" d="M448.33 280.83a4.2 4.2 0 1 1-4.2-4.2 4.2 4.2 0 0 1 4.2 4.2zm68.94-46.54a4.2 4.2 0 1 1-4.2-4.19 4.2 4.2 0 0 1 4.2 4.19zm68.94 22.87A4.2 4.2 0 1 1 582 253a4.2 4.2 0 0 1 4.21 4.16zm68.52-49.01c3.42 4.49-1.66 9.57-6.15 6.15-3.42-4.49 1.66-9.57 6.15-6.15zm69.73 0c3.42 4.49-1.66 9.57-6.15 6.15-3.42-4.49 1.69-9.57 6.15-6.15zm65.23 45.68c3.42 4.49-1.65 9.57-6.15 6.15-3.42-4.5 1.66-9.57 6.15-6.15z"/><path class="cls-7" d="M517.27 187.76a4.2 4.2 0 1 1-4.2-4.2 4.19 4.19 0 0 1 4.2 4.2zm-68.94 69.8a4.2 4.2 0 1 1-4.2-4.2 4.19 4.19 0 0 1 4.2 4.2zm341.37 20.19c3.42 4.49-1.65 9.57-6.15 6.15-3.42-4.49 1.66-9.57 6.15-6.15zm-65.61-43.46a4.2 4.2 0 1 1-4.2-4.19 4.2 4.2 0 0 1 4.2 4.19zm-68.24-.61a4.2 4.2 0 1 1-4.2-4.2 4.19 4.19 0 0 1 4.2 4.2z"/><path class="cls-3" d="M415.35 324.23c0 .34-3 .61-6.64.61s-6.64-.27-6.64-.61 3-.62 6.64-.62 6.64.28 6.64.62zm70.46 0c0 .34-3 .61-6.64.61s-6.63-.27-6.63-.61 3-.62 6.63-.62 6.64.28 6.64.62zm70.46 0c0 .34-3 .61-6.63.61s-6.64-.27-6.64-.61 3-.62 6.64-.62 6.63.28 6.63.62zm70.47 0c0 .34-3 .61-6.64.61s-6.64-.27-6.64-.61 3-.62 6.64-.62 6.64.28 6.64.62zm70.46 0c0 .34-3 .61-6.64.61s-6.64-.27-6.64-.61 3-.62 6.64-.62 6.64.28 6.64.62zm63.01 0c0 .34-3 .61-6.64.61s-6.64-.27-6.64-.61 3-.62 6.64-.62 6.64.28 6.64.62zm63.01 0c0 .34-3 .61-6.64.61s-6.64-.27-6.64-.61 3-.62 6.64-.62 6.64.28 6.64.62zM366.33 304c0 .34-2.4.61-5.36.61s-5.36-.27-5.36-.61 2.4-.61 5.36-.61 5.36.3 5.36.61zm0-27c0 .34-2.4.61-5.36.61s-5.36-.27-5.36-.61 2.4-.61 5.36-.61 5.36.24 5.36.61zm0-27.09c0 .33-2.4.61-5.36.61s-5.36-.28-5.36-.61 2.4-.62 5.36-.62 5.36.28 5.36.62zm0-27.07c0 .34-2.4.62-5.36.62s-5.36-.28-5.36-.62 2.4-.61 5.36-.61 5.36.28 5.36.61zm0-27.06c0 .34-2.4.62-5.36.62s-5.36-.28-5.36-.62 2.4-.61 5.36-.61 5.36.27 5.36.61zm0-27.06c0 .34-2.4.61-5.36.61s-5.36-.27-5.36-.61 2.4-.61 5.36-.61 5.36.27 5.36.61zm0-27.06c0 .34-2.4.61-5.36.61s-5.36-.27-5.36-.61 2.4-.61 5.36-.61 5.36.27 5.36.61z"/><path class="cls-5" d="M375.83 306.06L375.06 303.88 443.61 279.79 512.9 233.01 581.85 255.88 651.31 210.07 720.87 209.87 721.17 210.08 787.26 256.77 851.3 214.46 852.57 216.39 787.22 259.57 786.57 259.12 720.14 212.18 652 212.38 582.18 258.43 513.25 235.57 444.52 281.92 375.83 306.06z"/><path class="cls-7" d="M787.63 281.32L720.15 235.45 650.61 235.45 581.02 189.52 513.55 188.92 444.62 258.71 376.29 258.71 376.29 256.4 443.65 256.4 512.6 186.6 581.73 187.22 651.3 233.13 720.86 233.13 786.85 278 852.77 162.18 854.78 163.32 787.63 281.32z"/><path class="cls-2" d="M536 110.52c0 .33-222.39.6-79.78.6-44.07 0-79.79-.27-79.79-.6s35.72-.6 79.79-.6 79.78.27 79.78.6z"/><path class="cls-10" d="M265.53 410.41l-8.13 10.16v-17.49h-25.62s-2.84 40.06-2.23 48.6 10.16 32.93 10.16 32.93A94.45 94.45 0 0 0 265.53 462c11.38-14.63 30.3-50.29 30.3-50.29l-19.73-11.87z"/><path class="cls-11" d="M267.15 408.53c.12.11-1.2 1.78-3.35 4.47s-5.15 6.37-8.57 10.36-6.66 7.5-9.17 9.89-4.26 3.64-4.35 3.52 1.43-1.59 3.74-4.12 5.44-6.1 8.86-10.08c6.78-8 12.55-14.31 12.84-14.04z"/><path class="cls-7" d="M266.39 344.92s-7.3-59.77-36.16-65.88l-14.94 57.45 12.42 41.44 41.19-5.62z"/><path class="cls-7" d="M75.76 384.64l1.37 4.27 28.36 88.85s69.88 26.57 95 16.05 36.74-25.46 36.74-25.46l-5.6-189.1-39.85-6-68.72-5L77 282.93z"/><path d="M162.5 419.27c-25.8-10.66-51.09-26.84-72.66-44.56l-14.08 7.51c10.58 21.34 19.38 40.83 34 59.67 4.92 6.34 12 12.61 19.42 15.58 10.62 4.23 24.24 1.16 32.61-6.64s14.65-30.67 11.9-49.35c-4.69.26-6.84 19.59-11.19 17.79z" class=""/><path class="cls-2" d="M235.54 364.63c-.4.05-.6-8.88-4.72-18.85S220.72 329.23 221 329c.1-.09 1.75 1.4 4 4.23a52.28 52.28 0 0 1 10.43 25.64c.38 3.54.25 5.75.11 5.76zm-.11-141.14a10.26 10.26 0 0 1-9.63-4.3c2.48.38 5.16.73 7.4-.41s3.5-4.44 1.75-6.24c-1.37-1.4-3.63-1.16-5.59-1.31a12.06 12.06 0 0 1-10.27-7.88c-1.65-4.76-.14-9.94.46-14.95a41.21 41.21 0 0 0-17.24-38L171 132.29c-11.37 14.55-14.91 34.15-12.55 52.45s10.12 35.52 19.45 51.44c2.72 4.64 5.62 9.24 9.46 13s8.73 6.67 14.08 7.22a14.53 14.53 0 0 0-2.32-13.11A31.59 31.59 0 0 0 222.4 235l-6.71-5.15a24.51 24.51 0 0 0 19.74-6.36z"/><path class="cls-10" d="M114.76 172.38c.55-13.09 8.7-24 21.3-27.66l39.28-11.22c17-2.33 29.07 18.38 30.68 35.51 1.79 19 3.13 39.13 1.31 53.43-3.66 28.75-25.48 33.07-25.48 33.07s.38 13.61.61 22l-6.4 37.45-51.8-44.22-9.59-98c-.03-.5.06.26.09-.36z"/><path class="cls-2" d="M201.05 190.87a3.66 3.66 0 0 1-3.42 3.81 3.51 3.51 0 0 1-3.89-3.19 3.68 3.68 0 0 1 3.42-3.81 3.52 3.52 0 0 1 3.89 3.19zm1-10.53c-.44.49-3.29-1.48-7.24-1.35s-6.78 2.2-7.22 1.73c-.22-.21.22-1.09 1.45-2a10.09 10.09 0 0 1 5.77-2 9.68 9.68 0 0 1 5.77 1.67c1.24.88 1.68 1.73 1.47 1.95zm-35.58 10.58a3.67 3.67 0 0 1-3.42 3.81 3.52 3.52 0 0 1-3.89-3.2 3.68 3.68 0 0 1 3.43-3.81 3.51 3.51 0 0 1 3.88 3.2zm-1.93-9.51c-.44.49-3.28-1.48-7.23-1.35s-6.78 2.2-7.22 1.73c-.22-.21.21-1.09 1.45-2a10.06 10.06 0 0 1 5.77-2 9.7 9.7 0 0 1 5.77 1.67c1.24.88 1.68 1.73 1.46 1.95zm13.23 30.66c0-.22 2.42-.72 6.38-1.35 1-.14 2-.37 2.1-1.06s-.24-1.81-.76-3l-3.22-7.58c-4.48-10.81-7.75-19.7-7.31-19.88s4.42 8.44 8.89 19.24c1.08 2.66 2.12 5.21 3.1 7.64.41 1.13 1.11 2.41.64 3.94a2.52 2.52 0 0 1-1.61 1.52 6.5 6.5 0 0 1-1.71.29c-3.99.37-6.47.47-6.5.24z"/><path class="cls-11" d="M143.61 246.41s9.87 19.39 38.42 15.83l-.18-6.73a72.18 72.18 0 0 1-38.24-9.1z"/><path class="cls-2" d="M162.9 167.18c-.36 1.08-4.32.7-8.93 1.4s-8.33 2.07-9 1.13c-.29-.45.33-1.48 1.81-2.57a15.71 15.71 0 0 1 13.64-1.93c1.75.64 2.63 1.45 2.48 1.97zm37.51 1.12c-.66.92-3.41.07-6.69.13s-6 .78-6.68-.13c-.3-.45.11-1.36 1.3-2.25a9.66 9.66 0 0 1 10.77 0c1.19.89 1.6 1.8 1.3 2.25z"/><path class="cls-11" d="M163 219.78a5.16 5.16 0 0 1 5.21-4.06 5.36 5.36 0 0 1 4.23 2.83 6.61 6.61 0 0 1 .38 5.14l-.07.37a5.86 5.86 0 0 1-6.56 1.6 5.5 5.5 0 0 1-3.19-5.88z"/><path class="cls-2" d="M175.58 224.07c0-.61-4-.3-7.1-3.49s-3-7.47-3.55-7.46c-.26 0-.7 1-.61 2.81a9.94 9.94 0 0 0 2.74 6.24 8.66 8.66 0 0 0 5.93 2.67c1.68.02 2.63-.5 2.59-.77zM128 126.8c4.42-7 14.86-14.35 23-15.78 9.32-1.63 14.93 0 21.06 5.56 0 0 4.77 4.6 9.23 5.47s8.21.13 13.54 2.86c7.28 3.72 10.47 13.46 13.84 20.91 4.19 9.26 10.17 17.77 12.9 27.56s1.28 21.81-7 27.75c1.58-8.35 2.88-17.65-1.71-24.8-3.5-5.46-9.73-8.48-14.22-13.16-5.41-5.65-6.12-13.2-11.79-18.58-13-12.3-35.76 9.33-58.91-17.79"/><path class="cls-2" d="M210.23 165.92c-3.37-8.17-7-16.41-12.76-23.12a45 45 0 0 0-59.78-7.66l-2.26.19a38 38 0 0 0 29.5 14.21c6.72 0 14-1.76 19.79 1.7 5.55 3.32 7.65 10.31 12.22 14.89 3.1 3.12 7.27 5 10.29 8.24 3.2 3.4 4.82 7.94 6.37 12.35 2.01-6.88-.6-14.17-3.37-20.8z"/><path class="cls-2" d="M150 140.73l-18.31-16.13c-14.3-.75-23.47 12.77-28.38 23.2-3.65 7.75-4.78 16.43-7.53 24.54-2.82 8.34-7.33 16-9.9 24.46S83 215 88 222.19l3.2-5.89a35.52 35.52 0 0 0 9.62 22l1.23-6.13A34.48 34.48 0 0 0 115.88 247l8.59 23c12.69-38.68-19.98-41.62 25.53-129.27z"/><path class="cls-2" d="M147.41 144.1a83.67 83.67 0 0 1-4.31 15.35 29.52 29.52 0 0 1-9.44 12.63c-6.28 4.55-14.36 5.49-21.89 7.3s-15.57 5.29-18.67 12.4A176.88 176.88 0 0 1 99.53 161c3.36-11.07 8.21-22.35 17.43-29.33a31.94 31.94 0 0 1 30.12-4.49"/><path class="cls-10" d="M127.9 194.64c-.38-1-18.18-6.81-17.88 11.92.29 18.2 18.54 14.09 18.57 13.57s-.69-25.49-.69-25.49z"/><path class="cls-11" d="M122.84 213.35c-.08-.06-.31.22-.85.48a3.13 3.13 0 0 1-2.36.09c-1.94-.66-3.62-3.69-3.77-7a10.48 10.48 0 0 1 .8-4.56 3.68 3.68 0 0 1 2.34-2.48 1.62 1.62 0 0 1 1.89.83c.25.51.14.87.24.9s.38-.31.22-1.06a2 2 0 0 0-.73-1.12 2.38 2.38 0 0 0-1.77-.43c-1.4.12-2.64 1.44-3.25 2.88a10.79 10.79 0 0 0-1 5.09c.19 3.67 2.13 7.06 4.78 7.77a3.39 3.39 0 0 0 2.89-.53c.54-.42.63-.83.57-.86z"/><path class="cls-4" d="M120.86 216.62a3.6 3.6 0 1 0 .86.25"/><path class="cls-2" d="M121.72 216.87a4.89 4.89 0 0 1 1.71 2.39 3.11 3.11 0 0 1-.63 2.88 3.18 3.18 0 0 1-5.65-1.62 3.1 3.1 0 0 1 1-2.77 5 5 0 0 1 2.72-1.13s-.28-.18-.86-.18a3.75 3.75 0 0 0-2.24.86 3.64 3.64 0 0 0-1.37 3.33 3.91 3.91 0 0 0 7 2 3.64 3.64 0 0 0 .61-3.54 3.78 3.78 0 0 0-1.45-1.92c-.5-.31-.83-.35-.84-.3z"/><path class="cls-7" d="M109.2 215.8s-.22-.11-.55-.41a11.29 11.29 0 0 1-1.4-1.4 22.07 22.07 0 0 1-3.79-6.2 21.35 21.35 0 0 1-1.46-10.71 18.25 18.25 0 0 1 6.44-11.49 44.59 44.59 0 0 1 11.38-6.68c3.69-1.6 7-3 9.65-4.44 5.36-2.82 7.74-5.84 7.89-5.69a8 8 0 0 1-1.67 2.08 28.44 28.44 0 0 1-5.8 4.36 102.48 102.48 0 0 1-9.62 4.7 45.73 45.73 0 0 0-11 6.58 17.43 17.43 0 0 0-6.13 10.74 21.16 21.16 0 0 0 1.14 10.24c2.09 5.64 5.15 8.15 4.92 8.32z"/><path class="cls-7" d="M107.6 205a4.84 4.84 0 0 1-.82-1.78 14.9 14.9 0 0 1-.65-5.29 16.88 16.88 0 0 1 2.23-7.63 16.61 16.61 0 0 1 7.12-6.62 93.85 93.85 0 0 1 8.89-3.6 24.47 24.47 0 0 0 6.63-3.68c3.45-2.75 4-5.68 4.17-5.57a4 4 0 0 1-.44 1.91 12.09 12.09 0 0 1-3.17 4.31 23.8 23.8 0 0 1-6.79 4.06c-2.73 1.16-5.81 2.12-8.76 3.64a16 16 0 0 0-6.71 6.11A16.81 16.81 0 0 0 107 198c-.42 4.34.85 6.94.6 7zm40.99-59.71c-.37.15-2.05-6-7.12-11.74s-10.87-8.3-10.68-8.64c.05-.13 1.59.3 3.84 1.54a29.19 29.19 0 0 1 7.75 6.3 29.5 29.5 0 0 1 5.2 8.53c.92 2.4 1.14 3.98 1.01 4.01zm83.64 66.9a8.79 8.79 0 0 1-2.34-.31 47.26 47.26 0 0 1-6.21-1.66 28.45 28.45 0 0 1-4.1-1.82 11.17 11.17 0 0 1-4-3.43 6.91 6.91 0 0 1-1.08-2.74l-.21-1.39a10.87 10.87 0 0 1-.17-1.52 19.1 19.1 0 0 1 1.11-6.07 22.86 22.86 0 0 0 1.27-5.7 8.84 8.84 0 0 0-1.42-5c-1.81-2.93-4.41-4.94-6.3-6.85a51.77 51.77 0 0 0-4.81-4.13 15.1 15.1 0 0 1-1.88-1.39c.07-.19 3.22 1.24 7.26 4.89 2 1.83 4.64 3.75 6.67 6.89a9.81 9.81 0 0 1 1.66 5.61 23.06 23.06 0 0 1-1.3 6 18.53 18.53 0 0 0-1.08 5.69 8.33 8.33 0 0 0 .14 1.33c.06.48.13.95.19 1.42a6 6 0 0 0 .88 2.33 10.22 10.22 0 0 0 3.56 3.16 28.8 28.8 0 0 0 3.9 1.89c5.03 1.92 8.31 2.61 8.26 2.8z"/><path class="cls-10" d="M167.37 985.54L168.38 960.01 212.87 958.33 212.19 989.57 196.01 999.33 167.37 985.54z"/><path class="cls-5" d="M213.16 983.76v2.93s49.39 20.39 49.83 29.8l-98.47-1.49 1.82-32.74c14.54 7.03 29.85 8.02 46.82 1.5z"/><path d="M213.3 984.07V987s49.39 20.39 49.83 29.8l-98.46-1.44 1.83-32.75c14.5 7 29.82 7.99 46.8 1.46z" class=""/><g class="cls-12"><path class="cls-4" d="M176.16 992.92a4 4 0 0 0-2.85 4.55 3.86 3.86 0 0 0 4.48 2.86c1.93-.46 3.62-3 3-4.83s-3.23-3.37-5-2.46"/></g><g class="cls-12"><path class="cls-4" d="M164.52 1015l.44-7.87 94.21 4.27s4.35 2 3.81 5z"/></g><path class="cls-2" d="M213.49 987c0 .48-2.43.66-4.82 2.17s-3.68 3.52-4.12 3.32.32-3 3.24-4.74 5.81-1.22 5.7-.75zm10.26 4.39c.1.47-2 1.26-3.65 3.27s-2.17 4.15-2.65 4.12-.74-2.75 1.37-5.21 4.93-2.64 4.93-2.18zm5.68 12.45c-.43.09-1.07-2.32.21-4.93s3.53-3.63 3.73-3.23-1.21 1.79-2.23 4-1.23 4.12-1.71 4.16z"/><path class="cls-10" d="M127.38 986.12L128.38 960.59 172.87 958.91 172.2 990.15 156.02 999.91 127.38 986.12z"/><path class="cls-5" d="M173.17 984.34v2.93s49.4 20.39 49.83 29.8l-98.45-1.45 1.82-32.74c14.51 6.99 29.82 7.98 46.8 1.46z"/><g class="cls-12"><path class="cls-4" d="M136.16 993.5a4 4 0 0 0-2.85 4.55 3.88 3.88 0 0 0 4.49 2.86c1.92-.46 3.62-3 3-4.83s-3.24-3.37-5-2.46"/></g><g class="cls-12"><path class="cls-4" d="M124.53 1015.62l.43-7.87 94.21 4.27s4.35 2 3.81 5.05z"/></g><path class="cls-2" d="M173.49 987.55c0 .48-2.43.66-4.82 2.17s-3.68 3.51-4.12 3.32.32-3 3.24-4.74 5.81-1.19 5.7-.75zm10.26 4.45c.11.47-2 1.25-3.65 3.26s-2.17 4.16-2.64 4.13-.75-2.75 1.37-5.21 4.92-2.67 4.92-2.18zm5.69 12.42c-.44.09-1.07-2.32.2-4.93s3.54-3.63 3.73-3.23-1.21 1.79-2.22 4-1.23 4.12-1.71 4.16z"/><path class="cls-10" d="M60.55 357s37 57.37 56.44 80.5 51.36 2.78 55.06-28.68 2.77-89.82 2.77-89.82L149 303.62l-16.71 79.59-20.82-38.75z"/><path class="cls-10" d="M174.82 319l11.11-27.76s5.2-2.53 6.55-3.79c1.63-1.52 1.31-11.48.85-13.33s1.8-6.94.21-7.86-6.06 0-6.22-1.85c0-.4 2.3-5.11-.94-7.45-1.16-.84-5.12-.92-5.12-.92l-1.81-9.21s-7.4-9.69-11.57-4.63c0 0-15.73 19-17.11 21.74s-1.8 34.93-1.8 40.94"/><path class="cls-11" d="M149 304.89a8.63 8.63 0 0 1-.11-1.67c0-1.21 0-2.81-.06-4.81 0-4.17 0-10.22.21-17.71.11-3.75.24-7.85.57-12.27.1-1.11.19-2.23.39-3.39a7.14 7.14 0 0 1 1.61-3.27c1.39-1.92 2.88-3.84 4.42-5.79 3.07-3.91 6.36-8 9.8-12.17a14.23 14.23 0 0 1 3-3.09 4.9 4.9 0 0 1 4.53.05 20 20 0 0 1 6.64 5.7l.08.1v.15c.18.89.37 1.85.56 2.82q.63 3.24 1.25 6.4l-.57-.49a23.14 23.14 0 0 1 3.61.37 5.11 5.11 0 0 1 1.87.69 4.55 4.55 0 0 1 1.3 1.49 5.77 5.77 0 0 1 .54 3.71 11 11 0 0 1-.39 1.74l-.26.81v.17s0-.09 0 0 0 .11.06.15a1.86 1.86 0 0 0 1.1.45 15.55 15.55 0 0 0 1.59.16c.55 0 1.11.08 1.68.16a3.18 3.18 0 0 1 1.84.76 2.68 2.68 0 0 1 .49 1.94 12.33 12.33 0 0 1-.21 1.66c-.19 1.07-.45 2.09-.58 3.07a4.13 4.13 0 0 0 0 1.36 11.79 11.79 0 0 1 .21 1.59c.08 1 .12 2.05.14 3.06a40.78 40.78 0 0 1-.3 5.88 7.08 7.08 0 0 1-.87 2.88 8.62 8.62 0 0 1-2.33 1.72c-1.56.91-3.1 1.69-4.6 2.42l.22-.24-8.3 20.21q-1.45 3.45-2.33 5.5a11.33 11.33 0 0 1-.9 1.88 13.48 13.48 0 0 1 .65-2q.79-2.08 2.11-5.58c1.92-4.95 4.62-11.88 7.92-20.37l.07-.16.16-.08c1.47-.74 3-1.53 4.51-2.43a8.57 8.57 0 0 0 2-1.47 6.69 6.69 0 0 0 .67-2.44 39.68 39.68 0 0 0 .24-5.72c0-1-.07-2-.16-3a10.81 10.81 0 0 0-.19-1.45 5.05 5.05 0 0 1 0-1.73c.14-1.09.39-2.11.57-3.14a13.67 13.67 0 0 0 .19-1.5 1.74 1.74 0 0 0-.21-1.14 2.58 2.58 0 0 0-1.16-.38c-.5-.07-1-.1-1.59-.14s-1.12-.07-1.71-.17a2.76 2.76 0 0 1-1.86-.94 1.37 1.37 0 0 1-.25-.61.86.86 0 0 1 0-.45l.07-.24.24-.8a8.66 8.66 0 0 0 .35-1.57 4.66 4.66 0 0 0-.41-3 3.38 3.38 0 0 0-1-1.1 4.16 4.16 0 0 0-1.4-.48 22.25 22.25 0 0 0-3.4-.34h-.48l-.1-.47c-.41-2.1-.83-4.24-1.26-6.4-.19-1-.38-1.93-.55-2.82l.11.25a19.18 19.18 0 0 0-6.16-5.35 3.73 3.73 0 0 0-3.46-.1 13.85 13.85 0 0 0-2.65 2.81c-3.44 4.18-6.75 8.22-9.84 12.1-1.55 1.94-3.05 3.84-4.43 5.72a6.35 6.35 0 0 0-1.47 2.85c-.19 1.08-.29 2.2-.4 3.28-.37 4.38-.55 8.48-.71 12.22-.25 7.38-.45 13.39-.59 17.69-.07 2-.12 3.59-.16 4.8a9.43 9.43 0 0 1-.16 1.7z"/><path class="cls-11" d="M181.26 256.05c0 .21-1.92.49-4.86 1.46a36.47 36.47 0 0 0-4.94 2.38 24.82 24.82 0 0 1-6.73 1.59 13 13 0 0 0-9.83 5.85c-1.65 2.61-1.4 4.69-1.63 4.66s-.69-2.12.9-5.08a12.42 12.42 0 0 1 3.83-4.24 14.21 14.21 0 0 1 6.55-2.38 26.82 26.82 0 0 0 6.46-1.41 28.44 28.44 0 0 1 5.14-2.18c3.12-.8 5.1-.77 5.11-.65zm-6.85 1.03c-.25.21-1.27-.73-1.53-2.33s.39-2.82.69-2.71.27 1.22.49 2.51.63 2.33.35 2.53zm13.59 7.55c.09.29-6.38 2.06-14.6 2.14-2.06 0-4-.12-5.43.53a5.88 5.88 0 0 0-2.91 3c-1 2.34-.83 4.09-1 4.07s-.6-1.69.26-4.39a6.53 6.53 0 0 1 3.24-3.73c1.8-.85 3.9-.68 5.87-.72 8.01-.04 14.49-1.25 14.57-.9zm4.48 8.08c0 .15-1.29.6-3.52.82s-5.3.17-8.62.27a19.37 19.37 0 0 0-4.54.56 5.52 5.52 0 0 0-2.94 1.88 5.28 5.28 0 0 0-.92 3.16c-.06 0-.3-.27-.42-.93a4.16 4.16 0 0 1 .64-2.7 6 6 0 0 1 3.3-2.47 17.52 17.52 0 0 1 4.84-.71c3.41-.1 6.43.12 8.62.09s3.53-.14 3.56.03zm-4.11 8.16c.23.11-1 2.17-4 2.84l.47-.64c.06.53.11 1 .17 1.57.34 3.49.35 6.33 0 6.36s-.88-2.77-1.22-6.23c0-.53-.08-1-.13-1.57l-.05-.56.52-.08c2.58-.41 4.03-1.91 4.24-1.69z"/><path class="cls-2" d="M237.12 465S270 537.63 270 583.08s-32.46 194.06-32.46 194.06-4.33 41.12-8.66 96a655.22 655.22 0 0 1-16.59 101.72h-32.43l-52.66 1.44s-22.36-91.67-20.92-126.3 7.21-74.31 7.21-74.31S85.36 661 80.31 640.07c-2-8.19-2.87-23.81-3-40.43a265.44 265.44 0 0 1 18.58-100l9.11-23.31z"/><path class="cls-7" d="M188.58 610.26c-.36 0-4.27 81.34-8.74 181.69S172 973.69 172.4 973.71s4.26-81.32 8.73-181.7 7.81-181.73 7.45-181.75zm7.09-32.49a24.51 24.51 0 0 0 .72-4c.4-2.6.83-6.38 1.22-11.06a245.9 245.9 0 0 0 .22-36.7 248.21 248.21 0 0 0-5.23-36.34c-1-4.58-2-8.27-2.72-10.79a24.32 24.32 0 0 0-1.26-3.88 23.91 23.91 0 0 0 .77 4c.6 2.55 1.4 6.26 2.31 10.85a291.17 291.17 0 0 1 4.85 36.24 294.17 294.17 0 0 1 .15 36.55c-.28 4.67-.56 8.46-.81 11.07a26.79 26.79 0 0 0-.22 4.06zM85.05 535a6.42 6.42 0 0 0 2.26 1.37 16.68 16.68 0 0 0 7.11 1.19c6.16-.17 14.31-3.32 21.73-8.86a50.85 50.85 0 0 0 15-18.09 44.28 44.28 0 0 0 2.65-6.65 10.69 10.69 0 0 0 .56-2.57c-.25-.08-1.17 3.56-4 8.8a54 54 0 0 1-15 17.48c-7.24 5.41-15.12 8.6-21 9s-9.24-1.94-9.31-1.67zM221 491.72a8.6 8.6 0 0 0 .54 2.31 44.63 44.63 0 0 0 2.27 6.06 64.83 64.83 0 0 0 28.76 30.69 46.43 46.43 0 0 0 5.9 2.66 8.5 8.5 0 0 0 2.28.68c.09-.22-3.06-1.44-7.74-4.14a71.34 71.34 0 0 1-28.38-30.28c-2.36-4.84-3.38-8.05-3.63-7.98zm-46.42-1.65c.11 0 .15-.5.42-1.32a5.67 5.67 0 0 1 2.09-2.81 5.24 5.24 0 0 1 4.86-.62 5.07 5.07 0 0 1 0 9.49 5.18 5.18 0 0 1-4.86-.62 5.61 5.61 0 0 1-2.09-2.8c-.27-.82-.31-1.32-.42-1.32s-.21.5-.07 1.44a5.69 5.69 0 0 0 2 3.41 6.09 6.09 0 0 0 5.83 1 6.21 6.21 0 0 0 0-11.73 6.09 6.09 0 0 0-5.83 1 5.7 5.7 0 0 0-2 3.42c-.14.95 0 1.46.07 1.46zm-44.91 283.52c-.17.32 7.65 5 17.46 10.43s17.91 9.61 18.08 9.29-7.64-5-17.46-10.42-17.9-9.61-18.08-9.3z"/><path class="cls-3" d="M268.35 317.05l-62.77 95.45a2.83 2.83 0 0 0 2.72 4.36l72.29-9.1a2.82 2.82 0 0 0 1.93-1.14l69.05-94.3a2.82 2.82 0 0 0-2.49-4.49l-74.38 5.5a8.34 8.34 0 0 0-6.35 3.72z"/><path class="cls-2" d="M268.35 317.05a5 5 0 0 1 .58-.86 8 8 0 0 1 2.34-2 10.09 10.09 0 0 1 4.82-1.17l6.72-.56 42.88-3.36 14.21-1.1 7.56-.58c.67 0 1.23-.12 2-.12a3.24 3.24 0 0 1 2.08.86 3.32 3.32 0 0 1 .55 4.25L332 340l-46.1 63.05c-1.05 1.41-2 2.75-3.12 4.22a3.55 3.55 0 0 1-1.29.87 5.43 5.43 0 0 1-1.4.27l-2.55.32L267.4 410l-19.77 2.48-37.38 4.67c-.78.08-1.42.21-2.3.26a3.32 3.32 0 0 1-2.4-1 3.46 3.46 0 0 1-1-2.38 4 4 0 0 1 .87-2.31l4.77-7.23 9.12-13.81 16.38-24.77 23.79-35.83 6.52-9.71c.73-1.06 1.31-1.89 1.72-2.5a8.88 8.88 0 0 1 .62-.84 5 5 0 0 1-.51.9c-.4.63-.94 1.48-1.62 2.58l-6.34 9.83-23.47 36c-5 7.6-10.41 15.92-16.26 24.85l-9.06 13.84c-1.56 2.38-3.14 4.8-4.75 7.24a2.84 2.84 0 0 0-.68 1.72 2.35 2.35 0 0 0 .68 1.61 2.17 2.17 0 0 0 1.6.66c.62 0 1.45-.17 2.17-.25l37.37-4.74 19.78-2.49 10.11-1.28 2.55-.32A4.3 4.3 0 0 0 281 407a2.14 2.14 0 0 0 .83-.56l3-4.12 46.19-63c7.09-9.67 13.84-18.85 20.15-27.45a2.33 2.33 0 0 0-.38-3 2.29 2.29 0 0 0-1.45-.61c-.54 0-1.26.08-1.88.12L340 309l-14.22 1-42.9 3-6.74.44a10 10 0 0 0-4.72 1 9.64 9.64 0 0 0-3.07 2.61z"/><path class="cls-2" d="M351.57 312.32a8.05 8.05 0 0 1-1.51.23l-4.39.44-16.34 1.45-55.55 4.56.44-.25c-3.47 5.17-7.06 10.53-10.66 16.07-14.66 22.53-27.47 43.25-37.14 58-4.81 7.38-8.81 13.29-11.59 17.36l-3.26 4.64a11.85 11.85 0 0 1-1.21 1.58 12.49 12.49 0 0 1 1-1.71l3.07-4.77 11.26-17.57c9.49-14.84 22.17-35.62 36.85-58.18 3.6-5.54 7.2-10.91 10.7-16.08l.16-.23h.28l55.58-4.13 16.37-1.09 4.4-.25a8.09 8.09 0 0 1 1.54-.07z"/><path class="cls-4" d="M306.75 325.81zm1.79 1.07a1.45 1.45 0 0 0-1.78-1.07 3.83 3.83 0 0 0-1.94 1.08 1.94 1.94 0 0 0-.36 2.48c.73.89 2.21.57 3.08-.18a2.54 2.54 0 0 0 1-2.31z"/><path class="cls-10" d="M274.78 380.38s-2.86-6.8 4.38-7.68 26.25 0 26.25 0 10.4 1.09 8.2 8.55c0 0 6.14 5.49 2.85 11.41s-4.6 4.17-4.6 4.17.87 7.24-4.61 8.34c0 0-5.95 7-11.42 6.58s-28.73-11.63-30.27-13.82-3.73-3.44-2.41-5.89c0 0-2.85-6.42 3.29-7.4 0 0 .44-5.36 8.34-4.26z"/><path class="cls-11" d="M307.76 382.83c0 .17-1.87.29-4.89.36s-7.19.06-11.79 0-8.78 0-11.85-.7-4.35-2.56-4.2-2.6 1.44 1.31 4.38 1.76 7.09.19 11.69.34 8.77.2 11.79.35 4.88.33 4.87.49zm-5.18 10.97c0 .07-.52.32-1.57.54a16.38 16.38 0 0 1-4.53.28 31.73 31.73 0 0 1-6.59-1.19c-2.43-.67-5-1.61-7.74-2.44a34.91 34.91 0 0 0-7.79-1.61c-2.37-.11-4.93 0-6.63-1.34a3.83 3.83 0 0 1-1.59-2.26 3.1 3.1 0 0 1 .28-2c.57-1.05 1.35-1.11 1.33-1.05s-.56.31-.9 1.24a2.84 2.84 0 0 0 1.35 3.42c1.48 1 3.68.89 6.22.93a32.54 32.54 0 0 1 8.08 1.57l7.69 2.52a36.8 36.8 0 0 0 6.37 1.42c3.69.4 5.98-.24 6.02-.03zm-7.77 9.28c-.05.16-1.92-.2-4.89-.95s-7.05-1.91-11.49-3.37-8.42-2.92-11.27-4.08-4.55-2-4.49-2.12c.12-.32 7.27 2.16 16.13 5.06s16.1 5.13 16.01 5.46zm1.86 8.61c0 .14-1.59.08-4.05-.47a48.75 48.75 0 0 1-9.27-3.26c-3.48-1.59-6.53-3.21-8.73-4.37s-3.54-1.95-3.47-2.11c.15-.35 5.84 2.15 12.7 5.38s12.86 4.51 12.82 4.83z"/><path class="cls-7" d="M77 282.93s-29.75 12.39-22.37 51.75 11.23 52.5 11.23 52.5l58.63-30.86z"/><path class="cls-2" d="M123.27 357a10.6 10.6 0 0 1-2.14 1.39c-1.42.83-3.49 2-6.06 3.4-5.14 2.83-12.28 6.67-20.21 10.84s-15.13 7.88-20.38 10.52c-2.62 1.32-4.75 2.37-6.24 3.07a10.63 10.63 0 0 1-2.36 1 10.19 10.19 0 0 1 2.14-1.4c1.42-.82 3.49-2 6.06-3.4 5.14-2.83 12.29-6.66 20.21-10.83s15.13-7.89 20.37-10.52c2.62-1.32 4.75-2.37 6.24-3.07a10.79 10.79 0 0 1 2.37-1z"/><path class="cls-2" d="M123.27 357c-.16.07-1.32-2-3.2-5.45l-7.45-13.28c-2.83-5-5.38-9.51-7.51-13.26-1.89-3.41-3-5.56-2.85-5.65s1.51 1.91 3.59 5.22 4.87 7.92 7.82 13.1 5.46 9.95 7.15 13.48 2.59 5.75 2.45 5.84z"/><path d="M384.81 93.17H381v8.47h-3.4V80.78h7.21c4.95 0 7.38 2.82 7.38 6.21 0 3.01-1.95 6.18-7.38 6.18zm0-2.79c2.67 0 3.87-1.29 3.87-3.39s-1.2-3.42-3.87-3.42H381v6.81zm23.19 7h-8.73l-1.5 4.26h-3.57l7.47-20.89h4l7.47 20.89h-3.6zm-4.35-12.49l-3.42 9.69h6.81zm19.94 8.28h-3.78v8.47h-3.42V80.78h7.2c5 0 7.39 2.82 7.39 6.21.02 3.01-1.98 6.18-7.39 6.18zm0-2.79c2.67 0 3.87-1.29 3.87-3.39s-1.2-3.42-3.87-3.42h-3.78v6.81zm19.01-2.49h-2V85.1h2V81h3.45v4.1h4v2.79h-4v9.16c0 1.23.48 1.74 1.92 1.74h2.1v2.85h-2.7c-2.94 0-4.77-1.23-4.77-4.59zm14.04 13.75h-3.42V85.1h3.42v2.4a5.39 5.39 0 0 1 5-2.67v3.54h-.87c-2.53 0-4.09 1-4.09 4.56zm15.22.27c-4.74 0-8.25-3.36-8.25-8.56s3.36-8.52 8.25-8.52a7.71 7.71 0 0 1 8.05 8.17 10.55 10.55 0 0 1-.12 1.68h-12.64a4.55 4.55 0 0 0 4.71 4.32 4 4 0 0 0 3.9-2.31h3.7a7.56 7.56 0 0 1-7.6 5.22zm-4.68-10h9.15a4.29 4.29 0 0 0-4.62-4.17 4.5 4.5 0 0 0-4.53 4.14zm27.82.48c0-3-1.65-4.59-4.15-4.59s-4.17 1.56-4.17 4.59v9.25h-3.42V85.1h3.42V87a6.36 6.36 0 0 1 4.92-2.16c3.88 0 6.79 2.43 6.79 7v9.76H495zm14.45-7.56a7.61 7.61 0 0 1 5.7 2.58v-8h3.45v22.21h-3.45v-2.47a6.85 6.85 0 0 1-5.73 2.76c-4.36 0-7.81-3.51-7.81-8.62s3.45-8.46 7.84-8.46zm.69 3c-2.55 0-5 1.92-5 5.49s2.47 5.65 5 5.65 5-2 5-5.59-2.42-5.58-5-5.58zm18.97 14.08c-4 0-6.75-2.34-6.9-5.34h3.54c.12 1.35 1.41 2.46 3.3 2.46s3-.84 3-2c0-3.25-9.6-1.38-9.6-7.45 0-2.64 2.46-4.77 6.36-4.77s6.21 2 6.39 5.31h-3.42c-.12-1.44-1.23-2.43-3.09-2.43s-2.79.75-2.79 1.86c0 3.33 9.33 1.47 9.51 7.45.03 2.81-2.41 4.91-6.3 4.91z"/><path class="cls-2" d="M994.25 562.39c2.56-9.84 5.08-19.75 5.91-29.89s-.1-20.59-4.21-29.89c-.62-1.41-5.77-10.82-7.29-10.57-1.09.17 2.26 9 1.77 10-4.74 9.39-5.52 20.38-4 30.79a137.32 137.32 0 0 0 7.87 29.55"/><path class="cls-10" d="M998.57 638.15l-5.63-114.55c-.7-25.49-16.12-46.33-41.58-44.93l-2.34.27a45.58 45.58 0 0 0-40.42 46.78c.73 22.1 1.81 46.49 3.29 58.22 3.07 24.28 27.82 25.29 27.82 25.29s1.81 25.37 2.31 32.54c1.48 2.21 6.92-10.94 19.7-8.71 13.37 2.34 29.16 18.38 36.85 5.09z"/><path class="cls-11" d="M939.71 609.23s15.43-.84 30.59-13c0 0-5.54 19.15-30 19.72z"/><path class="cls-2" d="M921.32 545.27a3.49 3.49 0 0 0 3.74 3.13 3.34 3.34 0 0 0 3.22-3.54 3.5 3.5 0 0 0-3.74-3.13 3.34 3.34 0 0 0-3.22 3.54zm-6.32-9.4c.48.4 2.89-1.84 6.63-2.26s6.69 1.14 7 .64c.18-.22-.36-1-1.65-1.73a9.62 9.62 0 0 0-5.7-1.07 9.16 9.16 0 0 0-5.21 2.37c-1.02 1.01-1.32 1.87-1.07 2.05zm40 6.98a3.51 3.51 0 0 0 3.7 3.15 3.34 3.34 0 0 0 3.22-3.54 3.48 3.48 0 0 0-3.74-3.12 3.34 3.34 0 0 0-3.18 3.51zm-3.29-10.28c.49.4 2.9-1.84 6.63-2.26s6.69 1.14 7 .64c.18-.23-.35-1-1.65-1.73a9.62 9.62 0 0 0-5.7-1.07 9.28 9.28 0 0 0-5.21 2.36c-1 1.02-1.3 1.88-1.07 2.06zm-10.13 30.23c0-.21-2.38-.35-6.19-.4-1 0-1.9-.08-2.13-.71a4.89 4.89 0 0 1 .32-2.9q.95-3.62 2-7.59c2.74-10.79 4.61-19.61 4.17-19.72s-3 8.55-5.75 19.34c-.65 2.66-1.28 5.19-1.87 7.62-.24 1.12-.72 2.42-.07 3.8a2.41 2.41 0 0 0 1.73 1.21 6.7 6.7 0 0 0 1.65 0c3.8-.18 6.15-.45 6.14-.65zm7.59-41.8c.62.9 4.13-.52 8.53-1.12s8.16-.33 8.5-1.36c.14-.5-.7-1.27-2.34-1.86a14.87 14.87 0 0 0-13 1.89c-1.38 1.06-1.96 2.04-1.69 2.45zm-35.6 3.91c.86.77 3.82-.41 7.48-.82s6.82-.09 7.45-1.05c.27-.47-.3-1.27-1.74-1.94a11.75 11.75 0 0 0-6.22-.79 11.56 11.56 0 0 0-5.81 2.3c-1.21 1-1.55 1.91-1.16 2.3z"/><path class="cls-11" d="M993 541.83c.39-.23 16.14-6.84 17.5 9.84s-15.66 14.61-15.73 14.13-1.77-23.97-1.77-23.97z"/><path class="cls-13" d="M999.35 559.07c.07-.06.31.18.82.36a2.93 2.93 0 0 0 2.17-.13c1.71-.79 3-3.71 2.8-6.73a9.66 9.66 0 0 0-1.15-4.09 3.35 3.35 0 0 0-2.37-2.05 1.49 1.49 0 0 0-1.65.93c-.18.49-.05.81-.14.85s-.38-.25-.3-1a1.87 1.87 0 0 1 .57-1.1 2.22 2.22 0 0 1 1.57-.56 4.12 4.12 0 0 1 3.25 2.34 9.9 9.9 0 0 1 1.39 4.57c.17 3.37-1.3 6.66-3.65 7.55a3.15 3.15 0 0 1-2.7-.22c-.55-.32-.67-.69-.61-.72z"/><path class="cls-2" d="M917.39 497.28c-2.81-1.29 4.66-10.63 11.08-14.13 9.7-5.28 24.82-9.2 34.26-7.24 11.37 2.34 21 7.21 27.36 16.95s9.29 21.39 9.81 33c.16 3.54.06 7.25-1.61 10.37-2.06 3.86-6.37 6.51-5.8 11.59a7 7 0 0 1-1.37 5.22c-2.81 3.48-6.77.69-8.71-2.24-4.15-6.27-5.13-14-6-21.52-.62-5.31-1.23-10.73-.1-16 .61-2.84 1.73-5.57 2.19-8.44s.14-6.07-1.79-8.25a10.8 10.8 0 0 0-1.45-1.27 17.46 17.46 0 0 0-17.52-2c-9.15 4-24.85 10.14-29.27 7.26-6.37-4.15-8-7-8-7zm36.13 66.99c-.58 0-.33 3.84-3.43 6.79s-7.21 2.8-7.2 3.34c0 .24 1 .68 2.69.61a9.61 9.61 0 0 0 6-2.57 8.3 8.3 0 0 0 2.62-5.67c.07-1.61-.42-2.54-.68-2.5z"/><path class="cls-5" d="M390.29 955.74l32.92-3.9 7.71 61.63-48.11 6.22-.72-3.79C379 999 367.66 929.81 369.68 918c2.26-13.15 20.61 37.74 20.61 37.74z"/><path class="cls-2" d="M372.52 913.6c-.58.07 1.69 23.19 5.06 51.65s6.58 51.47 7.17 51.4-1.68-23.19-5.06-51.65-6.58-51.47-7.17-51.4zm10.92 39.26c.33.47 2.05-.19 3.61-1.72s2.26-3.23 1.8-3.58-1.84.66-3.28 2.06-2.49 2.76-2.13 3.24zm-2.64-3.68c.27.51 2.22 0 4.13-1.47s2.94-3.19 2.52-3.59-2 .56-3.8 1.9-3.14 2.64-2.85 3.16z"/><path class="cls-2" d="M382.76 998c-.14.27.83 1.09 2.45 2.27a38.62 38.62 0 0 1 5.84 4.84 14.84 14.84 0 0 1 3.54 6.32c.46 1.82.35 3.07.66 3.13s.93-1.15.82-3.35a12.54 12.54 0 0 0-3.46-7.54A21.75 21.75 0 0 0 386 999c-1.87-.85-3.09-1.2-3.24-1zm6.84-46.07c-.53-.23-1.57 1-2 2.81s0 3.37.6 3.39 1.11-1.31 1.47-2.92.48-3.04-.07-3.28zm3.3.6c-.59 0-.89 1.71-.67 3.8s.87 3.69 1.45 3.58.87-1.81.67-3.8-.87-3.6-1.45-3.58z"/><path class="cls-2" d="M410.36 1018.38L592.66 999.9 970.64 1008.35 870.14 927.31 617.85 915.19 397.28 945.59 410.36 1018.38z"/><path class="cls-5" d="M639.88 1003.47l3.69-33 61.77 6.53-4.89 48.27-3.86-.16c-17.14-.85-87.11-5.53-98.14-10.19-12.3-5.17 41.43-11.45 41.43-11.45z"/><path class="cls-2" d="M597.33 1011.77c-.06.58 23 3.64 51.45 6.83s51.62 5.3 51.68 4.71-23-3.63-51.45-6.82-51.62-5.3-51.68-4.72zm40.67-1.69c.54-.23.29-2.05-.85-3.92s-2.63-2.93-3.07-2.56.22 1.94 1.26 3.67 2.15 3.04 2.66 2.81zm-4.14 1.73c.56-.15.5-2.17-.49-4.36s-2.44-3.59-2.93-3.27.09 2.1 1 4.14 1.85 3.68 2.42 3.49z"/><path class="cls-2" d="M681.89 1021c.22.19 1.25-.57 2.76-1.88a40.45 40.45 0 0 1 6-4.59 14.72 14.72 0 0 1 7-2c1.88 0 3.07.35 3.21.06s-.92-1.17-3.08-1.56a12.56 12.56 0 0 0-8.14 1.65 21.83 21.83 0 0 0-6.08 5.39c-1.26 1.64-1.88 2.75-1.67 2.93zm-43.34-17.14c-.35.46.59 1.76 2.28 2.57s3.29.75 3.43.19-1-1.38-2.51-2.11-2.85-1.13-3.2-.65zm1.32-3.08c-.12.58 1.47 1.26 3.55 1.52s3.79 0 3.81-.59-1.56-1.27-3.54-1.52-3.69.02-3.82.59z"/><path class="cls-7" d="M1044.12 952.56c-9.88 14.7-69.69 104.74-141.1 39.28-91-83.45-163.1-156.47-163.1-156.47l-27 164.94-84.75-4.59s33-245.59 53.89-267.92c23.3-24.91 44.77-22.81 227.86 121.66z"/><path class="cls-2" d="M741.1 672.77L661.99 615.05 658.09 621.25 736.69 679.68 741.1 672.77z"/><path class="cls-10" d="M721.55 671s-10.62-27.63-13-33.51-6.43-16.13-7.94-16.34-7 .66.19 18.23-8.55 6.83-8.55 6.83L677 635.31s-12 36-5.18 46.8a173.41 173.41 0 0 0 18 22.88z"/><path class="cls-5" d="M720.66 667.8c1.56-3.6 102.19 85.28 122.21 88.3l58.68-76.42s12.19-19.32 38.34-52.41c16.87-21.36 63.45-16.92 75.7 9.1 20.79 44.2 21 93.35 32.11 189l4.69 64.52a227.79 227.79 0 0 1-.63 41.29c-1.77 16-5.41 32.76-12.84 30.51l-134.2-110.98-4.3-50.39c-28.23 28.61-37 34.59-51.68 32.32-37-5.73-166.2-122-166.2-122s36.56-39.23 38.12-42.84z"/><path class="cls-2" d="M699.94 726.93c.14.17 3-1.89 7.22-5.64a162.77 162.77 0 0 0 28.59-33.58c3-4.79 4.61-7.92 4.42-8s-2.16 2.77-5.42 7.35-7.9 10.81-13.46 17.33-11 12.1-15 16-6.51 6.35-6.35 6.54zm148.63 59.45c.47-.08-.36-6.93-1.84-15.29s-3.07-15.07-3.54-15 .36 6.93 1.85 15.29 3.07 15.08 3.53 15z"/><path class="cls-2" d="M835.76 783.23c.46.13 2.45-5.75 4.45-13.13s3.25-13.46 2.79-13.59-2.44 5.76-4.45 13.14-3.24 13.46-2.79 13.58zm145.3-90.11a32.91 32.91 0 0 0-3.38 4.25l-8.78 11.88c-7.4 10-17.7 23.84-29.25 39-11.54 15-22 28.49-29.76 38.6-3.66 4.77-6.68 8.72-9 11.73a32 32 0 0 0-3.12 4.44 34.5 34.5 0 0 0 3.64-4c2.25-2.66 5.47-6.55 9.41-11.39 7.87-9.68 18.6-23.18 30.17-38.31s21.72-29.07 28.87-39.3c3.58-5.11 6.43-9.28 8.34-12.2a32 32 0 0 0 2.86-4.7zm17.16 64.98c.31.35 4.54-2.93 9.44-7.32s8.62-8.24 8.3-8.59-4.54 2.92-9.44 7.31-8.62 8.24-8.3 8.6zm11.54 37.07c-.39.26 2.24 4.84 5.88 10.23s6.91 9.54 7.3 9.28-2.24-4.85-5.88-10.24-6.9-9.54-7.3-9.27zm-16.2 51.13c.36.3 3.34-2.65 6.65-6.6s5.71-7.4 5.35-7.7-3.35 2.65-6.66 6.6-5.7 7.4-5.34 7.7zm31.3 32.8c-.27.39 3 3.08 7.36 6s8.06 5 8.32 4.6-3-3.09-7.36-6-8.06-5-8.32-4.6zm-43.77 8.67c.23.37 4.7-2.21 8.75-7s5.89-9.63 5.48-9.79-2.87 4.1-6.79 8.68-7.74 7.7-7.44 8.11zm-40.81-30.99c-.31.36 3.46 4.08 8.41 8.3s9.22 7.35 9.53 7-3.46-4.08-8.42-8.3-9.22-7.36-9.52-7zm83.98 59.85c.24.38 3.91-1.61 7.46-5.27s5.47-7.34 5.09-7.58-2.89 2.89-6.32 6.39-6.49 6.05-6.23 6.46zM933 827.53c-.17.43 3.77 2.33 9 3.44s9.61 1 9.63.57-4.17-1.14-9.27-2.24-9.19-2.22-9.36-1.77zm30.4-34.59c-.45.18 1.21 5.34 3.21 11.7 1.75 5.49 3.18 10.09 3.85 11.16l.36-.09c-.1-.19-.19-.27-.25-.26s-.1.13-.12.35l.37-.09c.09-1.25-.81-6-2.57-11.58-2.03-6.43-4.43-11.36-4.85-11.19zM950.6 771c.27.39 4.63-2.3 9.73-6s9-7 8.73-7.38-4.64 2.3-9.73 6-9.01 6.98-8.73 7.38zm26.11-48.37c-.41.23 1.58 4.34 4.86 8.88s6.57 7.72 6.92 7.41-2.3-3.94-5.53-8.41-5.84-8.13-6.25-7.88zm40.18-6.57c.47 0 .44-5-.07-11.14s-1.31-11-1.78-11-.44 5 .07 11.14 1.31 11.04 1.78 11zm15.61 72.48c.47 0 1-5.36 1.06-12s-.19-12-.66-12-.94 5.35-1.05 12 .15 11.99.65 12zm2.19 69.54c.46.13 1.77-3.07 2.94-7.14s1.74-7.47 1.29-7.61-1.77 3.07-2.94 7.14-1.74 7.53-1.29 7.61zm-55.37-196.25c-.29.39 3.8 3.8 8.46 8.37s8.21 8.54 8.6 8.24-2.61-4.82-7.4-9.47-9.4-7.52-9.66-7.14zm23.51-7.83c.47 0 .65-4.89.39-10.89s-.84-10.83-1.32-10.81-.64 4.89-.39 10.89.85 10.81 1.32 10.81zm-57.62-7.85c.31.37 4.2-2.51 9.11-5.84s9-5.93 8.76-6.36-4.73 1.53-9.72 4.94-8.46 6.91-8.15 7.26zm12.51 41.04c.48 0 1-5.15 1.09-11.52s-.15-11.54-.63-11.55-1 5.15-1.08 11.52.15 11.54.62 11.55zM924 711.2c.18.45 4.53-.89 10-2.18s9.91-2.08 9.86-2.57-4.7-.44-10.26.91-9.8 3.42-9.6 3.84zm-2.32-24.47c.47 0 .9-4.33.94-9.68s-.29-9.69-.77-9.7-.89 4.33-.94 9.68.3 9.69.77 9.7zM896 727.8c.47 0 1.09-5.44 1.39-12.19s.15-12.24-.32-12.26-1.09 5.43-1.39 12.19-.18 12.23.32 12.26zm19.73 13.9c.36.31 3-2.12 6-5.42s5-6.24 4.68-6.56-3 2.11-6 5.42-5.03 6.24-4.68 6.56zm-24.99 18.92c0 .47 4.28 1.17 9.62 1.57s9.72.34 9.75-.13-4.27-1.18-9.62-1.57-9.71-.34-9.75.13zm-18.82 9.62c.47 0 1-4.82 1.27-10.81s0-10.86-.45-10.88-1 4.82-1.27 10.81-.02 10.86.45 10.88zm-18.55 36c0 .46 5.37.83 11.94.08s11.69-2.32 11.62-2.73-5.34.31-11.81 1-11.76 1.16-11.75 1.65zm-31.88-16.61c-.45.16.83 5 2.86 10.9s4 10.5 4.47 10.34-.83-5-2.86-10.9-4.02-10.49-4.47-10.34zm-23.01-29.06c.12.46 4.67-.41 10.15-1.92s9.83-3.11 9.7-3.57-4.67.41-10.15 1.92-9.83 3.11-9.7 3.57zM780 771.62c-.31.36 2.88 3.7 7.13 7.47s8 6.55 8.26 6.19-2.88-3.69-7.12-7.47-7.94-6.54-8.27-6.19zm-7.4-27.23c.43.15 2.35-4.5 3.43-10.56s.91-11.09.46-11.1-1.07 4.86-2.15 10.79-2.21 10.72-1.74 10.87zm-35.19-6.25c-.3.4 4.58 4.56 10.22 10.07s9.94 10.27 10.32 10-3.39-5.6-9.13-11.18-11.14-9.25-11.41-8.89zm-3.47-12.5c.17.44 5-1 10.88-3.21s10.44-4.37 10.27-4.81-5 1-10.88 3.21-10.44 4.37-10.27 4.81zM737.3 712c.45.14 2-3.85 3.45-8.9s2.25-9.24 1.8-9.37-2 3.86-3.45 8.9-2.26 9.27-1.8 9.37zm184.1 94.78c.39.27 3.15-3 6.18-7.23s5.17-8 4.79-8.23-3.16 3-6.18 7.24-5.19 7.95-4.79 8.22zM670.66 972.46a8.34 8.34 0 0 0 .26-1.41c.14-1 .33-2.38.58-4.14.48-3.72 1.19-9.08 2.09-15.93 1.86-13.83 4.54-33.84 8.52-58.46s9.26-53.87 16.78-86a45.54 45.54 0 0 1 3.94-11.62 35.93 35.93 0 0 1 7.88-9.61 34.12 34.12 0 0 1 23.95-7.75 31.7 31.7 0 0 1 12.68 3.46c3.95 2 7.54 4.9 11.3 7.63l22.61 16.81c30.46 22.85 59 45.26 84.41 66.26s47.66 40.68 66.26 57.37c9.41 8.09 19.44 14.57 29.62 15.61a29.92 29.92 0 0 0 13.78-1.68 41.56 41.56 0 0 0 10.23-5.63 87.22 87.22 0 0 0 11.86-10.89l2.8-3.1a7.55 7.55 0 0 0 .89-1.11 10.15 10.15 0 0 0-1 1l-2.92 3a93.49 93.49 0 0 1-12 10.58 41.18 41.18 0 0 1-10.11 5.4 29.11 29.11 0 0 1-13.4 1.48c-9.84-1.09-19.64-7.48-28.94-15.58-18.44-16.76-40.59-36.65-66-57.66s-53.97-43.49-84.45-66.41l-22.63-16.82c-3.74-2.7-7.34-5.64-11.56-7.76a33.13 33.13 0 0 0-13.32-3.6 35.73 35.73 0 0 0-25.11 8.17 37.69 37.69 0 0 0-8.25 10.1 46.7 46.7 0 0 0-4 12c-7.45 32.18-12.6 61.47-16.44 86.14s-6.34 44.71-8 58.57c-.76 6.87-1.36 12.23-1.78 16-.17 1.77-.31 3.15-.41 4.16a9 9 0 0 0-.12 1.42z"/><path class="cls-7" d="M436.26 979.11a9.59 9.59 0 0 0 2-.05l5.73-.46 21.05-2 69.35-7.24c27.09-2.84 51.57-6 69.36-6.87 8.89-.47 16.1-.42 21.09-.25l5.73.25a8 8 0 0 0 2 0 9.92 9.92 0 0 0-2-.34c-1.31-.19-3.24-.37-5.73-.58a199.73 199.73 0 0 0-21.17-.29c-17.9.58-42.4 3.54-69.48 6.38l-69.3 7.73-21 2.54-5.7.78a9.16 9.16 0 0 0-1.93.4z"/><path class="cls-7" d="M440.44 1015.86c.47-.06-1-16.56-3.32-36.85s-4.56-36.71-5-36.65 1 16.54 3.33 36.85 4.55 36.7 4.99 36.65z"/></svg>