<svg viewBox="0 0 1382 318" xmlns="http://www.w3.org/2000/svg" xml:space="preserve" fill-rule="evenodd" clip-rule="evenodd" stroke-linecap="round" stroke-linejoin="round"><path fill="none" d="M0 0h1381.53v317.255H0z"/><path d="M1381.232 17.133c0-8.83-7.17-16-16-16H17.229c-8.83 0-16 7.17-16 16v283c0 8.83 7.17 16 16 16h1348.003c8.83 0 16-7.17 16-16v-283z" fill="#f3e6ff"/><path d="M35.111 26.025a1.961 1.961 0 0 1-3.883.382 1.959 1.959 0 0 1 .835-2.012 1.961 1.961 0 0 1 3.05 1.63h-.002zm10.771.053a1.966 1.966 0 0 1-1.21 1.81A1.958 1.958 0 0 1 42 26.46a1.958 1.958 0 0 1 3.308-1.768 1.95 1.95 0 0 1 .575 1.386zM35.175 39.725a1.966 1.966 0 0 1-1.21 1.81 1.958 1.958 0 0 1-2.672-1.428 1.958 1.958 0 0 1 3.308-1.768 1.95 1.95 0 0 1 .575 1.386zm10.773.06a1.961 1.961 0 1 1-3.922 0 1.961 1.961 0 0 1 3.922 0zM35.175 53.41a1.961 1.961 0 0 1-3.346 1.386 1.965 1.965 0 0 1-.425-2.136 1.965 1.965 0 0 1 3.197-.636 1.95 1.95 0 0 1 .575 1.386zm10.773.054a1.961 1.961 0 1 1-3.922 0 1.961 1.961 0 0 1 3.922 0zM35.141 67.076a1.953 1.953 0 0 1-1.209 1.81 1.958 1.958 0 0 1-2.672-1.428 1.958 1.958 0 0 1 3.308-1.768c.368.367.574.866.574 1.386zm10.77.049c0 .388-.116.767-.33 1.09a1.962 1.962 0 0 1-3.553-.707 1.962 1.962 0 0 1 3.734-1.133c.098.238.15.493.15.75zm-10.7 13.657a1.962 1.962 0 0 1-3.347 1.386 1.96 1.96 0 1 1 3.346-1.386h.001zm10.77.055a1.962 1.962 0 0 1-2.344 1.92 1.957 1.957 0 0 1-1.428-2.671 1.961 1.961 0 0 1 3.771.751zM35.21 94.462a1.961 1.961 0 0 1-3.883.381 1.97 1.97 0 0 1 .833-2.012 1.957 1.957 0 0 1 3.049 1.63l.001.001zm10.77.052a1.964 1.964 0 0 1-1.21 1.811 1.96 1.96 0 1 1 1.21-1.81zm11.16-68.723c0 .388-.116.767-.33 1.09a1.97 1.97 0 0 1-2.013.833 1.966 1.966 0 0 1-1.54-1.54 1.962 1.962 0 0 1 1.922-2.343 1.963 1.963 0 0 1 1.96 1.96zm10.77.054a1.964 1.964 0 0 1-1.21 1.81 1.962 1.962 0 0 1-2.673-1.428 1.97 1.97 0 0 1 .833-2.012 1.959 1.959 0 0 1 3.05 1.63zM57.205 39.498a1.952 1.952 0 0 1-1.21 1.811 1.96 1.96 0 0 1-2.56-2.561 1.965 1.965 0 0 1 1.81-1.21 1.961 1.961 0 0 1 1.96 1.96zm10.773.053a1.952 1.952 0 0 1-1.21 1.811 1.957 1.957 0 0 1-2.672-1.427 1.97 1.97 0 0 1 .11-1.133 1.961 1.961 0 0 1 3.772.749zM57.205 53.176a1.959 1.959 0 0 1-3.882.384 1.962 1.962 0 0 1 1.923-2.343c.52 0 1.018.206 1.385.574.368.367.574.865.574 1.385zm10.773.055c0 .388-.115.767-.33 1.09a1.96 1.96 0 0 1-.88.72 1.953 1.953 0 0 1-2.136-.424 1.962 1.962 0 0 1 1.386-3.346 1.963 1.963 0 0 1 1.96 1.96zM57.173 66.84a1.959 1.959 0 0 1-3.882.385 1.962 1.962 0 0 1 1.923-2.343 1.958 1.958 0 0 1 1.96 1.959zm10.772.056a1.962 1.962 0 0 1-2.343 1.92 1.957 1.957 0 0 1-1.428-2.671 1.965 1.965 0 0 1 1.811-1.21 1.95 1.95 0 0 1 1.811 1.211c.098.238.15.493.15.75zM57.24 80.55a1.961 1.961 0 1 1-3.922 0 1.961 1.961 0 0 1 3.922 0zm10.772.053a1.963 1.963 0 0 1-3.346 1.386 1.962 1.962 0 0 1 1.387-3.346 1.962 1.962 0 0 1 1.96 1.96zM57.24 94.224a1.966 1.966 0 0 1-1.21 1.811 1.962 1.962 0 0 1-1.839-3.44 1.958 1.958 0 0 1 2.9.88c.098.236.15.491.15.75zm10.772.058a1.963 1.963 0 0 1-3.346 1.384 1.962 1.962 0 0 1 .297-3.015 1.967 1.967 0 0 1 1.84-.18 1.954 1.954 0 0 1 1.21 1.811zM1254.838 22.48a1.961 1.961 0 0 1-3.883.383 1.959 1.959 0 0 1 .835-2.012 1.961 1.961 0 0 1 3.049 1.63h-.001zm10.77.054a1.966 1.966 0 0 1-1.21 1.81 1.958 1.958 0 0 1-2.671-1.428 1.958 1.958 0 0 1 3.308-1.768 1.95 1.95 0 0 1 .575 1.386h-.001zm-10.706 13.647a1.966 1.966 0 0 1-1.21 1.81 1.958 1.958 0 0 1-2.672-1.428 1.958 1.958 0 0 1 3.308-1.768 1.95 1.95 0 0 1 .575 1.386h-.001zm10.773.06a1.961 1.961 0 1 1-3.923 0 1.961 1.961 0 0 1 3.923 0zm-10.773 13.625a1.961 1.961 0 0 1-3.346 1.386 1.965 1.965 0 0 1-.425-2.136 1.965 1.965 0 0 1 3.197-.636 1.95 1.95 0 0 1 .575 1.386h-.001zm10.773.054a1.961 1.961 0 1 1-3.923 0 1.961 1.961 0 0 1 3.923 0zm-10.807 13.612a1.953 1.953 0 0 1-1.21 1.81 1.958 1.958 0 0 1-2.671-1.428 1.958 1.958 0 0 1 3.308-1.768c.368.367.574.866.574 1.386h-.001zm10.77.049c0 .388-.116.767-.33 1.09a1.962 1.962 0 0 1-3.553-.707 1.962 1.962 0 0 1 3.734-1.133c.098.238.149.493.149.75zm-10.7 13.657a1.962 1.962 0 0 1-3.347 1.386 1.96 1.96 0 1 1 3.346-1.386zm10.769.055a1.962 1.962 0 0 1-2.343 1.92 1.957 1.957 0 0 1-1.428-2.671 1.961 1.961 0 0 1 3.771.751zm-10.77 13.626a1.961 1.961 0 0 1-3.882.38 1.97 1.97 0 0 1 .833-2.012 1.957 1.957 0 0 1 3.049 1.63v.002zm10.77.052a1.964 1.964 0 0 1-1.21 1.81 1.96 1.96 0 1 1 1.21-1.81zm11.16-68.724c0 .388-.115.767-.33 1.09a1.97 1.97 0 0 1-2.012.833 1.966 1.966 0 0 1-1.54-1.54 1.962 1.962 0 0 1 1.922-2.343 1.963 1.963 0 0 1 1.96 1.96zm10.77.054a1.964 1.964 0 0 1-1.21 1.81 1.962 1.962 0 0 1-2.672-1.428 1.97 1.97 0 0 1 .833-2.012 1.959 1.959 0 0 1 3.05 1.63zm-10.705 13.653a1.952 1.952 0 0 1-1.21 1.811 1.96 1.96 0 0 1-2.56-2.561 1.965 1.965 0 0 1 1.81-1.21 1.961 1.961 0 0 1 1.96 1.96zm10.773.053a1.952 1.952 0 0 1-1.21 1.811 1.957 1.957 0 0 1-2.672-1.427 1.97 1.97 0 0 1 .11-1.133 1.961 1.961 0 0 1 3.772.749zm-10.773 13.625a1.959 1.959 0 0 1-3.882.384 1.962 1.962 0 0 1 1.923-2.343c.52 0 1.018.206 1.385.574.368.367.574.865.574 1.385zm10.773.055c0 .388-.115.767-.33 1.09a1.96 1.96 0 0 1-.88.72 1.953 1.953 0 0 1-2.136-.424 1.962 1.962 0 0 1 1.386-3.346 1.963 1.963 0 0 1 1.96 1.96zm-10.805 13.61a1.959 1.959 0 0 1-3.882.385 1.962 1.962 0 0 1 1.923-2.343 1.958 1.958 0 0 1 1.959 1.959zm10.772.056a1.962 1.962 0 0 1-2.343 1.92 1.957 1.957 0 0 1-1.428-2.671 1.965 1.965 0 0 1 1.81-1.21 1.95 1.95 0 0 1 1.811 1.211c.099.238.15.493.15.75zm-10.706 13.653a1.961 1.961 0 1 1-3.923 0 1.961 1.961 0 0 1 3.923 0zm10.772.053a1.963 1.963 0 0 1-3.346 1.386 1.962 1.962 0 0 1 1.387-3.346 1.962 1.962 0 0 1 1.959 1.96zm-10.772 13.622a1.966 1.966 0 0 1-1.21 1.81 1.962 1.962 0 0 1-1.84-3.44 1.958 1.958 0 0 1 2.9.88c.099.237.15.492.15.75zm10.772.058a1.963 1.963 0 0 1-3.346 1.384 1.962 1.962 0 0 1 .297-3.015 1.967 1.967 0 0 1 1.84-.18 1.954 1.954 0 0 1 1.21 1.81h-.001zM334.74 252.274c-.471 0-.931-.135-1.322-.387a2.324 2.324 0 0 1-.876-1.033 2.231 2.231 0 0 1-.134-1.33c.09-.445.318-.856.65-1.176.332-.322.756-.54 1.218-.63a2.451 2.451 0 0 1 1.373.132c.434.174.806.47 1.068.848a2.248 2.248 0 0 1 .22 2.157c-.12.28-.296.533-.516.746-.221.214-.483.383-.772.5a2.462 2.462 0 0 1-.91.174v-.001zm-.065 12.637c-.47 0-.93-.135-1.321-.387a2.332 2.332 0 0 1-.876-1.032 2.228 2.228 0 0 1-.134-1.329c.09-.445.317-.856.65-1.178a2.41 2.41 0 0 1 1.218-.628 2.45 2.45 0 0 1 1.373.13c.434.175.805.47 1.067.847.261.379.4.824.4 1.279 0 .301-.06.6-.18.88a2.293 2.293 0 0 1-.516.745 2.43 2.43 0 0 1-1.681.675v-.002zm-16.554-12.562c-.47 0-.93-.135-1.321-.387a2.332 2.332 0 0 1-.876-1.033 2.228 2.228 0 0 1-.135-1.328c.092-.446.318-.856.65-1.178a2.41 2.41 0 0 1 1.218-.629 2.45 2.45 0 0 1 1.373.13c.435.175.807.47 1.068.848a2.234 2.234 0 0 1 .22 2.159 2.293 2.293 0 0 1-.516.744 2.43 2.43 0 0 1-1.681.675v-.001zm-.073 12.64c-.47 0-.93-.135-1.321-.388a2.332 2.332 0 0 1-.876-1.032 2.232 2.232 0 0 1-.135-1.33c.091-.445.318-.856.65-1.176.333-.322.758-.541 1.219-.63a2.45 2.45 0 0 1 1.373.131c.434.174.806.47 1.067.847.261.378.4.823.4 1.278 0 .61-.25 1.194-.696 1.626a2.42 2.42 0 0 1-1.681.674zm-16.528-12.64c-.47 0-.93-.135-1.32-.387a2.332 2.332 0 0 1-.876-1.033 2.228 2.228 0 0 1-.135-1.328c.09-.446.318-.856.65-1.178a2.41 2.41 0 0 1 1.218-.629 2.45 2.45 0 0 1 1.373.13c.434.175.806.47 1.068.848a2.234 2.234 0 0 1 .22 2.159 2.293 2.293 0 0 1-.516.744 2.435 2.435 0 0 1-1.681.675v-.001zm-.065 12.64c-.47 0-.93-.135-1.321-.388a2.332 2.332 0 0 1-.876-1.032 2.232 2.232 0 0 1-.135-1.33c.091-.445.318-.856.65-1.176.333-.322.756-.541 1.218-.63a2.45 2.45 0 0 1 1.374.131c.434.174.805.47 1.067.847a2.248 2.248 0 0 1 .22 2.158c-.12.28-.295.533-.516.746-.22.214-.483.383-.771.499a2.462 2.462 0 0 1-.91.175zm-16.512-12.68c-.47 0-.93-.134-1.321-.387a2.316 2.316 0 0 1-.876-1.032 2.228 2.228 0 0 1-.134-1.328c.09-.446.317-.856.65-1.178.332-.321.755-.54 1.218-.629a2.45 2.45 0 0 1 1.373.13c.434.175.805.47 1.067.848.261.378.4.822.4 1.278 0 .61-.25 1.194-.696 1.626a2.415 2.415 0 0 1-1.681.673v-.001zm-.06 12.636c-.47 0-.93-.136-1.322-.387a2.33 2.33 0 0 1-.874-1.032 2.232 2.232 0 0 1-.135-1.33c.091-.446.318-.856.65-1.177.333-.322.756-.54 1.217-.63.46-.088.94-.043 1.374.132.435.173.806.47 1.068.847.26.378.4.821.4 1.276a2.275 2.275 0 0 1-.696 1.627c-.221.214-.483.383-.772.5a2.462 2.462 0 0 1-.91.174zm-16.566-12.554c-.47 0-.93-.136-1.32-.388a2.32 2.32 0 0 1-.877-1.033 2.228 2.228 0 0 1-.134-1.328c.09-.446.317-.856.65-1.178a2.44 2.44 0 0 1 2.591-.497c.434.173.805.469 1.067.846.261.379.4.823.4 1.278 0 .61-.25 1.195-.696 1.625a2.417 2.417 0 0 1-1.68.674v.001zm-.067 12.635c-.47 0-.93-.136-1.32-.388a2.321 2.321 0 0 1-.875-1.033 2.228 2.228 0 0 1-.135-1.328c.091-.446.318-.856.65-1.178a2.41 2.41 0 0 1 1.218-.629 2.461 2.461 0 0 1 1.373.132c.435.175.806.47 1.068.847.26.378.4.822.4 1.278 0 .61-.251 1.194-.697 1.626-.447.43-1.05.673-1.682.673zm-16.528-12.635c-.47 0-.93-.136-1.32-.388a2.312 2.312 0 0 1-.876-1.033 2.238 2.238 0 0 1 .515-2.506 2.44 2.44 0 0 1 2.591-.497c.435.173.806.469 1.068.846.26.379.4.823.4 1.278a2.26 2.26 0 0 1-.697 1.625c-.445.431-1.05.674-1.68.674l-.001.001zm-.064 12.635c-.47 0-.929-.135-1.32-.387a2.332 2.332 0 0 1-.876-1.032 2.23 2.23 0 0 1-.135-1.33 2.27 2.27 0 0 1 .65-1.177 2.42 2.42 0 0 1 1.218-.63 2.461 2.461 0 0 1 1.373.132c.435.173.807.47 1.068.847.26.378.4.822.4 1.278 0 .61-.251 1.194-.696 1.626-.447.43-1.05.673-1.682.673zm83.365 13.094c-.47 0-.93-.135-1.322-.387a2.33 2.33 0 0 1-.875-1.033 2.238 2.238 0 0 1 .516-2.506c.332-.321.756-.54 1.217-.629.46-.089.94-.043 1.374.13.434.174.805.47 1.067.848.261.378.4.822.4 1.277 0 .61-.25 1.195-.696 1.627-.446.43-1.05.673-1.68.673zm-.065 12.638c-.471 0-.93-.135-1.321-.388a2.332 2.332 0 0 1-.876-1.032 2.232 2.232 0 0 1-.135-1.33c.091-.445.318-.856.65-1.176a2.44 2.44 0 0 1 2.591-.499c.435.174.806.47 1.068.846.26.379.4.824.4 1.279a2.26 2.26 0 0 1-.696 1.625 2.424 2.424 0 0 1-1.681.675zm-16.562-12.562c-.47 0-.93-.135-1.322-.387a2.309 2.309 0 0 1-.875-1.032 2.238 2.238 0 0 1 .516-2.505c.332-.322.756-.541 1.216-.63.461-.09.94-.044 1.375.131.434.174.805.47 1.067.847.261.378.4.821.4 1.277 0 .61-.25 1.195-.696 1.626a2.417 2.417 0 0 1-1.68.673zm-.064 12.64c-.47 0-.93-.135-1.322-.387a2.309 2.309 0 0 1-.875-1.033 2.218 2.218 0 0 1-.136-1.328c.091-.446.318-.856.65-1.178.333-.321.756-.54 1.217-.629.46-.089.94-.043 1.374.13.435.176.806.469 1.068.848.26.378.4.822.4 1.278a2.26 2.26 0 0 1-.696 1.625 2.419 2.419 0 0 1-1.68.674zm-16.528-12.64c-.47 0-.93-.133-1.322-.387a2.306 2.306 0 0 1-.875-1.031 2.219 2.219 0 0 1-.136-1.328c.091-.446.318-.857.65-1.178.333-.322.756-.541 1.217-.63.461-.09.94-.044 1.375.13.434.175.805.47 1.067.847.261.379.4.824.4 1.279 0 .61-.25 1.194-.696 1.625a2.412 2.412 0 0 1-1.68.673zm-.067 12.64c-.47 0-.93-.135-1.322-.387a2.319 2.319 0 0 1-.873-1.033 2.222 2.222 0 0 1-.137-1.329c.092-.446.319-.855.651-1.177.333-.321.756-.54 1.217-.629.46-.089.94-.043 1.374.13.434.174.806.47 1.068.848.26.378.4.822.4 1.278 0 .61-.251 1.194-.696 1.626-.447.43-1.05.673-1.682.673zm-16.51-12.677c-.47 0-.93-.134-1.322-.387a2.309 2.309 0 0 1-.875-1.033 2.217 2.217 0 0 1-.136-1.328c.091-.446.318-.857.65-1.177.333-.322.756-.54 1.217-.63.461-.09.94-.043 1.374.13.435.175.806.47 1.068.847.26.38.4.823.4 1.28a2.26 2.26 0 0 1-.696 1.624c-.445.43-1.05.674-1.68.674zm-.067 12.638c-.47 0-.93-.136-1.32-.388a2.321 2.321 0 0 1-.876-1.032 2.228 2.228 0 0 1-.134-1.329c.09-.445.318-.856.65-1.178a2.41 2.41 0 0 1 1.218-.628 2.461 2.461 0 0 1 1.373.131c.434.174.806.47 1.068.847.26.378.4.823.4 1.278 0 .301-.06.6-.182.88-.119.279-.295.532-.516.746-.22.214-.482.382-.771.499a2.462 2.462 0 0 1-.91.174zm-16.561-12.56c-.471 0-.93-.136-1.321-.388a2.332 2.332 0 0 1-.876-1.032 2.231 2.231 0 0 1-.135-1.33c.091-.446.318-.856.65-1.177.333-.321.756-.54 1.218-.63a2.45 2.45 0 0 1 1.373.132c.435.173.806.47 1.068.847a2.244 2.244 0 0 1-.296 2.904c-.447.43-1.05.673-1.681.673zm-.065 12.638c-.47 0-.93-.135-1.322-.387a2.321 2.321 0 0 1-.875-1.033 2.238 2.238 0 0 1 .516-2.506c.332-.321.756-.54 1.217-.629.46-.089.94-.043 1.374.13.434.175.805.47 1.067.848.261.377.4.822.4 1.278 0 .61-.25 1.194-.696 1.625-.446.431-1.05.674-1.68.674zm-16.524-12.639c-.47 0-.929-.135-1.32-.387a2.332 2.332 0 0 1-.877-1.032 2.231 2.231 0 0 1-.134-1.33c.092-.446.318-.856.65-1.177.332-.321.757-.54 1.218-.63a2.45 2.45 0 0 1 1.373.132c.434.173.807.47 1.067.847a2.244 2.244 0 0 1-.295 2.904c-.221.213-.483.382-.772.498a2.452 2.452 0 0 1-.91.175zm-.07 12.639c-.47 0-.93-.135-1.321-.387a2.321 2.321 0 0 1-.875-1.033 2.232 2.232 0 0 1-.134-1.33c.092-.445.317-.856.651-1.176.332-.321.756-.54 1.217-.629a2.45 2.45 0 0 1 1.373.13c.434.175.805.47 1.067.848.261.379.4.823.4 1.278 0 .302-.06.601-.181.88a2.29 2.29 0 0 1-.515.745 2.43 2.43 0 0 1-1.682.675v-.001zM1146.71 156.731c-.471 0-.931-.135-1.322-.387a2.324 2.324 0 0 1-.876-1.032 2.231 2.231 0 0 1-.134-1.33c.09-.446.318-.856.65-1.176.332-.322.756-.541 1.218-.63a2.451 2.451 0 0 1 1.373.132c.434.174.806.47 1.068.847a2.248 2.248 0 0 1 .22 2.158c-.12.28-.296.533-.516.746-.221.214-.483.383-.772.499a2.462 2.462 0 0 1-.91.175v-.002zm-.065 12.638c-.47 0-.93-.135-1.321-.387a2.332 2.332 0 0 1-.876-1.033 2.228 2.228 0 0 1-.134-1.328c.09-.446.317-.857.65-1.178a2.41 2.41 0 0 1 1.218-.629 2.45 2.45 0 0 1 1.373.13c.434.175.805.47 1.067.847.261.38.4.824.4 1.28 0 .3-.06.6-.18.88a2.293 2.293 0 0 1-.516.744 2.43 2.43 0 0 1-1.681.675v-.001zm-16.554-12.563c-.47 0-.93-.134-1.321-.387a2.332 2.332 0 0 1-.876-1.032 2.228 2.228 0 0 1-.135-1.328c.092-.446.318-.857.65-1.178a2.41 2.41 0 0 1 1.218-.63 2.45 2.45 0 0 1 1.373.131c.435.175.807.47 1.068.847a2.234 2.234 0 0 1 .22 2.159 2.293 2.293 0 0 1-.516.745 2.43 2.43 0 0 1-1.681.675v-.002zm-.073 12.64c-.47 0-.93-.135-1.321-.387a2.332 2.332 0 0 1-.876-1.032 2.232 2.232 0 0 1-.135-1.33c.091-.446.318-.856.65-1.177.333-.321.758-.54 1.219-.63a2.45 2.45 0 0 1 1.373.132c.434.173.806.47 1.067.847.261.378.4.822.4 1.278 0 .61-.25 1.194-.696 1.626a2.42 2.42 0 0 1-1.681.673zm-16.528-12.64c-.47 0-.93-.134-1.32-.387a2.332 2.332 0 0 1-.877-1.032 2.228 2.228 0 0 1-.134-1.328c.09-.446.318-.857.65-1.178a2.41 2.41 0 0 1 1.218-.63 2.45 2.45 0 0 1 1.373.131c.434.175.806.47 1.068.847a2.234 2.234 0 0 1 .22 2.159 2.293 2.293 0 0 1-.516.745 2.435 2.435 0 0 1-1.681.675v-.002zm-.065 12.64c-.47 0-.93-.135-1.321-.387a2.332 2.332 0 0 1-.876-1.032 2.232 2.232 0 0 1-.135-1.33c.091-.446.318-.856.65-1.177.333-.321.756-.54 1.218-.63a2.45 2.45 0 0 1 1.374.132c.434.173.805.47 1.067.847a2.248 2.248 0 0 1 .22 2.158c-.12.279-.295.532-.516.746-.22.213-.483.382-.771.498a2.462 2.462 0 0 1-.91.175zm-16.512-12.68c-.47 0-.93-.133-1.321-.387a2.316 2.316 0 0 1-.876-1.031 2.228 2.228 0 0 1-.135-1.328c.091-.446.318-.857.65-1.178a2.45 2.45 0 0 1 2.591-.499c.435.175.806.47 1.068.847.261.378.4.823.4 1.278 0 .61-.25 1.194-.696 1.626a2.415 2.415 0 0 1-1.681.674v-.001zm-.06 12.637c-.47 0-.93-.136-1.322-.387a2.33 2.33 0 0 1-.874-1.033 2.232 2.232 0 0 1-.135-1.33c.091-.445.318-.856.65-1.176.333-.323.756-.54 1.217-.63.46-.088.94-.043 1.374.131.435.174.806.47 1.068.847.26.378.4.822.4 1.277a2.275 2.275 0 0 1-.696 1.627c-.221.214-.483.383-.772.499a2.462 2.462 0 0 1-.91.175zm-16.566-12.554c-.47 0-.93-.136-1.32-.389a2.32 2.32 0 0 1-.877-1.032 2.228 2.228 0 0 1-.134-1.328c.09-.446.317-.857.65-1.178a2.44 2.44 0 0 1 2.591-.497c.434.173.805.469 1.067.845.261.38.4.824.4 1.279 0 .61-.25 1.194-.696 1.625a2.417 2.417 0 0 1-1.68.674zm-.067 12.635c-.47 0-.93-.136-1.32-.389a2.321 2.321 0 0 1-.875-1.032 2.228 2.228 0 0 1-.135-1.328c.091-.446.318-.857.65-1.178a2.41 2.41 0 0 1 1.218-.63 2.461 2.461 0 0 1 1.373.132c.435.175.806.47 1.068.847.26.378.4.823.4 1.278 0 .61-.251 1.195-.697 1.626-.447.43-1.05.674-1.682.674zm-16.528-12.635c-.47 0-.93-.136-1.32-.389a2.312 2.312 0 0 1-.876-1.032 2.238 2.238 0 0 1 .515-2.506 2.44 2.44 0 0 1 2.591-.497c.435.173.806.469 1.068.845.26.38.4.824.4 1.279a2.26 2.26 0 0 1-.697 1.625c-.445.43-1.05.674-1.68.674h-.001zm-.064 12.635c-.47 0-.929-.135-1.32-.387a2.332 2.332 0 0 1-.876-1.033 2.23 2.23 0 0 1-.135-1.33 2.27 2.27 0 0 1 .65-1.176 2.42 2.42 0 0 1 1.218-.63 2.461 2.461 0 0 1 1.373.131c.435.174.807.47 1.068.847.26.378.4.823.4 1.278 0 .61-.251 1.195-.696 1.626-.447.43-1.05.674-1.682.674zm83.365 13.094c-.47 0-.93-.135-1.322-.388a2.33 2.33 0 0 1-.875-1.032 2.238 2.238 0 0 1 .516-2.506c.332-.322.756-.54 1.217-.629.46-.09.94-.043 1.374.13.434.174.805.47 1.067.847.261.378.4.823.4 1.278 0 .61-.25 1.194-.696 1.626-.446.43-1.05.674-1.68.674zm-.065 12.637c-.471 0-.93-.135-1.321-.387a2.332 2.332 0 0 1-.876-1.033 2.232 2.232 0 0 1-.135-1.329c.091-.446.318-.856.65-1.177a2.44 2.44 0 0 1 2.591-.499c.435.174.806.47 1.068.847.26.379.4.823.4 1.278a2.26 2.26 0 0 1-.696 1.625 2.424 2.424 0 0 1-1.681.675zm-16.562-12.561c-.47 0-.93-.135-1.322-.387a2.309 2.309 0 0 1-.875-1.033 2.238 2.238 0 0 1 .516-2.505c.332-.321.756-.54 1.216-.63.461-.089.94-.043 1.375.132.434.173.805.469 1.067.847.261.378.4.821.4 1.276 0 .61-.25 1.196-.696 1.626a2.417 2.417 0 0 1-1.68.674zm-.064 12.64c-.47 0-.93-.135-1.322-.387a2.309 2.309 0 0 1-.875-1.033 2.218 2.218 0 0 1-.136-1.328c.091-.446.318-.857.65-1.178.333-.322.756-.54 1.217-.629.46-.09.94-.043 1.374.13.435.175.806.468 1.068.847.26.378.4.823.4 1.278a2.26 2.26 0 0 1-.696 1.625 2.419 2.419 0 0 1-1.68.675zm-16.528-12.64c-.47 0-.93-.134-1.322-.387a2.306 2.306 0 0 1-.875-1.032 2.219 2.219 0 0 1-.136-1.328c.091-.446.318-.856.65-1.178.333-.321.756-.54 1.217-.63.461-.089.94-.043 1.375.13.434.175.805.47 1.067.848.261.379.4.823.4 1.278 0 .61-.25 1.195-.696 1.625a2.412 2.412 0 0 1-1.68.674zm-.067 12.64c-.47 0-.93-.135-1.322-.387a2.319 2.319 0 0 1-.873-1.033 2.222 2.222 0 0 1-.137-1.33c.092-.445.319-.855.651-1.176.333-.322.756-.54 1.217-.629.46-.09.94-.043 1.374.13.434.174.806.47 1.068.847.26.378.4.823.4 1.278 0 .61-.251 1.195-.696 1.626-.447.43-1.05.674-1.682.674zm-16.51-12.678c-.47 0-.93-.133-1.322-.387a2.309 2.309 0 0 1-.875-1.032 2.217 2.217 0 0 1-.136-1.328c.091-.446.318-.857.65-1.177.333-.323.756-.541 1.217-.63.461-.09.94-.044 1.374.13.435.175.806.47 1.068.847.26.379.4.823.4 1.279a2.26 2.26 0 0 1-.696 1.625c-.445.43-1.05.673-1.68.673zm-.067 12.639c-.47 0-.93-.136-1.32-.388a2.321 2.321 0 0 1-.876-1.033 2.228 2.228 0 0 1-.134-1.328c.09-.446.318-.856.65-1.178a2.41 2.41 0 0 1 1.218-.629 2.461 2.461 0 0 1 1.373.132c.434.173.806.469 1.068.847.26.377.4.822.4 1.277 0 .302-.06.601-.182.88-.119.28-.295.533-.516.747-.22.213-.482.382-.771.498a2.462 2.462 0 0 1-.91.175zm-16.561-12.561c-.471 0-.93-.135-1.321-.387a2.332 2.332 0 0 1-.876-1.033 2.231 2.231 0 0 1-.135-1.33c.091-.445.318-.856.65-1.176.333-.321.756-.54 1.218-.63a2.45 2.45 0 0 1 1.373.131c.435.174.806.47 1.068.847a2.244 2.244 0 0 1-.296 2.904c-.447.431-1.05.674-1.681.674zm-.065 12.638c-.47 0-.93-.134-1.322-.387a2.321 2.321 0 0 1-.875-1.032 2.238 2.238 0 0 1 .516-2.506c.332-.322.756-.54 1.217-.63.46-.088.94-.043 1.374.131.434.175.805.47 1.067.847.261.378.4.823.4 1.279 0 .609-.25 1.193-.696 1.625-.446.43-1.05.673-1.68.673zm-16.524-12.638c-.47 0-.929-.135-1.32-.387a2.332 2.332 0 0 1-.877-1.033 2.231 2.231 0 0 1-.134-1.33c.092-.445.318-.856.65-1.176.332-.321.757-.54 1.218-.63a2.45 2.45 0 0 1 1.373.131c.434.174.807.47 1.067.847a2.244 2.244 0 0 1-.295 2.904c-.221.214-.483.383-.772.499a2.452 2.452 0 0 1-.91.175zm-.07 12.638c-.47 0-.93-.134-1.321-.387a2.321 2.321 0 0 1-.875-1.032 2.232 2.232 0 0 1-.134-1.33c.092-.445.317-.856.651-1.176.332-.322.756-.54 1.217-.63a2.45 2.45 0 0 1 1.373.131c.434.175.805.47 1.067.847.261.38.4.824.4 1.279 0 .302-.06.6-.181.88a2.29 2.29 0 0 1-.515.745 2.43 2.43 0 0 1-1.682.675v-.002z" fill="#224860" fill-rule="nonzero"/><g transform="translate(104.304 90.632)"><clipPath id="prefix__a"><path d="M0 0h183v225H0z"/></clipPath><g clip-path="url(#prefix__a)"><path d="M182.288 166.549C83.588 19.856 40.483-6.227 20.038 2.099c-22.715 9.254-25.975 64.458-9.124 102.037 24.308 54.207 96.429 85.041 171.374 62.413z" fill="#008b86" fill-rule="nonzero"/><path d="M142.602 113.157 3.224 61.389m132.437 41.041L1.898 53.215m155.847 80.763L5.054 77.823m144.488 44.798L3.16 68.991" fill="none" stroke="#224860" stroke-width="2.52"/><path d="M135.189 51.534 92 224.5M79.834 42.846 41.5 212.5M94.883 56.466 54.5 224m65.639-186.087L77.5 213.5" fill="none" stroke="#b6d8e2" stroke-width="1.89" stroke-linecap="butt" stroke-linejoin="miter" stroke-miterlimit="10"/></g></g><g transform="translate(1135.804 63.199)"><clipPath id="prefix__b"><path d="M0 0h124v253H0z"/></clipPath><g clip-path="url(#prefix__b)"><path d="M123.23 191.051C89.215 35.838 61.808-.204 41.97.001 19.928.227-1.038 45.287.628 82.26c2.4 53.336 52.49 102.937 122.6 108.79" fill="#008b86" fill-rule="nonzero"/><path d="M107.706 133.315 8.326 43.996m97.124 78.061L9.92 36.727M113.48 155.72 4.424 58.334m105.955 85.184L5.762 50.328" fill="none" stroke="#224860" stroke-width="2.27"/><path d="m28.133 85.572 73.707 122.387M29.838 100.62l73.712 122.347m-15.115-90.966L58.5 252m20.539-108.12L52.5 252" fill="none" stroke="#b6d8e2" stroke-width="1.7" stroke-linecap="butt" stroke-linejoin="miter" stroke-miterlimit="10"/></g></g><g transform="translate(1213.861 65.73)"><clipPath id="prefix__c"><path d="M0 0h108v202H0z"/></clipPath><g clip-path="url(#prefix__c)"><path d="M36.971 201.526c71.892-109.042 77.4-145.85 65.9-157.415-12.775-12.85-51.332.645-72.15 22.83-30.029 32-30.513 89.942 6.248 134.585" fill="#ff8780" fill-rule="nonzero"/><path d="M62.068 159.273 57.672 49.529m9.73 101.96-4.537-105.19m-10.68 129.224L46.99 55.455m10.603 111.244-5.12-115.05" fill="none" stroke="#224860" stroke-width="1.86"/><path d="m.629 1.672 59.523 101.23M1.9 14.056l59.527 101.197M12.34 1.252l59.523 101.23M13.611 13.636 73.14 114.833" fill="none" stroke="#b6d8e2" stroke-width="1.4" stroke-linecap="butt" stroke-linejoin="miter" stroke-miterlimit="10"/></g></g><path d="M1301.443 76.839a1.961 1.961 0 0 1-3.883.382 1.959 1.959 0 0 1 .835-2.012 1.961 1.961 0 0 1 3.049 1.63h-.001zm10.77.053a1.966 1.966 0 0 1-1.21 1.81 1.958 1.958 0 0 1-2.671-1.428 1.958 1.958 0 0 1 3.308-1.768 1.95 1.95 0 0 1 .575 1.386h-.001zm-10.706 13.647a1.966 1.966 0 0 1-1.21 1.81 1.958 1.958 0 0 1-2.672-1.428 1.958 1.958 0 0 1 3.308-1.768 1.95 1.95 0 0 1 .575 1.386h-.001zm10.773.06a1.961 1.961 0 1 1-3.923 0 1.961 1.961 0 0 1 3.923 0zm-10.773 13.624a1.961 1.961 0 0 1-3.346 1.386 1.965 1.965 0 0 1-.425-2.136 1.965 1.965 0 0 1 3.197-.636 1.95 1.95 0 0 1 .575 1.386h-.001zm10.773.054a1.961 1.961 0 1 1-3.923 0 1.961 1.961 0 0 1 3.923 0zm-10.807 13.612a1.953 1.953 0 0 1-1.21 1.811 1.958 1.958 0 0 1-2.671-1.429 1.958 1.958 0 0 1 3.308-1.768c.368.367.574.866.574 1.386h-.001zm10.77.05c0 .387-.116.766-.33 1.09a1.962 1.962 0 0 1-3.553-.707 1.962 1.962 0 0 1 3.734-1.134c.098.238.149.493.149.75zm-10.7 13.656a1.962 1.962 0 0 1-3.347 1.386 1.96 1.96 0 1 1 3.346-1.386zm10.769.055a1.962 1.962 0 0 1-2.343 1.921 1.957 1.957 0 0 1-1.428-2.672 1.961 1.961 0 0 1 3.771.751zm-10.77 13.626a1.961 1.961 0 0 1-3.882.381 1.97 1.97 0 0 1 .833-2.012 1.957 1.957 0 0 1 3.049 1.63v.001zm10.77.052a1.964 1.964 0 0 1-1.21 1.811 1.96 1.96 0 1 1 1.21-1.81zm11.16-68.723c0 .388-.115.767-.33 1.09a1.97 1.97 0 0 1-2.012.833 1.966 1.966 0 0 1-1.54-1.54 1.962 1.962 0 0 1 1.922-2.343 1.963 1.963 0 0 1 1.96 1.96zm10.77.054a1.964 1.964 0 0 1-1.21 1.81 1.962 1.962 0 0 1-2.672-1.428 1.97 1.97 0 0 1 .833-2.012 1.959 1.959 0 0 1 3.05 1.63zm-10.705 13.653a1.952 1.952 0 0 1-1.21 1.811 1.96 1.96 0 0 1-2.56-2.561 1.965 1.965 0 0 1 1.81-1.21 1.961 1.961 0 0 1 1.96 1.96zm10.773.053a1.952 1.952 0 0 1-1.21 1.811 1.957 1.957 0 0 1-2.672-1.427 1.97 1.97 0 0 1 .11-1.133 1.961 1.961 0 0 1 3.772.749zm-10.773 13.624a1.959 1.959 0 0 1-3.882.384 1.962 1.962 0 0 1 1.923-2.343c.52 0 1.018.206 1.385.574.368.367.574.865.574 1.385zm10.773.055c0 .388-.115.767-.33 1.09a1.96 1.96 0 0 1-.88.72 1.953 1.953 0 0 1-2.136-.424 1.962 1.962 0 0 1 1.386-3.346 1.963 1.963 0 0 1 1.96 1.96zm-10.805 13.611a1.959 1.959 0 0 1-3.882.384 1.962 1.962 0 0 1 1.923-2.343 1.958 1.958 0 0 1 1.959 1.96zm10.772.055a1.962 1.962 0 0 1-2.343 1.921 1.957 1.957 0 0 1-1.428-2.672 1.965 1.965 0 0 1 1.81-1.21 1.95 1.95 0 0 1 1.811 1.211c.099.238.15.493.15.75zm-10.706 13.653a1.961 1.961 0 1 1-3.923 0 1.961 1.961 0 0 1 3.923 0zm10.772.053a1.963 1.963 0 0 1-3.346 1.386 1.962 1.962 0 0 1 1.387-3.346 1.962 1.962 0 0 1 1.959 1.96zm-10.772 13.622a1.966 1.966 0 0 1-1.21 1.811 1.962 1.962 0 0 1-1.84-3.44 1.958 1.958 0 0 1 2.9.88c.099.236.15.491.15.75zm10.772.058a1.963 1.963 0 0 1-3.346 1.384 1.962 1.962 0 0 1 .297-3.015 1.967 1.967 0 0 1 1.84-.18 1.954 1.954 0 0 1 1.21 1.811h-.001z" fill="#224860" fill-rule="nonzero"/></svg>
