<svg id="Layer_1" data-name="Layer 1" xmlns="http://www.w3.org/2000/svg" viewBox="0 0 1080 1080"><defs><style>.cls-1{fill:#ececec}.cls-2{fill:#e1e1e1}.cls-3{fill:#f5f5f5}.cls-4{fill:#fff}.cls-5{fill:#1a2e35}.cls-6{fill:#375a64}.cls-7{fill:#fbb626}.cls-8{opacity:.1}.cls-9{fill:#ff735d}.cls-10{opacity:.2}.cls-11{opacity:.3}.cls-12{fill:#ffbf9d}.cls-13{fill:#ff9a6c}.cls-14{fill:#b4473e}.cls-15{opacity:.5}.cls-16{opacity:.4}</style></defs><path class="cls-1" d="M656.8 557.22c45.08-31.56 49.42-35.62 72.22-77.87l21.66 44.22c-92.74 26.13-172.75 113.75-242.54 180.17-71.46 68-203.52 168.17-222.88 262.56-25.68-65-65.37-56.62-111.66-109 153.88-42.53 371.08-221.6 483.2-300.08z"/><path class="cls-1" d="M441.51 1033.7c-11.07-30.37-49.28-44.64-78.74-31.36l.63-13.78a77.26 77.26 0 0 0-88.73-65.85c-1.74-22.74-25.48-41.22-47.94-37.34a43.33 43.33 0 0 0-62.48-48.15c-23.27-14.64-55.58-13.15-77.4 3.56s-31.7 47.51-23.64 73.79c-35.34 27-48.1 79.75-29 119.94m744.22-523.98l-62.07-42.24c-22.27-2.92-34.15 19.08-33.22 34.91A25.29 25.29 0 0 0 649 537.13c-12.69.63-23.26 13.73-21.2 26.27s16.2 21.6 28.44 18.09c8.07-2.28 14.63-9 23-9.9 7.81-.89 15.12 3.45 22.61 5.84 18.61 5.93 39.88-.74 53.91-14.32S777 530 778.43 510.53z"/><path class="cls-2" d="M738.59 484a56.74 56.74 0 0 0-19.93 10.09 5.1 5.1 0 0 0 3.34 9.08h.13a209.58 209.58 0 0 0-21.54 17.21 6.28 6.28 0 0 0 4.48 10.92 96.11 96.11 0 0 0 62.23-26.38zm110.69 5.22v.49a94.56 94.56 0 0 1-38 72.42l-14.41 10.76-1.48-43.46zm-60.99-81.74l-.47-.12a93.28 93.28 0 0 0-79.15 15.58l-14.21 10.61 40.68 13.6z"/><path class="cls-3" d="M959.89 343.06c-4.83-6.47-30.43-5.88-66.61 3.91-35.63 9.65-60.09 27-60.09 27l-120.25 89.74 23.64 31.68 13.71 18.37 23.64 31.68L883.05 464a208 208 0 0 0 29.54-26.71 249.47 249.47 0 0 0 24.58-31.51c20.33-31.32 27.55-56.27 22.72-62.74"/><path class="cls-3" d="M731.99 449.49L792.84 530.05"/><path class="cls-2" d="M792.84 530.05c-.12.09-13.83-17.88-30.63-40.12s-30.34-40.35-30.21-40.44 13.84 17.87 30.64 40.12S793 530 792.84 530.05z"/><path class="cls-3" d="M728.08 451.84L788.93 532.4"/><path class="cls-2" d="M788.93 532.4c-.12.09-13.84-17.87-30.64-40.11s-30.29-40.36-30.21-40.45 13.83 17.88 30.64 40.13 30.28 40.35 30.21 40.43z"/><path class="cls-3" d="M724.28 454.78L785.13 535.34"/><path class="cls-2" d="M785.13 535.34c-.12.09-13.84-17.88-30.64-40.12s-30.33-40.35-30.21-40.44 13.83 17.87 30.64 40.12 30.33 40.35 30.21 40.44z"/><path class="cls-3" d="M720.48 457.71L781.33 538.27"/><path class="cls-2" d="M781.33 538.27c-.12.09-13.84-17.87-30.64-40.11s-30.33-40.36-30.21-40.45 13.83 17.87 30.64 40.12 30.33 40.35 30.21 40.44z"/><path class="cls-3" d="M716.68 460.65L777.53 541.21"/><path class="cls-2" d="M777.53 541.21c-.12.09-13.83-17.88-30.63-40.12s-30.34-40.35-30.22-40.44 13.84 17.87 30.64 40.12 30.33 40.35 30.21 40.44zm41.28-92.63a3.27 3.27 0 0 1-.49.51c-.33.34-.88.74-1.56 1.31-1.37 1.11-3.39 2.67-5.91 4.58-5 3.82-12 9-19.82 14.69s-14.84 10.79-20 14.46l-6.1 4.33c-.69.47-1.25.85-1.67 1.15a3.83 3.83 0 0 1-.61.37 4.77 4.77 0 0 1 .54-.46l1.62-1.23 6-4.46 19.89-14.59 19.9-14.56 6-4.44c.7-.54 1.28-.93 1.62-1.23a4.15 4.15 0 0 1 .59-.43z"/><path class="cls-2" d="M849.28 489.22c-.12.09-13.77-18-30.48-40.34s-30.17-40.57-30-40.66 13.76 18 30.48 40.34 30.12 40.57 30 40.66zm-65.28-4.5s.29 0 .73.24a3.16 3.16 0 0 1 1.38 1.58 3.06 3.06 0 0 1-.36 3.07 3.28 3.28 0 0 1-6-1.63 3.06 3.06 0 0 1 1.26-2.83 3.21 3.21 0 0 1 2-.66c.5 0 .76.14.75.17s-.28 0-.74 0a3.3 3.3 0 0 0-1.76.75 2.73 2.73 0 0 0-1 2.47 2.81 2.81 0 0 0 5.09 1.39 2.69 2.69 0 0 0 .39-2.64 3.25 3.25 0 0 0-1.13-1.54c-.33-.24-.61-.33-.61-.37zm23.61-16.91s.29 0 .73.23a3.29 3.29 0 0 1 1.37 1.58 3.08 3.08 0 0 1-.35 3.08 3.28 3.28 0 0 1-6-1.63 3.07 3.07 0 0 1 1.26-2.83 3.24 3.24 0 0 1 2-.66c.5 0 .75.14.74.17s-.27 0-.74 0a3.3 3.3 0 0 0-1.76.75 2.69 2.69 0 0 0-1 2.47 2.82 2.82 0 0 0 5.14 1.43 2.72 2.72 0 0 0 .39-2.64 3.32 3.32 0 0 0-1.14-1.54c-.4-.28-.66-.37-.64-.41zM696 543.52a5.51 5.51 0 1 0 .37.16"/><path class="cls-4" d="M904.24 413.44a27.54 27.54 0 1 1-16.67-35.2 27.53 27.53 0 0 1 16.67 35.2z"/><path class="cls-2" d="M904.24 413.44a53.12 53.12 0 0 0 1.22-6.65A27.45 27.45 0 0 0 901 389.4a27 27 0 0 0-22.83-12.19 27.15 27.15 0 0 0-14.95 4.66 26.87 26.87 0 0 0-10.71 30 25 25 0 0 0 3.43 7.31 25.61 25.61 0 0 0 5.18 5.77 27.2 27.2 0 0 0 13 5.91 26.86 26.86 0 0 0 12.43-.88A27.35 27.35 0 0 0 901 419.35a52.71 52.71 0 0 0 3.27-5.91 9.38 9.38 0 0 1-.56 1.67 12.63 12.63 0 0 1-.87 1.95 18.83 18.83 0 0 1-1.45 2.55 27.74 27.74 0 0 1-27.44 12.23 28 28 0 0 1-13.49-6 28 28 0 0 1-9-13.59 27.92 27.92 0 0 1 11.19-31.3 28.16 28.16 0 0 1 15.6-4.79 28.17 28.17 0 0 1 14.2 3.84 27.7 27.7 0 0 1 9.27 9 27.4 27.4 0 0 1 4.2 17.9 19.72 19.72 0 0 1-.49 2.88 12.19 12.19 0 0 1-.57 2.07 10.14 10.14 0 0 1-.62 1.59zm55.65-70.38c-4.83-6.47-30.43-5.88-66.61 3.91l43.89 58.83c20.33-31.32 27.55-56.27 22.72-62.74"/><path class="cls-2" d="M959.89 343.06s.26.4.72 1.23a12.69 12.69 0 0 1 .81 4.12c.16 3.71-.81 9.16-3 15.87-4.41 13.39-13.56 32-28.53 52.65a248.35 248.35 0 0 1-27.59 31.5 214.33 214.33 0 0 1-17.92 15.18l-20 15-90.14 67.35-.47.35-.35-.47-30.42-40.9c-10.45-14-20.71-27.76-30.49-40.88l-.36-.47.48-.36L802.82 396l20-14.91 9.56-7.12c3.22-2.29 6.52-4.27 9.8-6.17a221.53 221.53 0 0 1 38.14-17.26 266.49 266.49 0 0 1 33.21-8.63 171.12 171.12 0 0 1 25.53-3.22c7-.24 12.55.29 16.09 1.43a23.7 23.7 0 0 1 2.25.94 14.16 14.16 0 0 1 1.48 1c.67.68 1 1 1 1s-.37-.32-1-1a14.53 14.53 0 0 0-1.48-.9c-.61-.33-1.4-.54-2.25-.88-3.51-1.06-9-1.52-16-1.21a174.15 174.15 0 0 0-25.43 3.39 271.48 271.48 0 0 0-33.08 8.77 222 222 0 0 0-37.93 17.32c-3.24 1.9-6.54 3.89-9.69 6.14l-9.55 7.15-20 14.95-90.15 67.35.12-.82c9.8 13.11 20.06 26.86 30.51 40.86l30.48 40.87-.82-.12 90.21-67.23 20-14.91a212.88 212.88 0 0 0 17.88-15.08 249.32 249.32 0 0 0 27.6-31.29c15-20.55 24.25-39 28.76-52.32 2.21-6.65 3.24-12.05 3.15-15.73a13 13 0 0 0-.69-4.07c-.43-.79-.63-1.24-.63-1.24z"/><path class="cls-2" d="M876.05 424.64c-.16 0 0-2.14.46-5.54s1.31-8.05 2.33-13.17l2.66-13.09c.69-3.34 1.13-5.41 1.3-5.39s0 2.14-.47 5.54S881 401 880 406.16l-2.66 13.09c-.68 3.34-1.12 5.41-1.29 5.39zm-4.87-6.47c-.33 0 .28-5.45 1.37-12.07s2.23-11.94 2.55-11.88-.29 5.47-1.37 12.07-2.22 11.92-2.55 11.88z"/><path class="cls-3" d="M455 254.59a61 61 0 1 0 56.63-65 61 61 0 0 0-56.63 65z"/><path class="cls-1" d="M469.47 253.58A46.51 46.51 0 1 0 512.62 204a46.45 46.45 0 0 0-43.15 49.58z"/><path class="cls-2" d="M469.38 252.12c.28 0 .34-2.06.83-5.66a49.53 49.53 0 0 1 4.36-14.6 47.19 47.19 0 0 1 5.55-8.86 46.64 46.64 0 0 1 8.6-8.3 44.66 44.66 0 0 1 5.44-3.48 43.77 43.77 0 0 1 6.14-2.76 44.58 44.58 0 0 1 6.71-1.88 45.53 45.53 0 0 1 14.3-.55 45 45 0 0 1 6.84 1.35 42.07 42.07 0 0 1 6.33 2.29 42.77 42.77 0 0 1 5.69 3 46.44 46.44 0 0 1 9.21 7.62 47.58 47.58 0 0 1 6.22 8.41 49.12 49.12 0 0 1 5.46 14.3c.77 3.56 1 5.6 1.27 5.58s.47-2.07.1-5.8a43 43 0 0 0-4.62-15.2 46.67 46.67 0 0 0-6.23-9.17A47.53 47.53 0 0 0 542 210a47.5 47.5 0 0 0-12.89-6 48.14 48.14 0 0 0-7.37-1.52 47.59 47.59 0 0 0-15.43.6 47.75 47.75 0 0 0-7.23 2.08 46.45 46.45 0 0 0-6.57 3.06 45 45 0 0 0-5.78 3.84 47.19 47.19 0 0 0-9 9.12 46.7 46.7 0 0 0-5.51 9.62 43.08 43.08 0 0 0-3.44 15.51c-.03 3.79.39 5.82.6 5.81z"/><path class="cls-2" d="M494.87 263.92c-.56-10.18 8.1-13.35 16-15.67L510.2 236a29.86 29.86 0 0 0-10.84 4.37l-4.11-8.68a32.71 32.71 0 0 1 14.42-5.22l-.44-7.87 7.22-.4.45 8c11.48.67 17.41 6.93 17.83 14.59.58 10.33-8.23 13.5-16.14 15.89l.67 12.06a29.1 29.1 0 0 0 13.74-5.93l4.46 8.6c-3.8 3.32-10.53 5.94-17.66 6.77l.44 7.87-7.23.41-.44-8.09c-11.43-.74-17.28-6.94-17.7-14.45zm28.21-23.08c-.14-2.39-1.77-4.4-5.65-5.05L518 246c3.13-1.14 5.22-2.64 5.08-5.16zm-11.05 28l-.56-10c-3 1.25-5.06 2.74-4.92 5.27.13 2.34 1.82 4.13 5.45 4.72z"/><path class="cls-3" d="M493.4 540.53a26.29 26.29 0 1 0 24.4-28 26.28 26.28 0 0 0-24.4 28z"/><path class="cls-1" d="M499.64 540.09a20 20 0 1 0 18.59-21.34 20 20 0 0 0-18.59 21.34z"/><path class="cls-2" d="M499.6 539.46a10.64 10.64 0 0 0 .4-2.46 21.62 21.62 0 0 1 1.88-6.28 20.64 20.64 0 0 1 2.39-3.82 20.36 20.36 0 0 1 3.7-3.58 19.67 19.67 0 0 1 5-2.69 19.69 19.69 0 0 1 2.9-.81 21.83 21.83 0 0 1 3.07-.36 21.12 21.12 0 0 1 3.09.13 18.88 18.88 0 0 1 2.94.58 18.38 18.38 0 0 1 2.73 1 17.35 17.35 0 0 1 2.45 1.32 19.72 19.72 0 0 1 4 3.28 20.68 20.68 0 0 1 2.68 3.62 21.27 21.27 0 0 1 2.35 6.12 12.68 12.68 0 0 0 .55 2.41 5.89 5.89 0 0 0 0-2.5 18.21 18.21 0 0 0-2-6.55 20 20 0 0 0-2.68-4 20.21 20.21 0 0 0-4.15-3.62 20.46 20.46 0 0 0-2.61-1.46 20 20 0 0 0-2.92-1.1 22.12 22.12 0 0 0-3.18-.65 21.67 21.67 0 0 0-3.33-.14 22.35 22.35 0 0 0-3.31.4 20.1 20.1 0 0 0-5.95 2.21 20 20 0 0 0-2.49 1.66 20.09 20.09 0 0 0-6.23 8.07 18.44 18.44 0 0 0-1.48 6.68 5.8 5.8 0 0 0 .2 2.54z"/><path class="cls-2" d="M510.59 544.55c-.25-4.39 3.49-5.75 6.89-6.75l-.29-5.29a12.75 12.75 0 0 0-4.67 1.88l-1.77-3.74a14.08 14.08 0 0 1 6.25-2.25l-.19-3.39 3.12-.17.19 3.45c4.94.29 7.5 3 7.68 6.28.25 4.45-3.55 5.82-7 6.85l.29 5.2a12.67 12.67 0 0 0 5.91-2.55l1.92 3.7a14.74 14.74 0 0 1-7.61 2.92l.19 3.39-3.11.18-.19-3.49c-4.91-.32-7.43-2.99-7.61-6.22zm12.15-9.95c-.06-1-.76-1.89-2.43-2.17l.24 4.42c1.35-.52 2.25-1.16 2.19-2.25zM518 546.66l-.24-4.29c-1.31.54-2.18 1.18-2.12 2.27s.76 1.77 2.36 2.02z"/><path class="cls-3" d="M293 669.93a33.15 33.15 0 1 0 37.56-28 33.11 33.11 0 0 0-37.56 28z"/><path class="cls-1" d="M300.81 671.06a25.26 25.26 0 1 0 28.62-21.3 25.22 25.22 0 0 0-28.62 21.3z"/><path class="cls-2" d="M300.93 670.28c.15 0 .41-1 1.1-2.91a26.52 26.52 0 0 1 4-7.24 25.22 25.22 0 0 1 9.49-7.48 25 25 0 0 1 6.87-2 23.56 23.56 0 0 1 3.78-.22 27.08 27.08 0 0 1 3.88.37 27.8 27.8 0 0 1 3.77 1 25.78 25.78 0 0 1 3.47 1.51 23.19 23.19 0 0 1 3.1 1.95 23.65 23.65 0 0 1 2.67 2.27 25 25 0 0 1 6.33 10.29 26.72 26.72 0 0 1 1.26 8.17c0 2-.12 3.08 0 3.11s.49-1.05.72-3.07a23.32 23.32 0 0 0-.69-8.6 25.24 25.24 0 0 0-6.39-11.15 24.3 24.3 0 0 0-2.82-2.5 26.06 26.06 0 0 0-3.31-2.14 25.69 25.69 0 0 0-3.74-1.65 26 26 0 0 0-8.25-1.47 27.42 27.42 0 0 0-4.08.27 23.83 23.83 0 0 0-3.84.87 24.14 24.14 0 0 0-3.51 1.37 25.1 25.1 0 0 0-9.84 8.28 23.3 23.3 0 0 0-3.62 7.83c-.45 1.99-.46 3.12-.35 3.14z"/><path class="cls-2" d="M313.09 679.48c.88-5.47 5.84-6.14 10.31-6.46l1.06-6.6a16.19 16.19 0 0 0-6.26 1.07l-1.2-5.08a17.78 17.78 0 0 1 8.26-1.11l.67-4.23 3.88.63-.69 4.3c6 1.68 8.44 5.69 7.78 9.8-.89 5.55-5.93 6.21-10.4 6.57l-1 6.48a16 16 0 0 0 8-1.55l1.37 5.07c-2.4 1.33-6.27 1.94-10.15 1.56l-.68 4.23-3.88-.62.7-4.35c-6.02-1.71-8.41-5.67-7.77-9.71zm17.64-9c.2-1.28-.43-2.54-2.41-3.33l-.89 5.51c1.8-.26 3.08-.81 3.3-2.17zm-9.1 13.58l.86-5.35c-1.77.31-3 .87-3.23 2.23s.5 2.4 2.37 3.13z"/><path class="cls-3" d="M1040.46 873.92v20.89a1 1 0 0 0 1 1h1.76a1 1 0 0 1 1 1v.42a1 1 0 0 1-1 1h-1.76a1 1 0 0 0-1 1v13.29a1 1 0 0 1-1 1h-69.6a1 1 0 0 1-1-1v-11.76a1 1 0 0 1 1-1h3.24a1 1 0 0 0 1-1v-1a1 1 0 0 0-1-1h-3.24a1 1 0 0 1-1-1v-2.5a1 1 0 0 0-1-1h-.29a1 1 0 0 1-1-1 1 1 0 0 1 1-1h.73a1 1 0 0 0 1-1v-15.34a1 1 0 0 1 1-1h69.15a1 1 0 0 1 1.01 1z"/><path class="cls-2" d="M987.82 874v38.43a1 1 0 0 1-1 1h-17a1 1 0 0 1-1-1V900.5a1 1 0 0 1 1-1h3.24a1 1 0 0 0 1-1v-.7a1 1 0 0 0-1.05-1l-3.2.06a1 1 0 0 1-1.06-1v-2.47a1 1 0 0 0-1-1h-.3a1 1 0 0 1-1-1.06v-.3a1 1 0 0 1 1-1h.79a1 1 0 0 0 1-1v-15.11a1 1 0 0 1 1-1l16.51.06a1.05 1.05 0 0 1 1.07 1.02z"/><path class="cls-2" d="M986.46 898c0 .14 13 .25 29 .25s29-.11 29-.25-13-.26-29-.26-29 .13-29 .26zm0-2.33c0 .14 13 .26 29 .26s29-.12 29-.26-13-.25-29-.25-29 .11-29 .25zm-3.72-6.27c0 .14 13 .25 29 .25s29-.11 29-.25-13-.26-29-.26-29 .12-29 .26zm-.36 17.1c0 .14 13 .26 29 .26s29-.12 29-.26-13-.25-29-.25-29 .11-29 .25z"/><path class="cls-3" d="M1029.36 915.78v31.71a1.58 1.58 0 0 0 1.58 1.58h2.66a1.57 1.57 0 0 1 1.58 1.57v.63a1.57 1.57 0 0 1-1.58 1.58h-2.66a1.58 1.58 0 0 0-1.58 1.58v20.18a1.58 1.58 0 0 1-1.58 1.58H922.13a1.58 1.58 0 0 1-1.58-1.58v-18.08a1.58 1.58 0 0 1 1.58-1.58H927a1.57 1.57 0 0 0 1.58-1.57v-1.47a1.58 1.58 0 0 0-1.58-1.58h-4.9a1.58 1.58 0 0 1-1.58-1.58V945a1.58 1.58 0 0 0-1.58-1.58h-.43a1.57 1.57 0 0 1-1.57-1.58 1.57 1.57 0 0 1 1.57-1.57h1.1a1.58 1.58 0 0 0 1.58-1.58v-22.91a1.58 1.58 0 0 1 1.58-1.58h105a1.58 1.58 0 0 1 1.59 1.58z"/><path class="cls-2" d="M949.45 915.88v58.34a1.58 1.58 0 0 1-1.58 1.58h-25.74a1.58 1.58 0 0 1-1.58-1.58v-18.08a1.58 1.58 0 0 1 1.58-1.58H927a1.57 1.57 0 0 0 1.58-1.57v-1.06a1.57 1.57 0 0 0-1.6-1.57l-4.86.08a1.57 1.57 0 0 1-1.6-1.57v-3.76a1.57 1.57 0 0 0-1.58-1.57h-.46a1.58 1.58 0 0 1-1.58-1.61v-.47a1.57 1.57 0 0 1 1.54-1.54h1.2a1.58 1.58 0 0 0 1.54-1.58v-22.55a1.58 1.58 0 0 1 1.58-1.58l25.07.09a1.58 1.58 0 0 1 1.62 1.58z"/><path class="cls-2" d="M947.39 952.35c0 .21 19.69.39 44 .39s44-.18 44-.39-19.68-.39-44-.39-44 .18-44 .39zm0-3.54c0 .21 19.69.39 44 .39s44-.18 44-.39-19.68-.39-44-.39-44 .18-44 .39zm-5.65-9.53c0 .21 19.69.38 44 .38s44-.17 44-.38-19.69-.39-44-.39-44 .17-44 .39zm-.55 25.97c0 .21 19.69.39 44 .39s44-.18 44-.39-19.68-.39-44-.39-44 .14-44 .39z"/><path class="cls-3" d="M1038.9 975.23v31.71a1.57 1.57 0 0 0 1.57 1.57h2.67a1.58 1.58 0 0 1 1.58 1.58v.63a1.58 1.58 0 0 1-1.58 1.58h-2.67a1.57 1.57 0 0 0-1.57 1.57v20.19a1.57 1.57 0 0 1-1.58 1.57H931.66a1.57 1.57 0 0 1-1.57-1.57V1016a1.57 1.57 0 0 1 1.57-1.58h4.91a1.58 1.58 0 0 0 1.58-1.58v-1.47a1.57 1.57 0 0 0-1.58-1.57h-4.91a1.57 1.57 0 0 1-1.57-1.58v-3.79a1.57 1.57 0 0 0-1.58-1.57h-.43a1.57 1.57 0 0 1-1.57-1.58 1.57 1.57 0 0 1 1.57-1.58h1.1a1.57 1.57 0 0 0 1.58-1.57v-22.9a1.58 1.58 0 0 1 1.58-1.58h105a1.58 1.58 0 0 1 1.56 1.58z"/><path class="cls-2" d="M959 975.32v58.35a1.57 1.57 0 0 1-1.57 1.57h-25.77a1.57 1.57 0 0 1-1.57-1.57v-18.08a1.57 1.57 0 0 1 1.57-1.58h4.91a1.57 1.57 0 0 0 1.58-1.57v-1.06a1.59 1.59 0 0 0-1.61-1.58l-4.85.09a1.57 1.57 0 0 1-1.6-1.58v-3.75a1.58 1.58 0 0 0-1.58-1.58H928a1.56 1.56 0 0 1-1.57-1.6v-.47a1.57 1.57 0 0 1 1.53-1.55h1.21a1.57 1.57 0 0 0 1.54-1.57v-22.56a1.57 1.57 0 0 1 1.58-1.57l25.07.09a1.57 1.57 0 0 1 1.64 1.57z"/><path class="cls-2" d="M956.92 1011.8c0 .21 19.69.38 44 .38s44-.17 44-.38-19.68-.39-44-.39-44 .17-44 .39zm0-3.54c0 .21 19.69.38 44 .38s44-.17 44-.38-19.68-.39-44-.39-44 .13-44 .39zm-5.64-9.54c0 .22 19.68.39 44 .39s44-.17 44-.39-19.68-.38-44-.38-44 .17-44 .38zm-.55 25.98c0 .21 19.69.38 44 .38s44-.17 44-.38-19.68-.39-44-.39-44 .17-44 .39z"/><path class="cls-3" d="M1034.07 755.74v20.89a1 1 0 0 0 1 1h1.76a1 1 0 0 1 1 1v.42a1 1 0 0 1-1 1h-1.76a1 1 0 0 0-1 1v13.3a1 1 0 0 1-1 1h-69.63a1 1 0 0 1-1-1v-11.77a1 1 0 0 1 1-1h3.23a1 1 0 0 0 1-1v-1a1 1 0 0 0-1-1h-3.23a1 1 0 0 1-1-1V775a1 1 0 0 0-1-1h-.28a1 1 0 0 1-1-1 1 1 0 0 1 1-1h.73a1 1 0 0 0 1-1v-15.26a1 1 0 0 1 1-1H1033a1 1 0 0 1 1.07 1z"/><path class="cls-2" d="M981.43 755.8v38.43a1 1 0 0 1-1 1h-17a1 1 0 0 1-1-1v-11.91a1 1 0 0 1 1-1h3.23a1 1 0 0 0 1-1v-.7a1 1 0 0 0-1.06-1l-3.19.06a1 1 0 0 1-1.06-1v-2.47a1 1 0 0 0-1-1h-.3a1 1 0 0 1-1-1.06v-.31a1 1 0 0 1 1-1h.79a1 1 0 0 0 1-1v-15.1a1 1 0 0 1 1-1l16.51.06a1 1 0 0 1 1.08 1z"/><path class="cls-2" d="M980.08 779.83c0 .14 13 .25 29 .25s29-.11 29-.25-13-.26-29-.26-29 .12-29 .26zm0-2.34c0 .14 13 .26 29 .26s29-.12 29-.26-13-.25-29-.25-29 .11-29 .25zm-3.72-6.27c0 .14 13 .25 29 .25s29-.11 29-.25-13-.26-29-.26-29 .11-29 .26zm-.36 17.1c0 .14 13 .26 29 .26s29-.12 29-.26-13-.25-29-.25-29 .11-29 .25z"/><path class="cls-3" d="M1028.67 795.43v20.89a1 1 0 0 0 1 1h1.76a1 1 0 0 1 1 1v.42a1 1 0 0 1-1 1h-1.76a1 1 0 0 0-1 1v13.29a1 1 0 0 1-1 1H958a1 1 0 0 1-1-1v-11.76a1 1 0 0 1 1-1h3.24a1 1 0 0 0 1-1v-1a1 1 0 0 0-1-1H958a1 1 0 0 1-1-1v-2.49a1 1 0 0 0-1-1h-.29a1 1 0 0 1-1-1 1 1 0 0 1 1-1h.73a1 1 0 0 0 1-1v-15.35a1 1 0 0 1 1-1h69.15a1 1 0 0 1 1.08 1z"/><path class="cls-2" d="M976 795.49v38.43a1 1 0 0 1-1 1h-17a1 1 0 0 1-1-1V822a1 1 0 0 1 1-1h3.24a1 1 0 0 0 1-1v-.7a1 1 0 0 0-1-1l-3.2.06a1 1 0 0 1-1.06-1v-2.47a1 1 0 0 0-1-1h-.31a1 1 0 0 1-1-1.06v-.3a1 1 0 0 1 1-1h.79a1 1 0 0 0 1-1v-15.1a1 1 0 0 1 1-1l16.51.06a1.05 1.05 0 0 1 1.03 1z"/><path class="cls-2" d="M974.67 819.52c0 .14 13 .25 29 .25s29-.11 29-.25-13-.26-29-.26-29 .12-29 .26zm0-2.33c0 .14 13 .25 29 .25s29-.11 29-.25-13-.26-29-.26-29 .07-29 .26zm-3.67-6.28c0 .14 13 .25 29 .25s29-.11 29-.25-13-.26-29-.26-29 .12-29 .26zm-.41 17.09c0 .14 13 .25 29 .25s29-.11 29-.25-13-.26-29-.26-29 .13-29 .26z"/><path class="cls-3" d="M1035 834.59v20.88a1 1 0 0 0 1 1h1.75a1 1 0 0 1 1 1v.53a1 1 0 0 1-1 1H1036a1 1 0 0 0-1 1v13.3a1 1 0 0 1-1 1h-69.68a1 1 0 0 1-1-1v-11.87a1 1 0 0 1 1-1h3.23a1 1 0 0 0 1-1v-1a1 1 0 0 0-1-1h-3.23a1 1 0 0 1-1-1v-2.49a1 1 0 0 0-1-1H962a1 1 0 0 1-1-1 1 1 0 0 1 1-1h.72a1 1 0 0 0 1-1v-15.35a1 1 0 0 1 1-1h69.15a1 1 0 0 1 1.13 1z"/><path class="cls-2" d="M982.31 834.65v38.43a1 1 0 0 1-1 1h-16.99a1 1 0 0 1-1-1v-11.91a1 1 0 0 1 1-1h3.23a1 1 0 0 0 1-1v-.69a1 1 0 0 0-1.06-1l-3.2.06a1 1 0 0 1-1.05-1v-2.47a1 1 0 0 0-1-1h-.31a1 1 0 0 1-1-1.06v-.31a1 1 0 0 1 1-1h.8a1 1 0 0 0 1-1v-15.11a1 1 0 0 1 1-1l16.51.06a1 1 0 0 1 1.07 1z"/><path class="cls-2" d="M981 858.67c0 .14 13 .26 29 .26s29-.12 29-.26-13-.25-29-.25-29 .11-29 .25zm0-2.33c0 .14 13 .26 29 .26s29-.12 29-.26-13-.25-29-.25-29 .11-29 .25zm-3.77-6.28c0 .14 13 .26 29 .26s29-.12 29-.26-13-.25-29-.25-29 .11-29 .25zm-.35 17.11c0 .14 13 .26 29 .26s29-.12 29-.26-13-.25-29-.25-29 .08-29 .25z"/><path class="cls-3" transform="rotate(-180 623.52 475.71)" d="M614.91 448.81H632.14V502.62H614.91z"/><path class="cls-3" transform="rotate(-180 597.795 481.855)" d="M589.18 461.1H606.41V502.62H589.18z"/><path class="cls-3" transform="rotate(-180 573.98 490.285)" d="M565.37 477.96H582.6V502.62H565.37z"/><path class="cls-5" d="M33.06 1036.8c0 .22 228.71.4 510.77.4s510.83-.18 510.83-.4-228.66-.39-510.83-.39-510.77.17-510.77.39z"/><path class="cls-6" d="M687.68 353.78a37.19 37.19 0 1 1 37.6-36.58 37.14 37.14 0 0 1-37.6 36.58zm.31-19.4a17.78 17.78 0 1 0-17.41-18.06A17.76 17.76 0 0 0 688 334.38z"/><path class="cls-7" d="M725.28 317.2a37.15 37.15 0 0 0-36.41-37.78l-.31 19.41a17.78 17.78 0 0 1-.57 35.55l-.31 19.4a37.14 37.14 0 0 0 37.6-36.58z"/><path class="cls-5" d="M692.19 276.44a42.29 42.29 0 0 0-43.3 42.13l22.59.36c.19-11.47 8.91-18.69 20.33-18.5z"/><path class="cls-7" d="M392.67 499.17a47.54 47.54 0 1 0 58.51-33.11 47.52 47.52 0 0 0-58.51 33.11z"/><g class="cls-8"><path class="cls-4" d="M451.18 466.06a47.53 47.53 0 0 1 33.11 58.51s-32.59-7.48-36.74-22.57 3.63-35.94 3.63-35.94z"/></g><path class="cls-9" d="M404.58 501.69a36.14 36.14 0 1 0 44.48-25.17 36.12 36.12 0 0 0-44.48 25.17z"/><path d="M404.58 501.69a36.14 36.14 0 1 0 44.48-25.17 36.12 36.12 0 0 0-44.48 25.17z" class=""/><path class="cls-7" d="M403.19 502.87A35.66 35.66 0 1 0 447.08 478a35.66 35.66 0 0 0-43.89 24.87z"/><g class="cls-10"><path class="cls-4" d="M405.18 502a35.66 35.66 0 1 0 43.89-24.83A35.66 35.66 0 0 0 405.18 502z"/></g><path class="cls-9" d="M424.48 515c-1.23 4.44 1 9.18 7.61 11.77l-1.35 4.88 3.57 1 2-.68-1.69-.5 1-3.65c4.34.92 8.87.67 11.68-.66l-.74-4.94a17.31 17.31 0 0 1-9.63.89l2.41-8.71c5.16.17 10.78 0 12.46-6 1.23-4.44-.92-9.21-7.53-11.75l1.37-4.92-2.07-.57.34-1.22-1.85.8-1.34 4.84a16.89 16.89 0 0 0-6.87.07l-.66-.55-2 1.21.11.81.48 3.55v.3a15.1 15.1 0 0 1 2.57-.77 19 19 0 0 1 5 .07h.05L437 509c-5.15-.13-10.84-.06-12.52 6zM443 501.36c3 1.34 3.84 3.27 3.3 5.18-.58 2.09-2.71 2.53-5.45 2.57zm-3.53-1.12zm-9.51 16.69c.6-2.14 2.79-2.61 5.61-2.62l-2.16 7.69c-3.05-1.34-3.98-3.2-3.47-5.07z"/><path d="M424.48 515c-1.23 4.44 1 9.18 7.61 11.77l-1.35 4.88 3.57 1 2-.68-1.69-.5 1-3.65c4.34.92 8.87.67 11.68-.66l-.74-4.94a17.31 17.31 0 0 1-9.63.89l2.41-8.71c5.16.17 10.78 0 12.46-6 1.23-4.44-.92-9.21-7.53-11.75l1.37-4.92-2.07-.57.34-1.22-1.85.8-1.34 4.84a16.89 16.89 0 0 0-6.87.07l-.66-.55-2 1.21.11.81.48 3.55v.3a15.1 15.1 0 0 1 2.57-.77 19 19 0 0 1 5 .07h.05L437 509c-5.15-.13-10.84-.06-12.52 6zM443 501.36c3 1.34 3.84 3.27 3.3 5.18-.58 2.09-2.71 2.53-5.45 2.57zm-3.53-1.12zm-9.51 16.69c.6-2.14 2.79-2.61 5.61-2.62l-2.16 7.69c-3.05-1.34-3.98-3.2-3.47-5.07z" class=""/><path class="cls-7" d="M426.28 514.2c1.68-6.05 7.38-6.11 12.54-6l2.44-8.8a18.7 18.7 0 0 0-7.71.4L433 495a19.41 19.41 0 0 1 9.58-.2l1.34-4.84 3.58 1-1.37 4.92c6.61 2.54 8.76 7.31 7.53 11.76-1.68 6.05-7.3 6.18-12.46 6l-2.41 8.71a17.4 17.4 0 0 0 9.63-.9l.74 5c-2.81 1.33-7.34 1.58-11.68.65l-1.34 4.84-3.57-1 1.33-4.94c-6.64-2.61-8.85-7.35-7.62-11.8zm21.81-8.44c.54-1.92-.34-3.85-3.3-5.19l-2.15 7.76c2.74-.04 4.87-.48 5.45-2.57zm-12.87 15.47l2.14-7.71c-2.82 0-5 .49-5.61 2.62-.52 1.86.42 3.73 3.47 5.09z"/><path class="cls-4" d="M471.54 544.18a2.66 2.66 0 0 0 .31-.29l.84-.9a18.21 18.21 0 0 0 1.28-1.47c.47-.59 1-1.24 1.58-2l.87-1.22c.31-.43.58-.9.88-1.37.63-.94 1.19-2 1.8-3.11a46.68 46.68 0 0 0 5-15.6c.15-1.26.31-2.45.34-3.57 0-.57.08-1.11.08-1.63v-1.5c0-1-.06-1.82-.11-2.58s-.11-1.4-.18-1.93-.13-.91-.17-1.22a.22.22 0 1 0-.07 0c0 .31.06.72.1 1.22s.11 1.18.13 1.93.09 1.62 0 2.57V513c0 .49-.07 1.06-.1 1.62 0 1.11-.22 2.3-.37 3.54a53.34 53.34 0 0 1-1.83 8 52.77 52.77 0 0 1-3.14 7.54c-.6 1.1-1.15 2.17-1.76 3.1-.29.48-.56 1-.85 1.38s-.58.83-.85 1.22c-.53.8-1.08 1.46-1.54 2.06s-.87 1.1-1.22 1.5l-.8.94a2.19 2.19 0 0 0-.22.28zm-21.89-33.79a2.91 2.91 0 0 0 1.29-.72 5.67 5.67 0 0 0 1.9-3 5.75 5.75 0 0 0-.32-3.55 3 3 0 0 0-.83-1.23c-.05 0 .29.49.59 1.32a5.8 5.8 0 0 1-1.5 6.3c-.65.58-1.16.83-1.13.88zm-4.08-15.49c.1 0 .35-.59.57-1.39a3.36 3.36 0 0 0 .23-1.48c-.1 0-.35.6-.57 1.39a3.36 3.36 0 0 0-.23 1.48zm.59-20.15a8 8 0 0 0 1.13.27c.37.07.82.16 1.33.29s1.1.26 1.74.46 1.34.4 2.07.67 1.51.57 2.33.9a41.4 41.4 0 0 1 5.07 2.65 41.92 41.92 0 0 1 4.6 3.4c.65.59 1.28 1.13 1.83 1.69s1.06 1.08 1.51 1.58.83.95 1.17 1.36.63.76.85 1.06a7.87 7.87 0 0 0 .73.9 7.51 7.51 0 0 0-.62-1c-.21-.32-.47-.69-.8-1.11s-.69-.9-1.15-1.4-.92-1.06-1.48-1.61-1.17-1.14-1.83-1.74a35.48 35.48 0 0 0-9.75-6.1c-.83-.32-1.61-.65-2.36-.88s-1.46-.46-2.1-.63-1.25-.3-1.77-.41-1-.19-1.34-.24a7.35 7.35 0 0 0-1.16-.11zm-25.31 79.02a4.48 4.48 0 0 0 .76.45c.49.27 1.23.62 2.16 1a34.5 34.5 0 0 0 15.46 2.62 23.83 23.83 0 0 0 2.38-.26 4.94 4.94 0 0 0 .86-.17 3.67 3.67 0 0 0-.88 0c-.56 0-1.37.1-2.37.14a39.61 39.61 0 0 1-7.81-.52 39.08 39.08 0 0 1-7.54-2.08c-.94-.37-1.69-.68-2.2-.92a3.93 3.93 0 0 0-.82-.26z"/><path class="cls-7" d="M646.6 124.11A47.54 47.54 0 1 0 705.12 91a47.55 47.55 0 0 0-58.52 33.11z"/><g class="cls-8"><path class="cls-4" d="M705.12 91a47.55 47.55 0 0 1 33.11 58.52s-32.6-7.49-36.75-22.6S705.12 91 705.12 91z"/></g><path class="cls-9" d="M658.51 126.63A36.14 36.14 0 1 0 703 101.46a36.15 36.15 0 0 0-44.49 25.17z"/><path d="M658.51 126.63A36.14 36.14 0 1 0 703 101.46a36.15 36.15 0 0 0-44.49 25.17z" class=""/><path class="cls-7" d="M657.13 127.81A35.66 35.66 0 1 0 701 103a35.65 35.65 0 0 0-43.87 24.81z"/><g class="cls-10"><path class="cls-4" d="M659.12 127A35.66 35.66 0 1 0 703 102.12 35.65 35.65 0 0 0 659.12 127z"/></g><path class="cls-9" d="M678.41 139.93c-1.23 4.44 1 9.18 7.62 11.78l-1.35 4.87 3.57 1 2-.68-1.69-.5 1-3.65c4.34.92 8.86.68 11.67-.66l-.74-4.94a17.39 17.39 0 0 1-9.63.9l2.42-8.72c5.16.17 10.78 0 12.45-6 1.24-4.44-.91-9.21-7.53-11.75l1.37-4.92-2.07-.57.34-1.21-1.84.79-1.34 4.84a16.94 16.94 0 0 0-6.88.07l-.66-.55-2 1.21.11.82.48 3.54v.3a14.73 14.73 0 0 1 2.57-.77 18.57 18.57 0 0 1 5 .08l-2.34 8.79c-5.16-.19-10.85-.12-12.53 5.93zm18.51-13.63c3 1.34 3.83 3.27 3.3 5.18-.58 2.1-2.72 2.53-5.45 2.57zm-3.54-1.12zm-9.5 16.69c.59-2.13 2.78-2.61 5.6-2.62l-2.14 7.75c-3.04-1.4-3.98-3.26-3.46-5.13z"/><path d="M678.41 139.93c-1.23 4.44 1 9.18 7.62 11.78l-1.35 4.87 3.57 1 2-.68-1.69-.5 1-3.65c4.34.92 8.86.68 11.67-.66l-.74-4.94a17.39 17.39 0 0 1-9.63.9l2.42-8.72c5.16.17 10.78 0 12.45-6 1.24-4.44-.91-9.21-7.53-11.75l1.37-4.92-2.07-.57.34-1.21-1.84.79-1.34 4.84a16.94 16.94 0 0 0-6.88.07l-.66-.55-2 1.21.11.82.48 3.54v.3a14.73 14.73 0 0 1 2.57-.77 18.57 18.57 0 0 1 5 .08l-2.34 8.79c-5.16-.19-10.85-.12-12.53 5.93zm18.51-13.63c3 1.34 3.83 3.27 3.3 5.18-.58 2.1-2.72 2.53-5.45 2.57zm-3.54-1.12zm-9.5 16.69c.59-2.13 2.78-2.61 5.6-2.62l-2.14 7.75c-3.04-1.4-3.98-3.26-3.46-5.13z" class=""/><path class="cls-7" d="M680.22 139.15c1.68-6.06 7.37-6.12 12.53-6l2.44-8.8a18.7 18.7 0 0 0-7.71.4l-.56-4.9a19.4 19.4 0 0 1 9.58-.2l1.34-4.84 3.57 1-1.41 4.96c6.62 2.53 8.77 7.3 7.54 11.75-1.68 6-7.3 6.18-12.46 6l-2.42 8.71a17.39 17.39 0 0 0 9.63-.89l.74 4.94c-2.81 1.33-7.33 1.58-11.67.66l-1.34 4.83-3.58-1 1.36-4.88c-6.61-2.56-8.8-7.3-7.58-11.74zM702 130.7c.53-1.92-.34-3.85-3.3-5.19l-2.15 7.76c2.76-.04 4.9-.48 5.45-2.57zm-12.88 15.47l2.14-7.71c-2.82 0-5 .49-5.6 2.62-.49 1.92.45 3.73 3.49 5.09z"/><path class="cls-4" d="M725.47 169.12a1.92 1.92 0 0 0 .31-.29l.84-.9c.37-.38.81-.87 1.28-1.46s1.05-1.25 1.58-2l.88-1.22c.3-.43.57-.9.88-1.37.62-.94 1.18-2 1.8-3.11a51.27 51.27 0 0 0 3.18-7.58 51.8 51.8 0 0 0 1.82-8c.14-1.25.3-2.45.34-3.57 0-.56.07-1.11.08-1.63s0-1 0-1.5c0-1-.06-1.82-.1-2.58s-.11-1.4-.19-1.93-.12-.9-.16-1.22a2.39 2.39 0 0 0-.09-.42 2 2 0 0 0 0 .43c0 .32.06.72.1 1.22a19.17 19.17 0 0 1 .13 1.94c0 .75.09 1.61.05 2.56v1.49c0 .49-.06 1.06-.1 1.62-.05 1.12-.22 2.3-.37 3.55a48.86 48.86 0 0 1-5 15.49c-.6 1.11-1.15 2.17-1.76 3.11-.3.47-.57.94-.86 1.37l-.85 1.22c-.52.8-1.08 1.46-1.53 2.06s-.88 1.1-1.23 1.5l-.79.94a2.62 2.62 0 0 0-.24.28zm-21.88-33.79a2.83 2.83 0 0 0 1.29-.72 5.6 5.6 0 0 0 1.57-6.58 3.16 3.16 0 0 0-.82-1.23s.29.49.59 1.32a6.06 6.06 0 0 1 .21 3.38 6 6 0 0 1-1.72 2.92c-.64.58-1.15.86-1.12.91zm-4.08-15.49a3.27 3.27 0 0 0 .57-1.38c.21-.8.32-1.46.22-1.48a3.27 3.27 0 0 0-.57 1.38 3.11 3.11 0 0 0-.22 1.48zm.59-20.15a6.26 6.26 0 0 0 1.13.27c.37.07.81.16 1.32.3s1.11.25 1.74.45 1.34.4 2.08.67 1.51.57 2.32.91a36.59 36.59 0 0 1 9.67 6c.66.59 1.29 1.13 1.83 1.7s1.06 1.07 1.51 1.57.83 1 1.17 1.36.63.76.85 1.06a7.31 7.31 0 0 0 .74.9 8.62 8.62 0 0 0-.63-1 13.22 13.22 0 0 0-.8-1.1c-.33-.42-.69-.91-1.14-1.41s-.93-1.06-1.49-1.61-1.17-1.14-1.82-1.74a35.34 35.34 0 0 0-9.76-6.1c-.83-.32-1.6-.64-2.36-.88s-1.45-.46-2.1-.63-1.24-.29-1.76-.41-1-.19-1.35-.24a7.42 7.42 0 0 0-1.15-.07zm-25.31 79.02a4.6 4.6 0 0 0 .75.45c.5.27 1.24.62 2.17 1a34.43 34.43 0 0 0 15.45 2.62c1-.07 1.83-.16 2.38-.25a3.4 3.4 0 0 0 .86-.18 4.39 4.39 0 0 0-.87 0c-.56.05-1.37.1-2.38.14a39.66 39.66 0 0 1-7.81-.52 39.08 39.08 0 0 1-7.54-1.97c-.93-.37-1.69-.68-2.2-.92a5 5 0 0 0-.81-.37z"/><path class="cls-7" transform="rotate(-180 559.1 928.38)" d="M509.11 820.73H609.1V1036.02H509.11z"/><path transform="rotate(-180 524.605 928.38)" class="" d="M509.11 820.73H540.1V1036.02H509.11z"/><path class="cls-5" d="M540.1 1036c.24 0 .43-47.66.43-106.43s-.19-106.44-.43-106.44-.42 47.65-.42 106.44.19 106.43.42 106.43z"/><path class="cls-7" transform="rotate(-180 681.13 890.425)" d="M631.14 744.83H731.13V1036.03H631.14z"/><path transform="rotate(-180 646.635 890.425)" class="" d="M631.14 744.83H662.13V1036.03H631.14z"/><path class="cls-5" d="M662.13 1036c.24 0 .42-64.46.42-143.95s-.18-144-.42-144-.42 64.44-.42 144 .19 143.95.42 143.95z"/><path class="cls-7" transform="rotate(-180 435.74 959.715)" d="M385.75 883.41H485.74V1036.03H385.75z"/><path transform="rotate(-180 401.245 959.715)" class="" d="M385.75 883.41H416.74V1036.03H385.75z"/><path class="cls-5" d="M416.74 1036c.24 0 .43-33.79.43-75.45s-.19-75.45-.43-75.45-.42 33.77-.42 75.45.19 75.45.42 75.45z"/><path class="cls-7" transform="rotate(-180 315.05 994.385)" d="M265.05 952.75H365.04V1036.03H265.05z"/><path transform="rotate(-180 280.55 994.385)" class="" d="M265.05 952.75H296.04V1036.03H265.05z"/><path class="cls-5" d="M296.05 1036c.23 0 .42-18.44.42-41.17s-.19-41.17-.42-41.17-.42 18.43-.42 41.17.18 41.17.42 41.17z"/><path class="cls-7" transform="rotate(-180 193.02 1008.795)" d="M143.03 981.56H243.01999999999998V1036.02H143.03z"/><path transform="rotate(-180 158.525 1008.795)" class="" d="M143.03 981.56H174.02V1036.02H143.03z"/><path class="cls-5" d="M174 1036c.24 0 .43-12.06.43-26.93s-.19-26.92-.43-26.92-.42 12.05-.42 26.92.21 26.93.42 26.93z"/><path class="cls-7" transform="rotate(-180 803.155 842.535)" d="M753.16 649.1H853.15V1035.97H753.16z"/><path transform="rotate(-180 768.66 842.535)" class="" d="M753.16 649.1H784.15V1035.97H753.16z"/><path class="cls-5" d="M784.16 1037.54c.23 0 .42-86 .42-192s-.19-192-.42-192-.43 86-.43 192 .19 192 .43 192z"/><path class="cls-7" transform="rotate(-180 925.185 804.06)" d="M875.19 570.58H975.1800000000001V1037.54H875.19z"/><path transform="rotate(-180 890.69 804.06)" class="" d="M875.19 570.58H906.1800000000001V1037.54H875.19z"/><path class="cls-5" d="M906.19 1037.54c.23 0 .42-103.36.42-230.83s-.19-230.86-.42-230.86-.43 103.34-.43 230.86.24 230.83.43 230.83z"/><circle class="cls-7" cx="929.68" cy="202.35" r="72.02" transform="rotate(-45 929.683 202.343)"/><circle cx="929.68" cy="202.35" r="72.02" transform="rotate(-45 929.683 202.343)" class=""/><circle class="cls-7" cx="929.68" cy="194.39" r="72.02" transform="rotate(-45 929.68 194.394)"/><circle class="cls-4" cx="929.68" cy="194.39" r="48.24"/><circle class="cls-7" cx="929.68" cy="194.39" r="23.61" transform="rotate(-45 929.68 194.394)"/><path class="cls-6" d="M871.77 133.41L873.73 118.04 858.09 101.3 856.97 117.89 871.77 133.41z"/><path class="cls-6" d="M838.2 121.18L854.07 119.89 869.98 135.19 854.07 136.89 838.2 121.18z"/><path d="M926.53 194.05L871.45 152a66.85 66.85 0 0 1 6.9-8.41l48.18 46.71z" class=""/><path class="cls-5" d="M855.53 113.77l25.26 25.6L920.88 180l9.21 9.34c2.92 3-1.64 7.52-4.56 4.56l-25.27-25.6-40.08-40.61-9.18-9.36c-2.92-3 1.64-7.52 4.56-4.56zm74.15-9.77c.25 0 .45-13.78.45-30.78s-.2-30.78-.45-30.78-.45 13.78-.45 30.78.2 30.78.45 30.78zm-46.51-32.1c-.2.15 4.73 7.06 11 15.43s11.52 15 11.71 14.9-4.72-7.06-11-15.43-11.51-15.05-11.71-14.9zm93.58-1.42c-.22-.12-4.49 7.21-9.54 16.37s-9 16.68-8.76 16.8 4.49-7.21 9.54-16.37 9.01-16.68 8.76-16.8z"/><path class="cls-4" d="M143.07 156l-8-.93a25.69 25.69 0 1 1 5.18-7.61z"/><path class="cls-5" d="M143.07 156s0-.18-.16-.54-.28-.92-.5-1.62c-.47-1.48-1.15-3.63-2-6.43l-.06-.2-.14.17.2.12a25.83 25.83 0 0 0-4.9-28.35 25.86 25.86 0 0 0-43.08 26.39 25.36 25.36 0 0 0 5.91 9.53 25.87 25.87 0 0 0 26 6.67 25.52 25.52 0 0 0 10.82-6.61h-.09l6 .63 1.52.16h.49s-.19 0-.54-.08l-1.54-.21-5.89-.75H135a25.5 25.5 0 0 1-36.37-.24 24.9 24.9 0 0 1-5.78-9.36 25.93 25.93 0 0 1-1.17-11.63 25.41 25.41 0 0 1 43.46-14.29 25.63 25.63 0 0 1 5.06 7.62 25.2 25.2 0 0 1 2 7.88 25.54 25.54 0 0 1-2.06 12.44l-.33.78.53-.66h-.2c.93 2.74 1.65 4.85 2.14 6.31.24.7.43 1.25.57 1.64s.22.63.22.63z"/><path class="cls-7" d="M129.44 138.01L126.29 134.63 119.79 140.01 107.82 127.68 104.67 130.85 120.04 146.34 129.44 138.01z"/><path class="cls-5" d="M303.91 125.56c-.65-10.62-1.25-21.3-.07-31.87s4.24-21.13 10.32-29.86c.92-1.32 8.09-9.94 9.61-9.39 1.08.4-4.14 8.82-3.83 9.93 3 10.59 1.58 22-2 32.43a143.85 143.85 0 0 1-14 28.76"/><path class="cls-12" d="M290.57 179L313 86c5.83-26 25.84-44.35 51.7-37.8l2.36.74a47.71 47.71 0 0 1 32.12 56.15c-5.17 22.54-11.18 47.38-15.05 59.13-8 24.31-33.64 20.39-33.64 20.39s-3.89 13.76-5.84 21l-18.11 9.27z"/><path class="cls-13" d="M350.53 184.6s-15.67-4-28.81-19.44c0 0 1.84 20.77 26.89 26.27z"/><path class="cls-5" d="M382.24 122.61a3.66 3.66 0 0 1-4.47 2.46 3.5 3.5 0 0 1-2.6-4.28 3.66 3.66 0 0 1 4.47-2.46 3.49 3.49 0 0 1 2.6 4.28zm8.38-8.39c-.57.32-2.6-2.47-6.35-3.64s-7.1-.17-7.36-.76c-.13-.27.57-.95 2-1.44a10 10 0 0 1 6.07 0 9.67 9.67 0 0 1 4.88 3.47c.91 1.29 1.04 2.24.76 2.37zm-42.43-.85a3.67 3.67 0 0 1-4.48 2.46 3.5 3.5 0 0 1-2.6-4.28 3.66 3.66 0 0 1 4.47-2.46 3.5 3.5 0 0 1 2.61 4.28zm5.39-9.9c-.58.32-2.61-2.47-6.36-3.65s-7.1-.17-7.36-.76c-.13-.26.56-.94 2-1.44a10.08 10.08 0 0 1 6.07 0 9.62 9.62 0 0 1 4.88 3.47c.91 1.3 1.04 2.24.77 2.38zm4.34 33.08c.05-.22 2.51.11 6.44.83 1 .2 2 .3 2.32-.31s.37-1.78.26-3q-.26-3.9-.52-8.19c-.66-11.63-.8-21.07-.34-21.09s1.38 9.39 2 21c.14 2.86.27 5.58.4 8.19 0 1.2.25 2.64-.69 3.92a2.55 2.55 0 0 1-2 .9 7 7 0 0 1-1.7-.29c-3.86-1.01-6.22-1.74-6.17-1.96zm.58-44.43c-.81.79-4.14-1.36-8.54-2.86s-8.31-2-8.45-3.11c0-.53 1-1.15 2.78-1.44a15.1 15.1 0 0 1 7 .78 14.92 14.92 0 0 1 5.94 3.77c1.23 1.35 1.64 2.47 1.27 2.86zm35.78 11.13c-1 .62-3.84-1.19-7.52-2.34s-7-1.46-7.43-2.58c-.19-.52.56-1.23 2.17-1.64a12.5 12.5 0 0 1 6.55.44 12.25 12.25 0 0 1 5.5 3.52c1.04 1.27 1.2 2.28.73 2.6z"/><path class="cls-13" d="M309.32 104.7c-.36-.31-15.2-10.26-19.95 6.6s13.16 18.14 13.33 17.7 6.62-24.3 6.62-24.3z"/><path class="cls-14" d="M299.35 121.13c-.06-.08-.36.12-.92.21a3.08 3.08 0 0 1-2.2-.57c-1.6-1.16-2.31-4.41-1.53-7.47a10.05 10.05 0 0 1 2-4 3.54 3.54 0 0 1 2.85-1.64 1.55 1.55 0 0 1 1.5 1.3c.1.53-.11.84 0 .89s.44-.18.5-.91a2 2 0 0 0-.37-1.25 2.31 2.31 0 0 0-1.5-.88 4.29 4.29 0 0 0-3.81 1.75 10.38 10.38 0 0 0-2.34 4.41c-.84 3.43 0 7.1 2.24 8.49a3.29 3.29 0 0 0 2.81.31c.62-.24.82-.6.77-.64z"/><path class="cls-5" d="M395.9 74.12c3.14-.77-2.66-11.86-8.55-16.73-8.9-7.39-23.64-14.39-33.73-14.32-12.15.14-23 3.2-31.49 11.92S308.3 75.1 305.44 86.9c-.87 3.6-1.51 7.43-.42 11 1.34 4.38 5.23 8 3.63 13.07a7.37 7.37 0 0 0 .35 5.63c2.2 4.13 6.82 2.07 9.41-.56 5.51-5.61 8.07-13.4 10.46-20.89 1.7-5.33 3.41-10.77 3.3-16.36-.06-3-.67-6.07-.56-9.11s1.08-6.26 3.49-8.11a10.49 10.49 0 0 1 1.75-1A18.25 18.25 0 0 1 355.24 62c8.6 6 23.49 15.4 28.61 13.33 7.37-3 9.65-5.62 9.65-5.62zm-50.53 61.55c.59.12-.44 4 2.15 7.65s6.84 4.32 6.73 4.87c0 .26-1.13.51-2.89.09a10 10 0 0 1-5.67-3.85 8.72 8.72 0 0 1-1.56-6.35c.29-1.66.98-2.51 1.24-2.41z"/><path class="cls-7" d="M368.48 799.73l-19.73 50.82s45 37.12 42.3 46.86l-99.9-34.7 27.48-80.45z"/><path d="M369 799.2L349.25 850s45 37.12 42.29 46.87l-99.9-34.71 27.48-80.44z" class=""/><path class="cls-5" d="M288.27 864.82l6-10.11 94.6 36.29s4.05 7.94 2.46 10.9z"/><path class="cls-7" d="M198.85 878.12l-25.39 48.23s40.51 42 36.69 51.38l-95.3-45.86 36.47-76.79z"/><path d="M199.34 877.58L174 925.82s40.5 42 36.68 51.37l-95.3-45.86 36.47-76.78z" class=""/><path class="cls-5" d="M111.39 934.58l7.43-10.31 89.89 46.82s4.67 10 2.75 12.72z"/><path class="cls-1" d="M351.15 202.27L352.73 296.89 288.22 172.97 289.17 161.19 351.15 202.27z"/><path class="cls-5" d="M324.9 486.5c2.19.61 130.19 118.88 128.44 141.24s-81.45 191-81.45 191l-63.55-27.85 51.8-147-1.14-8.95-73.91-55.18-.43-94.1z"/><path class="cls-5" d="M299.61 512.09c-1.32 2.22-13.74 197.67-19 208s-82.87 180.2-82.87 180.2l-64.36-22.62 68.93-186-16.6-172.31 2.56-49 96.33 15.26z"/><path class="cls-6" d="M281.6 716.61a12.94 12.94 0 0 0 .32-2c.17-1.42.39-3.3.67-5.66.53-5.06 1.28-12.14 2.2-20.83 1.74-17.73 4.11-42 6.74-68.77 2.47-26.81 4.71-51.08 6.35-68.82.74-8.7 1.34-15.79 1.77-20.87q.25-3.54.41-5.68a10.36 10.36 0 0 0 .05-2 10.36 10.36 0 0 0-.32 2q-.26 2.13-.67 5.65c-.53 5.07-1.28 12.15-2.2 20.83-1.74 17.73-4.12 42-6.74 68.79s-4.71 51.07-6.35 68.8c-.74 8.71-1.34 15.8-1.77 20.88q-.26 3.54-.41 5.68a10.36 10.36 0 0 0-.05 2zM203.69 686c-.36.12 1.6 7 4.37 15.25s5.31 14.94 5.66 14.82-1.6-7-4.37-15.25-5.3-14.89-5.66-14.82zm-7.57 44.52c.13.09 1.54-1.69 3.23-4.95a47.3 47.3 0 0 0 4.65-27.88c-.54-3.63-1.3-5.77-1.45-5.73-.46 0 1.8 8.94-.08 19.8s-6.76 18.57-6.35 18.76zM379.58 622c-.14-.32-5.16 2-9.92 6.83s-7.16 9.76-6.84 9.9 3.16-4.35 7.8-8.94 9.17-7.44 8.96-7.79zm-9.85-5.32c-.26-.24-3.26 2.66-5.72 7.11s-3.38 8.52-3 8.61 1.82-3.65 4.23-7.94 4.76-7.52 4.49-7.78z"/><path class="cls-7" d="M348.46 333.35l-12.14 78.33-7.84 108.91s-52.83-5-75.53-11c-26.32-7-83.11-11.49-83.11-11.49l9.95 9c-20.46-4.75-34.2-23.45-34.2-23.45C179 449.74 205.66 382 205.66 382l20.55-132.67s3.18-18.73 5.23-27.09 41.06-36.77 46.49-40.39l3.42-1.81.64-10.59 4-2.67 45.3 37.57a47.18 47.18 0 0 1 16.48 28.86 341.13 341.13 0 0 1 4.13 49.38c.21 15.41-3.44 50.76-3.44 50.76z"/><path class="cls-7" d="M312.52 200.21s23.54 11.29 28 21.57-2.21 125.49-2.21 125.49l82.62-2.18 2.48 49.18s-130.66 16.29-136.08 9.43c-7.34-9.28-19.4-98.52-19.4-98.52L262 240.84s5.42-49.52 50.52-40.63z"/><path d="M336.32 411.68c-10.95 4.1-21.23 5.14-32.9 4.58s-23.8-6.38-28.68-17c-3.74-8.13-2.76-17.53-3.67-26.44-.8-7.73-3.06-15.23-4.58-22.86s1.83-21.92 4-29.38c0 0 5.35 53.1 14.68 75.07 1.27 3 2.85 6 5.47 7.93 3.06 2.24 7.15 2.27 10.93 2.49 10.58.62 35.91-2.35 35.91-2.35" class=""/><path class="cls-5" d="M262.5 247.8a6.06 6.06 0 0 0 .05 1.17c.07.83.16 2 .28 3.42.29 3.07.7 7.48 1.23 13.14s1.24 12.7 2 20.78 1.55 17.35 3 27.5 2.94 21.27 4.78 33.19 3.87 24.64 6.75 37.91a82.82 82.82 0 0 0 2.72 10 19.8 19.8 0 0 0 6.36 8.65 15.06 15.06 0 0 0 10.43 3.2c3.65-.08 7.29-.34 11-.55 14.72-1 29.92-2.47 45.48-4 23.37-2.35 45.89-4.84 66.93-7.27l.6-.07v-.61c-.89-17.47-1.74-33.92-2.51-49.1v-.57h-.57l-79.76 1.88-22.31.62-5.87.21c-1.33.06-2 .13-2 .13s.68.05 2 .05h5.88l22.32-.3 79.77-1.4-.6-.55c.74 15.18 1.54 31.64 2.38 49.11l.58-.68c-21 2.39-43.56 4.85-66.92 7.2-15.55 1.55-30.74 3-45.43 4.05-3.67.21-7.32.48-10.9.56a13.76 13.76 0 0 1-9.64-2.92 18.51 18.51 0 0 1-5.95-8.08 83.38 83.38 0 0 1-2.69-9.82c-2.9-13.2-4.94-25.91-6.85-37.8s-3.5-23-4.91-33.14-2.27-19.37-3.2-27.46-1.64-15-2.26-20.75-1.14-10.05-1.48-13.11c-.18-1.45-.32-2.58-.43-3.41a8.11 8.11 0 0 0-.26-1.18z"/><path class="cls-5" d="M407.17 394.28c.38 0 .14-10.71-.52-23.88s-1.51-23.83-1.88-23.81-.14 10.71.52 23.88 1.51 23.83 1.88 23.81zm6.94-40.63c.15-.09-.71-1-2.26-.38a2.53 2.53 0 0 0-1.57 2.26 3 3 0 0 0 1.81 2.87 3.09 3.09 0 0 0 3.29-.76 2.78 2.78 0 0 0 .69-2.64c-.44-1.54-1.54-1.82-1.57-1.66s.55.7.62 1.82a1.88 1.88 0 0 1-.61 1.58 2 2 0 0 1-1.91.4 1.89 1.89 0 0 1-1.07-1.6 1.6 1.6 0 0 1 .77-1.42c.92-.61 1.7-.29 1.81-.47z"/><path class="cls-7" d="M226.35 260.57s-40.41 58.1-45 73.64.5 37.33 9.72 47.44 16.08 5.52 16.08 5.52z"/><path class="cls-5" d="M208.53 382.6c-.05.37 4.82 1.29 10.87 2s11 1.07 11 .7-4.82-1.3-10.88-2.05-10.95-1.03-10.99-.65zm-6.39 41.77a14.24 14.24 0 0 0-1 3c-.57 2-1.43 4.8-2.55 8.27a240.5 240.5 0 0 1-10.39 26.56 272.47 272.47 0 0 1-13.32 25.21c-1.87 3.14-3.41 5.66-4.49 7.4a14.89 14.89 0 0 0-1.56 2.78 13.38 13.38 0 0 0 2-2.49c1.22-1.64 2.89-4.1 4.87-7.18a211.62 211.62 0 0 0 13.74-25.15 191.41 191.41 0 0 0 10-26.83c1-3.53 1.73-6.41 2.14-8.42a14.55 14.55 0 0 0 .56-3.15z"/><path d="M199.52 431.16c-6.26 12.44-12.69 25.12-22.65 34.86-3.51 3.44-7.47 6.53-10.08 10.69s-3.56 9.87-.72 13.89c1 1.41 2.71 2.59 4.38 2.12a5.55 5.55 0 0 0 2.7-2.4 167.46 167.46 0 0 0 26-57.29m4.07-45.89c-6.08-4-8.5-11.9-7.95-19.13s3.53-14 6.21-20.74A337 337 0 0 0 219.63 285l3.49-15.77-16.22 112.08z" class=""/><path class="cls-5" d="M301.11 195.73c.23-.33-3.78-3.43-8.36-7.64s-8.06-7.9-8.36-7.65 2.76 4.39 7.44 8.65 9.09 6.91 9.28 6.64zm4.77 9.32c-.05.23 2.53.88 6.41 2.59a49.84 49.84 0 0 1 23.84 22c2 3.74 2.86 6.26 3.09 6.18s-.05-.68-.38-1.84a30.69 30.69 0 0 0-1.85-4.78 44.94 44.94 0 0 0-24.33-22.5 32 32 0 0 0-4.91-1.46c-1.18-.24-1.84-.24-1.87-.19zM199 398.52a4.74 4.74 0 0 0 .62-1.1c.42-.89.94-2 1.58-3.3l5.63-12.38v-.07c2.12-12.43 5.11-30.55 8.34-50.7 3-19 5.65-36.16 7.63-48.84.89-6.11 1.62-11.13 2.15-14.82.21-1.63.38-3 .52-4a5.16 5.16 0 0 0 .09-1.43 6.18 6.18 0 0 0-.36 1.39c-.2 1.06-.46 2.38-.77 4-.64 3.67-1.52 8.67-2.58 14.75-2.08 12.66-4.9 29.82-8 48.78-3.23 20.15-6 38.3-7.91 50.77v-.11c-2.18 5.19-3.95 9.42-5.25 12.54-.55 1.36-1 2.48-1.35 3.39a4.69 4.69 0 0 0-.34 1.13zm140.73-51.36a23.58 23.58 0 0 0 .44-4.09c.19-2.89.43-6.66.71-11.2.54-9.46 1.19-22.53 1.82-37s1.14-27.52 1.43-37l.27-11.22a23.93 23.93 0 0 0-.08-4.11 22.85 22.85 0 0 0-.45 4.1c-.18 2.88-.42 6.65-.71 11.2-.53 9.46-1.18 22.53-1.82 37s-1.13 27.51-1.42 37l-.27 11.22a24 24 0 0 0 .08 4.1z"/><path class="cls-12" d="M420.16 350.89s17.19-14.31 21.5-15.32c3.3-.77 23.18-1.34 32.33-1.56a6.55 6.55 0 0 1 6.85 6.05 4.45 4.45 0 0 1 0 .65 6 6 0 0 1-4.14 4.71 6.93 6.93 0 0 1 5.11 6.3c.31 5.16-5.89 6.53-5.89 6.53a7.48 7.48 0 0 1 .93.75 6.16 6.16 0 0 1-2.56 10.47l-2.78.76s3.88 1.42 4 5c.21 6.8-15 8.79-15 8.79s-37.47 7.68-38.3 7.44-2.05-40.57-2.05-40.57z"/><path class="cls-12" d="M470.12 326.14c-.07 2.24-.38 7-4.09 9.36l-21.07.13s15.42-6.12 17.53-8.89a17.76 17.76 0 0 1 2.87-3.07 3 3 0 0 1 4.76 2.47z"/><path class="cls-13" d="M454.85 335c0 .37 4.32.59 9.63.25s9.56-.73 9.56-1.11-4.33-.59-9.64-.25-9.56.7-9.55 1.11zm5.25 11.5c0 .37 3.72.85 8.33.47s8.23-1.44 8.15-1.8-3.74.09-8.26.45-8.2.5-8.22.88zm-10.77-1.01c-.3.21.15 1.33 1.38 2s2.42.57 2.45.2-.81-.8-1.77-1.37-1.75-1.06-2.06-.83zm9.06 14.44c0 .38 4.11.37 9.08 0s9-1 9-1.39-4.07-.36-9.08 0-9.05 1.02-9 1.39zm-12.28-5.08c-.17 0-.47.4-.54 1.23a4.32 4.32 0 0 0 1.05 3 4.28 4.28 0 0 0 2.84 1.48c.84.06 1.31-.18 1.3-.36 0-.37-1.84-.52-3.11-2s-1.17-3.28-1.54-3.35zm9.69 18.28c.06.37 3.72.06 8.16-.7s8-1.67 7.94-2-3.72-.06-8.16.7-8 1.63-7.94 2zM443.76 367c-.17 0-.41.46-.35 1.27a5.09 5.09 0 0 0 1.26 2.81c1.62 1.79 3.38 2.39 3.56 2.13s-1.19-1.51-2.53-3-1.58-3.14-1.94-3.21z"/><path d="M187 509c-7.46-.22-14.63-3.66-18.68-8.94-.46-.6-.87-1.43-.33-2a2.34 2.34 0 0 1 1.57-.48A57.31 57.31 0 0 1 187 499.3c.63.17 1.34.4 1.59.92a1.74 1.74 0 0 1 0 1.21l-1.89 7.37"/><path d="M187 509c-7.46-.22-14.63-3.66-18.68-8.94-.46-.6-.87-1.43-.33-2a2.34 2.34 0 0 1 1.57-.48A57.31 57.31 0 0 1 187 499.3c.63.17 1.34.4 1.59.92a1.74 1.74 0 0 1 0 1.21l-1.89 7.37" class=""/><path class="cls-1" d="M351.15 202.27s10 28.68 7.51 27.14-7.84-5.9-7.84-5.9z"/><path class="cls-5" d="M351.26 215.7l5.24 11.1a15.75 15.75 0 0 1 1.09 3.62c.53 3.15 1.25 8.94-.62 9.43-2.59.68-5.16-1.86-5.16-1.86z"/><path class="cls-5" d="M204.48 224.12S250 204 276.36 218.75s32.19 40.06 47.46 39.37c29.79-1.35 27.89-22.32 27.89-22.32l6.42 1.63c.32 4.3 8.49 34.87-22.73 40.11s-46.34-37-74.59-35.72-49 17.52-49 17.52L191 247.42z"/><path class="cls-7" d="M326 276a43.55 43.55 0 0 1-18.79-19.69c-7.95-16.28-24.25-34.54-37.37-38.72s-43.11-6.16-63.11 8.21l-12.4 18.43L212 254.61a159.73 159.73 0 0 1 29.66-13.45c21-6.91 34.28-.78 47.2 10.38.8.7 1.54 1.39 2.19 2.06a142 142 0 0 0 20.39 16.47c6.21 4.05 11.8 6.14 14.56 5.93z"/><path class="cls-1" d="M360.3 808.93a9.88 9.88 0 1 1-10.3-9.42 9.87 9.87 0 0 1 10.3 9.42z"/></svg>