<svg id="Layer_1" data-name="Layer 1" xmlns="http://www.w3.org/2000/svg" viewBox="0 0 1080 1080"><defs><style>.cls-1{fill:#fbb626}.cls-2{opacity:.1}.cls-3{fill:#fff}.cls-4{fill:#ff735d}.cls-5{opacity:.2}.cls-6{opacity:.3}.cls-7{fill:#ec93eb}.cls-8{fill:none}.cls-9{fill:#1a2e35}.cls-10{fill:#375a64}.cls-11{fill:#fcc7b9}.cls-12{fill:#e1e1e1}.cls-13{fill:#ae4f32}.cls-14{fill:#4b332c}.cls-15{fill:#c15530}.cls-16{fill:#faf2e1}.cls-17{fill:#ececec}</style></defs><path class="cls-1" d="M843.8 115.78a32 32 0 1 0 39.37-22.28 32 32 0 0 0-39.37 22.28z"/><g class="cls-2"><path class="cls-3" d="M883.17 93.5a32 32 0 0 1 22.27 39.37s-21.93-5-24.72-15.2 2.45-24.17 2.45-24.17z"/></g><path class="cls-4" d="M851.82 117.47a24.31 24.31 0 1 0 29.92-16.93 24.31 24.31 0 0 0-29.92 16.93z"/><path d="M851.82 117.47a24.31 24.31 0 1 0 29.92-16.93 24.31 24.31 0 0 0-29.92 16.93z" class=""/><path class="cls-1" d="M850.89 118.27a24 24 0 1 0 29.52-16.71 24 24 0 0 0-29.52 16.71z"/><g class="cls-5"><path class="cls-3" d="M852.23 117.69A24 24 0 1 0 881.75 101a24 24 0 0 0-29.52 16.69z"/></g><path class="cls-4" d="M865.2 126.42c-.83 3 .66 6.18 5.13 7.92l-.91 3.28 2.4.67 1.36-.46-1.14-.34.68-2.46a13.27 13.27 0 0 0 7.85-.44l-.49-3.32a11.76 11.76 0 0 1-6.48.6l1.62-5.86c3.47.11 7.25 0 8.38-4.05.83-3-.61-6.2-5.06-7.9l.91-3.31-1.38-.39.22-.81-1.24.53-.9 3.25a11.45 11.45 0 0 0-4.63 0l-.44-.37-1.36.82.07.55.33 2.38v.2a10.32 10.32 0 0 1 1.73-.52 13 13 0 0 1 3.37 0l-1.64 5.92c-3.42-.01-7.25.04-8.38 4.11zm12.45-9.17c2 .9 2.58 2.2 2.22 3.49s-1.83 1.7-3.66 1.73zm-2.38-.75zm-6.39 11.22c.4-1.43 1.87-1.75 3.77-1.76l-1.44 5.19c-2.05-.92-2.68-2.15-2.33-3.43z"/><path d="M865.2 126.42c-.83 3 .66 6.18 5.13 7.92l-.91 3.28 2.4.67 1.36-.46-1.14-.34.68-2.46a13.27 13.27 0 0 0 7.85-.44l-.49-3.32a11.76 11.76 0 0 1-6.48.6l1.62-5.86c3.47.11 7.25 0 8.38-4.05.83-3-.61-6.2-5.06-7.9l.91-3.31-1.38-.39.22-.81-1.24.53-.9 3.25a11.45 11.45 0 0 0-4.63 0l-.44-.37-1.36.82.07.55.33 2.38v.2a10.32 10.32 0 0 1 1.73-.52 13 13 0 0 1 3.37 0l-1.64 5.92c-3.42-.01-7.25.04-8.38 4.11zm12.45-9.17c2 .9 2.58 2.2 2.22 3.49s-1.83 1.7-3.66 1.73zm-2.38-.75zm-6.39 11.22c.4-1.43 1.87-1.75 3.77-1.76l-1.44 5.19c-2.05-.92-2.68-2.15-2.33-3.43z" class=""/><path class="cls-1" d="M866.42 125.89c1.13-4.07 5-4.11 8.43-4l1.64-5.92a12.65 12.65 0 0 0-5.19.26l-.38-3.29a13.07 13.07 0 0 1 6.45-.14l.9-3.25 2.4.67-.92 3.31c4.45 1.7 5.9 4.91 5.07 7.9-1.13 4.07-4.91 4.16-8.38 4l-1.62 5.86a11.71 11.71 0 0 0 6.47-.6l.5 3.33a13.36 13.36 0 0 1-7.85.44l-.9 3.25-2.41-.67.91-3.28c-4.47-1.69-5.95-4.88-5.12-7.87zm14.67-5.68c.36-1.29-.23-2.59-2.22-3.49l-1.45 5.22c1.84-.03 3.28-.33 3.67-1.73zm-8.66 10.41l1.44-5.19c-1.9 0-3.38.33-3.77 1.76-.35 1.26.28 2.51 2.33 3.43z"/><path class="cls-3" d="M896.86 146.06l.21-.2c.14-.16.33-.36.56-.6a12.25 12.25 0 0 0 .86-1c.32-.4.71-.84 1.07-1.37.19-.26.38-.54.59-.82s.38-.61.59-.92c.42-.63.8-1.35 1.21-2.09a31.64 31.64 0 0 0 3.36-10.5c.1-.84.2-1.64.23-2.4 0-.38.05-.74.05-1.09v-1c0-.65 0-1.23-.07-1.74a10.33 10.33 0 0 0-.13-1.3l-.11-.82v-.28a1.07 1.07 0 0 0 0 .29c0 .21 0 .48.07.82s.08.79.09 1.3.06 1.09 0 1.73v1c0 .35 0 .71-.07 1.09 0 .75-.15 1.54-.25 2.38a32.81 32.81 0 0 1-3.37 10.46c-.4.74-.77 1.45-1.18 2.08-.2.32-.38.64-.58.92l-.57.83c-.35.54-.72 1-1 1.38a11.57 11.57 0 0 1-.83 1c-.21.26-.39.47-.53.63s-.21.21-.2.22zm-14.72-22.73a2.18 2.18 0 0 0 .87-.49 3.75 3.75 0 0 0 1-4.42 1.88 1.88 0 0 0-.55-.83s.2.33.4.89a4.06 4.06 0 0 1 .14 2.27 4 4 0 0 1-1.16 2c-.38.37-.72.54-.7.58zm-2.75-10.42c.07 0 .24-.4.39-.94a2.34 2.34 0 0 0 .15-1c-.07 0-.24.4-.38.93a2.3 2.3 0 0 0-.16 1.01zm.4-13.56a4.5 4.5 0 0 0 .76.18c.25 0 .55.11.89.2s.74.17 1.17.31.9.26 1.4.45 1 .38 1.56.61a26.07 26.07 0 0 1 3.41 1.78 29.67 29.67 0 0 1 3.1 2.28c.44.4.86.77 1.23 1.14s.71.73 1 1.06.56.65.79.92.42.51.57.71a4.51 4.51 0 0 0 .5.61 5.3 5.3 0 0 0-.42-.66c-.14-.21-.32-.47-.54-.75s-.47-.61-.77-.94-.62-.71-1-1.09-.79-.76-1.23-1.16a24.66 24.66 0 0 0-3.11-2.32 26 26 0 0 0-3.45-1.79c-.56-.21-1.08-.43-1.59-.59s-1-.31-1.41-.42-.84-.2-1.19-.28a8.72 8.72 0 0 0-.9-.16 7.11 7.11 0 0 0-.77-.09zm-17.02 53.15a2.56 2.56 0 0 0 .5.31 17 17 0 0 0 1.46.68 22.86 22.86 0 0 0 5.1 1.48 22.58 22.58 0 0 0 5.3.28 13.77 13.77 0 0 0 1.6-.17 4.55 4.55 0 0 0 .58-.11 2.44 2.44 0 0 0-.59 0c-.38 0-.93.07-1.6.1a26.07 26.07 0 0 1-10.33-1.75c-.63-.25-1.13-.46-1.48-.62a4.38 4.38 0 0 0-.54-.2z"/><path class="cls-1" d="M760.67 96.88A32 32 0 1 0 800 74.6a32 32 0 0 0-39.33 22.28z"/><g class="cls-2"><path class="cls-3" d="M800 74.6a32 32 0 0 1 22.3 39.4s-21.92-5-24.71-15.2S800 74.6 800 74.6z"/></g><path class="cls-4" d="M768.68 98.57a24.31 24.31 0 1 0 29.93-16.93 24.32 24.32 0 0 0-29.93 16.93z"/><path d="M768.68 98.57a24.31 24.31 0 1 0 29.93-16.93 24.32 24.32 0 0 0-29.93 16.93z" class=""/><path class="cls-1" d="M767.75 99.36a24 24 0 1 0 29.52-16.7 24 24 0 0 0-29.52 16.7z"/><g class="cls-5"><path class="cls-3" d="M769.09 98.79a24 24 0 1 0 29.52-16.7 24 24 0 0 0-29.52 16.7z"/></g><path class="cls-4" d="M782.07 107.52c-.83 3 .65 6.17 5.12 7.92l-.91 3.28 2.41.66 1.35-.45-1.13-.34.68-2.46a13.27 13.27 0 0 0 7.85-.44l-.5-3.32a11.74 11.74 0 0 1-6.48.6l1.63-5.86c3.47.11 7.25 0 8.38-4 .83-3-.62-6.2-5.07-7.9l.92-3.31-1.39-.39.23-.82-1.24.54-.9 3.25a11.45 11.45 0 0 0-4.63 0l-.44-.37-1.36.82.07.54.32 2.39v.2a10 10 0 0 1 1.73-.52 13 13 0 0 1 3.37 0l-1.64 5.91c-3.44-.05-7.24 0-8.37 4.07zm12.45-9.17c2 .9 2.57 2.2 2.22 3.49s-1.83 1.7-3.67 1.72zm-2.38-.75zm-6.39 11.22c.39-1.43 1.87-1.75 3.77-1.76l-1.44 5.18c-2.08-.91-2.68-2.16-2.33-3.42z"/><path d="M782.07 107.52c-.83 3 .65 6.17 5.12 7.92l-.91 3.28 2.41.66 1.35-.45-1.13-.34.68-2.46a13.27 13.27 0 0 0 7.85-.44l-.5-3.32a11.74 11.74 0 0 1-6.48.6l1.63-5.86c3.47.11 7.25 0 8.38-4 .83-3-.62-6.2-5.07-7.9l.92-3.31-1.39-.39.23-.82-1.24.54-.9 3.25a11.45 11.45 0 0 0-4.63 0l-.44-.37-1.36.82.07.54.32 2.39v.2a10 10 0 0 1 1.73-.52 13 13 0 0 1 3.37 0l-1.64 5.91c-3.44-.05-7.24 0-8.37 4.07zm12.45-9.17c2 .9 2.57 2.2 2.22 3.49s-1.83 1.7-3.67 1.72zm-2.38-.75zm-6.39 11.22c.39-1.43 1.87-1.75 3.77-1.76l-1.44 5.18c-2.08-.91-2.68-2.16-2.33-3.42z" class=""/><path class="cls-1" d="M783.28 107c1.13-4.07 5-4.12 8.43-4l1.65-5.91a12.46 12.46 0 0 0-5.19.26l-.38-3.35a13 13 0 0 1 6.44-.14l.91-3.25 2.4.66-.92 3.32c4.45 1.7 5.89 4.91 5.07 7.9-1.13 4.07-4.91 4.16-8.38 4l-1.63 5.86a11.75 11.75 0 0 0 6.48-.6l.5 3.32a13.3 13.3 0 0 1-7.86.45l-.9 3.25-2.4-.67.91-3.28c-4.47-1.65-5.96-4.82-5.13-7.82zm14.72-5.69c.36-1.29-.22-2.59-2.22-3.49l-1.49 5.18c1.84 0 3.27-.29 3.71-1.69zm-8.66 10.41l1.44-5.19c-1.89 0-3.37.33-3.77 1.76-.4 1.26.23 2.51 2.28 3.43z"/><path class="cls-3" d="M813.72 127.15s.08-.06.21-.19l.57-.61c.25-.26.54-.58.86-1s.7-.84 1.06-1.37l.59-.82c.2-.29.39-.61.59-.93.42-.63.8-1.34 1.21-2.08a32 32 0 0 0 3.37-10.5c.09-.84.2-1.65.22-2.4 0-.38.06-.75.06-1.1v-1c0-.64-.05-1.22-.07-1.73s-.08-1-.13-1.3l-.11-.82a1.19 1.19 0 0 0-.06-.29 1.6 1.6 0 0 0 0 .29c0 .22 0 .49.07.83s.07.79.08 1.3.06 1.08 0 1.72v1c0 .34 0 .71-.06 1.08 0 .76-.15 1.55-.25 2.39a37.31 37.31 0 0 1-1.23 5.35 36.32 36.32 0 0 1-2.11 5.07c-.41.75-.78 1.46-1.19 2.09-.2.32-.37.64-.57.92l-.57.83c-.36.53-.73 1-1 1.38s-.58.74-.82 1l-.53.63zM799 104.43a2.11 2.11 0 0 0 .87-.49 3.75 3.75 0 0 0 1.06-4.43 2 2 0 0 0-.55-.82s.19.32.39.89a4 4 0 0 1 .14 2.27 4 4 0 0 1-1.15 2c-.43.37-.76.54-.76.58zM796.26 94a2.29 2.29 0 0 0 .38-.93c.15-.53.22-1 .15-1a2.29 2.29 0 0 0-.38.93 2.18 2.18 0 0 0-.15 1zm.4-13.55a3.88 3.88 0 0 0 .76.18c.24.05.54.11.89.2s.74.17 1.17.31.9.26 1.39.45 1 .38 1.57.6a29 29 0 0 1 3.41 1.81 27.22 27.22 0 0 1 3.09 2.28c.44.4.87.76 1.23 1.14s.72.73 1 1.06.56.64.79.91.42.52.57.72a4.42 4.42 0 0 0 .49.6 4.26 4.26 0 0 0-.42-.66 8.83 8.83 0 0 0-.54-.74c-.22-.28-.46-.61-.77-.94s-.62-.72-1-1.09-.78-.76-1.23-1.17a25.93 25.93 0 0 0-3.06-2.34 26.43 26.43 0 0 0-3.48-1.77c-.55-.22-1.08-.43-1.58-.59a14.57 14.57 0 0 0-1.42-.42c-.43-.13-.83-.2-1.18-.28a8.85 8.85 0 0 0-.91-.16 4.86 4.86 0 0 0-.77-.1zm-17.03 53.15a2.27 2.27 0 0 0 .51.3c.33.19.83.42 1.45.69a23 23 0 0 0 5.1 1.48 22.61 22.61 0 0 0 5.3.28 13.52 13.52 0 0 0 1.6-.17 2.39 2.39 0 0 0 .58-.12 4.32 4.32 0 0 0-.59 0c-.37 0-.92.07-1.6.09a26.56 26.56 0 0 1-5.25-.34 25.91 25.91 0 0 1-5.07-1.41c-.63-.24-1.14-.45-1.48-.61a4.07 4.07 0 0 0-.55-.19z"/><path class="cls-1" d="M635.72 124.76a32 32 0 1 0 39.36-22.28 32 32 0 0 0-39.36 22.28z"/><g class="cls-2"><path class="cls-3" d="M675.08 102.48a32 32 0 0 1 22.28 39.37s-21.93-5-24.72-15.21 2.44-24.16 2.44-24.16z"/></g><path class="cls-4" d="M643.74 126.45a24.31 24.31 0 1 0 29.92-16.93 24.31 24.31 0 0 0-29.92 16.93z"/><path d="M643.74 126.45a24.31 24.31 0 1 0 29.92-16.93 24.31 24.31 0 0 0-29.92 16.93z" class=""/><path class="cls-1" d="M642.8 127.25a24 24 0 1 0 29.52-16.71 24 24 0 0 0-29.52 16.71z"/><g class="cls-5"><path class="cls-3" d="M644.14 126.67A24 24 0 1 0 673.66 110a24 24 0 0 0-29.52 16.67z"/></g><path class="cls-4" d="M657.12 135.4c-.83 3 .66 6.17 5.12 7.92l-.91 3.28 2.41.67 1.36-.46-1.14-.34.68-2.46a13.27 13.27 0 0 0 7.85-.44l-.5-3.32a11.71 11.71 0 0 1-6.47.6l1.62-5.86c3.47.11 7.25 0 8.38-4.05.83-3-.62-6.2-5.07-7.9l.92-3.31-1.39-.39.23-.81-1.24.53-.9 3.25a11.45 11.45 0 0 0-4.63 0L663 122l-1.36.82.07.54.32 2.39v.2a10.32 10.32 0 0 1 1.73-.52 13 13 0 0 1 3.37 0l-1.64 5.91c-3.41-.06-7.24-.01-8.37 4.06zm12.45-9.17c2 .9 2.58 2.2 2.22 3.49s-1.83 1.7-3.67 1.73zm-2.38-.75zm-6.39 11.22c.4-1.43 1.87-1.75 3.77-1.76l-1.44 5.19c-2.05-.92-2.68-2.13-2.33-3.43z"/><path d="M657.12 135.4c-.83 3 .66 6.17 5.12 7.92l-.91 3.28 2.41.67 1.36-.46-1.14-.34.68-2.46a13.27 13.27 0 0 0 7.85-.44l-.5-3.32a11.71 11.71 0 0 1-6.47.6l1.62-5.86c3.47.11 7.25 0 8.38-4.05.83-3-.62-6.2-5.07-7.9l.92-3.31-1.39-.39.23-.81-1.24.53-.9 3.25a11.45 11.45 0 0 0-4.63 0L663 122l-1.36.82.07.54.32 2.39v.2a10.32 10.32 0 0 1 1.73-.52 13 13 0 0 1 3.37 0l-1.64 5.91c-3.41-.06-7.24-.01-8.37 4.06zm12.45-9.17c2 .9 2.58 2.2 2.22 3.49s-1.83 1.7-3.67 1.73zm-2.38-.75zm-6.39 11.22c.4-1.43 1.87-1.75 3.77-1.76l-1.44 5.19c-2.05-.92-2.68-2.13-2.33-3.43z" class=""/><path class="cls-1" d="M658.34 134.87c1.13-4.07 5-4.12 8.43-4l1.64-5.92a12.48 12.48 0 0 0-5.19.26l-.38-3.29a13.07 13.07 0 0 1 6.45-.14l.9-3.25 2.4.67-.92 3.31c4.45 1.7 5.9 4.91 5.07 7.9-1.13 4.07-4.91 4.16-8.38 4.05l-1.63 5.86a11.74 11.74 0 0 0 6.48-.6l.5 3.32a13.27 13.27 0 0 1-7.85.45l-.91 3.25-2.4-.67.91-3.28c-4.46-1.74-5.95-4.93-5.12-7.92zm14.66-5.68c.35-1.29-.23-2.59-2.22-3.49l-1.45 5.22c1.85-.03 3.29-.33 3.67-1.73zm-8.66 10.41l1.43-5.19c-1.89 0-3.37.33-3.77 1.76-.34 1.26.3 2.51 2.35 3.43z"/><path class="cls-3" d="M688.77 155s.08-.06.21-.19l.57-.61a11.92 11.92 0 0 0 .86-1c.32-.4.7-.84 1.07-1.37l.58-.82c.21-.29.39-.61.59-.92.42-.63.8-1.35 1.22-2.09a36 36 0 0 0 2.13-5 35.27 35.27 0 0 0 1.22-5.4c.09-.84.2-1.65.23-2.4v-2.1c0-.64 0-1.22-.07-1.73a12.34 12.34 0 0 0-.13-1.3l-.11-.82a.9.9 0 0 0-.06-.28v.28c0 .18 0 .49.07.83s.07.79.08 1.3.06 1.08 0 1.72v1c0 .34-.05.71-.07 1.08 0 .76-.15 1.55-.25 2.39a32.64 32.64 0 0 1-3.34 10.42c-.4.75-.77 1.46-1.18 2.09-.2.32-.38.64-.58.92l-.57.83c-.35.53-.73 1-1 1.38s-.59.74-.83 1l-.53.63zm-14.71-22.69a2.18 2.18 0 0 0 .86-.49 3.9 3.9 0 0 0 1.28-2 3.84 3.84 0 0 0-.22-2.4 1.88 1.88 0 0 0-.55-.82s.19.33.4.89a4.06 4.06 0 0 1 .14 2.27 4.11 4.11 0 0 1-1.16 2c-.43.34-.81.51-.75.55zm-2.75-10.43c.06 0 .24-.39.38-.93a2.27 2.27 0 0 0 .16-1c-.07 0-.24.4-.39.93a2.36 2.36 0 0 0-.15 1zm.4-13.55a4.5 4.5 0 0 0 .76.18c.25 0 .55.11.89.2s.74.17 1.17.31.9.26 1.39.45 1 .38 1.57.61a26.72 26.72 0 0 1 3.41 1.78 28.48 28.48 0 0 1 3.09 2.28c.44.4.87.76 1.24 1.14s.71.73 1 1.06.56.64.79.92.42.51.57.71a6.5 6.5 0 0 0 .49.61 3.56 3.56 0 0 0-.42-.67 7 7 0 0 0-.54-.74c-.22-.28-.46-.61-.76-.94s-.63-.71-1-1.09-.79-.76-1.23-1.16a24.8 24.8 0 0 0-3.12-2.32 25.88 25.88 0 0 0-3.44-1.79c-.56-.22-1.08-.43-1.59-.59a14.57 14.57 0 0 0-1.42-.42c-.43-.13-.83-.2-1.18-.28a8.72 8.72 0 0 0-.9-.16 4.91 4.91 0 0 0-.77-.09zm-17.03 53.15a3.12 3.12 0 0 0 .51.3 13.14 13.14 0 0 0 1.46.69 22.92 22.92 0 0 0 5.09 1.48 22.63 22.63 0 0 0 5.3.28 14 14 0 0 0 1.61-.17 3.71 3.71 0 0 0 .57-.11 2.41 2.41 0 0 0-.59 0c-.37 0-.92.07-1.59.09a25.75 25.75 0 0 1-10.33-1.74c-.63-.25-1.13-.46-1.48-.62a3.54 3.54 0 0 0-.55-.2z"/><path class="cls-1" d="M540.57 65.86a32 32 0 1 0 39.36-22.27 32 32 0 0 0-39.36 22.27z"/><g class="cls-2"><path class="cls-3" d="M579.93 43.59A32 32 0 0 1 602.2 83s-21.92-5-24.71-15.2 2.44-24.21 2.44-24.21z"/></g><path class="cls-4" d="M548.58 67.56a24.31 24.31 0 1 0 29.92-16.94 24.31 24.31 0 0 0-29.92 16.94z"/><path d="M548.58 67.56a24.31 24.31 0 1 0 29.92-16.94 24.31 24.31 0 0 0-29.92 16.94z" class=""/><path class="cls-1" d="M547.65 68.35a24 24 0 1 0 29.52-16.71 24 24 0 0 0-29.52 16.71z"/><g class="cls-5"><path class="cls-3" d="M549 67.77a24 24 0 1 0 29.52-16.7A24 24 0 0 0 549 67.77z"/></g><path class="cls-4" d="M562 76.5c-.83 3 .65 6.18 5.12 7.92l-.91 3.28 2.4.67 1.36-.46-1.14-.34.68-2.45a13.3 13.3 0 0 0 7.86-.45l-.5-3.32a11.74 11.74 0 0 1-6.48.6l1.61-5.86c3.47.11 7.25 0 8.38-4 .82-3-.62-6.19-5.07-7.9l.92-3.31-1.39-.39.23-.81-1.24.53-.91 3.26a11.58 11.58 0 0 0-4.62 0l-.45-.36-1.36.81.08.55.32 2.38v.2a11.12 11.12 0 0 1 1.73-.52 12.59 12.59 0 0 1 3.37.06l-1.59 5.91c-3.47-.11-7.3-.07-8.4 4zm12.45-9.17c2 .9 2.57 2.2 2.22 3.49s-1.83 1.7-3.67 1.73zm-2.45-.75zm-6.4 11.22c.4-1.43 1.88-1.75 3.77-1.76L568 81.23c-2.07-.92-2.7-2.17-2.36-3.43z"/><path d="M562 76.5c-.83 3 .65 6.18 5.12 7.92l-.91 3.28 2.4.67 1.36-.46-1.14-.34.68-2.45a13.3 13.3 0 0 0 7.86-.45l-.5-3.32a11.74 11.74 0 0 1-6.48.6l1.61-5.86c3.47.11 7.25 0 8.38-4 .82-3-.62-6.19-5.07-7.9l.92-3.31-1.39-.39.23-.81-1.24.53-.91 3.26a11.58 11.58 0 0 0-4.62 0l-.45-.36-1.36.81.08.55.32 2.38v.2a11.12 11.12 0 0 1 1.73-.52 12.59 12.59 0 0 1 3.37.06l-1.59 5.91c-3.47-.11-7.3-.07-8.4 4zm12.45-9.17c2 .9 2.57 2.2 2.22 3.49s-1.83 1.7-3.67 1.73zm-2.45-.75zm-6.4 11.22c.4-1.43 1.88-1.75 3.77-1.76L568 81.23c-2.07-.92-2.7-2.17-2.36-3.43z" class=""/><path class="cls-1" d="M563.18 76c1.13-4.07 5-4.11 8.43-4l1.64-5.92a12.43 12.43 0 0 0-5.18.27l-.38-3.3a13.15 13.15 0 0 1 6.44-.14l.9-3.25 2.41.67-.92 3.31c4.45 1.71 5.89 4.92 5.06 7.9-1.13 4.08-4.9 4.16-8.38 4l-1.62 5.86a11.57 11.57 0 0 0 6.48-.6l.49 3.33a13.35 13.35 0 0 1-7.85.44l-.9 3.25-2.4-.66.91-3.29c-4.47-1.72-5.96-4.87-5.13-7.87zm14.67-5.68c.36-1.29-.23-2.59-2.22-3.49L574.19 72c1.81 0 3.27-.3 3.66-1.71zm-8.66 10.38l1.44-5.19c-1.9 0-3.37.33-3.77 1.77-.35 1.26.28 2.5 2.33 3.42z"/><path class="cls-3" d="M593.62 96.14l.21-.2.57-.6c.25-.26.54-.59.86-1s.7-.84 1.06-1.37l.59-.82c.2-.29.39-.6.59-.92.42-.63.8-1.35 1.21-2.09a31.64 31.64 0 0 0 3.36-10.5c.1-.84.21-1.64.23-2.4 0-.38.05-.74.06-1.09s0-.69 0-1c0-.65 0-1.23-.07-1.74a12.93 12.93 0 0 0-.12-1.3l-.11-.82A1 1 0 0 0 602 70a1.59 1.59 0 0 0 0 .29c0 .21 0 .48.07.82s.07.79.08 1.3.06 1.09 0 1.73v1c0 .35 0 .71-.06 1.09 0 .75-.15 1.54-.25 2.38a33.27 33.27 0 0 1-3.34 10.43c-.41.74-.78 1.45-1.19 2.08-.2.32-.38.64-.57.93l-.58.82c-.35.54-.72 1-1 1.39s-.58.74-.82 1l-.54.63c-.13.16-.19.24-.18.25zM578.9 73.41a2 2 0 0 0 .87-.49 3.75 3.75 0 0 0 1.27-2 3.81 3.81 0 0 0-.21-2.39 2 2 0 0 0-.56-.83s.2.33.4.89a4 4 0 0 1 .14 2.27 4.11 4.11 0 0 1-1.15 2c-.44.34-.78.51-.76.55zM576.16 63a2.37 2.37 0 0 0 .38-.93 2.22 2.22 0 0 0 .15-1 2.29 2.29 0 0 0-.38.93c-.15.52-.22 1-.15 1zm.39-13.57a4.48 4.48 0 0 0 .77.18c.24 0 .54.11.89.2s.74.17 1.17.31.9.27 1.39.45 1 .39 1.57.61a26.63 26.63 0 0 1 3.4 1.78 27.69 27.69 0 0 1 3.1 2.28c.44.4.87.77 1.23 1.15s.71.72 1 1 .55.65.79.92.42.51.57.71a5.13 5.13 0 0 0 .49.61 5.3 5.3 0 0 0-.42-.66c-.14-.21-.32-.47-.54-.74a11.12 11.12 0 0 0-.77-1c-.29-.34-.62-.71-1-1.08s-.79-.77-1.23-1.17a25.93 25.93 0 0 0-3.11-2.32 24.18 24.18 0 0 0-3.43-1.66c-.55-.22-1.08-.44-1.59-.6s-1-.31-1.41-.42-.83-.2-1.18-.28a8.85 8.85 0 0 0-.91-.16 6.85 6.85 0 0 0-.78-.11zm-17.02 53.16a2.87 2.87 0 0 0 .51.3c.33.18.83.42 1.45.68a23 23 0 0 0 5.1 1.49 23.73 23.73 0 0 0 5.3.28c.68 0 1.23-.11 1.6-.17a3.2 3.2 0 0 0 .58-.12 2.41 2.41 0 0 0-.59 0c-.38 0-.92.07-1.6.1a26 26 0 0 1-10.32-1.75c-.63-.25-1.14-.46-1.48-.62a2.37 2.37 0 0 0-.55-.19z"/><path class="cls-7" d="M140 267.65l83.05-134.09a15.63 15.63 0 0 0 1.95-12.43l-19.5-72.42a15.61 15.61 0 0 0-17.79-11.32l-73.84 13a15.59 15.59 0 0 0-10.46 7L20.35 191.48A15.61 15.61 0 0 0 25.14 213l93.3 59.41a15.61 15.61 0 0 0 21.56-4.76zM169.12 87a14.66 14.66 0 1 1 20.49-3.12A14.66 14.66 0 0 1 169.12 87z"/><path class="cls-8" d="M140 267.65l83.05-134.09a15.63 15.63 0 0 0 1.95-12.43l-19.5-72.42a15.61 15.61 0 0 0-17.79-11.32l-73.84 13a15.59 15.59 0 0 0-10.46 7L20.35 191.48A15.61 15.61 0 0 0 25.14 213l93.3 59.41a15.61 15.61 0 0 0 21.56-4.76zM169.12 87a14.66 14.66 0 1 1 20.49-3.12A14.66 14.66 0 0 1 169.12 87z"/><path class="cls-3" d="M87.08 116.06c8.09-13.09 21.19-15.91 32.34-9s14.58 19.94 6.49 33S104.72 156 93.47 149s-14.55-19.74-6.39-32.94zM112.82 132c4.75-7.69 3.92-12.39.24-14.66-3.46-2.14-8.25-.92-13 6.76s-3.7 12.52-.24 14.66c3.68 2.24 8.25.9 13-6.76zm50.78 3.72l15.57 9.63-98.52 43.74-15.57-9.63zm-45.15 49.09c8.09-13.09 21.08-16 32.33-9s14.59 19.94 6.5 33-21.19 15.9-32.44 8.95-14.55-19.76-6.39-32.97zm25.74 15.92c4.75-7.68 3.81-12.45.24-14.66s-8.26-.91-13 6.76-3.81 12.45-.24 14.66 8.26.9 13-6.78z"/><path class="cls-7" d="M920.69 127.15h-157.9c-4.06 0-6.78 2.25-6.07 5q9.31 36.33 18.62 72.65a7.3 7.3 0 0 0 6.84 5H901.3a7.28 7.28 0 0 0 6.83-5q9.32-36.33 18.62-72.65c.72-2.75-2-5-6.06-5zm-135 70.71c0 .39-.22.7-.49.7h-3.16c-.27 0-.49-.31-.49-.7v-23.92h4.14zm0-28.23h-4.14v-23.92c0-.39.22-.71.49-.71h3.16c.27 0 .49.32.49.71zm7.75 28.23c0 .39-.22.7-.5.7h-3.14c-.27 0-.49-.31-.49-.7v-23.92h4.14zm0-28.23h-4.14v-23.92c0-.39.22-.71.49-.71H793c.28 0 .5.32.5.71zm7.75 28.23c0 .39-.23.7-.5.7h-3.15c-.27 0-.49-.31-.49-.7v-23.92h4.14zm0-28.23h-4.14v-23.92c0-.39.22-.71.49-.71h3.15c.27 0 .5.32.5.71zm15.49 28.23c0 .39-.22.7-.49.7H813c-.27 0-.49-.31-.49-.7v-23.92h4.14zm0-28.23h-4.14v-23.92c0-.39.22-.71.49-.71h3.16c.27 0 .49.32.49.71zm7.75 28.23c0 .39-.22.7-.5.7h-3.15c-.27 0-.49-.31-.49-.7v-23.92h4.14zm0-28.23h-4.13v-23.92c0-.39.22-.71.49-.71h3.15c.28 0 .5.32.5.71zm7.75 28.23c0 .39-.22.7-.5.7h-3.15c-.27 0-.49-.31-.49-.7v-23.92h4.14zm0-28.23h-4.14v-23.92c0-.39.22-.71.49-.71h3.15c.28 0 .5.32.5.71zm7.75 28.23c0 .39-.23.7-.5.7h-3.15c-.28 0-.5-.31-.5-.7v-23.92h4.15zm0-28.23h-4.15v-23.92c0-.39.22-.71.5-.71h3.15c.27 0 .5.32.5.71zm7.74 28.23c0 .39-.22.7-.49.7H844c-.28 0-.5-.31-.5-.7v-23.92h4.14zm0-28.23h-4.14v-23.92c0-.39.22-.71.5-.71h3.15c.27 0 .49.32.49.71zm7.75 28.23c0 .39-.22.7-.49.7h-3.16c-.27 0-.49-.31-.49-.7v-23.92h4.14zm0-28.23h-4.14v-23.92c0-.39.22-.71.49-.71h3.16c.27 0 .49.32.49.71zm7.75 28.23c0 .39-.22.7-.49.7h-3.16c-.27 0-.49-.31-.49-.7v-23.92h4.14zm0-28.23H859v-23.92c0-.39.22-.71.49-.71h3.16c.27 0 .49.32.49.71zm7.75 28.23c0 .39-.23.7-.5.7h-3.15c-.27 0-.49-.31-.49-.7v-23.92h4.14zm0-28.23h-4.14v-23.92c0-.39.22-.71.49-.71h3.15c.27 0 .5.32.5.71zm15.49 28.23c0 .39-.22.7-.49.7h-3.16c-.27 0-.49-.31-.49-.7v-23.92h4.14zm0-28.23h-4.14v-23.92c0-.39.22-.71.49-.71h3.16c.27 0 .49.32.49.71zm7.75 28.23c0 .39-.22.7-.49.7h-3.16c-.27 0-.49-.31-.49-.7v-23.92h4.14zm0-28.23H890v-23.92c0-.39.22-.71.49-.71h3.16c.27 0 .49.32.49.71zm7.75 28.23c0 .39-.22.7-.5.7h-3.15c-.27 0-.49-.31-.49-.7v-23.92h4.14zm0-28.23h-4.14v-23.92c0-.39.22-.71.49-.71h3.15c.28 0 .5.32.5.71z"/><path class="cls-7" d="M936.56 131.39a2.17 2.17 0 0 1-2.06 2.25H749a2.16 2.16 0 0 1-2.06-2.25v-8.26a2.16 2.16 0 0 1 2.06-2.25h185.5a2.17 2.17 0 0 1 2.06 2.25z"/><path class="cls-9" d="M932.82 133.61c0 .29-40.46.53-90.36.53s-90.38-.24-90.38-.53 40.46-.53 90.38-.53 90.36.23 90.36.53z"/><path d="M760.7 133.61a453.43 453.43 0 0 0 76.42 6.87c28.5.26 60.08-1.19 87.89-6.87z" class=""/><path class="cls-9" d="M844.8 130.93a4.74 4.74 0 0 1-6.2-2.52l-28.11-66.36a4.74 4.74 0 0 1 2.51-6.2 4.73 4.73 0 0 1 6.2 2.51l28.11 66.37a4.74 4.74 0 0 1-2.51 6.2z"/><circle class="cls-10" cx="842.85" cy="126.52" r="3.33"/><path class="cls-9" d="M439.2 920c-.34.09-.38-7.58-4.46-18.61a52.21 52.21 0 0 0-10.21-17.09c-4.89-5.4-12.07-9.42-20-9.45s-15.09 3.93-20 9.3a52.13 52.13 0 0 0-10.29 17c-4.11 11-4.17 18.67-4.51 18.58a5.8 5.8 0 0 1 0-1.35c0-.89.13-2.2.34-3.87a65.15 65.15 0 0 1 3.31-13.78 52.09 52.09 0 0 1 10.32-17.63c5-5.62 12.57-9.84 20.84-9.8s15.77 4.31 20.78 10a52.29 52.29 0 0 1 10.24 17.69 64.54 64.54 0 0 1 3.27 13.79c.21 1.68.3 3 .33 3.87a5.92 5.92 0 0 1 .04 1.35z"/><path class="cls-9" d="M451.18 920c-.33.09-.38-7.58-4.45-18.61a52.42 52.42 0 0 0-10.22-17.09c-4.89-5.4-12.06-9.42-19.95-9.45s-15.09 3.93-20 9.3a52.09 52.09 0 0 0-10.28 17c-4.11 11-4.17 18.67-4.51 18.58a4.65 4.65 0 0 1 0-1.35c0-.89.12-2.2.34-3.87a65.15 65.15 0 0 1 3.31-13.78 52.22 52.22 0 0 1 10.31-17.63c5-5.62 12.57-9.84 20.85-9.8s15.77 4.31 20.78 10a52.46 52.46 0 0 1 10.24 17.69 65.16 65.16 0 0 1 3.27 13.79c.21 1.68.3 3 .33 3.87a4.92 4.92 0 0 1-.02 1.35z"/><path class="cls-10" d="M329.48 911.88L464.85 910.93 467.81 1078.92 315.89 1078.92 329.48 911.88z"/><path class="cls-10" d="M464.85 910.93L481.85 910.93 496.48 1078.92 467.81 1078.92 464.85 910.93z"/><path class="" d="M464.85 910.93L481.85 910.93 496.48 1078.92 467.81 1078.92 464.85 910.93z"/><path class="cls-3" d="M353.14 967.99H441.77V984.96H353.14z"/><path class="cls-7" d="M316.73 405.24s-50.6 6.14-56.32 8.75c0 0-19.83 13.81-32.2 34.57-26.71 44.8-79.1 131.09-66 170.92 6.72 20.52 24.63 66 119.82 13.32l-13.15-51.59 60.47-94.94z"/><path class="cls-7" d="M289.25 388.46l6.37 3.49c34.27 18.78 69.38-.51 72.93-38.61L396 338.42l22.86-17.89 72.09 93.84 79.75 164.45-160.82 93.25-79.38-87.79-68.79-89-1.3-81.09z"/><path class="cls-9" d="M399.37 660.46s-.1-.17-.34-.45l-1.03-1.25-4.21-4.76-15.48-17.33-23-25.64-13.63-15.11q-3.56-3.93-7.22-8l-3.68-4.09c-1.21-1.4-2.41-2.82-3.63-4.24-19.55-22.69-36.86-43.59-48.76-59.16l-14.07-18.5c-1.67-2.17-3-3.85-3.89-5l-1-1.27a2.62 2.62 0 0 0-.38-.42 2.69 2.69 0 0 0 .3.47c.25.34.57.78 1 1.34l3.75 5.08c3.27 4.41 7.92 10.84 13.83 18.68 11.79 15.71 29 36.66 48.55 59.39l3.63 4.24 3.69 4.09 7.23 8 13.67 15.08 23.2 25.5 15.69 17.15 4.31 4.62 1.13 1.19a2.64 2.64 0 0 0 .34.39zM282 632.8a1.56 1.56 0 0 0-.06-.43c-.08-.33-.17-.74-.28-1.24-.27-1.16-.65-2.75-1.13-4.76-1-4.2-2.53-10.14-4.35-17.45-3.78-14.78-9-35.07-14.69-57.48-.05-.17-.09-.33-.13-.48l-.12-.48-.46.15c-11 3.54-21.15 7.85-30.33 11.78s-17.35 7.69-24.21 10.82L190 580.69l-4.41 2-1.14.55a1.64 1.64 0 0 0-.38.21s.15 0 .42-.13l1.17-.46c1-.41 2.54-1 4.48-1.87 3.88-1.66 9.46-4.13 16.36-7.19s15.1-6.72 24.28-10.64S250.09 555 261 551.52l-.58-.33c0 .15.08.32.12.48 5.83 22.39 11.11 42.65 14.95 57.42 1.94 7.28 3.52 13.19 4.64 17.37.55 2 1 3.57 1.3 4.72l.37 1.22c.12.27.2.41.2.4z"/><path class="cls-11" d="M374.24 487.49c-1.68 1.2-48.36 20.38-55.57 25.69S272 549.64 272 549.64l-9.12 5.16 14.74 59.84 26-36s35.7-13.6 40.35-17a14.27 14.27 0 0 0 7.13-11.47s6.38-1.84 5.74-10.36c0 0 5.52-11.16-.1-16.56L350.4 517s36.61-22.18 37-22.64c1.7-1.87 4.85-6.64 3.4-8.84-2.06-3.16-12.8.58-16.56 1.97z"/><path class="cls-10" d="M577.45 186.59L550 310.93l-131.13 9.6 19.52 63.87 31.4 31.33s136-5.54 150.75-38.39S631 197 631 197z"/><path class="cls-9" d="M466.26 397.51a7 7 0 0 0 .26 1.64c.26 1.2.59 2.74 1 4.65.91 4 2.19 9.85 3.69 17.07 3 14.44 6.72 34.49 9.64 56.8s4.45 42.66 5.22 57.39c.4 7.36.66 13.33.8 17.45.09 2 .16 3.52.21 4.75a8.72 8.72 0 0 0 .17 1.66 7 7 0 0 0 .11-1.66v-4.76c0-4.13-.09-10.1-.36-17.49-.52-14.76-1.93-35.14-4.83-57.51s-6.78-42.43-10.05-56.83c-1.62-7.21-3.05-13-4.12-17-.52-1.88-.94-3.4-1.26-4.59a6.83 6.83 0 0 0-.48-1.57z"/><path class="cls-10" d="M805.47 685.51h231.44a19.42 19.42 0 0 0 19.42-19.41V226.74a19.42 19.42 0 0 0-19.42-19.41h-622a19.41 19.41 0 0 0-19.41 19.41v439.35a19.41 19.41 0 0 0 19.41 19.42h390.56z"/><path class="cls-9" d="M734.2 639.31c8.46 12.09-4.78 25.33-16.88 16.87a4.46 4.46 0 0 1-1-1c-8.43-12.09 4.79-25.32 16.88-16.88a4.32 4.32 0 0 1 1 1.01zM428.77 224.1h594.33A15.91 15.91 0 0 1 1039 240v365.14H412.86V240a15.91 15.91 0 0 1 15.91-15.9zm440.88 461.42c0 .21-52.15.38-116.46.38s-116.46-.17-116.46-.38 52.13-.39 116.46-.39 116.46.18 116.46.39z"/><path class="cls-3" d="M429.84 239.85H1022.77V589.38H429.84z"/><path class="cls-12" d="M429.84 239.85H1022.77V268.89H429.84z"/><path class="cls-3" d="M452.89 255a4.17 4.17 0 1 1-4.17-4 4.1 4.1 0 0 1 4.17 4zm12.41 0a4.17 4.17 0 1 1-4.16-4 4.09 4.09 0 0 1 4.16 4zm11.81 0a4.17 4.17 0 1 1-4.16-4 4.09 4.09 0 0 1 4.16 4z"/><path class="cls-12" d="M429.73 312.15H1022.89V437.12H429.73z"/><path class="cls-7" d="M454.08 285.87H512.05V300.64H454.08z"/><path class="cls-12" d="M876.22 282.52H918.19V297.28999999999996H876.22z"/><path class="cls-12" d="M807.61 282.13H849.58V296.9H807.61z"/><path class="cls-7" d="M704.18 419.72a5.28 5.28 0 1 1-5.28-5.1 5.19 5.19 0 0 1 5.28 5.1z"/><path class="cls-3" d="M725.17 419.72a5.28 5.28 0 1 1-5.27-5.1 5.19 5.19 0 0 1 5.27 5.1zm20.04 0a5.27 5.27 0 1 1-5.27-5.1 5.19 5.19 0 0 1 5.27 5.1z"/><path class="cls-3" d="M479.5 404.55H634.64V420.1H479.5z"/><path class="cls-12" d="M492.02 459.84H581.67V538.05H492.02z"/><path class="cls-12" d="M685.17 458.43H760.76V534.02H685.17z"/><path class="cls-12" d="M858.53 456.11H938.77V536.35H858.53z"/><path class="cls-7" d="M592 479.31s-22.47-25.4-25.3-27a22.44 22.44 0 0 0-6.18-1.79 29.49 29.49 0 0 0-3.73-.54h-.26c-6.88-.61-17.32-.32-17.32-.32s-.17 9.18-11.87 13c-12 2.62-16.84-5.2-16.84-5.2s-9.14 5.05-14.76 9.06l-.21.16a27.75 27.75 0 0 0-2.94 2.36 22 22 0 0 0-4.41 4.67c-1.62 2.84-8.09 36.13-8.09 36.13l24.05 4.81 2.44-16.4 13 53.44 28.6-7.8 2.44-.66 28.92-7.89-16.24-52.54 10.42 12.89z"/><path class="cls-9" d="M510.16 511.36a33.29 33.29 0 0 1-1.48-4.8c-.83-3-1.93-7.21-3.13-12l.07.14-1.41-1.86c-3.28-4.36-6.21-8.32-8.29-11.22-1.05-1.45-1.88-2.63-2.44-3.45a6.09 6.09 0 0 1-.81-1.34 6 6 0 0 1 1.06 1.14c.64.77 1.55 1.9 2.65 3.3 2.21 2.81 5.21 6.72 8.49 11.07l1.4 1.87.05.07v.08c1.18 4.76 2.19 9 2.87 12a30.8 30.8 0 0 1 .97 5zm56.58-15.42a32.47 32.47 0 0 1-1.68-4.73c-.95-3-2.23-7.13-3.63-11.83v-.16c.08-.74.17-1.53.26-2.32.61-5.42 1.21-10.31 1.69-13.85.24-1.77.45-3.2.61-4.18a6.28 6.28 0 0 1 .33-1.53 5.58 5.58 0 0 1 0 1.56c-.07 1-.19 2.44-.35 4.22-.33 3.55-.84 8.46-1.46 13.87-.09.8-.18 1.58-.26 2.32v-.16c1.38 4.71 2.56 8.89 3.38 11.9a32.47 32.47 0 0 1 1.11 4.89z"/><path class="cls-3" d="M540.7 475.33h18v11.43a8.11 8.11 0 0 1-8.11 8.11h-1.78a8.11 8.11 0 0 1-8.11-8.11v-11.43z" transform="rotate(-15.18 549.889 485.223)"/><path class="cls-9" d="M549.26 495.09a8.15 8.15 0 0 1-7.85-6l-3-11.08 17.41-4.72 3 11a8.15 8.15 0 0 1-5.73 10l-1.72.47a8.3 8.3 0 0 1-2.11.33zm-10.75-17l3 11a8.07 8.07 0 0 0 9.9 5.67l1.72-.47a8.08 8.08 0 0 0 5.67-9.9l-3-11z"/><path class="cls-9" d="M553.64 494c0-.07.58-.22 1.53-.77a7.2 7.2 0 0 0 3.55-6.66 23.34 23.34 0 0 0-.91-3.78l-2.5-9 .48.28-9.62 2.64-7 1.91.28-.49c1 3.56 1.85 6.9 2.66 9.94.2.75.37 1.5.61 2.14a7.45 7.45 0 0 0 1 1.77 7.1 7.1 0 0 0 2.88 2.17 7.64 7.64 0 0 0 5.16.19 10.3 10.3 0 0 1 1.93-.38 11.77 11.77 0 0 1-1.85.65 7.73 7.73 0 0 1-5.43 0 7.59 7.59 0 0 1-3.17-2.27 8.3 8.3 0 0 1-1.13-1.9c-.28-.73-.46-1.46-.68-2.21-.84-3-1.76-6.36-2.75-9.91l-.11-.39.39-.1L546 476l9.62-2.61.38-.1.1.38c.86 3.24 1.67 6.26 2.39 9a21.12 21.12 0 0 1 .85 3.91 7.58 7.58 0 0 1-.66 3.42 7.25 7.25 0 0 1-3.34 3.51 5.54 5.54 0 0 1-1.22.46 1.36 1.36 0 0 1-.48.03z"/><path class="cls-12" d="M498.97 554.36H577.1800000000001V564.8100000000001H498.97z"/><path class="cls-12" d="M682.08 554.36H760.2900000000001V564.8100000000001H682.08z"/><path class="cls-12" d="M865.3 554.63H939.55V564.55H865.3z"/><path class="cls-7" d="M955.14 520.36c-.93-3.25-5.17-3.31-8.28-4.67a92.41 92.41 0 0 1-21.72-13.41l-66.54-4.58-.25 2.68c15.21 21.89 43.28 38.07 69.9 36.66 7.12-.38 14.34-1.79 20.46-5.44 3.48-2.07 7.54-7.34 6.43-11.24z"/><path d="M955.14 520.2c-.93-3.26-5.17-3.31-8.28-4.68a92.37 92.37 0 0 1-21.72-13.4l-66.54-4.58-.25 2.68c15.21 21.89 43.28 38.07 69.9 36.65 7.12-.38 14.34-1.79 20.46-5.44 3.48-2.07 7.54-7.34 6.43-11.23z" class=""/><path class="cls-7" d="M928.7 485c-3.34-7.88-8-15.28-16.75-19.19-11.22-5-24.12-3.34-34.07 2.44s-17.79 20.17-19.46 30.52c22.85 20.88 68.5 24.6 75.63 11.73.88-8.16-2.05-17.64-5.35-25.5z"/><path class="cls-7" d="M954.94 519.15c-.94-3.26-4.5-4.86-7.6-6.22a92.41 92.41 0 0 1-21.72-13.41l-67.2-.77c15.2 21.89 43.69 36.94 70.3 35.53 7.12-.38 14.35-1.79 20.47-5.44 3.48-2.07 6.86-5.84 5.75-9.69z"/><path class="cls-9" d="M934.79 506.21a2.74 2.74 0 0 1-.09.87 13.61 13.61 0 0 1-.7 2.4 13.43 13.43 0 0 1-6.13 6.73 21.76 21.76 0 0 1-6 2.15 31.88 31.88 0 0 1-3.51.5 34.7 34.7 0 0 1-3.74.25 71.44 71.44 0 0 1-16.55-1.56 98.53 98.53 0 0 1-28.16-10.66 88.86 88.86 0 0 1-7.68-5l-2-1.52a3.06 3.06 0 0 1-.65-.57 3.59 3.59 0 0 1 .75.43l2 1.39c1.79 1.2 4.43 2.85 7.78 4.72a103.79 103.79 0 0 0 28 10.35 73.54 73.54 0 0 0 16.36 1.61 31.57 31.57 0 0 0 3.69-.21 32.93 32.93 0 0 0 3.44-.44 21.74 21.74 0 0 0 5.85-2 13.45 13.45 0 0 0 6.12-6.33c.98-1.93 1.14-3.13 1.22-3.11z"/><path class="cls-9" d="M919.81 518.35a5.77 5.77 0 0 1 0-1.18v-3.34c.12-2.91.06-7.12-.21-12.29a84.44 84.44 0 0 0-3-17.91 42 42 0 0 0-1.74-4.93 40.22 40.22 0 0 0-2.39-4.9 22.93 22.93 0 0 0-7.67-8.22 8.13 8.13 0 0 0-1.11-.55h.22a24.55 24.55 0 0 0-10.09 4.57 45.42 45.42 0 0 0-7.3 7.46 67.19 67.19 0 0 0-9.39 15c-2.11 4.59-3.47 8.47-4.46 11.11l-1.16 3.05a5.14 5.14 0 0 1-.46 1.05 7 7 0 0 1 .3-1.1l1-3.1c.9-2.69 2.17-6.6 4.22-11.26a66.23 66.23 0 0 1 9.33-15.25 45.37 45.37 0 0 1 7.4-7.63 25.15 25.15 0 0 1 10.42-4.74h.23a8.67 8.67 0 0 1 1.26.62 23.65 23.65 0 0 1 8 8.54 41 41 0 0 1 2.41 5 41.61 41.61 0 0 1 1.75 5 82.93 82.93 0 0 1 2.83 18.09 117.73 117.73 0 0 1-.07 12.34c-.08 1.38-.15 2.49-.2 3.34a7.76 7.76 0 0 1-.12 1.23z"/><path class="cls-9" d="M904.12 462.15h.43a1.86 1.86 0 0 1 1.86 1.86v1.46h-4.16V464a1.86 1.86 0 0 1 1.87-1.85z" transform="rotate(9.81 904.646 464.032)"/><path class="cls-3" d="M902.91 496.25l-1.72 7.55s10 5.45 19.4 3.59c6.23-1.24 8.78-4.92 8.78-4.92l-.63-6.53s-2.68 3.06-10.74 3.25c-5.91.14-15.09-2.94-15.09-2.94z"/><path class="cls-9" d="M951.84 526.59s-.16.2-.52.51a13.41 13.41 0 0 1-1.64 1.29 29.15 29.15 0 0 1-6.82 3.53 56.79 56.79 0 0 1-25 2.84 76.31 76.31 0 0 1-24.21-7.11 87.946 87.946 0 0 1-6.79-3.55c-.79-.44-1.38-.82-1.78-1.08s-.61-.4-.59-.42a18 18 0 0 1 2.53 1.21c1.6.82 3.94 2 6.88 3.29a81.22 81.22 0 0 0 24 6.81 59 59 0 0 0 24.72-2.55c6.14-2.1 9.11-4.95 9.22-4.77z"/><path class="cls-7" d="M675.59 483s8.95-16.87 19.81-18c0 0 20 11.49 23.09 10.75s-1.39-6.53 2.82-9.8 8.46.39 10.18 2.92S745.27 499 755.5 506s26.27 21.1 23.68 27.43c-1.94 4.73-1.42 3-10.49 4.7s-39-12.73-48.7-22.56c-15.15-15.39-34.43-31.7-44.4-32.57z"/><path class="cls-3" d="M775.54 540a2 2 0 0 0-1.3-3.82 9.91 9.91 0 0 1-1.59.18c-6.13.2-14-2.16-23.81-6.41s-13.35-7.05-25.75-16.43-22.7-25.6-32.47-28.41c-8-2.32-13-2.23-14.54-2.13a1.94 1.94 0 0 0-.88.28c-6.79 4.08-19.32 20.28-12.81 24.56 4.5 3 20.12 4.89 31.07 8.68s35.22 14.46 48.95 19.22 27.7 6.89 33 4.36z"/><path class="cls-9" d="M775.54 540a2.1 2.1 0 0 1-.63.31 9.55 9.55 0 0 1-2 .6 29.42 29.42 0 0 1-7.91.22c-6.86-.54-16.68-2.7-28.17-7.11s-24.94-10.09-40.08-15.89c-7.53-3-15.91-4.59-24.52-6.61-2.15-.52-4.32-1-6.48-1.76a17.63 17.63 0 0 1-3.19-1.35 4.3 4.3 0 0 1-2.25-2.83c-.55-2.47.33-4.81 1.26-6.93a36.11 36.11 0 0 1 3.64-6.05 48.88 48.88 0 0 1 4.55-5.37 26.75 26.75 0 0 1 5.43-4.46 4.84 4.84 0 0 1 1.85-.25h1.73c1.14.05 2.28.16 3.4.31a57.07 57.07 0 0 1 6.6 1.31 20 20 0 0 1 6.17 2.5 38.88 38.88 0 0 1 5.16 3.95c3.18 2.87 6 5.93 8.8 8.87 5.54 5.94 10.94 11.42 16.84 15.6 5.75 4.34 11.07 8.49 16.47 11.36 10.89 5.53 20.39 8.91 27.19 9.61a18.91 18.91 0 0 0 4.51 0 2.35 2.35 0 0 1 1.84.29 2.23 2.23 0 0 1 .87 1.28 2 2 0 0 1-.51 2 1.47 1.47 0 0 1-.43.31l-.16.07a6 6 0 0 0 .53-.44 1.89 1.89 0 0 0 .4-1.85 2.09 2.09 0 0 0-.82-1.16 2.19 2.19 0 0 0-1.68-.21 18.63 18.63 0 0 1-4.58.06 51.8 51.8 0 0 1-12.19-2.88 119 119 0 0 1-15.24-6.5c-5.48-2.87-10.84-7-16.61-11.33a86.39 86.39 0 0 1-8.65-7.15c-2.8-2.65-5.54-5.52-8.33-8.47s-5.63-6-8.78-8.8a37.45 37.45 0 0 0-5.05-3.86 19 19 0 0 0-5.94-2.39 56.57 56.57 0 0 0-6.5-1.28c-1.11-.15-2.22-.26-3.33-.31h-1.68a4.52 4.52 0 0 0-1.51.17 26.61 26.61 0 0 0-5.17 4.29 48.31 48.31 0 0 0-4.47 5.28 35.18 35.18 0 0 0-3.55 5.89c-.91 2-1.7 4.31-1.22 6.37S664 508.23 666 509s4.27 1.23 6.41 1.75c8.56 2 17 3.64 24.6 6.68 15.15 5.86 28.54 11.72 40 16.07s21.16 6.7 28 7.34a30.85 30.85 0 0 0 7.85-.06 10.78 10.78 0 0 0 2-.51z"/><path class="cls-3" d="M743.51 491.19c0 .25-2.1.58-4.52 1.53s-4.22 2.12-4.37 1.92 1.49-1.73 4.06-2.72 4.83-.92 4.83-.73zm4.3 5.93c.12.21-1.71 1.46-4.07 2.8s-4.38 2.26-4.5 2.06 1.71-1.46 4.08-2.8 4.37-2.26 4.49-2.06zm4.85 5.88c.15.19-1.19 1.52-2.84 3.14s-3 2.93-3.19 2.78.9-1.74 2.59-3.39 3.29-2.69 3.44-2.53z"/><rect class="cls-7" x="673.79" y="497.84" width="14.93" height="3.64" rx="1.64" transform="rotate(16.06 681.07 499.485)"/><path class="cls-7" d="M693 466.38a9.32 9.32 0 0 0-1.58-3.87 2.51 2.51 0 0 0-1.46-1.13 2.85 2.85 0 0 0-1.91.62l-1.56 1c-.33.2-.69.46-.72.84a1.29 1.29 0 0 0 .28.78l2.29 3.51"/><path class="cls-9" d="M695.4 465.05c0 .14-1.47.57-3.69 1.7a34.63 34.63 0 0 0-7.89 5.64 38.65 38.65 0 0 0-6.17 7.5c-1.32 2.12-1.95 3.54-2.08 3.49a12.26 12.26 0 0 1 1.56-3.8 32.25 32.25 0 0 1 6.11-7.82 29.21 29.21 0 0 1 8.21-5.55 11 11 0 0 1 3.95-1.16z"/><path class="cls-9" d="M689.34 467.66c-.24.06-.64-1.05-1.56-2.09s-1.94-1.61-1.86-1.84 1.43 0 2.5 1.28 1.15 2.64.92 2.65z"/><path d="M719.42 475.06c.22-.74 9 13.63 14.87 19.22-6.58-4.85-13.31-12.67-18.48-19 0 .01 3.08 1.53 3.61-.22z" class=""/><path class="cls-9" d="M755.64 509.79s-.38.31-1.2.57a9.14 9.14 0 0 1-3.59.3 12.71 12.71 0 0 1-5.08-1.74 21.14 21.14 0 0 1-4.95-4.25c-.76-.87-1.47-1.74-2.13-2.6l-1.79-2.54-3-4.33a26.11 26.11 0 0 1-2.58-4.12 27.16 27.16 0 0 1 3.06 3.76c1 1.27 2 2.68 3.13 4.21.59.81 1.2 1.64 1.82 2.51s1.36 1.7 2.11 2.54a21.67 21.67 0 0 0 4.72 4.15 12.76 12.76 0 0 0 4.74 1.81 13.16 13.16 0 0 0 4.74-.27z"/><path class="cls-3" d="M740.43 491.82a5.07 5.07 0 0 1-.37-1.62 23.08 23.08 0 0 1-.16-4.52 26.23 26.23 0 0 1 1.24-6.61 25.17 25.17 0 0 1 1.51-3.69 19.65 19.65 0 0 1 1-1.87 3.22 3.22 0 0 1 .86-.87 1.61 1.61 0 0 1 1.39-.2 2.47 2.47 0 0 1 1.39 2.05 16.11 16.11 0 0 1 .14 2.14 21.31 21.31 0 0 1-.35 4 21.79 21.79 0 0 1-2.21 6.36 18.69 18.69 0 0 1-2.57 3.73 5.54 5.54 0 0 1-1.2 1.15 43.52 43.52 0 0 0 3.23-5.15 22.64 22.64 0 0 0 2-6.22 20.9 20.9 0 0 0 .28-3.85 16.39 16.39 0 0 0-.13-2c-.11-.61-.4-1.27-.83-1.39s-.92.22-1.28.75a17.71 17.71 0 0 0-1 1.76 27 27 0 0 0-1.52 3.56 28.77 28.77 0 0 0-1.38 6.41c-.32 3.73.12 6.06-.04 6.08z"/><path class="cls-3" d="M740.51 491.47a7.21 7.21 0 0 1 1-1.37c.71-.84 1.74-2.05 3.12-3.46a33.91 33.91 0 0 1 5.28-4.51 23.22 23.22 0 0 1 3.63-2 7 7 0 0 1 2.18-.65 2.43 2.43 0 0 1 2.34 1 2.88 2.88 0 0 1 .24 2.51 6.61 6.61 0 0 1-1.16 2 13.58 13.58 0 0 1-3.09 2.81 20.07 20.07 0 0 1-6.42 2.71 38.48 38.48 0 0 1-4.59.84 6.07 6.07 0 0 1-1.7.12c0-.15 2.39-.51 6.14-1.54a20.89 20.89 0 0 0 6.13-2.78 13 13 0 0 0 2.87-2.68c.85-1 1.56-2.42.87-3.48a1.57 1.57 0 0 0-1.55-.6 6.35 6.35 0 0 0-1.93.57 22.12 22.12 0 0 0-3.52 1.87 37.33 37.33 0 0 0-5.3 4.28c-2.79 2.66-4.43 4.46-4.54 4.36z"/><rect class="cls-7" x="948.32" y="273.58" width="57.22" height="57.22" rx="6.3"/><path class="cls-3" d="M986.47 307.19h-18.9a.82.82 0 0 1 0-1.64h18.21l2-11.11h-22a.82.82 0 1 1 0-1.64h22.93a.82.82 0 0 1 .81 1l-2.26 12.75a.82.82 0 0 1-.79.64z"/><path class="cls-3" d="M985.84 311.65l-18-.06a.83.83 0 0 1-.81-.72l-2.54-19.82h-5.06a.82.82 0 1 1 0-1.64h5.78a.81.81 0 0 1 .81.71l2.55 19.88 17.28.06a.82.82 0 0 1 .81.82.82.82 0 0 1-.82.77z"/><path class="cls-3" d="M970.78 318.05a3.06 3.06 0 1 1 3.06-3.06 3.06 3.06 0 0 1-3.06 3.06zm0-4.48a1.42 1.42 0 1 0 1.42 1.43 1.43 1.43 0 0 0-1.42-1.43zm12.42 4.48a3.06 3.06 0 1 1 3.06-3.06 3.06 3.06 0 0 1-3.06 3.06zm0-4.48a1.42 1.42 0 1 0 1.42 1.42 1.43 1.43 0 0 0-1.42-1.42zm-9.8-6.38a.81.81 0 0 1-.81-.77l-.77-12.34a.82.82 0 0 1 .76-.87.81.81 0 0 1 .87.77l.77 12.34a.82.82 0 0 1-.76.87zm6.91 0a.82.82 0 0 1-.77-.87l.68-12.33a.82.82 0 1 1 1.64.09l-.69 12.33a.82.82 0 0 1-.86.78z"/><path class="cls-3" d="M966.49 301a.82.82 0 0 1 0-1.64l21.11-.21a.87.87 0 0 1 .83.82.82.82 0 0 1-.82.82l-21.11.21zm-475.72 87a33.62 33.62 0 0 1-9.33-3.31L486.7 372a27.46 27.46 0 0 0 7.63 3.05 35 35 0 0 0 8.57 1.1 13.32 13.32 0 0 0 4.62-.55 1.78 1.78 0 0 0 1.31-1.65c0-.74-.55-1.24-1.65-1.53a46.35 46.35 0 0 0-5.39-.85 71.7 71.7 0 0 1-9.66-1.73 15.18 15.18 0 0 1-7-4.12q-3-3-3-8.73a13 13 0 0 1 2.71-8.06 18.38 18.38 0 0 1 8.1-5.68 35.37 35.37 0 0 1 12.93-2.12 54.26 54.26 0 0 1 10.31 1 31.44 31.44 0 0 1 8.6 2.84l-5.25 12.63a27.15 27.15 0 0 0-13.4-3.39q-6.28 0-6.28 2.21c0 .73.57 1.25 1.7 1.56a38.6 38.6 0 0 0 5.34.9 64.1 64.1 0 0 1 9.63 1.78 15.55 15.55 0 0 1 7 4.15c2 2 3 4.95 3 8.74a12.74 12.74 0 0 1-2.71 7.88 18.25 18.25 0 0 1-8.14 5.68 36.28 36.28 0 0 1-13.15 2.12 54 54 0 0 1-11.75-1.23zm87.47-41.68q5.21 5.16 5.21 15.6v26.45h-19.16v-23.14q0-8-5.68-8a6.64 6.64 0 0 0-5.22 2.25q-2 2.25-2 7.08v21.79h-19.16v-62.89h19.17v20.26a19.38 19.38 0 0 1 13.06-4.58q8.54 0 13.78 5.18zm25.01 39.81a23.78 23.78 0 0 1-9.62-8.57 23.9 23.9 0 0 1 0-24.84 23.38 23.38 0 0 1 9.62-8.52 33.12 33.12 0 0 1 27.81 0 22.72 22.72 0 0 1 13 20.94 22.83 22.83 0 0 1-3.44 12.42 23.47 23.47 0 0 1-9.58 8.57 32.83 32.83 0 0 1-27.81 0zm19.29-14.25a9.9 9.9 0 0 0 2.12-6.74 9.74 9.74 0 0 0-2.12-6.7 7.39 7.39 0 0 0-10.85 0 9.69 9.69 0 0 0-2.12 6.7 9.85 9.85 0 0 0 2.12 6.74 7.29 7.29 0 0 0 10.85 0zm69.74-27.81a21.12 21.12 0 0 1 8.15 8.44 28.28 28.28 0 0 1 0 25.39 21.2 21.2 0 0 1-8.15 8.4 22.27 22.27 0 0 1-11.23 2.92q-7.71 0-11.79-4v19.58H650.1V342h18.23v3.82q4.15-4.67 12.72-4.67a22.28 22.28 0 0 1 11.23 2.92zm-10.38 27.85a9.71 9.71 0 0 0 2.12-6.69 9.91 9.91 0 0 0-2.12-6.75 7.32 7.32 0 0 0-10.86 0 9.91 9.91 0 0 0-2.12 6.75 9.71 9.71 0 0 0 2.12 6.69 7.38 7.38 0 0 0 10.86 0zm238.28-2.39l-83.26 29.56a3.07 3.07 0 0 1-2-5.78l80.84-28.7-9-53.55-97.6 34.65a3.07 3.07 0 1 1-2-5.78l101-35.87a3.06 3.06 0 0 1 2.57.25 3 3 0 0 1 1.47 2.13l10 59.7a3.06 3.06 0 0 1-2.02 3.39z"/><path class="cls-3" d="M924.4 390.16L845 418a3.07 3.07 0 0 1-3.75-1.5l-42.52-84-22.93 8.2a3.06 3.06 0 1 1-2-5.77l25.47-9a3.06 3.06 0 0 1 3.76 1.5l42.52 84 76.86-27a3.06 3.06 0 1 1 2 5.78zm-56.35 51.77a13.54 13.54 0 1 1 8.24-17.29 13.56 13.56 0 0 1-8.24 17.29zm-7-19.75a7.41 7.41 0 1 0 9.47 4.51 7.43 7.43 0 0 0-9.52-4.51zm61.74.32a13.54 13.54 0 1 1 8.21-17.29 13.57 13.57 0 0 1-8.21 17.29zm-7-19.75a7.41 7.41 0 1 0 9.47 4.51 7.42 7.42 0 0 0-9.48-4.51z"/><path class="cls-3" d="M862.63 390a3.06 3.06 0 0 1-3.84-1.68l-22.69-53.2a3.07 3.07 0 0 1 1.62-4 3 3 0 0 1 4 1.62l22.68 53.15a3.06 3.06 0 0 1-1.61 4zm30.45-10.85l-.17.06a3.07 3.07 0 0 1-3.8-2.08l-16.26-55.44a3 3 0 0 1 2.08-3.8 3.07 3.07 0 0 1 3.8 2.08L895 375.41a3.06 3.06 0 0 1-1.92 3.74z"/><path class="cls-3" d="M822.51 373.6a3.07 3.07 0 0 1-2.08-5.77l92.68-33.91a3.06 3.06 0 0 1 2.08 5.76L822.5 373.6z"/><path d="M567.13 205.5c14.85-3.95 33.28-1.23 48.13-5.17 2.22-.59 4.65-1.17 6.73-.21 2.51 1.15 3.61 4.12 4 6.85 1 7.56-1.81 15.38-6.81 21.14s-12 9.58-19.37 11.53c-5.93 1.58-12.41 2-18-.44-9.91-4.2-16.21-23.11-14.68-33.7z" class=""/><path class="cls-11" d="M628.19 227.73s8.17-11.56 9-16.63-2.49-23.29-2.49-23.29-7.4-5.45-9.88-2.71a34.63 34.63 0 0 0-4.6-4.29c-3.93-3.35-5.86-5.69-13.55-2.67 0 0-6.38-5.61-9.68-4.84a52.12 52.12 0 0 0-6.53 2s-12.79.63-15 4.92c-1 1.87-3.22 3.32-5.43 4.36a15.86 15.86 0 0 0-8.33 9.13 32.78 32.78 0 0 0-1.53 11.34l13.33.41s1.49 28.74 5 30.84 4.64 1.14 4.64 1.14 5.79 5.16 10.08.57c0 0 10.53 1.81 13.66-1.82s12.84-36.66 12.84-36.66l1.1 15.87s-5.72 10.86-2.24 13 9.61-.67 9.61-.67z"/><path class="cls-13" d="M587.9 200.75c-.56 0-1.45 8.07-3.31 17.94s-3.91 17.76-3.38 17.93 3.42-7.57 5.27-17.58 1.92-18.27 1.42-18.29zm22-7.34c-.51-.15-3.64 9.28-7 21.05s-5.66 21.43-5.15 21.58 3.64-9.28 7-21 5.66-21.49 5.15-21.63z"/><path class="cls-14" d="M361.79 237.93a46.78 46.78 0 0 0 2.66-21.93c-1.49-11.19-7.11-19.11-10-23.07-12.74-17.51-30.93-23.25-40.52-26.27a101.15 101.15 0 0 0-35.74-4.13c-10.74.67-21.48 4.25-43 11.39-13.87 4.62-17.65 6.65-21.42 9.63-9.55 7.57-13.85 17.21-16.76 23.91-5.68 13.09-4.16 18.19-9.1 39.84-3.83 16.74-4.84 14.13-9.22 32-5 20.3-3.6 23.44-9 47.7-3.69 17-5.69 25.74-10.59 35-6.72 12.82-10.48 12.22-19 24.63-3.82 5.59-22.51 32.87-18.42 63.95 2 15.1 7.29 15.46 7.1 29.28-.18 13.62-5.49 24.57-12.1 38.19-7.47 15.41-10.4 16.07-13.76 25.56-5 14-4.12 28.19-1.67 40a70.71 70.71 0 0 1 10-29.6c7.46-11.82 15-14.69 22-23s14.14-22.73 13.43-49.15c8.45 29.23 4.39 45.84-1.44 55.77-8.35 14.2-22.07 17.67-27.75 35.39-3.51 11-2.12 21.65-.33 29.08a65.28 65.28 0 0 1 12.32-22.46c8.38-9.78 14.35-10.15 27.19-22 6.51-6 11.95-11.06 16.1-18.42 3.1-5.51 9.63-19.68 5.33-43.87 11.87 22.25 12.63 38.38 11.1 49s-5.17 14.2-4.11 25c1.6 16.43 11.93 29.12 16.09 34.25a81.15 81.15 0 0 0 14.32 13.75c-4.74-6.32-10.36-15.85-11.54-27.83-1.24-12.64 3.31-20.13 6.22-33.63 4.37-20.34 1.22-37.48.11-44.8-3.81-25.11-12.57-34.21-6.48-47.59 1.7-3.75 3.58-5.65 10.92-12.72 23.11-22.25 34.67-33.37 38.38-35.92 9.62-6.63 26.47-16.21 51.55-21.05 30.01-80.09 51.28-139.11 57.13-155.88z"/><path class="cls-14" d="M202 194.17c-14.55 15-20.31 35.87-24.75 56.55-5.54 25.85-12.34 50.11-24.8 73.07-2.8 5.16-5.68 10.06-7.6 15.71s-3.05 11.74-5.43 17.3c-3.86 9-10.8 16.32-16.83 23.66-6.38 7.76-11.78 16.29-13.56 26.74-1.85 11-.64 22.92 1.19 33.94 2.35 14.21 4.76 28 3.44 42.31a111.63 111.63 0 0 1-11.38 39.77c-2.45 4.92 4.89 8.9 7.45 4.11a119.85 119.85 0 0 0 13.83-63.89c-.76-11.92-4-23.9-3.75-35.84.29-12.28 8.71-19.12 15.41-27.64 6-7.6 12.74-14.72 17.28-23.49 5.5-10.62 3.83-21.57 5.76-33.1 2.17-12.95 9.45-24.91 13.56-37.21a350.82 350.82 0 0 0 9.5-35c5.57-25.07 8.66-52.71 26.47-71.49 3.4-3.59-2.38-9-5.79-5.46z"/><path class="cls-15" d="M347.58 284.7c-1.88 7.38-8.06 35.37 7.83 60.71a68.88 68.88 0 0 0 15.43 17.18c-13 9-29 10.92-40.69 4.16-17.49-10.09-16.48-34.58-13.32-48.31 5.17-22.37 26.72-32.03 30.75-33.74z"/><path class="cls-11" d="M329.15 190.65a150 150 0 0 1 39.3 45.1c8.76 15.52 24.92 44.17 15.87 71.18-1.28 3.82-5.35 15.44-16.76 23.91a45 45 0 0 1-26.64 8.7 24.22 24.22 0 0 0 28.84 21.7 44.21 44.21 0 0 1 5.48 16.34 45.47 45.47 0 0 1-4.89 26.51 81.91 81.91 0 0 1-65.73-8.22c.31-10-.7-28.47-12.36-45.59a77.5 77.5 0 0 0-7.75-9.44 66.67 66.67 0 0 0-15.86-11.94c-.7.48-10.73 7.1-21.53 1.77a24.6 24.6 0 0 1-13-24.73c.34-2.23 1.76-9.11 8-13.14a17.59 17.59 0 0 1 14.09-2 266.19 266.19 0 0 1 26.2-40.16c9.89-12.47 17.14-19.18 30-36.11 7.38-9.74 13.04-18.16 16.74-23.88z"/><path class="cls-16" d="M257.33 316.8a8.63 8.63 0 0 0-4.33 9.31c.91 4.76 5.53 8.09 9.77 7.35 5.1-.9 8.13-7.41 5.77-12.42-1.96-4.17-7.15-6.26-11.21-4.24z"/><path class="cls-15" d="M258.66 305.83c.84-2.15-6.22-11.22-12.76-9-4 1.36-6.73 6.54-5.77 12.42a33 33 0 0 1 6.66-2.17c7.3-1.56 11.32.18 11.87-1.25z"/><path class="cls-9" d="M372.16 242.66c-.29.7-3.94-.92-8.05.24s-6.38 4.34-7 3.89c-.3-.19-.13-1.35.85-2.8a9.63 9.63 0 0 1 5.39-3.82 9.88 9.88 0 0 1 6.63.52c1.59.75 2.34 1.66 2.18 1.97zm-44.85 14.65c-.3.7-3.95-.92-8.05.23s-6.39 4.34-7 3.89c-.3-.19-.14-1.34.84-2.8a9.73 9.73 0 0 1 5.4-3.81 9.88 9.88 0 0 1 6.63.52c1.59.75 2.34 1.66 2.18 1.97zM353.16 285c-.1-.26 2.3-1.47 6.25-3.23 1-.42 1.93-.93 1.86-1.8s-.86-2.09-1.8-3.34l-5.92-8.21c-8.33-11.73-14.74-21.49-14.34-21.81s7.46 8.92 15.79 20.65c2 2.9 4 5.66 5.81 8.31.81 1.24 2 2.59 2 4.53a2.74 2.74 0 0 1-1.18 2.22 6.56 6.56 0 0 1-1.69.78c-4.1 1.37-6.68 2.11-6.78 1.9zm-27.77-42c0 1.38-4.52 2.36-9.69 4.32s-9.3 4.12-10.16 3.05S308 245 314 242.72s11.42-1.03 11.39.28zm41.97-14.7c-.31.6-1.31.6-2.46.66a9.78 9.78 0 0 0-3.77.95 44 44 0 0 1-4.49 2c-1.33.42-2.36.42-2.73-.14s0-1.56.83-2.73a11.66 11.66 0 0 1 4.49-3.59 6.9 6.9 0 0 1 6.55.29c1.46.94 1.88 2.02 1.58 2.56z"/><path class="cls-13" d="M348.84 295.53a9 9 0 0 1 7.25-3.65 6.49 6.49 0 0 1 6 5.44 7 7 0 0 1-1.23 4.52 7.94 7.94 0 0 1-5.75 3.7 6.67 6.67 0 0 1-6.17-3.05 5.86 5.86 0 0 1 .47-6.87"/><path class="cls-9" d="M364.78 294.13c.13.15-.66 1.24-2.46 2.32a12.94 12.94 0 0 1-7.91 1.69 14.1 14.1 0 0 1-7.64-3.32c-1.66-1.44-2.32-2.68-2.18-2.8s1.1.77 2.79 1.88a16.32 16.32 0 0 0 7.12 2.63 15.17 15.17 0 0 0 7.32-1.12c1.79-.74 2.81-1.47 2.96-1.28zm-21.73-9.32c.2 0 .52.57.6 1.63a7 7 0 0 1-1 3.92 6.21 6.21 0 0 1-2.86 2.62c-.93.38-1.56.32-1.62.12-.13-.45 1.88-1.34 3.17-3.64s1.28-4.59 1.71-4.65z"/><path class="cls-12" d="M1040.78 686.94H56.28a21.08 21.08 0 0 0 0 42.15h984.5a21.08 21.08 0 0 0 0-42.15z"/><path class="cls-12" d="M118 710.69A1015.11 1015.11 0 0 1 128.83 868a995.1 995.1 0 0 1-28 227.47l40.42 7.26A1171 1171 0 0 0 164.58 868a1180 1180 0 0 0-11.37-162.48zm874.59 3.76A1005.71 1005.71 0 0 0 981.71 871a986.82 986.82 0 0 0 28 226.37l-40.41 7.23a1170.91 1170.91 0 0 1-11.95-395.31z"/><path class="cls-10" d="M184.55 932.25c-.1 0-.2-1.34-.66-3.74a47.64 47.64 0 0 0-3-9.84 37.53 37.53 0 0 0-8.51-12.48 23.73 23.73 0 0 0-33.39-.11 37.25 37.25 0 0 0-8.57 12.44 47.53 47.53 0 0 0-3 9.83c-.47 2.4-.57 3.75-.67 3.74a4.37 4.37 0 0 1 0-1 26.64 26.64 0 0 1 .3-2.81 42.82 42.82 0 0 1 2.78-10 37.18 37.18 0 0 1 8.59-12.81 24.41 24.41 0 0 1 34.55.11 37.3 37.3 0 0 1 8.53 12.85 42.92 42.92 0 0 1 2.74 10c.18 1.22.26 2.17.29 2.82a4.29 4.29 0 0 1 .02 1z"/><path class="cls-10" d="M194.53 932.25c-.1 0-.19-1.34-.66-3.74a46.42 46.42 0 0 0-3-9.84 37.38 37.38 0 0 0-8.51-12.48 23.73 23.73 0 0 0-33.39-.11 37.4 37.4 0 0 0-8.57 12.44 46.78 46.78 0 0 0-3 9.83c-.48 2.4-.58 3.75-.67 3.74a3.39 3.39 0 0 1 0-1 27.24 27.24 0 0 1 .31-2.81 42.33 42.33 0 0 1 2.78-10 37.14 37.14 0 0 1 8.58-12.81 24.41 24.41 0 0 1 34.55.11 37.3 37.3 0 0 1 8.53 12.85 42.42 42.42 0 0 1 2.74 10 26.51 26.51 0 0 1 .3 2.82 3.85 3.85 0 0 1 .01 1z"/><path class="cls-17" d="M98.17 928.69L210.91 927.83 213.37 1081.51 86.85 1081.51 98.17 928.69z"/><path class="cls-12" d="M210.91 927.83L225.06 927.83 237.25 1081.51 213.37 1081.51 210.91 927.83z"/><path class="cls-3" d="M113.2 988.33H187.01V1000.7H113.2z"/><path class="cls-9" d="M133.14 962.34c-.25.07-.29-5.7-3.35-14a39.45 39.45 0 0 0-7.69-12.86 20.84 20.84 0 0 0-15-7.12 20.71 20.71 0 0 0-15.06 7 39.12 39.12 0 0 0-7.74 12.82c-3.1 8.29-3.14 14.06-3.4 14a4.55 4.55 0 0 1 0-1c0-.66.1-1.65.26-2.9a48.68 48.68 0 0 1 2.49-10.38 39.09 39.09 0 0 1 7.77-13.28 21.42 21.42 0 0 1 15.69-7.37 21.46 21.46 0 0 1 15.64 7.49 39.36 39.36 0 0 1 7.69 13.26 49.11 49.11 0 0 1 2.45 10.39 28.07 28.07 0 0 1 .25 2.91 3.77 3.77 0 0 1 0 1.04z"/><path class="cls-9" d="M142.17 962.34c-.26.07-.29-5.7-3.36-14a39.45 39.45 0 0 0-7.69-12.86 19.54 19.54 0 0 0-30.08-.11 39.33 39.33 0 0 0-7.75 12.82c-3.09 8.29-3.14 14.06-3.39 14a3.42 3.42 0 0 1 0-1 28.54 28.54 0 0 1 .26-2.9 48.68 48.68 0 0 1 2.49-10.38 39.21 39.21 0 0 1 7.76-13.28 20.24 20.24 0 0 1 31.34.12 39.49 39.49 0 0 1 7.71 13.25 48.62 48.62 0 0 1 2.46 10.39c.16 1.26.23 2.24.25 2.91a4.4 4.4 0 0 1 0 1.04z"/><path class="cls-10" d="M50.53 956.27L152.46 955.56 154.68 1082.03 40.3 1082.03 50.53 956.27z"/><path class="cls-10" d="M152.46 955.56L165.25 955.56 176.27 1082.03 154.68 1082.03 152.46 955.56z"/><path class="" d="M152.46 955.56L165.25 955.56 176.27 1082.03 154.68 1082.03 152.46 955.56z"/><path class="cls-3" d="M68.35 998.52H135.07999999999998V1011.3H68.35z"/><path class="cls-10" d="M651.75 858.07c.14 0 .28-2 1-5.48a68.68 68.68 0 0 1 4.38-14.42 54.77 54.77 0 0 1 12.47-18.29 34.79 34.79 0 0 1 48.93-.17A54.69 54.69 0 0 1 731.05 838a67.77 67.77 0 0 1 4.43 14.41c.7 3.5.85 5.49 1 5.47a5.45 5.45 0 0 0 0-1.44 40.38 40.38 0 0 0-.45-4.12 62.3 62.3 0 0 0-4.07-14.69 54.48 54.48 0 0 0-12.58-18.77 35.79 35.79 0 0 0-50.63.16 54.77 54.77 0 0 0-12.5 18.83 62.41 62.41 0 0 0-4 14.7 39.72 39.72 0 0 0-.43 4.12 5.51 5.51 0 0 0-.07 1.4z"/><path class="cls-10" d="M637.12 858.07c.14 0 .28-2 1-5.48a68.68 68.68 0 0 1 4.38-14.42 54.77 54.77 0 0 1 12.47-18.29 34.79 34.79 0 0 1 48.93-.17A54.69 54.69 0 0 1 716.42 838a68.5 68.5 0 0 1 4.44 14.41c.69 3.5.84 5.49 1 5.47a5.45 5.45 0 0 0 0-1.44 40.38 40.38 0 0 0-.45-4.12 62.3 62.3 0 0 0-4.07-14.69 54.48 54.48 0 0 0-12.58-18.77 35.79 35.79 0 0 0-50.63.16 54.77 54.77 0 0 0-12.5 18.83 62.91 62.91 0 0 0-4 14.7 39.72 39.72 0 0 0-.43 4.12 6.14 6.14 0 0 0-.08 1.4z"/><path class="cls-17" d="M778.33 852.85L613.13 851.59 609.52 1076.79 794.91 1076.79 778.33 852.85z"/><path class="cls-12" d="M613.13 851.59L592.39 851.59 574.53 1076.79 609.52 1076.79 613.13 851.59z"/><path class="cls-3" transform="rotate(-180 702.215 949.31)" d="M648.14 940.25H756.3V958.37H648.14z"/><path class="cls-9" d="M727.08 902.16c.37.1.42-8.36 4.91-20.53a58 58 0 0 1 11.27-18.85c5.4-5.95 13.31-10.39 22-10.42s16.64 4.33 22.07 10.26a57.29 57.29 0 0 1 11.34 18.79c4.54 12.15 4.61 20.61 5 20.51a5.77 5.77 0 0 0 0-1.5c0-1-.14-2.42-.38-4.26a71.45 71.45 0 0 0-3.65-15.16 57.4 57.4 0 0 0-11.38-19.45c-5.55-6.19-13.86-10.85-23-10.81s-17.4 4.76-22.93 11A57.84 57.84 0 0 0 731 881.18a71.6 71.6 0 0 0-3.6 15.22c-.24 1.85-.34 3.29-.37 4.27a5.83 5.83 0 0 0 .05 1.49z"/><path class="cls-9" d="M713.85 902.16c.38.1.42-8.36 4.92-20.53A57.64 57.64 0 0 1 730 862.78c5.39-5.95 13.31-10.39 22-10.42s16.65 4.33 22.07 10.26a57.5 57.5 0 0 1 11.35 18.79c4.53 12.15 4.6 20.61 5 20.51a6 6 0 0 0 0-1.5c0-1-.14-2.42-.38-4.26a71.58 71.58 0 0 0-3.63-15.16A57.53 57.53 0 0 0 775 861.5c-5.56-6.19-13.87-10.85-23-10.81s-17.4 4.76-22.92 11a57.67 57.67 0 0 0-11.3 19.51 71 71 0 0 0-3.6 15.22c-.24 1.85-.34 3.29-.37 4.27a5.63 5.63 0 0 0 .04 1.47z"/><path class="cls-10" d="M848.13 893.26L698.77 892.22 695.51 1077.54 863.11 1077.54 848.13 893.26z"/><path class="cls-10" d="M698.77 892.22L680.02 892.22 663.88 1077.54 695.51 1077.54 698.77 892.22z"/><path class="" d="M698.77 892.22L680.02 892.22 663.88 1077.54 695.51 1077.54 698.77 892.22z"/><path class="cls-3" transform="rotate(-180 773.13 964.535)" d="M724.24 955.17H822.02V973.9H724.24z"/></svg>