<svg width="0" height="0" style="position:absolute"><symbol viewBox="0 0 512 512" id="flag-br" xmlns="http://www.w3.org/2000/svg"><mask id="aa"><circle cx="256" cy="256" r="256" fill="#fff"/></mask><g mask="url(#aa)"><path fill="#6da544" d="M0 0h512v512H0z"/><path fill="#ffda44" d="M256 100.2L467.5 256 256 411.8 44.5 256z"/><path fill="#eee" d="M174.2 221a87 87 0 00-7.2 36.3l162 49.8a88.5 88.5 0 0014.4-34c-40.6-65.3-119.7-80.3-169.1-52z"/><path fill="#0052b4" d="M255.7 167a89 89 0 00-41.9 10.6 89 89 0 00-39.6 43.4 181.7 181.7 0 01169.1 52.2 89 89 0 00-9-59.4 89 89 0 00-78.6-46.8zM212 250.5a149 149 0 00-45 6.8 89 89 0 0010.5 40.9 89 89 0 00120.6 36.2 89 89 0 0030.7-27.3A151 151 0 00212 250.5z"/></g></symbol><symbol viewBox="0 0 512 512" id="flag-de" xmlns="http://www.w3.org/2000/svg"><mask id="ba"><circle cx="256" cy="256" r="256" fill="#fff"/></mask><g mask="url(#ba)"><path fill="#ffda44" d="M0 345l256.7-25.5L512 345v167H0z"/><path fill="#d80027" d="M0 167l255-23 257 23v178H0z"/><path fill="#333" d="M0 0h512v167H0z"/></g></symbol><symbol viewBox="0 0 512 512" id="flag-es" xmlns="http://www.w3.org/2000/svg"><mask id="ca"><circle cx="256" cy="256" r="256" fill="#fff"/></mask><g mask="url(#ca)"><path fill="#d80027" d="M0 0h512v128l-39.8 130.3L512 384v128H0V384l37.8-124L0 128z"/><path fill="#ffda44" d="M0 128h512v256H0z"/></g></symbol><symbol viewBox="0 0 512 512" id="flag-fr" xmlns="http://www.w3.org/2000/svg"><mask id="da"><circle cx="256" cy="256" r="256" fill="#fff"/></mask><g mask="url(#da)"><path fill="#eee" d="M167 0h178l25.9 252.3L345 512H167l-29.8-253.4z"/><path fill="#0052b4" d="M0 0h167v512H0z"/><path fill="#d80027" d="M345 0h167v512H345z"/></g></symbol><symbol viewBox="0 0 512 512" id="flag-hu" xmlns="http://www.w3.org/2000/svg"><mask id="ea"><circle cx="256" cy="256" r="256" fill="#fff"/></mask><g mask="url(#ea)"><path fill="#eee" d="M0 167l253.8-19.3L512 167v178l-254.9 32.3L0 345z"/><path fill="#d80027" d="M0 0h512v167H0z"/><path fill="#6da544" d="M0 345h512v167H0z"/></g></symbol><symbol viewBox="0 0 512 512" id="flag-it" xmlns="http://www.w3.org/2000/svg"><mask id="fa"><circle cx="256" cy="256" r="256" fill="#fff"/></mask><g mask="url(#fa)"><path fill="#eee" d="M167 0h178l25.9 252.3L345 512H167l-29.8-253.4z"/><path fill="#6da544" d="M0 0h167v512H0z"/><path fill="#d80027" d="M345 0h167v512H345z"/></g></symbol><symbol viewBox="0 0 512 512" id="flag-nl" xmlns="http://www.w3.org/2000/svg"><mask id="ga"><circle cx="256" cy="256" r="256" fill="#fff"/></mask><g mask="url(#ga)"><path fill="#eee" d="M0 167l253.8-19.3L512 167v178l-254.9 32.3L0 345z"/><path fill="#a2001d" d="M0 0h512v167H0z"/><path fill="#0052b4" d="M0 345h512v167H0z"/></g></symbol><symbol viewBox="0 0 512 512" id="flag-pl" xmlns="http://www.w3.org/2000/svg"><mask id="ha"><circle cx="256" cy="256" r="256" fill="#fff"/></mask><g mask="url(#ha)"><path fill="#d80027" d="M0 256l256.4-44.3L512 256v256H0z"/><path fill="#eee" d="M0 0h512v256H0z"/></g></symbol><symbol viewBox="0 0 512 512" id="flag-pt_BR" xmlns="http://www.w3.org/2000/svg"><mask id="ia"><circle cx="256" cy="256" r="256" fill="#fff"/></mask><g mask="url(#ia)"><path fill="#6da544" d="M0 0h512v512H0z"/><path fill="#ffda44" d="M256 100.2L467.5 256 256 411.8 44.5 256z"/><path fill="#eee" d="M174.2 221a87 87 0 00-7.2 36.3l162 49.8a88.5 88.5 0 0014.4-34c-40.6-65.3-119.7-80.3-169.1-52z"/><path fill="#0052b4" d="M255.7 167a89 89 0 00-41.9 10.6 89 89 0 00-39.6 43.4 181.7 181.7 0 01169.1 52.2 89 89 0 00-9-59.4 89 89 0 00-78.6-46.8zM212 250.5a149 149 0 00-45 6.8 89 89 0 0010.5 40.9 89 89 0 00120.6 36.2 89 89 0 0030.7-27.3A151 151 0 00212 250.5z"/></g></symbol><symbol viewBox="0 0 512 512" id="flag-sk" xmlns="http://www.w3.org/2000/svg"><mask id="ja"><circle cx="256" cy="256" r="256" fill="#fff"/></mask><g mask="url(#ja)"><path fill="#0052b4" d="M0 167l253.8-19.3L512 167v178l-254.9 32.3L0 345z"/><path fill="#eee" d="M0 0h512v167H0z"/><path fill="#d80027" d="M0 345h512v167H0z"/><path fill="#eee" d="M66.2 144.7v127.7c0 72.6 94.9 95 94.9 95s94.9-22.4 94.9-95V144.7z"/><path fill="#d80027" d="M88.5 144.7v127.7a54 54 0 005.6 24.1h134a53.6 53.6 0 005.6-24.1V144.7z"/><path fill="#eee" d="M205.6 233.7h-33.4v-22.2h22.3v-22.3h-22.3V167H150v22.2h-22.3v22.3H150v22.2h-33.4V256H150v22.3h22.2V256h33.4z"/><path fill="#0052b4" d="M124.5 327.6a160 160 0 0036.6 16.6c7.5-2.3 22.3-7.6 36.6-16.6a80 80 0 0030.4-31 38.8 38.8 0 00-22.5-7.2c-3 0-6 .4-8.8 1a39 39 0 00-71.4 0 39 39 0 00-8.8-1c-8.4 0-16.1 2.6-22.5 7.1a80 80 0 0030.4 31.1z"/></g></symbol><symbol viewBox="0 0 512 512" id="flag-us" xmlns="http://www.w3.org/2000/svg"><mask id="ka"><circle cx="256" cy="256" r="256" fill="#fff"/></mask><g mask="url(#ka)"><path fill="#eee" d="M0 256L256 0h256v55.7l-20.7 34.5 20.7 32.2v66.8l-21.2 32.7L512 256v66.8l-24 31.7 24 35.1v66.7l-259.1 28.3L0 456.3v-66.7l27.1-33.3L0 322.8z"/><path fill="#d80027" d="M256 256h256v-66.8H236.9zm-19.1-133.6H512V55.7H236.9zM512 512v-55.7H0V512zM0 389.6h512v-66.8H0z"/><path fill="#0052b4" d="M0 0h256v256H0z"/><path fill="#eee" d="M15 14.5L6.9 40H-20L1.7 55.8l-8.3 25.5L15 65.5l21.6 15.8-8.2-25.4L50.2 40H23.4zm91.8 0L98.5 40H71.7l21.7 15.8-8.3 25.5 21.7-15.8 21.7 15.8-8.3-25.4L142 40h-26.8zm91.9 0l-8.3 25.6h-26.8l21.7 15.8-8.3 25.5 21.7-15.8 21.6 15.7-8.2-25.3 21.7-16H207zM15 89.2l-8.3 25.5H-20l21.7 15.8-8.3 25.5L15 140l21.6 15.7-8.2-25.3 21.7-16H23.4zm91.8 0l-8.3 25.5H71.8l21.7 15.8-8.3 25.5 21.7-15.8 21.6 15.7-8.2-25.3 21.7-16h-26.8zm91.8 0l-8.3 25.5h-26.8l21.7 15.8-8.3 25.5 21.7-15.8 21.6 15.7-8.2-25.3 21.7-16H207zM15 163.6l-8.3 25.5H-20L1.6 205l-8.3 25.5L15 214.6l21.7 15.8-8.3-25.4 21.7-15.9H23.3zm91.8 0l-8.3 25.5H71.7L93.4 205l-8.3 25.5 21.7-15.8 21.7 15.8-8.3-25.4 21.7-15.9h-26.8zm91.8 0l-8.3 25.5h-26.8l21.7 15.8-8.3 25.5 21.7-15.8 21.7 15.8L212 205l21.7-15.9H207z"/></g></symbol></svg>