<svg xmlns="http://www.w3.org/2000/svg" viewBox="0 0 620 639" fill="none"><path fill="#008B86" d="M147.734 230.041C106.777 43.153 73.777-.245 49.89.001 23.35.274-1.894 54.53.112 99.049c2.894 64.221 63.201 123.945 147.622 130.992z"/><path stroke="#224860" stroke-linecap="round" stroke-linejoin="round" stroke-width="3.796" d="M129.041 160.521 9.381 52.975m116.944 93.992L11.299 44.222M135.995 187.5 4.683 70.24m127.576 102.567L6.293 60.597"/><path stroke="#B6D8E2" stroke-miterlimit="10" stroke-width="2.847" d="m33.229 103.036 88.749 147.362M34 121.501l88.754 147.315M105.838 158.94 64.965 326.037m29.56-152.794L53.691 340.31"/><path fill="#FF8780" d="M137.789 245.06c86.563-131.294 93.194-175.613 79.351-189.538-15.381-15.472-61.808.776-86.873 27.49-36.158 38.532-36.74 108.296 7.522 162.048z"/><path stroke="#224860" stroke-linecap="round" stroke-linejoin="round" stroke-width="3.12" d="m168.007 194.186-5.292-132.14m11.717 122.766-5.463-126.656M156.11 213.752l-6.256-144.571m12.765 133.946L156.455 64.6"/><path stroke="#B6D8E2" stroke-miterlimit="10" stroke-width="2.34" d="M94.03 4.423 165.7 126.31M95.56 19.333l71.676 121.849M108.132 3.917l71.67 121.889M109.663 18.827l71.675 121.849"/><path fill="#008B86" d="M436 595.785c99.265-147.534 142.617-173.767 163.179-165.391 22.846 9.305 26.124 64.825 9.177 102.619-24.447 54.518-96.982 85.529-172.356 62.772z"/><path stroke="#224860" stroke-linecap="round" stroke-linejoin="round" stroke-width="3.826" d="m475.913 542.086 140.176-52.064m-133.196 41.276 134.529-49.496m-156.739 81.225 153.566-56.477m-145.316 45.054 147.22-53.938"/><path stroke="#B6D8E2" stroke-miterlimit="10" stroke-width="2.869" d="m483 478 46 156m7-164 46 157m-60-146 45 157m-69-172 45 158"/></svg>
