<svg viewBox="0 0 63 63" xmlns="http://www.w3.org/2000/svg" xml:space="preserve" fill-rule="evenodd" clip-rule="evenodd" stroke-linejoin="round" stroke-miterlimit="2"><g transform="matrix(.99926 0 0 .9876 -.088 .098)"><path fill="none" d="M.088-.1h62.635v63.726H.088z"/><clipPath id="prefix__a"><path d="M.088-.1h62.635v63.726H.088z"/></clipPath><g fill="#118af7" fill-rule="nonzero" clip-path="url(#prefix__a)"><path d="M19.2 11.784h14.964c.622 0 1.126-.709 1.126-1.583 0-.873-.504-1.582-1.126-1.582H19.2c-.622 0-1.126.709-1.126 1.582 0 .874.504 1.583 1.126 1.583zM19.11 27.62h22.968c.572 0 1.035-.709 1.035-1.583 0-.873-.463-1.582-1.035-1.582H19.11c-.572 0-1.038.709-1.038 1.582 0 .874.466 1.583 1.038 1.583zm0-7.916h22.968c.572 0 1.035-.71 1.035-1.585 0-.874-.463-1.583-1.035-1.583H19.11c-.572 0-1.038.709-1.038 1.583 0 .876.466 1.585 1.038 1.585z"/><path d="M50.427 21.07v-3.82h9.879c.674 0 1.22-.553 1.22-1.234v-8.47C61.527 3.772 58.492.7 54.759.7H15.517c-2.455 0-4.454 2.024-4.454 4.508V21.89l-7.74 5.226c-.038.023-.081.039-.118.069A6.142 6.142 0 0 0 .86 32.02v24.655c0 3.54 2.927 6.18 6.11 6.18h48.822c3.26 0 6.104-2.724 6.104-6.175V32.027a6.132 6.132 0 0 0-1.668-4.202c-.86-.93-.403-.366-9.8-6.754zm8.188 37.92L33.812 43.78 58.61 29.693c.538.663.837 1.48.837 2.328v24.65a3.7 3.7 0 0 1-.832 2.318zM3.307 56.68V32.025c0-.863.3-1.682.846-2.34L28.96 43.777 4.14 58.999a3.858 3.858 0 0 1-.832-2.324v.005zm52.815 3.668c-.114.012-.224.03-.337.03H6.963c-.107 0-.21-.018-.317-.027l24.74-15.17 24.736 15.165v.002zm.339-32.28-6.036 3.43V24.03l6.036 4.038zm2.622-20.522v7.235h-8.658V7.544c0-2.411 1.944-4.374 4.336-4.374 2.385 0 4.324 1.965 4.324 4.376h-.002zM13.507 5.21c0-1.123.904-2.035 2.012-2.035h34.033a6.97 6.97 0 0 0-1.57 4.373c.008 26.425.006-3.134.006 25.341l-16.6 9.433-17.881-10.16V5.21zm-2.441 25.566-4.757-2.702 4.757-3.213v5.915z"/><path d="M50.427 21.07h-.782v.422l.346.235.436-.656zm0-3.82v-.79h-.782v.79h.782zm-39.364 4.637.434.659.348-.233v-.423h-.782v-.003zm-7.74 5.229.411.675.023-.016-.434-.659zm-.118.069.484.622-.484-.625v.003zm57.022.64-.572.54.004.004.568-.544zM58.615 58.99l-.407.677.581.354.43-.526-.604-.505zM33.812 43.78l-.385-.692-1.168.664 1.148.704.405-.677zM58.61 29.693l.606-.503-.416-.513-.572.325.385.69h-.003zm-54.457-.007.384-.69-.568-.321-.418.503.602.508zM28.96 43.779l.407.677 1.146-.702-1.168-.663-.385.688zM4.14 59.001l-.604.503.43.526.579-.352-.407-.677h.002zm51.983 1.347.072.787 2.35-.226-2.018-1.238-.407.677h.003zm-49.474 0-.407-.674-2.043 1.25 2.38.213.068-.786.002-.003zm24.738-15.167.407-.677-.407-.251-.407.251.407.677zm25.075-17.113.384.69 1.117-.636-1.07-.715-.43.663-.001-.002zm-6.036 3.43h-.78v1.355l1.164-.664-.384-.69zm0-7.468.434-.66-1.214-.813v1.473h.782-.002zm8.658-9.25v.792h.784v-.791h-.784zm-8.656 0h-.782v.792h.782v-.791zm4.334-11.61v.792h.077l.074-.014-.151-.778zm0 .002V2.38h-.077l-.077.016.154.777zM49.55 3.17l.601.508 1.072-1.3H49.55v.792zm-1.571 4.376h-.782.782zm.007 25.34.384.692.398-.229v-.462h-.782zm-16.6 9.434-.384.69.384.218.384-.217-.384-.691zM13.505 32.16h-.785v.464l.4.229.385-.693zm-2.442-1.387-.384.691 1.166.664v-1.355h-.782zm-4.756-2.7-.434-.66-1.063.716 1.113.632.384-.691v.002zm4.756-3.215h.782v-1.48l-1.216.822.434.658zM19.2 12.576h14.965v-1.583H19.2v1.583zm14.965 0c.627 0 1.122-.357 1.431-.792.31-.434.475-.997.475-1.583h-1.562c0 .29-.086.52-.183.657a.372.372 0 0 1-.12.119c-.025.016-.038.016-.04.016v1.583zm1.908-2.375c0-.585-.167-1.146-.477-1.582-.31-.435-.804-.792-1.43-.792V9.41c.002 0 .015 0 .04.014a.445.445 0 0 1 .12.12c.097.138.18.367.18.657h1.567zm-1.908-2.374H19.2V9.41h14.965V7.827zm-14.965 0c-.626 0-1.121.357-1.43.792-.31.434-.476.997-.476 1.582h1.565c0-.29.083-.519.18-.656a.415.415 0 0 1 .12-.121c.025-.014.039-.014.041-.014V7.827zm-1.908 2.374c0 .586.167 1.146.477 1.583.31.435.805.792 1.431.792v-1.583c-.002 0-.016 0-.04-.016a.396.396 0 0 1-.12-.12 1.155 1.155 0 0 1-.181-.656H17.29zm1.82 18.21h22.968v-1.583H19.11v1.583zm22.968 0c.633 0 1.105-.39 1.385-.817.283-.435.432-.988.432-1.558h-1.564c0 .305-.082.543-.174.682-.095.146-.138.11-.08.11v1.583zm1.817-2.375c0-.571-.149-1.123-.432-1.555-.28-.43-.755-.819-1.385-.819v1.583c-.06 0-.016-.037.079.11.09.137.174.377.174.681h1.564zm-1.817-2.374H19.11v1.583h22.968v-1.583zm-22.968 0c-.633 0-1.108.389-1.386.817-.282.434-.434.986-.434 1.557h1.567c0-.304.081-.542.172-.681.095-.147.14-.11.081-.11v-1.583zm-1.82 2.374c0 .572.152 1.123.434 1.556.28.428.753.819 1.386.819v-1.583c.059 0 .014.036-.081-.11-.09-.137-.172-.377-.172-.682H17.29zm1.82-5.542h22.968v-1.583H19.11v1.583zm22.968 0c.633 0 1.105-.39 1.385-.819.283-.434.432-.985.432-1.555h-1.564c0 .302-.082.542-.174.682-.095.146-.138.11-.08.11v1.582zm1.817-2.376c0-.57-.149-1.121-.432-1.556-.28-.427-.755-.818-1.385-.818v1.582c-.06 0-.016-.036.079.11.09.14.174.38.174.682h1.564zm-1.817-2.374H19.11v1.582h22.968v-1.582zm-22.968 0c-.633 0-1.108.39-1.386.818-.282.435-.434.984-.434 1.556h1.567c0-.302.081-.542.172-.682.097-.146.14-.11.081-.11v-1.582zm-1.82 2.374c0 .572.152 1.125.434 1.557.28.428.753.82 1.386.82V18.91c.059 0 .014.037-.081-.11-.09-.139-.172-.379-.172-.683H17.29zM51.21 21.07v-3.82h-1.564v3.82h1.564zm-.782-3.029h9.879V16.46h-9.879v1.583zm9.879 0c1.105 0 2.003-.908 2.003-2.026h-1.567a.441.441 0 0 1-.436.443v1.583zm2.003-2.026v-8.47h-1.567v8.47h1.567zm0-8.47c0-4.211-3.387-7.64-7.55-7.64v1.585c3.3 0 5.983 2.718 5.983 6.055h1.567zm-7.55-7.64-.048.005h-.007.045v1.58h.052-.043V-.094zm-.012.002h-39.23v1.583h39.23V-.092zm-39.23 0c-2.887 0-5.236 2.38-5.236 5.3h1.564c0-2.047 1.648-3.717 3.674-3.717V-.092h-.002zm-5.236 5.3V21.89h1.564V5.208h-1.564zm.348 16.023-7.74 5.226.868 1.318 7.74-5.229-.868-1.315zm-7.717 5.21.022-.011-.025.011c-.03.016-.106.055-.187.12l.967 1.246-.056.039-.016.009.011-.007.023-.011c.02-.01.05-.026.081-.046l-.82-1.35zm-.19.12A6.943 6.943 0 0 0 .077 32.02H1.64a5.35 5.35 0 0 1 2.048-4.213l-.965-1.247h-.002zM.077 32.02v24.655H1.64V32.022H.077v-.002zm0 24.653c0 4.002 3.305 6.971 6.892 6.971v-1.582c-2.778 0-5.328-2.31-5.328-5.39H.077zm6.892 6.971h48.822v-1.582H6.97v1.582zm48.822 0c3.68 0 6.886-3.065 6.886-6.967h-1.564c0 3.001-2.48 5.385-5.322 5.385v1.582zm6.886-6.967v-24.65h-1.564v24.65h1.564zm0-24.65a6.935 6.935 0 0 0-1.88-4.746l-1.138 1.088a5.336 5.336 0 0 1 1.454 3.66h1.564v-.002zm-1.876-4.742a5.214 5.214 0 0 0-.665-.633c-.255-.202-.601-.437-1.18-.82-1.168-.775-3.4-2.227-8.093-5.42l-.872 1.315c4.702 3.198 6.942 4.657 8.109 5.43.59.391.879.588 1.073.744.174.137.272.237.482.464l1.144-1.08h.002zm-1.78 31.028-24.805-15.21-.809 1.353 24.803 15.21.812-1.353zM34.195 44.47l.323-.183.063-.037.014-.007s-1.063-.304-.767-1.381l-.232.133-.136.077-.034.019h-.002s-.3 1.08.764 1.383l.007-.004.608-.343 24.193-13.742-.769-1.382-24.19 13.742-.606.343-.01.005c1.068.302.77 1.381.77 1.381v-.002l.035-.02.136-.076.233-.133h.002c.298-1.08-.766-1.383-.766-1.381h-.003l-.01.007-.066.036-.321.183.764 1.382zm23.81-14.273c.43.526.66 1.167.66 1.823h1.565a4.488 4.488 0 0 0-1.013-2.827l-1.211 1.002v.002zm.66 1.823v24.655h1.565V32.022h-1.564v-.002zm0 24.653c0 .608-.212 1.274-.653 1.811l1.208 1.009a4.509 4.509 0 0 0 1.01-2.82h-1.564zm-54.575.004v-24.65H2.525v24.65h1.564zm0-24.65c0-.673.235-1.313.665-1.832L3.55 29.179a4.46 4.46 0 0 0-1.026 2.848h1.564zm-.318-1.65 23.95 13.606.796.453.048.027.018.01c1.058-.312.757-1.385.757-1.385l-.07-.04-.192-.108-.002-.003s.298 1.075-.764 1.382h-.003l.039.023.23.128.764-1.382-.226-.128-.038-.023h-.005l-.004-.004c-1.063.306-.764 1.381-.762 1.384l.005.002.192.11.068.039s-.301-1.075.76-1.387l.008.005-.009-.005-.047-.025-.796-.453L4.535 28.996l-.764 1.382zm24.785 12.725L3.734 58.324l.81 1.354 24.821-15.222-.81-1.354zM4.74 58.496a3.074 3.074 0 0 1-.65-1.819H2.524c0 .924.346 2.018 1.01 2.827l1.205-1.006v-.002zm51.307 1.063c-.18.019-.197.025-.262.025v1.586c.162 0 .368-.03.409-.035l-.147-1.576zm-.262.025H6.963v1.586h48.822v-1.586zm-48.822 0c-.064 0-.06-.006-.247-.022L6.58 61.14c.02 0 .233.03.383.03v-1.586zm.09 1.441L31.79 45.858l-.81-1.354L6.24 59.671l.812 1.354h.002zM30.98 45.858l24.734 15.165.813-1.352-24.737-15.167-.81 1.354zM56.08 27.377l-6.036 3.43.768 1.382 6.034-3.43-.769-1.382h.003zm-4.87 4.122V24.03h-1.564V31.5h1.564zm-1.214-6.808 6.036 4.038.861-1.322-6.035-4.038-.862 1.322zm8.308-17.145v7.235h1.564V7.546h-1.566.002zm.782 6.443h-8.658v1.583h8.658v-1.583zm-7.876.792V7.544h-1.564v7.237h1.564zm0-7.237c0-1.972 1.592-3.582 3.55-3.582V2.379c-2.82 0-5.114 2.315-5.114 5.165h1.564zm3.703-3.596h.002l-.307-1.555.305 1.555zm-.151.014c1.953 0 3.54 1.61 3.54 3.584h1.566c0-2.85-2.29-5.165-5.104-5.17v1.586h-.002zM14.287 5.208c0-.686.554-1.246 1.23-1.246V2.379c-1.542 0-2.797 1.27-2.797 2.83h1.567zm1.23-1.246h34.035V2.379H15.517v1.583zm33.434-1.3a7.78 7.78 0 0 0-1.754 4.884h1.566c0-1.384.504-2.795 1.388-3.866l-1.2-1.018zm-1.754 4.884L47.2 18.65v1.05l.002.02c0 .02.543.714 1.368.487.136-.215.195-.475.197-.491v-.442.005c0 .004-.771.782-1.565.03v-.035 13.612h1.565V19.232c-.791-.753-1.565.025-1.565.032v.384c0-.016.064-.277.197-.492.825-.229 1.366.467 1.368.487v-.995c0-1.388-.005-4.496-.005-11.102h-1.566zm.407 24.65-16.195 9.202-.407.231-.005.002-.002.003c-.294 1.077.769 1.379.769 1.379h.004c.002-.005.011-.01.023-.014l.09-.052.156-.09c-1.062-.302-.769-1.379-.769-1.379l-.006.005-.043.023-.217.123.768 1.382.215-.124.045-.023.007-.007h.002s.296-1.08-.764-1.381h-.002l-.158.091-.09.05-.023.014h-.003s1.063.302.77 1.38h-.003.004l.405-.23c1.092-.624 4.817-2.74 16.193-9.203l-.764-1.382zM31.77 41.63 13.89 31.469l-.769 1.381 17.882 10.16.768-1.381zm-17.483-9.467V5.21H12.72v26.952h1.567zm-2.842-2.08-4.756-2.7-.766 1.379 4.756 2.703.769-1.381h-.003zM6.741 28.73l4.756-3.212-.868-1.317-4.756 3.213.868 1.316zm3.54-3.87v5.914h1.564v-5.915h-1.564z"/></g></g></svg>
