<svg width="24" height="24" fill="none" xmlns="http://www.w3.org/2000/svg"><path d="M12.006.002C18.63.005 23.999 5.376 23.999 12v.005C23.997 18.63 18.623 24 11.997 23.998 5.37 23.996 0 18.62.003 11.996.006 5.37 5.38 0 12.006.002zm-.062 3.086c-.33 1.247-1.44 2.354-2.603 3.518-1.74 1.744-3.718 3.718-3.718 6.682a6.33 6.33 0 0 0 6.314 6.322 6.329 6.329 0 0 0 6.33-6.322c0-2.964-1.973-4.937-3.719-6.682l-.156-.156c-1.105-1.107-2.134-2.17-2.448-3.362zm.086 9.466a35.087 35.087 0 0 1 1.664 1.89c.036.043.068.09.097.14a2.187 2.187 0 1 1-3.402-.236c.466-.55 1.028-1.091 1.641-1.793zm-2.889-2.9l.305.288 1.416 1.448a.161.161 0 0 1 0 .213l-1.48 1.636-.518.63c-.197.24-.364.503-.497.783a.153.153 0 0 1-.108.092h-.053c-.143-.012-.308-.277-.308-.277l-.026-.04a1.77 1.77 0 0 1-.094-.165l-.028-.06a3.752 3.752 0 0 1-.048-2.03l.02-.069c.157-.555.405-1.08.734-1.554.211-.311.44-.61.685-.895zm2.812-2.928c.378.429.803.858 1.204 1.259l.008.028c.839.78 1.596 1.643 2.263 2.575.565.795.874 1.743.886 2.719 0 .422-.064.84-.189 1.243l-.006.017a.256.256 0 0 1-.194.156h-.04a.363.363 0 0 1-.205-.165l-.067-.1a11.125 11.125 0 0 0-1.216-1.504l-.578-.61-1.926-2.006c-.325-.313-.906-.874-1.15-1.179a.296.296 0 0 0-.029-.047 1.05 1.05 0 0 1-.152-.301v-.06a.991.991 0 0 1 .075-.578c.054-.115.127-.22.217-.308.373-.373.746-.738 1.1-1.139z" fill="#009DDE"/></svg>