<?xml version="1.0" encoding="utf-8"?><svg width="72" height="48" viewBox="0 0 72 48" xmlns="http://www.w3.org/2000/svg" xmlns:xlink="http://www.w3.org/1999/xlink"><svg width="24" height="24" fill="none" viewBox="0 0 24 24" id="icons-menu-integrations-braintree" xmlns="http://www.w3.org/2000/svg"><path d="M4.9 19.858v-2.153h1.794V7.226H4.9V5.073h7.102c3.23 0 5.239 1.436 5.239 4.019 0 1.649-1.006 2.655-2.297 3.157 1.864.502 3.156 1.723 3.156 3.444.002 2.728-2.151 4.234-5.74 4.234H4.9v-.07zm4.233-12.63v4.018h2.655c2.008 0 3.014-.717 3.014-2.009 0-1.363-1.077-2.008-3.086-2.008l-2.583-.002zm0 10.477h3.014c2.368 0 3.515-.717 3.515-2.152 0-1.436-1.219-2.153-3.66-2.153H9.133v4.305z" fill="#3F3D43"/></svg><svg width="24" height="24" fill="none" viewBox="0 0 24 24" id="icons-menu-integrations-drupal" x="24" xmlns="http://www.w3.org/2000/svg"><path d="M12.006.002C18.63.005 23.999 5.376 23.999 12v.005C23.997 18.63 18.623 24 11.997 23.998 5.37 23.996 0 18.62.003 11.996.006 5.37 5.38 0 12.006.002zm-.062 3.086c-.33 1.247-1.44 2.354-2.603 3.518-1.74 1.744-3.718 3.718-3.718 6.682a6.33 6.33 0 006.314 6.322 6.329 6.329 0 006.33-6.322c0-2.964-1.973-4.937-3.719-6.682l-.156-.156c-1.105-1.107-2.134-2.17-2.448-3.362zm.086 9.466a35.087 35.087 0 011.664 1.89c.036.043.068.09.097.14a2.187 2.187 0 11-3.402-.236c.466-.55 1.028-1.091 1.641-1.793zm-2.889-2.9l.305.288 1.416 1.448a.161.161 0 010 .213l-1.48 1.636-.518.63c-.197.24-.364.503-.497.783a.153.153 0 01-.108.092h-.053c-.143-.012-.308-.277-.308-.277l-.026-.04a1.77 1.77 0 01-.094-.165l-.028-.06a3.752 3.752 0 01-.048-2.03l.02-.069c.157-.555.405-1.08.734-1.554a9.9 9.9 0 01.685-.895zm2.812-2.928c.378.429.803.858 1.204 1.259l.008.028c.839.78 1.596 1.643 2.263 2.575.565.795.874 1.743.886 2.719 0 .422-.064.84-.189 1.243l-.006.017a.256.256 0 01-.194.156h-.04a.363.363 0 01-.205-.165l-.067-.1a11.125 11.125 0 00-1.216-1.504l-.578-.61-1.926-2.006c-.325-.313-.906-.874-1.15-1.179a.296.296 0 00-.029-.047 1.05 1.05 0 01-.152-.301v-.06a.991.991 0 01.075-.578 1.06 1.06 0 01.217-.308c.373-.373.746-.738 1.1-1.139z" fill="#009DDE"/></svg><svg width="24" height="24" fill="none" viewBox="0 0 24 24" id="icons-menu-integrations-joomla" y="24" xmlns="http://www.w3.org/2000/svg"><path d="M23.969 3.308c0-1.731-1.414-3.134-3.159-3.134a3.15 3.15 0 00-3.126 2.69 2.9 2.9 0 00-.032-.016c-2.583-1.156-4.76.892-4.76.892L7.138 9.478l2.274 2.173 4.633-4.515c2.163-2.147 3.341-.694 3.341-.694 1.628 1.365.056 2.98.056 2.98l2.33 2.23c1.903-2.04 2.014-3.82 1.435-5.236a3.141 3.141 0 002.763-3.108z" fill="#F9AE41"/><path d="M21.236 17.721l.016-.031c1.166-2.563-.898-4.722-.898-4.722L14.57 7.257l-2.19 2.256 4.551 4.597c2.164 2.146.7 3.315.7 3.315-1.376 1.616-3.005.056-3.005.056l-2.246 2.312c2.055 1.888 3.85 1.998 5.276 1.424a3.15 3.15 0 003.133 2.74c1.745 0 3.159-1.402 3.159-3.133 0-1.58-1.18-2.887-2.712-3.103z" fill="#EE4035"/><path d="M14.62 12.376L9.986 16.89c-2.163 2.147-3.341.694-3.341.694-1.629-1.365-.056-2.98-.056-2.98l-2.33-2.23c-1.903 2.04-2.014 3.82-1.435 5.235a3.143 3.143 0 00-2.763 3.11c0 1.73 1.414 3.133 3.159 3.133a3.15 3.15 0 003.126-2.69l.032.016c2.583 1.156 4.76-.892 4.76-.892l5.755-5.739-2.274-2.172z" fill="#4F91CD"/><path d="M7.1 9.917c-2.164-2.146-.7-3.315-.7-3.315 1.376-1.616 3.004-.056 3.004-.056l2.246-2.312C9.595 2.346 7.802 2.237 6.375 2.81A3.15 3.15 0 003.242.07C1.497.07.083 1.472.083 3.202c0 1.58 1.18 2.887 2.712 3.103a2.35 2.35 0 00-.017.032c-1.165 2.563.899 4.721.899 4.721L9.46 16.77l2.19-2.256-4.552-4.597z" fill="#7AC043"/></svg><svg width="24" height="24" fill="none" viewBox="0 0 24 24" id="icons-menu-integrations-mailchimp" x="24" y="24" xmlns="http://www.w3.org/2000/svg"><path d="M17.01 11.414a1.7 1.7 0 01.437 0c.08-.178.094-.492.023-.825-.103-.502-.248-.806-.539-.76-.29.047-.305.413-.197.914.052.277.16.52.277.67zm-2.516.398c.21.094.337.155.389.099.089-.09-.164-.44-.567-.614a1.481 1.481 0 00-1.44.173c-.14.103-.271.244-.253.333.043.173.47-.127 1.065-.164.323-.024.595.08.806.173zm-.422.24c-.427.065-.703.304-.633.473.042.014.056.037.244-.038a1.76 1.76 0 01.881-.094c.136.015.202.024.234-.023.061-.098-.271-.37-.726-.319zm2.54.806c.16-.324-.51-.657-.67-.329-.16.324.516.652.67.329zm.736-.961c-.36-.005-.375.74-.014.75.366 0 .38-.746.014-.75zM7.073 15.6c-.06.014-.28.07-.398-.113-.244-.375.52-.956.14-1.683-.426-.82-1.307-.637-1.645-.262-.408.45-.408 1.106-.234 1.13.201.028.192-.305.347-.549a.6.6 0 01.839-.173c.544.356.065.834.108 1.345.065.783.867.769 1.012.422a.1.1 0 00-.01-.108c0 .052.029-.051-.159-.01zm14.082-.802c-.16-.553-.122-.431-.32-.965.118-.174.718-1.13-.144-2.03-.488-.511-1.594-.778-1.932-.872-.07-.534.22-2.756-1.012-3.9.975-1.012 1.584-2.128 1.584-3.084-.005-1.838-2.264-2.396-5.048-1.243l-.59.249-1.084-1.06C9.441-.871-.488 10.159 2.686 12.84l.694.586A3.396 3.396 0 003.187 15c.16 1.57 1.693 2.84 3.174 2.836 2.714 6.253 12.586 6.262 15.14.14.08-.21.427-1.157.427-1.992 0-.834-.473-1.186-.773-1.186zm-14.85 2.264c-1.074-.028-2.232-.994-2.344-2.137-.29-2.878 3.487-3.535 3.947-.582.215 1.393-.22 2.747-1.603 2.72zm-.868-5.367c-.712.14-1.34.544-1.725 1.102-.23-.193-.656-.563-.73-.704-.61-1.167.67-3.43 1.565-4.706 2.212-3.16 5.676-5.55 7.284-5.118.263.075 1.125 1.073 1.125 1.073s-1.603.89-3.089 2.133c-2.01 1.547-3.525 3.787-4.43 6.22zm11.222 4.753s-1.678.249-3.267-.333c.29-.946 1.27.286 4.528-.646.717-.207 1.66-.61 2.396-1.191.159.365.271.75.332 1.139.174-.033.67-.024.54.848-.155.933-.554 1.693-1.22 2.391-.416.45-.913.825-1.462 1.097-.305.16-.628.295-.956.403-2.513.82-5.086-.08-5.92-2.02-.066-.15-.122-.3-.17-.46-.35-1.28-.05-2.812.887-3.778.056-.06.117-.136.117-.225a.402.402 0 00-.089-.215c-.328-.479-1.467-1.29-1.238-2.86.165-1.13 1.149-1.922 2.072-1.875l.235.014c.398.024.745.075 1.073.09.549.023 1.046-.057 1.627-.544.197-.164.356-.31.623-.352a.82.82 0 01.638.103c.468.314.534 1.069.557 1.622.015.314.052 1.083.066 1.298.028.502.16.572.427.657.15.051.29.084.492.145.619.173.984.352 1.223.577a.786.786 0 01.225.435c.075.535-.412 1.196-1.706 1.791-2.194 1.017-4.402.68-4.72.642-.947-.126-1.486 1.097-.919 1.932 1.064 1.57 5.752.937 7.11-1.004.034-.046.006-.075-.032-.046-1.964 1.34-4.56 1.795-6.037 1.223-.225-.09-.694-.305-.75-.783 2.048.633 3.337.033 3.337.033s.103-.122-.019-.108zM9.525 7.373c.787-.91 1.753-1.701 2.625-2.142.014-.01.037-.005.047.014a.04.04 0 010 .033c-.07.126-.202.394-.244.595-.005.019.01.038.028.042.01.005.019 0 .028-.004.54-.366 1.482-.764 2.302-.811.019 0 .037.014.037.033a.042.042 0 01-.014.032 1.78 1.78 0 00-.36.366c-.01.014-.01.038.009.047.005.005.014.005.018.005.577.004 1.393.206 1.927.506.038.019.01.089-.028.08-3.267-.75-5.784.871-6.319 1.26-.019.01-.037.005-.051-.009-.014-.019-.014-.037-.005-.047z" fill="#000"/></svg><svg width="24" height="24" fill="none" viewBox="0 0 24 24" id="icons-menu-integrations-stripe" x="48" xmlns="http://www.w3.org/2000/svg"><path fill-rule="evenodd" clip-rule="evenodd" d="M10.506 8.46c0-.642.535-.89 1.398-.89A9.216 9.216 0 0116 8.63V4.752A10.867 10.867 0 0011.904 4c-3.328 0-5.56 1.744-5.56 4.655 0 4.554 6.254 3.814 6.254 5.777 0 .768-.656 1.006-1.58 1.006-1.362 0-3.12-.563-4.5-1.313v3.927c1.42.618 2.952.94 4.5.948 3.421 0 5.779-1.69 5.779-4.651 0-4.916-6.29-4.039-6.29-5.889z" fill="#6772E5"/></svg><svg width="24" height="24" fill="none" viewBox="0 0 24 24" id="icons-menu-integrations-wix" x="48" y="24" xmlns="http://www.w3.org/2000/svg"><path d="M13.769 8.152c-.397.198-.569.569-.569 1.574 0 0 .198-.199.516-.318.231-.086.397-.198.516-.284.343-.258.396-.569.396-1.11-.006 0-.549-.034-.86.138z" fill="#FBBD71"/><path d="M11.342 8.384c-.344.284-.43.773-.43.773l-1.11 4.258-.913-3.484c-.086-.37-.258-.827-.515-1.144-.318-.403-.979-.43-1.058-.43-.06 0-.714.027-1.058.43-.258.317-.43.773-.516 1.144l-.86 3.484-1.11-4.258s-.086-.456-.43-.773C2.8 7.894 2 8.014 2 8.014l2.116 7.966s.687.06 1.031-.112c.456-.232.688-.397.946-1.488.257-.972.945-3.801.998-4 .026-.086.086-.344.258-.344.172 0 .231.232.258.344.06.199.74 3.028.998 4 .284 1.084.483 1.256.945 1.488.344.172 1.032.112 1.032.112l2.102-7.967s-.8-.112-1.342.37zm3.28.912s-.146.198-.43.37c-.199.113-.37.172-.569.284-.344.172-.43.344-.43.602v5.402s.543.06.886-.113c.457-.231.543-.456.543-1.428V9.296zm5.256 2.718l2.684-3.974s-1.11-.198-1.686.317c-.37.318-.74.913-.74.913l-.972 1.428c-.06.086-.113.145-.199.145-.085 0-.171-.086-.198-.145l-.972-1.428s-.397-.569-.74-.913c-.569-.515-1.686-.317-1.686-.317l2.598 3.967-2.658 3.967s1.17.145 1.746-.37c.37-.318.714-.86.714-.86l.972-1.428c.06-.086.112-.146.198-.146.086 0 .172.087.198.146l.972 1.428s.37.542.714.86c.569.515 1.713.37 1.713.37l-2.658-3.96z" fill="#000"/></svg></svg>