<svg viewBox="0 0 46 45" xmlns="http://www.w3.org/2000/svg" xml:space="preserve" fill-rule="evenodd" clip-rule="evenodd" stroke-linejoin="round" stroke-miterlimit="2"><path fill="none" d="M0 0h45.405V44.39H0z"/><path d="m14.086 22.167.216-.028c.342-.01.669-.148.918-.388a1.341 1.341 0 0 0-.001-1.869 1.29 1.29 0 0 0-.917-.389c-4.6.52-8.822 2.847-11.77 6.486A17.683 17.683 0 0 0 .39 29.35a1.348 1.348 0 0 0-.115.991c.09.333.304.617.596.792a1.283 1.283 0 0 0 1.76-.448c.449-.906.97-1.772 1.559-2.59.028-.037.145-.198.182-.242.066-.086.136-.172.216-.258.173-.207.35-.412.534-.61a15.939 15.939 0 0 1 1.707-1.617l.126-.104.307-.233c.433-.315.866-.603 1.314-.883a14.34 14.34 0 0 1 1.386-.748l.33-.152c.045-.02.099-.04.146-.064.232-.095.463-.188.7-.27a15.147 15.147 0 0 1 2.948-.75v.004zm-3.704 1.04h.026c-.065.02-.174.06-.026 0zm33.929-11.38a1.287 1.287 0 0 0-.452-.71 1.239 1.239 0 0 0-.785-.268l-5.818.42a1.275 1.275 0 0 0-.94.375 1.336 1.336 0 0 0-.001 1.895 1.287 1.287 0 0 0 .941.375l4.327-.313c-.49.558-1.008 1.09-1.551 1.593-.405.38-.822.743-1.253 1.103a3.39 3.39 0 0 1-.338.273c.026-.015.236-.183.056-.043l-.138.108c-.232.172-.465.35-.703.517-.9.648-1.84 1.238-2.813 1.765-.487.258-.982.507-1.484.736l-.338.152h.013c-.054.02-.108.045-.16.066-.268.112-.54.22-.812.323-1.17.438-2.367.79-3.585 1.054a1.292 1.292 0 0 0-.783.622 1.334 1.334 0 0 0-.123 1.006c.1.333.32.614.619.785.297.172.648.22.98.134a27.137 27.137 0 0 0 13.15-7.142l-.298 3.435c.002.35.14.685.383.932.243.248.571.388.915.391.341-.01.666-.15.908-.398.241-.246.38-.577.39-.925l.61-6.99a1.363 1.363 0 0 0-.255-.787 1.32 1.32 0 0 0-.659-.486h-.003v.001zm-15.816-1.58c.343-.006.67-.147.913-.394.243-.247.38-.58.385-.93-.205-2.33-.413-4.66-.624-6.99a1.522 1.522 0 0 0-.676-1.165 1.357 1.357 0 0 0-.617-.45 1.327 1.327 0 0 0-.76-.042l-7.121 1.346a1.307 1.307 0 0 0-.783.623 1.35 1.35 0 0 0-.124 1.004c.1.334.325.615.623.786.3.17.65.217.983.13l4.892-.924a.966.966 0 0 0-.08.05 16.427 16.427 0 0 0-5.15 6.31 16.769 16.769 0 0 0-1.533 8.058 18.02 18.02 0 0 0 .9 4.38c.487 1.474 1.082 2.912 1.493 4.412a15.87 15.87 0 0 1 .372 1.686v.045c.005.09.015.18.03.27.036.378.05.76.044 1.14 0 .187-.014.374-.028.56a2.388 2.388 0 0 1-.026.28v.082c-.121.75-.307 1.49-.556 2.206-.053.147-.111.292-.17.44v.03c-.037.087-.073.173-.112.26-.17.372-.355.736-.554 1.101-.2.366-.411.705-.637 1.044-.12.183-.246.364-.373.54l-.16.221-.102.13a24.361 24.361 0 0 1-1.731 1.97c-1.23 1.253-2.562 2.398-3.895 3.538a1.339 1.339 0 0 0-.378.935c0 .35.136.687.378.935a1.312 1.312 0 0 0 1.835 0 35.019 35.019 0 0 0 6.623-6.855 15.393 15.393 0 0 0 2.028-4.29c.466-1.616.586-3.317.35-4.985-.422-3.058-1.99-5.787-2.554-8.809-.03-.16-.056-.318-.08-.479v.033a2.342 2.342 0 0 0-.028-.238c-.035-.32-.06-.642-.075-.964-.025-.643-.01-1.287.046-1.928.014-.159.033-.317.05-.476a1.79 1.79 0 0 1 .03-.22c.052-.318.11-.636.182-.948.135-.63.309-1.25.52-1.858.063-.172.127-.35.196-.524v.015c.046-.08.073-.172.113-.259.144-.33.3-.655.472-.976.335-.64.715-1.254 1.137-1.837.052-.062.1-.126.143-.193l-.012.024.027-.04a14.536 14.536 0 0 1 1.082-1.227c.262-.264.495-.482.76-.706.1-.087.217-.173.33-.259a.57.57 0 0 1 .084-.086l.014-.014.253-.187.079-.062.298 3.4c-.002.172.03.344.092.504a1.307 1.307 0 0 0 .69.721c.156.068.323.104.493.106l-.001-.002v.001zm-2.22-7.126.405-.075c0 .068.013.14.018.21a1.319 1.319 0 0 0-.422-.135h-.001z" fill="#118af7" fill-rule="nonzero"/></svg>
