<svg viewBox="0 0 40 39" xmlns="http://www.w3.org/2000/svg" xml:space="preserve" fill-rule="evenodd" clip-rule="evenodd" stroke-linejoin="round" stroke-miterlimit="2"><path fill="none" d="M0 0h39.475v38.355H0z"/><path fill="#118af7" d="M8.73 15.144c0-2.208-1.793-4-4-4-2.209 0-4 1.792-4 4V33.98c0 2.208 1.791 4 4 4 2.207 0 4-1.792 4-4V15.144zM38.709 25.318c0-2.208-1.793-4-4-4-2.209 0-4 1.792-4 4v8.663c0 2.208 1.791 4 4 4 2.207 0 4-1.792 4-4v-8.663zM23.516 4.495c0-2.206-1.793-4-4-4-2.209 0-4 1.794-4 4V34.05a4.001 4.001 0 0 0 8 0V4.495z"/></svg>
