<svg width="24" height="24" fill="none" xmlns="http://www.w3.org/2000/svg"><path d="M23.969 3.308c0-1.731-1.414-3.134-3.159-3.134a3.15 3.15 0 0 0-3.126 2.69 2.9 2.9 0 0 0-.032-.016c-2.583-1.156-4.76.892-4.76.892L7.138 9.478l2.274 2.173 4.633-4.515c2.163-2.147 3.341-.694 3.341-.694 1.628 1.365.056 2.98.056 2.98l2.33 2.23c1.903-2.04 2.014-3.82 1.435-5.236 1.558-.193 2.763-1.51 2.763-3.108z" fill="#F9AE41"/><path d="M21.236 17.721l.016-.031c1.166-2.563-.898-4.722-.898-4.722L14.57 7.257l-2.19 2.256 4.551 4.597c2.164 2.146.7 3.315.7 3.315-1.376 1.616-3.005.056-3.005.056l-2.246 2.312c2.055 1.888 3.85 1.998 5.276 1.424a3.15 3.15 0 0 0 3.133 2.74c1.745 0 3.159-1.402 3.159-3.133 0-1.58-1.18-2.887-2.712-3.103z" fill="#EE4035"/><path d="M14.62 12.376L9.986 16.89c-2.163 2.147-3.341.694-3.341.694-1.629-1.365-.056-2.98-.056-2.98l-2.33-2.23c-1.903 2.04-2.014 3.82-1.435 5.235-1.558.194-2.763 1.511-2.763 3.11 0 1.73 1.414 3.133 3.159 3.133a3.15 3.15 0 0 0 3.126-2.69l.032.016c2.583 1.156 4.76-.892 4.76-.892l5.755-5.739-2.274-2.172z" fill="#4F91CD"/><path d="M7.1 9.917c-2.164-2.146-.7-3.315-.7-3.315 1.376-1.616 3.004-.056 3.004-.056l2.246-2.312C9.595 2.346 7.802 2.237 6.375 2.81A3.15 3.15 0 0 0 3.242.07C1.497.07.083 1.472.083 3.202c0 1.58 1.18 2.887 2.712 3.103a2.35 2.35 0 0 0-.017.032c-1.165 2.563.899 4.721.899 4.721L9.46 16.77l2.19-2.256-4.552-4.597z" fill="#7AC043"/></svg>