<svg height="496pt" viewBox="-24 0 496 496" width="496pt" xmlns="http://www.w3.org/2000/svg"><path d="M204.602 364.61c-3.465 0-7.114-1.442-9.852-4.016-2.934-2.754-4.652-6.633-4.71-10.633l-.208-16.777c-.191-.086-.39-.168-.578-.247-.008 0-.016-.007-.024-.007l-11.933 11.965c-5.89 5.906-15.219 6.015-21.25.257l-29.285-27.93c-2.969-2.831-4.633-6.59-4.692-10.566-.047-3.992 1.524-7.8 4.426-10.703l11.77-11.793c-.051-.105-.09-.215-.13-.32l-17.394.207c-3.55.152-7.558-1.277-10.469-4.008-2.93-2.75-4.648-6.625-4.707-10.625l-.504-39.91c-.183-3.602 1.204-7.344 3.93-10.246 2.809-2.985 6.77-4.715 10.871-4.77l17.047-.41c.059-.125.113-.254.168-.383l-12.07-11.511a14.61 14.61 0 1-4.496-10.68 NaNc6.238 NaN 7.992 NaN 10.992 NaNl28.282 NaNc5.894 NaN 15.214 NaN 21.246 NaNl12.214 NaNc.204 NaN.41 NaN.61 NaNl-.207 NaNc-.184 NaN 1.2 NaN 3.926 NaN 2.808 NaN 6.77 NaN 10.875 NaNl40.812 NaNc3.633 NaN 7.57 NaN 10.48 NaN 2.938 NaN 4.649 NaN 4.696 NaNl.21 NaNc.184 NaN.376 NaN.56 NaN.015 NaN.023 NaN.038 NaNL271 NaNc5.895 NaN 15.223 NaN 21.246 NaNl29.152 NaNc2.977 NaN 4.641 NaN 4.688 NaN.05 NaN-1.52 NaN-4.422 NaNl-11.77 NaNc.043 NaN.09 NaN.13 NaNl17.39 NaNc3.648 NaN 7.555 NaN 10.465 NaN 2.937 NaN 4.656 NaN 4.715 NaNl.36 NaNc.183 NaN-1.204 NaN-3.93 NaN-2.81 NaN-6.77 NaN-10.872 NaNL310.77 NaNa7.22 7.22 0 0-.122.312 NaNl11.636 NaNc5.634 NaN 6.192 NaN 1.337 NaNa8.717 8.717 0 1-.782.91 NaNl-30.27 NaNc-5.886 NaN-15.215 NaN-21.246 NaNl-12.21 NaNc-.208 NaN-.415 NaN-.614 NaNl.207 NaNc.184 NaN-1.2 NaN-3.93 NaN-2.804 NaN-6.765 NaN-10.87 NaNl-40.817 NaNc-.207 NaN-.406 NaN-.613 NaNzm40.238-15.145v.129zm-40.031-.863h-.082.113-.031zm-17.305-33.274c.91 0 1.832.16 2.719.48 1.41.504 2.695 1.137 3.922 1.743.496.242.96.488 1.437.687.64.282 2.547 1.098 3.86 1.387a8.011 8.011 0 16.32 7.719 NaN NaNlNaN NaN NaN NaN NaN NaNa8.003 8.003 0 16.144-7.879 NaN NaNcNaN NaN NaN NaN NaN NaNlNaN NaNcNaN NaN NaN NaN NaN NaNa8.029 8.029 0 19.664 1.059 NaN NaNlNaN NaN NaN NaN NaN NaNa7.996 7.996 0 1-1.949 NaN NaNcNaN NaN NaN NaN NaN NaN NaN NaN NaN NaN NaN NaN NaN NaN NaN NaN NaN NaN NaN NaN NaN NaN NaN NaNa8 8 0 17.71-6.258 NaN NaNlNaN NaN NaN NaN NaN NaNcNaN NaN NaN NaN NaN NaN NaN NaN NaN NaN NaN NaNlNaN NaNcNaN NaN NaN NaN NaN NaNa8.012 8.012 0 11.097-9.938 NaN NaNlNaN NaN NaN NaN NaN NaNa8.039 8.039 0 1-8.383 NaN NaNcNaN NaN NaN NaN NaN NaN NaN NaN NaN NaN NaN NaN NaN NaN NaN NaN NaN NaN NaN NaN NaN NaN NaN NaNa8.007 8.007 0 1-6.32 NaN NaNlNaN NaN NaN NaN NaN NaNa8.007 8.007 0 1-6.145 NaN NaNcNaN NaN NaN NaN NaN NaNlNaN NaNcNaN NaN NaN NaN NaN NaN NaN NaN NaN NaN NaN NaNlNaN NaN NaN NaN NaN NaNa7.986 7.986 0 11.96 8.605 NaN NaNcNaN NaN NaN NaN NaN NaN NaN NaN NaN NaN NaN NaN NaN NaN NaN NaN NaN NaNa7.977 7.977 0 1-7.605 NaN NaNlNaN NaN NaN NaN NaN NaNhNaNa8.008 8.008 0 17.762 6.047 NaN NaNcNaN NaN NaN NaN NaN NaNlNaN NaNcNaN NaN NaN NaN NaN NaN NaN NaN NaN NaN NaN NaNlNaN NaN NaN NaN NaN NaNa7.989 7.989 0 15.664-2.36 NaN NaNzm124.176-10.465c0 .008 0 .008 0 0zm-191.352-36.816h-.074.113-.039zm206.633-1.445v.14zm-205.906-37.61zm206.746-1.168h.11zm-84.336-80.426c.008 0 .07-.007.11 0zm-40-.992zm0 0"/><path d="M224.39 296.031c-13.046 0-25.261-4.824-34.48-13.605-9.414-8.977-14.687-21.13-14.855-34.235-.168-13.093 4.808-25.382 13.992-34.59 9.137-9.16 21.488-14.296 34.777-14.456 13.496-.168 25.742 4.671 35.121 13.609 9.414 8.98 14.688 21.133 14.856 34.23v.114c-.024 13.207-4.992 25.453-13.992 34.476-9.145 9.16-21.496 14.297-34.778 14.457h-.64zm.067-80.886h-.45c-9.077.113-17.472 3.574-23.632 9.75-6.129 6.136-9.43 14.335-9.32 23.09.113 8.757 3.625 16.87 9.898 22.847 6.223 5.938 14.527 9.191 23.445 9.191h.45c9.07-.113 17.464-3.574 23.632-9.757 5.985-5.993 9.29-14.211 9.32-23.137-.128-8.738-3.64-16.832-9.905-22.809-6.223-5.93-14.536-9.175-23.438-9.175zm-7.144-172.2h16v52.848h-16zm0 0"/><path d="M225.023 57.848c-16.207 0-29.406-12.977-29.406-28.926 0-15.953 13.2-28.922 29.406-28.922 16.207 0 29.41 12.977 29.41 28.93 0 15.949-13.203 28.918-29.41 28.918zm0-41.848c-7.39 0-13.406 5.8-13.406 12.93 0 7.125 6.016 12.925 13.406 12.925 7.391 0 13.41-5.8 13.41-12.925 0-7.13-6.019-12.93-13.41-12.93zM38.707 151.113l8.621-13.48 47.8 30.57-8.62 13.48zm0 0"/><path d="M30.367 166.512c-4.96 0-9.976-1.23-14.566-3.825C8.93 158.81 4.023 152.52 2 144.977c-2-7.457-.938-15.235 3-21.907 8.105-13.726 26.098-18.445 40.063-10.558 6.882 3.879 11.785 10.168 13.808 17.718 2 7.458.93 15.235-3.008 21.907-5.437 9.215-15.343 14.375-25.496 14.375zm.067-41.84c-4.657 0-9.168 2.344-11.649 6.535a12.452 12.452 0 0-1.328 9.633 NaNC7.391 NaN 9.598 NaN 12.696 NaNc6.456 NaN 14.71 NaN 18.421 NaN 1.738 NaN 2.211 NaN 1.336 NaN-.894 NaN-3.11 NaN-6.207 NaNh-.008a13.777 13.777 0 0-6.765-1.777 NaNzm6.933 218l47.793-30.57 8.625 13.488-47.793 30.566zm0 0"/><path d="M29.488 385.594c-10.16 0-20.054-5.168-25.496-14.387-3.937-6.664-5.008-14.437-3.008-21.894 2.016-7.543 6.918-13.84 13.809-17.72 13.957-7.882 31.941-3.16 40.062 10.552 3.938 6.671 5 14.449 3 21.902-2.023 7.547-6.917 13.832-13.8 17.715a29.473 29.473 0 1-14.567 3.832 NaNzm-.062-41.852c-2.305 0-4.633.578-6.778 1.778-3.105 1.761-5.312 4.57-6.207 7.93-.875 3.269-.402 6.687 1.336 9.62 3.703 6.274 11.942 8.41 18.422 4.77 3.106-1.75 5.305-4.567 6.2-7.93.874-3.27.41-6.687-1.329-9.629-2.476-4.191-7-6.539-11.644-6.539zm-10.707-5.191h.082zM214.703 400.2h16v52.847h-16zm0 0"/><path d="M222.992 496c-16.207 0-29.41-12.977-29.41-28.93 0-15.949 13.195-28.925 29.41-28.925s29.406 12.976 29.406 28.925c0 15.953-13.199 28.93-29.406 28.93zm0-41.848c-7.39 0-13.41 5.801-13.41 12.926 0 7.129 6.02 12.922 13.41 12.922 7.39 0 13.406-5.8 13.406-12.93 0-7.125-6.015-12.918-13.406-12.918zm129.977-126.359l8.62-13.48 47.798 30.57-8.617 13.476zm0 0"/><path d="M417.512 387.305a29.518 29.518 0 1-14.559-3.825 NaNc-17.617 NaN-22.519 NaN-24.542 NaN-2 NaN-.93 NaN 3.007 NaN 8.094 NaN 26.07 NaN 40.063 NaN 6.87 NaN 11.777 NaN 13.8 NaN 2 NaN.938 NaN-3 NaN-5.449 NaN-15.35 NaN-25.503 NaNzm.062-41.84c-4.644 0-9.168 2.336-11.636 6.535-1.739 2.945-2.211 6.36-1.336 9.633.894 3.36 3.109 6.168 6.207 7.918h.007c6.473 3.648 14.72 1.504 18.414-4.758a12.452 12.452 0 1.329-9.633 NaN NaNcNaN NaN NaN NaN NaN NaNa13.791 13.791 0 0-6.785 NaN NaNzm-63.379-175.047l47.793-30.57 8.625 13.488-47.793 30.566zm0 0"/><path d="M418.664 168.23c-10.152 0-20.047-5.167-25.504-14.375-3.937-6.671-5-14.449-3-21.902 2.024-7.547 6.918-13.832 13.8-17.715 13.97-7.902 31.97-3.168 40.063 10.563 3.938 6.664 5.008 14.437 3.008 21.894-2.015 7.543-6.918 13.84-13.808 17.72a29.55 29.55 0 1-14.559 3.815 NaNzm-.07-41.847c-2.297 0-4.633.578-6.778 1.777-3.105 1.75-5.304 4.567-6.199 7.93a12.452 12.452 0 1.328 9.629 NaN NaNcNaN NaN NaN NaN NaN NaN NaN NaN NaN NaN NaN NaN NaN NaN NaN NaN NaN NaN NaN NaN NaN NaN NaN NaNzm0 0"/></svg>