<svg width="24" height="24" fill="none" xmlns="http://www.w3.org/2000/svg"><path d="M13.769 8.152c-.397.198-.569.569-.569 1.574 0 0 .198-.199.516-.318.231-.086.397-.198.516-.284.343-.258.396-.569.396-1.11-.006 0-.549-.034-.86.138z" fill="#FBBD71"/><path d="M11.342 8.384c-.344.284-.43.773-.43.773l-1.11 4.258-.913-3.484c-.086-.37-.258-.827-.515-1.144-.318-.403-.979-.43-1.058-.43-.06 0-.714.027-1.058.43-.258.317-.43.773-.516 1.144l-.86 3.484-1.11-4.258s-.086-.456-.43-.773C2.8 7.894 2 8.014 2 8.014l2.116 7.966s.687.06 1.031-.112c.456-.232.688-.397.946-1.488.257-.972.945-3.801.998-4 .026-.086.086-.344.258-.344.172 0 .231.232.258.344.06.199.74 3.028.998 4 .284 1.084.483 1.256.945 1.488.344.172 1.032.112 1.032.112l2.102-7.967s-.8-.112-1.342.37zm3.28.912s-.146.198-.43.37c-.199.113-.37.172-.569.284-.344.172-.43.344-.43.602v5.402s.543.06.886-.113c.457-.231.543-.456.543-1.428V9.296zm5.256 2.718l2.684-3.974s-1.11-.198-1.686.317c-.37.318-.74.913-.74.913l-.972 1.428c-.06.086-.113.145-.199.145-.085 0-.171-.086-.198-.145l-.972-1.428s-.397-.569-.74-.913c-.569-.515-1.686-.317-1.686-.317l2.598 3.967-2.658 3.967s1.17.145 1.746-.37c.37-.318.714-.86.714-.86l.972-1.428c.06-.086.112-.146.198-.146.086 0 .172.087.198.146l.972 1.428s.37.542.714.86c.569.515 1.713.37 1.713.37l-2.658-3.96z" fill="#000"/></svg>