<svg xmlns="http://www.w3.org/2000/svg" width="484" height="261" viewBox="0 0 484 261" fill="none"><style>	.gradientPath {		stroke-dasharray: 1000;		animation: dash 5s linear 0.3s forwards;	}	@keyframes dash {		from {			stroke-dashoffset: 1000;		}	}	#ecemJ4xRa274_to {		animation: ecemJ4xRa274_to__to 2500ms linear 0.3s forwards	}	@keyframes ecemJ4xRa274_to__to {		0% {			offset-distance: 0%		}		100% {			offset-distance: 100%		}	}</style><path opacity="0.05" d="M465 242C465 118.841 365.159 19 242 19C118.841 19 19 118.841 19 242" stroke="#050505" stroke-width="37" stroke-linecap="round"></path><path class="gradientPath" d="M19 242C19 118.841 118.841 19 242 19C294.785 19 343.286 37.3394 381.479 67.994" stroke="url(#paint0_linear_12_3234)" stroke-width="37" stroke-linecap="round"></path><path d="M465,242c0-123.159-99.841-223-223-223s-223,99.841-223,223" opacity="0.05" fill="none" stroke="#050505" stroke-width="37" stroke-linecap="round"></path><path d="M19,242C19,118.841,118.841,19,242,19c52.785,0,101.286,18.3394,139.479,48.994" fill="none" stroke="url(#ecemJ4xRa273-stroke)" stroke-width="37" stroke-linecap="round" stroke-dashoffset="1000" stroke-dasharray="1000"></path><g id="ecemJ4xRa274_to" style="offset-path:path('M19,248.5C19,24.995783,269.015651,-39.006746,381.479,70.13257');offset-rotate:0deg"><rect width="25" height="25" rx="12.5" ry="12.5" transform="translate(-12.5,-12.5)" fill="#fff"></rect></g><defs><linearGradient id="paint0_linear_12_3234" x1="19" y1="130.5" x2="381.479" y2="130.5" gradientUnits="userSpaceOnUse"><stop stop-color="#118AF7"></stop><stop offset="1" stop-color="#118AF7"></stop><stop offset="1" stop-color="#118AF7"></stop></linearGradient></defs></svg>