<svg xmlns="http://www.w3.org/2000/svg" height="512" viewBox="0 0 64 64" width="512"><g id="Filled_outline" data-name="Filled outline"><path d="M33 20l4 7 7 1-6 5 2 8-7-4-7 4 2-8-6-5 7-1z" fill="#e97424"/><path d="M47 10l2 4 4 1-3 3 1 4-4-2.05L43 22l1-4-3-3 4-1zM14 39l2 4 4 1-3 3 1 4-4-2.05L10 51l1-4-3-3 4-1zm5-36l2 4 4 1-3 3 1 4-4-2.05L15 15l1-4-3-3 4-1zm25 46l2 4 4 1-3 3 1 4-4-2.05L40 61l1-4-3-3 4-1z" fill="#f9bb4b"/><circle cx="16" cy="31" fill="#fcf05a" r="3"/><circle cx="57" cy="29" fill="#fcf05a" r="2"/><path d="M33.868 19.5a1.04 1.04 0 00-1.736 0l-3.757 6.575-6.517.931a1 1 0 00-.5 1.758l5.517 4.6-1.845 7.393a1 1 0 001.47 1.111l6.5-3.716 6.5 3.716A.988.988 0 0040 42a1 1 0 00.97-1.243l-1.847-7.391 5.517-4.6a1 1 0 00-.5-1.758l-6.517-.931zm3.492 12.732a1 1 0 00-.33 1.011l1.431 5.726-4.961-2.837a1 1 0 00-.992 0l-4.965 2.837 1.431-5.726a1 1 0 00-.33-1.011l-4.272-3.56 4.774-.682a1 1 0 00.726-.494L33 22.016l3.132 5.48a1 1 0 00.726.494l4.774.682zM53.243 14.03l-3.554-.888L47.9 9.553a1.042 1.042 0 00-1.79 0l-1.794 3.589-3.554.888a1 1 0 00-.464 1.677l2.6 2.6-.863 3.45a1 1 0 001.426 1.133L47 21.074l3.544 1.816a1 1 0 001.426-1.133l-.863-3.45 2.6-2.6a1 1 0 00-.464-1.677zm-3.95 3.263a1 1 0 00-.263.95l.466 1.862-2.04-1.045a1 1 0 00-.912 0L44.5 20.105l.466-1.862a1 1 0 00-.263-.95l-1.751-1.751 2.287-.572a1 1 0 00.652-.523L47 12.236l1.1 2.211a1 1 0 00.652.523l2.287.572zm-28.329 26.44a1 1 0 00-.721-.7l-3.554-.888-1.789-3.592a1.042 1.042 0 00-1.79 0l-1.794 3.589-3.554.888a1 1 0 00-.464 1.677l2.6 2.6-.863 3.45a1 1 0 001.426 1.133L14 50.074l3.544 1.816a1 1 0 001.426-1.133l-.863-3.45 2.6-2.6a1 1 0 00.257-.974zm-4.671 2.56a1 1 0 00-.263.95l.466 1.862-2.04-1.045a1 1 0 00-.912 0L11.5 49.105l.466-1.862a1 1 0 00-.263-.95l-1.747-1.751 2.287-.572a1 1 0 00.652-.523L14 41.236l1.105 2.211a1 1 0 00.652.523l2.287.572zm8.95-39.263l-3.554-.888L19.9 2.553a1.042 1.042 0 00-1.79 0l-1.799 3.589-3.554.888a1 1 0 00-.464 1.677l2.6 2.6-.863 3.45a1 1 0 001.426 1.133L19 14.074l3.544 1.816a1 1 0 001.426-1.133l-.863-3.45 2.6-2.6a1 1 0 00-.464-1.677zm-3.95 3.263a1 1 0 00-.263.95l.466 1.862-2.04-1.045a1 1 0 00-.912 0L16.5 13.105l.466-1.862a1 1 0 00-.263-.95l-1.747-1.751 2.287-.572a1 1 0 00.652-.523L19 5.236l1.105 2.211a1 1 0 00.652.523l2.287.572zm29.671 43.44a1 1 0 00-.721-.7l-3.554-.888-1.789-3.592a1.042 1.042 0 00-1.79 0l-1.794 3.589-3.554.888a1 1 0 00-.464 1.677l2.6 2.6-.863 3.45a1 1 0 001.426 1.133L44 60.074l3.544 1.816a1 1 0 001.426-1.133l-.863-3.45 2.6-2.6a1 1 0 00.257-.974zm-4.671 2.56a1 1 0 00-.263.95l.466 1.862-2.04-1.045a1 1 0 00-.912 0L41.5 59.105l.466-1.862a1 1 0 00-.263-.95l-1.751-1.751 2.287-.572a1 1 0 00.652-.523L44 51.236l1.1 2.211a1 1 0 00.652.523l2.287.572zM12 31a4 4 0 104-4 4 4 0 00-4 4zm4-2a2 2 0 11-2 2 2 2 0 012-2zm41-3a3 3 0 103 3 3 3 0 00-3-3zm0 4a1 1 0 111-1 1 1 0 01-1 1zm-37 8h2v2h-2zm32-5h2v2h-2zM8 21h2v2H8zm0 4h2v2H8zm-2-2h2v2H6zm4 0h2v2h-2zm15 22h2v2h-2zm0 4h2v2h-2zm-2-2h2v2h-2zm4 0h2v2h-2zm30-11h2v2h-2zm0 4h2v2h-2zm-2-2h2v2h-2zm4 0h2v2h-2z"/><path d="M23 16.757h2v8.485h-2z" transform="rotate(-45 23.997 21.006)"/><path d="M17.5 17.964h2v7.071h-2z" transform="rotate(-45 18.498 21.505)"/><path d="M46 32.343h2v11.314h-2z" transform="rotate(-45 46.997 38.011)"/><path d="M47 39.343h2v11.314h-2z" transform="rotate(-45 47.995 45.012)"/><path d="M32 4.343h2v11.314h-2z" transform="rotate(-45 33 10.007)"/><path d="M28.5 12.379h2v4.243h-2z" transform="rotate(-45 29.5 14.507)"/><path d="M33 41.757h2v8.485h-2z" transform="rotate(-45 33.994 46.01)"/><path d="M48 24.172h2v5.657h-2z" transform="rotate(-45 48.998 27.01)"/><path d="M6 1.757h2v8.485H6z" transform="rotate(-45 7 6.001)"/><path d="M11 2.586h2v2.828h-2z" transform="rotate(-45 12 4.003)"/><path d="M7.5 8.55h2v9.899h-2z" transform="rotate(-45 8.498 13.502)"/></g></svg>