<svg width="1380" height="658" fill="none" xmlns="http://www.w3.org/2000/svg"><path opacity=".57" d="M1364 0H16C7.163 0 0 7.163 0 16v626c0 8.837 7.163 16 16 16h1348c8.84 0 16-7.164 16-16V16c0-8.837-7.16-16-16-16z" fill="#DBEEFE"/><mask id="a" style="mask-type:alpha" maskUnits="userSpaceOnUse" x="0" y="0" width="1380" height="658"><path d="M1364 0H16C7.163 0 0 7.163 0 16v626c0 8.837 7.163 16 16 16h1348c8.84 0 16-7.164 16-16V16c0-8.837-7.16-16-16-16z" fill="#DBEEFE"/></mask><g mask="url(#a)"><g opacity=".05"><path d="M358.105 718.046c4.347 3.812 4.78 10.426.968 14.773L262.44 843.005c-3.812 4.347-10.426 4.78-14.773.968L137.721 747.55c-4.346-3.812-4.78-10.426-.968-14.773l48.317-55.092c30.497-34.774 83.409-38.241 118.183-7.745l54.852 48.106z" fill="#118AF7"/></g><path opacity=".05" d="M149.918 185.524c-30.606 34.9-83.71 38.379-118.61 7.773l-55.291-48.492c-4.363-3.825-4.797-10.463-.972-14.826L137.837-55.644c30.607-34.9 83.71-38.379 118.61-7.772 34.899 30.607 38.379 83.71 7.772 118.61l-114.301 130.33z" fill="#118AF7"/><path opacity=".1" d="M-159.163 256.612c4.363 3.826 11.001 3.391 14.827-.971L18.456 70.018c30.607-34.9 27.127-88.003-7.773-118.61-34.899-30.606-88.002-27.127-118.609 7.773L-222.227 89.51c-30.607 34.9-27.127 88.003 7.772 118.61l55.292 48.491z" fill="#118AF7"/><path opacity=".07" d="M-143.084 278.24c-4.362-3.826-11-3.391-14.826.972l-48.279 55.05c-30.607 34.899-27.127 88.002 7.772 118.609l185.442 162.633c4.362 3.826 11 3.391 14.826-.971l48.279-55.05c30.607-34.9 27.127-88.003-7.772-118.61L-143.084 278.24z" fill="#118AF7"/><g opacity=".1"><path d="M473.002 587.435c4.362 3.826 4.797 10.463.971 14.826l-48.49 55.291c-30.607 34.899-83.711 38.379-118.61 7.772l-55.05-48.279c-4.362-3.826-4.797-10.463-.971-14.826l48.49-55.291c30.607-34.899 83.71-38.379 118.609-7.772l55.051 48.279z" fill="#118AF7"/></g><path opacity=".04" d="M103.079 263.446c-4.362-3.826-11-3.391-14.826.971l-48.28 55.05c-30.606 34.899-27.126 88.003 7.773 118.61l184.024 161.39c4.363 3.825 11.001 3.39 14.827-.972l48.279-55.05c30.606-34.899 27.127-88.003-7.773-118.609l-184.024-161.39z" fill="#118AF7"/><g opacity=".07"><ellipse cx="117.752" cy="618.245" rx="84.049" ry="83.93" transform="rotate(131.251 117.752 618.245)" fill="#118AF7"/></g><g opacity=".1"><circle cx="-28.702" cy="259.231" r="84.049" transform="rotate(131.251 -28.702 259.231)" fill="#118AF7"/></g><g opacity=".07"><circle cx="69.514" cy="-115.666" r="84.049" transform="rotate(131.251 69.514 -115.666)" fill="#118AF7"/></g><g opacity=".07"><mask id="b" style="mask-type:alpha" maskUnits="userSpaceOnUse" x="106" y="133" width="223" height="223"><rect x="335.674" y="236.752" width="167.777" height="167.777" rx="17.575" transform="rotate(131.251 335.674 236.752)" fill="#E4E5E9"/></mask><g mask="url(#b)"><path d="M272.604 181.439c34.833 30.548 38.306 83.55 7.757 118.382-30.548 34.833-83.549 38.306-118.382 7.758l-63.07-55.313 55.313-63.07c30.548-34.832 83.549-38.305 118.382-7.757z" fill="#118AF7"/></g></g><path opacity=".1" d="M1141.92 744.524c-30.61 34.899-83.71 38.379-118.61 7.772l-55.295-48.491c-4.362-3.826-4.797-10.464-.972-14.826l162.797-185.623c30.6-34.899 83.71-38.379 118.6-7.772 34.9 30.606 38.38 83.71 7.78 118.609l-114.3 130.331z" fill="#118AF7"/><path opacity=".05" d="M1345.46 119.313c34.84 30.548 38.31 83.55 7.76 118.382l-48.38 55.171c-3.83 4.363-10.47 4.798-14.83.972l-55.17-48.385c-34.83-30.549-38.31-83.55-7.76-118.382 30.55-34.833 83.55-38.306 118.38-7.758z" fill="#118AF7"/><path opacity=".07" d="M1485.03 353.293c-30.55 34.832-83.55 38.305-118.38 7.757l-55.17-48.385c-4.37-3.826-4.8-10.464-.98-14.826l48.39-55.172c30.55-34.832 83.55-38.305 118.38-7.757 34.83 30.548 38.31 83.55 7.76 118.383z" fill="#118AF7"/><g opacity=".15"><mask id="c" style="mask-type:alpha" maskUnits="userSpaceOnUse" x="1223" y="314" width="169" height="199"><path d="M1292.92 317.888c3.83-4.362 10.46-4.797 14.83-.971l55.23 48.438c34.8 30.519 38.24 83.5 7.72 118.299-30.55 34.833-83.58 38.336-118.41 7.788s-38.3-83.55-7.76-118.383l48.39-55.171z" fill="#D8DADF"/></mask><g mask="url(#c)"><path d="M1201.55 413.503l81.2-92.595a31.304 31.304 0 0 1 9.45-7.45 30.54 30.54 0 0 1 11.47-3.282c3.98-.324 7.96.152 11.71 1.398a28.825 28.825 0 0 1 10.11 5.861l89.76 78.725a28.932 28.932 0 0 1 7.14 9.264 29.646 29.646 0 0 1 2.91 11.426 30.5 30.5 0 0 1-1.76 11.799 31.44 31.44 0 0 1-6.15 10.34l-81.2 92.595c-2.65 3.07-5.86 5.6-9.45 7.44-3.6 1.84-7.5 2.954-11.48 3.276-3.97.323-7.95-.151-11.7-1.396a28.858 28.858 0 0 1-10.12-5.851l-89.76-78.721a28.83 28.83 0 0 1-7.14-9.26 29.634 29.634 0 0 1-2.91-11.43c-.19-3.987.4-7.998 1.76-11.799a31.387 31.387 0 0 1 6.15-10.335l.01-.005z" fill="#118AF7"/></g></g><path opacity=".05" d="M832.838 815.612c4.362 3.826 11 3.391 14.826-.971l162.796-185.623c30.6-34.899 27.12-88.003-7.78-118.61-34.895-30.606-87.999-27.127-118.605 7.773L769.774 648.512c-30.607 34.899-27.127 88.002 7.772 118.609l55.292 48.491z" fill="#118AF7"/><g opacity=".05"><circle cx="1061.51" cy="443.333" r="84.049" transform="rotate(131.251 1061.51 443.333)" fill="#118AF7"/></g><g opacity=".05"><ellipse cx="1175.84" cy="312.972" rx="84.009" ry="84.049" transform="rotate(131.251 1175.84 312.972)" fill="#118AF7"/></g></g><rect width="1380" height="658" rx="16" fill="url(#paint0_linear_2_17)"/><defs><linearGradient id="paint0_linear_2_17" x1="91.603" y1="90.436" x2="1339.41" y2="646.04" gradientUnits="userSpaceOnUse"><stop stop-color="#fff" stop-opacity=".35"/><stop offset="1" stop-color="#fff" stop-opacity=".57"/></linearGradient></defs></svg>