<svg width="24" height="24" fill="none" xmlns="http://www.w3.org/2000/svg"><path d="M17.01 11.414a1.7 1.7 0 0 1 .437 0c.08-.178.094-.492.023-.825-.103-.502-.248-.806-.539-.76-.29.047-.305.413-.197.914.052.277.16.52.277.67zm-2.516.398c.21.094.337.155.389.099.089-.09-.164-.44-.567-.614a1.481 1.481 0 0 0-1.44.173c-.14.103-.271.244-.253.333.043.173.47-.127 1.065-.164.323-.024.595.08.806.173zm-.422.24c-.427.065-.703.304-.633.473.042.014.056.037.244-.038a1.76 1.76 0 0 1 .881-.094c.136.015.202.024.234-.023.061-.098-.271-.37-.726-.319zm2.54.806c.16-.324-.51-.657-.67-.329-.16.324.516.652.67.329zm.736-.961c-.36-.005-.375.74-.014.75.366 0 .38-.746.014-.75zM7.073 15.6c-.06.014-.28.07-.398-.113-.244-.375.52-.956.14-1.683-.426-.82-1.307-.637-1.645-.262-.408.45-.408 1.106-.234 1.13.201.028.192-.305.347-.549a.6.6 0 0 1 .839-.173c.544.356.065.834.108 1.345.065.783.867.769 1.012.422a.1.1 0 0 0-.01-.108c0 .052.029-.051-.159-.01zm14.082-.802c-.16-.553-.122-.431-.32-.965.118-.174.718-1.13-.144-2.03-.488-.511-1.594-.778-1.932-.872-.07-.534.22-2.756-1.012-3.9.975-1.012 1.584-2.128 1.584-3.084-.005-1.838-2.264-2.396-5.048-1.243l-.59.249-1.084-1.06C9.441-.871-.488 10.159 2.686 12.84l.694.586A3.396 3.396 0 0 0 3.187 15c.16 1.57 1.693 2.84 3.174 2.836 2.714 6.253 12.586 6.262 15.14.14.08-.21.427-1.157.427-1.992 0-.834-.473-1.186-.773-1.186zm-14.85 2.264c-1.074-.028-2.232-.994-2.344-2.137-.29-2.878 3.487-3.535 3.947-.582.215 1.393-.22 2.747-1.603 2.72zm-.868-5.367c-.712.14-1.34.544-1.725 1.102-.23-.193-.656-.563-.73-.704-.61-1.167.67-3.43 1.565-4.706 2.212-3.16 5.676-5.55 7.284-5.118.263.075 1.125 1.073 1.125 1.073s-1.603.89-3.089 2.133c-2.01 1.547-3.525 3.787-4.43 6.22zm11.222 4.753s-1.678.249-3.267-.333c.29-.946 1.27.286 4.528-.646.717-.207 1.66-.61 2.396-1.191.159.365.271.75.332 1.139.174-.033.67-.024.54.848-.155.933-.554 1.693-1.22 2.391-.416.45-.913.825-1.462 1.097-.305.16-.628.295-.956.403-2.513.82-5.086-.08-5.92-2.02-.066-.15-.122-.3-.17-.46-.35-1.28-.05-2.812.887-3.778.056-.06.117-.136.117-.225a.402.402 0 0 0-.089-.215c-.328-.479-1.467-1.29-1.238-2.86.165-1.13 1.149-1.922 2.072-1.875l.235.014c.398.024.745.075 1.073.09.549.023 1.046-.057 1.627-.544.197-.164.356-.31.623-.352a.82.82 0 0 1 .638.103c.468.314.534 1.069.557 1.622.015.314.052 1.083.066 1.298.028.502.16.572.427.657.15.051.29.084.492.145.619.173.984.352 1.223.577a.786.786 0 0 1 .225.435c.075.535-.412 1.196-1.706 1.791-2.194 1.017-4.402.68-4.72.642-.947-.126-1.486 1.097-.919 1.932 1.064 1.57 5.752.937 7.11-1.004.034-.046.006-.075-.032-.046-1.964 1.34-4.56 1.795-6.037 1.223-.225-.09-.694-.305-.75-.783 2.048.633 3.337.033 3.337.033s.103-.122-.019-.108zM9.525 7.373c.787-.91 1.753-1.701 2.625-2.142.014-.01.037-.005.047.014a.04.04 0 0 1 0 .033c-.07.126-.202.394-.244.595-.005.019.01.038.028.042.01.005.019 0 .028-.004.54-.366 1.482-.764 2.302-.811.019 0 .037.014.037.033a.042.042 0 0 1-.014.032 1.78 1.78 0 0 0-.36.366c-.01.014-.01.038.009.047.005.005.014.005.018.005.577.004 1.393.206 1.927.506.038.019.01.089-.028.08-3.267-.75-5.784.871-6.319 1.26-.019.01-.037.005-.051-.009-.014-.019-.014-.037-.005-.047z" fill="#000"/></svg>