<svg viewBox="0 0 310 374" fill="none" xmlns="http://www.w3.org/2000/svg"><path d="M205.339 319.739C148.412 59.979 102.545-.341 69.344.001 32.454.381-2.632 75.792.156 137.671 4.178 226.933 88 309.944 205.339 319.739z" fill="#008B86"/><path d="M179.358 223.112 13.039 73.63m162.543 130.642L15.705 61.465M189.022 260.61 6.508 97.628M183.83 240.189 8.746 84.226" stroke="#224860" stroke-width="3.796" stroke-linecap="round" stroke-linejoin="round"/><path d="M46.185 143.211 169.54 348.033M49.04 168.396 172.4 373.152" stroke="#B6D8E2" stroke-width="2.847" stroke-miterlimit="10"/><path d="M191.516 340.616C311.832 158.127 321.048 96.526 301.808 77.171c-21.379-21.505-85.908 1.08-120.747 38.209-50.257 53.558-51.067 150.524 10.455 225.236z" fill="#FF8780"/><path d="M233.516 269.904 226.16 86.239m16.287 170.636-7.593-176.043m-17.875 216.267-8.694-200.943m17.743 186.175-8.567-192.542" stroke="#224860" stroke-width="3.12" stroke-linecap="round" stroke-linejoin="round"/><path d="m130.695 6.147 99.616 169.416M132.822 26.872l99.624 169.361M150.297 5.444l99.616 169.416M152.422 26.169l99.624 169.36" stroke="#B6D8E2" stroke-width="2.34" stroke-miterlimit="10"/></svg>
