<svg viewBox="0 0 1285 344" xmlns="http://www.w3.org/2000/svg" xml:space="preserve" fill-rule="evenodd" clip-rule="evenodd" stroke-linecap="round" stroke-linejoin="round"><g transform="matrix(.99789 0 0 1.00432 -31.122 .96)"><path fill="none" d="M31.188-.957h1287.68v341.916H31.188z"/><clipPath id="prefix__a"><path d="M31.188-.957h1287.68v341.916H31.188z"/></clipPath><g clip-path="url(#prefix__a)"><path d="M320.007 194.43a3.634 3.634 0 0 1-3.347-2.222 3.57 3.57 0 0 1-.282-1.391c0-1.974 1.635-3.598 3.62-3.598a3.63 3.63 0 0 1 3.631 3.613c0 1.974-1.635 3.598-3.621 3.598h-.001zm-.1 19.78a3.638 3.638 0 0 1-3.346-2.222 3.594 3.594 0 0 1 .786-3.92 3.65 3.65 0 0 1 3.947-.78 3.603 3.603 0 0 1 2.238 3.324c0 1.454-.887 2.77-2.238 3.325-.44.18-.91.274-1.386.274zm-25.233-19.66a3.623 3.623 0 0 1-3.346-2.22 3.584 3.584 0 0 1 .785-3.924c.68-.672 1.6-1.05 2.558-1.05 1.986 0 3.622 1.622 3.626 3.595a3.591 3.591 0 0 1-2.236 3.327c-.44.18-.91.274-1.387.273zm-.094 19.778a3.622 3.622 0 0 1-3.345-2.222 3.58 3.58 0 0 1-.275-1.375c0-1.974 1.635-3.598 3.621-3.598s3.62 1.624 3.62 3.598c0 1.973-1.634 3.597-3.62 3.597h-.001zm-25.187-19.777a3.62 3.62 0 0 1-3.346-2.222 3.584 3.584 0 0 1 .784-3.923c.68-.672 1.6-1.05 2.559-1.05 1.986 0 3.621 1.622 3.625 3.595v.003c0 1.973-1.634 3.597-3.62 3.597h-.002zm-.1 19.777c-1.985-.005-3.614-1.628-3.614-3.6a3.616 3.616 0 0 1 2.908-3.528c.228-.045.461-.067.693-.067 1.988 0 3.621 1.624 3.621 3.598 0 1.97-1.626 3.591-3.609 3.597zm-25.157-19.837a3.634 3.634 0 0 1-3.347-2.223 3.571 3.571 0 0 1-.277-1.38c0-1.974 1.634-3.598 3.62-3.598.477 0 .95.094 1.39.276a3.608 3.608 0 0 1 2.237 3.325v.001c0 1.975-1.635 3.599-3.622 3.599zm-.099 19.78c-1.984-.004-3.615-1.628-3.615-3.599a3.616 3.616 0 0 1 2.909-3.529c.228-.045.46-.066.693-.066 1.986 0 3.62 1.624 3.62 3.597 0 1.969-1.626 3.59-3.607 3.597zm-25.233-19.659a3.623 3.623 0 0 1-3.346-2.221 3.584 3.584 0 0 1 .784-3.923 3.64 3.64 0 0 1 2.556-1.047c1.988 0 3.625 1.626 3.625 3.603 0 .469-.092.933-.271 1.367a3.631 3.631 0 0 1-3.348 2.221zm-.099 19.78a3.622 3.622 0 0 1-3.345-2.221 3.585 3.585 0 0 1 .785-3.922 3.634 3.634 0 0 1 2.558-1.051c1.987 0 3.621 1.624 3.621 3.597 0 1.973-1.633 3.597-3.619 3.598zm-25.183-19.78a3.623 3.623 0 0 1-3.346-2.221 3.584 3.584 0 0 1 .785-3.923 3.64 3.64 0 0 1 2.555-1.047c1.988 0 3.626 1.626 3.626 3.603 0 .469-.092.933-.272 1.367a3.631 3.631 0 0 1-3.348 2.221zm-.099 19.78a3.638 3.638 0 0 1-3.345-2.221 3.585 3.585 0 0 1 .786-3.922 3.65 3.65 0 0 1 3.946-.78 3.602 3.602 0 0 1 2.237 3.324c0 .955-.383 1.871-1.063 2.545a3.634 3.634 0 0 1-2.561 1.055zm127.01 20.493a3.632 3.632 0 0 1-3.345-2.223 3.582 3.582 0 0 1 .784-3.922 3.65 3.65 0 0 1 3.949-.78 3.607 3.607 0 0 1 2.232 3.324c0 1.974-1.633 3.599-3.62 3.6zm-.1 19.78a3.631 3.631 0 0 1-2.012-.607 3.591 3.591 0 0 1-1.54-3.695 3.618 3.618 0 0 1 3.55-2.897c1.988 0 3.623 1.624 3.625 3.6 0 1.974-1.635 3.6-3.623 3.6zm-25.227-19.659a3.634 3.634 0 0 1-3.347-2.222 3.57 3.57 0 0 1-.282-1.391c0-1.974 1.635-3.598 3.621-3.598a3.63 3.63 0 0 1 3.02 1.612 3.585 3.585 0 0 1-.451 4.545 3.631 3.631 0 0 1-2.56 1.054zm-.101 19.78a3.632 3.632 0 0 1-3.346-2.222 3.582 3.582 0 0 1 .784-3.922 3.65 3.65 0 0 1 3.949-.78 3.61 3.61 0 0 1 2.236 3.325v.002c0 1.974-1.635 3.598-3.621 3.598h-.002zm-25.178-19.78a3.632 3.632 0 0 1-3.346-2.222 3.585 3.585 0 0 1-.276-1.376c0-1.975 1.635-3.599 3.622-3.599 1.987 0 3.621 1.624 3.621 3.599 0 1.974-1.634 3.598-3.621 3.598zm-.1 19.78c-1.988 0-3.622-1.623-3.622-3.598 0-1.974 1.634-3.598 3.621-3.598 1.988 0 3.622 1.624 3.622 3.598 0 1.975-1.634 3.599-3.622 3.599zm-25.16-19.84c-1.987 0-3.621-1.625-3.621-3.6 0-1.974 1.634-3.598 3.621-3.598s3.622 1.624 3.622 3.599c0 1.974-1.635 3.598-3.622 3.598zm-.1 19.78a3.631 3.631 0 0 1-2.012-.607 3.59 3.59 0 0 1-1.614-2.993c0-.954.384-1.871 1.065-2.546.679-.672 1.599-1.05 2.558-1.05 1.986 0 3.622 1.623 3.626 3.596-.001 1.975-1.636 3.599-3.623 3.6zm-25.231-19.66a3.634 3.634 0 0 1-3.347-2.222 3.57 3.57 0 0 1-.282-1.39c0-1.974 1.634-3.598 3.62-3.598a3.63 3.63 0 0 1 3.631 3.611c0 1.975-1.635 3.599-3.622 3.6zm-.1 19.781a3.638 3.638 0 0 1-3.346-2.222 3.58 3.58 0 0 1-.274-1.375c0-1.974 1.634-3.598 3.62-3.598 1.987 0 3.621 1.624 3.621 3.598 0 1.973-1.634 3.597-3.62 3.597h-.002zm-25.182-19.78a3.634 3.634 0 0 1-3.347-2.223 3.57 3.57 0 0 1-.282-1.39c0-1.974 1.635-3.598 3.621-3.598a3.63 3.63 0 0 1 3.63 3.612c0 1.975-1.635 3.599-3.62 3.599h-.002zm-.1 19.78c-1.986 0-3.62-1.624-3.62-3.598 0-1.974 1.634-3.598 3.62-3.598 1.987 0 3.622 1.624 3.622 3.598 0 1.974-1.635 3.598-3.622 3.598z" fill="#224860" fill-rule="nonzero"/><path d="M210.849 222.267C133.337 45.81 92.003 9.433 68.32 14.352c-26.312 5.467-40.7 63.962-29.936 107.514 15.528 62.825 87.208 109.972 172.464 100.401z" fill="#008b86" fill-rule="nonzero"/><path d="M180.803 157.944 41.033 74.855m134.412 70.185L41.214 65.8m151.787 117.521L39.771 92.894m146.639 76.597L39.47 83.019" fill="none" stroke="#224860" stroke-width="3.83" transform="matrix(1.00212 0 0 .9957 -2.605 .039)"/><path d="m184.941 90.192-90.77 203.019m32.926-223.246-90.77 203.02M140.61 87.576l-90.77 203.02M171.428 72.58 80.658 275.6" fill="none" stroke="#b6d8e2" stroke-width="2.87" stroke-linecap="butt" stroke-linejoin="miter" stroke-miterlimit="10" transform="matrix(1.00212 0 0 .9957 -2.605 .039)"/><path d="M1227.728 229.092C1186.691 43.007 1153.621-.205 1129.681.04c-26.597.272-51.89 54.295-49.886 98.622 2.906 63.945 63.334 123.413 147.933 130.43z" fill="#008b86" fill-rule="nonzero"/><path d="M1209.04 160.521 1089.38 52.975m116.95 93.992L1091.3 44.222M1216 187.5 1084.68 70.24m127.58 102.567-125.97-112.21" fill="none" stroke="#224860" stroke-width="3.8" transform="matrix(1.00212 0 0 .9957 -2.605 .039)"/><path d="m1113.23 103.036 88.75 147.362m-86.7-129.244 88.76 147.315m-18.2-109.529-40.87 167.097m29.56-152.794-40.84 167.067" fill="none" stroke="#b6d8e2" stroke-width="2.85" stroke-linecap="butt" stroke-linejoin="miter" stroke-miterlimit="10" transform="matrix(1.00212 0 0 .9957 -2.605 .039)"/><path d="M1217.767 244.046c86.744-130.73 93.388-174.858 79.518-188.724-15.412-15.405-61.94.773-87.054 27.372-36.237 38.367-36.818 107.831 7.536 161.352z" fill="#ff8780" fill-rule="nonzero"/><path d="m1248.01 194.186-5.29-132.14m11.71 122.766-5.46-126.656m-12.86 155.596-6.26-144.571m12.77 133.946L1236.46 64.6" fill="none" stroke="#224860" stroke-width="3.12" transform="matrix(1.00212 0 0 .9957 -2.605 .039)"/><path d="m1174.03 4.423 71.67 121.888m-70.14-106.978 71.68 121.849M1188.13 3.917l71.67 121.889m-70.14-106.979 71.68 121.849" fill="none" stroke="#b6d8e2" stroke-width="2.34" stroke-linecap="butt" stroke-linejoin="miter" stroke-miterlimit="10" transform="matrix(1.00212 0 0 .9957 -2.605 .039)"/><path d="M1278.856 2.903a2.36 2.36 0 0 1-1.463 2.172c-.43.178-.902.224-1.363.134a2.351 2.351 0 0 1-1.212-.644 2.342 2.342 0 0 1-.652-1.202c-.09-.456-.04-.93.14-1.358a2.376 2.376 0 0 1 2.185-1.45c1.293 0 2.365 1.06 2.365 2.349v-.001zm12.998.064c0 .465-.14.92-.401 1.307-.26.386-.631.688-1.062.866-.431.178-.902.224-1.363.133a2.359 2.359 0 0 1-1.213-.643 2.341 2.341 0 0 1-.651-1.204c-.09-.456-.04-.928.14-1.358.491-1.19 1.894-1.763 3.087-1.271.29.118.55.29.771.509.441.442.692 1.039.692 1.661zm-12.918 16.369c0 .464-.14.919-.4 1.305a2.374 2.374 0 0 1-4.29-.846c-.09-.456-.04-.93.14-1.358a2.382 2.382 0 0 1 2.185-1.451c.622 0 1.223.248 1.674.688a2.35 2.35 0 0 1 .691 1.66v.002zm12.998.064c0 .948-.581 1.807-1.463 2.171-.431.178-.902.224-1.363.134a2.359 2.359 0 0 1-1.213-.644 2.417 2.417 0 0 1-.651-1.203c-.09-.456-.04-.928.14-1.357a2.366 2.366 0 0 1 2.185-1.45c1.293 0 2.365 1.061 2.365 2.35zm-12.998 16.335a2.36 2.36 0 0 1-1.463 2.173 2.378 2.378 0 0 1-2.575-.51 2.342 2.342 0 0 1-.652-1.203c-.09-.456-.04-.929.14-1.358a2.366 2.366 0 0 1 2.185-1.45c1.293 0 2.365 1.06 2.365 2.349v-.001zm12.998.066c0 .948-.581 1.806-1.463 2.17a2.374 2.374 0 0 1-2.576-.51 2.417 2.417 0 0 1-.651-1.202c-.09-.456-.04-.928.14-1.357a2.366 2.366 0 0 1 2.185-1.45c1.293 0 2.365 1.06 2.365 2.349zm-13.038 16.318c0 .465-.14.92-.4 1.306a2.372 2.372 0 0 1-4.29-.847c-.09-.455-.04-.928.14-1.357a2.382 2.382 0 0 1 2.185-1.45c.622 0 1.223.247 1.674.687.44.44.691 1.038.691 1.661zm12.998.065a2.36 2.36 0 0 1-1.463 2.173 2.378 2.378 0 0 1-2.576-.51 2.342 2.342 0 0 1-.651-1.203c-.09-.456-.04-.929.14-1.358a2.376 2.376 0 0 1 2.185-1.45c1.293 0 2.365 1.06 2.365 2.349v-.001zm-12.918 16.37c0 .465-.14.92-.4 1.306s-.632.687-1.063.866a2.37 2.37 0 0 1-1.362.133 2.364 2.364 0 0 1-1.864-1.846c-.09-.456-.04-.928.14-1.357a2.366 2.366 0 0 1 2.184-1.45c1.293 0 2.365 1.06 2.365 2.348zm12.998.063a2.37 2.37 0 0 1-4.69.459c-.09-.455-.04-.928.14-1.357a2.366 2.366 0 0 1 2.185-1.45c1.293 0 2.365 1.06 2.365 2.348zm-12.998 16.336c0 .465-.14.919-.4 1.305a2.372 2.372 0 0 1-4.29-.846c-.09-.456-.04-.93.14-1.359a2.367 2.367 0 0 1 2.185-1.45c.622 0 1.223.248 1.674.689.441.44.691 1.037.691 1.66zm12.998.064c0 .95-.581 1.807-1.463 2.172a2.374 2.374 0 0 1-3.227-1.714c-.09-.455-.04-.928.14-1.357a2.366 2.366 0 0 1 2.185-1.45c1.293 0 2.365 1.06 2.365 2.35zm13.458-82.393a2.33 2.33 0 0 1-1.453 2.17 2.368 2.368 0 0 1-2.575-.51 2.342 2.342 0 0 1-.651-1.202c-.09-.455-.04-.926.13-1.357.18-.43.49-.797.872-1.056.39-.257.841-.394 1.312-.395.632 0 1.233.247 1.674.687.451.441.691 1.04.691 1.663zm12.998.064c0 .466-.13.92-.39 1.306a2.383 2.383 0 0 1-2.436 1 2.35 2.35 0 0 1-1.854-1.846c-.09-.456-.05-.93.13-1.359a2.366 2.366 0 0 1 2.185-1.451c.631 0 1.233.248 1.673.689.451.44.692 1.038.692 1.662v-.001zm-12.917 16.365c0 .465-.13.919-.391 1.305a2.383 2.383 0 0 1-2.435 1.001 2.35 2.35 0 0 1-.852-4.26c.39-.258.842-.395 1.313-.396a2.353 2.353 0 0 1 2.365 2.35zm12.997.072c0 .465-.13.919-.39 1.306-.261.386-.632.687-1.063.866a2.388 2.388 0 0 1-2.585-.51 2.33 2.33 0 0 1-.642-1.203c-.09-.456-.05-.93.13-1.358a2.382 2.382 0 0 1 3.097-1.272c.28.117.541.29.762.509.22.219.4.478.51.763.121.284.181.59.181.899zm-12.997 16.332c0 .465-.13.92-.391 1.307-.26.386-.632.687-1.062.866-.431.177-.912.224-1.373.133a2.353 2.353 0 0 1-1.724-3.205 2.382 2.382 0 0 1 2.185-1.45c.631 0 1.232.248 1.673.688.441.44.692 1.038.692 1.661zm12.997.064c0 .465-.13.92-.39 1.306-.261.387-.632.687-1.063.867-.43.177-.912.224-1.373.133a2.348 2.348 0 0 1-1.854-1.847c-.09-.456-.05-.928.13-1.358a2.382 2.382 0 0 1 3.097-1.272c.28.118.541.291.762.509.22.22.4.478.51.763.121.285.181.59.181.899zm-13.037 16.32c0 .464-.13.918-.391 1.306-.26.386-.632.687-1.063.866-.43.177-.911.224-1.372.133a2.35 2.35 0 0 1-1.854-1.847c-.09-.456-.05-.929.13-1.358a2.382 2.382 0 0 1 2.185-1.45c.63 0 1.232.248 1.673.688.451.44.692 1.038.692 1.661zm12.997.064c0 .464-.14.918-.4 1.305a2.372 2.372 0 0 1-2.426 1 2.35 2.35 0 0 1-1.854-1.847c-.09-.456-.05-.928.13-1.358a2.367 2.367 0 0 1 2.185-1.45c.631 0 1.233.248 1.674.688.44.44.691 1.039.691 1.661v.001zm-12.917 16.368c0 .465-.13.919-.391 1.305a2.382 2.382 0 0 1-2.435 1 2.367 2.367 0 0 1-1.203-.643 2.341 2.341 0 0 1-.651-1.203c-.09-.455-.04-.926.13-1.358a2.382 2.382 0 0 1 2.185-1.45h.01a2.36 2.36 0 0 1 2.355 2.343v.006zm12.997.066a2.325 2.325 0 0 1-1.453 2.172c-.43.177-.912.224-1.373.133a2.406 2.406 0 0 1-1.202-.643 2.342 2.342 0 0 1-.652-1.203c-.09-.456-.04-.929.13-1.358a2.367 2.367 0 0 1 2.185-1.45c.632 0 1.233.247 1.674.688.45.44.691 1.038.691 1.661zm-12.997 16.334a2.325 2.325 0 0 1-1.453 2.171 2.376 2.376 0 0 1-2.576-.51 2.341 2.341 0 0 1-.651-1.203c-.09-.455-.04-.926.13-1.357a2.382 2.382 0 0 1 2.185-1.451c.631 0 1.232.248 1.673.688.451.441.692 1.038.692 1.662zm12.997.064a2.33 2.33 0 0 1-1.453 2.171 2.376 2.376 0 0 1-2.575-.509 2.345 2.345 0 0 1-.652-1.203c-.09-.456-.04-.926.13-1.358a2.382 2.382 0 0 1 2.185-1.45c.632 0 1.233.248 1.674.688.45.44.691 1.038.691 1.661z" fill="#224860" fill-rule="nonzero"/></g></g></svg>
