<svg id="Layer_1" data-name="Layer 1" xmlns="http://www.w3.org/2000/svg" viewBox="0 0 2077.11 1039.62"><defs><style>.cls-1{fill:#e0e0e0;}.cls-2{fill:#0e8af3;}.cls-3{fill:#fbbd9f;}.cls-4{fill:#aa6551;}.cls-5{opacity:0.6;}.cls-6{fill:#fff;}.cls-7{fill:#263238;}.cls-8{opacity:0.3;}.cls-9{fill:#455b64;}.cls-10{opacity:0.63;}.cls-11{fill:#e5745a;}.cls-12{fill:#ec9971;}.cls-13{fill:#fafbfb;}</style></defs><path class="cls-1" d="M170.37,548.89c-1.16-6.13-5.59-11-9.35-16a88.69,88.69,0,0,1,39.43-136.36l1.73-4.31c9.79-18.92-3.52-45.57-24.53-49.11s-42.31,17.29-39.25,38.37c-20.35-10.84-47.29,3-56.93,23.92S75.75,451.13,84,472.66a182.54,182.54,0,0,0,70.16,86.77c2.16,1.41,4.48,2.81,7.05,2.93C167.46,562.64,171.52,555,170.37,548.89Z"/><path class="cls-1" d="M758.92,817.26c9.07-4.35,16-13.67,16.06-23.73s-7.46-20.06-17.42-21.46c8.93-4.42,13.12-16.46,8.86-25.47s-16.23-13.4-25.3-9.3c-10.26,4.64-14.4,17.05-15.37,28.26s0,23-4.54,33.27c-4.66,10.51-14.62,17.93-25.35,22.06s-22.33,5.35-33.76,6.55l-2.33.46a61.69,61.69,0,0,0,43.85,23.17c9.62.64,20.38-1.63,26-9.42,3.18-4.36,4.41-10,8-14C742.92,821.66,751.73,820.7,758.92,817.26Z"/><path class="cls-1" d="M179.13,862.65c-6.48-5.4-11.57-13-12-21.46-.28-5.39,1.34-10.7,1.55-16.1s-1.51-11.5-6.31-14c-7.44-3.83-18.38,2.81-24.1-3.28-3.44-3.66-2.29-9.74.4-14s6.63-7.66,8.81-12.19c6.1-12.73-5.3-28.26-19-31.85s-39.57-1-52.92,3.59c-.55,17.84,12.12,33.06,24.33,46.08q30.75,32.81,63.92,63.2c5.18,4.74,10.52,9.52,17,12.36s14.23,3.48,20.31,0C193.41,871.57,185.6,868.06,179.13,862.65Z"/><path class="cls-1" d="M517.83,952.25c4.68-11.22.35-26.54-11.1-30.63,12.64-1.49,21.49-15.15,20.42-27.83s-10-23.64-21-30.2-23.58-9.42-36.08-11.83c8.86-3.07,7.95-17.3.42-22.89s-17.79-5.1-27.15-4.57-19.76.5-26.77-5.73l5.44,7.63c15.77,13.88,30.75,29.3,40,48.16s12.13,41.75,3.5,60.9-30.41,32.79-50.92,28.23a83.61,83.61,0,0,0,75.91,11.31C502,970.77,513.15,963.47,517.83,952.25Z"/><path class="cls-2" d="M498.71,528.61s-.94-.55-2.74-1.66l-8-5c-7-4.36-17.43-10.69-31-18.53s-30.47-17-50.47-26.86c-10-4.87-20.78-10-32.39-15s-24-10.09-37.14-14.87-27.15-9.36-42-13.24-30.43-7.14-46.84-8.55a143.45,143.45,0,0,0-25-.09c-8.42.79-17,2.55-24.77,6.55-1,.51-1.93,1-2.87,1.54l-2.67,1.89-1.34.95c-.42.34-.8.75-1.2,1.12l-2.37,2.27c-2.77,3.37-5.35,7.08-6.57,11.39-2.95,8.49-2.18,17.93,0,26.82,4.48,17.95,14.18,34.68,25.18,50.55a398,398,0,0,0,37.87,45.65c27.79,29.25,59.7,56.47,93.95,82.08a980.92,980.92,0,0,0,104.76,68c35.2,19.74,70.41,36.6,105.09,49.74a485.28,485.28,0,0,0,51.59,16.44A260.18,260.18,0,0,0,650,798a127.32,127.32,0,0,0,24.17-1.14c7.79-1.22,15.4-3.47,21.82-7.55l2.31-1.63a13.4,13.4,0,0,0,2.21-1.75l2-1.93c.33-.33.69-.63,1-1l.85-1.1a27.16,27.16,0,0,0,5.19-9.57A38.55,38.55,0,0,0,711,761.71a59.85,59.85,0,0,0-1.18-10.49,100.18,100.18,0,0,0-6.22-19.45A165.08,165.08,0,0,0,695,714.36a288.32,288.32,0,0,0-19.53-29.82,492,492,0,0,0-36.8-43.7c-10.74-11.43-19.5-19.92-25.48-25.61-3-2.88-5.3-5-6.84-6.45s-2.31-2.22-2.31-2.22,3.27,2.86,9.31,8.5,14.84,14.08,25.64,25.48a485.86,485.86,0,0,1,37,43.63A290.06,290.06,0,0,1,695.59,714a167.15,167.15,0,0,1,8.72,17.46,100.93,100.93,0,0,1,6.31,19.6,60.29,60.29,0,0,1,1.21,10.64,39.32,39.32,0,0,1-1.45,10.88,28.1,28.1,0,0,1-5.33,9.86l-.87,1.14c-.31.36-.68.67-1,1l-2.07,2a15,15,0,0,1-2.25,1.79L696.47,790c-6.55,4.18-14.26,6.47-22.14,7.71A128.45,128.45,0,0,1,650,798.93a261.55,261.55,0,0,1-50.51-8.14,487.92,487.92,0,0,1-51.71-16.43c-34.75-13.14-70-30-105.27-49.76A978.33,978.33,0,0,1,337.6,656.54c-34.3-25.65-66.24-52.91-94.08-82.23a397.66,397.66,0,0,1-38-45.79c-11-15.94-20.77-32.74-25.31-50.92-2.14-9-2.94-18.63.1-27.38,1.26-4.44,3.92-8.28,6.79-11.74l2.45-2.34c.41-.38.8-.8,1.23-1.15l1.38-1,2.74-1.94c1-.56,2-1.05,2.94-1.58,7.92-4.08,16.63-5.84,25.13-6.63a145.35,145.35,0,0,1,25.22.12c16.48,1.44,32.15,4.78,47,8.64s28.82,8.52,42,13.33,25.59,9.86,37.16,15,22.36,10.19,32.38,15.09c20,9.92,36.82,19.19,50.41,27.05s23.95,14.29,30.93,18.71l7.92,5.07C497.81,528,498.71,528.61,498.71,528.61Z"/><path class="cls-2" d="M439,296.24s-1.17-.44-3.45-1.33-5.64-2.27-10.1-4c-8.91-3.42-22.09-8.35-39.37-13.79S347.43,265.74,322,262c-6.36-.9-13-1.66-19.83-2a166.44,166.44,0,0,0-21.2,0,98.37,98.37,0,0,0-22,3.82c-7.29,2.28-14.62,5.65-20.48,11.18a37.63,37.63,0,0,0-11.56,21.23c-1.54,8.28-.76,17,1.25,25.59,4.1,17.18,12.69,33.72,22.86,49.73,20.62,32,48.21,62.33,79.28,91.71s66.23,57.63,104.23,84.58a1149.59,1149.59,0,0,0,122.58,75.84c43.62,23.2,87.8,43,132.11,57.47,22.15,7.17,44.36,13,66.5,16.36a223.15,223.15,0,0,0,33.05,2.7c10.92,0,21.79-1.06,32-4.15s19.71-8.58,25.58-17.14a55,55,0,0,0,3.68-6.74l1.32-3.6a24.43,24.43,0,0,0,.93-3.7c1.2-5,1.14-10.08.93-15.1-.88-10.05-3.8-19.69-7.45-28.78a197.16,197.16,0,0,0-13.11-25.82A354.33,354.33,0,0,0,800.4,550.5c-11.32-13.56-22.89-26-34.29-37.48-45.88-45.79-88.05-77.34-117.33-98.57-14.71-10.58-26.52-18.23-34.4-23.6l-9-6.07c-2-1.37-3-2.1-3-2.1s1.06.67,3.1,2l9.06,6c7.93,5.3,19.78,12.89,34.53,23.42,29.38,21.14,71.64,52.61,117.64,98.37,11.43,11.49,23,23.91,34.4,37.49a353.34,353.34,0,0,1,32.31,44.69,199,199,0,0,1,13.2,25.93c3.68,9.15,6.64,18.86,7.54,29.07.23,5.09.29,10.3-.94,15.38a25.91,25.91,0,0,1-.94,3.79l-1.35,3.69a26.27,26.27,0,0,1-1.76,3.52,24.82,24.82,0,0,1-2,3.4,40,40,0,0,1-11.47,10.93A57.31,57.31,0,0,1,821,697c-10.34,3.14-21.3,4.17-32.29,4.21a222.28,222.28,0,0,1-33.21-2.7c-22.22-3.38-44.48-9.19-66.68-16.36-44.39-14.45-88.63-34.31-132.3-57.53a1148.15,1148.15,0,0,1-122.69-75.93c-38-27-73.1-55.33-104.3-84.73s-58.7-59.82-79.36-92c-10.18-16.08-18.79-32.69-22.91-50-2-8.62-2.81-17.5-1.22-25.94a38.35,38.35,0,0,1,11.83-21.66c6-5.64,13.44-9,20.8-11.32a98.46,98.46,0,0,1,22.22-3.81,165.71,165.71,0,0,1,21.28.08c6.88.39,13.51,1.17,19.88,2.09,25.51,3.79,46.91,9.95,64.19,15.36s30.44,10.51,39.32,14S439,296.24,439,296.24Z"/><path class="cls-2" d="M326.68,610.27l-9.95-4.39c-6.53-2.86-16.21-7-28.89-11.69a390,390,0,0,0-47.12-14.43,221.44,221.44,0,0,0-30.34-5,124.09,124.09,0,0,0-16.77-.38,74.54,74.54,0,0,0-17.41,2.73,43,43,0,0,0-8.42,3.48,29.92,29.92,0,0,0-7.41,5.59c-.52.58-1.09,1.13-1.58,1.75l-1.39,1.92c-.85,1.33-1.55,2.77-2.29,4.19-.48,1.53-1.16,3-1.49,4.59l-.46,2.4-.23,1.2-.07,1.23a53.24,53.24,0,0,0,2.64,19.8,106.68,106.68,0,0,0,8.29,19.18c6.69,12.54,15.39,24.48,25,36.21a422.45,422.45,0,0,0,31.79,34.22,674.67,674.67,0,0,0,77.29,63.9,811.78,811.78,0,0,0,91.56,56.7c32.65,17.23,65.78,31.85,99.08,42,16.66,5,33.38,8.9,50,10.55a119,119,0,0,0,24.75,0c2-.13,4-.66,6-1s3.91-1,5.86-1.51a39.65,39.65,0,0,0,10.69-5.29c6.66-4.44,10.57-12,11.49-19.61s-.76-15.4-3.13-22.54c-4.86-14.34-12.76-27-21-38.53a325.1,325.1,0,0,0-26.14-31.75c-9-9.7-18-18.6-26.89-26.81-35.61-32.83-67.83-55.38-90.25-70.49l-35.22-22.94s12.69,7.94,35.37,22.72c22.46,15,54.74,37.55,90.42,70.36,8.91,8.21,18,17.11,27,26.81a326.42,326.42,0,0,1,26.22,31.77c8.23,11.59,16.16,24.23,21.06,38.68,2.39,7.19,4,14.94,3.17,22.79s-4.93,15.51-11.73,20a40.31,40.31,0,0,1-10.85,5.39c-2,.49-3.92,1.16-5.93,1.53s-4,.84-6.08,1a119.57,119.57,0,0,1-24.88.05c-16.72-1.65-33.48-5.56-50.17-10.56-33.36-10.19-66.52-24.82-99.2-42.06a811.31,811.31,0,0,1-91.63-56.76,673.91,673.91,0,0,1-77.34-64,422,422,0,0,1-31.82-34.29c-9.57-11.76-18.28-23.74-25-36.33A107.77,107.77,0,0,1,155,623.46c-2-6.57-3.2-13.36-2.64-20l.08-1.24.23-1.22.47-2.44c.34-1.61,1-3.12,1.52-4.67.75-1.45,1.48-2.91,2.34-4.27l1.43-2c.49-.64,1.07-1.19,1.6-1.79a30.21,30.21,0,0,1,7.54-5.67,43.34,43.34,0,0,1,8.52-3.51A75.07,75.07,0,0,1,193.58,574a123.09,123.09,0,0,1,16.83.42,219.68,219.68,0,0,1,30.39,5,386.81,386.81,0,0,1,47.13,14.54c12.68,4.77,22.35,8.92,28.86,11.82S326.68,610.27,326.68,610.27Z"/><path class="cls-2" d="M456.52,928a21.86,21.86,0,0,0,2.75-7.56c1-5.23-.19-13.28-4.26-22.51-8.2-18.52-26.92-41.68-53.76-65.75A492,492,0,0,0,355,795.5a564.12,564.12,0,0,0-57.63-35.6c-10.51-5.65-21.48-11.08-32.91-16.1a346.85,346.85,0,0,0-35.7-13.6c-6.19-2-12.5-3.72-18.94-5.16a151.28,151.28,0,0,0-19.67-3.19,73.88,73.88,0,0,0-20.13.68c-6.58,1.19-13.28,4.24-17.1,10s-3.67,13.21-2,19.7a73.76,73.76,0,0,0,7.72,18.61,149.87,149.87,0,0,0,11,16.59c4,5.27,8.18,10.29,12.54,15.11a347.06,347.06,0,0,0,27.17,26.86c9.31,8.33,18.8,16.07,28.29,23.3a563.41,563.41,0,0,0,56.28,37.7,490,490,0,0,0,52.51,27c33,14.46,61.86,21.9,82.11,21.69,10.08-.11,17.89-2.38,22.25-5.45a21.69,21.69,0,0,0,5.74-5.63c-.19.27-.52.71-1.23,1.66a11.2,11.2,0,0,1-1.72,1.85,16,16,0,0,1-2.74,2.2c-4.36,3.1-12.19,5.41-22.3,5.54-20.29.27-49.17-7.14-82.24-21.57a491,491,0,0,1-52.57-26.92A563.81,563.81,0,0,1,237.38,853c-9.5-7.23-19-15-28.33-23.31a347.91,347.91,0,0,1-27.21-26.89c-4.36-4.82-8.58-9.86-12.56-15.13a151.3,151.3,0,0,1-11.09-16.64,74.32,74.32,0,0,1-7.77-18.73,32.71,32.71,0,0,1-1-10.21,19.37,19.37,0,0,1,10.76-16.69,32.44,32.44,0,0,1,9.7-3.33,74,74,0,0,1,20.25-.68,150,150,0,0,1,19.73,3.2c6.46,1.44,12.79,3.19,19,5.17a349.08,349.08,0,0,1,35.74,13.62c11.45,5,22.42,10.48,32.94,16.13a564.44,564.44,0,0,1,57.64,35.67,490.83,490.83,0,0,1,46.27,36.69C428.3,856,447,879.23,455.17,897.81c4.06,9.26,5.21,17.35,4.19,22.6a16.61,16.61,0,0,1-.87,3.4,11.09,11.09,0,0,1-1,2.34C457,927.19,456.68,927.67,456.52,928Z"/><path class="cls-2" d="M237.27,389.75a6.87,6.87,0,1,1-2.06-9.49A6.86,6.86,0,0,1,237.27,389.75Z"/><circle class="cls-2" cx="751.68" cy="726.37" r="6.87"/><path class="cls-2" d="M384.65,791.33a6.87,6.87,0,1,1-2.06-9.5A6.87,6.87,0,0,1,384.65,791.33Z"/><path class="cls-2" d="M304.73,529.85a3.44,3.44,0,1,1-1-4.75A3.45,3.45,0,0,1,304.73,529.85Z"/><path class="cls-2" d="M619,831.17a3.44,3.44,0,1,1-1-4.75A3.43,3.43,0,0,1,619,831.17Z"/><path class="cls-2" d="M304.88,818a3.44,3.44,0,1,1-1-4.75A3.43,3.43,0,0,1,304.88,818Z"/><path class="cls-3" d="M1370.21,318.79c.57.59,30.79,8.83,30.79,8.83l6.45,14.76-11.28,6.5-20.88-2.82-11.74,4s-5.53,6.56-6.65,7.47c-2.72,2.24-5.51-.05-5.51-.05l7.4-11.85s-9,11.16-10.49,10.74-3.12-3.12-1.12-6c0,0-2.86,3.35-5.75,2.74s-2.81-2.77-2.81-2.77l9.78-20a11.25,11.25,0,0,1,6.08-5.55Z"/><path class="cls-4" d="M1370.94,326a8.16,8.16,0,0,0,.88,1.69l2.74,4.61.17-.47-9.07,3a12.13,12.13,0,0,0-5.31,3A5.78,5.78,0,0,0,1359,341a4.09,4.09,0,0,0,1.23,3.48l.12.11.16,0c3.45.53,6.72-1.22,9.92-2.27a11.8,11.8,0,0,1,7.46-.25,46.4,46.4,0,0,1,6.74,2.76,23.89,23.89,0,0,0,6.45,2.12,11.75,11.75,0,0,0,5.93-.66,22.6,22.6,0,0,0,7.06-4.73,14.62,14.62,0,0,0,2.14-2.25,19.88,19.88,0,0,0-2.43,1.92,24.19,24.19,0,0,1-7,4.32,11.07,11.07,0,0,1-5.52.48A23.23,23.23,0,0,1,1385,344a45.72,45.72,0,0,0-6.88-2.87,12.79,12.79,0,0,0-8.1.25c-3.34,1.12-6.43,2.72-9.41,2.26l.27.12c-1.44-1.29-1-3.84.2-5.19a11.39,11.39,0,0,1,4.86-2.82l9-3.23.39-.14-.22-.33-3-4.45A7.31,7.31,0,0,0,1370.94,326Z"/><path class="cls-4" d="M1346.49,351.08c.08.09,1.51-1.22,3-3.9s2.8-6.7,5.19-10.51a6.19,6.19,0,0,1,2.17-2.15,30.41,30.41,0,0,1,2.81-1.2l4.9-2c2.78-1.17,4.48-2,4.42-2.12s-1.85.4-4.7,1.39l-5,1.78a30.33,30.33,0,0,0-3,1.2,7.08,7.08,0,0,0-2.57,2.5c-2.52,4-3.63,8.1-5,10.76S1346.34,351,1346.49,351.08Z"/><path class="cls-2" d="M1524.22,795.45l15.34,36.46s-31.91,27.84-29.73,34.85l71.77-27.21L1560,781.76Z"/><g class="cls-5"><path class="cls-6" d="M1560.57,820.38a3.14,3.14,0,0,1,3.3,2.58,3,3,0,0,1-2.53,3.29c-1.53.17-3.44-1.21-3.47-2.75s1.48-3.33,3-3.13"/></g><g class="cls-5"><path class="cls-6" d="M1581.6,839.55l-2.41-5.74-67.9,28.24s-2.67,2.6-1.46,4.71Z"/></g><path class="cls-7" d="M1538.26,832c.14.35,2-.16,4.11.32s3.63,1.59,3.9,1.33-1-2.08-3.64-2.61S1538.06,831.69,1538.26,832Z"/><path class="cls-7" d="M1531.91,838c0,.37,1.8.39,3.55,1.42s2.69,2.47,3,2.32-.19-2.21-2.39-3.45S1531.79,837.61,1531.91,838Z"/><path class="cls-7" d="M1531.05,848.58c.35-.05.17-2-1.45-3.56s-3.56-1.72-3.6-1.37,1.37,1,2.68,2.3S1530.69,848.68,1531.05,848.58Z"/><path class="cls-7" d="M1535.68,823.29c.27.26,1.7-.83,3.73-1.45s3.81-.58,3.88-1-1.89-1-4.27-.29S1535.41,823.08,1535.68,823.29Z"/><g class="cls-8"><polygon points="1527.27 802.66 1529.99 809.16 1565.14 795.47 1562.93 789.52 1527.27 802.66"/></g><path class="cls-7" d="M1532.72,815.87c.06.15,1.52-.16,3.59-1.38a17.24,17.24,0,0,0,3.32-2.58,16.93,16.93,0,0,0,1.65-1.88,5,5,0,0,0,.77-1.25,1.63,1.63,0,0,0-.55-1.93,2.08,2.08,0,0,0-1.84-.22,5,5,0,0,0-1.28.7,14.18,14.18,0,0,0-1.94,1.61,13.92,13.92,0,0,0-2.49,3.43c-1.08,2.18-1.15,3.7-1,3.72s.6-1.34,1.81-3.26a15.68,15.68,0,0,1,2.52-3,14.8,14.8,0,0,1,1.83-1.42c.68-.49,1.32-.74,1.65-.47.12.1.15.15.07.43a3.84,3.84,0,0,1-.56.92,21,21,0,0,1-1.49,1.8,20.72,20.72,0,0,1-3,2.65C1534,815.08,1532.65,815.68,1532.72,815.87Z"/><path class="cls-7" d="M1533.37,816.2c.15,0,.36-1.51-.37-3.83a12.37,12.37,0,0,0-3.72-5.58,3.17,3.17,0,0,0-3-.95,1.79,1.79,0,0,0-1.12,1.57,4.76,4.76,0,0,0,.13,1.46,8.43,8.43,0,0,0,.91,2.42,8.85,8.85,0,0,0,2.94,3.13c2.11,1.33,3.73,1.2,3.72,1.07s-1.43-.44-3.18-1.82a9,9,0,0,1-2.42-2.94,8,8,0,0,1-.72-2.11c-.18-.8-.12-1.53.19-1.56a2.24,2.24,0,0,1,1.71.7,13.26,13.26,0,0,1,3.68,4.94C1533,814.77,1533.16,816.22,1533.37,816.2Z"/><path class="cls-7" d="M1570.21,535.87c-.69,3.3-45.67,114.59-45.67,114.59S1549,683.53,1558.48,717s19.67,88.89,19.67,88.89L1520.33,824l-54.88-180.28,28.61-105.43Z"/><path class="cls-2" d="M1488.52,762.7l7.64,38.81s-36.89,20.8-36.17,28.11l75.78-12.11-9.42-61Z"/><g class="cls-5"><path class="cls-6" d="M1519.07,794.48a3.13,3.13,0,0,1,2.7,3.19,3,3,0,0,1-3.14,2.71c-1.53-.14-3.12-1.88-2.84-3.39s2.12-3,3.57-2.46"/></g><g class="cls-5"><path class="cls-6" d="M1535.77,817.51l-1.19-6.11-72.22,13.9s-3.13,2-2.37,4.32Z"/></g><path class="cls-7" d="M1494.87,801.32c.07.37,2,.24,4,1.14s3.23,2.3,3.54,2.1-.57-2.25-3-3.3S1494.73,801,1494.87,801.32Z"/><path class="cls-7" d="M1487.44,805.88c0,.37,1.68.74,3.19,2.11s2.13,3,2.5,2.88.26-2.2-1.64-3.86S1487.4,805.52,1487.44,805.88Z"/><path class="cls-7" d="M1484.45,816.11c.35,0,.57-1.9-.71-3.78s-3.13-2.4-3.24-2.07,1.14,1.25,2.16,2.8S1484.08,816.14,1484.45,816.11Z"/><path class="cls-7" d="M1494.11,792.28c.21.31,1.82-.47,3.94-.66s3.85.21,4-.14-1.64-1.42-4.12-1.16S1493.88,792,1494.11,792.28Z"/><g class="cls-8"><polygon points="1490.04 770.38 1491.39 777.3 1528.58 771.01 1527.63 764.73 1490.04 770.38"/></g><path class="cls-7" d="M1492.71,784.42c0,.16,1.52.15,3.79-.62a17.8,17.8,0,0,0,5.77-3.36,4.85,4.85,0,0,0,1-1.08,1.64,1.64,0,0,0-.15-2,2,2,0,0,0-1.76-.59,5,5,0,0,0-1.39.42,13.84,13.84,0,0,0-2.23,1.19,13.57,13.57,0,0,0-3.13,2.86c-1.5,1.91-1.88,3.38-1.74,3.44s.86-1.21,2.43-2.84a15.54,15.54,0,0,1,3.08-2.44,14.23,14.23,0,0,1,2.07-1c.77-.34,1.46-.46,1.72-.13.1.12.11.17,0,.43a3.76,3.76,0,0,1-.74.79,19.87,19.87,0,0,1-1.82,1.47,22,22,0,0,1-3.44,2C1494.08,783.89,1492.67,784.22,1492.71,784.42Z"/><path class="cls-7" d="M1493.28,784.88c.14,0,.66-1.41.41-3.83a12.55,12.55,0,0,0-1.18-4.07,12.11,12.11,0,0,0-1.34-2.15,3.14,3.14,0,0,0-2.72-1.53,1.78,1.78,0,0,0-1.42,1.31,5.18,5.18,0,0,0-.17,1.45,8.85,8.85,0,0,0,2.66,6.22c1.79,1.73,3.41,1.93,3.42,1.79s-1.31-.71-2.75-2.42a8.88,8.88,0,0,1-1.77-3.37,8.34,8.34,0,0,1-.28-2.2c0-.83.19-1.53.5-1.49s1.12.44,1.53,1a12.41,12.41,0,0,1,1.27,1.91,13.88,13.88,0,0,1,1.34,3.67C1493.24,783.4,1493.07,784.85,1493.28,784.88Z"/><path class="cls-7" d="M1686.32,425.34s18.53,31.09,7.19,60.86-29.18,48.05-68,61.69S1505,596.65,1505,596.65s14.23,45.38,19.22,85.3,7.71,101.6,7.71,101.6L1493.11,795s-68.95-200.31-73.34-218.7,21-38.85,34.54-50.34,95.86-65.54,95.86-65.54l76.73-44.16Z"/><path class="cls-9" d="M1493.11,795a3.8,3.8,0,0,0,.69-.18l2-.62,7.8-2.51,29.36-9.63.25-.09,0-.27c-1.45-18.09-3.34-41.58-5.53-68.7-1.11-13.57-2.29-28-3.53-43.19-.62-7.56-1.15-15.37-2.5-23.2a150.82,150.82,0,0,0-5.83-23.48,115.09,115.09,0,0,0-12-25.65l-.24.82c22.57-9.63,43.9-18.5,63.22-26.35,9.67-3.91,18.83-7.55,27.41-10.87s16.63-6.18,23.85-9.09c14.44-5.78,25.7-11.2,33.37-15.09,3.83-1.94,6.76-3.51,8.74-4.58l2.23-1.25a7.57,7.57,0,0,0,.75-.45,4.22,4.22,0,0,0-.8.36l-2.28,1.15-8.82,4.42c-7.71,3.77-19,9.07-33.46,14.76-7.22,2.86-15.29,5.65-23.89,9s-17.78,6.89-27.46,10.78c-19.36,7.79-40.71,16.62-63.29,26.24l-.6.26.37.56a114.62,114.62,0,0,1,11.8,25.37,150.79,150.79,0,0,1,5.8,23.32c1.35,7.78,1.87,15.5,2.51,23.08,1.27,15.16,2.48,29.63,3.62,43.2,2.31,27.11,4.31,50.6,5.85,68.69l.23-.35-29.26,9.92-7.74,2.68-2,.71A4.66,4.66,0,0,0,1493.11,795Z"/><path class="cls-9" d="M1476.21,581.94c-.13.32,6.32,2.92,13.6,7.34s12.6,8.89,12.82,8.63-1.11-1.37-3.27-3.19a71.82,71.82,0,0,0-9-6.39,72.57,72.57,0,0,0-9.83-5C1477.94,582.29,1476.26,581.81,1476.21,581.94Z"/><path class="cls-9" d="M1467.48,589.68c0,.37,8.13-.67,17.79,1.57s16.58,6.56,16.74,6.22c.07-.11-1.54-1.35-4.45-2.89a49.67,49.67,0,0,0-24.81-5.61C1469.46,589.12,1467.47,589.55,1467.48,589.68Z"/><path class="cls-9" d="M1527.5,257.92c-2.18,2.47-45.36,60.56-48.09,61.66s-80.45,3.68-80.45,3.68l-5.26,27s77.85,21.83,97.59,14.67,44.39-35.27,44.39-35.27Z"/><path class="cls-9" d="M1654.42,229.16s100.47,43.76,107.14,62.52,1.77,32.5-2.93,37.18c-6.56,6.53-100.24,31.49-100.24,31.49l-19.28-32.6c13.42-8.79,31.23-18.51,50.62-28.56-12.86-5.83-25.79-8.95-38.91-6.11l-30.7-14.61S1632.46,232.75,1654.42,229.16Z"/><path class="cls-9" d="M1666.85,249.37s-2.87-17-12.94-20.26c-16.91-5.44-29.45-5.85-40.44-6.72-12.59-1-26.11-2.56-26.11-2.56l-59.86,38.09s-12.31,69.07-6.13,82.36a38.89,38.89,0,0,0,18.25,18.33,89.9,89.9,0,0,1,13.1,46.16c0,22.34-2.55,55.67-2.55,55.67s69.32-41.9,111.43-38.87c22.6,1.63,30.21,15.66,30.21,15.66L1662,355.34h0L1656.64,300Z"/><path class="cls-7" d="M1640.94,326.48s.28-.25.87-.65,1.49-1,2.68-1.65c2.35-1.39,5.81-3.31,10.11-5.63,8.6-4.66,20.57-10.94,33.82-17.82l2.28-1.18,1.22-.64-1.32-.39c-6.89-2-13.38-4-19.36-5.68a39.37,39.37,0,0,0-16.42-.55,38.63,38.63,0,0,0-10.48,3.44,28.07,28.07,0,0,0-2.59,1.49,3.78,3.78,0,0,0-.85.61c.11.29,4.89-3.29,14-4.78a39.67,39.67,0,0,1,16,.76l19.29,5.77-.09-1-2.29,1.18c-13.25,6.88-25.16,13.28-33.68,18.12S1640.61,326.09,1640.94,326.48Z"/><path class="cls-7" d="M1715.51,290.62c0-.11-1.37-.9-3.92-1.39a19.76,19.76,0,0,0-18.43,6.34c-1.71,2-2.35,3.46-2.24,3.51s1-1.22,2.81-3a21.47,21.47,0,0,1,17.74-6.1C1714,290.28,1715.45,290.79,1715.51,290.62Z"/><path class="cls-7" d="M1629.91,273.64c.19,0-.26-3-.37-7.74a50.73,50.73,0,0,1,2.73-18.26,31.89,31.89,0,0,1,5-8.77l1.52-1.7c.5-.53,1.08-1,1.59-1.44a24.58,24.58,0,0,1,3.1-2.29,28.69,28.69,0,0,1,5-2.5,8.19,8.19,0,0,0,1.91-.87,7.17,7.17,0,0,0-2.05.46,23.25,23.25,0,0,0-5.29,2.23,22.86,22.86,0,0,0-3.28,2.27c-.54.47-1.15.9-1.69,1.45l-1.61,1.73a31.18,31.18,0,0,0-5.26,9,46.83,46.83,0,0,0-2.47,18.67,45.3,45.3,0,0,0,.66,5.67A7.27,7.27,0,0,0,1629.91,273.64Z"/><path class="cls-7" d="M1542.4,359.91c0-.11-1.25-.63-3.39-1.9a36.19,36.19,0,0,1-8.22-6.52,37.94,37.94,0,0,1-8.15-13.13,35.47,35.47,0,0,1-1.57-18.71c1.13-6.69,3.41-12.82,5.17-18.49a69.78,69.78,0,0,0,3.39-15.45,32,32,0,0,0-.74-10.64,20.28,20.28,0,0,0-.92-2.76,4.15,4.15,0,0,0-.44-.91c-.11,0,.42,1.33.93,3.77a34,34,0,0,1,.39,10.47,73.77,73.77,0,0,1-3.59,15.21c-1.8,5.63-4.13,11.78-5.29,18.62a36,36,0,0,0,1.71,19.25,37.74,37.74,0,0,0,8.55,13.32,33.59,33.59,0,0,0,8.57,6.35,19.84,19.84,0,0,0,2.64,1.2A3.15,3.15,0,0,0,1542.4,359.91Z"/><g class="cls-8"><path d="M1656.14,317a10.44,10.44,0,0,0-10.68-9.42c-2.83.18-5.44,1.54-8.21,2.14-1.75.38-3.9.3-4.89-1.18-1.25-1.85.23-4.3,1.8-5.89a35.6,35.6,0,0,1,24.24-10.44c-1.84,8.08-2.09,15.48.51,23.35"/></g><g class="cls-8"><path d="M1529.16,284.73c.65-8-3.89,15.62-7.56,22.81s-7.74,14.23-10.06,22-3.18,15.58.46,22.78l11.57-10.16s-6.08-10.2-3.34-20.51S1528.9,288,1529.16,284.73Z"/></g><g class="cls-8"><path d="M1690.51,298.43c2.1-5.54,7.11-9.45,12.32-12.26a24.49,24.49,0,0,1,10.16-3.33c3.59-.2,7.41,1,9.64,3.84a3.54,3.54,0,0,1,.93,3,3,3,0,0,1-2.8,1.95,11.59,11.59,0,0,1-3.57-.61,27.51,27.51,0,0,0-26.09,7.31"/></g><path class="cls-7" d="M1647.69,255.74a4.76,4.76,0,1,0,2.64-6.19A4.77,4.77,0,0,0,1647.69,255.74Z"/><path class="cls-7" d="M1612.17,236.08a4.76,4.76,0,1,0,2.64-6.19A4.77,4.77,0,0,0,1612.17,236.08Z"/><path class="cls-7" d="M1566.63,256.55a4.76,4.76,0,1,0,2.63-6.19A4.76,4.76,0,0,0,1566.63,256.55Z"/><path class="cls-7" d="M1529.75,268.18a4.76,4.76,0,1,0,2.64-6.19A4.76,4.76,0,0,0,1529.75,268.18Z"/><path class="cls-7" d="M1491.65,344.41a4.76,4.76,0,1,0,2.64-6.19A4.76,4.76,0,0,0,1491.65,344.41Z"/><path class="cls-7" d="M1526,325.45a4.76,4.76,0,1,0,2.64-6.19A4.77,4.77,0,0,0,1526,325.45Z"/><path class="cls-7" d="M1506.54,299.12a4.76,4.76,0,1,0,2.63-6.19A4.76,4.76,0,0,0,1506.54,299.12Z"/><circle class="cls-7" cx="1461.73" cy="331.15" r="4.76"/><path class="cls-7" d="M1428.27,349.25a4.76,4.76,0,1,0,2.64-6.2A4.77,4.77,0,0,0,1428.27,349.25Z"/><path class="cls-7" d="M1558.12,351.9a4.76,4.76,0,1,0,2.63-6.2A4.76,4.76,0,0,0,1558.12,351.9Z"/><path class="cls-7" d="M1552.16,383.45a4.76,4.76,0,1,0,2.64-6.19A4.76,4.76,0,0,0,1552.16,383.45Z"/><path class="cls-7" d="M1591.94,387a4.76,4.76,0,1,0,2.64-6.2A4.76,4.76,0,0,0,1591.94,387Z"/><path class="cls-7" d="M1624.49,406.19a4.76,4.76,0,1,0,2.63-6.19A4.76,4.76,0,0,0,1624.49,406.19Z"/><path class="cls-7" d="M1570.24,422.58a4.76,4.76,0,1,0,2.64-6.19A4.77,4.77,0,0,0,1570.24,422.58Z"/><path class="cls-7" d="M1666,413.05a4.76,4.76,0,1,0,2.63-6.19A4.76,4.76,0,0,0,1666,413.05Z"/><path class="cls-7" d="M1619.63,351.15a4.76,4.76,0,1,0,2.63-6.2A4.74,4.74,0,0,0,1619.63,351.15Z"/><path class="cls-7" d="M1647.47,377.4a4.76,4.76,0,1,0,2.64-6.19A4.76,4.76,0,0,0,1647.47,377.4Z"/><path class="cls-7" d="M1553.89,300.63a4.76,4.76,0,1,0,2.63-6.2A4.76,4.76,0,0,0,1553.89,300.63Z"/><path class="cls-7" d="M1595.64,324.8a4.76,4.76,0,1,0,2.64-6.19A4.77,4.77,0,0,0,1595.64,324.8Z"/><path class="cls-7" d="M1610.73,286.19a4.76,4.76,0,1,0,2.64-6.2A4.77,4.77,0,0,0,1610.73,286.19Z"/><path class="cls-7" d="M1747.09,310.71a4.76,4.76,0,1,0,2.64-6.19A4.77,4.77,0,0,0,1747.09,310.71Z"/><path class="cls-7" d="M1704.17,263.05a4.76,4.76,0,1,0,2.64-6.19A4.76,4.76,0,0,0,1704.17,263.05Z"/><path class="cls-7" d="M1689.94,341a4.76,4.76,0,1,0,2.64-6.2A4.77,4.77,0,0,0,1689.94,341Z"/><path class="cls-7" d="M1654.71,331.2a4.76,4.76,0,1,0,2.64-6.2A4.77,4.77,0,0,0,1654.71,331.2Z"/><path class="cls-7" d="M1706.49,304.78a4.76,4.76,0,1,0,2.64-6.2A4.75,4.75,0,0,0,1706.49,304.78Z"/><path class="cls-7" d="M1671.77,284.84a4.76,4.76,0,1,0,2.64-6.2A4.76,4.76,0,0,0,1671.77,284.84Z"/><path class="cls-2" d="M1766.53,540c-50,9.46-95.44,8.56-135.08-2.68a203.94,203.94,0,0,1-83.78-46.65c-39.73-36.74-53.07-78-54-80.88-19.4-56.16-8.89-122.89,26.79-170,30.82-40.72,79.92-68.31,138.23-77.69,36.56-5.88,89.53-6.09,134.22,26.31,20.07,14.55,37.17,37,46.91,61.52,10.43,26.29,11.76,52.9,3.76,74.93-11.06,30.45-48,37-77.61,42.3-3,.53-5.9,1.05-8.7,1.58-29.5,5.57-156.31-3.34-158.28-3.25l-1.18-9.52c.48,0,128.66,7.13,157.37,1.7,2.84-.53,5.79-1.06,8.82-1.6,26.8-4.77,60.15-10.71,69-35.06,12.4-34.11-1.93-91-46.69-123.49-41.56-30.13-91.36-29.85-125.82-24.3-55.44,8.91-102,35-131,73.37-33.49,44.25-43.34,106.91-25.09,159.64l.06.19c.12.41,12.76,40.75,50.88,76a192.92,192.92,0,0,0,79.21,44.09c37.94,10.76,81.65,11.58,129.92,2.45a126.62,126.62,0,0,0,48.19-19.84c12.68-8.65,22.5-17.5,29.52-26.71a138.15,138.15,0,0,1-31-4.94c-13.85-3.92-25.22-13.89-30.43-26.67-6.46-15.85-3.52-34.05,7.84-48.69,10.31-13.26,25.29-20.33,39.11-18.42,9.76,1.34,23.29,7.61,32.34,29.84,8.26,20.27,8.81,39.47,1.69,57.2a140.67,140.67,0,0,0,36.17-8.34c45.46-16.9,90.82-63,125.07-124.64.09,7.31,0,14.36-.42,21.11-35.59,64-72.64,96.2-120.73,114.08a150.75,150.75,0,0,1-46,9.48c-7.85,12.68-19.93,24.49-36.8,36a136.58,136.58,0,0,1-25.93,13.86A140.83,140.83,0,0,1,1766.53,540Zm31-131c-8.87,11.42-11.23,25.45-6.31,37.53a35.13,35.13,0,0,0,23.07,20.08,128.68,128.68,0,0,0,34.94,4.69c8.33-16.41,8.37-34,.42-53.54-5.56-13.66-13.66-21.59-23.44-22.94a25.28,25.28,0,0,0-12.88,1.8A38.78,38.78,0,0,0,1797.48,409Z"/><path class="cls-7" d="M1849.52,491.24c.1.1,1.44-1.14,3.17-3.49a79.53,79.53,0,0,0,6-9.65,71.85,71.85,0,0,0,4.61-10.38c.94-2.77,1.13-4.6,1-4.62s-.61,1.69-1.73,4.34-2.81,6.25-4.85,10.14-4.09,7.31-5.66,9.72S1849.4,491.13,1849.52,491.24Z"/><path class="cls-7" d="M1836.08,489.54c.06.11,1.86-.85,4.23-3.09a42.71,42.71,0,0,0,7.64-10.08,53.4,53.4,0,0,0,4.84-11.68c.85-3.13,1-5.14.9-5.16s-.62,1.91-1.65,4.93a69.78,69.78,0,0,1-5.06,11.36,51.64,51.64,0,0,1-7.23,10.07C1837.58,488.22,1836,489.39,1836.08,489.54Z"/><path class="cls-6" d="M1863.39,436.54a6.56,6.56,0,0,0,0-2,45.18,45.18,0,0,0-.72-5.31,67.21,67.21,0,0,0-15.31-31.46,46.21,46.21,0,0,0-3.73-3.85c-.93-.85-1.47-1.29-1.52-1.23s1.84,2.1,4.64,5.58a78.57,78.57,0,0,1,9.35,14.7,79.42,79.42,0,0,1,5.8,16.43C1862.87,433.8,1863.2,436.56,1863.39,436.54Z"/><path class="cls-6" d="M1904.61,463.58c0,.13,2.13-.18,5.4-1.16a59.43,59.43,0,0,0,23-13.27c2.49-2.35,3.8-4,3.7-4.1s-1.63,1.34-4.22,3.51a74.61,74.61,0,0,1-22.7,13.11C1906.59,462.83,1904.57,463.41,1904.61,463.58Z"/><path class="cls-6" d="M1587.48,510.53c-.08.12,1.76,1.45,4.9,3.34a119,119,0,0,0,12.72,6.54,117.76,117.76,0,0,0,13.41,5c3.51,1.05,5.73,1.51,5.77,1.37s-2.1-.89-5.52-2.12-8.13-3-13.21-5.25-9.56-4.51-12.79-6.21S1587.56,510.39,1587.48,510.53Z"/><path class="cls-6" d="M1843.58,283.2a17.91,17.91,0,0,0,0-3.21c-.09-2.07-.4-5.05-1-8.71a110.33,110.33,0,0,0-2.73-12.71,114.22,114.22,0,0,0-12.64-29.16,113,113,0,0,0-7.42-10.68,86.81,86.81,0,0,0-5.71-6.64,18.13,18.13,0,0,0-2.3-2.23,17.15,17.15,0,0,0,2,2.52c1.35,1.56,3.21,3.89,5.41,6.83a127.51,127.51,0,0,1,7.16,10.73,122.88,122.88,0,0,1,12.54,28.91,124.61,124.61,0,0,1,2.93,12.56c.65,3.62,1.08,6.57,1.29,8.62A17.3,17.3,0,0,0,1843.58,283.2Z"/><path class="cls-6" d="M1793,194.17c-.19.24,2,2.29,4.81,4.57s5.31,3.94,5.5,3.7-2-2.28-4.81-4.57S1793.17,193.93,1793,194.17Z"/><path class="cls-7" d="M1501.84,203.94c4.1,3,4.08,9.1,2.8,14s-3.39,10-2.05,14.85c1.84,6.69,9.51,10.1,16.44,10.33,2.12.07,4.4,0,6.2,1.1,2.54,1.61,3.13,5,4.3,7.73a14.62,14.62,0,0,0,11.69,8.89c5.11.47,10.49-2.58,12.28-7.4a17.06,17.06,0,0,0,.37-8.92c-2-11.27-9.19-21.7-19.47-26.71-5.11-2.49-10.76-3.63-16.08-5.65s-10.56-5.24-13-10.37"/><path class="cls-7" d="M1483.32,155.91c-.11-8.69,5.67-16.38,12.21-22.11,9.4-8.23,21.3-14,33.79-14.47,18.3-.65,35,9.92,49.28,21.44,6.19,5,13.12,10.61,21.06,9.91,4.23-.37,8.08-2.53,12.17-3.67a26,26,0,0,1,19.1,2.16c7,3.81,12.73,11,20.69,11.3,5.14.17,9.82-2.67,14.64-4.43,10-3.68,22.9-1.91,29,6.88,4,5.74,4.65,13.66,9.9,18.27,1.91,1.67,4.28,2.75,6.14,4.47a11.74,11.74,0,0,1-10.3,20.11c-1.86-.38-3.65-1.21-5.55-1.24-4-.05-7.16,3.43-9.26,6.86s-4,7.35-7.51,9.26c-7.26,3.91-16.82-2.84-24.26.72-4.16,2-6.26,6.58-9,10.26-4.86,6.45-9.49,4.28-17,1.33s-1.79,19.92-16.63,19.33c-13.82-.56-10.31-25.26-14.4-23.07s-15.63,6-19.46,3.39"/><path class="cls-7" d="M1490.85,178.8a30.63,30.63,0,0,1-7.09-27.15c1.68-7.14,5.93-13.46,11.1-18.66,6.94-7,15.94-12.28,25.74-13.25s20.31,3,25.86,11.08c2.52,3.69,4,8.15,7.3,11.19,1.42,1.32,3.25,2.49,3.67,4.39a4.63,4.63,0,0,1-2.07,4.58,10.15,10.15,0,0,1-5,1.55c-6,.57-12.06-.84-17.95-2.25"/><path class="cls-3" d="M1551.87,246.18c-4.08-7.34-5.72-10.37-5.69-10.3s-17,5.84-31.2-12.74c-7.07-9.24-15.53-26.09-22-40.1-5.83-12.61-5.84-31.94,7-37.23l43.13-10.94a8.14,8.14,0,0,1,10.32,3.79l43.91,90.56s-9.67,29.29-26.86,32.79S1551.87,246.18,1551.87,246.18Z"/><path class="cls-7" d="M1505.57,194.63a3,3,0,0,0,3.94,1.27,2.84,2.84,0,0,0,1.41-3.81,3,3,0,0,0-3.93-1.27A2.83,2.83,0,0,0,1505.57,194.63Z"/><path class="cls-7" d="M1501.23,189.72c.51.16,1.69-2.37,4.5-3.88s5.63-1.22,5.74-1.73c.07-.23-.59-.66-1.84-.83a8.16,8.16,0,0,0-4.82,1,7.8,7.8,0,0,0-3.36,3.51C1501,188.88,1501,189.65,1501.23,189.72Z"/><path class="cls-7" d="M1531.31,181a3,3,0,0,0,3.93,1.28,2.85,2.85,0,0,0,1.42-3.81,3,3,0,0,0-3.94-1.27A2.83,2.83,0,0,0,1531.31,181Z"/><path class="cls-7" d="M1529.09,175.32c.51.17,1.69-2.36,4.5-3.87s5.63-1.22,5.74-1.73c.07-.23-.59-.67-1.84-.83a8,8,0,0,0-4.82,1,7.75,7.75,0,0,0-3.36,3.51C1528.81,174.48,1528.85,175.26,1529.09,175.32Z"/><path class="cls-7" d="M1530.16,201.64c-.07-.17-2,.47-5,1.64-.75.31-1.51.54-1.89.11a4.16,4.16,0,0,1-.68-2.38q-.39-3.15-.83-6.6c-1.26-9.36-2.58-16.9-3-16.84s.34,7.68,1.6,17q.49,3.45.94,6.58a4.73,4.73,0,0,0,1.15,3,2.06,2.06,0,0,0,1.74.41,5.62,5.62,0,0,0,1.31-.49C1528.47,202.74,1530.24,201.8,1530.16,201.64Z"/><g class="cls-10"><path class="cls-4" d="M1546.18,235.88a58.87,58.87,0,0,0,23.3-22s.76,17.78-20.61,26.88Z"/></g><path class="cls-11" d="M1535,207.75a5.71,5.71,0,0,1,3.51-4.32,5.24,5.24,0,0,1,4.11,0,3.31,3.31,0,0,1,2,3.22,3.84,3.84,0,0,1-3.17,2.92,11.88,11.88,0,0,1-4.74-.2,3.51,3.51,0,0,1-1.25-.39,1.06,1.06,0,0,1-.56-1.05"/><path class="cls-7" d="M1523.38,165.22c.69.61,3.3-1.27,6.8-2.65s6.66-1.93,6.72-2.85c0-.43-.83-.9-2.3-1.05a12.68,12.68,0,0,0-10.3,4.18C1523.35,164,1523.07,164.92,1523.38,165.22Z"/><path class="cls-7" d="M1495.41,177c.84.37,2.41-1.34,4.72-2.63s4.52-1.89,4.61-2.8c0-.43-.63-.9-1.81-1a7.79,7.79,0,0,0-7.52,4.37C1494.94,176,1495,176.82,1495.41,177Z"/><path class="cls-3" d="M1566.09,175.84c-.82-1.52-1-6,.37-7.08,3.66-2.78,11-6.35,16.58,3.75,7.59,13.81-7.84,18.58-8.09,18.2S1568.9,181.07,1566.09,175.84Z"/><path class="cls-4" d="M1576.3,183.16c0-.08.33,0,.84,0a2.77,2.77,0,0,0,1.82-.95c1.16-1.34,1.12-4.33-.18-6.86a9.11,9.11,0,0,0-2.57-3.07,3.14,3.14,0,0,0-2.82-.85,1.38,1.38,0,0,0-1.06,1.44c0,.48.27.71.2.77s-.42-.06-.62-.69a1.78,1.78,0,0,1,.07-1.17,2,2,0,0,1,1.14-1.08,3.84,3.84,0,0,1,3.68.76,9.26,9.26,0,0,1,3,3.39c1.44,2.83,1.45,6.22-.23,7.89a3,3,0,0,1-2.4.85C1576.51,183.48,1576.26,183.21,1576.3,183.16Z"/><path class="cls-7" d="M1496.77,144.45a21.52,21.52,0,0,0,20.53,7.92c4.06-.74,8.43-2.63,12.07-.69s4.79,7.1,8.41,9.25c5,3,12.41-1.11,16.93,2.59,2,1.61,2.78,4.33,4.78,5.91,2.67,2.11,6.86,1.41,9.27-1s3.21-6.05,2.87-9.43a31.73,31.73,0,0,0-3.1-9.66c-2.76-6.08-5.85-12.17-10.58-16.89-9.9-9.91-35.55-17.42-47.51-10.14"/><path class="cls-7" d="M1505.23,207.61c-4.9-2.59-9.82-5.69-14.72-8.28-4.62-2.43-9.52-5.14-11.86-9.81-2-3.94-1.75-8.61-1.12-13,1.22-8.32,3.74-16.37,6.25-24.39a20,20,0,0,1,2.4-5.59,10,10,0,0,1,3.78-3.24,5.73,5.73,0,0,1,4-.59,3.17,3.17,0,0,1,2.43,3c-.05,1.29-1.05,2.31-1.9,3.29-4.79,5.52-6.12,13.38-5.21,20.64s4,13.41,6.85,20.13c2.25,5.25,5.25,10.61,7.76,15.28"/><path class="cls-7" d="M1510.65,122.74a47.39,47.39,0,0,1,47.07.74c7.8,4.76,15.09,12.12,24.23,11.75,7.47-.3,13.73-5.84,21-7.39a20.62,20.62,0,0,1,18.52,5.48c3.79,3.78,6.23,9.18,11.1,11.42,6.42,2.94,14.39-.87,20.86,1.95,5.33,2.33,7.94,8.5,8.54,14.29.25,2.4.17,5.06-1.37,6.93-1.33,1.62-3.49,2.31-5.55,2.74-7.11,1.48-14.46.91-21.67.12-16.26-1.79-32.38-4.68-48.48-7.56-7.47-1.34-15-2.71-21.91-6-9-4.3-16.26-11.57-24-18s-16.61-12.28-26.61-12.76"/><path class="cls-9" d="M1710.38,203a2.59,2.59,0,0,0,.51-.41,8.09,8.09,0,0,0,1.28-1.45,11,11,0,0,0,1.73-7.15,13.84,13.84,0,0,0-5.56-10.12c-3.71-2.84-9.09-4.22-14.87-4.07s-12,1.86-18.53,3.12a43.55,43.55,0,0,1-10.28.86,22.27,22.27,0,0,1-10.34-2.86c-3.19-1.87-5.59-4.95-7.57-8.33s-3.75-7.1-6.39-10.4a30.88,30.88,0,0,0-22.52-11.38,29.14,29.14,0,0,0-12.91,2.22c-4,1.66-7.59,3.88-11.27,5.66a28.33,28.33,0,0,1-11.38,3.25,14.76,14.76,0,0,1-5.58-.89,17.16,17.16,0,0,1-4.76-2.88c-2.88-2.36-5.29-5.24-8.27-7.4a24.84,24.84,0,0,0-9.73-4.13c-6.76-1.25-13.14-.51-18.82.19a105.2,105.2,0,0,1-15.35,1.41,36.3,36.3,0,0,1-11.44-1.65,21.62,21.62,0,0,1-6.44-3.42c-1.31-1-1.92-1.69-2-1.64a15.11,15.11,0,0,0,1.83,1.81,20.7,20.7,0,0,0,6.44,3.66,36,36,0,0,0,11.57,1.86,102.72,102.72,0,0,0,15.46-1.25c5.66-.65,12-1.32,18.54-.07a24.09,24.09,0,0,1,9.33,4c2.85,2.08,5.23,4.94,8.2,7.4a18,18,0,0,0,5,3.07,15.56,15.56,0,0,0,6,1,29.11,29.11,0,0,0,11.82-3.33c3.75-1.81,7.34-4,11.23-5.61a28,28,0,0,1,12.42-2.14,29.86,29.86,0,0,1,21.73,11c2.54,3.16,4.26,6.85,6.33,10.27s4.55,6.68,8,8.67a23.19,23.19,0,0,0,10.81,2.95,43.92,43.92,0,0,0,10.5-.94c6.63-1.31,12.69-3.07,18.38-3.24s10.88,1.1,14.48,3.79a13.47,13.47,0,0,1,5.5,9.66,11,11,0,0,1-1.49,7A19.88,19.88,0,0,1,1710.38,203Z"/><path class="cls-9" d="M1691.12,159a5.94,5.94,0,0,0-2-.86,11,11,0,0,0-6.31.53,29.6,29.6,0,0,0-8.55,5.26,41.79,41.79,0,0,1-5.09,3.53,13.21,13.21,0,0,1-6.47,1.88,14.08,14.08,0,0,1-7.1-2.11,26.07,26.07,0,0,1-6.19-5.36c-1.91-2.13-3.68-4.54-5.74-6.87a55.63,55.63,0,0,0-6.87-6.65c-5-4.1-11.43-7.64-18.73-8a25.93,25.93,0,0,0-10.75,1.91c-3.46,1.27-6.8,2.88-10.34,3.93a16.17,16.17,0,0,1-10.55.06c-3.32-1.23-6.06-3.59-8.7-5.9a44.65,44.65,0,0,0-8.36-6.37,25.28,25.28,0,0,0-9.73-2.77c-6.61-.56-12.82.8-18.36,2.42s-10.63,3.45-15.38,4.61a42.28,42.28,0,0,1-13,1.41,27.32,27.32,0,0,1-9.59-2.26A19.63,19.63,0,0,1,1498,134c-1.07-1-1.55-1.56-1.6-1.51a12.08,12.08,0,0,0,1.45,1.67,18.44,18.44,0,0,0,5.22,3.61,27.5,27.5,0,0,0,9.74,2.49A42.31,42.31,0,0,0,1526,139c4.82-1.12,9.92-2.9,15.45-4.48s11.62-2.86,18-2.29a24.38,24.38,0,0,1,9.33,2.69,44.22,44.22,0,0,1,8.14,6.24c2.64,2.33,5.47,4.79,9,6.13a17.34,17.34,0,0,0,11.25,0c3.66-1.09,7-2.72,10.41-4a24.79,24.79,0,0,1,10.31-1.86c7,.35,13.17,3.74,18.14,7.74a55.85,55.85,0,0,1,6.78,6.5c2,2.27,3.82,4.68,5.78,6.84,3.78,4.35,8.79,7.71,14,7.64a13.94,13.94,0,0,0,6.82-2,41.6,41.6,0,0,0,5.12-3.66,29.64,29.64,0,0,1,8.32-5.34,11,11,0,0,1,6.11-.72A18.35,18.35,0,0,1,1691.12,159Z"/><path class="cls-9" d="M1645.06,228.76c0-.06-.38.05-1.06,0a4,4,0,0,1-2.48-1.48,4.89,4.89,0,0,1-1-4.36,11.76,11.76,0,0,1,3.16-5.33c1.56-1.75,3.65-3.53,4.88-6.25a13.53,13.53,0,0,0,.42-9.13,17.25,17.25,0,0,0-5.58-8.41,22.57,22.57,0,0,0-9.89-4.4c-7.37-1.42-14.47,0-20.63,1.2s-11.78,2.36-16.53,2.31a29.21,29.21,0,0,1-11-1.92c-2.47-1-3.67-1.89-3.73-1.79a4.29,4.29,0,0,0,.85.68,17.76,17.76,0,0,0,2.71,1.51,27.85,27.85,0,0,0,11.14,2.31c4.85.15,10.55-.86,16.74-2.09s13.12-2.49,20.22-1.11a21.61,21.61,0,0,1,9.41,4.14,16.29,16.29,0,0,1,5.28,7.86,12.67,12.67,0,0,1-.28,8.47c-1.07,2.49-3,4.27-4.62,6.09a12.31,12.31,0,0,0-3.18,5.74,5.34,5.34,0,0,0,1.27,4.76,4.07,4.07,0,0,0,2.79,1.42A2.21,2.21,0,0,0,1645.06,228.76Z"/><path class="cls-3" d="M1662.82,348.91s1.37-3.6-.42-5.69-3.92-3.35-4.45-2.9-5.69-13-8.51-13a36.65,36.65,0,0,0-5.9.5s-5.75-6.13-7.29-5.28-18.2,11.32-18.2,11.32-8,20.83-6.65,21.91,2.83,2.38,4.73.68a25.48,25.48,0,0,0,3.44-4l-4.18,11.27s4,5.74,8.35-1.22l-1.48,5.06s5,7.14,11.18-3.1l6.89-9.11,5.85-2.35-10,13.49s.21,4.58,4.24,2.94,12-11.09,12-11.09,7.48,1.14,9.49.33,1.69-3.29,1.69-3.29Z"/><path class="cls-4" d="M1623.57,363.11c.16.05.78-1.52,2.06-3.93a78.59,78.59,0,0,0,4.68-9.68,6.8,6.8,0,0,1,3.7-3.86,33.52,33.52,0,0,1,4.5-1.48c2.69-.73,4.17-1.75,4.08-1.87s-1.59.58-4.27,1.1a26.8,26.8,0,0,0-4.73,1.32,8.3,8.3,0,0,0-2.53,1.64,7.52,7.52,0,0,0-1.78,2.72c-1.42,3.94-3.28,7.2-4.36,9.77S1623.44,363.07,1623.57,363.11Z"/><path class="cls-4" d="M1615.39,363.76c.15.05.94-1.91,2.22-5.07s3-7.53,5.12-12.29c1.08-2.36,2-4.72,3.08-6.59A9.9,9.9,0,0,1,1630,336c3-1.46,5.13-2,5.06-2.15a3.9,3.9,0,0,0-1.49.19,21,21,0,0,0-3.91,1.25,10.31,10.31,0,0,0-4.74,3.94,66,66,0,0,0-3.23,6.68c-2.09,4.79-3.75,9.22-4.84,12.47S1615.24,363.71,1615.39,363.76Z"/><path class="cls-7" d="M1542,199.94c-.64,0-1.09,2.43-2.23,5.12s-2.48,4.75-2,5.2,2.79-1.17,4.1-4.35S1542.57,199.9,1542,199.94Z"/><path class="cls-1" d="M1302.86,641.62c-3.13-5.19-8.81-8.14-13.92-11.39a86.05,86.05,0,0,1-10.32-137.32l.11-4.51c2.49-20.51-18.63-40.23-38.93-36.34s-32.61,30.05-22.69,48.18c-22.17-3-42,18.71-43.65,41s10.28,43.53,25.08,60.3a177,177,0,0,0,93.16,55.13c2.44.55,5,1,7.41.27C1304.87,655.1,1306,646.8,1302.86,641.62Z"/><path class="cls-1" d="M1928.78,686.31c6.78-7,9.88-17.83,6.57-27s-13.57-15.71-23.11-13.62c6.63-7,6.36-19.4-.56-26.14s-19.29-6.7-26.15.11c-7.76,7.68-7.32,20.37-4.4,30.89s7.8,20.88,7.14,31.78c-.68,11.14-7.23,21.26-15.59,28.64s-18.48,12.43-28.47,17.39l-2,1.2a59.88,59.88,0,0,0,47.71,6.22c9-2.67,18-8.38,20.49-17.39,1.41-5,.63-10.55,2.51-15.43C1915.73,695.73,1923.41,691.87,1928.78,686.31Z"/><path class="cls-1" d="M1417.06,923.89c-7.71-2.72-14.92-7.94-18.17-15.45-2.08-4.8-2.41-10.18-4-15.16s-5.27-9.94-10.47-10.56c-8.05-1-15.75,8.78-23,5.18-4.37-2.16-5.38-8.07-4.37-12.84s3.44-9.21,3.88-14.07c1.24-13.64-14.38-23.9-28-22.53S1296.55,851,1286,859.64c5.55,16.41,22.21,26,37.72,33.66q39.06,19.4,79.51,35.8c6.32,2.57,12.79,5.1,19.6,5.51s14.1-1.66,18.44-6.92C1433.06,927.16,1424.78,926.61,1417.06,923.89Z"/><path class="cls-1" d="M1755.32,890.66c.45-11.78-8.68-24.25-20.47-24.09,11-5.63,14.41-21,9.15-32.21s-17.15-18.09-29.28-20.36-24.64-.58-36.81,1.47c7-5.79,1.36-18.43-7.37-21s-17.9,1.38-26.23,5-17.8,7.14-26.28,3.85l7.54,5.1c19,7.28,37.87,16.23,52.66,30.24s25.17,33.85,23.81,54.18-16.55,40.11-36.73,42.91a81.08,81.08,0,0,0,72.83-15.43C1747.2,912.85,1754.86,902.45,1755.32,890.66Z"/><path class="cls-2" d="M1493,495.93c-10.76-1-22.28-2.05-34.53-2.67s-25.19-1.06-38.8-.95-27.85.69-42.62,2.17a275.61,275.61,0,0,0-45.49,8.09,140.81,140.81,0,0,0-22.8,8.4c-7.38,3.57-14.61,8.08-20.3,14.34-.69.79-1.42,1.56-2.09,2.38l-1.78,2.62-.9,1.32c-.27.45-.47.94-.71,1.42l-1.39,2.87c-1.38,4-2.47,8.24-2.11,12.58.19,8.71,4.09,17,9,24.4,10.16,14.8,24.63,26.72,40,37.43A385.31,385.31,0,0,0,1378.44,639c35.17,17.18,73.39,31.12,113.21,42.81a949.77,949.77,0,0,0,118.26,26.35c38.68,6,76.41,9.44,112.38,9.65a474.69,474.69,0,0,0,52.47-2.53,252,252,0,0,0,48.51-9.61,124.42,124.42,0,0,0,21.58-9.21c6.67-3.75,12.83-8.38,17.28-14.26l1.55-2.27a12.57,12.57,0,0,0,1.41-2.33l1.19-2.44c.19-.41.41-.8.57-1.23l.39-1.29a26.37,26.37,0,0,0,1.49-10.45,37.6,37.6,0,0,0-2.3-10.16,58.42,58.42,0,0,0-4.62-9.14,98.54,98.54,0,0,0-12.24-15.58,161.9,161.9,0,0,0-13.77-12.89,279.28,279.28,0,0,0-27.86-20.49,473.66,473.66,0,0,0-48.25-27.27c-13.63-6.76-24.47-11.51-31.83-14.66-3.67-1.61-6.51-2.75-8.4-3.55s-2.85-1.23-2.85-1.23,3.93,1.48,11.33,4.57,18.26,7.78,31.94,14.49a469.45,469.45,0,0,1,48.39,27.14,279.09,279.09,0,0,1,28,20.47,163,163,0,0,1,13.85,12.92,98.32,98.32,0,0,1,12.36,15.68,58.31,58.31,0,0,1,4.7,9.26,37.79,37.79,0,0,1,2.37,10.38,27,27,0,0,1-1.51,10.78l-.4,1.32c-.16.43-.39.84-.58,1.26l-1.22,2.51a13.92,13.92,0,0,1-1.44,2.39l-1.58,2.32c-4.55,6-10.78,10.71-17.52,14.51a124.72,124.72,0,0,1-21.74,9.31,252.77,252.77,0,0,1-48.67,9.7,474.33,474.33,0,0,1-52.58,2.58c-36-.18-73.81-3.57-112.55-9.59a949.53,949.53,0,0,1-118.39-26.36c-39.87-11.71-78.14-25.67-113.38-42.9a387.06,387.06,0,0,1-50-28.78c-15.43-10.76-30-22.73-40.25-37.73-5-7.46-9-15.94-9.18-24.92-.36-4.46.76-8.85,2.19-13l1.43-3c.25-.49.46-1,.74-1.46l.92-1.35,1.83-2.69c.69-.84,1.43-1.62,2.14-2.43,5.83-6.39,13.15-10.94,20.61-14.53a140.57,140.57,0,0,1,23-8.44,275.94,275.94,0,0,1,45.64-8.05c14.81-1.47,29.09-2,42.71-2.11s26.59.31,38.84,1,23.78,1.69,34.55,2.75"/><path class="cls-2" d="M1832.63,406.59c14.28,6.58,29,13.94,44,22.43a344.15,344.15,0,0,1,44.51,29.69,194.76,194.76,0,0,1,20.78,19.1c6.44,7.07,12.42,14.9,16.7,23.88,1.92,4.55,3.75,9.27,4.35,14.3a26.53,26.53,0,0,1,.43,3.77l0,3.81a25.67,25.67,0,0,1-.41,3.8,24.26,24.26,0,0,1-.69,3.77,38.74,38.74,0,0,1-6.73,13.82,55.54,55.54,0,0,1-11,11c-8.33,6.36-18,11-27.92,14.76a215.31,215.31,0,0,1-31.11,8.79c-21.35,4.45-43.55,6.71-66.16,7.7-45.25,1.9-92.19-1.18-139.75-7.5a1114.87,1114.87,0,0,1-137.25-27.49c-43.71-11.66-85.19-25.55-123.51-41.71s-73.62-34.51-103.28-56.73c-14.7-11.17-28.16-23.36-37.77-37.72-4.76-7.16-8.48-15-9.9-23.17a37.25,37.25,0,0,1,3.43-23.7c3.54-7.15,9.15-12.76,15.07-17.33a96.4,96.4,0,0,1,18.91-11,163.62,163.62,0,0,1,19.38-7.14c6.38-2,12.67-3.5,18.78-4.82,24.47-5.19,46-6.84,63.55-7.77s31.23-.76,40.49-.59,14.11.42,14.11.42-1.22,0-3.59,0-5.9-.14-10.53-.16c-9.25-.1-22.9-.11-40.45.79s-39,2.71-63.45,7.94c-6.09,1.33-12.36,2.88-18.72,4.86a161,161,0,0,0-19.28,7.14,95.41,95.41,0,0,0-18.76,10.94c-5.85,4.53-11.37,10.08-14.82,17.09a36.45,36.45,0,0,0-3.32,23.22c1.4,8,5.08,15.76,9.8,22.84,9.54,14.23,23,26.35,37.61,37.47,29.59,22.12,64.94,40.34,103.13,56.53s79.72,30,123.4,41.6a1115.22,1115.22,0,0,0,137.11,27.44c47.51,6.32,94.4,9.39,139.57,7.52,22.56-1,44.71-3.23,66-7.65a214.82,214.82,0,0,0,31-8.74c9.91-3.72,19.45-8.33,27.67-14.6s15-14.47,17.44-24.24a23.11,23.11,0,0,0,.67-3.68,24.23,24.23,0,0,0,.41-3.69l0-3.72a24.12,24.12,0,0,0-.42-3.68c-.58-4.92-2.37-9.56-4.26-14-4.2-8.85-10.12-16.62-16.52-23.65a192.07,192.07,0,0,0-20.66-19,343.54,343.54,0,0,0-44.36-29.66c-14.88-8.49-29.61-15.87-43.86-22.46"/><path class="cls-2" d="M1425,643a379.12,379.12,0,0,0-47.72,2.84,214,214,0,0,0-29.26,5.77,119.41,119.41,0,0,0-15.38,5.32,72.52,72.52,0,0,0-14.9,8.38,41.78,41.78,0,0,0-6.47,6,28.74,28.74,0,0,0-4.85,7.58c-.27.71-.61,1.4-.84,2.13l-.62,2.22c-.31,1.5-.47,3.05-.66,4.58a45.78,45.78,0,0,0,.2,4.68l.4,2.34.19,1.17.36,1.14a51.49,51.49,0,0,0,9.1,17.11,103.78,103.78,0,0,0,14,14.62c10.34,9.14,22.29,17.05,35,24.48A410.13,410.13,0,0,0,1404,773.74a653.94,653.94,0,0,0,91.9,31.92,786.69,786.69,0,0,0,102.44,20.54c35.51,4.61,70.58,6.69,104.31,4.67,16.83-1.11,33.35-3.22,49.06-7.35a116.54,116.54,0,0,0,22.48-8.42c1.81-.82,3.43-2,5.14-2.92s3.22-2.25,4.83-3.36a38.58,38.58,0,0,0,7.92-8.43c4.55-6.29,5.55-14.46,3.81-21.71-1.91-7.29-5.91-13.75-10.48-19.44-9.28-11.39-20.73-20.2-32.1-27.93a315.7,315.7,0,0,0-34.52-20c-11.44-5.78-22.66-10.81-33.52-15.27-43.49-17.79-80.42-27.37-105.91-33.52l-39.8-8.94s14.23,2.92,39.86,8.69c25.51,6.07,62.48,15.6,106,33.34,10.88,4.45,22.12,9.47,33.57,15.25a315,315,0,0,1,34.6,20c11.4,7.74,22.9,16.56,32.25,28,4.6,5.73,8.66,12.24,10.6,19.66,1.79,7.37.76,15.77-3.88,22.18a39,39,0,0,1-8,8.57c-1.62,1.13-3.16,2.39-4.87,3.4s-3.37,2.13-5.19,2.95a116.11,116.11,0,0,1-22.6,8.48c-15.76,4.16-32.32,6.28-49.18,7.38-33.79,2-68.89,0-104.43-4.65a787.25,787.25,0,0,1-102.52-20.57,653.84,653.84,0,0,1-92-32,408,408,0,0,1-40.54-20.4c-12.68-7.45-24.66-15.39-35-24.56a104,104,0,0,1-14.09-14.72,52.1,52.1,0,0,1-9.17-17.29l-.35-1.16-.21-1.19-.39-2.37a44.58,44.58,0,0,1-.2-4.76c.19-1.57.35-3.15.67-4.68l.64-2.25c.24-.74.58-1.45.86-2.17a29.17,29.17,0,0,1,4.93-7.7,41.8,41.8,0,0,1,6.56-6.08,72.69,72.69,0,0,1,15-8.41,119.58,119.58,0,0,1,15.43-5.32,215.39,215.39,0,0,1,29.33-5.73,374,374,0,0,1,47.77-2.73"/><path class="cls-2" d="M1691.36,889.33a21.75,21.75,0,0,0-.07-7.8c-.87-5.09-4.67-12-11.49-19-13.73-14.06-38.59-28.78-71.14-41.58a478.52,478.52,0,0,0-54.47-17.63,547.17,547.17,0,0,0-64.44-12.85c-11.47-1.58-23.28-2.8-35.38-3.5a336,336,0,0,0-37.06-.27c-6.29.3-12.62.85-19,1.73a143.48,143.48,0,0,0-19,3.76,71.26,71.26,0,0,0-18.07,7.42c-5.58,3.32-10.64,8.35-12.16,14.88-1.35,6.56,1.13,13.25,4.81,18.6a71.82,71.82,0,0,0,13.32,14.3A146.11,146.11,0,0,0,1383,858.71c5.4,3.44,10.93,6.59,16.52,9.49a335.54,335.54,0,0,0,33.8,15.23c11.28,4.41,22.53,8.24,33.61,11.6a547.49,547.49,0,0,0,63.93,15.21,478.23,478.23,0,0,0,56.85,6.73c34.93,2,63.66-1,82-8.09,9.12-3.52,15.46-8.22,18.38-12.49a21.41,21.41,0,0,0,3.32-7.06l-.56,1.92a11.71,11.71,0,0,1-.94,2.27,15.71,15.71,0,0,1-1.75,2.92c-2.91,4.3-9.25,9-18.39,12.6-18.36,7.11-47.12,10.16-82.07,8.23a474.24,474.24,0,0,1-56.91-6.67,546.43,546.43,0,0,1-64-15.19c-11.09-3.36-22.34-7.18-33.64-11.6a337.31,337.31,0,0,1-33.85-15.23c-5.6-2.9-11.14-6.06-16.55-9.51A145.6,145.6,0,0,1,1367,847.7a71.91,71.91,0,0,1-13.4-14.39,31.72,31.72,0,0,1-4.34-8.95,18.79,18.79,0,0,1,4.13-18.82,32,32,0,0,1,7.69-6.32,72,72,0,0,1,18.18-7.47,146.69,146.69,0,0,1,19-3.77c6.36-.87,12.7-1.43,19-1.73a336.84,336.84,0,0,1,37.11.29c12.11.7,23.93,1.93,35.41,3.51a547.47,547.47,0,0,1,64.47,12.9,478.57,478.57,0,0,1,54.49,17.69c32.56,12.85,57.43,27.62,71.15,41.75,6.82,7,10.61,14,11.45,19.12a15.67,15.67,0,0,1,.37,3.39,10.94,10.94,0,0,1-.09,2.45C1691.48,888.49,1691.4,889,1691.36,889.33Z"/><path class="cls-2" d="M1309.8,474.29a6.67,6.67,0,1,1-5.09-7.94A6.67,6.67,0,0,1,1309.8,474.29Z"/><circle class="cls-2" cx="1891.42" cy="606.13" r="6.67"/><path class="cls-2" d="M1579.76,789.46a6.67,6.67,0,1,1-5.09-7.93A6.67,6.67,0,0,1,1579.76,789.46Z"/><path class="cls-2" d="M1418.56,578.81a3.33,3.33,0,1,1-2.54-4A3.33,3.33,0,0,1,1418.56,578.81Z"/><path class="cls-2" d="M1806.32,746.32a3.33,3.33,0,1,1-2.54-4A3.34,3.34,0,0,1,1806.32,746.32Z"/><path class="cls-2" d="M1516.27,840.72a3.34,3.34,0,1,1-2.55-4A3.34,3.34,0,0,1,1516.27,840.72Z"/><polyline class="cls-2" points="570.73 433.36 628.42 491.55 648.29 483.27 658.97 463.02 654.76 447.1 619.52 424.42 567.54 432.87"/><g class="cls-8"><polyline points="572.53 432.16 630.22 490.36 650.09 482.08 660.78 461.83 656.57 445.91 621.32 423.23 569.35 431.68"/></g><path class="cls-3" d="M762.49,360.83l92.28,43.22,15.8,4.83s34.93,13,38.45,13.8c4.06.94,4.58,3.13,4.13,4.6-.7,2.3-4,3.28-7.48,2.57-1.21-.24-20.2-4.86-20.2-4.86a46.21,46.21,0,0,1,4.27,4.89c2.9,3.65,3.39,10.73,1.58,17.46s-2.91,8.46-5.55,7.88a3.45,3.45,0,0,1-2.25-1.93,6.81,6.81,0,0,1-.49-4.84c2.74-10.81-2.37-15.1-2.37-15.1l-2.07-.63s3.16,7.71-.06,12.5a6.48,6.48,0,0,1-1.79,1.79,8.73,8.73,0,0,1-14.4,4.39c-1.08-1-1.94-2.57-1.33-3.91a4.65,4.65,0,0,1,1.62-1.65,6.52,6.52,0,0,0,.94-.8L858,442.46s-12.14-6.47-17.73-8.68l-94.94-27.23a24.49,24.49,0,0,1-16.67-30.71h0A24.49,24.49,0,0,1,762.49,360.83Z"/><path class="cls-3" d="M855.35,407.48c-1,1.87,0,4.25,1.48,5.74s3.48,2.43,5.1,3.8c4.83,4.12,5.85,11.58,10.87,15.46.7.55,1.73,1,2.41.42s.46-1.51.24-2.3q-2.85-10.12-5.71-20.24"/><path class="cls-12" d="M869.74,410.36a8.57,8.57,0,0,1,.84,2.12c.47,1.39,1.1,3.42,1.87,5.92s1.66,5.58,2.62,8.82l.74,2.55c.17.83.77,1.83.15,3.15a1.79,1.79,0,0,1-1.82.82,3.63,3.63,0,0,1-1.57-.69,13.41,13.41,0,0,1-2.24-2.15c-2.64-3.23-3.91-6.91-5.72-9.78a16.06,16.06,0,0,0-3-3.69c-1.11-1-2.34-1.71-3.41-2.51-2.23-1.51-3.44-3.66-3.49-5.21s.59-2.28.61-2.23a5.93,5.93,0,0,0-.15,2.18,7.16,7.16,0,0,0,3.52,4.57,42.85,42.85,0,0,1,3.57,2.45,16.54,16.54,0,0,1,3.26,3.86c1.92,3,3.25,6.61,5.7,9.59a12.8,12.8,0,0,0,2,2c.7.52,1.5.66,1.69.23s0-1.37-.24-2.24-.47-1.73-.7-2.56c-.88-3.27-1.68-6.26-2.38-8.89s-1.17-4.59-1.5-6A8.25,8.25,0,0,1,869.74,410.36Z"/><path class="cls-12" d="M878.55,432.44a8.64,8.64,0,0,1,3.37,2.11,6.72,6.72,0,0,1,1.62,3.87,17.17,17.17,0,0,1-.46,5.31,26.63,26.63,0,0,0-.79,5.48,8.84,8.84,0,0,0,1.05,4.46,3.44,3.44,0,0,0,2.56,1.73,2,2,0,0,0,1.13-.11c0-.08-.41,0-1.08-.18a3.25,3.25,0,0,1-2.13-1.71,8.76,8.76,0,0,1-.82-4.18,31,31,0,0,1,.83-5.34,16.6,16.6,0,0,0,.42-5.55,7,7,0,0,0-1.94-4.16,6.24,6.24,0,0,0-2.64-1.59A2.2,2.2,0,0,0,878.55,432.44Z"/><path class="cls-12" d="M907,430.1a21.73,21.73,0,0,0-3.77-.94l-9.12-2L885,425a22.37,22.37,0,0,0-3.8-.81,17.53,17.53,0,0,0,3.66,1.34c2.29.7,5.49,1.57,9.06,2.4s6.83,1.45,9.2,1.82A17.72,17.72,0,0,0,907,430.1Z"/><path class="cls-12" d="M873.26,435.73a4.1,4.1,0,0,0,.17,1.2,3.62,3.62,0,0,1-.55,3,1.94,1.94,0,0,1-1.81.61,10.2,10.2,0,0,1-2.42-.75,4.32,4.32,0,0,0-3.08-.25,3.7,3.7,0,0,0-2.18,2.54,4.18,4.18,0,0,0,.59,3.28,5.25,5.25,0,0,0,2.31,2,17.16,17.16,0,0,0,4.89,1.06,10,10,0,0,0,3.35-.23,2.22,2.22,0,0,0,1.11-.56c0-.06-.42.14-1.17.27a12,12,0,0,1-3.24,0,18.51,18.51,0,0,1-4.65-1.17c-1.5-.69-2.92-2.58-2.45-4.46a3,3,0,0,1,1.71-2,3.66,3.66,0,0,1,2.57.21,10.07,10.07,0,0,0,2.6.72,2.48,2.48,0,0,0,2.29-.91,3.73,3.73,0,0,0,.42-3.36A3.37,3.37,0,0,0,873.26,435.73Z"/><path class="cls-12" d="M864.63,445.15s-.37-.24-1.1-.15a3.38,3.38,0,0,0-2.47,1.75,4.48,4.48,0,0,0,.31,4.46,7.39,7.39,0,0,0,4.57,3,8.91,8.91,0,0,0,5.45-.44,8.56,8.56,0,0,0,3.52-2.75,8.16,8.16,0,0,0,1.34-2.68c.18-.69.19-1.08.14-1.09a14,14,0,0,1-1.91,3.43,8.3,8.3,0,0,1-8.37,2.77,6.81,6.81,0,0,1-4.14-2.66,4,4,0,0,1-.42-3.84,3.25,3.25,0,0,1,2-1.7C864.23,445.13,864.62,445.21,864.63,445.15Z"/><path class="cls-12" d="M855,429.07a3.14,3.14,0,0,0,.41-1.82,7.42,7.42,0,0,0-1.47-4.53l-.34.6a21.83,21.83,0,0,0,2.64.17c5.15.05,9-1.9,8.85-2.05s-3.89,1.33-8.85,1.28a25.46,25.46,0,0,1-2.55-.14l-.88-.09.54.69a7.66,7.66,0,0,1,1.59,4.08C855,428.37,854.88,429.05,855,429.07Z"/><path class="cls-12" d="M887.27,437c0-.2-1.58.21-2.69,1.72s-1.07,3.08-.87,3.07.51-1.32,1.49-2.61S887.36,437.22,887.27,437Z"/><path class="cls-3" d="M472,211.53s.53-28.09-.56-31.2-16.11-23-18.13-23.5-28.43-11.8-27.51-7.22,19.48,12.2,19.48,12.2l1.51,2.54s-15.81-6.94-19.95-7.13c-3.81-.19-5.05,3.83-2.24,5.24s16.8,7,17.21,8S426.08,165.12,424,165c-2.86-.1-5.43,3.44-2.71,4.94,1.61.89,17.33,6.08,17.33,6.08s-13.34-2.76-14.92-2.46c-2.6.5-2.82,3.65-.18,4.62,1.82.68,11.68,1.94,14.11,2.84,0,0,1.65,1.82.86,7-.36,2.42-4.07,16.6,3,21,6.3,3.87,9.11,12.92,9.11,12.92Z"/><path class="cls-12" d="M425.78,149.7c-.12.1,1.06,1.81,3.57,4a30.91,30.91,0,0,0,4.77,3.36c1.95,1,4.12,2,6.39,3l4.86,2.21-.25-.2c4.52,5.87,7.95,10,8.19,9.83s-2.78-4.61-7.18-10.6l-.09-.12-.16-.08-4.79-2.23-6.38-2.9a37.57,37.57,0,0,1-4.77-3C427.35,151,425.94,149.56,425.78,149.7Z"/><path class="cls-3" d="M464.22,203.16c-2.32.42-4.49-1.45-5.53-3.56s-1.33-4.52-2.21-6.7c-2.65-6.52-10.14-10.2-12.47-16.84-.33-.93-.43-2.17.4-2.69s1.76,0,2.51.56L466.22,187"/><path class="cls-12" d="M466.22,187a9.27,9.27,0,0,0-1.94-1.63c-1.3-1-3.21-2.36-5.57-4l-8.36-5.84-2.43-1.67c-.81-.47-1.66-1.45-3.26-1.26a2,2,0,0,0-1.5,1.63,4,4,0,0,0,.17,1.9,15.48,15.48,0,0,0,1.48,3.1c2.49,3.91,5.91,6.53,8.29,9.44a17.4,17.4,0,0,1,2.84,4.42c.64,1.5,1,3.06,1.46,4.46.81,2.87,2.65,4.9,4.25,5.49s2.61.18,2.57.14a6.49,6.49,0,0,1-2.34-.6,7.9,7.9,0,0,1-3.58-5.31c-.4-1.36-.69-2.94-1.34-4.6a17.82,17.82,0,0,0-2.92-4.78c-2.44-3.06-5.81-5.74-8.1-9.36a15,15,0,0,1-1.35-2.8c-.3-.92-.17-1.81.35-1.85s1.44.46,2.27,1l2.45,1.64,8.52,5.6c2.43,1.58,4.42,2.84,5.81,3.69A9.73,9.73,0,0,0,466.22,187Z"/><path class="cls-2" d="M282.09,718.85l-36.61,46.94-39.67,28.77a6.1,6.1,0,0,0-1.1,8.85h0a6,6,0,0,0,5.14,2.17c12.55-1,58.69-4.88,61.18-8.47,2.88-4.15,41.91-47,41.91-47Z"/><g class="cls-5"><path class="cls-6" d="M204.71,803.41,273.57,794,272,796a9.16,9.16,0,0,1-5.46,3.23c-5.73,1.05-21.64,3.59-56.53,6.52a6.11,6.11,0,0,1-5.28-2.29Z"/></g><g class="cls-5"><path class="cls-6" d="M276.27,771.4a3.68,3.68,0,0,0-3.83,3.09,3.55,3.55,0,0,0,3,3.83c1.8.17,4-1.49,4-3.3s-1.8-3.89-3.59-3.63"/></g><path class="cls-7" d="M231.71,791.88c-.37-.08.57-3.35-1.11-6.89s-4.66-5-4.48-5.35c0-.15.93,0,2.13.7a9.7,9.7,0,0,1,4.32,9.47C232.34,791.2,231.85,791.94,231.71,791.88Z"/><path class="cls-7" d="M223.38,795.37c-.39,0-.64-2.69-2.46-5.32s-4.19-3.91-4-4.26,3.08.49,5.11,3.53S223.72,795.44,223.38,795.37Z"/><path class="cls-7" d="M244.28,789c-.39,0-.76-4.13-3.24-8.47s-5.78-6.87-5.53-7.18,4.07,1.85,6.67,6.54S244.61,789,244.28,789Z"/><path class="cls-7" d="M256.61,775.63c-.35.17-2-3-5.24-5.8s-6.49-4.18-6.36-4.55,3.81.5,7.23,3.57S256.93,775.53,256.61,775.63Z"/><path class="cls-7" d="M267.71,762.12c-.36.15-1.67-3.48-5.3-6.18s-7.41-3.07-7.37-3.46c0-.16,1-.33,2.55-.07a13.31,13.31,0,0,1,9.51,7.24C267.76,761.09,267.86,762.08,267.71,762.12Z"/><path class="cls-7" d="M264.6,753.43c-.06,0,.34-.75,1.36-1.79a15.68,15.68,0,0,1,5.12-3.43,7,7,0,0,1,4.4-.69,2.45,2.45,0,0,1,1.79,2.18,4,4,0,0,1-1,2.67,8.63,8.63,0,0,1-10.9,1.4,10,10,0,0,1-4.29-10.27,3.44,3.44,0,0,1,1.7-2.34,2.39,2.39,0,0,1,2.75.61,8.55,8.55,0,0,1,1.75,4.06,17.3,17.3,0,0,1,.21,6.15,5.29,5.29,0,0,1-.59,2.17c-.26,0,.69-3.21-.52-8.11a8,8,0,0,0-1.61-3.5,1.28,1.28,0,0,0-1.5-.34,2.37,2.37,0,0,0-1,1.6,8.93,8.93,0,0,0,3.83,8.86c3,1.94,7.28,1.25,9.27-1a2.94,2.94,0,0,0,.76-1.84,1.32,1.32,0,0,0-1-1.21,6.22,6.22,0,0,0-3.73.51C266.71,750.86,264.77,753.65,264.6,753.43Z"/><path class="cls-7" d="M309.11,777.59,536.56,506.17l32.27-76.35-72.76-41.56L258.88,737.55a6.45,6.45,0,0,0,.86,8.28l36.92,32.69A8.71,8.71,0,0,0,309.11,777.59Z"/><path class="cls-7" d="M529.12,515.39l24.63,110.83L440.83,587.13l-24.75,53.73,143.73,67.07a49.5,49.5,0,0,0,39,1.22h0a49.47,49.47,0,0,0,31.36-47.33l-5.69-217.39-55.65-14.61Z"/><path class="cls-9" d="M536.37,495.89c.3.11-1.07,4.57-3.08,10s-3.87,9.66-4.17,9.55,1.07-4.58,3.07-10S536.06,495.78,536.37,495.89Z"/><path class="cls-9" d="M453,603.72s.68.15,2,.5l5.71,1.58L482.42,612,561.5,634.7l-.57.52c-7.23-39.24-16-86.9-25.63-139.17l1,.27L504,535.47c-53.69,65-102.56,123.54-138.29,165.64-17.85,21.07-32.49,37.95-42.71,49.53-5.2,5.7-9.13,10.23-12,13.1L307.74,767c-.74.73-1.14,1.08-1.14,1.08s.35-.41,1.06-1.17l3.18-3.36c2.82-2.91,6.7-7.49,11.85-13.23,10.1-11.67,24.65-28.63,42.41-49.77,35.57-42.23,84.33-100.89,138-165.85l32.3-39.14.8-1,.22,1.22c9.53,52.29,18.23,100,25.38,139.22l.14.73-.71-.21-79-23.1-21.71-6.42-5.66-1.71C453.63,604,453,603.72,453,603.72Z"/><path class="cls-9" d="M313.34,772.43c-.25-.21,47.86-57.92,107.43-128.89s108.1-128.36,108.35-128.15S481.27,573.3,421.68,644.3,313.59,772.64,313.34,772.43Z"/><path class="cls-9" d="M549.22,459.94c.15.05-.36,2.19-1.38,5.6s-2.55,8.06-4.45,13.14-3.78,9.61-5.25,12.85-2.48,5.18-2.62,5.12.59-2.13,1.85-5.44c1.41-3.71,3.08-8.09,4.92-12.94s3.4-9.27,4.76-13C548.27,461.94,549.06,459.89,549.22,459.94Z"/><path class="cls-9" d="M557.31,457c-.07-.12,1.54-.31,2.94,1.48a3.84,3.84,0,0,1,.5,3.76,4.18,4.18,0,0,1-3.86,2.6,4.07,4.07,0,0,1-3.65-2.89,3.58,3.58,0,0,1,3.46-4.52c.6,0,.89.23.87.3a4.56,4.56,0,0,0-2.66,1.19,2.6,2.6,0,0,0-.63,2.7,3.07,3.07,0,0,0,2.65,2.05,3.2,3.2,0,0,0,2.82-1.87,3,3,0,0,0-.19-2.86C558.61,457.32,557.24,457.14,557.31,457Z"/><path class="cls-9" d="M566.33,650.58c-.35.09-1.9-5.88-5.36-12.59s-7.35-11.49-7.07-11.72,4.63,4.3,8.12,11.19S566.62,650.54,566.33,650.58Z"/><path class="cls-2" d="M650.48,197.56l-51.06-6.27-58.65,128-40.46,48.36a24.44,24.44,0,0,0-4.73,22.46h0l63.71,39.26L619,433.53l22.43,9.6,17.49-45.37,40.28-54.43,30.22,54.23a19.1,19.1,0,0,0,10.69,8.83l98.49,32.51,16.55-35.36L773.1,363,748,274.09l-37-37.62.49-17.73L667.09,190.2l-4.59.33a11.05,11.05,0,0,0-6,2.33Z"/><path class="cls-2" d="M599.42,191.29s-18-.13-32.27,11.6c-13.36,11-59.4,60.42-59.4,60.42l-26.59-55.95L438.4,217.75l25.52,90a35.66,35.66,0,0,0,29.94,25.67h0a35.67,35.67,0,0,0,31.49-12.21l41.37-48.38Z"/><polygon class="cls-3" points="624.48 444.43 624.34 438.63 591.74 425.27 578.39 434.23 624.48 444.43"/><path class="cls-2" d="M495.58,390.14c19.28,27.23,49.56,41.27,82.81,44.09,10,.85,20.15.38,30.18,1.31S628.8,439,636.87,445s13.59,16.18,12,26.12-11.8,18.35-21.62,16.12l1.2,4.33c15.19,2.09,30.86-10.09,32.6-25.32,1.33-11.68-4.45-22.88-6.53-34.46-3-17,9.18-38.29,19.44-54.37"/><path class="cls-7" d="M671.11,242.88a11.1,11.1,0,0,1-2-1.12,8.69,8.69,0,0,0-6-.85c-2.55.65-5.14,2.84-7.08,6a29.27,29.27,0,0,0-4.3,11.32l-.32,2.11-.75-2a91.29,91.29,0,0,1-4.23-15,85.8,85.8,0,0,1-.22-32.82,60.7,60.7,0,0,1,2.72-9.61,22.34,22.34,0,0,1,1.52-3.33c.26.09-2,4.84-3.42,13.09a90.56,90.56,0,0,0,.55,32.44,95.3,95.3,0,0,0,4.12,14.84l-1.07.12a27.32,27.32,0,0,1,1.8-6.38,27.9,27.9,0,0,1,2.82-5.32c2.07-3.19,4.89-5.49,7.71-6.1a8.71,8.71,0,0,1,6.31,1.19A10.71,10.71,0,0,1,671.11,242.88Z"/><path class="cls-2" d="M673.45,244.39c4.09.68,7.53,5.78,8.14,9.88.41,2.72-.28,5.67,1,8.1s7,7.4,9.79,7.17c0,0,4.6-4.68,6.64-6.55,8-7.37,14.25-14.79,21.07-23.21-4.23-6.91,0-9.74-11.53-16.09,0,0-2.47,9.92-9.62,15.79"/><path class="cls-7" d="M698.93,239.48c-.08-.09,1.35-1.21,3.32-3.75a36.44,36.44,0,0,0,5.88-12.15l.15-.54.48.27c2.53,1.43,5.48,3,7.67,6a14.73,14.73,0,0,1,2,5.12,18,18,0,0,0,2.11,5.09l.21.33-.25.31c-3.46,4.3-7.26,9-11.48,13.62-2.76,3-5.57,5.88-8.39,8.51s-5.38,5.24-7.89,7.66l-.16.16h-.18a7.26,7.26,0,0,1-3.77-1.3,22.29,22.29,0,0,1-2.92-2.16,21.8,21.8,0,0,1-2.45-2.45,7.28,7.28,0,0,1-1.62-3c-.52-2.16-.22-4.14-.34-5.9a12.35,12.35,0,0,0-1.24-4.65,12.65,12.65,0,0,0-4.37-5.23,13,13,0,0,0-2.25-1,5,5,0,0,1,2.42.74,12.36,12.36,0,0,1,4.78,5.23,12.76,12.76,0,0,1,1.44,4.89c.16,1.84-.07,3.82.43,5.72s2.17,3.4,3.85,4.89a21.41,21.41,0,0,0,2.81,2,6.51,6.51,0,0,0,3.14,1.12l-.34.16c2.5-2.46,5.09-5.13,7.88-7.75s5.56-5.46,8.3-8.47c4.19-4.6,8-9.25,11.48-13.52l0,.64a19.15,19.15,0,0,1-2.2-5.39,13.9,13.9,0,0,0-1.81-4.83c-1.93-2.68-4.79-4.34-7.25-5.78l.64-.28A35,35,0,0,1,702.63,236a23.15,23.15,0,0,1-2.64,2.68A4.69,4.69,0,0,1,698.93,239.48Z"/><path class="cls-7" d="M648.36,460.73c-.07-.06.58-.71,1.39-2.2a15.77,15.77,0,0,0,1.9-7.06A23.24,23.24,0,0,0,649,440.22c-2-4.08-5.69-7.94-10.26-11.44S628.68,422,623.17,418a71.26,71.26,0,0,1-15.53-15.38A44.14,44.14,0,0,1,599.22,380a33.87,33.87,0,0,1,1.62-12.77,44.68,44.68,0,0,1,6.07-11.76c5.13-7.33,11.45-13.34,16.94-19.59a193.14,193.14,0,0,0,14.82-18.85,199.18,199.18,0,0,0,19.41-35.65,201.41,201.41,0,0,0,8.78-26c.86-3.12,1.41-5.58,1.8-7.24l.46-1.89a3.47,3.47,0,0,1,.2-.64,2.33,2.33,0,0,1-.08.66c-.09.5-.2,1.13-.35,1.91-.32,1.68-.79,4.16-1.58,7.31a186.51,186.51,0,0,1-8.46,26.17,194.56,194.56,0,0,1-19.28,36,192.49,192.49,0,0,1-14.86,19c-5.52,6.29-11.8,12.29-16.84,19.5s-8.13,15.52-7.5,23.78a43.19,43.19,0,0,0,8.16,22,70.42,70.42,0,0,0,15.22,15.23c5.42,4.08,10.93,7.31,15.5,10.95s8.29,7.58,10.34,11.8a23.43,23.43,0,0,1,2.51,11.57,15.38,15.38,0,0,1-2.15,7.16,9.37,9.37,0,0,1-1.14,1.59A3,3,0,0,1,648.36,460.73Z"/><path class="cls-7" d="M642.25,407.76a23.43,23.43,0,0,1-3.66.86c-1.18.25-2.64.52-4.34.74s-3.64.55-5.8.7a122.38,122.38,0,0,1-15.19.5,136.7,136.7,0,0,1-18.52-1.89,139,139,0,0,1-18.06-4.58,123.7,123.7,0,0,1-14.09-5.7c-2-.88-3.68-1.85-5.21-2.64s-2.79-1.55-3.82-2.19a23.07,23.07,0,0,1-3.14-2.06,23.71,23.71,0,0,1,3.37,1.66c1.05.58,2.35,1.27,3.9,2s3.26,1.65,5.25,2.48A136.57,136.57,0,0,0,577,403.05a134.86,134.86,0,0,0,36.28,6.43,136.58,136.58,0,0,0,15.08-.25c2.15-.09,4.08-.36,5.78-.52s3.17-.36,4.36-.54A22.73,22.73,0,0,1,642.25,407.76Z"/><path class="cls-7" d="M670.18,337.45a4.78,4.78,0,0,1-.84.95l-2.57,2.53a53.94,53.94,0,0,1-4.24,3.83c-1.72,1.42-3.61,3.13-5.92,4.74l-3.55,2.61c-1.25.89-2.62,1.71-4,2.61-2.74,1.86-5.86,3.52-9.11,5.34A130.1,130.1,0,0,1,594,374.32c-3.7.34-7.21.74-10.52.76-1.66,0-3.25.14-4.78.11l-4.41-.14c-2.81,0-5.34-.36-7.56-.55a54.12,54.12,0,0,1-5.66-.76l-3.56-.64a4.51,4.51,0,0,1-1.22-.3,5.45,5.45,0,0,1,1.26.07l3.58.42c1.55.21,3.44.44,5.66.55s4.73.42,7.53.38l4.37.06c1.53,0,3.11-.12,4.75-.18,3.28-.06,6.76-.49,10.43-.86a134.85,134.85,0,0,0,45.57-14.14c3.23-1.78,6.35-3.39,9.09-5.2,1.38-.88,2.76-1.67,4-2.54l3.58-2.53c2.32-1.55,4.23-3.21,6-4.57s3.2-2.61,4.35-3.67,2-1.74,2.71-2.37A6.12,6.12,0,0,1,670.18,337.45Z"/><path class="cls-7" d="M508.77,412.13c-.11.05-1-1.7-1.81-4.81a31.4,31.4,0,0,1,4.22-24c1.76-2.67,3.25-4,3.33-3.91s-1.08,1.64-2.62,4.34a35.32,35.32,0,0,0-4.11,23.39C508.3,410.22,509,412.06,508.77,412.13Z"/><path class="cls-7" d="M516.91,396.44c.23.25-1.86,2.36-3.52,5.53s-2.25,6.07-2.6,6-.25-3.19,1.56-6.57S516.74,396.19,516.91,396.44Z"/><path class="cls-7" d="M542,316.32a3.79,3.79,0,0,1,.34-1c.33-.78.72-1.73,1.19-2.88,1.15-2.66,2.68-6.23,4.54-10.55,3.83-8.9,9.09-21.22,14.68-34.91s10.45-26.17,13.94-35.21L580.78,221c.46-1.15.85-2.1,1.17-2.89a4.08,4.08,0,0,1,.48-1,3.68,3.68,0,0,1-.26,1.07l-1,3c-.85,2.57-2.15,6.28-3.79,10.84-3.29,9.13-8,21.66-13.63,35.37s-11,26-15,34.8c-2,4.41-3.69,8-4.88,10.4l-1.39,2.79A3.79,3.79,0,0,1,542,316.32Z"/><path class="cls-7" d="M663.59,394.61a3.83,3.83,0,0,1,.51-1l1.65-2.75c1.45-2.38,3.63-5.78,6.35-9.95,5.48-8.33,13.3-19.68,22.48-31.81s17.87-22.82,24.22-30.5l7.58-9,2.11-2.42c.49-.54.77-.82.8-.79a4.12,4.12,0,0,1-.62.94l-1.94,2.56c-1.83,2.33-4.29,5.47-7.29,9.27-6.17,7.82-14.76,18.57-23.92,30.69s-17.08,23.36-22.72,31.56l-6.66,9.74-1.84,2.63A4.72,4.72,0,0,1,663.59,394.61Z"/><path class="cls-7" d="M508.47,301.7c-.43-.06,1.52-8.6,1.52-19.25s-2.65-19.05-2.24-19.14c.13,0,.93,2,1.77,5.43a60.57,60.57,0,0,1,1.65,13.71,73.13,73.13,0,0,1-1.29,13.72C509.22,299.64,508.62,301.73,508.47,301.7Z"/><path class="cls-7" d="M517.05,295.55c-.19,0,.14-2,.25-5.07a34.91,34.91,0,0,0-1.62-11.92,49.73,49.73,0,0,0-5.28-10.9c-1.67-2.64-2.79-4.24-2.65-4.35s1.47,1.33,3.34,3.89a40.28,40.28,0,0,1,5.71,11,30.55,30.55,0,0,1,1.33,12.33C517.8,293.7,517.18,295.57,517.05,295.55Z"/><path class="cls-13" d="M566.05,262.44a3.21,3.21,0,0,1-.94.58,10.24,10.24,0,0,1-3.05.91,13.77,13.77,0,0,1-10.93-3.48c-3.8-3.32-6.32-9.24-6.37-15.8a46,46,0,0,1,1.08-10.16c.36-1.74.73-3.48,1.24-5.26a13.82,13.82,0,0,1,2.54-5.12,7.72,7.72,0,0,1,5.09-2.82,6.49,6.49,0,0,1,5.23,2.18,10.9,10.9,0,0,1,2.44,9.95,10.62,10.62,0,0,1-5.78,7.28,11.53,11.53,0,0,1-8.1.66,10.32,10.32,0,0,1-5.46-3.89,11.4,11.4,0,0,1-2-4.65,9.48,9.48,0,0,1-.05-3.18,3,3,0,0,1,.29-1.07,15.33,15.33,0,0,0,.2,4.16,11.44,11.44,0,0,0,2.06,4.35,9.71,9.71,0,0,0,5.16,3.48,10.73,10.73,0,0,0,7.44-.74,9.62,9.62,0,0,0,5.15-6.64,9.83,9.83,0,0,0-2.21-8.91,5.37,5.37,0,0,0-4.3-1.82,6.65,6.65,0,0,0-4.3,2.42c-2.24,2.73-2.75,6.49-3.54,9.85a46.94,46.94,0,0,0-1.13,9.91c0,6.33,2.33,12,5.85,15.2A13.55,13.55,0,0,0,562,263.48,16.81,16.81,0,0,0,566.05,262.44Z"/><path class="cls-13" d="M622,339.71a4.28,4.28,0,0,1-.81.12l-2.37.2a49.34,49.34,0,0,1-9.2-.1,23.73,23.73,0,0,1-6.46-1.65,16.52,16.52,0,0,1-6.39-4.73c-3.71-4.48-5.39-11.2-5.22-18.35a46,46,0,0,1,26.34-40.15c4.28-2,9.24-3.44,14.33-2.61a14,14,0,0,1,6.93,3.31,10.55,10.55,0,0,1,3.65,6.95,11.07,11.07,0,0,1-2.38,7.62,17.73,17.73,0,0,1-6.22,5.14,25.07,25.07,0,0,1-16.08,1.77,32.25,32.25,0,0,1-14.46-7.33,33.2,33.2,0,0,1-9-12.94c-3.8-9.75-3.57-20.21-1.4-29.4,1.11-4.57,2.57-9.17,5.68-12.66a13.84,13.84,0,0,1,5.59-3.83,9.72,9.72,0,0,1,6.58,0,12.08,12.08,0,0,1,7.45,9.47A12.94,12.94,0,0,1,615,251.1a17.24,17.24,0,0,1-8.84,5.17,22,22,0,0,1-9.14.07,35,35,0,0,1-13.25-5.94,87.71,87.71,0,0,1-7.18-5.73l-1.77-1.59a4.86,4.86,0,0,1-.58-.58,3.56,3.56,0,0,1,.66.48l1.85,1.51c1.63,1.31,4,3.3,7.28,5.53a34.86,34.86,0,0,0,13.11,5.67,21.37,21.37,0,0,0,8.85-.15,16.51,16.51,0,0,0,8.39-5,12.09,12.09,0,0,0,3.27-9.9,11.14,11.14,0,0,0-6.87-8.69c-3.79-1.44-8.29.41-11.08,3.63s-4.32,7.71-5.4,12.22c-2.1,9-2.28,19.27,1.43,28.72A32,32,0,0,0,604.41,289a31.19,31.19,0,0,0,13.93,7.06,24,24,0,0,0,15.32-1.66,16.65,16.65,0,0,0,5.81-4.8,10,10,0,0,0,2.16-6.82,9.39,9.39,0,0,0-3.26-6.2,12.77,12.77,0,0,0-6.36-3.05c-4.73-.79-9.51.56-13.69,2.48A44.27,44.27,0,0,0,599,293.4a44.74,44.74,0,0,0-6.59,21.82c-.22,7,1.38,13.57,4.9,17.92s8.57,5.81,12.4,6.34a56,56,0,0,0,9.12.32l2.39-.09A4.16,4.16,0,0,1,622,339.71Z"/><path class="cls-13" d="M638.18,199.33a6.94,6.94,0,0,1-1.7,1.31,32.92,32.92,0,0,1-5.19,2.71,37.25,37.25,0,0,1-36.83-4.69,32.9,32.9,0,0,1-4.34-3.92,6.93,6.93,0,0,1-1.32-1.7c.16-.15,2.16,2.17,6.15,4.94a38.82,38.82,0,0,0,36,4.59C635.54,200.88,638.06,199.14,638.18,199.33Z"/><path class="cls-13" d="M661,225.49c-.15.31-3.12-1.4-7-.82s-6.37,2.89-6.6,2.63c-.11-.09.33-.85,1.43-1.73a10.56,10.56,0,0,1,10.39-1.38C660.5,224.75,661.12,225.37,661,225.49Z"/><path class="cls-13" d="M694.05,262.53a5.17,5.17,0,0,1-1.14-1.78,15.52,15.52,0,0,1-1.45-5.59,15.22,15.22,0,0,1,1.7-8.43,7.61,7.61,0,0,1,3.91-3.52,5.24,5.24,0,0,1,5.6,1,5.81,5.81,0,0,1,1.32,5.55,5.44,5.44,0,0,1-3.68,3.81,7.31,7.31,0,0,1-8.06-2.61,9.24,9.24,0,0,1-1.76-5.53,4.2,4.2,0,0,1,.35-2.09c.1,0,0,.76.11,2.07a9.42,9.42,0,0,0,1.95,5,6.49,6.49,0,0,0,7.06,2.09,4.34,4.34,0,0,0,2.92-3.08,4.72,4.72,0,0,0-1-4.42,4.13,4.13,0,0,0-4.37-.72,6.6,6.6,0,0,0-3.37,3,15,15,0,0,0-1.81,7.85C692.49,259.85,694.28,262.45,694.05,262.53Z"/><path class="cls-13" d="M715.91,245.22c-.36.05-.51-4.28-3.46-8.42s-6.88-5.82-6.71-6.14c0-.13,1.12.07,2.66.9A15.39,15.39,0,0,1,716,242.41C716.22,244.15,716,245.22,715.91,245.22Z"/><path class="cls-13" d="M753.93,301a2.12,2.12,0,0,1-.53,0l-1.52-.14a57.42,57.42,0,0,1-5.82-1A65.06,65.06,0,0,1,726,291.67a29.87,29.87,0,0,1-5.7-4.5,15.8,15.8,0,0,1-4.11-6.77,10.55,10.55,0,0,1,1.25-8.4,13,13,0,0,1,7.12-5.52c6.14-1.88,13.22.78,17.64,5.85a21,21,0,0,1,4.57,19.55A20.61,20.61,0,0,1,732.53,306c-6.58,1.82-13.24.54-18.94-1.49s-10.71-5.14-15.36-7.82A94.61,94.61,0,0,0,685,289.92c-8.45-3.36-16.24-2.91-20.93-1.12a22,22,0,0,0-6.72,4s.1-.14.34-.39a15.28,15.28,0,0,1,1.11-1.07,18.35,18.35,0,0,1,5.1-3c4.75-2,12.73-2.56,21.4.77a92.85,92.85,0,0,1,13.41,6.73c4.67,2.65,9.6,5.63,15.23,7.64s12,3.15,18.27,1.4a19.5,19.5,0,0,0,13.41-13.36,19.83,19.83,0,0,0-4.31-18.46c-4.15-4.8-10.84-7.28-16.44-5.58a12,12,0,0,0-6.57,5,9.59,9.59,0,0,0-1.19,7.61,14.87,14.87,0,0,0,3.83,6.39,29.72,29.72,0,0,0,5.49,4.43,67.88,67.88,0,0,0,19.72,8.42c2.48.62,4.43,1,5.75,1.2A13,13,0,0,1,753.93,301Z"/><path class="cls-13" d="M658.49,345.09c-.21,0,.2-2.12-.1-5.46a23.23,23.23,0,0,0-14.73-19.8c-3.11-1.25-5.23-1.47-5.2-1.67s2.18-.21,5.49.88a22.34,22.34,0,0,1,15.27,20.53C659.31,343.06,658.6,345.12,658.49,345.09Z"/><path class="cls-13" d="M671.44,373.74c.07.09-1.69,1.4-5.07,2.17a18.93,18.93,0,0,1-21.9-11.76c-1.23-3.24-1.11-5.43-1-5.42s.4,2.08,1.77,5.1a19.26,19.26,0,0,0,21,11.26C669.49,374.57,671.35,373.55,671.44,373.74Z"/><path class="cls-13" d="M701.55,339.66c-.17.09-.87-1.34-2.55-3.17a16.57,16.57,0,0,0-17.55-4.72c-2.37.75-3.69,1.64-3.8,1.47s1.09-1.25,3.52-2.25a15.86,15.86,0,0,1,18.47,5C701.23,338,701.67,339.62,701.55,339.66Z"/><path class="cls-13" d="M783.61,367.74a8.87,8.87,0,0,1-.56,1.63,11.92,11.92,0,0,1-.89,1.91,16.62,16.62,0,0,1-1.48,2.45,28.69,28.69,0,0,1-14.56,10.66,29.76,29.76,0,0,1-12.54,1.48A30.1,30.1,0,0,1,740,381a38,38,0,0,1-16.64-27.79,22.89,22.89,0,0,1,.8-8.8,14.83,14.83,0,0,1,4.79-7.17,11,11,0,0,1,7.94-2.56,12.18,12.18,0,0,1,7.19,3.51,13.45,13.45,0,0,1,3.72,6.63,15.49,15.49,0,0,1-.21,7.15,20.56,20.56,0,0,1-6.92,10.55,23.85,23.85,0,0,1-9.33,4.64,24.09,24.09,0,0,1-7.83.68,22.69,22.69,0,0,1-4.87-1,10.84,10.84,0,0,1-1.61-.65,33.68,33.68,0,0,0,6.51,1.14,24.37,24.37,0,0,0,16.6-5.5,19.76,19.76,0,0,0,6.5-10.15,14.47,14.47,0,0,0,.15-6.68,12.43,12.43,0,0,0-3.47-6.08,11,11,0,0,0-6.53-3.17,9.83,9.83,0,0,0-7.11,2.34,13.69,13.69,0,0,0-4.4,6.62,21.59,21.59,0,0,0-.74,8.35,37.08,37.08,0,0,0,16,27,28.8,28.8,0,0,0,25.32,3.55,28.88,28.88,0,0,0,14.45-10.14A41.89,41.89,0,0,0,783.61,367.74Z"/><path class="cls-13" d="M772.94,416.54a6.59,6.59,0,0,1-.31-2.05,16,16,0,0,1,.69-5.64,20.92,20.92,0,0,1,4.27-7.26,74.68,74.68,0,0,1,7.33-7.15,70.21,70.21,0,0,1,15.83-9.65c2.14-1,3.91-1.75,5.13-2.24a7.5,7.5,0,0,1,2-.66c.07.16-2.54,1.48-6.73,3.64a83.71,83.71,0,0,0-15.43,9.81,86,86,0,0,0-7.27,7,21.07,21.07,0,0,0-4.3,6.82C772.63,413.52,773.23,416.55,772.94,416.54Z"/><path class="cls-13" d="M837.07,396a5,5,0,0,1-.3,1.73,29.33,29.33,0,0,1-1.55,4.52,41.6,41.6,0,0,1-22,21.8,28.73,28.73,0,0,1-4.54,1.52,5.09,5.09,0,0,1-1.73.29c-.06-.2,2.34-.87,5.93-2.57a45.9,45.9,0,0,0,21.54-21.38C836.19,398.3,836.87,395.91,837.07,396Z"/><path class="cls-13" d="M655.52,404.81a4.15,4.15,0,0,1-.56-1,24.69,24.69,0,0,0-1.5-2.76,32.55,32.55,0,0,0-7.59-8.56,33.69,33.69,0,0,0-15.4-6.74,28.44,28.44,0,0,0-9.94.13,17.12,17.12,0,0,0-4.93,1.63,8.09,8.09,0,0,0-3.64,3.56,5.87,5.87,0,0,0-.27,4.87,4.83,4.83,0,0,0,3.76,2.67c3.31.56,6.25-1.79,7.82-4.4a16,16,0,0,0,.31-16,16.46,16.46,0,0,0-8.51-7.22A33.18,33.18,0,0,0,611,370a3.56,3.56,0,0,1,1.12,0,14.52,14.52,0,0,1,3.12.65,16.5,16.5,0,0,1,9.08,7.24,16.82,16.82,0,0,1-.11,16.95,11.71,11.71,0,0,1-3.56,3.77,7.68,7.68,0,0,1-5.36,1.2,6,6,0,0,1-4.65-3.33,7.08,7.08,0,0,1,.28-5.87,9.32,9.32,0,0,1,4.15-4.07,17.85,17.85,0,0,1,5.26-1.73,29.18,29.18,0,0,1,10.33-.07,33.8,33.8,0,0,1,15.75,7.16,30.83,30.83,0,0,1,7.47,9,19.24,19.24,0,0,1,1.32,2.89A3.78,3.78,0,0,1,655.52,404.81Z"/><path class="cls-13" d="M652.28,425c.13.3-2.16,1.59-5.11,2.89s-5.45,2.1-5.58,1.8,2.16-1.59,5.11-2.88S652.15,424.66,652.28,425Z"/><path class="cls-13" d="M658.89,467.69c-.18-.06,0-.95,0-2.35a11.74,11.74,0,0,0-5-9.28c-1.16-.8-2-1.13-2-1.32s1-.08,2.38.61a10,10,0,0,1,4.19,4.21,10.16,10.16,0,0,1,1.18,5.82C659.52,466.91,659,467.74,658.89,467.69Z"/><path class="cls-13" d="M586.63,407.48c0,.18-3.13-.17-8.15-.43s-12-.36-19.35,1.67a32.67,32.67,0,0,0-16.19,10.12c-3.19,3.84-4,6.94-4.26,6.84a7,7,0,0,1,.6-2.13,21.51,21.51,0,0,1,3-5.23c3-4.11,9-8.63,16.52-10.74a55.37,55.37,0,0,1,19.73-1.36c2.52.23,4.55.52,5.94.76A7.7,7.7,0,0,1,586.63,407.48Z"/><path class="cls-13" d="M608.58,434.73c-.11,0-.66-1.31-.6-3.62a15.1,15.1,0,0,1,10.32-13.43c2.21-.65,3.65-.47,3.64-.35s-1.36.32-3.37,1.13a16.23,16.23,0,0,0-9.76,12.72C608.54,433.32,608.78,434.69,608.58,434.73Z"/><path class="cls-13" d="M587.09,372.21c-.07,0-.06-.65-.38-1.81a9.4,9.4,0,0,0-2.83-4.3,11.77,11.77,0,0,0-7.52-2.89,24,24,0,0,0-10.56,2.6c-3.74,1.67-7.57,4.13-12.15,6a24.6,24.6,0,0,1-15.52,1.09,23.07,23.07,0,0,1-13.84-10.09A24.45,24.45,0,0,1,521,344.68a14.55,14.55,0,0,1,4.83-8.23,13.4,13.4,0,0,1,8.82-2.87,13.76,13.76,0,0,1,8.43,3.05,14.47,14.47,0,0,1,4.52,7.3A19,19,0,0,1,545,359.19a23.44,23.44,0,0,1-10.53,8.57,26,26,0,0,1-11,2,32.16,32.16,0,0,1-8.35-1.36,34.24,34.24,0,0,1-5-1.9c-.56-.25-1-.47-1.24-.62s-.41-.24-.4-.26a14.7,14.7,0,0,1,1.73.67,45.2,45.2,0,0,0,5,1.67,33.54,33.54,0,0,0,8.24,1.15,26,26,0,0,0,10.7-2.15,22.73,22.73,0,0,0,10-8.34,18,18,0,0,0,2.3-14.44,13.35,13.35,0,0,0-4.19-6.73,12.6,12.6,0,0,0-7.74-2.75,12.23,12.23,0,0,0-8.05,2.62,13.47,13.47,0,0,0-4.43,7.59,23.41,23.41,0,0,0,3.15,17.2,22,22,0,0,0,13.15,9.66,23.62,23.62,0,0,0,14.89-.95c4.47-1.74,8.34-4.15,12.16-5.81a24.36,24.36,0,0,1,10.93-2.49,12.07,12.07,0,0,1,7.8,3.2,9.32,9.32,0,0,1,2.75,4.58A5.89,5.89,0,0,1,587.09,372.21Z"/><path class="cls-13" d="M568.67,402.23c-.11,0-1-1.55-1.51-4.4a24.87,24.87,0,0,1,6.09-21c2-2.12,3.56-3,3.63-2.91s-1.24,1.27-3,3.45A27.56,27.56,0,0,0,568,397.71C568.31,400.48,568.86,402.16,568.67,402.23Z"/><path class="cls-13" d="M603.86,362.91c-.11.07-.93-1.5-2.78-4.07A54.23,54.23,0,0,0,575,339.18a43.86,43.86,0,0,0-11.32-2.45,7.19,7.19,0,0,0-5.34,1.66c-1.25,1.28-1.65,3.76-.5,5.09a2.44,2.44,0,0,0,2.4.69,6.11,6.11,0,0,0,2.5-1.39,21.11,21.11,0,0,0,3.68-4.77A27.12,27.12,0,0,0,570,327.12a25.9,25.9,0,0,0-.93-10.35,25.32,25.32,0,0,0-4.17-8.07,27.34,27.34,0,0,0-10.31-8.18c-2.89-1.27-4.64-1.58-4.61-1.7a4.85,4.85,0,0,1,1.27.19,22.61,22.61,0,0,1,3.52,1.08,26.94,26.94,0,0,1,10.79,8.1,25.87,25.87,0,0,1,4.44,8.29,26.71,26.71,0,0,1,1.08,10.75,28.11,28.11,0,0,1-3.66,11.36,21.79,21.79,0,0,1-3.91,5.07,7.05,7.05,0,0,1-3,1.66,3.64,3.64,0,0,1-3.52-1.05,4.46,4.46,0,0,1-.93-3.5,5.66,5.66,0,0,1,1.46-3.19,8.31,8.31,0,0,1,6.22-2,43.68,43.68,0,0,1,11.65,2.58,53.46,53.46,0,0,1,17.22,10.22,50.18,50.18,0,0,1,8.85,10.21,32,32,0,0,1,1.86,3.16A5.07,5.07,0,0,1,603.86,362.91Z"/><path class="cls-13" d="M452.24,273.06c0-.12,1.77-.16,4.87-.85a31.65,31.65,0,0,0,12-5.58c4.43-3.34,9-9,9.87-16.39a24.16,24.16,0,0,0-1.25-11.39,20.28,20.28,0,0,0-7.25-9.76,13.11,13.11,0,0,0-5.71-2.18,7.53,7.53,0,0,0-5.53,1.24,5.79,5.79,0,0,0-2.15,4.84,8.5,8.5,0,0,0,1.88,5,11.67,11.67,0,0,0,9.13,3.9,16.63,16.63,0,0,0,8.63-2.45c4.8-3,7.51-6.88,9.41-9.39l2.11-3a5,5,0,0,1,.79-1,5.72,5.72,0,0,1-.59,1.14c-.42.73-1.06,1.8-1.94,3.13-1.8,2.6-4.42,6.65-9.34,9.84a17.3,17.3,0,0,1-9.07,2.72,12.64,12.64,0,0,1-10-4.19A9.66,9.66,0,0,1,456,233a6.94,6.94,0,0,1,2.57-5.79,8.68,8.68,0,0,1,6.38-1.49,14.11,14.11,0,0,1,6.23,2.37,21.43,21.43,0,0,1,7.68,10.33,25.15,25.15,0,0,1,1.24,11.93,23.58,23.58,0,0,1-3.88,10.14,27.24,27.24,0,0,1-6.57,6.77,30.48,30.48,0,0,1-12.45,5.37,21.8,21.8,0,0,1-3.67.42A5.12,5.12,0,0,1,452.24,273.06Z"/><path class="cls-13" d="M473.43,326.69a9.35,9.35,0,0,1-.47-2.54,36.64,36.64,0,0,1-.07-7,41.7,41.7,0,0,1,26.39-35.61,36.49,36.49,0,0,1,6.75-2,9.29,9.29,0,0,1,2.57-.29c0,.23-3.62.71-9,3a42.9,42.9,0,0,0-25.88,34.92C473.06,323,473.66,326.67,473.43,326.69Z"/><path class="cls-13" d="M537.18,309.26c-.22-.05.87-3.49,1.21-9.2a46.38,46.38,0,0,0-17.25-39.19c-4.44-3.61-7.71-5.12-7.6-5.32a9.69,9.69,0,0,1,2.32,1,39.4,39.4,0,0,1,5.8,3.67,44.77,44.77,0,0,1,17.56,39.92,39.58,39.58,0,0,1-1.2,6.76A9.59,9.59,0,0,1,537.18,309.26Z"/><g class="cls-8"><path d="M554.87,395.87c-2.31-.39-4,2.61-3.29,4.84s2.84,3.67,4.87,4.84a87.22,87.22,0,0,0,76.66,4.62c-26.26,3-52.22-6.15-77.06-15.18"/></g><g class="cls-8"><path d="M564,374.3c0-4.08,3.83-7.29,7.81-8.16s8.1,0,12.14.42a66,66,0,0,0,42.54-9.81c8.27-5.26,16.8-12.76,26.42-10.91-20.88,23.88-55.62,34.67-86.36,26.82"/></g><g class="cls-8"><path d="M573.43,241a229.92,229.92,0,0,1-44.35,59.3c-3.8,3.65-7.78,7.24-10.55,11.72s-3.33,11.38-1.59,16.35c7.84-5.23,12.41-12.2,18.78-19.18,5.74-6.29,18.34-21.47,18.51-21.71,9.55-14.24,14.1-28.77,16.92-45.32"/></g><g class="cls-8"><path d="M649.4,201.7a90.07,90.07,0,0,0-4.46,54.2c1.57,6.8,4.35,14,10.34,17.54a42.59,42.59,0,0,1,11.48-24.29c3,6.41,6,12.87,10.17,18.59s9.6,10.72,16.21,13.24q12-14.62,24-29.23a6.89,6.89,0,0,0,1.94-3.74c.09-1.43-1.16-3-2.55-2.66a3.58,3.58,0,0,0-1.48,1c-8.08,7.85-14.58,15.35-22.66,23.19-2.52.54-6.85-3.14-9.23-6.29-2.07-2.75-1.66-5.67-2-9.1s-.28-2.82-2.21-5.66c-3.56-5.23-14-9.63-18.92-6.55S653,251.81,651.54,257a78.34,78.34,0,0,1-3-56.31"/></g><g class="cls-8"><path d="M724.35,313c-.88.52-15.17,49.58-15.17,49.58l-10-19.22Z"/></g><path class="cls-3" d="M684.62,126.35l-24.4,74.1a18.88,18.88,0,0,0,.41,13h0a57.18,57.18,0,0,0,10.82,17.22L683.62,244l16-7a19,19,0,0,0,10.17-10.73c2-5.33,3.78-10.77,3.78-10.77s21.44,5.4,30.21-14.61c4.13-9.42,11-29.24,17.09-47.58A42.31,42.31,0,0,0,737.21,101l-.57-.24A40.43,40.43,0,0,0,684.62,126.35Z"/><path class="cls-12" d="M713.57,215.51s-13-4.63-22.91-18.84c0,0,.26,17.46,21.1,24.15Z"/><path class="cls-7" d="M750.38,164.58a3.13,3.13,0,0,1-4,1.73,3,3,0,0,1-1.86-3.85,3.12,3.12,0,0,1,4-1.73A3,3,0,0,1,750.38,164.58Z"/><path class="cls-7" d="M752.84,159.91c-.51.23-2-2.31-5.1-3.61s-6-.71-6.19-1.23c-.09-.24.56-.76,1.85-1.06a8.53,8.53,0,0,1,5.15.52,8.21,8.21,0,0,1,3.86,3.34C753.05,159,753.09,159.82,752.84,159.91Z"/><path class="cls-7" d="M720.9,153.2a3.12,3.12,0,0,1-4,1.73,3,3,0,0,1-1.87-3.85,3.13,3.13,0,0,1,4-1.73A3,3,0,0,1,720.9,153.2Z"/><path class="cls-7" d="M722.22,147.62c-.52.22-2-2.31-5.11-3.61s-6-.72-6.19-1.24c-.09-.24.56-.76,1.85-1.06a8.53,8.53,0,0,1,5.15.52,8.31,8.31,0,0,1,3.87,3.35C722.43,146.71,722.46,147.52,722.22,147.62Z"/><path class="cls-7" d="M723.72,175.29c.06-.18,2.12.3,5.41,1.22.82.25,1.63.41,2-.07a4.36,4.36,0,0,0,.47-2.56c.06-2.22.14-4.56.21-7,.38-9.93,1-18,1.42-17.94s.41,8.08,0,18c-.12,2.44-.22,4.77-.33,7a5,5,0,0,1-.9,3.27,2.14,2.14,0,0,1-1.79.6,5.93,5.93,0,0,1-1.42-.38C725.61,176.28,723.66,175.47,723.72,175.29Z"/><path class="cls-7" d="M713.72,173.57c.51.19-.9,3.55,1,7.14s5.59,4.75,5.42,5.23c0,.23-1.07.31-2.6-.29a9.05,9.05,0,0,1-4.6-4.17,7.85,7.85,0,0,1-.59-5.89C712.77,174.13,713.5,173.46,713.72,173.57Z"/><path class="cls-7" d="M728.15,135.84c-.66.71-3.58-1-7.39-2.09s-7.17-1.36-7.33-2.31c-.06-.46.79-1,2.31-1.34a12.73,12.73,0,0,1,6,.38,12.91,12.91,0,0,1,5.21,3C728.06,134.55,728.45,135.5,728.15,135.84Z"/><path class="cls-7" d="M755.5,150.49c-.84.47-2.66-1.16-5.21-2.28s-4.93-1.53-5.12-2.48c-.06-.45.57-1,1.8-1.27a8.21,8.21,0,0,1,8.32,3.83C755.89,149.4,755.88,150.25,755.5,150.49Z"/><path class="cls-7" d="M715.81,113.55l-.15,0a17.23,17.23,0,0,0-10.22,7.74l-.22.38c-3.22,5.41-5.55,11.3-8.82,16.67s-4.49,9.9-10.75,9.29a8.15,8.15,0,0,1-7-6,5.35,5.35,0,0,1,.39-2.94c4.8-14.3,3.75-20.82,9.92-35.29a13.25,13.25,0,0,1,9.27-7.79c4-.89,8.62-1.58,11.31,1.45s4.39,11.18,5.87,15"/><path class="cls-3" d="M687.55,138.33c-.28-.3-12.09-10-17.48,4s9.72,16.47,9.9,16.08S687.55,138.33,687.55,138.33Z"/><path class="cls-12" d="M677.75,151.47c0-.06-.31.08-.79.11a2.6,2.6,0,0,1-1.83-.66c-1.26-1.11-1.6-3.93-.69-6.47a8.44,8.44,0,0,1,2-3.21,3,3,0,0,1,2.55-1.16,1.32,1.32,0,0,1,1.17,1.22c0,.46-.16.71-.09.76s.38-.12.5-.74a1.67,1.67,0,0,0-.22-1.08,2,2,0,0,0-1.2-.88,3.68,3.68,0,0,0-3.37,1.18,9,9,0,0,0-2.35,3.56c-1,2.84-.57,6,1.22,7.39A2.82,2.82,0,0,0,677,152C677.6,151.8,677.79,151.52,677.75,151.47Z"/><path class="cls-7" d="M708.15,99.07c-1-6.94,11.57-10.91,19.27-10.17s15.23,7.83,21,12.93c3.66,3.22,7.07,7,11.64,8.71,3.06,1.15,6.39,1.27,9.66,1.47s6.61.52,9.53,2,5.33,4.39,5.29,7.66-3.29,6.39-6.45,5.55c4.69-.48,9,4.6,7.83,9.16s-7.48,6.84-11.33,4.11c2.58-.65,4.54,3.07,3.27,5.41s-4.25,3.17-6.91,3.21c-6.8.09-13.15-3.55-18.24-8.06s-9.27-10-14.24-14.6-13.2-12.66-20-13.08c-5-.31-10.25,3.65-12.21,1.45a9.13,9.13,0,0,1-1.73-8,26.26,26.26,0,0,1,3.58-7.71"/><path class="cls-9" d="M779.94,127.53c-.08-.12-1.14.72-3.29,1.7a20.7,20.7,0,0,1-9.73,1.68A19,19,0,0,1,754,124.82c-3.79-4.08-6-10-8.94-15.87S738,97.77,732.78,95s-11-2.94-15.08-1a13,13,0,0,0-6.89,7.57,10.28,10.28,0,0,0-.48,2.78c0,.64.06,1,.11,1a24.9,24.9,0,0,1,.91-3.56,12.8,12.8,0,0,1,6.77-6.8c3.78-1.65,9.19-1.43,14,1.25s8.8,7.66,11.64,13.45S749,121.45,753,125.74A19.72,19.72,0,0,0,766.87,132a19.92,19.92,0,0,0,10-2.21,14.11,14.11,0,0,0,2.34-1.53C779.73,127.8,780,127.57,779.94,127.53Z"/><path class="cls-9" d="M684.3,136.24c0,.07.75-.12,1.74-1a9.93,9.93,0,0,0,2.79-4.69c1.58-4.56-.33-11,1.77-17.31a15.07,15.07,0,0,1,5-7.56,11.44,11.44,0,0,1,7-2.25,9.81,9.81,0,0,1,4.86,1.32c1,.65,1.51,1.16,1.61,1.07s-.28-.69-1.28-1.54a9.39,9.39,0,0,0-5.14-1.89,12,12,0,0,0-7.84,2.2,15.9,15.9,0,0,0-5.6,8.21,27.32,27.32,0,0,0-1,9.79,28.68,28.68,0,0,1-.34,7.69C686.84,134.62,684.13,136.09,684.3,136.24Z"/><path class="cls-2" d="M345.8,695.26a65,65,0,0,0,18.8-2.73c60.58-18.13,57.43-61.82,54.9-96.93-2.36-32.75-2.43-53.33,24.57-63.46,35.7-13.4,50.42-.4,72.68,19.3,26.51,23.45,59.49,52.65,139.48,40.8,41.56-6.15,108.31-28,190.29-97.45,48.75-41.27,79.46-79.37,80.75-81l-12.39-9.93c-1.22,1.52-123.58,152.31-261,172.65-72.67,10.76-101.34-14.61-126.64-37-22.69-20.07-44.12-39-88.78-22.28-39.48,14.82-37,49.17-34.82,79.47,2.55,35.47,4.76,66.1-43.62,80.59-54.51,16.33-126.19-70-169-121.61-15.28-18.4-25.92-31.72-34.39-38.62l.86,22.89c5.3,6.5,7.17,8.84,21.32,25.87C222.45,618.41,286.27,695.25,345.8,695.26Z"/><path class="cls-6" d="M570.46,569.62c-.05.09.62.59,1.9,1.41a56,56,0,0,0,5.6,3.14,83.74,83.74,0,0,0,41.14,8.5,57.76,57.76,0,0,0,6.39-.66,7.28,7.28,0,0,0,2.29-.55c0-.26-3.35.07-8.71.1a99.63,99.63,0,0,1-40.65-8.4C573.51,571,570.59,569.39,570.46,569.62Z"/><path class="cls-6" d="M477.27,521.67c.05.25,2-.12,5.2-.17a35.44,35.44,0,0,1,22.9,7.89c2.48,2,3.8,3.51,4,3.34s-.89-1.88-3.26-4.17a30.65,30.65,0,0,0-23.7-8.17C479.13,520.74,477.22,521.5,477.27,521.67Z"/><path class="cls-6" d="M375.75,672.21c0,.15,2.9-.32,7.16-2.21A46.11,46.11,0,0,0,407,643.94c1.55-4.4,1.8-7.29,1.64-7.31s-.9,2.72-2.67,6.9A51.29,51.29,0,0,1,382.43,669C378.39,671.09,375.67,672,375.75,672.21Z"/><path class="cls-6" d="M161.69,531.18c-.31.31,5.06,6.17,12,13.09s12.8,12.28,13.11,12-5.06-6.16-12-13.09S162,530.87,161.69,531.18Z"/><path class="cls-2" d="M913.2,417.34h0a18.31,18.31,0,0,0,25.88,1.23l28-25.41L942.4,366l-28,25.42A18.32,18.32,0,0,0,913.2,417.34Z"/><path class="cls-2" d="M1054.59,264.22l48.24-39.89A8.9,8.9,0,0,0,1104,211.8h0a8.91,8.91,0,0,0-12.53-1.18l-48.24,39.89Z"/><path class="cls-2" d="M1099.92,322.5l48.25-39.89a8.91,8.91,0,0,0,1.18-12.53h0a8.9,8.9,0,0,0-12.52-1.18l-48.25,39.89Z"/><g class="cls-5"><path class="cls-6" d="M1054.61,264.06l48.24-39.89a8.9,8.9,0,0,0,1.18-12.53h0a8.9,8.9,0,0,0-12.52-1.18l-48.24,39.89Z"/></g><g class="cls-5"><path class="cls-6" d="M1099.94,322.34l48.24-39.89a8.9,8.9,0,0,0,1.19-12.53h0a8.91,8.91,0,0,0-12.53-1.18l-48.24,39.89Z"/></g><path class="cls-2" d="M945,314.67l-1.27-1.54a17,17,0,0,1,23.69-24.24L1038,230.07l80.79,96.66-72.27,57.47a17,17,0,0,1-3.46,22.35h0a17,17,0,0,1-23.72-2,49.15,49.15,0,0,1-67.94-8.52l-11.6-14.48A49.14,49.14,0,0,1,945,314.67Z"/><rect class="cls-1" x="1021.27" y="292.83" width="64.65" height="12.67" transform="translate(2056.18 -141.75) rotate(140.41)"/><path class="cls-2" d="M1381.79,377.38l27-138.79a10.41,10.41,0,1,1,20.43,4l-1.23,6.31,55.85,13.74a37.28,37.28,0,0,1,26.09,23.28l33.69,8.29a21.76,21.76,0,0,1,15.93,26.33l-3,12.3,33,8.11a17.07,17.07,0,0,1-8.16,33.15l-33-8.12-2.34,9.52a21.77,21.77,0,0,1-26.33,15.94L1485.39,383l.07-.26a37.26,37.26,0,0,1-33.1,7.86l-49.57-12.2-.58,3a10.4,10.4,0,1,1-20.42-4Z"/><path class="cls-7" d="M1429.21,249.11c-.4-.09-6.92,28.72-14.55,64.35s-13.49,64.57-13.08,64.66,6.91-28.73,14.54-64.35"/><path class="cls-7" d="M1485.46,382.71c.4.1,6.18-21.53,12.92-48.32s11.88-48.59,11.48-48.69-6.19,21.53-12.93,48.32S1485.05,382.61,1485.46,382.71Z"/><path class="cls-7" d="M1548.37,366c.46.14,2.74-7.21,4.81-16.4s3.68-16.64,3.35-16.74-2.75,7.21-4.81,16.4S1548,365.85,1548.37,366Z"/><path class="cls-6" d="M1518.42,293.87c0,.22,3.25.72,8.47,1.81,2.61.55,5.72,1.25,9.1,2.18A46.14,46.14,0,0,1,1546.5,302c3.42,2,6.52,4.5,7.38,7.74s.48,6.45.19,9.07c-.67,5.27-1.55,8.47-1.32,8.54s1.41-3.06,2.37-8.39c.41-2.63,1-5.93.08-9.6a11.08,11.08,0,0,0-3-5,24.71,24.71,0,0,0-4.93-3.65,43.83,43.83,0,0,0-10.9-4.18c-3.46-.87-6.61-1.47-9.26-1.89C1521.77,293.81,1518.44,293.68,1518.42,293.87Z"/><path class="cls-6" d="M1438.5,257.05a11.41,11.41,0,0,0,2.87.87c1.87.46,4.59,1.08,8,1.82l26.3,5.53a55.17,55.17,0,0,1,13.75,4.82,28.59,28.59,0,0,1,9.08,7.46c4.21,5.4,4.23,10,4.53,9.88a7.31,7.31,0,0,0-.23-3,20.34,20.34,0,0,0-3.46-7.51,28.28,28.28,0,0,0-9.26-8,53.29,53.29,0,0,0-14.07-5.06c-10.32-2.22-19.66-3.87-26.44-5.12-3.39-.6-6.14-1.06-8-1.35A11.69,11.69,0,0,0,1438.5,257.05Z"/><path class="cls-6" d="M1562.31,340.37c-.09.17,2,1.39,5.86,2.33s9.18,1.46,14.85,2.66a30.16,30.16,0,0,1,7.63,2.67,19.13,19.13,0,0,1,5.19,4c2.54,2.79,3,5.23,3.29,5.14s0-2.63-2.48-5.83a18.73,18.73,0,0,0-5.33-4.49,28.64,28.64,0,0,0-8-2.92c-5.88-1.24-11.2-1.49-14.95-2.23S1562.4,340.16,1562.31,340.37Z"/><path class="cls-6" d="M1415.78,233.41c0,.23,1.11.21,2.72.64a10.19,10.19,0,0,1,7.73,9.08c.18,1.65,0,2.72.21,2.78s.75-1,.85-2.81a9.75,9.75,0,0,0-8.6-10.09C1416.85,232.82,1415.75,233.24,1415.78,233.41Z"/><path class="cls-7" d="M1401.34,132.54a2.47,2.47,0,0,1-.39.25l-1.2.65-4.65,2.43-17.27,8.83-58,29.21-.39.19-.25-.36-5.06-7.16c-2.47-3.49-4.9-6.93-7.2-10.2l.67.15-54,31.21-16.11,9.18-4.36,2.44L1232,200a2.29,2.29,0,0,1-.4.18s.11-.11.35-.27l1.1-.69,4.28-2.59,15.94-9.45,53.87-31.51.4-.24.28.39L1315,166l5.06,7.16-.64-.16,58.12-28.91,17.41-8.54,4.73-2.27,1.24-.56C1401.18,132.58,1401.33,132.52,1401.34,132.54Z"/><path class="cls-7" d="M1231.49,201.14a.87.87,0,0,1-.81-.51c-.5-.81.36-1.37.68-1.58l1.81-1.13,3.6-2.18,16-9.45,52.45-30.68-.54-.75,1.33.29,1.83-1.07,1.23,1.73,1.33.29-.8.47,10.56,14.93,57-28.33,17.42-8.54,6-2.84c.41-.17,1.3-.57,1.75.29s-.42,1.37-.79,1.58l-2.17,1.16-7.85,4.06-13.13,6.71L1321.87,174l.56.8-1.4-.37-1.89.95-1.25-1.76-1.34-.35.81-.4-10.44-14.78-52.84,30.52-21.65,12.24A2.22,2.22,0,0,1,1231.49,201.14Z"/><path class="cls-7" d="M1386,208.64a6.15,6.15,0,0,1-1.15.32l-3.33.72-12.33,2.51-41.32,8-.51.1-.09-.52-.91-5.11c-.21-1.16-.41-2.31-.6-3.38l.59.42c-16.76,2.88-31.61,6.38-42.23,9.18-5.32,1.4-9.59,2.6-12.54,3.43l-3.39.94a6.21,6.21,0,0,1-1.2.26,5.86,5.86,0,0,1,1.14-.46l3.34-1.12c2.91-1,7.16-2.25,12.46-3.74a426.28,426.28,0,0,1,42.25-9.51l.51-.09.09.51c.19,1.07.39,2.22.6,3.38.31,1.75.62,3.48.9,5.11l-.6-.42,41.38-7.7,12.39-2.19,3.37-.55A4.93,4.93,0,0,1,1386,208.64Z"/><path class="cls-7" d="M1266.94,226.53a.87.87,0,0,1-.93-.71c-.31-.94.52-1.24,1.77-1.68l3.35-1.13c3.49-1.13,7.93-2.46,12.51-3.75,7.4-2.09,22.4-6,40.85-9.28l-.16-.88,1,.73.62-.11,1.49-.26.37,2.11,1,.73-.88.15,1,5.49,39.87-7.42,15.78-2.75c1.25-.18,2.15-.31,2.33.68s-.69,1.2-1.9,1.48l-3.34.73-12.35,2.51-39.86,7.74.16.89-1-.72-2.1.41-.37-2.11-1.05-.72.89-.17-1-5.52c-16.92,3-31.4,6.46-40.67,8.91-5.07,1.33-9.17,2.48-12.51,3.42l-3.4.94A6.47,6.47,0,0,1,1266.94,226.53Z"/><path class="cls-7" d="M1244.73,135.51c.26.13-5.11,11.71-12,25.87s-12.66,25.54-12.92,25.42,5.1-11.71,12-25.87S1244.47,135.39,1244.73,135.51Z"/><path class="cls-7" d="M1219.83,187.84a1.08,1.08,0,0,1-.44-.14c-1.08-.52-1.08-.52,2.85-9,2.26-4.89,5.34-11.36,8.67-18.22s6.51-13.27,8.95-18.08c4.23-8.32,4.23-8.32,5.31-7.8s1.07.53-2.85,9c-2.27,4.89-5.35,11.36-8.68,18.21C1222.43,184.91,1220.82,187.84,1219.83,187.84Z"/><path class="cls-7" d="M1307.64,192.31c.08.27-13.25,4.41-29.78,9.23s-30,8.52-30.06,8.24,13.24-4.4,29.77-9.23S1307.56,192,1307.64,192.31Z"/><path class="cls-7" d="M1247.7,210.8c-.65,0-.73-.28-.86-.74-.34-1.15-.34-1.15,9.32-4.14,5.63-1.75,13.13-4,21.13-6.33s15.53-4.48,21.22-6c9.75-2.67,9.75-2.67,10.09-1.52h0c.33,1.15.33,1.15-9.33,4.15-5.63,1.74-13.13,4-21.13,6.32s-15.53,4.48-21.21,6C1251,210.16,1248.7,210.8,1247.7,210.8Z"/><path class="cls-7" d="M1204.54,99.24a14.41,14.41,0,0,1,.85,2.16c.54,1.56,1.26,3.61,2.14,6.15,1.82,5.44,4.32,12.93,7.26,21.76l.21.63h-.67l-16.45-.33.52-.61c.38,2.09.8,4.29,1.21,6.53l6.94,38.18c.82,4.79,1.49,8.71,2,11.59l.49,3.16a4.94,4.94,0,0,1,.1,1.12,4.59,4.59,0,0,1-.31-1.08c-.18-.83-.4-1.86-.68-3.13-.57-2.86-1.35-6.77-2.31-11.53-1.87-9.88-4.42-23.3-7.23-38.12-.41-2.24-.82-4.44-1.21-6.53l-.11-.63.63,0,16.46.42-.46.61L1207,107.73q-1.15-3.87-1.88-6.24A13.18,13.18,0,0,1,1204.54,99.24Z"/><path class="cls-7" d="M1209,190.58c-.76,0-1-.83-1.2-1.86l-.68-3.14L1204.84,174l-8.22-43.46-.87,0,.72-.84-.41-2.19,2.22.06.71-.84.16.86,13.17.33-8.17-26.15c-.74-2.56-.92-3.16.08-3.49s1.2.27,2.1,2.77l2.14,6.16,6.94,20.79.9,0-.61.82.7,2.11-2.24-.05-.63.85-.27-.87-13.54-.27.88,4.71,6.93,38.18,2,11.6.49,3.18c.16,1.17.28,2.08-.72,2.25Z"/><path class="cls-7" d="M1131.77,258c-.12-.26,10.57-5.53,23.87-11.76s24.19-11.08,24.32-10.82-10.57,5.52-23.88,11.76S1131.89,258.26,1131.77,258Z"/><path class="cls-7" d="M1131.65,259a.52.52,0,0,1-.21,0l-.39-.14-.36-.75.14-.41c.16-.42.39-1.06,24.39-12.31s24.65-11,25.07-10.86l.39.14.36.76-.14.4c-.16.42-.39,1.07-24.39,12.31C1135.44,258,1132.37,259,1131.65,259Z"/><path class="cls-7" d="M1181.45,273.28c-.22-.19,3.86-5.45,9.12-11.75s9.7-11.26,9.92-11.08-3.87,5.44-9.13,11.75S1181.67,273.46,1181.45,273.28Z"/><path class="cls-7" d="M1181.45,274.33a1,1,0,0,1-.64-.29l-.32-.26,0-.43c0-.42-.1-1.12,9.36-12.46,10.16-12.18,10.45-11.94,11.33-11.21s1.16,1-9,13.16c-2.55,3.05-5,5.89-6.87,8C1183,273.39,1182.11,274.33,1181.45,274.33Z"/><path class="cls-7" d="M1208.24,345.63c-.28,0,1.54-20.55,4.08-45.83s4.83-45.75,5.12-45.72-1.55,20.54-4.09,45.83S1208.52,345.66,1208.24,345.63Z"/><path class="cls-7" d="M1208.42,346.64l-.28,0h0c-1.2-.12-1.2-.12.09-14.52.77-8.67,1.87-20.17,3.1-32.4s2.43-23.71,3.4-32.36c1.61-14.37,1.6-14.37,2.81-14.26l.41,0,.26.33c.31.37.73.88-3.86,46.56-1.23,12.23-2.44,23.72-3.4,32.36C1209.47,345.54,1209.35,346.64,1208.42,346.64Z"/><path class="cls-7" d="M1171.69,164.11c.25-.13,2.43,3.73,4.86,8.61s4.18,8.95,3.93,9.08-2.43-3.73-4.86-8.62S1171.43,164.24,1171.69,164.11Z"/><path class="cls-7" d="M1180.43,182.82c-.77,0-1.36-1-2.44-3-.93-1.64-2.09-3.85-3.27-6.23s-2.24-4.64-3-6.37c-1-2.42-1.53-3.53-.49-4s1.36-.67,6.2,9.07c1.18,2.38,2.25,4.64,3,6.37,1,2.42,1.52,3.53.48,4A1.06,1.06,0,0,1,1180.43,182.82Z"/></svg>