<?xml version="1.0" encoding="utf-8"?><svg width="72" height="63" viewBox="0 0 72 63" xmlns="http://www.w3.org/2000/svg" xmlns:xlink="http://www.w3.org/1999/xlink"><svg width="21" height="23" fill="none" viewBox="0 0 21 23" id="icon-header-menu-chargebee" y="40" xmlns="http://www.w3.org/2000/svg"><path fill-rule="evenodd" clip-rule="evenodd" d="M11.504 21.432a9.865 9.865 0 0 1-7.023-2.91A9.866 9.866 0 0 1 1.572 11.5a9.867 9.867 0 0 1 2.91-7.023 9.867 9.867 0 0 1 7.022-2.909 9.86 9.86 0 0 1 3.983.831 9.89 9.89 0 0 1 3.215 2.258.627.627 0 0 1-.908.864 8.654 8.654 0 0 0-6.29-2.698c-4.784 0-8.677 3.892-8.677 8.677s3.893 8.677 8.677 8.677a8.659 8.659 0 0 0 6.29-2.7.627.627 0 1 1 .91.864c-.919.966-2 1.726-3.216 2.26a9.857 9.857 0 0 1-3.984.831Z" fill="#FF6C36"/><path fill-rule="evenodd" clip-rule="evenodd" d="M11.502 19.445c-4.381 0-7.946-3.564-7.946-7.945s3.565-7.946 7.946-7.946c1.108 0 2.18.224 3.186.665a7.909 7.909 0 0 1 2.572 1.806.419.419 0 0 1-.605.577 7.048 7.048 0 0 0-5.153-2.211c-3.92 0-7.11 3.189-7.11 7.109s3.19 7.109 7.11 7.109a7.043 7.043 0 0 0 3.026-.675.42.42 0 0 1 .357.757c-1.062.5-2.2.754-3.383.754ZM19.568 16.183a.626.626 0 1 1-.7 1.04.626.626 0 0 1 .7-1.04Z" fill="#FF6C36"/><path fill-rule="evenodd" clip-rule="evenodd" d="M11.504 23c-3.072 0-5.96-1.196-8.132-3.369A11.424 11.424 0 0 1 .004 11.5c0-3.072 1.196-5.96 3.368-8.132A11.425 11.425 0 0 1 11.504 0a11.457 11.457 0 0 1 8.335 3.577.419.419 0 0 1-.606.576 10.625 10.625 0 0 0-7.73-3.317c-2.847 0-5.525 1.11-7.54 3.124A10.594 10.594 0 0 0 .84 11.5c0 2.848 1.11 5.527 3.124 7.54a10.593 10.593 0 0 0 7.54 3.123c.418 0 .84-.024 1.251-.072a.418.418 0 1 1 .097.83c-.444.053-.898.079-1.348.079M14.044 22.707a.417.417 0 0 1-.095-.826 10.574 10.574 0 0 0 3.932-1.835.418.418 0 1 1 .5.67 11.397 11.397 0 0 1-4.24 1.98.483.483 0 0 1-.097.01ZM19.095 19.989a.417.417 0 0 1-.287-.723c.157-.148.31-.301.458-.458a.417.417 0 1 1 .609.573c-.158.168-.325.335-.494.494a.418.418 0 0 1-.286.114ZM15.793 18.104a.418.418 0 0 1-.243-.759 6.42 6.42 0 0 0 1.105-.947.417.417 0 1 1 .606.576c-.453.477-.744.71-1.226 1.052a.419.419 0 0 1-.242.078Z" fill="#FF6C36"/><path fill-rule="evenodd" clip-rule="evenodd" d="M19.838 3.577A11.492 11.492 0 0 0 9.312.208a11.396 11.396 0 0 0-5.605 2.84A11.692 11.692 0 0 0 2.263 4.65 11.42 11.42 0 0 0 .415 8.433a11.662 11.662 0 0 0-.34 4.357 11.483 11.483 0 0 0 1.437 4.407 11.552 11.552 0 0 0 3.041 3.468 11.41 11.41 0 0 0 6.9 2.334 7.09 7.09 0 0 0-2.55-4.642 7.12 7.12 0 0 0-1.929-1.129l-.106-.04c-.015-.005-.033-.009-.046-.016-.02-.013-.024-.04-.032-.064a2.163 2.163 0 0 0-.417-.685c-.117-.131-.237-.258-.348-.393a7.082 7.082 0 0 1-1.583-3.71 7.17 7.17 0 0 1 .031-1.875 7.055 7.055 0 0 1 1.27-3.105 7.174 7.174 0 0 1 2.502-2.157 7.076 7.076 0 0 1 3.32-.792c.67.006 1.339.104 1.982.295a7 7 0 0 1 2.595 1.425c.129.111.252.227.373.346.124.124.24.252.378.36a2.212 2.212 0 0 0 1.898.4A2.213 2.213 0 0 0 20.246 6a2.194 2.194 0 0 0-.407-2.424c-1.063-1.118.835.878 0 0" fill="#FF6C36"/><path fill-rule="evenodd" clip-rule="evenodd" d="M14.222 11.5a2.718 2.718 0 1 0-5.435 0 2.718 2.718 0 0 0 5.435 0Z" fill="#FF6C36"/></svg><svg width="21" height="24" fill="none" viewBox="0 0 21 24" id="icon-header-menu-magento" y="16" xmlns="http://www.w3.org/2000/svg"><path d="M20.4 5.995v12l-2.92 1.711V7.716l-7.288-4.288-7.298 4.289.02 11.994L0 17.995V6.005L10.208 0 20.4 5.995Zm-8.748 13.711-1.455.861-1.464-.85v-12L5.818 9.433l.005 11.995L10.187 24l4.374-2.572v-12l-2.92-1.717.011 11.995Z" fill="#F26322"/></svg><svg width="23" height="23" fill="none" viewBox="0 0 23 23" id="icon-header-menu-recurly" x="21" y="40" xmlns="http://www.w3.org/2000/svg"><g clip-path="url(#ca)"><path d="M11.5 0a11.5 11.5 0 1 0 0 23 11.5 11.5 0 0 0 0-23Zm2.571 18.16-2.347-3.785c-.975-1.438-1.534-1.661-2.124-1.661h-.017v5.446H6.948v-7.235h4.185c1.884 0 2.667-1.134 2.667-2.62 0-1.022-.575-2.251-2.252-2.251-1.98 0-1.98 1.565-1.98 1.565h1.5L8.274 9.855 5.638 7.62h1.326c.367-2.172 1.9-3.434 4.552-3.434 3.019 0 4.92 1.326 4.92 4.105 0 2.267-1.646 3.658-3.307 4.074.336.256.8.91 1.438 1.9l2.428 3.882-2.924.014Z" fill="#723080"/></g><defs><clipPath id="ca"><path fill="#fff" d="M0 0h23v23H0z"/></clipPath></defs></svg><svg width="22" height="24" fill="none" viewBox="0 0 22 24" id="icon-header-menu-shopify" x="26" xmlns="http://www.w3.org/2000/svg"><g clip-path="url(#da)"><path d="M18.56 4.64c0-.12-.12-.2-.2-.2-.08 0-1.8-.04-1.8-.04S15.12 3 15 2.88c-.16-.16-.4-.08-.52-.08 0 0-.28.08-.72.24-.08-.24-.2-.56-.36-.84-.52-.96-1.24-1.48-2.16-1.48h-.2C11 .68 11 .64 10.96.64c-.4-.4-.88-.64-1.48-.6C8.32.08 7.16.92 6.24 2.4c-.68 1.04-1.16 2.36-1.32 3.4-1.32.4-2.28.72-2.28.72-.68.2-.68.24-.8.88C1.76 7.8 0 21.44 0 21.44L14.76 24l6.4-1.6s-2.6-17.64-2.6-17.76ZM13 3.24c-.36.12-.72.24-1.16.36 0-.6-.08-1.4-.36-2.12.88.16 1.32 1.16 1.52 1.76Zm-1.92.6c-.76.24-1.6.52-2.48.76.24-.92.68-1.84 1.24-2.4.2-.24.48-.48.84-.6.32.64.4 1.6.4 2.24ZM9.48.76c.28 0 .52.04.68.2-.32.16-.6.4-.92.72-.72.8-1.32 2.04-1.52 3.2-.72.2-1.4.44-2.04.64.44-1.88 2-4.68 3.8-4.76Z" fill="#95BF47"/><path d="M18.36 4.44c-.08 0-1.8-.04-1.8-.04S15.12 3 15 2.88c-.08-.08-.16-.08-.24-.12V24l6.4-1.6s-2.6-17.68-2.64-17.8c0-.08-.08-.16-.16-.16Z" fill="#5E8E3E"/><path d="m11.24 7.72-.76 2.8s-.84-.36-1.8-.32c-1.44.08-1.44 1-1.44 1.24.08 1.24 3.36 1.52 3.52 4.44.16 2.28-1.2 3.88-3.16 4-2.36.16-3.64-1.24-3.64-1.24l.48-2.12s1.32 1 2.36.92c.68-.04.92-.6.92-1-.12-1.64-2.76-1.52-2.92-4.2C4.64 10 6.12 7.72 9.4 7.52c1.2-.12 1.84.2 1.84.2Z" fill="#fff"/></g><defs><clipPath id="da"><path fill="#fff" d="M0 0h21.2v24H0z"/></clipPath></defs></svg><svg width="24" height="24" fill="none" viewBox="0 0 24 24" id="icon-header-menu-wix" x="48" xmlns="http://www.w3.org/2000/svg"><path d="M13.769 8.152c-.397.198-.569.569-.569 1.574 0 0 .198-.199.516-.318.231-.086.397-.198.516-.284.343-.258.396-.569.396-1.11-.006 0-.549-.034-.86.138Z" fill="#FBBD71"/><path d="M11.342 8.384c-.344.284-.43.773-.43.773l-1.11 4.258-.913-3.484c-.086-.37-.258-.827-.515-1.144-.318-.403-.979-.43-1.058-.43-.06 0-.714.027-1.058.43-.258.317-.43.773-.516 1.144l-.86 3.484-1.11-4.258s-.086-.456-.43-.773C2.8 7.894 2 8.014 2 8.014l2.116 7.966s.687.06 1.031-.112c.456-.232.688-.397.946-1.488.257-.972.945-3.801.998-4 .026-.086.086-.344.258-.344.172 0 .231.232.258.344.06.199.74 3.028.998 4 .284 1.084.483 1.256.945 1.488.344.172 1.032.112 1.032.112l2.102-7.967s-.8-.112-1.342.37ZM14.622 9.296s-.146.198-.43.37c-.199.113-.37.172-.569.284-.344.172-.43.344-.43.602v5.402s.543.06.886-.113c.457-.231.543-.456.543-1.428V9.296ZM19.878 12.014l2.684-3.974s-1.11-.198-1.686.317c-.37.318-.74.913-.74.913l-.972 1.428c-.06.086-.113.145-.199.145-.085 0-.171-.086-.198-.145l-.972-1.428s-.397-.569-.74-.913c-.569-.515-1.686-.317-1.686-.317l2.598 3.967-2.658 3.967s1.17.145 1.746-.37c.37-.318.714-.86.714-.86l.972-1.428c.06-.086.112-.146.198-.146.086 0 .172.087.198.146l.972 1.428s.37.542.714.86c.569.515 1.713.37 1.713.37l-2.658-3.96Z" fill="#000"/></svg><svg width="26" height="16" fill="none" viewBox="0 0 26 16" id="icon-header-menu-woocommerce" xmlns="http://www.w3.org/2000/svg"><path d="M2.413 0h21.163A2.422 2.422 0 0 1 26 2.424v8.078a2.423 2.423 0 0 1-2.424 2.424h-7.59l1.043 2.55-4.582-2.55H2.424A2.423 2.423 0 0 1 0 10.502V2.424A2.413 2.413 0 0 1 2.413 0Z" fill="#9B5C8F"/><path d="M1.296 2.2c.149-.202.372-.308.67-.33.542-.042.85.213.925.766.33 2.222.69 4.103 1.073 5.644l2.328-4.432c.213-.404.478-.617.797-.638.468-.032.755.266.872.893.266 1.414.606 2.615 1.01 3.635.276-2.7.744-4.645 1.403-5.846.16-.298.393-.446.701-.468a.923.923 0 0 1 .67.213c.202.16.308.361.33.606a.921.921 0 0 1-.107.51c-.414.765-.755 2.052-1.03 3.837-.267 1.733-.362 3.083-.298 4.05.02.266-.022.5-.128.702a.685.685 0 0 1-.563.382c-.277.022-.564-.106-.84-.393-.989-1.01-1.775-2.52-2.35-4.528-.69 1.36-1.2 2.381-1.53 3.061-.627 1.201-1.159 1.818-1.605 1.85-.287.021-.531-.223-.744-.734C2.338 9.588 1.753 6.9 1.126 2.913c-.032-.277.021-.521.17-.713ZM24.15 3.87c-.383-.67-.946-1.074-1.701-1.234a2.79 2.79 0 0 0-.574-.064c-1.02 0-1.85.532-2.498 1.595a5.632 5.632 0 0 0-.83 2.997c0 .819.171 1.52.511 2.105.383.67.946 1.074 1.7 1.233.203.042.394.064.575.064 1.031 0 1.86-.532 2.498-1.595.553-.914.829-1.913.829-3.008 0-.829-.17-1.52-.51-2.094Zm-1.34 2.944c-.148.701-.414 1.222-.807 1.573-.309.276-.596.393-.861.34-.255-.053-.468-.276-.628-.691a2.699 2.699 0 0 1-.19-.967c0-.266.02-.532.073-.776.096-.436.277-.861.564-1.265.35-.521.723-.734 1.105-.66.255.054.468.277.628.692.127.33.19.659.19.967 0 .276-.031.542-.074.787Zm-5.325-2.945c-.383-.67-.957-1.073-1.7-1.233a2.79 2.79 0 0 0-.575-.064c-1.02 0-1.85.532-2.498 1.595a5.633 5.633 0 0 0-.829 2.997c0 .819.17 1.52.51 2.105.383.67.946 1.074 1.701 1.233.202.042.394.064.574.064 1.031 0 1.86-.532 2.498-1.595.553-.914.83-1.913.83-3.008 0-.829-.17-1.52-.511-2.094Zm-1.34 2.945c-.148.701-.414 1.222-.807 1.573-.308.276-.595.393-.861.34-.255-.053-.468-.276-.627-.691a2.697 2.697 0 0 1-.192-.967c0-.266.022-.532.075-.776.095-.436.276-.861.563-1.265.35-.521.723-.734 1.106-.66.255.054.467.277.627.692.127.33.191.659.191.967 0 .276-.021.542-.074.787Z" fill="#fff"/></svg></svg>