<svg id="Layer_1" data-name="Layer 1" xmlns="http://www.w3.org/2000/svg" viewBox="0 0 2400 800"><defs><style>.cls-1,.cls-7{fill:none}.cls-1{stroke:#fcc434;stroke-width:5px}.cls-1,.cls-6,.cls-7{stroke-miterlimit:10}.cls-2{fill:#ffcb31}.cls-3{fill:#7eaecd}.cls-4{fill:#fff}.cls-5,.cls-6{fill:#58585a}.cls-6{stroke:#fff;stroke-width:6px}.cls-7{stroke:#57636d;stroke-width:3px}.cls-8{fill:#fdb835}.cls-9{fill:#fcefe4}.cls-10{fill:#fdd09e}.cls-11{fill:#ffcd50}.cls-12{fill:#fffefc}</style></defs><rect class="cls-1" x="434.68" y="120.76" width="242.26" height="211.55" rx="13.37"/><path class="cls-2" d="M1462.38 709.59l-2.9 58.93-14 1-.48-14-59-.48-1.94-48.81z"/><path class="cls-3" d="M586 418.38q-.36 52.29-.74 104.57l164.45-.24q-.73-51.87-1.48-103.75l-69.21.58.75 39.19-29.77 1.15-.74-40.92z"/><path class="cls-4" d="M748.2 419l51.34.58v103.1l-49.87.07q-.72-51.91-1.47-103.75z"/><rect class="cls-2" x="1147.99" y="92.22" width="312.6" height="656.14" rx="34.73"/><path class="cls-5" d="M1384.09 474.76c17.47-1.2 34.94-.1 52.41-1.3q-25.17 139.85-50.32 279.7c-.7-92.04-1.39-186.37-2.09-278.4z"/><path class="cls-2" d="M2258.15 519.51c17 .79 30.84 10.09 33.69 21.75 3.41 13.93-9.49 28.88-30 31.89L272.18 574.6c-44.47 0-37.43-30.45-37.43-30.45 1.12-10.12 18-17.35 31.82-21.74z"/><path class="cls-6" d="M2149.34 521c17 .79 30.85 10.09 33.7 21.75 3.4 13.93-9.5 28.88-29.95 31.89l-1989.71 1.41c-44.48 0-37.44-30.45-37.44-30.45 1.12-10.12 18-17.35 31.82-21.74z"/><path class="cls-4" d="M1430.58 390.49l-.93 131.51 206.82-.3q-.93-65.25-1.87-130.49l-87 .72q.48 24.65.94 49.29l-37.44 1.45-.93-51.46z"/><path class="cls-2" d="M1634.6 391.22l64.58.72v129.68l-62.72.09q-.92-65.25-1.86-130.49z"/><path class="cls-4" d="M1699.64 455.2l-.45 64.84 102-.15-.92-64.34-42.91.36.46 24.3-18.46.72q-.22-12.69-.46-25.38z"/><path class="cls-2" d="M1800.24 455.55l31.84.36v63.94h-30.92z"/><path class="cls-4" d="M1832.82 414.21q-.36 52.29-.74 104.58l164.45-.24q-.73-51.88-1.49-103.76l-69.2.58q.38 19.59.74 39.19l-29.76 1.15-.75-40.92z"/><path class="cls-2" d="M1995 414.79l51.35.58v103.1l-49.87.08q-.68-51.88-1.48-103.76zm-1743.37 3.59l-.74 104.57 164.44-.24-1.48-103.75-69.21.58.75 39.19-29.77 1.15-.74-40.92z"/><path class="cls-4" d="M413.85 419l51.34.58v103.1l-49.87.07q-.72-51.91-1.47-103.75z"/><path class="cls-5" d="M175.86 766.07l.15 10.76 8.58.12-.16 6.76h-23.86c-.21-2.17-.42-4.35-.62-6.52l10.29-.24.62-11.48z"/><path class="cls-4" d="M165.87 587.64l12.48-1L179 761.6c6.25 1.73 10.53 3.36 10.29 4.59-.64 3.31-33.88 3.59-34.63.25-.25-1.15 3.28-2.87 11.86-5.32z"/><path class="cls-5" d="M278.8 766.07l.16 10.76 8.58.12-.16 6.76h-23.86l-.63-6.52 10.3-.24.62-11.48z"/><path class="cls-5" d="M268.82 587.64l12.48-1 .62 174.92c6.26 1.73 10.54 3.36 10.3 4.59-.64 3.31-33.88 3.59-34.63.25-.26-1.15 3.28-2.87 11.85-5.32q-.3-86.69-.62-173.44zm1868.67 181.12l.16 10.76 8.57.12-.15 6.76h-23.87c-.2-2.17-.41-4.35-.62-6.52l10.29-.24.63-11.48z"/><path class="cls-4" d="M2127.51 590.34l12.48-1 .62 174.93c6.25 1.72 10.53 3.36 10.29 4.59-.63 3.3-33.88 3.58-34.62.24-.26-1.15 3.27-2.87 11.85-5.32l-.62-173.44z"/><path class="cls-5" d="M2240.44 765.71l.15 10.75 8.58.12-.15 6.77h-23.87c-.21-2.18-.41-4.35-.62-6.52l10.29-.25.63-11.47z"/><path class="cls-5" d="M2230.45 587.28l12.48-1 .63 174.92c6.25 1.73 10.53 3.36 10.29 4.59-.64 3.31-33.88 3.59-34.63.24-.25-1.14 3.28-2.86 11.86-5.31z"/><path class="cls-4" d="M2115.65 556.05c4.71 0 9.22-4.14 9-9a9.16 9.16 0 0 0-9-9c-4.71 0-9.22 4.14-9 9a9.16 9.16 0 0 0 9 9zm-179.65 0c4.71 0 9.22-4.14 9-9a9.16 9.16 0 0 0-9-9c-4.71 0-9.22 4.14-9 9a9.15 9.15 0 0 0 9 9zm-41.22 0c4.71 0 9.22-4.14 9-9a9.16 9.16 0 0 0-9-9c-4.71 0-9.22 4.14-9 9a9.16 9.16 0 0 0 9 9zM1610.27 559c4.71 0 9.22-4.14 9-9a9.17 9.17 0 0 0-9-9c-4.71 0-9.22 4.14-9 9a9.15 9.15 0 0 0 9 9zm-82.36 0c4.71 0 9.22-4.14 9-9a9.16 9.16 0 0 0-9-9c-4.71 0-9.22 4.14-9 9a9.15 9.15 0 0 0 9 9zm-33.69-2.95c4.71 0 9.22-4.14 9-9a9.17 9.17 0 0 0-9-9c-4.71 0-9.22 4.14-9 9a9.15 9.15 0 0 0 9 9zM786.68 559c4.71 0 9.22-4.14 9-9a9.16 9.16 0 0 0-9-9c-4.71 0-9.22 4.14-9 9a9.16 9.16 0 0 0 9 9zm-44.92 0c4.71 0 9.22-4.14 9-9a9.17 9.17 0 0 0-9-9c-4.71 0-9.22 4.14-9 9a9.15 9.15 0 0 0 9 9zm-269.54-2.95c4.71 0 9.22-4.14 9-9a9.16 9.16 0 0 0-9-9c-4.71 0-9.22 4.14-9 9a9.16 9.16 0 0 0 9 9zM202.68 559c4.71 0 9.22-4.14 9-9a9.15 9.15 0 0 0-9-9c-4.7 0-9.21 4.14-9 9a9.16 9.16 0 0 0 9 9zM1386.3 776c-1.54-206.53-3.09-409.4-4.64-615.94.44-3.42 3.18-27.76-12.38-47.79A50 50 0 0 0 1326 92.76l-312.6-3.54a48.34 48.34 0 0 0-35.59 17.71c-12.5 14.87-13.61 35.29-13.93 44.25-1.5 41-2 287-.26 624.33h20.58q-.11-15.79-.23-31.58l383.76.3v31.87q4.74-.06 9.49-.09z"/><path class="cls-2" d="M1226.74 125.3c-8.53.38-17.1 7.94-17.89 18.1-.92 11.88 9.19 22.33 19.61 22 8.87-.26 17.72-8.31 18.22-18.89.57-11.91-9.77-21.66-19.94-21.21z"/><path class="cls-3" d="M1294.48 117.43c-11.25.19-23.45 9.32-25.1 23.21-1.84 15.47 10.24 29.74 23.73 31.08 13.76 1.37 28-10.79 28.2-26.75s-13.69-27.76-26.83-27.54z"/><path class="cls-5" d="M1305.42 201.84a18 18 0 0 1 14.51 7.25c6.15 8.09 4.18 18.07 4 19q-.23 89.75-.47 179.5c.09.51 1.9 11.73-5.57 19.42a17.12 17.12 0 0 1-16.87 4.48l-255.34.88a27 27 0 0 1-13.15-9.73c-8.55-11.7-5.8-26.43-5.42-28.33q-.39-81-.77-162c-.15-.89-1.88-12.22 5.41-20.36 5-5.53 11.86-6.05 14.7-6.19 15.26-.7 117.99-2.41 258.97-3.92z"/><rect class="cls-4" x="1048.43" y="232.7" width="173.32" height="175.26" rx="13.1"/><rect class="cls-4" x="1234.13" y="232.7" width="77.38" height="175.26" rx="10.9"/><path class="cls-3" d="M1204.73 290.13q.16 12.4.34 24.79l-143.4.39q-.18-12.19-.35-24.39z"/><path class="cls-2" d="M1119.44 251.58l-.34 23.6-57.43 1.58-.69-25.57z"/><path class="cls-5" d="M1119.44 328.69l.69 25.57-58.46-.4q-.18-12.39-.35-24.78zM1062 367.24l-.69 26.75h94.92v-27.14z"/><path class="cls-2" d="M1245.31 275.58L1267 250l10 9.44 21.27-18.44-20.64 32.65-11-11.41zm53.11 14.75l-.34 23.6-57.43 1.58-.69-25.57zm2.58 30.39q-.18 11.8-.35 23.6l-57.43 1.58q-.35-12.79-.68-25.57zm0 29.01q-.18 11.81-.35 23.61l-57.43 1.57q-.35-12.78-.68-25.57zm0 29.02q-.18 11.79-.35 23.6l-57.43 1.57q-.35-12.78-.68-25.57z"/><rect class="cls-3" x="1004.92" y="468.81" width="334.96" height="100.24" rx="10.32"/><path class="cls-4" d="M989.94 545c10.7 3.93 21.72 1.37 31.68-3.41 10.94-5.24 20.71-12.56 31.27-18.48 10.37-5.81 21.92-10.43 34-8.22 13.73 2.51 25.37 11.12 37.66 17.18 6 3 12.36 5.51 19 6.46a43.87 43.87 0 0 0 18.6-1.58c12.72-3.78 23.77-11.58 35.25-18 11.86-6.6 24.57-11.67 38.35-9 14.47 2.77 27.06 11.16 40.27 17.19 6.43 2.94 13.13 5.5 20.14 6.57a54.23 54.23 0 0 0 19.55-.6 62.7 62.7 0 0 0 34.3-20.89 68.13 68.13 0 0 0 6-8.39c1-1.65-1.57-3.16-2.59-1.51a61.48 61.48 0 0 1-31.64 25.95 53 53 0 0 1-19.18 3.05 59.91 59.91 0 0 1-20.52-4.78c-13.34-5.38-25.44-13.61-39.23-17.88a49 49 0 0 0-20.5-2.17 61 61 0 0 0-17.82 5.44c-12.08 5.55-22.86 13.55-35 19a51.86 51.86 0 0 1-18.12 4.92 44.69 44.69 0 0 1-19-3.52c-12.77-5.06-23.89-13.56-36.86-18.19a43.83 43.83 0 0 0-18.66-2.72 53.31 53.31 0 0 0-16.28 4.41c-11 4.76-20.85 11.91-31.15 18-9.3 5.53-19.77 11-30.92 10a29.93 29.93 0 0 1-7.87-1.82c-1.82-.66-2.6 2.24-.8 2.9z"/><path class="cls-7" d="M26.74 786.4L2372.71 783.35"/><circle class="cls-8" cx="2148.44" cy="256.4" r="136.84"/><circle class="cls-2" cx="2134.24" cy="236.36" r="116.8"/><path class="cls-2" d="M2230.94 339a117.58 117.58 0 0 1 12.44 4.11l1.33.54.76.31c.76.31-1-.46-.3-.13 1.06.47 2.12.93 3.18 1.42q2.88 1.33 5.68 2.83a119 119 0 0 1 11.06 6.64c1.81 1.23 3.57 2.52 5.32 3.83.84.63-.12-.11-.24-.19.22.15.44.34.64.5.43.34.86.68 1.28 1q1.27 1 2.52 2.1a119 119 0 0 1 10.56 10.27 6 6 0 0 0 8.48 0 6.12 6.12 0 0 0 0-8.48 125.93 125.93 0 0 0-45.18-31.47 118.68 118.68 0 0 0-14.34-4.88 6 6 0 0 0-3.19 11.57zM2016 104.51a111.54 111.54 0 0 1-28.27-33.85 108.46 108.46 0 0 1-5.44-11.61c-.53-1.33-2.71-.75-2.17.6a113.72 113.72 0 0 0 24.7 37.82 110.51 110.51 0 0 0 9.59 8.63c1.12.9 2.72-.68 1.59-1.59zm143-22.29l3-48.55c.09-1.44-2.16-1.44-2.25 0l-3 48.55c-.09 1.45 2.16 1.44 2.25 0zm133.11 53.86l40.41-25c1.22-.76.1-2.71-1.14-2l-40.4 25c-1.23.76-.1 2.71 1.13 1.94zm20.33 146.76l54.27 2.81c1.45.08 1.45-2.17 0-2.25l-54.27-2.81c-1.45-.07-1.45 2.18 0 2.25zM2249 416.75l28.82 46.72 8.22 13.32c.76 1.23 2.71.1 1.94-1.14l-28.82-46.72-8.16-13.32c-.75-1.23-2.7-.1-1.94 1.14zm-106.19 11.13l-5.71 60c-.13 1.44 2.12 1.43 2.25 0l5.71-60c.14-1.44-2.11-1.43-2.25 0zm-147.76-72.5a153.3 153.3 0 0 0-41 16.24c-3.65 2.09-7.2 4.34-10.65 6.72-1.19.82-.06 2.77 1.13 1.94a152 152 0 0 1 51.15-22.73c1.41-.34.81-2.51-.6-2.17zm-27.97-114.26a182 182 0 0 0-51.34-6.59q-7.34.12-14.65.84c-1.43.13-1.45 2.39 0 2.25a179.83 179.83 0 0 1 51.1 2.32q7.21 1.38 14.3 3.35a1.13 1.13 0 0 0 .59-2.17z"/><path class="cls-9" d="M827.51 740c12.69 10.38 23.94 14.46 32.07 16.24 14.66 3.19 24.8.1 35 8.38 6.38 5.17 9.75 12.33 11.62 17.59l-114.43.5a82.11 82.11 0 0 1-5.48-25.12 85.38 85.38 0 0 1 5.36-35zm-215.66 1.63c-13.29 10.59-25.13 14.86-33.7 16.76-15.45 3.43-26.19.51-36.88 9-6.67 5.27-10.16 12.49-12.07 17.79l120.86-1.36a78.53 78.53 0 0 0 5.51-25.21 81 81 0 0 0-6.05-34.91z"/><ellipse class="cls-9" cx="810.32" cy="206.59" rx="28.63" ry="20.84"/><path class="cls-5" d="M865.4 354.26q-6.63 196-13.27 392.08h-71.89q9.95-191.34 19.91-382.67L660.78 746.34l-71.89-2.57q69.69-194.32 139.36-388.66z"/><path class="cls-3" d="M921.05 273.94l-61.93-71.07a39 39 0 0 0-12.54-5.17 41.14 41.14 0 0 0-9.22-1l-17.36 22-9.18-9.7-9.59 8.07-18.7-24a45.82 45.82 0 0 0-13.37.73 43.38 43.38 0 0 0-17 7.43l-91.8 67.83c-2.06.91-14.89 6.81-18.8 20-3.26 11 .89 22.89 10.69 31l49 60.09 165.54 2.26 57.51-56.21c1.72-1.29 13.35-10.35 13.27-25.2-.01-16.79-15.13-26.23-16.52-27.06zm-207.59 55.33q-12.53-15.72-25-31.43l47.23-33.29q-11.14 32.35-22.23 64.72zM872 323l-7.83-47.14 27 27.11z"/><path class="cls-10" d="M848.3 116.34a110.75 110.75 0 0 1 6.39 14.43c1.08 3 2 5.87 2.71 8.61 3.23.13 5.52 2.35 5.4 4.52a4.54 4.54 0 0 1-3.19 3.66 27.5 27.5 0 0 1 .73 13.79 23.2 23.2 0 0 1-2.7 7.32c-5.88 9.42-22.26 10.25-24.33 10.34q-.49 6.88-1 13.78l-21.39 15.07L789.31 193v-15.07a38.08 38.08 0 0 0 12.78-11.2c9.69-13.74 4.66-28.74 3.69-31.44z"/><path class="cls-5" d="M803.57 123c7.29 1.58 10.56 15.48 9.09 25.63-2.57 17.83-20.2 27.61-23.35 29.29q-6.75-13.58-13.52-27.14c9.05-17.93 20.3-29.38 27.78-27.78z"/><path class="cls-11" d="M772.35 143a13.86 13.86 0 0 0-.73 8.4c.46 1.94 1.25 5.27 3.93 6.25 3.2 1.16 8.36-1.3 8.36-1.3l80.86-45.22-17.7.21a34.64 34.64 0 0 0-27-25.62c-17.83-3.28-31.49 9.29-36.13 13.56a42.51 42.51 0 0 0-13.52 25 39.27 39.27 0 0 0 1.93 18.72z"/><path class="cls-12" d="M837.49 153.16c.56-.53 1.91.07 4.65.83a63.5 63.5 0 0 0 14 2.19 10.05 10.05 0 0 1-10.33 6.67c-6.7-.62-9.67-8.42-8.32-9.69z"/><path class="cls-11" d="M852.48 194.47l-19.91-1Q821 298.65 809.34 403.8h71.9l-28.76-209.33zm-64.15-.97l-27.65-1.94L689.89 398l67.47 2.9z"/><path class="cls-5" d="M839 136.73a6.69 6.69 0 0 1 2.84-5.09 2.27 2.27 0 0 1 2.43.1 4.55 4.55 0 0 1 1.64 2.21 1.17 1.17 0 0 0 1.39.79 1.13 1.13 0 0 0 .78-1.38 7.07 7.07 0 0 0-2.62-3.53 4.59 4.59 0 0 0-4.37-.33 7.42 7.42 0 0 0-3.05 3 9.17 9.17 0 0 0-1.29 4.2 1.13 1.13 0 0 0 1.12 1.13 1.16 1.16 0 0 0 1.13-1.13z"/><path class="cls-1" d="M1501.49 53.93H1799.8899999999999V268.65H1501.49z"/><rect class="cls-1" x="1834.03" y="53.93" width="12.11" height="214.72" rx="5.32"/><rect class="cls-1" x="31.56" y="23.91" width="317.41" height="277.18" rx="26.39"/><rect class="cls-1" x="264" y="43.22" width="24.08" height="238.56" rx="5.32"/><rect class="cls-1" x="106.47" y="42.73" width="24.08" height="238.56" rx="5.32"/><path class="cls-4" d="M86.11 141.08L123.2 177l36.92 35.78 21 20.32c1.39 1.34 3.51-.78 2.12-2.12l-37.1-35.95-36.94-35.75L88.23 139c-1.39-1.34-3.51.77-2.12 2.12z"/><path class="cls-4" d="M185.14 234.77q29-21.65 56.52-45.07t53.62-48.61Q310 126.9 324.14 112.2c1.34-1.39-.78-3.52-2.12-2.12q-25 26-51.68 50.33t-54.57 46.84q-15.86 12.75-32.15 24.93c-1.53 1.14 0 3.75 1.52 2.59zM116 151.16c10.68-2.28 21.92 9.31 19.92 19.93-1.87 9.92-13.61 12.54-21.79 8.74-3.92-1.82-7.17-5.12-7.79-9.55s1.65-8.22 5-10.77a17.6 17.6 0 0 1 12.4-3.56 10.15 10.15 0 0 1 9 7.45c2 8.39-8.52 17.42-16.53 15.54a8.38 8.38 0 0 1-6.49-9c.46-4.08 3.39-7.82 6.71-10.06s7.51-3.36 10.93-1c4.4 3 5 9.55 2.83 14.08-2.52 5.31-8.29 7.3-13.76 5.52s-9.1-7-8-12.81 5.74-10.59 11.72-10.59 11.59 4.32 12.83 10.11-2.43 12.25-7.77 14.72c-5.67 2.64-13.73.26-15.58-6.12a9 9 0 0 1 1.68-8.51c1.28-1.43-.83-3.56-2.12-2.12-5.37 6-3 15.6 4 19.14s15.12 1.13 19.69-5a15.48 15.48 0 0 0-.7-19.78c-4.76-5.21-12.95-7.21-19.19-3.48-5.87 3.5-9.22 11.18-7.19 17.81s9 10.8 15.78 10.27c7.08-.56 12-6.25 12.74-13.13.61-5.91-2.57-12.74-8.78-14.13-9.76-2.19-21.32 9.35-18.45 19.15a11.76 11.76 0 0 0 12.53 8.1 19.5 19.5 0 0 0 13.74-8.62c3.15-4.68 3.62-10.74.1-15.36-3.35-4.41-8.94-5.81-14.23-5a20 20 0 0 0-13.48 8 13.74 13.74 0 0 0-.21 15.25c5.89 9.07 20.91 11 28.87 3.66 4.7-4.37 5.77-11.32 3.74-17.24a22.73 22.73 0 0 0-13.34-13.86 17.21 17.21 0 0 0-9.56-.66c-1.88.4-1.09 3.29.8 2.89z"/><path class="cls-4" d="M291.28 123.81c8.82-.76 17.07 7.36 16.83 16.15-.21 8.19-8.34 14-16.06 14a13.27 13.27 0 0 1-10.1-4.47 16.19 16.19 0 0 1-3.76-10.49 15.41 15.41 0 0 1 3.67-10.45 14.12 14.12 0 0 1 10.57-4.43 16 16 0 0 1 10.87 4.11 13 13 0 0 1 3.92 10.77c-.72 8.19-8.17 15.24-16.58 12.82-8.15-2.35-13.68-11.94-8.47-19.49 4.32-6.26 14.46-8.71 19.82-2.42 4.62 5.43 4 15.5-2.55 19.14-3.47 1.92-8.36 1.82-11.47-.78a7.44 7.44 0 0 1-1-10 5.68 5.68 0 0 1 4-2.51c1.91-.19 1.93-3.19 0-3-4.91.5-8.1 4.87-8.42 9.6-.34 5.07 3.27 9.2 8 10.5a13.75 13.75 0 0 0 13.58-3.73 16 16 0 0 0 3.74-12.5 15.45 15.45 0 0 0-6.61-11.33 15 15 0 0 0-13.66-.85 17.07 17.07 0 0 0-9.81 9.95c-1.75 5-.16 10.49 3.17 14.49a17.62 17.62 0 0 0 13.52 6.43 15.7 15.7 0 0 0 12.31-6.86 18.68 18.68 0 0 0 3.27-13.69 15.92 15.92 0 0 0-8.18-11.26c-8.62-4.74-20.55-2.32-24.87 7-3.91 8.44-1.33 20.17 7.35 24.59 8.5 4.32 19.92.52 24.64-7.64 5.48-9.46-.53-21.46-10.1-25.46a16.17 16.17 0 0 0-7.62-1.2c-1.91.16-1.92 3.16 0 3zM1848 150.19c12.27-1 24 3.66 33.61 11 10.38 7.91 18.07 18.52 24.19 29.93 12.75 23.74 19.93 50.91 39.4 70.49 9.5 9.55 21.49 16.7 35.09 18 1.92.18 1.91-2.82 0-3-25.46-2.44-42.58-25.4-53-46.57-12-24.23-20-51.74-41.68-69.52-10.53-8.66-23.69-14.52-37.56-13.35-1.91.16-1.92 3.16 0 3z"/><path class="cls-4" d="M1997.17 266.27a15.62 15.62 0 0 0-16.28 3.52 14.71 14.71 0 0 0-2.86 16.33 14.37 14.37 0 0 0 14 8.9 15.11 15.11 0 0 0 13.59-9.58 15.61 15.61 0 0 0-5.62-17.68c-1.58-1.12-3.08 1.48-1.51 2.59a12.55 12.55 0 0 1 4.72 12.6 11.76 11.76 0 0 1-9.81 8.93 11.36 11.36 0 0 1-11.9-5.54c-2.38-4.1-2.48-9.56.56-13.36a12.65 12.65 0 0 1 14.33-3.81c1.79.71 2.57-2.19.8-2.9z"/><path class="cls-4" d="M1992.7 276.21q.3.15.6.33l.24.16c.56.34-.48-.32-.45-.35s.43.4.49.46a1.9 1.9 0 0 0 .19.21c.5.51-.47-.74-.29-.38s.46.79.68 1.17-.3-.61-.27-.63.12.32.14.37q.12.38.21.75c0 .21.18 1.09 0 .18s0 0 0 .18v.99c0 .71.2-1 .08-.52a11.07 11.07 0 0 1-.31 1.23l-.13.36c-.05 0 .46-.94.25-.63s-.29.51-.43.75c-.34.6.71-.78.23-.29l-.48.5c-.65.67.76-.47.2-.12-.23.14-.45.29-.69.42a4 4 0 0 1-.36.18c-.07 0 1-.37.61-.26-.23.06-.45.15-.68.21s-.47.08-.69.16c-.39.13.71-.17.69-.09a3.49 3.49 0 0 1-.5 0h-.72c-.24 0-1.09-.11-.22 0s0 0-.21-.06-.54-.13-.8-.21-1-.4-.23-.06 0 0-.2-.13-.4-.25-.61-.38c-.76-.47.77.72.11.09-.17-.17-.35-.33-.51-.5s-.13-.16-.21-.23c-.38-.35.6.87.33.43-.12-.21-.27-.41-.39-.62l-.15-.28c-.22-.39-.06-.68.15.39 0-.25-.55-1.24-.38-1.44s.07 1.13.09.67v-.31a8.23 8.23 0 0 1 0-.86c0-.19.12-1.14 0-.25s0 0 .07-.25.12-.48.19-.72.45-1.17.12-.37 0-.07.15-.24.25-.44.38-.65l.19-.26c.38-.6-.32.42-.32.4 0-.2.43-.49.58-.64s.39-.32.56-.5c.32-.35-.53.48-.49.38s.28-.2.35-.24c.22-.14.44-.25.66-.37.81-.44-1 .27-.06 0 .25-.07.49-.16.75-.22s1.15-.19.26-.07.09 0 .28 0a8.62 8.62 0 0 1 .88 0h.33c.56 0-1.08-.2-.54-.07.26.06.51.09.76.16l.64.18.42.15c.7.24-.82-.41-.35-.15s.85.44 1.26.7a2.09 2.09 0 0 1 .37.26c0 .07-.82-.7-.47-.37s.45.38.66.59l.53.57c.46.5-.59-.9-.11-.12.14.22.28.44.41.67l.21.41c.28.56-.13-.39-.18-.45a4.16 4.16 0 0 1 .44 1.54 1.91 1.91 0 0 0 .08.44s-.11-1.07-.1-.63 0 .61 0 .92v.8a2.48 2.48 0 0 0 0 .45s.18-1.06.08-.62a16.31 16.31 0 0 1-.42 1.67l-.12.32c-.17.53.43-.93.19-.43-.11.24-.23.48-.35.72s-.27.46-.41.69l-.2.29c-.4.62.58-.68.22-.27a12.06 12.06 0 0 1-1.11 1.15c-.72.62.69-.44.11-.08-.25.16-.5.33-.76.47s-.39.2-.59.31c-.63.33 1-.39.15-.08a11.37 11.37 0 0 1-1.62.43c-.71.15 1.16-.11.2 0a6.79 6.79 0 0 1-.78 0h-1.22c-.52 0 1 .21.54.07s-1-.21-1.5-.37l-.31-.11c-.68-.23.49.2.47.2-.2 0-.59-.3-.78-.41s-.41-.3-.64-.42c-.42-.22.59.4.48.37s-.26-.22-.33-.29-.36-.36-.54-.55c-.63-.65.53.87.08.11-.12-.2-.25-.39-.36-.6s-.08-.18-.13-.27c-.27-.45.38 1 .21.53a10.28 10.28 0 0 1-.41-1.44 2.47 2.47 0 0 0-.06-.29c-.12-.53.1 1.13.09.6v-.71-.6-.4c0-.64-.05.6-.09.6s.3-1.23.34-1.36c0 0 .12-.38.13-.38s-.45 1-.26.62.22-.47.36-.7.24-.39.36-.58c.35-.55-.76.85-.15.22.15-.16.31-.33.48-.48a2.1 2.1 0 0 1 .29-.26s-1 .67-.44.35l.6-.35c.78-.48-.87.26-.23.09l.68-.19c.87-.24-1.09 0-.19 0h.7c.68 0-1.21-.27-.29 0 .23.06.46.1.69.17l.29.09c.78.23-.33-.21-.4-.19.27-.06 1 .54 1.26.69a2.27 2.27 0 0 0 .25.18c.44.27-.8-.69-.43-.32.19.19.4.36.59.56s.53.89-.12-.22c.1.17.23.33.33.5a4.9 4.9 0 0 1 .38.7c-.08.06-.33-1-.27-.62 0 .15.11.32.14.47s.07.39.12.58c-.34-1.31-.09-.79-.09-.3v.4c0 .38.07-.65.09-.66a7.23 7.23 0 0 0-.26.91c.28-1.15.23-.54 0-.13-.09.16-.42.6 0 0s.16-.19.06-.08-.4.38-.58.58.43-.4.45-.34a3 3 0 0 1-.49.31c-.86.5.81-.2.13 0-.22.06-1.12.24-.29.13s-.23.06-.32 0 1.07.25.64.09a3.17 3.17 0 0 1-.49-.13c0-.08 1.1.59.53.21l-.26-.14c-.09-.05-.16-.13-.25-.17 1 .49.7.6.45.32s-.71-.82-.18-.15 0-.16-.13-.31c-.25-.33.35.63.25.62a3.07 3.07 0 0 1-.13-.37c-.06-.21-.2-1.09-.07-.18.17 1.17 0-.2.06-.18s-.26 1-.09.73c0-.05.11-.48.13-.47s-.41 1-.25.63c.09-.18.39-.56-.09.05s-.24.3-.12.18c.29-.29.35-.07-.52.37a3.07 3.07 0 0 0 .43-.26c-1 .7-1 .36-.6.27a1.77 1.77 0 0 0 .33-.08c-1.08.4-1 .09-.42.09h.34c.35 0-.77-.11-.76-.11a2.54 2.54 0 0 0 .59.16c.81.22-1-.53-.29-.11s-.74-.69-.3-.26l.24.23c-.06.05-.57-.9-.46-.59a1.61 1.61 0 0 0 .17.28c.23.24-.31-.74-.29-.7a1.16 1.16 0 0 1 .08.32c0 .05-.13-1.34-.11-.68a4.5 4.5 0 1 0 9 0c-.11-4.39-3.83-7.39-8-7.55a7.77 7.77 0 0 0-8 7.88c.07 4 2.93 8 6.93 8.79a10 10 0 0 0 10.84-5.55 10.44 10.44 0 0 0-1.8-11.51 12.18 12.18 0 0 0-9.19-4.08 11.12 11.12 0 0 0-9.12 5.37 13.59 13.59 0 0 0-1.58 9.82 12.1 12.1 0 0 0 6.07 8.09 14.94 14.94 0 0 0 10.68 1.28 14.27 14.27 0 0 0 8.58-6.31 15.52 15.52 0 0 0 2-10.73 13.49 13.49 0 0 0-6-8.86 14.35 14.35 0 0 0-10.55-2c-7.2 1.3-11.64 9.54-9.7 16.38 2.1 7.41 10.8 10.66 17.55 7.51 6.29-2.94 8.08-11.8 4.13-17.32a11 11 0 0 0-4-3.58c-2.1-1.05-5-.64-6.16 1.61-1.07 2-.63 5 1.62 6.16z"/><path class="cls-2" d="M1555 203.29l78.42-80.9 36.09 29.87 77.18-58.5q-37.35 51.65-74.69 103.31L1632.12 161z"/><path class="cls-1" d="M612.08 135.5H630.46V317.58000000000004H612.08z"/><path class="cls-1" d="M491.85 135.13H510.23V317.21000000000004H491.85z"/><path class="cls-4" d="M476.06 210.44l56.52 54.78 16 15.48c1.39 1.34 3.51-.78 2.12-2.12l-56.55-54.78-16-15.48c-1.39-1.34-3.51.78-2.12 2.12z"/><path class="cls-4" d="M552.07 282q22.14-16.56 43.22-34.47t40.85-37q11.25-10.86 22.1-22.12c1.34-1.39-.78-3.52-2.12-2.12Q637.05 206 616.8 224.58t-41.65 35.76q-12.14 9.77-24.59 19.08c-1.53 1.14 0 3.75 1.51 2.59zm-52.85-63.77c7-1.51 14.13 5.08 14.84 11.86a10.06 10.06 0 0 1-4.38 9.4 21.66 21.66 0 0 1-7.68 3.24l-1.18.25-.7.13c0-.22.64.4.41 0s-1.23-.88-1.62-1.18a28.24 28.24 0 0 1-2.55-2.21 16.83 16.83 0 0 1-3.21-4.17 10.21 10.21 0 0 1-1.1-3.62 7.85 7.85 0 0 1 0-1 3.25 3.25 0 0 1 0-.44v-.22a9.32 9.32 0 0 1 .49-1.77c.09-.24-.09.17.06-.14.06-.13.12-.26.19-.39a8.68 8.68 0 0 1 .48-.84 6.27 6.27 0 0 1 1-1.26 12.69 12.69 0 0 1 6.09-3.59 10.82 10.82 0 0 1 6.75.13c.12 0 .42.16.14.05l.44.2a7.44 7.44 0 0 1 .78.44l.35.23.13.09a9.09 9.09 0 0 1 .72.66 8 8 0 0 1 1.79 3c1.17 3.5.58 7.52-.41 11.17-.36 1.36-.8 2.7-1.29 4l1.45-1.1c-4.65-.08-10.4-.45-14.17-3.4a6.54 6.54 0 0 1-2.19-2.94 6.27 6.27 0 0 1-.1-3.35 9.22 9.22 0 0 1 1.62-3.47 11 11 0 0 1 1.23-1.47c.24-.25.48-.48.73-.71l.7-.58a10.57 10.57 0 0 1 3.42-1.77 6.29 6.29 0 0 1 3.31-.17 5.25 5.25 0 0 1 2.93 1.87 7.56 7.56 0 0 1 1.94 4.76c-.33 4.41-2.8 8.73-7.63 9-3.71.18-7.73-1.92-9.06-5.52-2.27-6.15 3.44-13.26 9.94-12a10.14 10.14 0 0 1 7.25 5.66 9.49 9.49 0 0 1-1.35 9.26 9.38 9.38 0 0 1-8.63 3.92c-3.49-.41-6.63-2.93-6.92-6.58a6.36 6.36 0 0 1 1.47-4.74c1.27-1.44-.84-3.57-2.12-2.12a9.75 9.75 0 0 0-.74 11.74 11.58 11.58 0 0 0 11.42 4.59c8.11-1.32 13.19-11.25 9-18.45a13.2 13.2 0 0 0-9.6-6.33 11.32 11.32 0 0 0-10.36 4.31c-4.29 5.42-3.61 13.28 2.26 17.16 4.32 2.86 10.47 2.88 14.32-.8a13.53 13.53 0 0 0 3.68-8.46 10.12 10.12 0 0 0-2.56-7.28c-5.21-6.35-14.2-1.89-17.7 3.91-1.82 3-2.44 6.83-.66 10 2.46 4.42 8.11 5.91 12.75 6.53a49.18 49.18 0 0 0 5.81.41 1.55 1.55 0 0 0 1.45-1.1c2.52-6.93 4.91-18.08-2.93-22.68-5.24-3.06-12.33-1.3-16.68 2.53a11.61 11.61 0 0 0-4 7.74c-.31 3.65 1.53 7.08 3.84 9.77a30.24 30.24 0 0 0 5.78 5 2.54 2.54 0 0 0 2.23.56c.95-.17 1.9-.38 2.84-.63a28 28 0 0 0 4.69-1.71c4.5-2.13 8-6 8.6-11 1-8.6-6.82-17.35-15.41-17.62a13 13 0 0 0-3.22.32c-1.88.4-1.09 3.3.8 2.89z"/><path class="cls-4" d="M632.91 197.36c6.81-.56 13.29 6 12.43 12.89-.76 6.07-7.46 10-13.23 9.31-6.23-.78-9.6-7.18-8.71-13a10.44 10.44 0 0 1 4.5-7.32 11.49 11.49 0 0 1 8.84-1.27 10.66 10.66 0 0 1 7 5.18 10.27 10.27 0 0 1 .62 7.35c-1.37 5.09-6.09 9-11.5 7.68a10.79 10.79 0 0 1-7.64-6.83 8.19 8.19 0 0 1 1-7.55c2.77-4.1 9.17-6.26 13.39-3.06s4.68 11 .45 14.51a7.82 7.82 0 0 1-8.86.59 5.24 5.24 0 0 1-1.43-7.32 4 4 0 0 1 2.89-2c1.9-.2 1.92-3.2 0-3-4 .42-6.6 3.94-6.79 7.82a8.36 8.36 0 0 0 6.84 8.33 10.8 10.8 0 0 0 10.73-3.67 12.92 12.92 0 0 0 2.26-10.6 11.52 11.52 0 0 0-6.25-8.24 12.28 12.28 0 0 0-10.05.24 13.28 13.28 0 0 0-7 7.17 11.51 11.51 0 0 0 1.4 10.52 13.14 13.14 0 0 0 5.27 4.87 14.23 14.23 0 0 0 5.72 1.45 12 12 0 0 0 9.09-4c4.73-5.19 5.41-13.78.13-18.85-5.7-5.48-16-5.42-20.9 1-4.63 6.06-3.54 15.84 2.57 20.5 6.38 4.85 16 2.3 20.47-4 5.15-7.31.62-17.43-7.1-20.72a13 13 0 0 0-6.16-1c-1.91.16-1.93 3.16 0 3z"/></svg>