<?xml version="1.0" encoding="UTF-8" standalone="no"?>
<!DOCTYPE svg PUBLIC "-//W3C//DTD SVG 1.1//EN" "http://www.w3.org/Graphics/SVG/1.1/DTD/svg11.dtd">
<svg width="100%" height="100%" viewBox="0 0 1382 359" version="1.1" xmlns="http://www.w3.org/2000/svg" xmlns:xlink="http://www.w3.org/1999/xlink" xml:space="preserve" xmlns:serif="http://www.serif.com/" style="fill-rule: evenodd;
	clip-rule: evenodd;
	stroke-linecap: round;
	stroke-linejoin: round;
	stroke-miterlimit: 10;">
    <g id="Artboard1" transform="matrix(0.992582,0,0,0.970764,-57.9763,-23.9552)">
        <rect x="58.41" y="24.677" width="1391.51" height="369.013" style="fill: none;"/>
        <g transform="matrix(1.00747,0,0,1.03012,754.005,186.907)">
            <g transform="matrix(1,0,0,1,-690,-156.5)">
                <path d="M1380,16C1380,7.169 1372.83,0 1364,0L16,0C7.169,0 0,7.169 0,16L0,297C0,305.831 7.169,313 16,313L1364,313C1372.83,313 1380,305.831 1380,297L1380,16Z" style="fill: rgb(243, 230, 255);"/>
            </g>
        </g>
        <g transform="matrix(1.00747,0,0,1.03012,263.657,211.459)">
            <g transform="matrix(1,0,0,1,-139.5,-172)">
                <clipPath id="_clip1">
                    <rect x="0" y="0" width="279" height="344"/>
                </clipPath>
                <g clip-path="url(#_clip1)">
                    <path d="M157.928,157.135C216.579,68.129 221.097,38.123 211.71,28.692C201.269,18.208 169.816,29.218 152.84,47.336C128.318,73.436 127.923,120.682 157.928,157.135Z" style="fill: rgb(255, 135, 128);
	fill-rule: nonzero;"/>
                    <path d="M178.415,122.656L174.818,33.079M182.758,116.295L179.029,30.447M170.344,135.904L166.088,37.904M174.73,128.71L170.562,34.833" style="fill: none;
	fill-rule: nonzero;
	stroke: rgb(34, 72, 96);
	stroke-width: 2.77px;"/>
                    <path d="M216.36,184.026L262.245,262.11M217.326,193.589L263.211,271.629M225.396,183.719L271.282,261.803M226.361,193.282L272.247,271.322" style="fill: none;
	fill-rule: nonzero;
	stroke: rgb(182, 216, 226);
	stroke-width: 1.97px;
	stroke-linecap: butt;
	stroke-linejoin: miter;"/>
                    <path d="M10.14,257.767C11.011,257.767 11.719,257.06 11.719,256.188C11.719,255.315 11.012,254.608 10.139,254.608C9.267,254.608 8.56,255.315 8.56,256.188C8.56,257.06 9.267,257.767 10.14,257.767ZM18.913,257.811C19.785,257.811 20.493,257.104 20.493,256.232C20.493,255.359 19.785,254.652 18.913,254.652C18.041,254.652 17.334,255.359 17.334,256.232C17.334,257.104 18.041,257.811 18.914,257.811L18.913,257.811ZM10.183,268.953C11.055,268.953 11.762,268.246 11.762,267.374C11.762,266.501 11.055,265.794 10.182,265.794C9.311,265.794 8.604,266.501 8.604,267.374C8.604,268.246 9.311,268.953 10.183,268.953ZM19.001,268.997C19.873,268.997 20.581,268.29 20.581,267.418C20.581,266.545 19.873,265.838 19.001,265.838C18.129,265.838 17.421,266.545 17.421,267.418C17.421,268.29 18.129,268.997 19.001,268.997ZM10.183,280.095C11.055,280.095 11.762,279.388 11.762,278.516C11.762,277.644 11.055,276.937 10.182,276.937C9.311,276.937 8.604,277.644 8.604,278.516C8.604,279.388 9.311,280.095 10.183,280.095ZM19.001,280.139C19.873,280.139 20.581,279.432 20.581,278.56C20.581,277.688 19.873,276.981 19.001,276.981C18.129,276.981 17.421,277.688 17.421,278.56C17.421,279.432 18.129,280.139 19.001,280.139ZM10.183,291.238C11.055,291.238 11.762,290.53 11.762,289.658C11.762,288.786 11.055,288.079 10.182,288.079C9.311,288.079 8.604,288.786 8.604,289.658C8.604,290.53 9.311,291.238 10.183,291.238ZM18.957,291.281C19.829,291.281 20.536,290.574 20.536,289.702C20.536,288.83 19.829,288.123 18.956,288.123C18.084,288.123 17.377,288.83 17.377,289.702C17.377,290.574 18.084,291.281 18.957,291.281ZM10.227,302.424C11.099,302.424 11.807,301.717 11.807,300.845C11.807,299.973 11.099,299.266 10.227,299.266C9.355,299.266 8.647,299.973 8.647,300.845C8.647,301.717 9.355,302.424 10.227,302.424ZM19.001,302.468C19.873,302.468 20.581,301.76 20.581,300.888C20.581,300.016 19.873,299.309 19.001,299.309C18.129,299.309 17.421,300.016 17.421,300.888C17.421,301.76 18.129,302.468 19.001,302.468ZM10.227,313.61C11.099,313.61 11.807,312.903 11.807,312.031C11.807,311.159 11.099,310.452 10.227,310.452C9.355,310.452 8.647,311.159 8.647,312.031C8.647,312.903 9.355,313.61 10.227,313.61ZM19.001,313.654C19.873,313.654 20.581,312.947 20.581,312.075C20.581,311.203 19.873,310.496 19.001,310.496C18.129,310.496 17.421,311.203 17.421,312.075C17.421,312.947 18.129,313.654 19.001,313.654ZM28.125,257.548C28.997,257.548 29.704,256.841 29.704,255.968C29.704,255.096 28.997,254.389 28.124,254.389C27.253,254.389 26.545,255.096 26.545,255.968C26.545,256.841 27.252,257.548 28.125,257.548ZM36.898,257.592C37.77,257.592 38.478,256.884 38.478,256.012C38.478,255.14 37.77,254.433 36.898,254.433C36.026,254.433 35.318,255.14 35.318,256.012C35.318,256.884 36.026,257.592 36.898,257.592ZM28.169,268.734C29.041,268.734 29.748,268.027 29.748,267.154C29.748,266.282 29.041,265.575 28.168,265.575C27.296,265.575 26.589,266.282 26.589,267.154C26.589,268.027 27.296,268.734 28.169,268.734ZM36.943,268.778C37.815,268.778 38.522,268.071 38.522,267.198C38.522,266.326 37.815,265.619 36.942,265.619C36.07,265.619 35.363,266.326 35.363,267.198C35.363,268.071 36.07,268.778 36.943,268.778ZM28.169,279.92C29.041,279.92 29.748,279.213 29.748,278.341C29.748,277.469 29.041,276.762 28.168,276.762C27.296,276.762 26.589,277.469 26.589,278.341C26.589,279.213 27.296,279.92 28.169,279.92ZM36.943,279.964C37.815,279.964 38.522,279.257 38.522,278.384C38.522,277.512 37.815,276.805 36.942,276.805C36.07,276.805 35.363,277.512 35.363,278.384C35.363,279.257 36.07,279.964 36.943,279.964ZM28.125,291.062C28.997,291.062 29.704,290.355 29.704,289.483C29.704,288.611 28.997,287.904 28.124,287.904C27.253,287.904 26.545,288.611 26.545,289.483C26.545,290.355 27.252,291.062 28.125,291.062ZM36.943,291.106C37.815,291.106 38.522,290.399 38.522,289.527C38.522,288.655 37.815,287.948 36.942,287.948C36.07,287.948 35.363,288.655 35.363,289.527C35.363,290.399 36.07,291.106 36.943,291.106ZM28.212,302.248C29.084,302.248 29.792,301.541 29.792,300.669C29.792,299.797 29.084,299.09 28.212,299.09C27.34,299.09 26.632,299.797 26.632,300.669C26.632,301.541 27.34,302.248 28.212,302.248ZM36.986,302.292C37.858,302.292 38.566,301.585 38.566,300.713C38.566,299.841 37.858,299.134 36.986,299.134C36.114,299.134 35.406,299.841 35.406,300.713C35.406,301.585 36.114,302.292 36.986,302.292ZM28.212,313.435C29.084,313.435 29.792,312.728 29.792,311.856C29.792,310.983 29.084,310.276 28.212,310.276C27.34,310.276 26.632,310.983 26.632,311.856C26.632,312.728 27.34,313.435 28.212,313.435ZM36.986,313.478C37.858,313.478 38.566,312.771 38.566,311.899C38.566,311.027 37.858,310.32 36.986,310.32C36.114,310.32 35.406,311.027 35.406,311.899C35.406,312.771 36.114,313.478 36.986,313.478ZM108.579,3.378C109.451,3.378 110.158,2.671 110.158,1.798C110.158,0.926 109.451,0.219 108.579,0.219C107.707,0.219 107,0.926 107,1.8C107,2.672 107.707,3.379 108.579,3.379L108.579,3.378ZM117.397,3.422C118.269,3.422 118.976,2.715 118.976,1.842C118.976,0.97 118.269,0.263 117.397,0.263C116.524,0.263 115.817,0.97 115.817,1.843C115.817,2.715 116.524,3.422 117.397,3.422ZM108.667,14.564C109.539,14.564 110.246,13.857 110.246,12.984C110.246,12.112 109.539,11.405 108.667,11.405C107.795,11.405 107.088,12.112 107.088,12.985C107.088,13.857 107.795,14.564 108.667,14.564ZM117.441,14.608C118.313,14.608 119.02,13.901 119.02,13.028C119.02,12.156 118.313,11.449 117.441,11.449C116.569,11.449 115.862,12.156 115.862,13.029C115.862,13.901 116.569,14.608 117.441,14.608ZM108.667,25.706C109.539,25.706 110.246,24.999 110.246,24.127C110.246,23.255 109.539,22.547 108.667,22.547C107.795,22.547 107.088,23.255 107.088,24.127C107.088,24.999 107.795,25.707 108.667,25.707L108.667,25.706ZM117.441,25.75C118.313,25.75 119.02,25.043 119.02,24.171C119.02,23.299 118.313,22.591 117.441,22.591C116.569,22.591 115.862,23.299 115.862,24.171C115.862,25.043 116.569,25.751 117.441,25.751L117.441,25.75ZM108.623,36.892C109.495,36.892 110.202,36.185 110.202,35.313C110.202,34.441 109.495,33.733 108.623,33.733C107.751,33.733 107.043,34.441 107.043,35.313C107.043,36.185 107.751,36.893 108.623,36.893L108.623,36.892ZM117.397,36.936C118.269,36.936 118.976,36.229 118.976,35.357C118.976,34.485 118.269,33.777 117.397,33.777C116.524,33.777 115.817,34.485 115.817,35.357C115.817,36.229 116.524,36.937 117.397,36.937L117.397,36.936ZM108.667,48.035C109.539,48.035 110.246,47.328 110.246,46.455C110.246,45.584 109.539,44.877 108.667,44.877C107.795,44.877 107.088,45.583 107.088,46.456C107.088,47.328 107.795,48.035 108.667,48.035ZM117.484,48.078C118.357,48.078 119.064,47.371 119.064,46.499C119.064,45.627 118.357,44.919 117.484,44.919C116.612,44.919 115.905,45.627 115.905,46.499C115.905,47.371 116.612,48.079 117.484,48.079L117.484,48.078ZM108.667,59.22C109.539,59.22 110.246,58.514 110.246,57.642C110.246,56.769 109.539,56.062 108.667,56.062C107.795,56.062 107.088,56.77 107.088,57.642C107.088,58.514 107.795,59.221 108.667,59.221L108.667,59.22ZM117.484,59.265C118.357,59.265 119.064,58.558 119.064,57.685C119.064,56.813 118.357,56.106 117.484,56.106C116.612,56.106 115.905,56.813 115.905,57.686C115.905,58.558 116.612,59.265 117.484,59.265ZM126.565,3.158C127.437,3.158 128.144,2.451 128.144,1.579C128.144,0.707 127.437,0 126.565,0C125.692,0 124.985,0.707 124.985,1.58C124.985,2.451 125.692,3.158 126.565,3.158ZM135.382,3.202C136.255,3.202 136.962,2.495 136.962,1.623C136.962,0.751 136.255,0.043 135.382,0.043C134.51,0.043 133.803,0.751 133.803,1.623C133.803,2.495 134.51,3.203 135.382,3.203L135.382,3.202ZM126.609,14.345C127.481,14.345 128.188,13.637 128.188,12.765C128.188,11.893 127.481,11.186 126.609,11.186C125.736,11.186 125.029,11.893 125.029,12.766C125.029,13.637 125.736,14.345 126.609,14.345ZM135.426,14.388C136.298,14.388 137.005,13.681 137.005,12.809C137.005,11.937 136.298,11.23 135.426,11.23C134.554,11.23 133.847,11.937 133.847,12.81C133.847,13.681 134.554,14.388 135.426,14.388ZM126.609,25.531C127.481,25.531 128.188,24.824 128.188,23.951C128.188,23.08 127.481,22.373 126.609,22.373C125.736,22.373 125.029,23.08 125.029,23.952C125.029,24.824 125.736,25.531 126.609,25.531ZM135.426,25.575C136.298,25.575 137.005,24.867 137.005,23.995C137.005,23.123 136.298,22.416 135.426,22.416C134.554,22.416 133.847,23.123 133.847,23.996C133.847,24.867 134.554,25.575 135.426,25.575ZM126.609,36.673C127.481,36.673 128.188,35.966 128.188,35.093C128.188,34.222 127.481,33.515 126.609,33.515C125.736,33.515 125.029,34.222 125.029,35.094C125.029,35.966 125.736,36.674 126.609,36.674L126.609,36.673ZM135.382,36.717C136.255,36.717 136.962,36.01 136.962,35.137C136.962,34.266 136.255,33.559 135.382,33.559C134.51,33.559 133.803,34.266 133.803,35.138C133.803,36.01 134.51,36.717 135.382,36.717ZM126.652,47.86C127.525,47.86 128.232,47.152 128.232,46.28C128.232,45.408 127.525,44.7 126.652,44.7C125.78,44.7 125.073,45.408 125.073,46.28C125.073,47.152 125.78,47.86 126.652,47.86ZM135.426,47.903C136.298,47.903 137.005,47.196 137.005,46.323C137.005,45.452 136.298,44.745 135.426,44.745C134.554,44.745 133.847,45.452 133.847,46.324C133.847,47.196 134.554,47.904 135.426,47.904L135.426,47.903ZM126.652,59.045C127.525,59.045 128.232,58.338 128.232,57.465C128.232,56.594 127.525,55.887 126.652,55.887C125.78,55.887 125.073,56.594 125.073,57.466C125.073,58.338 125.78,59.046 126.652,59.046L126.652,59.045ZM135.426,59.09C136.298,59.09 137.005,58.382 137.005,57.51C137.005,56.638 136.298,55.93 135.426,55.93C134.554,55.93 133.847,56.638 133.847,57.51C133.847,58.382 134.554,59.09 135.426,59.09Z" style="fill: rgb(34, 72, 96);
	fill-rule: nonzero;"/>
                    <path d="M59.183,224.735C64.579,239.518 69.931,254.345 75.326,269.129C76.379,271.541 78.616,275.84 83.179,279.481C90.636,285.447 99.015,285.36 101.383,285.228C115.772,286.062 137.267,285.667 162.096,278.78C189.469,271.147 209.516,258.776 221.712,249.915C227.151,245.66 231.187,241.448 233.994,238.158C239.39,231.841 242.285,228.376 243.031,223.156C243.908,216.839 241.145,211.399 239.039,208.241C234.652,195.256 230.266,182.315 225.879,169.331C170.255,187.843 114.719,206.267 59.183,224.735Z" style="fill: rgb(0, 139, 134);
	fill-rule: nonzero;
	stroke: rgb(34, 72, 96);
	stroke-width: 3.3px;"/>
                    <path d="M59.402,225.744C62.736,234.474 66.026,243.203 69.36,251.933C70.062,253.337 73.615,258.25 77.52,260.004C83.924,262.856 81.116,261.935 91.118,264.172C127.659,264.128 139.504,263.558 164.113,256.1C191.267,247.897 198.505,240.089 214.911,227.104C221.185,221.708 221.185,221.708 227.107,215.128C232.195,209.513 236.275,207.89 237.591,204.512C237.591,204.512 237.108,199.862 235.617,195.52C233.029,187.843 230.397,180.166 227.809,172.445C172.316,191.045 114.894,207.144 59.402,225.744Z" style="fill: rgb(9, 102, 95);
	fill-rule: nonzero;
	stroke: rgb(34, 72, 96);
	stroke-width: 3.3px;"/>
                    <path d="M155.472,227.455L3.472,230.876C2.068,230.92 1.454,229.122 2.595,228.288L123.756,139.238C123.975,139.062 124.283,138.974 124.59,138.974L275.449,135.904C276.853,135.86 277.467,137.658 276.327,138.492L156.306,227.148C156.042,227.323 155.779,227.455 155.472,227.455Z" style="fill: rgb(0, 139, 134);
	fill-rule: nonzero;
	stroke: rgb(34, 72, 96);
	stroke-width: 3.3px;"/>
                    <path d="M32.25,227.06C33.04,239.738 32.952,253.337 33.741,266.014C30.714,266.672 28.477,268.953 28.082,271.629C27.556,275.226 30.67,277.595 30.846,277.683C28.872,284.789 27.073,292.861 25.933,301.766C24.09,316.023 24.31,328.745 25.319,339.185C27.556,340.282 31.679,341.992 37.163,342.168C44.708,342.431 50.323,339.711 52.516,338.483C53.526,328.525 53.613,315.233 50.191,300.055C48.305,291.72 45.717,284.482 43.041,278.385C43.392,278.034 45.629,275.753 45.322,272.507C45.059,269.699 42.997,267.286 40.058,266.146C39.575,254.082 39.838,242.019 39.356,229.955" style="fill: rgb(253, 214, 105);
	fill-rule: nonzero;"/>
                    <path d="M32.25,227.06C33.04,239.738 32.952,253.337 33.741,266.014C30.714,266.672 28.477,268.953 28.082,271.629C27.556,275.226 30.67,277.595 30.846,277.683C28.872,284.789 27.073,292.861 25.933,301.766C24.09,316.023 24.31,328.745 25.319,339.185C27.556,340.282 31.679,341.992 37.163,342.168C44.708,342.431 50.323,339.711 52.516,338.483C53.526,328.525 53.613,315.233 50.191,300.055C48.305,291.72 45.717,284.482 43.041,278.385C43.392,278.034 45.629,275.753 45.322,272.507C45.059,269.699 42.997,267.286 40.058,266.146C39.575,254.082 39.838,242.019 39.356,229.955" style="fill: none;
	fill-rule: nonzero;
	stroke: rgb(34, 72, 96);
	stroke-width: 3.3px;"/>
                    <path d="M39.355,230.174C73.44,214.821 107.569,199.467 141.654,184.114C145.996,183.061 148.234,179.771 147.707,178.016C147.225,176.218 143.584,174.594 139.285,175.998C105.112,191.527 70.939,207.012 36.723,222.541C34.705,222.454 32.819,223.594 31.985,225.349C30.889,227.718 32.292,229.955 32.38,230.087" style="fill: rgb(253, 214, 105);
	fill-rule: nonzero;"/>
                    <path d="M39.355,230.174C73.44,214.821 107.569,199.467 141.654,184.114C145.996,183.061 148.234,179.771 147.707,178.016C147.225,176.218 143.584,174.594 139.285,175.998C105.112,191.527 70.939,207.012 36.723,222.541C34.705,222.454 32.819,223.594 31.985,225.349C30.889,227.718 32.292,229.955 32.38,230.087" style="fill: none;
	fill-rule: nonzero;
	stroke: rgb(34, 72, 96);
	stroke-width: 3.3px;"/>
                </g>
            </g>
        </g>
        <g transform="matrix(1.00747,0,0,1.03012,1236.89,200.666)">
            <g transform="matrix(1,0,0,1,-148,-165)">
                <path d="M166.678,151.026C226.314,60.524 230.908,30.016 221.363,20.426C210.747,9.766 178.766,20.961 161.504,39.382C136.571,65.922 136.169,113.96 166.678,151.026Z" style="fill: rgb(255, 135, 128);
	fill-rule: nonzero;"/>
                <path d="M187.508,115.967L183.851,24.886M191.923,109.5L188.177,22.21M179.301,129.438L175.019,29.792M183.806,122.123L179.568,26.67" style="fill: none;
	fill-rule: nonzero;
	stroke: rgb(34, 72, 96);
	stroke-width: 2.77px;"/>
                <path d="M226.091,178.369L272.747,257.764M227.072,188.093L273.772,267.443M235.279,178.057L281.935,257.452M236.26,187.78L282.961,267.131" style="fill: none;
	fill-rule: nonzero;
	stroke: rgb(182, 216, 226);
	stroke-width: 1.97px;
	stroke-linecap: butt;
	stroke-linejoin: miter;"/>
                <path d="M16.407,253.348C17.294,253.348 18.013,252.629 18.013,251.742C18.013,250.856 17.294,250.137 16.407,250.137C15.521,250.137 14.802,250.856 14.802,251.742C14.802,252.629 15.521,253.348 16.407,253.348ZM25.372,253.393C26.259,253.393 26.978,252.674 26.978,251.787C26.978,250.9 26.259,250.181 25.372,250.181C24.485,250.181 23.767,250.9 23.767,251.787C23.767,252.674 24.485,253.393 25.372,253.393ZM16.497,264.722C17.384,264.722 18.103,264.003 18.103,263.117C18.103,262.23 17.383,261.511 16.497,261.511C15.61,261.511 14.891,262.23 14.891,263.117C14.891,264.003 15.61,264.722 16.497,264.722ZM25.418,264.767C26.305,264.767 27.023,264.048 27.023,263.161C27.023,262.274 26.305,261.555 25.418,261.555C24.531,261.555 23.812,262.274 23.812,263.161C23.812,264.048 24.531,264.767 25.418,264.767ZM16.497,276.052C17.384,276.052 18.103,275.333 18.103,274.446C18.103,273.559 17.383,272.84 16.497,272.84C15.61,272.84 14.891,273.559 14.891,274.446C14.891,275.333 15.61,276.052 16.497,276.052ZM25.418,276.096C26.305,276.096 27.023,275.377 27.023,274.491C27.023,273.604 26.305,272.885 25.418,272.885C24.531,272.885 23.812,273.604 23.812,274.491C23.812,275.377 24.531,276.096 25.418,276.096ZM16.451,287.381C17.338,287.381 18.057,286.662 18.057,285.775C18.057,284.888 17.338,284.169 16.452,284.169C15.565,284.169 14.846,284.888 14.846,285.775C14.846,286.662 15.565,287.381 16.451,287.381ZM25.372,287.426C26.259,287.426 26.978,286.707 26.978,285.82C26.978,284.933 26.259,284.214 25.372,284.214C24.485,284.214 23.767,284.933 23.767,285.82C23.767,286.707 24.485,287.426 25.372,287.426ZM16.497,298.755C17.384,298.755 18.103,298.036 18.103,297.149C18.103,296.262 17.383,295.543 16.497,295.543C15.61,295.543 14.891,296.262 14.891,297.149C14.891,298.036 15.61,298.755 16.497,298.755ZM25.462,298.8C26.349,298.8 27.067,298.081 27.067,297.194C27.067,296.307 26.349,295.588 25.462,295.588C24.575,295.588 23.856,296.307 23.856,297.194C23.856,298.081 24.575,298.8 25.462,298.8ZM16.497,310.129C17.384,310.129 18.103,309.41 18.103,308.523C18.103,307.636 17.383,306.917 16.497,306.917C15.61,306.917 14.891,307.636 14.891,308.523C14.891,309.41 15.61,310.129 16.497,310.129ZM25.462,310.174C26.349,310.174 27.067,309.455 27.067,308.568C27.067,307.681 26.349,306.962 25.462,306.962C24.575,306.962 23.856,307.681 23.856,308.568C23.856,309.455 24.575,310.174 25.462,310.174ZM34.696,253.125C35.582,253.125 36.301,252.406 36.301,251.519C36.301,250.633 35.582,249.914 34.696,249.914C33.809,249.914 33.09,250.633 33.09,251.519C33.09,252.406 33.809,253.125 34.696,253.125ZM43.66,253.17C44.547,253.17 45.266,252.451 45.266,251.564C45.266,250.677 44.547,249.958 43.66,249.958C42.774,249.958 42.055,250.677 42.055,251.564C42.055,252.451 42.774,253.17 43.66,253.17ZM34.74,264.499C35.626,264.499 36.345,263.78 36.345,262.893C36.345,262.007 35.626,261.288 34.74,261.288C33.853,261.288 33.134,262.007 33.134,262.893C33.134,263.78 33.853,264.499 34.739,264.499L34.74,264.499ZM43.706,264.544C44.593,264.544 45.312,263.825 45.312,262.938C45.312,262.051 44.592,261.332 43.706,261.332C42.819,261.332 42.1,262.051 42.1,262.938C42.1,263.825 42.819,264.544 43.706,264.544ZM34.74,275.873C35.626,275.873 36.345,275.154 36.345,274.267C36.345,273.381 35.626,272.662 34.74,272.662C33.853,272.662 33.134,273.381 33.134,274.267C33.134,275.154 33.853,275.873 34.739,275.873L34.74,275.873ZM43.706,275.918C44.593,275.918 45.312,275.199 45.312,274.312C45.312,273.425 44.592,272.706 43.706,272.706C42.819,272.706 42.1,273.425 42.1,274.312C42.1,275.199 42.819,275.918 43.706,275.918ZM34.74,287.203C35.626,287.203 36.345,286.484 36.345,285.597C36.345,284.71 35.626,283.991 34.74,283.991C33.853,283.991 33.134,284.71 33.134,285.597C33.134,286.484 33.853,287.203 34.739,287.203L34.74,287.203ZM43.66,287.247C44.547,287.247 45.266,286.528 45.266,285.641C45.266,284.755 44.547,284.036 43.66,284.036C42.774,284.036 42.055,284.755 42.055,285.641C42.055,286.528 42.774,287.247 43.66,287.247ZM34.785,298.577C35.671,298.577 36.39,297.858 36.39,296.971C36.39,296.084 35.671,295.365 34.785,295.365C33.898,295.365 33.179,296.084 33.179,296.971C33.179,297.858 33.898,298.577 34.784,298.577L34.785,298.577ZM43.706,298.621C44.593,298.621 45.312,297.902 45.312,297.015C45.312,296.129 44.592,295.41 43.706,295.41C42.819,295.41 42.1,296.129 42.1,297.015C42.1,297.902 42.819,298.621 43.706,298.621ZM34.785,309.951C35.671,309.951 36.39,309.232 36.39,308.345C36.39,307.458 35.671,306.739 34.785,306.739C33.898,306.739 33.179,307.458 33.179,308.345C33.179,309.232 33.898,309.951 34.784,309.951L34.785,309.951ZM43.706,309.995C44.593,309.995 45.312,309.276 45.312,308.389C45.312,307.503 44.592,306.784 43.706,306.784C42.819,306.784 42.1,307.503 42.1,308.389C42.1,309.276 42.819,309.995 43.706,309.995ZM110.606,3.435C111.493,3.435 112.211,2.715 112.211,1.829C112.211,0.942 111.493,0.223 110.606,0.223C109.719,0.223 109,0.943 109,1.83C109,2.717 109.719,3.436 110.606,3.436L110.606,3.435ZM119.527,3.48C120.413,3.48 121.132,2.76 121.132,1.873C121.132,0.986 120.413,0.268 119.527,0.268C118.64,0.268 117.921,0.986 117.921,1.873C117.921,2.76 118.64,3.479 119.527,3.479L119.527,3.48ZM110.65,14.809C111.537,14.809 112.255,14.089 112.255,13.203C112.255,12.316 111.537,11.597 110.65,11.597C109.763,11.597 109.044,12.317 109.044,13.203C109.044,14.09 109.763,14.809 110.65,14.809ZM119.571,14.853C120.457,14.853 121.176,14.134 121.176,13.247C121.176,12.361 120.457,11.642 119.571,11.642C118.684,11.642 117.965,12.361 117.965,13.247C117.965,14.134 118.684,14.853 119.571,14.853ZM110.65,26.138C111.537,26.138 112.255,25.419 112.255,24.532C112.255,23.646 111.537,22.927 110.65,22.927C109.763,22.927 109.044,23.646 109.044,24.532C109.044,25.419 109.763,26.138 110.65,26.138ZM119.571,26.183C120.457,26.183 121.176,25.463 121.176,24.577C121.176,23.69 120.457,22.971 119.571,22.971C118.684,22.971 117.965,23.691 117.965,24.577C117.965,25.464 118.684,26.183 119.571,26.183ZM110.606,37.512C111.493,37.512 112.211,36.792 112.211,35.906C112.211,35.019 111.493,34.3 110.606,34.3C109.719,34.3 109,35.02 109,35.906C109,36.793 109.719,37.512 110.606,37.512ZM119.571,37.557C120.457,37.557 121.176,36.837 121.176,35.951C121.176,35.064 120.457,34.345 119.571,34.345C118.684,34.345 117.965,35.065 117.965,35.951C117.965,36.838 118.684,37.557 119.571,37.557ZM110.695,48.841C111.582,48.841 112.301,48.123 112.301,47.236C112.301,46.349 111.582,45.63 110.695,45.63C109.808,45.63 109.089,46.349 109.089,47.236C109.089,48.123 109.808,48.841 110.695,48.841ZM119.616,48.886C120.503,48.886 121.222,48.167 121.222,47.281C121.222,46.394 120.503,45.675 119.616,45.675C118.729,45.675 118.01,46.394 118.01,47.281C118.01,48.167 118.729,48.886 119.616,48.886ZM110.695,60.215C111.582,60.215 112.301,59.496 112.301,58.61C112.301,57.723 111.582,57.004 110.695,57.004C109.808,57.004 109.089,57.723 109.089,58.61C109.089,59.496 109.808,60.215 110.695,60.215ZM119.616,60.26C120.503,60.26 121.222,59.541 121.222,58.655C121.222,57.768 120.503,57.049 119.616,57.049C118.729,57.049 118.01,57.768 118.01,58.655C118.01,59.541 118.729,60.26 119.616,60.26ZM128.894,3.211C129.781,3.211 130.5,2.493 130.5,1.606C130.5,0.719 129.781,0 128.894,0C128.007,0 127.288,0.719 127.288,1.606C127.288,2.493 128.007,3.211 128.894,3.211ZM137.815,3.256C138.702,3.256 139.42,2.537 139.42,1.65C139.42,0.763 138.702,0.044 137.815,0.044C136.928,0.044 136.209,0.764 136.209,1.65C136.209,2.537 136.928,3.256 137.815,3.256ZM128.938,14.585C129.825,14.585 130.544,13.867 130.544,12.98C130.544,12.093 129.825,11.374 128.938,11.374C128.051,11.374 127.332,12.093 127.332,12.98C127.332,13.867 128.051,14.585 128.938,14.585ZM137.859,14.63C138.746,14.63 139.464,13.911 139.464,13.024C139.464,12.137 138.746,11.419 137.859,11.419C136.972,11.419 136.253,12.137 136.253,13.024C136.253,13.911 136.972,14.63 137.859,14.63ZM128.938,25.96C129.825,25.96 130.544,25.24 130.544,24.354C130.544,23.467 129.825,22.748 128.938,22.748C128.051,22.748 127.332,23.467 127.332,24.354C127.332,25.241 128.051,25.959 128.938,25.959L128.938,25.96ZM137.859,26.004C138.746,26.004 139.464,25.285 139.464,24.398C139.464,23.511 138.746,22.793 137.859,22.793C136.972,22.793 136.253,23.511 136.253,24.398C136.253,25.285 136.972,26.004 137.859,26.004ZM128.894,37.29C129.781,37.29 130.5,36.57 130.5,35.683C130.5,34.797 129.781,34.078 128.894,34.078C128.007,34.078 127.288,34.797 127.288,35.683C127.288,36.57 128.007,37.289 128.894,37.289L128.894,37.29ZM137.859,37.334C138.746,37.334 139.464,36.614 139.464,35.728C139.464,34.841 138.746,34.122 137.859,34.122C136.972,34.122 136.253,34.841 136.253,35.728C136.253,36.615 136.972,37.334 137.859,37.334ZM128.938,48.663C129.825,48.663 130.544,47.944 130.544,47.057C130.544,46.171 129.825,45.452 128.938,45.452C128.051,45.452 127.332,46.171 127.332,47.057C127.332,47.944 128.051,48.663 128.938,48.663ZM137.904,48.708C138.791,48.708 139.51,47.988 139.51,47.102C139.51,46.215 138.791,45.496 137.904,45.496C137.017,45.496 136.298,46.215 136.298,47.102C136.298,47.989 137.017,48.708 137.904,48.708ZM128.938,60.037C129.825,60.037 130.544,59.318 130.544,58.431C130.544,57.545 129.825,56.826 128.938,56.826C128.051,56.826 127.332,57.545 127.332,58.431C127.332,59.318 128.051,60.037 128.938,60.037ZM137.904,60.082C138.791,60.082 139.51,59.362 139.51,58.476C139.51,57.589 138.791,56.87 137.904,56.87C137.017,56.87 136.298,57.589 136.298,58.476C136.298,59.363 137.017,60.082 137.904,60.082Z" style="fill: rgb(34, 72, 96);
	fill-rule: nonzero;"/>
                <path d="M187.33,301.565C149.952,310.352 112.529,319.139 75.15,327.926C50.753,274.758 26.355,221.635 2,168.467C39.869,166.058 77.693,163.605 115.562,161.196C144.644,142.106 173.726,123.06 202.763,103.969C231.087,153.792 259.41,203.615 287.689,253.393L187.33,301.565Z" style="fill: rgb(0, 139, 134);
	fill-rule: nonzero;
	stroke: rgb(35, 62, 68);
	stroke-width: 2.98px;"/>
                <path d="M250.223,205.488C252.408,208.655 255.798,213.294 260.214,218.646C267.128,227.032 271.276,231.894 277.922,236.354C281.178,238.54 286.441,241.528 293.801,243.625C287.378,249.691 277.877,258.255 265.656,267.711C246.788,282.252 237.064,289.567 222.523,293.581C215.03,295.633 202.452,297.908 185.725,294.964C207.224,265.169 228.723,235.328 250.223,205.488Z" style="fill: rgb(182, 216, 226);
	fill-rule: nonzero;
	stroke: rgb(35, 62, 68);
	stroke-width: 2.98px;"/>
                <path d="M34.917,179.172C29.699,178.993 23.543,179.261 16.763,180.554C13.998,181.045 11.411,181.67 9.047,182.383C16.763,205.131 26.665,230.243 39.467,256.872C51.644,282.207 64.4,304.598 76.71,324.09C94.909,316.641 110.654,310.798 123.054,306.383C139.424,300.584 147.988,297.997 158.96,296.391C169.933,294.785 179.255,294.741 185.767,295.009C185.054,296.436 183.091,300.539 184.385,301.833C185.678,303.082 189.826,301.387 194.822,297.729C190.718,287.872 186.659,278.059 182.556,268.201C133.357,238.495 84.115,208.833 34.916,179.172L34.917,179.172Z" style="fill: rgb(182, 216, 226);
	fill-rule: nonzero;
	stroke: rgb(35, 62, 68);
	stroke-width: 2.98px;"/>
                <path d="M187.33,289.299C165.965,253.126 144.644,216.907 123.279,180.733C101.601,169.136 83.314,163.382 71.048,160.304C59.852,157.494 52.002,156.558 43.348,157.138C32.153,157.896 23.232,160.973 17.478,163.516C25.061,184.97 33.848,207.54 44.062,230.957C52.849,251.118 61.859,270.03 70.869,287.738C78.318,284.259 89.291,279.977 103.118,277.747C122.119,274.669 137.062,276.855 148.525,278.639C158.472,280.2 171.987,283.189 187.33,289.299Z" style="fill: rgb(239, 243, 248);
	fill-rule: nonzero;
	stroke: rgb(35, 62, 68);
	stroke-width: 2.98px;"/>
                <path d="M133.493,159.189C141.209,145.986 148.97,136.976 154.858,131.044C160.166,125.647 167.124,119.581 171.228,108.787C172.967,104.192 173.636,100.178 173.949,97.413C188.713,111.686 203.432,126.093 218.017,140.545C236.484,158.877 254.816,177.343 272.97,195.943C264.361,214.275 255.797,229.084 248.883,240.012C229.124,271.413 217.571,280.111 211.639,284.081C203.075,289.79 195.046,293.091 189.382,294.964C178.409,266.016 166.634,236.444 153.966,206.38C147.186,190.368 140.362,174.622 133.493,159.189Z" style="fill: rgb(125, 183, 172);
	fill-rule: nonzero;
	stroke: rgb(35, 62, 68);
	stroke-width: 2.98px;"/>
                <path d="M128.721,123.506C129.122,115.923 129.523,108.073 127.338,98.082C126.357,93.532 125.152,89.83 124.171,87.198C137.82,97.368 148.614,106.735 156.42,114.005C165.117,122.079 174.797,131.044 185.948,144.425C194.512,154.729 198.66,161.196 209.097,171.232C215.252,177.12 220.739,181.536 224.53,184.391C222.657,207.272 219.668,226.586 216.814,241.618C213.691,258.255 210.703,269.629 202.273,281.137C197.455,287.694 192.371,292.288 188.624,295.232" style="fill: none;
	fill-rule: nonzero;
	stroke: rgb(35, 62, 68);
	stroke-width: 2.98px;"/>
                <path d="M83.982,94.201C88.8,106.155 95.044,120.964 102.627,137.824C102.627,137.824 111.503,161.197 122.61,180.064C143.975,216.238 165.296,252.456 186.661,288.63C188.847,283.456 191.567,275.472 192.549,265.481C194.199,249.245 190.408,236.711 186.661,224.579C181.844,209.146 175.51,198.173 170.291,189.163C165.653,181.09 161.638,175.291 158.025,170.073C152.048,161.464 143.797,150.447 133.047,138.27C123.858,128.903 113.733,119.313 102.627,109.634C96.293,104.192 90.093,99.063 83.982,94.201Z" style="fill: rgb(203, 236, 244);
	fill-rule: nonzero;
	stroke: rgb(35, 62, 68);
	stroke-width: 2.98px;"/>
                <path d="M186.17,288.184C188.044,284.259 190.631,277.836 191.612,269.54C194.199,247.817 183.628,230.912 179.346,224.133C176.001,218.78 170.068,210.662 160.255,202.767C159.765,196.166 158.65,188.449 156.152,180.064C150.309,160.17 139.916,146.12 132.512,137.824C147.053,149.733 157.178,161.776 163.868,170.965C176.804,188.762 182.959,204.284 184.297,207.763C188.713,219.137 193.932,232.607 193.842,250.895C193.798,267.22 189.516,280.2 186.17,288.184Z" style="fill: rgb(251, 251, 251);
	fill-rule: nonzero;
	stroke: rgb(35, 62, 68);
	stroke-width: 2.98px;"/>
            </g>
        </g>
    </g>
</svg>
