<svg xmlns="http://www.w3.org/2000/svg" viewBox="0 0 1380 543"><path fill="#F5F5F7" d="M1364 0H16C7.163 0 0 7.163 0 16v511c0 8.837 7.163 16 16 16h1348c8.84 0 16-7.163 16-16V16c0-8.837-7.16-16-16-16z"/><mask id="prefix__a" width="1380" height="543" x="0" y="0" maskUnits="userSpaceOnUse"><path fill="#F5F5F7" d="M1364 0H16C7.163 0 0 7.163 0 16v511c0 8.837 7.163 16 16 16h1348c8.84 0 16-7.163 16-16V16c0-8.837-7.16-16-16-16z"/></mask><g fill="#EDEFF3" fill-rule="evenodd" clip-rule="evenodd" mask="url(#prefix__a)"><path d="M1076.13-212.651c-24.13-21.656-65.91-17.481-102.832-13.793-73.168 7.325-148.155 20.067-229.248 38.99-23.987 5.59-48.302 12.107-71.812 18.383-50.697 13.55-103.103 27.562-155.605 33.472-77.71 8.715-156.723 3.32-231.003-2.93-68.07-5.763-146.4-9.302-214.54 21.435C19.48-93.802-23.14-52.604-52.16 2.046-79.7 53.914-92.22 113.91-87.39 170.98c6.14 72.765 33.7 136.78 77.6 180.248 17.89 17.712 39.05 32.605 59.51 47.009 31.72 22.328 64.52 45.41 84.76 79.103 30.98 51.562 19 120.25-27.28 156.357C49.14 679-28.91 649.25-59.78 634.345c-21.39-10.315-42.01-22.497-61.93-34.265-39.57-23.363-80.47-47.522-128.54-57.69-63.6-13.44-128.98-8.13-192.16-2.99l-6.15.5c-125.27 10.155-254.15 11.095-332.96-95.995-30.32-41.2-48.2-90.43-65.51-138.037-6.71-18.508-13.67-37.648-21.26-56.043-4.2-10.242-8.67-20.595-12.96-30.615-21.71-50.427-44.14-102.578-44.68-158.802-.68-72.033 41.35-130.128 84.47-183.435l9.4-11.62c44.34-54.713 86.21-106.398 120.68-167.92 5.2-9.303 10.2-18.703 15.53-28.663 26.07-48.9 53.02-99.46 98.46-127.81 53.76-33.54 121.24-23.29 180.78-14.23l3.59.53c74.2 11.26 146.98 19.51 221.31-3.17 39.34-11.96 76.36-30.47 112.17-48.36 29.17-14.58 59.33-29.64 90.39-40.97 8.84-3.22 17.66-6.42 26.46-9.59 61.62-22.22 119.81-43.22 176.52-75.91 51.72-29.81 95.6-65.52 142.06-103.37 9.41-7.66 18.85-15.33 28.38-23 21.903-17.57 43.033-31.83 63.71-42.89h-20.165c-16.395 9.82-32.975 21.46-49.815 34.96-9.56 7.69-19.01 15.38-28.43 23.05-46.15 37.57-89.72 73.04-140.74 102.46C152.9-627.3 95.1-606.45 33.92-584.36c-8.81 3.18-17.65 6.35-26.5 9.6-31.59 11.52-62.01 26.71-91.43 41.4-35.44 17.73-72.07 36.02-110.6 47.76-72.34 22.05-143.89 13.94-216.92 2.85l-3.59-.55c-61.23-9.31-130.66-19.86-187.59 15.67-47.71 29.76-75.32 81.54-102.03 131.62-5.27 9.91-10.25 19.257-15.43 28.46-34.04 60.768-75.63 112.135-119.7 166.505l-9.4 11.62c-42.34 52.345-87.45 114.528-86.72 189.93.53 58.278 23.39 111.377 45.48 162.732 4.3 9.986 8.74 20.313 12.94 30.468 7.5 18.203 14.4 37.232 21.1 55.64 17.53 48.293 35.67 98.217 66.87 140.602 81.86 111.253 213.77 110.435 341.84 100.06l6.15-.5c62.5-5.079 127.1-10.34 189.31 2.808 46.46 9.825 84.84 32.495 125.49 56.505 20.12 11.877 40.92 24.17 62.68 34.67 32.55 15.71 115 46.983 177.49-1.782 50.26-39.21 63.32-113.723 29.73-169.618-21.34-35.523-55.03-59.228-87.61-82.165-20.12-14.16-40.93-28.81-58.22-45.923-42.19-41.772-68.69-103.517-74.63-173.877C-87.23 53.4-23.05-63.505 75.22-107.843c65.94-29.76 142.75-26.245 209.57-20.604 74.78 6.322 154.353 11.742 232.956 2.904 53.244-5.979 106.029-20.092 157.067-33.739 23.437-6.25 47.68-12.745 71.507-18.285 80.678-18.826 155.238-31.521 228.04-38.795 34.8-3.468 74.24-7.423 95.07 11.28 10.73 9.617 16.11 24.534 16.45 45.604.86 53.54-20.57 109.681-63.67 166.833-8.58 11.39-17.42 22.853-25.962 33.948-34.18 44.375-69.53 90.259-96.998 141.212-30.505 56.555-60.217 123.802-90.857 205.565-30.993 82.715-42.48 156.837-35.095 226.6 2.455 23.29 7.52 44.838 14.392 65.32h10.573c-7.178-20.74-12.44-42.518-14.968-66.395-7.202-68.15 4.09-140.745 34.51-221.947 30.48-81.336 60.01-148.158 90.283-204.31 27.087-50.218 62.172-95.776 96.102-139.83 8.57-11.121 17.42-22.608 26.04-34.033 44.5-58.998 66.6-117.25 65.71-173.132-.38-24.05-6.86-41.383-19.81-53.005zM733.21-809.579c13.11 4.4 26.66 8.96 39.858 13.16 63.45 20.2 135.265 46.2 184.46 99.51 37.132 40.24 46.972 94.12 56.492 146.24 2.6 14.26 5.29 28.99 8.5 43.2 7.85 34.76 17.52 69.62 29.56 106.56 3.7 11.38 7.21 23.27 10.59 34.79 7.27 24.76 14.8 50.343 25.23 73.928 15.67 35.399 46.31 45.24 71.26 49.877 31.42 5.81 64.73 12.842 96.02 28.98 48.88 25.22 84.32 68.822 111.52 137.207 13.9 34.973 26.35 71.203 38.3 106.7V-.736c-9.11-26.503-18.63-53.15-28.97-79.15-27.75-69.826-65.79-116.43-116.26-142.458-32.52-16.77-66.63-23.998-98.79-29.955-33.9-6.275-53-19.432-63.88-44.017-10.17-22.976-17.6-48.243-24.78-72.683-3.4-11.57-6.93-23.56-10.68-35.06-11.95-36.64-21.53-71.21-29.31-105.66-3.16-14.02-5.82-28.64-8.41-42.78-9.78-53.54-19.9-108.91-59.02-151.31-50.867-55.13-124.12-81.69-188.807-102.27-13.11-4.18-26.623-8.72-39.695-13.12-.795-.26-1.6-.53-2.393-.8H701.9c10.498 3.42 20.935 6.93 31.31 10.42z"/><path d="M88.41 361.983c30.98 25.148 63.01 51.148 86.29 84.533 35.88 51.478 37.6 122.878 4.39 181.885-11.64 20.68-26.48 38.062-43.58 51.6h4c16.32-13.44 30.52-30.37 41.77-50.355 33.68-59.85 31.91-132.31-4.51-184.583-23.48-33.689-55.67-59.802-86.78-85.044-19.23-15.613-39.13-31.75-56.68-49.476-45.14-45.557-68.8-108.984-64.91-174C-27.59 69.796 4.54 7.893 56.56-33.282c78.43-62.06 174.76-57.164 267.92-52.452 50.17 2.54 102.053 5.175 150.565-2.672 14.513-2.346 29.185-4.226 43.383-6.031 16.102-2.052 32.765-4.174 49.242-7.007 28.993-4.98 58.205-11.23 86.45-17.285 9.975-2.125 19.948-4.273 29.933-6.347l5.738-1.198c63.062-13.182 134.544-28.15 200.097-21.655 38.905 3.858 68.885 17.75 84.425 39.113 11.84 16.295 15.295 36.657 10.252 60.522-8.85 41.967-33.46 78.82-57.25 114.465-12.965 19.408-26.355 39.477-36.915 59.997-19.567 38.05-34.777 79.053-49.475 118.701-3.675 9.9-7.335 19.787-11.06 29.614-6.017 15.846-12.352 31.873-18.48 47.375-12.5 31.593-25.427 64.258-36.23 97.145-30.287 92.198-37.305 176.233-21.449 260.998h2.565c-15.896-84.498-8.926-168.263 21.277-260.205 10.777-32.8 23.68-65.442 36.167-96.998 6.14-15.514 12.478-31.542 18.495-47.412 3.735-9.825 7.398-19.725 11.07-29.625 14.688-39.588 29.86-80.517 49.355-118.432 10.485-20.388 23.853-40.395 36.768-59.743 23.925-35.853 48.67-72.913 57.627-115.355 5.19-24.597 1.588-45.642-10.692-62.538-15.968-21.972-46.583-36.229-86.192-40.137-65.943-6.542-137.636 8.472-200.868 21.68l-5.737 1.198a5988.723 5988.723 0 0 0-29.946 6.37c-28.222 6.032-57.407 12.282-86.34 17.237-16.43 2.832-33.067 4.955-49.145 7.008-14.22 1.805-28.917 3.684-43.457 6.042-48.253 7.8-100.003 5.175-150.043 2.647-93.63-4.747-190.44-9.642-269.6 52.993C2.42 6.356-30.06 68.916-34.1 136.386c-3.94 65.747 19.99 129.883 65.62 175.952 17.66 17.821 37.6 33.996 56.89 49.645z"/><path d="M136.69 340.718c17.85 16.823 36.3 34.218 52.71 52.783 50.51 57.143 68.41 120.837 53.2 189.283-8.02 36.085-21.82 69.372-39.69 97.217h2.98c17.62-27.82 31.22-60.888 39.16-96.655 15.41-69.3-2.68-133.74-53.77-191.528-16.48-18.652-34.98-36.085-52.87-52.942-29.31-27.625-59.62-56.19-81.77-90.797-36.54-57.068-38.42-123.79-5.02-178.491C91.85 3.67 159.64-19.986 209.42-28.227c48.74-8.07 99.39-9.924 148.36-11.707 26.71-.975 54.313-1.978 81.23-3.99 50.06-3.725 100.328-11.415 148.95-18.835 27.746-4.25 56.42-8.633 84.765-12.232l.318-.038c48.362-6.153 98.375-12.523 145.262-1.452 23.353 5.504 40.26 15.259 50.27 28.967 18.48 25.33 9.473 59.337-1.355 91.993-10.572 31.897-20.764 64.515-30.615 96.057-13.452 43.055-27.357 87.585-42.432 130.895-7.423 21.327-15.612 42.932-23.523 63.83-19.14 50.515-38.94 102.747-50 156.325-12.5 60.547-14.367 123.888-5.602 188.415h2.537c-8.777-64.355-6.945-127.527 5.53-187.902 11.023-53.37 30.775-105.506 49.878-155.933 7.935-20.91 16.125-42.542 23.548-63.893 15.087-43.359 29.004-87.902 42.469-130.98 9.85-31.532 20.031-64.137 30.603-96.009 8.142-24.608 21.79-65.783.987-94.298-10.375-14.21-27.769-24.28-51.72-29.932-18.847-4.455-38.16-6.116-57.642-6.116-29.443 0-59.278 3.795-88.513 7.518l-.317.037c-28.37 3.613-57.068 7.995-84.827 12.233-48.571 7.433-98.79 15.1-148.756 18.835-26.867 2.002-54.455 3.002-81.125 3.98-49.06 1.782-99.79 3.638-148.69 11.73-50.3 8.325-118.79 32.263-159.54 98.987-33.91 55.553-32.03 123.29 5.04 181.188 22.33 34.877 52.76 63.55 82.18 91.272z"/><path d="M240.07 398.019c40.52 52.404 54.65 115.527 40.88 182.52-4.98 24.182-14.46 60.997-31.41 99.462h2.75c16.75-38.305 26.16-74.865 31.12-98.95 13.94-67.75-.37-131.568-41.35-184.595-14.67-18.97-32.26-37.45-50.88-57.03-56.93-59.815-115.79-121.668-99.19-205.762C108.59 49.641 204.28 24.543 285.8 12.068c27.98-4.284 56.62-7.324 84.32-10.277 15.52-1.66 31.55-3.37 47.296-5.275 17.259-2.087 34.557-4.283 51.855-6.493 58.337-7.435 118.652-15.125 178.112-18.237 83.18-4.37 132.08 16.455 145.35 61.853 8.8 30.102 5.272 63.684.902 95.482-.572 4.14-.67 9.938-.78 16.652-.282 16.235-.672 38.476-8.985 45.116l-.329.404c-4.371 8.326-5.458 17.98-6.496 27.318-.402 3.638-.792 7.068-1.355 10.437-2.452 14.576-7.225 29.138-11.84 43.225l-1.575 4.835c-8.91 27.393-19.482 54.688-29.712 81.103-4.468 11.56-9.105 23.522-13.538 35.328-26.964 71.899-41.027 144.542-41.785 215.929-.255 23.413 1.075 47.218 2.613 70.533h2.515c-1.537-23.315-2.868-47.132-2.613-70.507.758-71.083 14.773-143.446 41.628-215.053 4.43-11.802 9.057-23.755 13.525-35.315 10.242-26.44 20.825-53.77 29.747-81.225l1.588-4.833c4.64-14.172 9.447-28.835 11.927-43.592.573-3.442.988-7.067 1.378-10.582 1.002-9.023 2.052-18.335 6.105-26.198 9.033-7.543 9.41-29.333 9.715-46.875.11-6.64.207-12.365.757-16.358 4.408-32.067 7.973-65.955-.975-96.532-12.477-42.687-55.14-64.245-126.942-64.245-6.725 0-13.72.183-20.948.56-59.557 3.125-119.92 10.815-178.307 18.262-17.298 2.21-34.57 4.408-51.83 6.495-15.733 1.903-31.763 3.613-47.263 5.26-27.74 2.955-56.41 6.018-84.44 10.303-75.91 11.622-178.81 37.073-195.9 123.61-16.86 85.375 42.47 147.715 99.84 208.008 18.58 19.517 36.12 37.962 50.71 56.835z"/><path d="M237.96 341.133c28.25 34.23 57.46 69.631 73.34 111.451 23.27 61.267 7.74 128.662-12.51 192.36a9642.711 9642.711 0 0 1-11.21 35.057h10.59c3.49-10.852 6.89-21.545 10.2-31.97 20.81-65.455 36.71-134.875 12.33-199.072-16.48-43.386-46.23-79.431-75-114.295-5.97-7.238-12.15-14.733-18.05-22.108-46.64-58.227-67.53-107.593-62.13-146.715 3.41-24.623 17.42-45.85 41.65-63.097 61.11-43.495 144.3-54.408 217.703-64.028l6.36-.842c10.852-1.428 21.947-3.003 32.667-4.528 39.38-5.602 80.09-11.403 120.018-11.403 18.03 0 34.51 1.148 50.393 3.505 39.304 5.823 67.395 19.615 83.494 41.003 16.418 21.802 20.57 50.415 23.645 80.298-2.27 65.71-14.99 128.319-38.88 191.395a9767.138 9767.138 0 0 1-7.102 18.614c-20.313 53.125-41.322 108.058-48.89 166.908-5.615 43.603-6.14 88.025-6.653 130.98-.11 8.362-.219 16.848-.355 25.355h10.06c.145-8.473.255-16.908.353-25.232.512-42.663 1.038-86.793 6.58-129.81 7.41-57.641 27.27-109.57 48.302-164.563 2.37-6.2 4.75-12.402 7.105-18.64 24.341-64.257 37.28-128.04 39.551-195.007l.012-.343-.035-.34c-3.223-31.507-7.618-61.755-25.673-85.73-17.737-23.585-48.047-38.685-90.05-44.91-16.37-2.43-33.337-3.613-51.857-3.613-40.638 0-81.712 5.846-121.422 11.498-10.693 1.527-21.766 3.1-32.568 4.518l-6.347.83C349.02 38.436 264.51 49.521 201.36 94.466c-26.59 18.932-42 42.48-45.8 69.982-5.89 42.591 15.11 93.128 64.25 154.468 5.96 7.435 12.16 14.955 18.15 22.217z"/><path d="M294.47 340.256c32.48 41.247 66.06 83.885 76.33 136.035 10.35 52.66-5.88 104.993-21.56 155.603-4.91 15.819-9.9 32.105-14.01 48.107h2.6c4.06-15.748 8.98-31.775 13.81-47.35 15.79-50.918 32.11-103.565 21.62-156.862-10.37-52.733-44.15-95.63-76.82-137.108-7.86-9.985-15.99-20.3-23.53-30.457-48.85-65.833-57.36-119.301-25.27-158.923 31.47-38.867 88.07-52.722 129.42-62.842 46.433-11.366 101.293-22.973 156.115-22.973h.011c20.117 0 39.489 1.598 57.544 4.747 65.918 11.511 102.55 55.543 108.9 130.763.133 61.34-23.635 118.7-46.607 174.183-2.478 5.954-4.945 11.9-7.373 17.844-26.745 65.406-39.65 125.063-40.589 187.746l-.145 10.29c-.416 29.247-.855 60.364-3.663 90.942h2.54c2.782-30.578 3.222-61.67 3.637-90.917l.145-10.28c.94-62.353 13.783-121.716 40.405-186.816 2.43-5.932 4.895-11.877 7.363-17.835 23.07-55.712 46.935-113.317 46.79-175.267-6.447-76.625-43.788-121.425-110.963-133.155-18.212-3.175-37.72-4.785-57.984-4.785h-.011c-55.092 0-110.132 11.658-156.715 23.06-41.69 10.192-98.77 24.17-130.77 63.695-32.92 40.637-24.43 95.155 25.2 162.037 7.57 10.193 15.7 20.52 23.58 30.518zM1405 493.894c-5.41 1.524-10.8 3.027-16.12 4.502-56.75 15.797-115.43 32.13-166.5 63.71-48.31 29.895-85.05 70.8-120.52 117.895h3.16c34.95-46.24 71.23-86.377 118.68-115.735 50.76-31.397 109.27-47.68 165.85-63.428 5.09-1.415 10.26-2.857 15.45-4.31v-2.634zM812.995 619.381c4.945 20.765 12.783 41.223 22.89 60.62h2.818c-10.29-19.555-18.26-40.223-23.265-61.217-14.955-62.708-7.482-129.591 24.217-216.858 28.113-77.37 60.12-146.108 95.143-204.31 28.772-47.815 64.317-86.523 101.952-127.503 9.73-10.607 19.8-21.57 29.65-32.617 10.23-11.45 20.41-23.278 30.26-34.718 13.79-16.014 28.04-32.554 42.59-48.34 2.82-3.037 5.69-6.237 8.63-9.507 18.6-20.655 39.67-44.055 64.64-52.917 6.84-2.418 13.82-3.663 20.78-3.663h.01c49.66.025 90.28 62.255 105.44 89.012 27.34 48.243 47.5 100.71 66.25 152.406v-7.36c-18.13-49.683-37.78-99.903-64.06-146.303-19.11-33.715-58.5-90.27-107.63-90.27h-.01c-7.24 0-14.52 1.27-21.61 3.785-25.59 9.08-46.87 32.737-65.66 53.612-2.94 3.26-5.81 6.446-8.62 9.485-14.59 15.808-28.84 32.373-42.65 48.388-9.84 11.44-20.02 23.255-30.23 34.705-9.83 11.023-19.9 21.985-29.63 32.58-37.725 41.077-73.357 79.873-102.25 127.907-35.107 58.348-67.187 127.233-95.362 204.761-31.872 87.754-39.368 155.089-24.293 218.322z"/><path d="M381.25 362.593c13.3 14.588 27.045 29.676 38.715 45.191 22.353 29.699 33.583 55.407 35.353 80.897 1.94 27.99-9.35 54.307-20.275 79.773-2.675 6.212-5.433 12.645-7.91 18.932-8.473 21.423-22.743 57.617-26.893 92.615h2.53c4.148-34.557 18.32-70.46 26.693-91.675 2.477-6.25 5.225-12.67 7.885-18.872 11.048-25.733 22.463-52.343 20.485-80.958-1.808-26-13.198-52.135-35.853-82.238-11.742-15.612-25.54-30.737-38.88-45.372-27.32-29.983-55.58-60.988-69.43-99.012-20.68-56.775 19.21-97.743 63.44-117.163 37.46-16.442 82.103-25.88 122.471-25.88 42.75 0 117.542 11.378 138.159 87.39 4.895 42.602-5.14 88.355-29.81 135.988-7.592 14.66-16.675 29.297-25.44 43.444-16.15 26.051-32.85 52.991-41.882 82.238-11.12 36-6.593 74.245-2.21 111.22 3.332 28.21 6.788 57.385 3.272 85.363-.622 4.955-1.612 10.179-2.905 15.527h2.575c1.258-5.237 2.223-10.34 2.833-15.21 3.552-28.295.073-57.618-3.285-85.987-4.345-36.705-8.838-74.683 2.125-110.156 8.935-28.942 25.55-55.737 41.615-81.652 8.788-14.185 17.895-28.87 25.535-43.615 24.915-48.097 35.035-94.338 30.03-137.635-21.08-77.832-97.155-89.453-140.612-89.453h-.013c-40.697 0-85.693 9.508-123.458 26.098-45.28 19.873-86.09 61.938-64.8 120.35 14.03 38.5 42.45 69.69 69.94 99.852zM1405 411.434a81.67 81.67 0 0 1-5.54 6.165c-23.85 23.804-54.97 38.219-85.06 52.159-4.16 1.943-8.34 3.87-12.47 5.823-52.07 24.538-119.55 59.632-179.77 113.588-10.36 9.29-20.53 19.665-31.28 30.652-21.84 22.278-44.16 45.042-69.55 60.18h4.85c24.17-15.235 45.54-37.035 66.48-58.41 10.73-10.95 20.87-21.29 31.17-30.53 59.99-53.748 127.26-88.72 179.17-113.185 4.13-1.953 8.29-3.88 12.46-5.81 30.29-14.038 61.6-28.552 85.77-52.672a76.624 76.624 0 0 0 3.77-4.053v-3.907zM851.68 606.686c9.265 27.575 27.198 55.285 51.635 73.315h4.371c-25.476-17.59-44.141-45.922-53.625-74.12-16.956-50.405-14.503-109.058 7.482-179.322 20.472-65.38 52.637-134.741 93.042-200.573 35.583-57.985 80.675-103.077 137.425-152.943 2.53-2.222 5.14-4.542 7.85-6.935 36.2-32.08 85.77-76.024 134.07-76.024h.01c7.65 0 15.09 1.147 22.12 3.395 48.1 15.404 75.81 63.975 98.6 114.182 21.69 47.793 36.96 98.365 50.34 148.733v-9.718c-12.83-47.46-27.59-94.97-48.06-140.075-23.02-50.72-51.08-99.83-100.12-115.54-7.28-2.32-14.97-3.505-22.88-3.505h-.01c-49.25 0-99.24 44.3-135.73 76.65-2.71 2.393-5.32 4.71-7.83 6.92-56.94 50.025-102.18 95.277-137.922 153.527-40.515 66.006-72.778 135.56-93.298 201.148-22.167 70.79-24.609 129.97-7.47 180.885z"/><path d="M967.708 612.021c28.942 0 63.352-15.527 102.282-46.143 57.99-45.617 119.74-85.145 177.82-121.069 3.49-2.161 7.03-4.323 10.58-6.483 22.9-13.928 46.57-28.345 64.32-48.45 24.9-28.223 31.12-64.82 31.94-90.553.21-7.114.15-14.892-.21-23.777-10.43-66.175-26.68-133.68-74.44-178.137-17.18-15.968-37.33-24.073-59.9-24.073h-.01c-41.59 0-84.32 26.953-112.85 47.23-95.61 67.942-168.745 177.66-205.915 308.91-13.037 46.045-26.292 112.135 8.96 154.333 15.651 18.715 34.963 28.212 57.423 28.212zM1220.09 70.809h.01c23.23 0 43.96 8.324 61.6 24.745 48.34 44.982 64.73 112.974 75.24 179.747.38 9.095.44 16.932.22 24.11-.84 26.148-7.17 63.365-32.57 92.15-17.99 20.385-41.84 34.9-64.9 48.938-3.54 2.16-7.07 4.31-10.56 6.469-58.02 35.89-119.69 75.368-177.6 120.91-39.37 30.971-74.305 46.681-103.822 46.681-23.23 0-43.2-9.803-59.35-29.113-36.023-43.128-22.645-110.06-9.45-156.665 37.317-131.8 110.792-242.005 206.882-310.29 28.8-20.472 72-47.682 114.3-47.682zm-783.924-235.34c12.364 0 24.534-.415 36.157-1.293 79.235-5.835 155.005-26.93 218.675-46.803 20.227-6.322 41.237-12.182 61.55-17.869 48.9-13.648 99.462-27.785 145.335-49.636 38.257-18.237 82.68-53.857 77.027-120.017-17.567-111.31-67.175-259.96-203.76-335.62-72.045-39.9-140.772-62.28-204.272-66.56-4.65-.31-9.375-.48-14.038-.48-55.187 0-110.657 21.34-174.57 67.16-13.54 9.72-27.14 19.73-40.29 29.37-45.05 33.13-91.63 67.38-142.24 94.61-26.99 14.5-55.51 27.56-83.08 40.18-39.14 17.92-79.61 36.43-116.41 59.47-16.52 10.33-32.84 21.88-48.61 33.03-40.47 28.64-82.31 58.26-132.04 70.66-25.49 6.37-52.98 9.35-86.45 9.35-25.76 0-51.98-1.78-77.35-3.52-18.51-1.24-37.64-2.56-56.22-3.12-7.91-.25-15.26-.37-22.46-.37-47.95 0-118.22 4.84-174.54 46.58-36.86 27.33-65.36 64.508-92.92 100.495-10.64 13.89-21.65 28.245-32.96 41.795-11.79 14.112-24.12 28.223-36.06 41.87-33.59 38.38-68.33 78.076-94.8 122.755C-893.14 6.613-897.81 74.52-872 149.313c23.27 67.456 54.64 138.098 93.24 209.985 32.27 60.071 74.55 101.148 125.73 122.083 43.31 17.725 91.4 25.975 151.34 25.975 39.04 0 79.18-3.478 118.02-6.848 38.67-3.344 78.66-6.81 117.38-6.81 13.94 0 26.78.426 39.31 1.305 36.81 2.613 67.67 9.485 94.29 21.02 20.19 8.753 38.35 21.46 55.92 33.753 11.34 7.922 23.07 16.125 35.21 23.17 23.61 13.707 44.28 20.36 63.18 20.36 7.99 0 15.77-1.207 23.13-3.613 30.1-9.815 45.57-37 38.47-67.662-8.74-37.807-47.43-60.267-81.59-80.068-7.14-4.15-13.88-8.067-20.14-12-44.29-27.819-74.41-78.074-92.1-153.625-15.03-64.122-29.68-147.96-9.56-227.807 17.27-68.48 53.31-133.02 98.89-177.05 42.54-41.115 101.77-61.11 181.08-61.11 46.41 0 93.87 6.617 132.02 11.915 46.69 6.495 94.98 13.183 144.346 13.183zm116.662-640.798h.012c4.723 0 9.498.15 14.208.47 63.868 4.29 132.947 26.8 205.31 66.87 137.477 76.15 187.39 225.58 205.055 337.54 5.785 67.7-39.477 104.035-78.455 122.612-46.058 21.95-96.728 36.11-145.74 49.78-20.288 5.691-41.285 11.548-61.475 17.848-63.805 19.897-139.745 41.065-219.238 46.925-11.682.852-23.912 1.293-36.339 1.293-49.536 0-97.916-6.713-144.706-13.208-38.05-5.297-85.42-11.89-131.66-11.89-78.63 0-137.28 19.75-179.33 60.4-45.26 43.715-81.05 107.8-98.2 175.842-19.99 79.31-5.4 162.758 9.56 226.6 17.54 74.866 47.3 124.61 90.99 152.063 6.23 3.905 12.95 7.812 20.07 11.95 34.59 20.07 73.8 42.81 82.79 81.69 7.39 32.02-8.74 60.413-40.16 70.655-7.61 2.478-15.65 3.735-23.9 3.735-19.35 0-40.43-6.775-64.43-20.702-12.25-7.093-24.02-15.333-35.39-23.293-17.47-12.218-35.52-24.84-55.47-33.495-26.37-11.427-56.93-18.237-93.48-20.825-12.45-.88-25.27-1.307-39.14-1.307-38.62 0-78.56 3.467-117.19 6.812-38.86 3.37-79.07 6.86-118.21 6.86-60.28 0-108.67-8.312-152.29-26.172-51.71-21.156-94.44-62.623-127.01-123.218-38.67-72.01-70.09-142.785-93.4-210.362-26.05-75.538-21.32-144.153 14.08-203.934 26.57-44.872 61.38-84.666 95.05-123.142 11.93-13.625 24.27-27.735 36.03-41.822 11.28-13.5 22.27-27.857 32.89-41.723 27.68-36.11 56.27-73.442 93.43-100.952 56.93-42.21 127.74-47.07 176.03-47.07 7.22 0 14.6.1 22.53.34 18.63.59 37.79 1.88 56.32 3.15 25.32 1.71 51.52 3.49 77.18 3.49 33.27 0 60.54-2.95 85.86-9.25 49.27-12.31 90.91-41.77 131.19-70.29 15.8-11.18 32.14-22.75 48.72-33.13 36.95-23.1 77.49-41.65 116.7-59.62 27.54-12.6 56-25.63 82.93-40.11 50.47-27.15 96.97-61.33 141.95-94.38 13.15-9.7 26.77-19.68 40.32-29.4 64.35-46.14 120.283-67.63 176.008-67.63z"/><path d="M1293.66 250.47c-4.84-29.795-18.92-81.957-59.08-99.267-11.08-4.773-22.98-7.19-35.39-7.19-33.64 0-72 17.384-114 51.684-68.03 55.531-120.865 151.308-134.62 244.008-4.31 29.027-4.492 66.54 19.103 80.505 7.35 4.345 15.832 6.555 25.232 6.555 32.105 0 70.125-25.39 95.285-42.187 2.83-1.893 5.53-3.688 8.07-5.361 14.58-9.57 29.64-18.857 44.21-27.829 29.52-18.178 60.03-36.975 87.53-58.888 19.74-15.723 36.15-34.533 51.65-59.167 13.89-22.096 13.04-49.743 12.2-76.478-.06-2.135-.13-4.272-.19-6.385zm-94.47-116.6h.01c13.77.012 27.01 2.697 39.34 8.02 44.73 19.275 60 75.5 65.12 107.3l.06.67c.06 2.21.12 4.432.19 6.678.84 26.952 1.78 57.495-13.76 82.214-16.12 25.636-33.25 45.241-53.9 61.695-27.98 22.29-58.75 41.248-88.51 59.583-14.52 8.948-29.53 18.187-43.97 27.673-2.53 1.659-5.2 3.442-8.01 5.322-26.17 17.468-65.71 43.872-100.855 43.872-11.217 0-21.422-2.674-30.335-7.947-22.827-13.513-30.882-44.042-23.962-90.735 14.112-95.068 68.372-193.36 138.242-250.39 43.84-35.803 84.33-53.955 120.34-53.955zM879.975-429.229c-24.707-122.14-108.677-235.45-214-288.67-39.587-19.99-82.252-30.59-123.365-30.59-25.537 0-50.597 4-74.462 11.91-53.065 17.53-100.508 51.25-146.408 83.84-13.22 9.4-26.9 19.12-40.38 28.2-42.51 28.64-87.43 55-130.88 80.49-23.82 13.99-48.46 28.44-72.35 43.07-28.54 17.48-54.96 39.5-78.54 65.43-12.95 14.23-24.19 30.47-35.07 46.17-9.96 14.38-20.27 29.24-32 42.82-20.23 23.39-48.14 34.762-85.31 34.762-24.56 0-49.8-4.712-74.19-9.252-9.13-1.71-17.75-3.29-26.17-4.64-51.32-8.1-104.38-16.5-156.86-16.5-25.71 0-49.05 1.98-71.34 6.03-36.11 6.57-68.58 18.7-96.53 36.083-19.83 12.327-37.02 28.76-53.62 44.627-8.33 7.96-16.94 16.163-25.83 23.852-15.65 13.526-29.49 29.861-42.89 45.68-7.45 8.766-15.14 17.846-23.07 26.368-2.99 3.172-5.96 6.372-8.94 9.57-22.17 23.68-45.1 48.193-64.58 74.645-29.88 40.54-62.23 104.603-46.68 179.565 11.6 55.897 40.53 108.107 68.51 158.595 5.3 9.557 10.79 19.458 15.99 29.112 27.52 50.94 63.28 106.885 120.21 135.536 43.29 21.815 93.61 31.532 163.14 31.532 11.82 0 24.68-.27 39.36-.83l7.83-.295c69.51-2.635 141.39-5.345 206.01-31.458 66.53-26.867 64.62-92.832 56.98-158.105-1.49-12.767-3.25-26.037-4.93-38.867-7.74-58.91-15.75-119.812-7.18-177.685 8.52-57.58 32.3-112.877 55.33-166.345 3.99-9.303 7.98-18.58 11.85-27.782 1.74-4.151 3.47-8.351 5.22-12.598 9.56-23.317 19.45-47.412 34.76-67.433 21.24-27.782 52.78-33.887 80.83-36.182 8.9-.733 18.25-1.098 27.8-1.098 42.95 0 86.45 7.373 128.5 14.503 12.23 2.075 24.88 4.223 37.17 6.103 20.37 3.149 41.14 6.762 61.21 10.229 51.1 8.888 103.91 18.043 156.025 20.703 7.788.415 15.735.61 23.61.61 58.153 0 117.968-10.595 182.86-32.347 70.363-23.61 129.225-49 179.958-77.613 52.952-29.855 77.317-67.455 72.422-111.745zm-337.377-329.39h.012c42.675 0 86.903 10.96 127.88 31.66 54.238 27.42 103.493 70.02 142.433 123.25 38.05 51.97 64.66 111.69 76.952 172.7l.073.44c5.508 48.8-20.568 89.82-77.478 121.923-51.292 28.929-110.73 54.565-181.699 78.37-65.931 22.117-126.783 32.884-186.036 32.884-8.045 0-16.162-.219-24.122-.61-52.713-2.71-105.833-11.915-157.223-20.824-20.03-3.493-40.74-7.08-61.03-10.205-12.36-1.906-25.04-4.078-37.31-6.153-41.65-7.055-84.72-14.355-126.83-14.355-9.28 0-18.35.365-26.98 1.072-25.86 2.101-54.83 7.618-73.67 32.253-14.5 18.97-24.13 42.43-33.44 65.112-1.76 4.273-3.5 8.521-5.26 12.696-3.88 9.227-7.87 18.505-11.89 27.854-22.75 52.87-46.29 107.546-54.59 163.808-8.35 56.47-.44 116.65 7.21 174.865 1.68 12.867 3.44 26.172 4.93 39.015 7.76 66.137 9.91 139.16-63.21 168.7-66.26 26.757-139.01 29.505-209.38 32.165l-7.83.305c-14.8.563-27.81.83-39.75.83-71.17 0-122.87-10.045-167.65-32.593-59.4-29.919-96.29-87.437-124.54-139.757-5.2-9.62-10.66-19.482-15.94-29.028-28.34-51.147-57.66-104.042-69.58-161.452-12.91-62.255 3.86-127.16 48.46-187.683 19.83-26.927 42.97-51.635 65.34-75.56 2.95-3.174 5.93-6.372 8.91-9.547 7.76-8.35 15.38-17.332 22.75-26.025 13.65-16.088 27.78-32.74 43.99-46.777 8.72-7.521 17.24-15.651 25.47-23.511 16.99-16.234 34.57-33.007 55.25-45.899 29.03-18.043 62.69-30.663 100.02-37.453 22.93-4.15 46.85-6.18 73.15-6.18 53.27 0 106.71 8.45 158.42 16.63 8.57 1.37 17.24 2.98 26.44 4.69 23.95 4.44 48.73 9.06 72.36 9.06 34.56 0 59.26-9.94 77.71-31.28 11.39-13.16 21.54-27.81 31.35-41.97 11.06-15.96 22.5-32.47 35.9-47.21 24.22-26.64 51.38-49.25 80.73-67.22 23.98-14.69 48.65-29.17 72.51-43.18 43.32-25.42 88.11-51.71 130.36-80.15 13.37-9.01 27-18.71 40.17-28.05 46.5-33.04 94.578-67.19 149.07-85.21 24.878-8.23 50.988-12.4 77.588-12.4z"/><path d="M1062.92 412.373c24.63 0 58.29-17.248 70.98-23.743 30.16-15.452 99.35-58.777 90.24-127.135-9.15-33.423-32.7-40.468-50.84-40.468-17.32-.012-37.87 6.593-56.38 18.116-23.92 14.879-44.45 36.585-59.38 62.782-7.69 13.5-31.93 60.142-21.11 93.65 3.61 11.145 12.52 16.798 26.49 16.798zM1173.3 218.49c19.02 0 43.69 7.372 53.3 42.503 9.36 70.13-60.92 114.197-91.57 129.895-12.82 6.567-46.87 24.012-72.11 24.012-15.19 0-24.91-6.237-28.89-18.543-11.15-34.497 13.51-81.969 21.33-95.69 15.13-26.562 35.96-48.584 60.24-63.685 18.89-11.754 39.93-18.492 57.7-18.492zM486.385 326.826c19.75 0 39.208-9.702 53.406-26.622 14.964-17.835 21.739-41.298 18.139-62.745-9.51-32.983-46.607-47.815-79.137-47.815h-.013c-33.337-.001-60.805 14.477-71.68 37.794-5.99 12.852-5.98 26.818.06 41.491 10.963 26.684 37.623 46.717 57.765 54.052 7.005 2.553 14.233 3.845 21.46 3.845zm-7.605-139.72h.013c33.47.013 71.677 15.405 81.59 49.792 3.76 22.315-3.235 46.545-18.675 64.94-14.675 17.493-34.828 27.516-55.323 27.516-7.52 0-15.027-1.343-22.315-3.991-20.642-7.52-47.985-28.077-59.24-55.457-6.23-15.15-6.23-30.2 0-43.543 11.291-24.207 39.623-39.257 73.95-39.257z"/></g></svg>
