<svg viewBox="0 0 2830 461" xmlns="http://www.w3.org/2000/svg" xml:space="preserve" fill-rule="evenodd" clip-rule="evenodd" stroke-linejoin="round" stroke-miterlimit="2"><path fill="none" d="M0-.002h2829.934v460.136H0z"/><path d="M382.375 2.09h-303.8c-20.1-.2-39.5 7.7-53.8 22-7 7.1-12.6 15.4-16.4 24.7-3.8 9.2-5.7 19.1-5.6 29.1v303.9c0 41.2 33.9 75 75 75h304c20.1.2 39.5-7.7 53.8-22 14.3-14.2 22.2-33.7 22-53.8V77.09c0-41.1-34-75-75.2-75zm-247.7 259.2-1.5 47-24.3-7.6v-45.5l-15.2-4.5 30.3-36.4 25.8 50-15.1-3zm81.8-36.4-13.6 107.6-30.3-12.1 7.6-103.1-19.7-6.1 42.4-44 34.9 63.7-21.3-6zm121.3-48.5-45.5 189.5-42.4-16.7 39.4-181.9-31.8-9.1 71.2-65.2 37.9 89.4-28.8-6z" fill-rule="nonzero"/><path d="M733.375 144.59c-11.6-6.4-24.7-9.5-37.9-9.1h-78.8v198.6h42.4v-63.7h34.9c13.7.4 27.3-2.7 39.4-9.1 10.5-5.2 19-13.7 24.3-24.3 12.1-21.6 12.1-48.1 0-69.7a58.5 58.5 0 0 0-24.3-22.7zm-15.1 75.8c-2.8 5.1-7 9.3-12.1 12.1-6 3.3-12.8 4.9-19.7 4.5h-28.8v-68.2h28.8c6.9-.3 13.7 1.3 19.7 4.5 5.1 2.8 9.3 7 12.1 12.1 3.1 5 4.7 10.8 4.5 16.7.2 6.5-1.4 12.7-4.5 18.3zm177.3-27.3c-12.1-6.4-25.7-9.5-39.4-9.1-13.7-.2-27.2 2.9-39.4 9.1-11.1 6.3-20.1 15.8-25.8 27.3-6.4 12.7-9.5 26.7-9.1 40.9-.4 13.7 2.7 27.3 9.1 39.4 5.2 11.8 14.3 21.4 25.8 27.3 24.9 12.1 54 12.1 78.8 0 11.1-6.3 20.1-15.8 25.8-27.3 6.2-12.2 9.3-25.7 9.1-39.4.2-14.2-2.9-28.2-9.1-40.9-5.7-11.5-14.6-21-25.8-27.3zm-10.6 89.4c-2.6 6.1-6.2 11.7-10.6 16.7-4.5 4.2-10.5 6.4-16.7 6.1-6.2.6-12.3-1.6-16.7-6.1-4.7-4.7-8.3-10.4-10.6-16.7-2.5-7.3-3.5-15-3-22.7.2-7.7 1.2-15.3 3-22.7 2.6-6.1 6.2-11.7 10.6-16.7 4.5-4.2 10.5-6.4 16.7-6.1 6.2-.6 12.3 1.7 16.7 6.1 4.7 4.7 8.4 10.4 10.6 16.7 2.6 7.3 3.6 15 3 22.7-.1 7.7-1.1 15.3-3 22.7zm186.5-21.2c7.4 6.4 11.3 16 10.6 25.8 0 9.4-3.2 18.5-9.1 25.8-5.8 7.6-13.7 13.4-22.7 16.7-11.2 3.9-23 5.9-34.9 6.1-16.5.5-32.8-3.7-47-12.1-11.3-7.5-18.5-19.8-19.7-33.3l40.9-1.5c1.2 5.5 4.4 10.4 9.1 13.6 11.4 6.1 25 6.1 36.4 0 3.9-2.1 6.2-6.2 6.1-10.6.1-3.6-1.6-7-4.6-9.1-3.9-3.2-8.6-5.3-13.6-6.1l-25.8-4.5c-12-1.2-23.3-6.6-31.8-15.2-7.2-7.2-11-17.1-10.6-27.3 0-8.7 2.6-17.1 7.6-24.3 5.6-7.9 13.6-13.7 22.7-16.7 10.7-3.7 22-5.8 33.3-6.1 15.6-.6 30.9 3.7 44 12.1 10.5 7.4 17.2 19 18.2 31.8l-39.4 3c-.1-1.7-.6-3.4-1.4-5-.8-1.6-1.8-3-3.2-4.1-2.1-3.2-5.4-5.4-9.1-6.1-3.8-1.9-7.9-2.9-12.1-3-5.9-.1-11.7 1.5-16.7 4.5-3.9 2-6.3 6.2-6.1 10.6.2 3.5 1.9 6.8 4.5 9.1 4.4 3.5 9.6 5.6 15.2 6.1l27.3 6.1c11.6 1.9 22.6 6.5 31.9 13.7zm112.2 39.4 6.1 30.3c-3.1.8-6.1 1.8-9.1 3-4.4 1.3-9 1.8-13.6 1.5-8.8.2-17.6-1.3-25.8-4.5-7-2.4-13-7.2-16.7-13.6-3.8-7.5-5.9-15.8-6.1-24.3v-77.3h-19.7v-30.3h19.7v-36.4h40.9v36.4h27.3v30.3h-27.3v72.8c-.4 3.1.2 6.3 1.5 9.1l4.5 4.5c2.3 1.4 5 1.9 7.6 1.5h6.1c1.5.1 3-3 4.6-3zm151.5-165.2-68.2 198.6h45.5l15.2-45.5h71.2l15.2 45.5h45.5l-69.8-198.6h-54.6zm3.1 119.8 24.3-75.8h1.5l24.3 75.8h-50.1zm187.9-80.4v10.6h30.3v30.3h-30.3v118.2h-40.9v-118.2h-21.2v-30.3h21.2v-10.6c-.5-9.5 1.6-18.9 6.1-27.3 4.4-6.6 10-12.3 16.7-16.7 8.1-3.8 16.9-5.9 25.8-6.1 5.6-.3 11.2.2 16.7 1.5 4.5 1.5 9.1 1.5 12.1 3l-7.6 30.3c-1.5 0-3-1.5-6.1-1.5h-7.6c-6.1 0-10.6 1.5-12.1 4.5-1.9 4-3 8.1-3.1 12.3zm109.2 0v10.6h30.3v30.3h-30.3v118.2h-40.9v-118.2h-21.2v-30.3h21.2v-10.6c-.5-9.5 1.6-18.9 6.1-27.3 4.4-6.6 10-12.3 16.7-16.7 8.1-3.8 16.9-5.9 25.8-6.1 5.6-.3 11.2.2 16.7 1.5 4.5 1.5 9.1 1.5 12.1 3l-7.6 30.3c-1.5 0-3-1.5-6.1-1.5h-7.6c-6.1 0-10.6 1.5-12.1 4.5-2 4-3 8.1-3.1 12.3zm92.4-45.5c6.2 6.1 8.1 15.3 4.7 23.3-3.4 8-11.2 13.2-19.9 13.1-5.7.6-11.4-1.7-15.2-6.1-4-4-6.3-9.4-6.3-15.1 0-11.7 9.6-21.3 21.3-21.3h.2c5.6.5 10.9 2.6 15.2 6.1zm-36.3 56.1h40.9v148.6h-40.9v-148.6zm75.8-50h40.9v198.6h-40.9v-198.6zm75.7 50h40.9v148.6h-40.9v-148.6zm36.4-56.1c6.2 6.1 8.1 15.3 4.7 23.3-3.4 8-11.2 13.2-19.9 13.1-5.7.6-11.4-1.7-15.2-6.1-4-4-6.3-9.4-6.3-15.1 0-11.7 9.6-21.3 21.3-21.3h.2c5.6.8 10.8 2.8 15.2 6.1zm144 65.2c-5.8-4.5-12.5-7.6-19.7-9.1-8-1.8-16.1-2.9-24.3-3-10.9-.5-21.8 1.6-31.8 6.1-8.6 3.2-16.4 8.4-22.7 15.2-5.5 6.7-9.6 14.4-12.1 22.7l37.9 3c1.6-4.9 4.8-9.2 9.1-12.1 5.5-3.3 11.8-4.9 18.2-4.5 5.9-.3 11.8 1.3 16.7 4.5 4.4 3.1 6.7 8.3 6.1 13.6-.1 2.8-1.1 5.5-3 7.6-3.7 2.1-7.9 3.1-12.1 3-7.1.5-14.2 1.5-21.2 3-7.2.3-14.3 1.3-21.2 3-6.3 1.9-12.4 4.4-18.2 7.6-5.2 3.4-9.3 8.1-12.1 13.6-3.3 6.6-4.8 13.9-4.5 21.2-.5 8.5 1.6 17 6.1 24.3 4.6 6.6 10.9 11.8 18.2 15.2 8.2 3.2 17 4.8 25.8 4.5 6.7-.2 13.3-1.2 19.7-3 5.5-1.6 10.6-4.2 15.2-7.6 4.3-2.9 7.5-7.2 9.1-12.1h1.5v21.2h39.4v-100c.3-7.8-1.3-15.6-4.5-22.7-4.7-5.8-9.8-10.9-15.6-15.2zm-21.2 86.4c.1 4.9-1.5 9.8-4.5 13.6-2.3 4.2-6.1 7.4-10.6 9.1-5.2 2.6-10.9 3.6-16.7 3-5.4.4-10.8-1.3-15.2-4.5-3.5-3.1-5.6-7.5-6.1-12.1-.2-3.3.9-6.6 3-9.1 2.1-3.2 5.4-5.4 9.1-6.1 3.8-1.7 7.9-2.7 12.1-3 2.6.1 5.2-.4 7.6-1.5 2.6-.3 5.1-.9 7.6-1.5 3 0 4.5-1.5 7.6-1.5 1.5 0 4.5-1.5 4.5-3v16.7h1.6v-.1zm147.1 19.7 6.1 30.3c-3.1.8-6.1 1.8-9.1 3-4.4 1.3-9 1.8-13.6 1.5-8.8.2-17.6-1.3-25.8-4.5-7-2.4-13-7.2-16.7-13.6-3.8-7.5-5.9-15.8-6.1-24.3v-77.3h-19.7v-30.3h19.7v-36.4h40.9v36.4h27.3v30.3h-27.3v72.8c-.4 3.1.2 6.3 1.5 9.1l4.5 4.5c2.3 1.4 5 1.9 7.6 1.5h6.1c1.5.1 3-3 4.6-3zm140.899-98.5c-6.4-6.3-14.2-10.9-22.7-13.6-8.8-3-18-4.5-27.3-4.5-13.2-.4-26.3 2.7-37.9 9.1-11.1 6.3-20.1 15.8-25.8 27.3-6.4 12.7-9.5 26.7-9.1 40.9-.2 14.2 2.9 28.2 9.1 40.9 6.1 11.2 15 20.5 25.8 27.3 12.1 6.4 25.7 9.5 39.4 9.1 10.9.5 21.8-1.6 31.8-6.1 8.6-3.2 16.4-8.4 22.7-15.2 6.4-6.7 10.6-15.1 12.1-24.3l-37.9-3c-1.5 3-3 7.6-6.1 9.1-3.1 1.5-6.1 4.5-9.1 6.1-3.9 1.2-8 1.8-12.1 1.5-6.4.1-12.6-1.5-18.2-4.5-4.8-3.3-8.9-7.4-12.1-12.1-3.1-6.1-4.7-12.9-4.5-19.7h101.6v-10.6c.5-11.4-1.6-22.8-6.1-33.3-1-9.7-5.9-18.5-13.6-24.4zm-80.3 42.4c-.1-5.4 1.5-10.7 4.5-15.2 2.7-4.7 6.3-8.8 10.6-12.1 5-3.1 10.8-4.7 16.7-4.5 5.4-.1 10.7 1.5 15.2 4.5 4.3 2.7 7.9 6.4 10.6 10.6 2.9 4.5 4.5 9.8 4.5 15.2h-62.1v1.5zm309.2-100c-11.6-6.4-24.7-9.5-37.9-9.1h-78.8v198.6h42.4v-63.7h34.9c13.7.4 27.3-2.7 39.4-9.1 10.5-5.2 19-13.7 24.3-24.3 12.1-21.6 12.1-48.1 0-69.7-5.7-9.7-14.2-17.6-24.3-22.7zm-15.1 75.8c-2.8 5.1-7 9.3-12.1 12.1-6 3.3-12.8 4.9-19.7 4.5h-28.8v-68.2h28.8c6.9-.3 13.7 1.3 19.7 4.5 5.1 2.8 9.3 7 12.1 12.1 3.1 5 4.7 10.8 4.5 16.7.1 6.5-1.4 12.7-4.5 18.3zm156.1-37.9c3 0 4.5 0 6.1 1.5v36.4c-2.5-.7-5-1.2-7.6-1.5h-9.1c-5.9-.1-11.7 1.5-16.7 4.5-4.6 2.3-8.3 6-10.6 10.6-3.1 5-4.7 10.8-4.5 16.7v84.9h-40.9v-148.6h39.4v25.8h1.5c2.3-8.3 7.1-15.7 13.6-21.2 6.5-5 14.5-7.6 22.7-7.6 1.5-1.5 3.1-1.5 6.1-1.5zm157.6 36.4c-5.2-11.8-14.3-21.4-25.8-27.3-12.1-6.4-25.7-9.5-39.4-9.1-13.7-.2-27.2 2.9-39.4 9.1-11.1 6.3-20.1 15.8-25.8 27.3-6.4 12.7-9.5 26.7-9.1 40.9-.4 13.7 2.7 27.3 9.1 39.4 5.2 11.8 14.3 21.4 25.8 27.3 24.9 12.1 54 12.1 78.8 0 11.1-6.3 20.1-15.8 25.8-27.3 6.2-12.2 9.3-25.7 9.1-39.4.3-14.2-2.9-28.2-9.1-40.9zm-36.3 63.6c-2.6 6.1-6.2 11.7-10.6 16.7-4.5 4.2-10.5 6.4-16.7 6.1-6.2.6-12.3-1.6-16.7-6.1-4.7-4.7-8.4-10.4-10.6-16.7-2.5-7.3-3.5-15-3-22.7.2-7.7 1.2-15.3 3-22.7 2.6-6.1 6.2-11.7 10.6-16.7 4.5-4.2 10.5-6.4 16.7-6.1 6.2-.6 12.3 1.7 16.7 6.1 4.7 4.7 8.4 10.4 10.6 16.7 4 14.8 4 30.6 0 45.4" fill="#050505" fill-rule="nonzero"/></svg>
