<svg width="1858" height="241" viewBox="0 0 1858 241" fill="none" xmlns="http://www.w3.org/2000/svg">
<path d="M200.826 240.998H40.1651C34.8747 241.045 29.6304 240.048 24.737 238.044C19.8344 236.04 15.3934 233.086 11.654 229.347C7.9055 225.607 4.951 221.157 2.9567 216.264C0.953165 211.361 -0.0532284 206.117 0.00216884 200.826V40.1651C-0.0532284 34.8747 0.953165 29.6305 2.9567 24.7371C4.951 19.8344 7.9055 15.3934 11.654 11.654C15.3934 7.9055 19.8344 4.95105 24.737 2.95675C29.6304 0.953222 34.8747 -0.0532285 40.1651 0.00216873H200.826C206.117 -0.0532285 211.361 0.953222 216.264 2.95675C221.157 4.95105 225.607 7.9055 229.347 11.654C233.086 15.3934 236.04 19.8344 238.044 24.7371C240.047 29.6305 241.045 34.8747 240.989 40.1651V200.826C241.045 206.117 240.047 211.361 238.044 216.264C236.04 221.157 233.086 225.607 229.347 229.347C225.607 233.086 221.157 236.04 216.264 238.044C211.361 240.048 206.117 241.045 200.826 240.998Z" fill="#118AF7"/>
<path d="M163.857 163.618C151.66 163.618 141.255 156.425 136.592 146.011C130.85 148.162 118.653 152.474 112.199 154.634C112.91 157.146 113.27 159.657 113.27 162.177C113.27 178.704 100.003 192 83.1341 192C66.635 192 52.998 178.704 52.998 162.177C52.998 145.651 66.2749 132.355 83.1341 132.355C84.5745 132.355 85.6455 132.355 87.0858 132.715L91.3883 107.925C78.1115 104.694 68.4262 92.8294 68.4262 78.8231C68.4262 62.2963 81.703 49.001 98.5622 49.001C115.421 49.001 128.698 62.2963 128.698 78.8231C128.698 85.6462 126.547 91.7584 122.605 96.7811C125.827 99.3017 136.592 107.565 142.695 112.597C148.069 107.205 155.612 103.973 163.857 103.973C180.365 103.973 193.993 117.269 193.993 133.796C193.993 150.322 180.365 163.618 163.857 163.618V163.618ZM119.733 99.6618C114.35 105.405 106.816 108.645 98.2022 108.645C97.1312 108.645 95.6908 108.645 94.6198 108.285L90.6682 133.075C100.003 135.587 107.527 142.059 111.119 151.043C117.582 148.522 129.779 144.21 135.161 142.059C134.441 139.178 133.721 136.307 133.721 133.436C133.721 126.603 136.232 120.14 139.824 115.108C133.721 110.437 122.605 101.813 119.733 99.6618V99.6618Z" fill="white"/>
<path d="M387.193 75.5178C381.053 72.1386 374.119 70.4767 367.111 70.6983H325.342V175.925H347.833V142.188H366.308C373.565 142.401 380.757 140.739 387.193 137.369C392.769 134.608 397.284 130.093 400.045 124.517C403.203 118.866 404.864 112.505 404.864 106.042C404.864 99.5694 403.203 93.208 400.045 87.5668C397.017 82.3871 392.548 78.2046 387.193 75.5178ZM379.16 115.681C377.664 118.386 375.439 120.611 372.734 122.107C369.53 123.843 365.929 124.674 362.292 124.517H347.03V88.37H362.292C365.929 88.2131 369.53 89.044 372.734 90.7798C375.439 92.2755 377.664 94.5006 379.16 97.2058C380.794 99.8557 381.635 102.921 381.57 106.042C381.635 109.412 380.804 112.736 379.16 115.681V115.681ZM473.141 101.222C466.715 97.8429 459.523 96.181 452.257 96.4026C445.009 96.2825 437.835 97.9352 431.372 101.222C425.481 104.574 420.727 109.606 417.717 115.681C414.347 122.402 412.685 129.853 412.897 137.369C412.685 144.626 414.347 151.818 417.717 158.254C420.486 164.495 425.306 169.592 431.372 172.712C437.881 175.888 445.018 177.532 452.257 177.532C459.495 177.532 466.642 175.888 473.141 172.712C479.032 169.361 483.796 164.329 486.806 158.254C490.084 151.791 491.746 144.617 491.626 137.369C491.736 129.862 490.093 122.43 486.806 115.681C483.796 109.606 479.032 104.574 473.141 101.222ZM467.519 148.614C466.125 151.837 464.232 154.819 461.896 157.45C460.714 158.549 459.329 159.398 457.806 159.952C456.292 160.506 454.676 160.746 453.06 160.663C451.444 160.82 449.81 160.608 448.287 160.054C446.754 159.491 445.369 158.604 444.224 157.45C441.722 154.957 439.802 151.938 438.601 148.614C437.281 144.746 436.736 140.646 436.995 136.566C437.087 132.503 437.623 128.459 438.601 124.517C439.996 121.294 441.898 118.312 444.224 115.681C445.406 114.582 446.8 113.723 448.314 113.179C449.838 112.625 451.453 112.385 453.06 112.468C454.685 112.311 456.319 112.523 457.843 113.077C459.375 113.631 460.76 114.517 461.896 115.681C464.407 118.174 466.328 121.193 467.519 124.517C468.894 128.376 469.439 132.485 469.134 136.566C469.042 140.628 468.507 144.672 467.519 148.614ZM566.329 137.369C568.259 139.049 569.773 141.164 570.751 143.536C571.721 145.9 572.136 148.467 571.952 151.024C571.942 155.992 570.244 160.811 567.132 164.68C564.058 168.733 559.875 171.798 555.083 173.515C549.137 175.574 542.896 176.655 536.608 176.729C527.865 177.015 519.214 174.79 511.707 170.302C508.753 168.327 506.287 165.704 504.478 162.648C502.677 159.592 501.579 156.167 501.265 152.631L522.953 151.827C523.571 154.764 525.298 157.358 527.772 159.057C530.736 160.636 534.051 161.467 537.412 161.467C540.772 161.467 544.078 160.636 547.051 159.057C548.066 158.521 548.897 157.709 549.47 156.712C550.042 155.714 550.31 154.579 550.264 153.434C550.291 152.492 550.079 151.56 549.663 150.719C549.239 149.879 548.62 149.159 547.854 148.614C545.767 146.925 543.274 145.808 540.625 145.401L526.969 142.992C520.58 142.345 514.625 139.502 510.101 134.959C508.217 133.066 506.74 130.804 505.77 128.321C504.81 125.828 504.367 123.169 504.478 120.5C504.45 115.902 505.854 111.415 508.494 107.648C511.449 103.484 515.677 100.382 520.543 98.8123C526.23 96.8273 532.195 95.7378 538.215 95.5993C546.46 95.2854 554.594 97.5289 561.509 102.025C564.251 103.955 566.541 106.466 568.212 109.384C569.874 112.302 570.881 115.542 571.148 118.894L550.264 120.5C550.199 119.577 549.959 118.672 549.543 117.841C549.128 117.02 548.556 116.281 547.854 115.681C547.309 114.85 546.598 114.13 545.767 113.576C544.946 113.022 544.013 112.652 543.034 112.468C541.04 111.461 538.843 110.917 536.608 110.861C533.488 110.797 530.422 111.628 527.772 113.271C526.757 113.807 525.917 114.619 525.353 115.616C524.781 116.613 524.504 117.749 524.559 118.894C524.615 119.817 524.864 120.722 525.27 121.544C525.686 122.375 526.267 123.113 526.969 123.713C529.277 125.541 532.066 126.659 535.002 126.926L549.46 130.14C555.6 131.081 561.408 133.574 566.329 137.369V137.369ZM625.77 158.254L628.983 174.319C627.34 174.725 625.724 175.26 624.163 175.925C621.828 176.636 619.372 176.904 616.934 176.729C612.272 176.858 607.627 176.036 603.279 174.319C599.558 173.063 596.409 170.496 594.443 167.089C592.439 163.092 591.341 158.706 591.23 154.237V113.271H580.788V97.2058H591.23V77.9276H612.918V97.2058H627.377V113.271H612.918V151.827C612.724 153.48 613.001 155.151 613.721 156.647L616.131 159.057C617.34 159.786 618.762 160.072 620.147 159.86H623.36C624.164 159.86 624.967 158.254 625.77 158.254ZM706.105 70.6983L669.959 175.925H694.056L702.089 151.827H739.842L747.875 175.925H771.972L735.023 70.6983H706.105ZM707.712 134.156L720.564 93.9928H721.367L734.219 134.156H707.712ZM807.316 91.583V97.2058H823.381V113.271H807.316V175.925H785.628V113.271H774.382V97.2058H785.628V91.583C785.36 86.5604 786.468 81.5561 788.841 77.1243C791.158 73.6066 794.159 70.5967 797.677 68.2793C801.961 66.285 806.614 65.1862 811.332 65.0754C814.305 64.9 817.278 65.1678 820.168 65.8695C822.578 66.6728 824.988 66.6728 826.594 67.4853L822.578 83.5504C821.775 83.5504 820.971 82.7471 819.365 82.7471H815.348C812.135 82.7471 809.726 83.5504 808.922 85.1569C807.925 87.1512 807.371 89.3487 807.316 91.583ZM865.16 91.583V97.2058H881.225V113.271H865.16V175.925H843.463V113.271H832.217V97.2058H843.463V91.583C843.195 86.5604 844.312 81.5561 846.685 77.1243C848.993 73.6066 852.003 70.5967 855.521 68.2793C859.796 66.285 864.449 65.1862 869.176 65.0754C872.14 64.9 875.122 65.1678 878.012 65.8695C880.422 66.6728 882.831 66.6728 884.438 67.4853L880.422 83.5504C879.618 83.5504 878.815 82.7471 877.209 82.7471H873.192C869.979 82.7471 867.57 83.5504 866.766 85.1569C865.76 87.1512 865.215 89.3487 865.16 91.583ZM914.159 67.4853C915.765 69.0549 916.864 71.0768 917.307 73.2742C917.759 75.4808 917.538 77.7615 916.67 79.8389C915.802 81.9163 914.334 83.6797 912.46 84.9169C910.576 86.1541 908.37 86.7912 906.126 86.7635C904.63 86.9112 903.116 86.6988 901.713 86.1449C900.319 85.5817 899.072 84.6953 898.093 83.5504C896.487 81.9716 895.388 79.9589 894.945 77.7522C894.493 75.5456 894.714 73.265 895.582 71.1876C896.45 69.1102 897.909 67.3467 899.792 66.1095C901.667 64.8723 903.873 64.2352 906.126 64.2721C909.071 64.4845 911.878 65.6018 914.159 67.4853ZM894.88 97.2058H916.568V175.925H894.88V97.2058ZM935.043 70.6983H956.731V175.925H935.043V70.6983ZM975.206 97.2058H996.894V175.925H975.206V97.2058ZM994.485 67.4853C996.091 69.0549 997.19 71.0768 997.642 73.2742C998.085 75.4808 997.864 77.7615 996.996 79.8389C996.137 81.9163 994.669 83.6797 992.786 84.9169C990.911 86.1541 988.705 86.7912 986.452 86.7635C984.956 86.9112 983.442 86.6988 982.039 86.1449C980.645 85.5817 979.398 84.6953 978.419 83.5504C976.813 81.9716 975.723 79.9589 975.271 77.7522C974.828 75.5456 975.049 73.265 975.908 71.1876C976.776 69.1102 978.244 67.3467 980.118 66.1095C982.002 64.8723 984.208 64.2352 986.452 64.2721C989.37 64.623 992.13 65.731 994.485 67.4853ZM1070.79 102.025C1067.75 99.6248 1064.16 97.9722 1060.36 97.2058C1056.13 96.2271 1051.84 95.6824 1047.51 95.5993C1041.71 95.3408 1035.94 96.4395 1030.64 98.8123C1026.06 100.52 1021.92 103.272 1018.59 106.845C1015.67 110.4 1013.49 114.49 1012.16 118.894L1032.25 120.5C1033.1 117.887 1034.79 115.625 1037.07 114.074C1039.97 112.339 1043.32 111.498 1046.71 111.665C1049.83 111.489 1052.94 112.329 1055.54 114.074C1056.67 114.887 1057.55 115.976 1058.13 117.25C1058.69 118.524 1058.91 119.919 1058.75 121.304C1058.72 122.79 1058.15 124.221 1057.15 125.32C1055.19 126.428 1052.97 126.982 1050.72 126.926C1046.94 127.176 1043.18 127.711 1039.48 128.533C1035.68 128.671 1031.91 129.207 1028.23 130.14C1024.88 131.127 1021.65 132.475 1018.59 134.156C1015.86 135.965 1013.64 138.458 1012.16 141.385C1010.43 144.875 1009.6 148.734 1009.75 152.631C1009.47 157.146 1010.59 161.633 1012.97 165.483C1015.4 168.982 1018.73 171.761 1022.61 173.515C1026.95 175.233 1031.59 176.055 1036.25 175.925C1039.8 175.851 1043.31 175.307 1046.71 174.319C1049.6 173.479 1052.32 172.112 1054.74 170.302C1057.01 168.751 1058.7 166.489 1059.56 163.876H1060.36V175.122H1081.25V122.107C1081.38 117.961 1080.55 113.834 1078.84 110.058C1076.57 106.993 1073.87 104.287 1070.79 102.025V102.025ZM1059.56 147.811C1059.61 150.424 1058.76 152.982 1057.15 155.041C1055.9 157.256 1053.91 158.964 1051.53 159.86C1048.8 161.236 1045.73 161.79 1042.69 161.467C1039.81 161.66 1036.96 160.802 1034.66 159.057C1032.82 157.395 1031.67 155.096 1031.43 152.631C1031.32 150.877 1031.91 149.15 1033.05 147.811C1033.59 146.98 1034.3 146.26 1035.13 145.715C1035.96 145.161 1036.89 144.783 1037.87 144.598C1039.9 143.684 1042.08 143.149 1044.3 142.992C1045.68 143.047 1047.06 142.77 1048.3 142.188C1049.67 142.004 1051.01 141.727 1052.33 141.385C1053.94 141.385 1054.74 140.582 1056.34 140.582C1057.15 140.582 1058.75 139.779 1058.75 138.975V147.811H1059.56V147.811ZM1137.47 158.254L1140.69 174.319C1139.04 174.725 1137.43 175.26 1135.87 175.925C1133.52 176.636 1131.08 176.904 1128.64 176.729C1123.98 176.858 1119.32 176.036 1114.98 174.319C1111.25 173.063 1108.11 170.496 1106.15 167.089C1104.13 163.092 1103.04 158.706 1102.93 154.237V113.271H1092.48V97.2058H1102.93V77.9276H1124.62V97.2058H1139.08V113.271H1124.62V151.827C1124.43 153.48 1124.7 155.151 1125.43 156.647L1127.83 159.057C1129.04 159.786 1130.47 160.072 1131.86 159.86H1135.06C1135.87 159.86 1136.67 158.254 1137.47 158.254V158.254ZM1212.19 106.042C1208.8 102.718 1204.66 100.243 1200.14 98.8123C1195.47 97.2335 1190.59 96.4118 1185.67 96.4026C1178.66 96.181 1171.74 97.8429 1165.6 101.222C1159.71 104.574 1154.94 109.606 1151.93 115.681C1148.56 122.402 1146.9 129.853 1147.11 137.369C1146.99 144.875 1148.65 152.308 1151.93 159.057C1155.17 164.966 1159.87 169.942 1165.6 173.515C1172.02 176.895 1179.22 178.547 1186.47 178.335C1192.27 178.594 1198.05 177.495 1203.34 175.122C1207.92 173.405 1212.06 170.663 1215.39 167.089C1218.77 163.544 1221.01 159.066 1221.83 154.237L1201.74 152.631C1200.93 154.237 1200.14 156.647 1198.52 157.45C1196.92 158.254 1195.32 159.86 1193.7 160.663C1191.63 161.328 1189.45 161.596 1187.29 161.467C1183.92 161.531 1180.58 160.7 1177.65 159.057C1175.12 157.339 1172.94 155.151 1171.21 152.631C1169.58 149.399 1168.75 145.817 1168.8 142.188H1222.62V136.566C1222.89 130.509 1221.78 124.47 1219.42 118.894C1219.12 116.373 1218.34 113.945 1217.11 111.729C1215.85 109.522 1214.18 107.593 1212.19 106.042V106.042ZM1169.6 128.533C1169.55 125.671 1170.39 122.855 1172.01 120.5C1173.45 118.007 1175.36 115.819 1177.65 114.074C1180.3 112.431 1183.36 111.6 1186.47 111.665C1189.34 111.6 1192.15 112.44 1194.51 114.074C1196.77 115.524 1198.69 117.444 1200.14 119.697C1201.66 122.098 1202.49 124.877 1202.55 127.73H1169.6V128.533V128.533ZM1831.54 175.925L1804.95 142.567V175.925H1785.17V71.3261H1804.95V130.832L1831.25 97.6213H1856.97L1822.49 136.916L1857.26 175.925H1831.54ZM1632.29 96.5872L1609.09 175.925H1587.47L1573 120.5L1558.54 175.925H1536.77L1513.43 96.5872H1533.76L1547.79 157.026L1562.98 96.5872H1584.17L1599.06 156.878L1613.1 96.5872H1632.29ZM1361.11 175.925H1339.96L1292.07 103.567V175.925H1270.93V70.329H1292.07L1339.96 142.844V70.329H1361.11V175.925V175.925ZM1500.82 158.281L1504.04 174.346C1502.39 174.753 1500.78 175.288 1499.22 175.953C1496.88 176.664 1494.43 176.932 1491.99 176.756C1487.33 176.885 1482.68 176.064 1478.33 174.346C1474.61 173.091 1471.46 170.524 1469.5 167.117C1467.49 163.119 1466.39 158.734 1466.28 154.265V113.299H1455.84V97.2335H1466.28V77.9461H1487.97V97.2335H1502.43V113.299H1487.97V151.855C1488.12 158.531 1492.93 159.888 1498.41 159.888C1499.22 159.888 1500.02 158.281 1500.82 158.281V158.281ZM1394.04 128.561C1393.98 125.689 1394.82 122.882 1396.45 120.528C1397.88 118.035 1399.79 115.847 1402.08 114.102C1404.73 112.459 1407.79 111.628 1410.91 111.692C1413.78 111.628 1416.58 112.468 1418.95 114.102C1421.2 115.552 1423.12 117.463 1424.57 119.725C1426.09 122.125 1426.92 124.904 1426.98 127.757H1394.04V128.561V128.561ZM1424.57 98.8401C1419.91 97.252 1415.03 96.4395 1410.11 96.4211C1403.09 96.2087 1396.17 97.8706 1390.03 101.241C1384.14 104.601 1379.38 109.633 1376.37 115.709C1373 122.43 1371.34 129.881 1371.55 137.397C1371.43 144.903 1373.08 152.335 1376.37 159.085C1379.61 164.994 1384.31 169.97 1390.03 173.543C1396.46 176.922 1403.65 178.575 1410.91 178.363C1416.7 178.621 1422.48 177.523 1427.77 175.15C1432.35 173.432 1436.49 170.681 1439.83 167.117C1443.21 163.572 1445.45 159.094 1446.26 154.265L1426.18 152.658C1423.25 158.457 1418.5 161.901 1411.72 161.494C1408.35 161.559 1405.01 160.728 1402.08 159.085C1399.55 157.358 1397.37 155.179 1395.65 152.658C1394.01 149.427 1393.18 145.835 1393.24 142.216H1447.06V136.593C1447.74 120.491 1440.73 103.937 1424.57 98.8401V98.8401ZM1690.65 148.642C1689.27 151.864 1687.36 154.847 1685.04 157.478C1683.86 158.577 1682.46 159.426 1680.95 159.98C1679.42 160.534 1677.82 160.774 1676.2 160.691C1674.59 160.839 1672.94 160.636 1671.43 160.082C1669.9 159.518 1668.5 158.632 1667.37 157.478C1664.86 154.985 1662.93 151.966 1661.74 148.642C1660.42 144.764 1659.88 140.674 1660.14 136.593C1660.21 132.531 1660.76 128.487 1661.74 124.544C1663.14 121.313 1665.03 118.331 1667.37 115.709C1668.55 114.601 1669.93 113.751 1671.46 113.197C1672.97 112.652 1674.59 112.412 1676.2 112.496C1677.82 112.339 1679.45 112.551 1680.99 113.105C1682.51 113.659 1683.89 114.545 1685.04 115.709C1687.54 118.201 1689.46 121.221 1690.65 124.544C1692.8 132.429 1692.8 140.748 1690.65 148.642V148.642ZM1709.93 114.905C1707.18 108.664 1702.35 103.558 1696.28 100.447C1689.86 97.0673 1682.66 95.4055 1675.4 95.627C1668.14 95.4978 1660.98 97.1597 1654.51 100.447C1648.62 103.798 1643.87 108.83 1640.86 114.905C1637.49 121.627 1635.83 129.078 1636.04 136.593C1635.82 143.85 1637.48 151.043 1640.86 157.478C1643.63 163.719 1648.45 168.816 1654.51 171.937C1661.01 175.104 1668.15 176.756 1675.4 176.756C1682.64 176.756 1689.77 175.104 1696.28 171.937C1702.17 168.585 1706.92 163.553 1709.93 157.478C1713.23 151.015 1714.88 143.841 1714.75 136.593C1714.88 129.087 1713.23 121.654 1709.93 114.905ZM1770.98 95.627C1772.59 95.627 1773.4 95.627 1774.19 96.4211V115.709C1772.87 115.358 1771.53 115.09 1770.18 114.905H1765.36C1762.24 114.841 1759.17 115.672 1756.52 117.315C1754.09 118.534 1752.12 120.51 1750.91 122.938C1749.26 125.588 1748.42 128.653 1748.5 131.774V176.756H1726.8V98.0368H1747.68V111.692H1748.5C1749.72 107.307 1752.24 103.383 1755.73 100.447C1759.18 97.8152 1763.43 96.4026 1767.77 96.4211C1768.57 95.627 1769.37 95.627 1770.98 95.627Z" fill="#050505"/>
</svg>
