<svg width="988" height="475" fill="none" xmlns="http://www.w3.org/2000/svg"><path d="M988 237.5C988 368.668 881.668 475 750.5 475H16c-8.836 0-16-7.163-16-16V16C0 7.164 7.163 0 16 0h734.5C881.668 0 988 106.332 988 237.5z" fill="#F5F5F7"/><mask id="a" style="mask-type:alpha" maskUnits="userSpaceOnUse" x="0" y="0" width="988" height="475"><path d="M988 237.5C988 368.668 881.668 475 750.5 475H16c-8.836 0-16-7.163-16-16V16C0 7.164 7.163 0 16 0h734.5C881.668 0 988 106.332 988 237.5z" fill="#F5F5F7"/></mask><g opacity=".2" mask="url(#a)"><path d="M142.4-55.083c25.28-28.825 69.141-31.7 97.966-6.42l45.669 40.052a8.678 8.678 0 0 1 .802 12.246L152.378 144.112c-25.28 28.825-69.14 31.699-97.966 6.419-28.825-25.28-31.7-69.14-6.42-97.966L142.4-55.083z" fill="#D8DADF"/><path d="M-25.722 461.314c-28.77-25.231-31.638-69.008-6.407-97.778l39.964-45.569a8.678 8.678 0 0 1 12.246-.803l45.569 39.964c28.77 25.232 31.639 69.009 6.407 97.779-25.231 28.77-69.008 31.639-97.779 6.407z" fill="#B0B4BB"/><path d="M-140.996 268.057c25.231-28.77 69.008-31.638 97.778-6.407l45.57 39.964a8.678 8.678 0 0 1 .802 12.246l-39.964 45.569c-25.232 28.77-69.009 31.639-97.779 6.407-28.77-25.231-31.639-69.009-6.407-97.779z" fill="#EDEFF3"/><mask id="b" style="mask-type:alpha" maskUnits="userSpaceOnUse" x="-64" y="136" width="139" height="165"><path d="M17.678 297.3a8.678 8.678 0 0 1-12.246.802l-45.618-40.008c-28.743-25.207-31.587-68.967-6.38-97.71 25.232-28.77 69.03-31.663 97.801-6.432 28.77 25.232 31.639 69.009 6.407 97.779L17.678 297.3z" fill="#D8DADF"/></mask><g mask="url(#b)"><path d="M93.15 218.326l-67.074 76.48a25.878 25.878 0 0 1-7.802 6.153 25.248 25.248 0 0 1-9.475 2.711 24.377 24.377 0 0 1-9.669-1.155 23.768 23.768 0 0 1-8.353-4.841l-74.142-65.023a23.888 23.888 0 0 1-5.894-7.652 24.502 24.502 0 0 1-2.407-9.437 25.298 25.298 0 0 1 1.456-9.746 25.92 25.92 0 0 1 5.078-8.54l67.073-76.48a25.895 25.895 0 0 1 7.807-6.144 25.281 25.281 0 0 1 9.474-2.707 24.387 24.387 0 0 1 9.667 1.153 23.778 23.778 0 0 1 8.355 4.834l74.139 65.019a23.692 23.692 0 0 1 5.897 7.649 24.303 24.303 0 0 1 2.403 9.44 25.252 25.252 0 0 1-1.45 9.746 25.864 25.864 0 0 1-5.08 8.536l-.004.004z" fill="#E4E5E9"/></g><circle cx="208.81" cy="193.688" r="69.421" transform="rotate(-48.75 208.81 193.688)" fill="#EDEFF3"/><ellipse cx="114.381" cy="301.36" rx="69.387" ry="69.421" transform="rotate(-48.75 114.381 301.36)" fill="#CED0D4"/></g></svg>