<svg xmlns="http://www.w3.org/2000/svg" width="187" height="30" fill="none"><path fill="#118AF7" d="M25 30H5a4.95 4.95 0 0 1-5-4.999V5a4.979 4.979 0 0 1 .367-1.922c.25-.61.618-1.163 1.083-1.629A4.96 4.96 0 0 1 5 0h20a4.956 4.956 0 0 1 5 5v20a4.937 4.937 0 0 1-1.45 3.551A4.949 4.949 0 0 1 25.001 30z"/><path fill="#fff" d="m8 14 1.7 3.3-1-.2-.1 3.1-1.6-.5v-3l-1-.3L8 14zm2.4-.2 1.3.4-.5 6.8 2 .8.9-7.1 1.4.4-2.3-4.2-2.8 2.9zm6.4-3.5 2.1.6-2.6 12 2.8 1.1 3-12.5 1.9.4L21.5 6l-4.7 4.3z"/><path fill="#050505" d="M48.2 9.4a4.878 4.878 0 0 0-2.5-.6h-5.2v13.1h2.8v-4.2h2.3c.904.027 1.8-.18 2.6-.6a3.54 3.54 0 0 0 1.6-1.6 4.704 4.704 0 0 0 0-4.6 3.863 3.863 0 0 0-1.6-1.5zm-1 5a2.038 2.038 0 0 1-.8.8c-.398.216-.847.32-1.3.3h-1.9V11h1.9c.453-.02.902.084 1.3.3.337.186.614.464.8.8.204.33.308.712.3 1.1.008.42-.096.834-.3 1.2zm11.7-1.8a5.257 5.257 0 0 0-2.6-.6 5.538 5.538 0 0 0-2.6.6 4.242 4.242 0 0 0-1.7 1.8 5.667 5.667 0 0 0-.6 2.7c-.027.904.18 1.8.6 2.6a3.721 3.721 0 0 0 1.7 1.8 5.934 5.934 0 0 0 5.2 0 4.237 4.237 0 0 0 1.7-1.8c.41-.805.615-1.697.6-2.6a5.94 5.94 0 0 0-.6-2.7 4.237 4.237 0 0 0-1.7-1.8zm-.7 5.9c-.173.402-.41.773-.7 1.1a1.496 1.496 0 0 1-1.1.4 1.356 1.356 0 0 1-1.1-.4 2.992 2.992 0 0 1-.7-1.1 3.898 3.898 0 0 1-.2-1.5c.01-.506.078-1.009.2-1.5.174-.401.41-.773.7-1.1a1.496 1.496 0 0 1 1.1-.4 1.367 1.367 0 0 1 1.1.4c.312.31.551.686.7 1.1.171.48.24.992.2 1.5a6.768 6.768 0 0 1-.2 1.5zm12.3-1.4a2.061 2.061 0 0 1 .7 1.7 2.71 2.71 0 0 1-.6 1.7 3.266 3.266 0 0 1-1.5 1.1c-.74.256-1.517.39-2.3.4a5.687 5.687 0 0 1-3.1-.8 2.957 2.957 0 0 1-1.299-2.2l2.7-.1c.076.366.291.688.6.9a2.544 2.544 0 0 0 2.4 0 .757.757 0 0 0 .4-.7.715.715 0 0 0-.301-.6 1.89 1.89 0 0 0-.9-.4l-1.7-.3a3.455 3.455 0 0 1-2.1-1 2.418 2.418 0 0 1-.7-1.8 2.774 2.774 0 0 1 .5-1.6 2.964 2.964 0 0 1 1.5-1.1 7.202 7.202 0 0 1 2.2-.4 4.987 4.987 0 0 1 2.9.8 2.835 2.835 0 0 1 1.2 2.1l-2.6.2a.846.846 0 0 0-.09-.33.835.835 0 0 0-.21-.27.907.907 0 0 0-.599-.4 1.896 1.896 0 0 0-.8-.2 2.01 2.01 0 0 0-1.1.3.751.751 0 0 0-.401.7.864.864 0 0 0 .3.6 1.88 1.88 0 0 0 1 .4l1.8.4a4.574 4.574 0 0 1 2.1.9zm7.4 2.6.4 2c-.205.05-.405.117-.6.2a2.489 2.489 0 0 1-.9.1 4.299 4.299 0 0 1-1.7-.3 2.01 2.01 0 0 1-1.1-.9 3.773 3.773 0 0 1-.4-1.6v-5.1h-1.3v-2h1.3V9.7h2.7v2.4h1.8v2h-1.8v4.8c-.024.206.01.414.1.6l.3.3c.15.09.327.126.5.1h.4c.1 0 .2-.2.3-.2zm10-10.9-4.5 13.1h3l1-3h4.7l1 3h3L91.5 8.8h-3.6zm.2 7.9 1.6-5h.1l1.6 5h-3.3zm12.4-5.3v.7h2v2h-2v7.8h-2.7v-7.8h-1.4v-2h1.4v-.7a3.426 3.426 0 0 1 .4-1.8 3.842 3.842 0 0 1 1.1-1.1 4.258 4.258 0 0 1 1.7-.4c.37-.021.741.013 1.1.1.3.1.6.1.8.2l-.5 2c-.1 0-.2-.1-.4-.1h-.5c-.4 0-.7.1-.8.3a1.888 1.888 0 0 0-.2.8zm7.2 0v.7h2v2h-2v7.8H105v-7.8h-1.4v-2h1.4v-.7a3.436 3.436 0 0 1 .4-1.8 3.842 3.842 0 0 1 1.1-1.1 4.258 4.258 0 0 1 1.7-.4c.37-.021.741.013 1.1.1.3.1.6.1.8.2l-.5 2c-.1 0-.2-.1-.4-.1h-.5c-.4 0-.7.1-.8.3a1.888 1.888 0 0 0-.2.8zm6.1-3a1.403 1.403 0 0 1 .313 1.539 1.406 1.406 0 0 1-1.313.862 1.17 1.17 0 0 1-1-.401 1.402 1.402 0 0 1 1-2.4c.367.027.716.167 1 .4zm-2.4 3.7h2.7v9.8h-2.7v-9.8zm5-3.3h2.7v13.1h-2.7V8.8zm5 3.3h2.7v9.8h-2.7v-9.8zm2.4-3.7a1.403 1.403 0 0 1 .313 1.539 1.406 1.406 0 0 1-1.313.862 1.17 1.17 0 0 1-1-.401 1.402 1.402 0 0 1 1-2.4c.363.045.707.183 1 .4zm9.5 4.3a3.097 3.097 0 0 0-1.3-.6 7.767 7.767 0 0 0-1.6-.2 4.642 4.642 0 0 0-2.1.4 3.973 3.973 0 0 0-1.5 1 4.374 4.374 0 0 0-.8 1.5l2.5.2c.107-.325.318-.607.6-.8.362-.216.779-.32 1.2-.3a1.8 1.8 0 0 1 1.1.3.97.97 0 0 1 .4.9.765.765 0 0 1-.2.5c-.243.138-.52.207-.8.2a9.311 9.311 0 0 0-1.4.2 6.83 6.83 0 0 0-1.4.2 6.146 6.146 0 0 0-1.2.5c-.34.226-.615.536-.8.9a2.912 2.912 0 0 0-.3 1.4 2.73 2.73 0 0 0 .4 1.6c.303.436.717.781 1.2 1a4.299 4.299 0 0 0 1.7.3c.44-.01.877-.077 1.3-.2a3.1 3.1 0 0 0 1-.5c.283-.193.494-.474.6-.8h.1v1.4h2.6v-6.6a3.329 3.329 0 0 0-.3-1.5 4.74 4.74 0 0 0-1-1zm-1.4 5.7c.008.326-.098.644-.3.9a1.342 1.342 0 0 1-.7.6c-.34.171-.721.24-1.1.2a1.493 1.493 0 0 1-1-.3 1.237 1.237 0 0 1-.4-.8.848.848 0 0 1 .2-.6.92.92 0 0 1 .6-.4c.253-.113.524-.18.8-.2.172.007.344-.027.5-.1.169-.023.336-.057.5-.1.2 0 .3-.1.5-.1.1 0 .3-.1.3-.2v1.1h.1zm9.7 1.3.4 2c-.205.05-.405.117-.6.2a2.489 2.489 0 0 1-.9.1 4.299 4.299 0 0 1-1.7-.3 2.01 2.01 0 0 1-1.1-.9 3.773 3.773 0 0 1-.4-1.6v-5.1H136v-2h1.3V9.7h2.7v2.4h1.8v2H140v4.8c-.024.206.01.414.1.6l.3.3c.15.09.327.126.5.1h.4c.1 0 .2-.2.3-.2zm9.3-6.5a3.766 3.766 0 0 0-1.5-.9 5.654 5.654 0 0 0-1.8-.3 4.88 4.88 0 0 0-2.5.6 4.242 4.242 0 0 0-1.7 1.8 5.667 5.667 0 0 0-.6 2.7c-.014.935.191 1.86.6 2.7a4.902 4.902 0 0 0 1.7 1.8 5.26 5.26 0 0 0 2.6.6 4.637 4.637 0 0 0 2.1-.4 3.946 3.946 0 0 0 1.5-1c.421-.441.7-.998.8-1.6l-2.5-.2c-.1.2-.2.5-.4.6-.2.1-.4.3-.6.4a2.21 2.21 0 0 1-.8.1 2.377 2.377 0 0 1-1.2-.3 3.059 3.059 0 0 1-.8-.8 2.78 2.78 0 0 1-.3-1.3h6.7V17a5.078 5.078 0 0 0-.4-2.2 2.346 2.346 0 0 0-.9-1.6zm-5.3 2.8a1.69 1.69 0 0 1 .3-1 2.71 2.71 0 0 1 .7-.8c.33-.204.712-.308 1.1-.3a1.69 1.69 0 0 1 1 .3c.281.18.52.42.7.7.19.3.294.646.3 1h-4.1v.1zM166 9.4a4.878 4.878 0 0 0-2.5-.6h-5.2v13.1h2.8v-4.2h2.3c.904.027 1.8-.18 2.6-.6a3.54 3.54 0 0 0 1.6-1.6 4.704 4.704 0 0 0 0-4.6 3.863 3.863 0 0 0-1.6-1.5zm-1 5a2.038 2.038 0 0 1-.8.8c-.398.216-.847.32-1.3.3H161V11h1.9c.453-.02.902.084 1.3.3.337.186.614.464.8.8.204.33.308.712.3 1.1.008.42-.096.834-.3 1.2zm10.3-2.5c.2 0 .3 0 .4.1v2.4a4.423 4.423 0 0 0-.5-.1h-.6a2.013 2.013 0 0 0-1.1.3 1.58 1.58 0 0 0-.7.7c-.204.33-.308.712-.3 1.1V22h-2.7v-9.8h2.6v1.7h.1a2.848 2.848 0 0 1 .9-1.4 2.46 2.46 0 0 1 1.5-.5c.1-.1.2-.1.4-.1zm10.4 2.4a3.717 3.717 0 0 0-1.7-1.8 5.257 5.257 0 0 0-2.6-.6 5.538 5.538 0 0 0-2.6.6 4.242 4.242 0 0 0-1.7 1.8 5.667 5.667 0 0 0-.6 2.7c-.027.904.18 1.8.6 2.6a3.721 3.721 0 0 0 1.7 1.8 5.931 5.931 0 0 0 5.2 0 4.237 4.237 0 0 0 1.7-1.8 5.535 5.535 0 0 0 .6-2.6 5.953 5.953 0 0 0-.6-2.7zm-2.4 4.2c-.173.402-.41.773-.7 1.1a1.501 1.501 0 0 1-1.1.4 1.354 1.354 0 0 1-1.1-.4 2.98 2.98 0 0 1-.7-1.1 3.898 3.898 0 0 1-.2-1.5 6.836 6.836 0 0 1 .2-1.5c.174-.401.41-.773.7-1.1a1.506 1.506 0 0 1 1.1-.4 1.367 1.367 0 0 1 1.1.4c.312.31.551.686.7 1.1a5.718 5.718 0 0 1 0 3"/></svg>
