<svg viewBox="0 0 187 30" xmlns="http://www.w3.org/2000/svg" xml:space="preserve" fill-rule="evenodd" clip-rule="evenodd" stroke-linejoin="round" stroke-miterlimit="2"><path d="M25.001 30H4.95C2.234 30 0 27.766 0 25.05V5a4.982 4.982 0 0 1 .367-1.922c.25-.61.618-1.163 1.083-1.629A4.964 4.964 0 0 1 5 0h20.044C27.763 0 30 2.237 30 4.956V25a4.952 4.952 0 0 1-4.999 5z" fill="#118af7" fill-rule="nonzero"/><path d="m8 14 1.7 3.3-1-.2-.1 3.1-1.6-.5v-3l-1-.3L8 14zm2.4-.2 1.3.4-.5 6.8 2 .8.9-7.1 1.4.4-2.3-4.2-2.8 2.9zm6.4-3.5 2.1.6-2.6 12 2.8 1.1 3-12.5 1.9.4L21.5 6l-4.7 4.3zM48.2 9.4a4.88 4.88 0 0 0-2.5-.6h-5.2v13.1h2.8v-4.2h2.3c.904.027 1.8-.18 2.6-.6a3.54 3.54 0 0 0 1.6-1.6c.8-1.427.8-3.173 0-4.6a3.863 3.863 0 0 0-1.6-1.5zm-1 5a2.038 2.038 0 0 1-.8.8c-.398.216-.847.32-1.3.3h-1.9V11h1.9c.453-.02.902.084 1.3.3.337.186.614.464.8.8.204.33.308.712.3 1.1.008.42-.096.834-.3 1.2zm11.7-1.8a5.26 5.26 0 0 0-2.6-.6 5.535 5.535 0 0 0-2.6.6 4.242 4.242 0 0 0-1.7 1.8 5.667 5.667 0 0 0-.6 2.7c-.027.904.18 1.8.6 2.6a3.726 3.726 0 0 0 1.7 1.8 5.94 5.94 0 0 0 5.2 0 4.237 4.237 0 0 0 1.7-1.8c.41-.805.615-1.697.6-2.6a5.937 5.937 0 0 0-.6-2.7 4.237 4.237 0 0 0-1.7-1.8zm-.7 5.9c-.173.402-.41.773-.7 1.1a1.495 1.495 0 0 1-1.1.4 1.355 1.355 0 0 1-1.1-.4 3 3 0 0 1-.7-1.1 3.898 3.898 0 0 1-.2-1.5c.01-.506.078-1.009.2-1.5.174-.401.41-.773.7-1.1a1.495 1.495 0 0 1 1.1-.4 1.37 1.37 0 0 1 1.1.4c.312.31.551.686.7 1.1.171.48.24.992.2 1.5a6.718 6.718 0 0 1-.2 1.5zm12.3-1.4c.487.425.746 1.055.7 1.7a2.71 2.71 0 0 1-.6 1.7 3.266 3.266 0 0 1-1.5 1.1c-.74.256-1.517.39-2.3.4a5.683 5.683 0 0 1-3.1-.8 2.957 2.957 0 0 1-1.299-2.2l2.7-.1c.076.366.291.688.6.9a2.544 2.544 0 0 0 2.4 0 .76.76 0 0 0 .4-.7.714.714 0 0 0-.301-.6 1.88 1.88 0 0 0-.9-.4l-1.7-.3a3.458 3.458 0 0 1-2.1-1 2.419 2.419 0 0 1-.7-1.8 2.774 2.774 0 0 1 .5-1.6 2.964 2.964 0 0 1 1.5-1.1 7.202 7.202 0 0 1 2.2-.4 4.987 4.987 0 0 1 2.9.8 2.834 2.834 0 0 1 1.2 2.1l-2.6.2a.846.846 0 0 0-.09-.33.838.838 0 0 0-.21-.27.91.91 0 0 0-.599-.4 1.888 1.888 0 0 0-.8-.2 2.013 2.013 0 0 0-1.1.3.75.75 0 0 0-.401.7.862.862 0 0 0 .3.6 1.88 1.88 0 0 0 1 .4l1.8.4a4.578 4.578 0 0 1 2.1.9zm7.4 2.6.4 2c-.205.05-.405.117-.6.2a2.489 2.489 0 0 1-.9.1 4.299 4.299 0 0 1-1.7-.3 2.01 2.01 0 0 1-1.1-.9 3.773 3.773 0 0 1-.4-1.6v-5.1h-1.3v-2h1.3V9.7h2.7v2.4h1.8v2h-1.8v4.8c-.024.206.01.414.1.6l.3.3c.15.09.327.126.5.1h.4c.1 0 .2-.2.3-.2zm10-10.9-4.5 13.1h3l1-3h4.7l1 3h3L91.5 8.8h-3.6zm.2 7.9 1.6-5h.1l1.6 5h-3.3zm12.4-5.3v.7h2v2h-2v7.8h-2.7v-7.8h-1.4v-2h1.4v-.7a3.426 3.426 0 0 1 .4-1.8 3.842 3.842 0 0 1 1.1-1.1 4.258 4.258 0 0 1 1.7-.4c.37-.021.741.013 1.1.1.3.1.6.1.8.2l-.5 2c-.1 0-.2-.1-.4-.1h-.5c-.4 0-.7.1-.8.3a1.888 1.888 0 0 0-.2.8zm7.2 0v.7h2v2h-2v7.8H105v-7.8h-1.4v-2h1.4v-.7a3.436 3.436 0 0 1 .4-1.8 3.842 3.842 0 0 1 1.1-1.1 4.258 4.258 0 0 1 1.7-.4c.37-.021.741.013 1.1.1.3.1.6.1.8.2l-.5 2c-.1 0-.2-.1-.4-.1h-.5c-.4 0-.7.1-.8.3a1.888 1.888 0 0 0-.2.8zm6.1-3c.408.4.532 1.011.313 1.539a1.408 1.408 0 0 1-1.313.862 1.171 1.171 0 0 1-1-.401 1.401 1.401 0 0 1 .985-2.4h.015c.367.027.716.167 1 .4zm-2.4 3.7h2.7v9.8h-2.7v-9.8zm5-3.3h2.7v13.1h-2.7V8.8zm5 3.3h2.7v9.8h-2.7v-9.8zm2.4-3.7c.408.4.532 1.011.313 1.539a1.408 1.408 0 0 1-1.313.862 1.171 1.171 0 0 1-1-.401 1.401 1.401 0 0 1 .985-2.4h.015c.363.045.707.183 1 .4zm9.5 4.3a3.102 3.102 0 0 0-1.3-.6 7.767 7.767 0 0 0-1.6-.2 4.637 4.637 0 0 0-2.1.4 3.973 3.973 0 0 0-1.5 1 4.383 4.383 0 0 0-.8 1.5l2.5.2c.107-.325.318-.607.6-.8.362-.216.779-.32 1.2-.3.389-.022.776.083 1.1.3.287.205.44.55.4.9a.767.767 0 0 1-.2.5c-.243.138-.52.207-.8.2a9.311 9.311 0 0 0-1.4.2 6.82 6.82 0 0 0-1.4.2 6.12 6.12 0 0 0-1.2.5c-.34.226-.615.536-.8.9a2.912 2.912 0 0 0-.3 1.4 2.728 2.728 0 0 0 .4 1.6c.303.436.717.781 1.2 1a4.299 4.299 0 0 0 1.7.3c.44-.01.877-.077 1.3-.2a3.1 3.1 0 0 0 1-.5c.283-.193.494-.474.6-.8h.1v1.4h2.6v-6.6a3.329 3.329 0 0 0-.3-1.5 4.74 4.74 0 0 0-1-1zm-1.4 5.7c.008.326-.098.644-.3.9a1.342 1.342 0 0 1-.7.6c-.34.171-.721.24-1.1.2a1.492 1.492 0 0 1-1-.3 1.24 1.24 0 0 1-.4-.8.852.852 0 0 1 .2-.6.92.92 0 0 1 .6-.4c.253-.113.524-.18.8-.2.172.007.344-.027.5-.1.169-.023.336-.057.5-.1.2 0 .3-.1.5-.1.1 0 .3-.1.3-.2v1.1h.1zm9.7 1.3.4 2c-.205.05-.405.117-.6.2a2.489 2.489 0 0 1-.9.1 4.299 4.299 0 0 1-1.7-.3 2.01 2.01 0 0 1-1.1-.9 3.773 3.773 0 0 1-.4-1.6v-5.1H136v-2h1.3V9.7h2.7v2.4h1.8v2H140v4.8c-.024.206.01.414.1.6l.3.3c.15.09.327.126.5.1h.4c.1 0 .2-.2.3-.2zm9.3-6.5a3.755 3.755 0 0 0-1.5-.9 5.654 5.654 0 0 0-1.8-.3 4.88 4.88 0 0 0-2.5.6 4.242 4.242 0 0 0-1.7 1.8 5.667 5.667 0 0 0-.6 2.7c-.014.935.191 1.86.6 2.7a4.902 4.902 0 0 0 1.7 1.8 5.26 5.26 0 0 0 2.6.6 4.637 4.637 0 0 0 2.1-.4 3.943 3.943 0 0 0 1.5-1c.421-.441.7-.998.8-1.6l-2.5-.2c-.1.2-.2.5-.4.6-.2.1-.4.3-.6.4a2.21 2.21 0 0 1-.8.1 2.375 2.375 0 0 1-1.2-.3 3.074 3.074 0 0 1-.8-.8 2.783 2.783 0 0 1-.3-1.3h6.7V17a5.075 5.075 0 0 0-.4-2.2 2.346 2.346 0 0 0-.9-1.6zm-5.3 2.8a1.69 1.69 0 0 1 .3-1 2.71 2.71 0 0 1 .7-.8c.33-.204.712-.308 1.1-.3a1.69 1.69 0 0 1 1 .3c.281.18.52.42.7.7.19.3.294.646.3 1h-4.1v.1zM166 9.4a4.88 4.88 0 0 0-2.5-.6h-5.2v13.1h2.8v-4.2h2.3c.904.027 1.8-.18 2.6-.6a3.54 3.54 0 0 0 1.6-1.6c.8-1.427.8-3.173 0-4.6a3.863 3.863 0 0 0-1.6-1.5zm-1 5a2.038 2.038 0 0 1-.8.8c-.398.216-.847.32-1.3.3H161V11h1.9c.453-.02.902.084 1.3.3.337.186.614.464.8.8.204.33.308.712.3 1.1.008.42-.096.834-.3 1.2zm10.3-2.5c.2 0 .3 0 .4.1v2.4a4.513 4.513 0 0 0-.5-.1h-.6a2.013 2.013 0 0 0-1.1.3 1.58 1.58 0 0 0-.7.7c-.204.33-.308.712-.3 1.1V22h-2.7v-9.8h2.6v1.7h.1a2.848 2.848 0 0 1 .9-1.4 2.46 2.46 0 0 1 1.5-.5c.1-.1.2-.1.4-.1zm10.4 2.4a3.717 3.717 0 0 0-1.7-1.8 5.26 5.26 0 0 0-2.6-.6 5.535 5.535 0 0 0-2.6.6 4.242 4.242 0 0 0-1.7 1.8 5.667 5.667 0 0 0-.6 2.7c-.027.904.18 1.8.6 2.6a3.726 3.726 0 0 0 1.7 1.8c1.64.8 3.56.8 5.2 0a4.237 4.237 0 0 0 1.7-1.8 5.535 5.535 0 0 0 .6-2.6 5.95 5.95 0 0 0-.6-2.7zm-2.4 4.2c-.173.402-.41.773-.7 1.1a1.499 1.499 0 0 1-1.1.4 1.355 1.355 0 0 1-1.1-.4 2.967 2.967 0 0 1-.7-1.1 3.898 3.898 0 0 1-.2-1.5 6.836 6.836 0 0 1 .2-1.5c.174-.401.41-.773.7-1.1a1.51 1.51 0 0 1 1.1-.4 1.37 1.37 0 0 1 1.1.4c.312.31.551.686.7 1.1a5.718 5.718 0 0 1 0 3" fill="#fff" fill-rule="nonzero"/></svg>
