<svg width="29" height="29" viewBox="0 0 29 29" fill="none" xmlns="http://www.w3.org/2000/svg">
<g clip-path="url(#clip0_2903_5962)">
<path d="M24.1313 28.9789H4.82644C4.19094 28.9854 3.56054 28.865 2.97215 28.6248C2.38376 28.3846 1.8492 28.0294 1.39976 27.5801C0.950332 27.1307 0.595059 26.5962 0.354747 26.0079C0.114435 25.4195 -0.00608729 24.7892 0.000236564 24.1537V4.8479C-0.00555461 4.21216 0.114851 3.58158 0.35448 2.9927C0.59579 2.40391 0.950999 1.87013 1.39984 1.42033C1.8496 0.971468 2.38422 0.616632 2.97252 0.376505C3.56082 0.136377 4.19104 0.0157629 4.82644 0.0216929H24.1313C24.7666 0.0160265 25.3967 0.136991 25.9848 0.377524C26.5729 0.618057 27.1072 0.973338 27.5565 1.42263C28.0058 1.87191 28.3611 2.4062 28.6016 2.99431C28.8422 3.58241 28.9631 4.21253 28.9575 4.8479V24.1527C28.9646 24.7885 28.8445 25.4193 28.6041 26.008C28.3638 26.5966 28.008 27.1312 27.5579 27.5803C27.1086 28.0295 26.5742 28.3846 25.986 28.6247C25.3977 28.8649 24.7675 28.9853 24.1322 28.9789H24.1313Z" fill="#118AF7"/>
<path d="M7.7215 13.5349L9.36241 16.7202L8.39717 16.5272L8.30064 19.5194L6.75626 19.0368V16.1411L5.79102 15.8515L7.7215 13.5349ZM10.0381 13.3419L11.2929 13.728L10.8103 20.2916L12.7407 21.0638L13.6095 14.2106L14.9608 14.5967L12.7407 10.5427L10.0381 13.3419ZM16.2156 9.96352L18.2426 10.5427L15.733 22.1256L18.4357 23.1873L21.3314 11.1218L23.1653 11.5079L20.7522 5.81299L16.2156 9.96352Z" fill="white"/>
</g>
<defs>
<clipPath id="clip0_2903_5962">
<rect width="29" height="29" fill="white"/>
</clipPath>
</defs>
</svg>
