<svg viewBox="0 0 22 19" xmlns="http://www.w3.org/2000/svg" xml:space="preserve" fill-rule="evenodd" clip-rule="evenodd" stroke-linejoin="round" stroke-miterlimit="2"><path fill="#118af7" d="M1.331 12.407a4.549 4.549 0 0 1 3.214-1.331h7.273a4.545 4.545 0 0 1 4.546 4.545v1.819a.909.909 0 0 1-1.818 0v-1.819a2.73 2.73 0 0 0-2.728-2.727H4.545a2.728 2.728 0 0 0-2.727 2.727v1.819a.909.909 0 0 1-1.818 0v-1.819c0-1.205.479-2.361 1.331-3.214zM8.182 1.985a2.727 2.727 0 1 0 0 5.454 2.727 2.727 0 0 0 0-5.454zM3.636 4.712a4.545 4.545 0 1 1 9.09 0 4.545 4.545 0 0 1-9.09 0zM17.302 11.876a.909.909 0 0 1 1.107-.653 4.546 4.546 0 0 1 3.409 4.398v1.819a.909.909 0 0 1-1.818 0v-1.818a2.728 2.728 0 0 0-2.045-2.638.909.909 0 0 1-.653-1.108zM13.665.969a.91.91 0 0 1 1.106-.656 4.545 4.545 0 0 1 0 8.807.909.909 0 1 1-.451-1.761 2.729 2.729 0 0 0 0-5.284.91.91 0 0 1-.655-1.106z"/></svg>
