<svg viewBox="0 0 21 21" xmlns="http://www.w3.org/2000/svg" xml:space="preserve" fill-rule="evenodd" clip-rule="evenodd" stroke-linejoin="round" stroke-miterlimit="2"><path fill="#118af7" d="M10.077 1.82a8.257 8.257 0 1 0 0 16.515 8.257 8.257 0 0 0 0-16.515zM0 10.077C0 4.511 4.511 0 10.077 0c5.565 0 10.076 4.511 10.076 10.077 0 5.565-4.511 10.076-10.076 10.076C4.511 20.153 0 15.642 0 10.077z" /><path fill="#118af7" d="M0 10.077a.91.91 0 0 1 .91-.911h18.333a.91.91 0 0 1 0 1.821H.91a.91.91 0 0 1-.91-.91z" /><path fill="#118af7" d="M7.32 10.077a13.117 13.117 0 0 0 2.757 7.756 13.116 13.116 0 0 0 2.756-7.756 13.113 13.113 0 0 0-2.756-7.756 13.114 13.114 0 0 0-2.757 7.756zM10.077.91 9.405.296A14.937 14.937 0 0 0 5.5 10.058v.038a14.936 14.936 0 0 0 3.905 9.761.908.908 0 0 0 1.344 0 14.935 14.935 0 0 0 3.904-9.761v-.038A14.936 14.936 0 0 0 10.749.296l-.672.614z" /></svg>
