<svg width="71" height="29" viewBox="0 0 71 29" fill="none" xmlns="http://www.w3.org/2000/svg">
<g clip-path="url(#clip0_2903_5962)">
<path d="M24.1313 28.9789H4.82644C4.19094 28.9854 3.56054 28.865 2.97215 28.6248C2.38376 28.3846 1.8492 28.0294 1.39976 27.5801C0.950332 27.1307 0.595059 26.5962 0.354747 26.0079C0.114435 25.4196 -0.00608729 24.7892 0.000236564 24.1537V4.8479C-0.00555461 4.21216 0.114851 3.58158 0.35448 2.9927C0.59579 2.40391 0.950999 1.87013 1.39984 1.42033C1.8496 0.971468 2.38422 0.616632 2.97252 0.376505C3.56082 0.136377 4.19104 0.0157629 4.82644 0.0216929H24.1313C24.7666 0.0160265 25.3967 0.136991 25.9848 0.377524C26.5729 0.618057 27.1072 0.973338 27.5565 1.42263C28.0058 1.87191 28.3611 2.4062 28.6016 2.99431C28.8422 3.58241 28.9631 4.21253 28.9575 4.8479V24.1527C28.9646 24.7885 28.8445 25.4193 28.6041 26.008C28.3638 26.5966 28.008 27.1312 27.5579 27.5803C27.1086 28.0295 26.5742 28.3846 25.986 28.6247C25.3977 28.8649 24.7675 28.9853 24.1322 28.9789H24.1313Z" fill="#118AF7"/>
<path d="M7.7215 13.5349L9.36241 16.7202L8.39717 16.5272L8.30064 19.5194L6.75626 19.0368V16.1411L5.79102 15.8515L7.7215 13.5349ZM10.0381 13.3419L11.2929 13.728L10.8103 20.2916L12.7407 21.0638L13.6095 14.2106L14.9608 14.5967L12.7407 10.5427L10.0381 13.3419V13.3419ZM16.2156 9.96352L18.2426 10.5427L15.733 22.1256L18.4357 23.1873L21.3314 11.1218L23.1653 11.5079L20.7522 5.81299L16.2156 9.96352Z" fill="white"/>
<path d="M69.157 9.09705C68.4189 8.69169 67.5855 8.49169 66.7439 8.51791H61.7246V21.1626H64.4273V17.1086H66.6473C67.5199 17.1346 68.3848 16.9348 69.157 16.5294C69.8268 16.1974 70.3694 15.6549 70.7013 14.985C71.0815 14.3068 71.2811 13.5424 71.2811 12.765C71.2811 11.9875 71.0815 11.2231 70.7013 10.5449C70.3372 9.92322 69.8008 9.42033 69.157 9.09705ZM68.1917 13.9233C68.0124 14.2484 67.7446 14.5161 67.4195 14.6954C67.0354 14.9039 66.602 15.0043 66.1647 14.985H64.3308V10.6414H66.1647C66.602 10.6221 67.0354 10.7225 67.4195 10.931C67.7448 11.1105 68.0122 11.3789 68.1917 11.7032C68.3886 12.0217 68.489 12.3905 68.4813 12.765C68.489 13.1704 68.3886 13.57 68.1917 13.9233Z" fill="#050505"/>
<path d="M52.5155 8.51562L48.1719 21.1603H51.0676L52.0328 18.2646H56.5695L57.5347 21.1603H60.4304L55.9903 8.51562H52.5155ZM52.7085 16.141L54.2529 11.3148H54.3494L55.8938 16.141H52.7085Z" fill="#050505"/>
<path d="M46.5242 9.09461C45.786 8.68925 44.9527 8.48925 44.111 8.51547H39.0918V21.1601H41.7945V17.1061H44.0145C44.8871 17.1322 45.752 16.9324 46.5242 16.527C47.194 16.195 47.7366 15.6525 48.0685 14.9826C48.4487 14.3044 48.6483 13.54 48.6483 12.7625C48.6483 11.9851 48.4487 11.2207 48.0685 10.5425C47.7044 9.92078 47.168 9.41789 46.5242 9.09461ZM45.5589 13.9208C45.3795 14.2459 45.1118 14.5136 44.7867 14.693C44.4026 14.9015 43.9692 15.0019 43.5319 14.9826H41.6979V10.639H43.5319C43.9692 10.6197 44.4026 10.7201 44.7867 10.9286C45.112 11.1081 45.3794 11.3764 45.5589 11.7008C45.7558 12.0193 45.8562 12.388 45.8485 12.7625C45.8562 13.1679 45.7558 13.5675 45.5589 13.9208Z" fill="#050505"/>
</g>
<defs>
<clipPath id="clip0_2903_5962">
<rect width="71" height="29" fill="white"/>
</clipPath>
</defs>
</svg>
