<svg viewBox="0 0 304 400" xmlns="http://www.w3.org/2000/svg" xmlns:serif="http://www.serif.com/" fill-rule="evenodd" clip-rule="evenodd" stroke-linejoin="round" stroke-miterlimit="2"><path fill="none" d="M0 0H303.703V400H0z"/><g opacity=".2" serif:id="Artboard1"><path d="M285.055 0c-.022 19.614-6.891 39.293-20.836 55.193L149.918 185.524c-30.606 34.899-83.71 38.379-118.609 7.772L0 165.838v-64.313L89.037 0h196.018z" fill="rgb(216,218,223)"/><path d="M38.023 0H16C7.163 0 0 7.163 0 16v75.065l18.458-21.047C35.938 50.087 42.3 24.218 38.023 0zM22.947 400h235.838L103.079 263.445c-4.362-3.825-11-3.39-14.826.972l-48.279 55.05c-20.038 22.848-25.466 53.5-17.027 80.533z" fill="rgb(228,229,233)"/><path d="M0 180.245c9.559 3.441 18.629 8.702 26.716 15.795 34.876 30.586 38.358 83.733 7.772 118.609-9.67 11.027-21.599 18.916-34.488 23.57V180.244z" fill="rgb(206,208,212)"/><path d="M272.604 181.439c34.832 30.548 38.306 83.55 7.757 118.382-30.548 34.833-83.549 38.306-118.382 7.758l-63.07-55.313 55.313-63.07c30.548-34.832 83.549-38.305 118.382-7.757z" fill="rgb(176,180,187)" fill-rule="nonzero"/></g></svg>