<svg viewBox="0 0 397 306" xmlns="http://www.w3.org/2000/svg" fill-rule="evenodd" clip-rule="evenodd" stroke-linejoin="round" stroke-miterlimit="2"><g opacity=".2" transform="translate(-983 -93.894)"><path d="M1345.47 119.313c34.83 30.548 38.3 83.55 7.75 118.382l-48.38 55.171c-3.83 4.363-10.47 4.798-14.83.972l-55.17-48.385c-34.83-30.549-38.31-83.55-7.76-118.382 30.55-34.833 83.55-38.306 118.39-7.758z" fill="rgb(176,180,187)" fill-rule="nonzero"/><path d="M1380 225.343v145.281a83.438 83.438 0 0 1-13.35-9.574l-55.17-48.385c-4.36-3.826-4.8-10.464-.97-14.827l48.38-55.171c6.22-7.088 13.36-12.878 21.11-17.324z" fill="rgb(237,239,243)"/><path d="M1213.39 400l69.36-79.093a31.458 31.458 0 0 1 9.45-7.45 30.556 30.556 0 0 1 11.47-3.281c3.98-.324 7.96.152 11.71 1.398a28.825 28.825 0 0 1 10.11 5.861l54.51 47.803V400h-166.61z" fill="rgb(228,229,233)"/><path d="M989.517 399.996a81.962 81.962 0 0 1 8.806-12.082c30.588-34.877 83.733-38.358 118.61-7.772 6.702 5.88 12.246 12.59 16.602 19.857l-144.018-.003z" fill="rgb(237,239,243)"/><ellipse cx="1175.84" cy="312.972" rx="84.009" ry="84.049" fill="rgb(206,208,212)" transform="rotate(131.251 1175.84 312.971)"/></g></svg>