<svg width="680" height="29" fill="none" xmlns="http://www.w3.org/2000/svg"><rect x="129" y="12.062" width="508" height="5" rx="2.5" fill="#fff"/><rect x="129" y="12.062" width="7.433" height="5" rx="2.5" fill="#118AF7"/><path d="M21.75 12.694c1.333.77 1.333 2.694 0 3.464L9 23.519c-1.333.77-3-.192-3-1.732V7.065c0-1.54 1.667-2.502 3-1.733l12.75 7.362zm41 0c1.333.77 1.333 2.694 0 3.464L50 23.519c-1.333.77-3-.192-3-1.732V7.065c0-1.54 1.667-2.502 3-1.733l12.75 7.362z" fill="#fff"/><rect x="66" y="5.062" width="2" height="19" rx="1" fill="#fff"/><path d="M91.657 16.319c-.876-.781-.876-2.734 0-3.515l8.373-7.468c.875-.78 1.97.196 1.97 1.758v14.935c0 1.562-1.095 2.539-1.97 1.758l-8.373-7.468z" fill="#fff"/><rect x="90" y="10.062" width="12" height="9" rx="2" fill="#fff"/><path d="M102.992 11.597c.122-.245.414-.357.655-.226.536.29.994.688 1.337 1.164.433.6.665 1.3.667 2.015a3.45 3.45 0 0 1-.653 2.018 3.966 3.966 0 0 1-1.329 1.172c-.239.132-.532.022-.656-.222-.14-.273-.013-.604.244-.77a2.84 2.84 0 0 0 .773-.735c.31-.436.474-.943.472-1.46a2.497 2.497 0 0 0-.483-1.457 2.835 2.835 0 0 0-.778-.73c-.258-.166-.387-.496-.249-.77z" fill="#fff"/><path d="M103.084 9.23c.105-.356.478-.565.824-.43a6.411 6.411 0 0 1 2.743 2.035 6.068 6.068 0 0 1 1.287 3.757 6.073 6.073 0 0 1-1.325 3.745 6.425 6.425 0 0 1-2.764 2.008c-.347.131-.717-.081-.819-.438-.105-.366.113-.743.465-.89a5.013 5.013 0 0 0 2-1.506 4.747 4.747 0 0 0 1.036-2.926 4.745 4.745 0 0 0-1.006-2.936 5.004 5.004 0 0 0-1.984-1.525c-.351-.15-.566-.529-.457-.894z" fill="#fff"/><path d="M663.625 5.062H658.5a2 2 0 0 0-2 2v5.125m19 0V7.062a2 2 0 0 0-2-2h-5.125m0 19h5.125a2 2 0 0 0 2-2V16.935m-19 0v5.125a2 2 0 0 0 2 2h5.125" stroke="#fff" stroke-width="2" stroke-linecap="round"/></svg>