<svg id="Layer_1" data-name="Layer 1" xmlns="http://www.w3.org/2000/svg" viewBox="0 0 1380 325"><defs><style>.cls-1{fill:#dbeefd}.cls-2{fill:#fff}.cls-3{fill:#0e8af4}.cls-4{opacity:.4}.cls-5{fill:#e1e1e1}.cls-6{opacity:.2}.cls-7{fill:#375a64}.cls-8{fill:#1a2e35}.cls-9{fill:#ececec}.cls-10{fill:#ccc}.cls-11{opacity:.3}.cls-12{fill:#c78976}.cls-13{fill:#bf654e}.cls-14{fill:#fafafa}.cls-15{fill:#ffbf9d}.cls-16{fill:#815144}.cls-17{opacity:.6}.cls-18{fill:#d18b6b}</style></defs><path class="cls-1" d="M0.89 -1.2H1382.3600000000001V329.15000000000003H0.89z"/><path class="cls-2" d="M1323.25 196.58H1352.88V231.8H1323.25z"/><path class="cls-3" d="M1190.37 194.28H1324.27V234.02H1190.37z"/><path class="cls-3" d="M1353.78 197.62h-33.1v-3.34h33.1a1.67 1.67 0 0 1 1.67 1.67 1.67 1.67 0 0 1-1.67 1.67zm0 36.38h-33.1v-3.34h33.1a1.67 1.67 0 0 1 1.67 1.67 1.67 1.67 0 0 1-1.67 1.67z"/><path class="" d="M1297.92 194.28H1313.74V234.02H1297.92z"/><path class="" d="M1202.25 194.28H1218.07V234.02H1202.25z"/><path class="cls-5" d="M1352.88 202.41c0 .09-6.41.17-14.32.17s-14.32-.08-14.32-.17 6.41-.18 14.32-.18 14.32.08 14.32.18zm0 5.28c0 .09-6.41.17-14.32.17s-14.32-.08-14.32-.17 6.41-.18 14.32-.18 14.32.08 14.32.18zm0 6.5c0 .1-6.41.18-14.32.18s-14.32-.08-14.32-.18 6.41-.17 14.32-.17 14.32.07 14.32.17zm0 6.51c0 .09-6.41.17-14.32.17s-14.32-.08-14.32-.17 6.41-.18 14.32-.18 14.32.08 14.32.18zm0 6.5c0 .1-6.41.18-14.32.18s-14.32-.08-14.32-.18 6.41-.18 14.32-.18 14.32.08 14.32.18z"/><path class="" d="M1229.18 210.61H1289.42V217.77H1229.18z"/><path class="cls-2" d="M1322.5 234.8H1352.58V256.26H1322.5z"/><path class="cls-7" d="M1194.8 234.02H1322.83V257.04H1194.8z"/><path class="cls-7" d="M1321.9 235.58h32.34a.78.78 0 0 0 .78-.78.78.78 0 0 0-.78-.78h-32.34zm0 19.9h32.34a.78.78 0 0 1 .78.78.78.78 0 0 1-.78.78h-32.34v-1.56z"/><path class="cls-5" d="M1352.58 238.88c0 .09-6.66.17-14.87.17s-14.88-.08-14.88-.17 6.66-.18 14.88-.18 14.87.08 14.87.18zm0 4.06c0 .09-6.66.17-14.87.17s-14.88-.08-14.88-.17 6.66-.18 14.88-.18 14.87.08 14.87.18zm0 4.06c0 .09-6.66.17-14.87.17s-14.88-.08-14.88-.17 6.66-.18 14.88-.18 14.87.08 14.87.18zm0 4.06c0 .09-6.66.17-14.87.17s-14.88-.08-14.88-.17 6.66-.18 14.88-.18 14.87.12 14.87.18z"/><path class="cls-8" d="M1214.76 242.26H1303.05V248.26999999999998H1214.76z"/><path class="cls-2" d="M1326.44 259.09H1357.15V317.27H1326.44z"/><path class="cls-3" d="M1182.3 257.04H1326.44V320.13H1182.3z"/><path class="cls-3" d="M1359.55 320.12h-37V316h37a2 2 0 0 1 2 2.05 2 2 0 0 1-2 2.07zM1322.5 257h37.05a2 2 0 0 1 2 2 2 2 0 0 1-2 2h-37.05v-4z"/><g class="cls-4"><path class="cls-2" d="M1295.43 257.04L1265.12 320.13 1290.73 320.13 1319.47 257.04 1295.43 257.04z"/></g><g class="cls-4"><path class="cls-2" d="M1247.61 257.04L1217.29 320.13 1242.9 320.13 1271.65 257.04 1247.61 257.04z"/></g><path class="cls-5" d="M1357.14 266.88c0 .1-6.87.18-15.35.18s-15.35-.08-15.35-.18 6.87-.17 15.35-.17 15.35.08 15.35.17zm0 7.47c0 .09-6.87.17-15.35.17s-15.35-.08-15.35-.17 6.87-.18 15.35-.18 15.35.08 15.35.18zm0 7.46c0 .1-6.87.18-15.35.18s-15.35-.08-15.35-.18 6.87-.18 15.35-.18 15.35.08 15.35.18zm0 7.46c0 .1-6.87.18-15.35.18s-15.35-.08-15.35-.18 6.87-.17 15.35-.17 15.35.07 15.35.17zm0 7.46c0 .1-6.87.18-15.35.18s-15.35-.08-15.35-.18 6.87-.17 15.35-.17 15.35.08 15.35.17zm0 7.47c0 .09-6.87.17-15.35.17s-15.35-.08-15.35-.17 6.87-.18 15.35-.18 15.35.08 15.35.18zm0 7.46c0 .1-6.87.17-15.35.17s-15.35-.07-15.35-.17 6.87-.18 15.35-.18 15.35.08 15.35.18z"/><path class="cls-3" d="M1187.86 47.7l-11.17-17.92a.63.63 0 0 0-1.08 0l-11 19z"/><path class="cls-9" d="M1176.69 30.63L1187.13 47.63 1184.47 47.22 1167.42 44.53 1173.77 31.16 1176.69 30.63z"/><path class="cls-3" d="M1177.8 64.06l10.06-16.36-26-4.79a2.06 2.06 0 0 0-2.14 1L1145 68.77a1.28 1.28 0 0 0 .88 1.91l24.46 4.32z"/><path class="cls-10" d="M1170.86 31.66L1185.31 47.3 1164.32 43.37 1170.86 31.66z"/><path class="cls-8" d="M1164.32 43.37a1.15 1.15 0 0 1 .1-.23l.32-.64 1.29-2.4 4.67-8.53.12-.22.17.19 9.42 10.16 5 5.47-.31.25-8.21-11.62-2.35-3.39c-.25-.38-.45-.68-.62-.92a2.21 2.21 0 0 1-.19-.33s.1.09.25.29l.67.88 2.45 3.32 8.33 11.53-.31.26-5.01-5.44-9.38-10.2h.28l-4.8 8.46-1.37 2.36-.37.61c-.09.08-.14.15-.15.14z"/><g class="cls-11"><path class="cls-2" d="M1164.61 50.17c-.23.34-8.76 14.58-8.76 14.58l13.91 2.59 9.24-14.75z"/></g><path class="cls-7" d="M1059.9 292.89l7.65-10 .4-.51 13 9.69-12.07 13.26.44 13.42c6.72 1.74 7.73 5.09 7.73 5.09h-14l-12.69-24.45z"/><path class="cls-9" d="M1050.42 299.39l12.69 24.45h14a5.63 5.63 0 0 0-1.57-2.1l-11.36-.63-11.74-23.11z"/><path class="cls-8" d="M1069.27 312.61c-.11.14-.91-.32-2-.29s-1.88.48-2 .34.65-.94 2-1 2.12.84 2 .95zm-.27-3.33c-.14.1-.76-.73-1.87-.94s-2 .29-2.1.14.12-.29.51-.51a2.66 2.66 0 0 1 1.71-.24 2.6 2.6 0 0 1 1.48.88c.32.39.38.63.27.67zm.14-4.28c-.16.07-.63-.73-1.61-1.07s-1.84 0-1.91-.18.14-.26.52-.41a2.42 2.42 0 0 1 1.6 0 2.35 2.35 0 0 1 1.24 1c.21.37.23.66.16.66zm3.74-3.31c-.17.06-.56-.73-1.43-1.29s-1.73-.65-1.74-.83 1-.4 2.08.32 1.26 1.79 1.09 1.8zm1.82-2.86a6.26 6.26 0 0 1-1.22-1.47c-.38-.55-.77-1.11-1.18-1.68a4.37 4.37 0 0 1-.64-1.13 1.11 1.11 0 0 1 .08-.85.9.9 0 0 1 .85-.44 2.6 2.6 0 0 1 1.3.68 5.1 5.1 0 0 1 .85 1 4.7 4.7 0 0 1 .73 2 2.56 2.56 0 0 1-.32 1.91 16.39 16.39 0 0 0-.15-1.85 4.9 4.9 0 0 0-.77-1.77 4.6 4.6 0 0 0-.77-.83 2.18 2.18 0 0 0-1-.52.24.24 0 0 0-.26.12.54.54 0 0 0 0 .4 4.15 4.15 0 0 0 .54 1l1.07 1.76a5.84 5.84 0 0 1 .89 1.67zm.5.41c-.06 0 0-.74.75-1.58a3.49 3.49 0 0 1 4.14-.74.65.65 0 0 1 .22.5.8.8 0 0 1-.17.44 2.38 2.38 0 0 1-.5.44 6.2 6.2 0 0 1-1 .56 5.87 5.87 0 0 1-1.84.52 2.86 2.86 0 0 1-1.73-.17c0-.09.67 0 1.66-.26a6.6 6.6 0 0 0 1.66-.6 6.4 6.4 0 0 0 .89-.54 2 2 0 0 0 .36-.31c.07-.13 0-.09 0-.13a1.22 1.22 0 0 0-.41-.15 3.12 3.12 0 0 0-.52-.08 3.24 3.24 0 0 0-1 .07 3.37 3.37 0 0 0-1.51.77c-.69.66-.9 1.3-1 1.26z"/><path class="cls-9" d="M1061.57 299a1.66 1.66 0 1 1-1.66-1.66 1.65 1.65 0 0 1 1.66 1.66z"/><path class="" d="M1079.77 293.41L1077.08 296.36 1065.8 285.19 1067.37 283.14 1079.77 293.41z"/><path class="cls-7" d="M1114.59 298l-1.43 17s16.79 5.73 16.83 8.89l-33-.15 1.14-26.56z"/><path class="cls-9" d="M1103 313a1.35 1.35 0 0 0-1 1.49 1.31 1.31 0 0 0 1.48 1 1.44 1.44 0 0 0 1.06-1.59 1.35 1.35 0 0 0-1.65-.89M1097 323.7l.11-2.65 31.28.75s1.67 1.33 1.65 2.05z"/><path class="cls-8" d="M1113.7 314.82c0 .16-.82.19-1.64.68s-1.27 1.13-1.42 1.06.14-1 1.14-1.55 1.96-.34 1.92-.19zm3.4 1.6c0 .16-.68.4-1.26 1.05s-.78 1.37-.94 1.36-.22-.93.52-1.74 1.68-.83 1.68-.67zm1.77 4.24c-.15 0-.34-.79.12-1.65s1.23-1.18 1.29-1-.43.58-.79 1.3-.49 1.34-.62 1.35zm-5.27-9.75c-.08.14-.81-.11-1.72-.1s-1.64.28-1.72.13.64-.68 1.71-.69 1.81.54 1.73.66zm.22-3.43a3.11 3.11 0 0 1-1.65-.09 7.91 7.91 0 0 1-1.71-.61 10.14 10.14 0 0 1-.92-.55 2 2 0 0 1-.48-.42.7.7 0 0 1 0-.86.88.88 0 0 1 .73-.33 2.08 2.08 0 0 1 .61.11 6.77 6.77 0 0 1 1 .4 5.9 5.9 0 0 1 1.47 1.08c.74.75 1 1.36.91 1.39s-.42-.47-1.17-1.1a6.87 6.87 0 0 0-1.44-.9 6.1 6.1 0 0 0-.94-.34c-.34-.11-.64-.12-.74 0s0 .08 0 .18a1.68 1.68 0 0 0 .36.31 8.65 8.65 0 0 0 .85.54 9.68 9.68 0 0 0 1.57.69 10.81 10.81 0 0 1 1.55.5z"/><path class="cls-8" d="M1113.6 307.7a2.64 2.64 0 0 1-.36-1.62 5.27 5.27 0 0 1 .32-1.8 4.62 4.62 0 0 1 .47-1 1.34 1.34 0 0 1 1.09-.79.76.76 0 0 1 .67.5 2.13 2.13 0 0 1 .14.61 3.69 3.69 0 0 1 0 1.11 3.92 3.92 0 0 1-.79 1.68c-.69.82-1.37 1-1.38.93s.53-.37 1.06-1.17a3.8 3.8 0 0 0 .6-1.53 3 3 0 0 0 0-.95c0-.36-.15-.65-.28-.62s-.46.24-.61.52a5.53 5.53 0 0 0-.45.87 6 6 0 0 0-.4 1.64c-.13.99.01 1.6-.08 1.62z"/><path class="cls-12" d="M1181.6 69.41a4.14 4.14 0 0 0-.12-2.92c-1.37-3.24-4.58-10.44-5.73-10.23s-1.79 2.15-.62 4.3l-3.78-3.22a1.1 1.1 0 0 0-1.79 1 5.79 5.79 0 0 0 .47 1.41c1.17 2.48 4.43 4.84 4.43 4.84h-6.58s-1.23 1.72 1 2.87a4.46 4.46 0 0 0 1.64.45l3.4.35s-6.14 6.79-6.35 7.43a13.75 13.75 0 0 0-.55 3.13L1155.24 92l3.16 20 21.32-36.88z"/><path class="cls-13" d="M1179.88 66.41c-.05 0-.27-.28-.74-.63a5 5 0 0 0-2.08-.87 12.37 12.37 0 0 0-2.32-.13c-.6 0-1 0-1-.06a2.46 2.46 0 0 1 1-.23 7.81 7.81 0 0 1 2.42 0 4.28 4.28 0 0 1 2.2 1.06c.43.45.57.83.52.86zm.12-2.06a12.74 12.74 0 0 1-2.68-1.84 12.86 12.86 0 0 1-2.42-2.17 12.74 12.74 0 0 1 2.68 1.84 12.86 12.86 0 0 1 2.42 2.17z"/><path class="cls-8" d="M1121.81 162.73c.17 0 .79 39.29 1 57a30.62 30.62 0 0 1-4.16 15.9l-38.39 67.46-22.06-18.36 35.67-60.28-13.13-63.54 26-22.36z"/><path class="cls-8" d="M1140.47 154.69c-.12 2.27-20.86 148.1-20.86 148.1l-25.69-1.79 9.42-147.16z"/><path class="cls-7" d="M1119 164.93v.38c0 .25.06.65.1 1.13.09 1 .21 2.46.37 4.33.3 3.78.73 9.21 1.25 15.92s1.09 14.75 1.75 23.64q.23 3.33.45 6.83c.06 1.17.17 2.35.13 3.55a26.24 26.24 0 0 1-.35 3.62 27.4 27.4 0 0 1-2.23 7.09c-.53 1.15-1.17 2.24-1.79 3.35l-1.87 3.35c-10 18-19.15 34.22-25.74 46-3.31 5.86-6 10.61-7.85 13.91-.92 1.63-1.65 2.9-2.15 3.78-.24.42-.43.74-.57 1l-.2.33s0-.12.17-.35l.53-1c.48-.89 1.18-2.17 2.08-3.81 1.84-3.32 4.47-8.1 7.73-14l25.64-46.06 1.87-3.35c.62-1.11 1.25-2.2 1.77-3.33a27 27 0 0 0 2.2-7 25.39 25.39 0 0 0 .35-3.56c0-1.18-.06-2.35-.12-3.52l-.43-6.83c-.63-8.89-1.19-16.9-1.66-23.63s-.86-12.16-1.12-15.94c-.13-1.87-.22-3.33-.29-4.34 0-.48 0-.85-.06-1.12a2.86 2.86 0 0 1 .04-.37z"/><path class="cls-7" d="M1101.4 233.89s-.19 0-.52-.08a7.48 7.48 0 0 1-1.34-.51 10.1 10.1 0 0 1-5.54-7.3 7.35 7.35 0 0 1-.1-1.43c0-.34 0-.52.07-.52s.07.75.32 1.9a11 11 0 0 0 5.34 7.14c1.08.52 1.79.73 1.77.8zm2.91-4.38a5.33 5.33 0 0 1-1.87 0 11.55 11.55 0 0 1-7.63-4.48 5 5 0 0 1-.92-1.62c.06 0 .42.58 1.15 1.44a13.62 13.62 0 0 0 3.35 2.82 13.42 13.42 0 0 0 4.1 1.54c1.11.21 1.82.22 1.82.3zm-18.1-62.51a2.85 2.85 0 0 0 .62.43 2.28 2.28 0 0 0 2-.14 17.36 17.36 0 0 0 2.53-1.8c.92-.74 1.91-1.58 2.9-2.51a51.83 51.83 0 0 0 4.71-5.14c1.1-1.41 1.74-2.32 1.79-2.28s-.11.26-.37.69-.66 1-1.19 1.77a38.33 38.33 0 0 1-4.66 5.26c-1 .94-2 1.79-2.94 2.51a14.88 14.88 0 0 1-2.65 1.77 2.41 2.41 0 0 1-2.14 0c-.52-.22-.62-.56-.6-.56zm14.3-1.15a11.41 11.41 0 0 1-1 2.26 15.79 15.79 0 0 1-3.69 4.73 9 9 0 0 1-5.59 2.13 5.75 5.75 0 0 1-1.81-.26c-.42-.13-.63-.24-.62-.27a11.53 11.53 0 0 0 2.42.24 9.31 9.31 0 0 0 5.33-2.16 17.47 17.47 0 0 0 3.7-4.55 21.16 21.16 0 0 1 1.26-2.12z"/><path class="cls-3" d="M1140.47 154.69s-19.83 9.26-26.94 6.07-11.76-10.54-16.91-8.82-13 3.19-15.69 10.54a6.4 6.4 0 0 1-1.7-4.61c0-2.86 2.4-6.74 2.4-6.74l-3.22-33.13.13-55.67s5.52-8.23 20.47-7.74l20.65 3s10.54 3.18 13.48 8.58 1.71 43.72 1.71 43.72 6.54 37.2 6.54 40.1a11.18 11.18 0 0 1-.92 4.71"/><path class="cls-3" d="M1152.2 91.41l-8.52 7.59-10.54-32.84-8.85 19.78 3.56 32.07a12.32 12.32 0 0 0 9.33 10.6 12.33 12.33 0 0 0 11.07-2.75l9-7.68a4.87 4.87 0 0 0 1.64-4.46l-3.35-21.12a2 2 0 0 0-3.34-1.19z"/><path class="cls-12" d="M1087.73 82.52c0 .73-4 36.58-4 36.58l16.76 36.27c-1.65 3.42-4.75 6.53-8.21 9.56 0 0-4.29-3.92-4.53-12.25 0 0-19.06-22.39-21-28.27s3.44-46 3.44-46z"/><path class="cls-8" d="M1130.32 88.76a2.69 2.69 0 0 1-.34.73c-.25.46-.62 1.11-1.08 1.91s-1 1.77-1.72 2.78a5.34 5.34 0 0 1-1.44 1.35 4.27 4.27 0 0 1-2.06.61 6.15 6.15 0 0 1-3.84-1.23 10 10 0 0 1-2.27-2.38 21.94 21.94 0 0 1-1.17-1.86 2.59 2.59 0 0 1-.34-.73c.06 0 .64 1 1.75 2.42a10.59 10.59 0 0 0 2.25 2.24 6 6 0 0 0 3.61 1.12 4.07 4.07 0 0 0 1.86-.54 4.82 4.82 0 0 0 1.34-1.24c.72-1 1.26-1.93 1.77-2.7s.91-1.4 1.2-1.83a3.82 3.82 0 0 1 .48-.65zm12.35 29.75a3.25 3.25 0 0 1-.32-.73 18.82 18.82 0 0 1-.64-2.08 24.61 24.61 0 0 1 .72-14.15 17.3 17.3 0 0 1 .84-2 2.85 2.85 0 0 1 .4-.7c.07 0-.41 1.06-1 2.79a28.63 28.63 0 0 0-1.26 7 28.17 28.17 0 0 0 .55 7c.41 1.77.78 2.84.71 2.87z"/><path class="cls-8" d="M1147.16 111.93a7.63 7.63 0 0 1-1-1.72 24.9 24.9 0 0 1-1.72-4.55 23.64 23.64 0 0 1-.77-4.79 7.43 7.43 0 0 1 0-2 14.62 14.62 0 0 1 .25 2 33.81 33.81 0 0 0 .89 4.71 32.59 32.59 0 0 0 1.58 4.53 14 14 0 0 1 .77 1.82zm-17.39-16.44a1.51 1.51 0 0 1 .18.35c.11.24.25.6.41 1.07a11.88 11.88 0 0 1 .52 4.18 9.38 9.38 0 0 1-2.35 5.74 8.24 8.24 0 0 1-3 2.14 7.09 7.09 0 0 1-4 .33 6.61 6.61 0 0 1-3.52-1.9 7.36 7.36 0 0 1-1.69-3.32 20.83 20.83 0 0 1-.49-3.32c-.08-1-.15-2-.22-2.88-.13-1.71-.23-3.13-.3-4.18l-.06-1.13a2 2 0 0 1 0-.4s0 .13.08.39.08.68.14 1.13c.11 1 .25 2.45.43 4.17.09.88.18 1.84.28 2.87a20.6 20.6 0 0 0 .51 3.25 7.17 7.17 0 0 0 1.62 3.14 6.2 6.2 0 0 0 3.3 1.77 6.73 6.73 0 0 0 3.76-.3 7.8 7.8 0 0 0 2.91-2 9.22 9.22 0 0 0 2.35-5.5 12.34 12.34 0 0 0-.39-4.11c-.3-.98-.51-1.48-.47-1.49z"/><path d="M1089.15 130.73a30 30 0 0 1 1.92-7.63c1.15-3 2.65-6.06 2.7-9.31a21.61 21.61 0 0 0-1.07-6l-5.85-21.07-.66 16.35a6.8 6.8 0 0 0 .6 3.88c.87 1.42 2.65 2 3.63 3.36a3.9 3.9 0 0 1 .53 3.62c-.43 1.19-1.5 1.5-2.73 1.79a13.85 13.85 0 0 1-1.7.35c-.84.13-2 0-2.44.71-1 1.89.07 3 .47 3.94 1.87 4.13 4.6 10 4.6 10" class=""/><path class="cls-3" d="M1082 59.5s-17.27 8.74-19.68 55.35a5 5 0 0 0 5.86 5.13c7.09-1.34 17.83-3.43 17.76-3.71s4-41 4-41z"/><path class="cls-8" d="M1089.65 74.52a4.4 4.4 0 0 1 0 .63v1.78c0 1.55-.12 3.8-.31 6.56s-.47 6.06-.85 9.71c-.2 1.82-.42 3.73-.64 5.72-.12 1-.24 2-.37 3s-.43 2.06-.59 3.07a4.14 4.14 0 0 0 0 1.49 2.81 2.81 0 0 0 .69 1.25c.66.73 1.64 1.11 2.4 1.84a4.71 4.71 0 0 1 1.31 2.71 4.89 4.89 0 0 1 0 1.48 2.4 2.4 0 0 1-.6 1.36 2.35 2.35 0 0 1-1.34.54l-1.29.25-2.48.5-4.44.91-6.43 1.33-1 .21-.4.08h-.06a.65.65 0 0 0 0-.1h.25a2.36 2.36 0 0 1 .62-.09 5.06 5.06 0 0 1-.6.17h-.24a.65.65 0 0 1 0-.1h.06l.4-.1 1-.24 6.4-1.47 4.43-1 2.47-.52 1.3-.26a1.92 1.92 0 0 0 1.14-.45 3 3 0 0 0 .44-2.49 4.34 4.34 0 0 0-1.2-2.48c-.68-.67-1.67-1-2.43-1.85a3.34 3.34 0 0 1-.79-1.44 4.36 4.36 0 0 1 0-1.65c.17-1.07.5-2 .59-3.07s.25-2 .37-3c.23-2 .46-3.89.67-5.71.4-3.64.71-6.93.93-9.69s.36-5 .45-6.54c0-.75.07-1.34.1-1.78a2.64 2.64 0 0 1 .04-.56z"/><path class="cls-8" d="M1082.54 103.1a1.6 1.6 0 0 1-.11.55 3.08 3.08 0 0 1-.21.63 5.4 5.4 0 0 1-.36.8 8.87 8.87 0 0 1-1.32 1.87 10.55 10.55 0 0 1-2.16 1.79 11 11 0 0 1-2.57 1.12 9.5 9.5 0 0 1-2.26.32 6.09 6.09 0 0 1-.88 0 4.27 4.27 0 0 1-.65-.1c-.36-.08-.55-.13-.54-.16s.8.08 2.06 0a10.38 10.38 0 0 0 2.17-.4 12 12 0 0 0 2.46-1.11 11.67 11.67 0 0 0 2.09-1.69 9.55 9.55 0 0 0 1.34-1.76c.65-1.11.86-1.88.94-1.86z"/><path d="M1101.15 144.69c8 4.76 17.87 5.89 27.11 4.49a12.9 12.9 0 0 0 4.4-1.28 5.27 5.27 0 0 0 2.77-3.5 3.36 3.36 0 0 0-2-3.74c-1.47-.5-3 .3-4.42 1a40.13 40.13 0 0 1-28.32 2.86" class=""/><path class="cls-8" d="M1138.58 145.41a1.6 1.6 0 0 1-.35.28c-.24.15-.58.42-1.06.69a22.16 22.16 0 0 1-4.2 2 33.18 33.18 0 0 1-15.16 1.35 68.09 68.09 0 0 1-14.76-4c-1.83-.69-3.3-1.28-4.31-1.69l-1.16-.49a1.91 1.91 0 0 1-.39-.2 2.2 2.2 0 0 1 .42.12l1.19.42 4.35 1.56a73.47 73.47 0 0 0 14.71 3.83 33.91 33.91 0 0 0 15-1.21 25.15 25.15 0 0 0 4.22-1.83c.97-.53 1.48-.86 1.5-.83z"/><path d="M1138.12 128.78c2.43-2.42 2.43-6.75 1.93-10.14s-1.79-6.62-2.25-10c-.44-3.22-.12-6.49-.27-9.74s-.84-6.63-3-9.1a106.27 106.27 0 0 0 3.54 39m-22.74-35.29c-.37 2.14 0 4.37-.19 6.56a28.22 28.22 0 0 0 0 6.56 9.7 9.7 0 0 0 2.86 5.77 5.92 5.92 0 0 0 6.1 1.24 5.49 5.49 0 0 0 3.08-5.41 9 9 0 0 1-4.66.89 6.62 6.62 0 0 1-4.24-2.05 10.55 10.55 0 0 1-2.35-6.5c-.15-2.35-.44-4.75-.63-7.06" class=""/><path class="cls-14" d="M1088.52 87.5a3.58 3.58 0 0 1-.87.18c-.56.1-1.37.22-2.38.33a29.88 29.88 0 0 1-8 0 14.93 14.93 0 0 1-7.3-3.14 9.75 9.75 0 0 1-1.66-1.76 2.89 2.89 0 0 1-.46-.76 19.4 19.4 0 0 0 2.31 2.3 15.68 15.68 0 0 0 7.17 3 34.37 34.37 0 0 0 7.87.1l2.39-.2a3.57 3.57 0 0 1 .93-.05zm-1.13 6.16a5.07 5.07 0 0 1-.85.3 9 9 0 0 1-1 .26 12.68 12.68 0 0 1-1.38.26 20.92 20.92 0 0 1-3.65.24 24.12 24.12 0 0 1-4.45-.51 24.89 24.89 0 0 1-4.27-1.37 23.16 23.16 0 0 1-3.23-1.72c-.45-.27-.81-.57-1.15-.81a8.61 8.61 0 0 1-.82-.66 5 5 0 0 1-.66-.63c.06-.06 1 .78 2.79 1.84a24 24 0 0 0 3.22 1.63 27.82 27.82 0 0 0 4.21 1.31 27.26 27.26 0 0 0 4.37.54 24.78 24.78 0 0 0 3.6-.15c2.01-.19 3.25-.61 3.27-.53zm27.27-1.01c0 .12-5.83.06-13-.12s-13-.43-13-.55 5.82-.06 13 .13 13 .43 13 .54zm.83 6.48a5.18 5.18 0 0 1-1.06.34c-.7.19-1.71.43-3 .67a55.76 55.76 0 0 1-20 .21c-1.27-.22-2.29-.43-3-.61a5.58 5.58 0 0 1-1.08-.31 5.89 5.89 0 0 1 1.11.15c.7.13 1.73.3 3 .48a65.87 65.87 0 0 0 10 .67 67.11 67.11 0 0 0 9.94-.88c1.27-.21 2.29-.4 3-.54a5.7 5.7 0 0 1 1.09-.18zm15.07-1.19a1.57 1.57 0 0 1-.27.6 5 5 0 0 1-1.17 1.33 7.82 7.82 0 0 1-5.58 1.53 14 14 0 0 1-5.47-2 10.07 10.07 0 0 1-2-1.35 20.56 20.56 0 0 1 2.14 1.09 15.55 15.55 0 0 0 5.37 1.79 7.91 7.91 0 0 0 5.36-1.34 9.13 9.13 0 0 0 1.62-1.65zm3.62-4.94a11.24 11.24 0 0 1-4.22.89 11.24 11.24 0 0 1 4.22-.89zm7.76.27a18.92 18.92 0 0 1-7.78 2.84c0-.12 1.77-.6 3.9-1.38s3.82-1.57 3.88-1.46zm-2.57-7.69a12.67 12.67 0 0 1-2.46.72 12 12 0 0 1-2.48.67 6 6 0 0 1 2.36-1.07 5.82 5.82 0 0 1 2.58-.32z"/><path class="cls-8" d="M1135 82.64a2.53 2.53 0 0 1 0 .48l-.12 1.35c-.06.58-.12 1.3-.18 2.13s-.14 1.78-.19 2.83c-.13 2.1-.19 4.6-.21 7.38s.09 5.82.28 9 .53 6.24.88 9 .76 5.23 1.16 7.29c.18 1 .38 2 .55 2.78s.32 1.52.45 2.09.22 1 .29 1.33a1.62 1.62 0 0 1 .07.47 3 3 0 0 1-.15-.45c-.1-.34-.22-.78-.36-1.31s-.34-1.26-.53-2.08-.41-1.74-.61-2.77c-.44-2.06-.85-4.54-1.25-7.3s-.7-5.8-.91-9-.27-6.27-.26-9.06.13-5.29.31-7.39c.06-1 .17-2 .25-2.83s.16-1.55.25-2.13.14-1 .19-1.34a1.69 1.69 0 0 1 .09-.47z"/><path d="M1117.5 92.07a8.69 8.69 0 0 0 8.2.6 3.69 3.69 0 0 1 1-.35.94.94 0 0 1 .91.34 1.19 1.19 0 0 1-.26 1.3 5.08 5.08 0 0 1-5.22 1.58 7.83 7.83 0 0 1-4.45-3.47" class=""/><path class="cls-8" d="M1102.42 23.52a29.39 29.39 0 0 1-.91-5.58 9.67 9.67 0 0 1 1.28-5.43 5.84 5.84 0 0 1 4.64-2.83c1.17 0 2.34.37 3.48.16 1.33-.24 2.36-1.24 3.49-2a9.77 9.77 0 0 1 6-1.57 5.85 5.85 0 0 1 3.11 1 3.25 3.25 0 0 1 1.39 2.85 15.93 15.93 0 0 1 4.07-.25 5.23 5.23 0 0 1 3.56 1.77 3.21 3.21 0 0 1 .23 3.79 2.6 2.6 0 0 1 3.14 1.51 3.33 3.33 0 0 1-.83 3.53A6.26 6.26 0 0 1 1131 22a9 9 0 0 1-3.89-.8"/><path class="cls-12" d="M1106.92 66a9.49 9.49 0 0 0 11.57-8.31c.3-3.06.57-5.66.63-6 0 0 7.68.15 9.08-7.31s3.11-24.85 3.11-24.85a26.39 26.39 0 0 0-26.67-1.29l-1.26.66-3.78 36.91a9.49 9.49 0 0 0 7.32 10.19z"/><path class="cls-13" d="M1119.15 51.6a17.71 17.71 0 0 1-9.26-4.48s1.36 5.78 8.94 6.41z"/><path class="cls-12" d="M1103 26.82c-.12-.08-4.87-2.42-5.6 2.72s4.57 4.81 4.6 4.66 1-7.38 1-7.38z"/><path class="cls-13" d="M1100.66 32s-.1 0-.26.1a.87.87 0 0 1-.67-.08 2.25 2.25 0 0 1-.74-2.13 2.9 2.9 0 0 1 .43-1.25 1.05 1.05 0 0 1 .77-.59.47.47 0 0 1 .5.32v.26c0 .01.12-.07.11-.29a.58.58 0 0 0-.15-.35.75.75 0 0 0-.48-.2 1.28 1.28 0 0 0-1 .67 3.05 3.05 0 0 0-.51 1.38 2.35 2.35 0 0 0 1 2.41 1 1 0 0 0 .84 0c.13-.1.18-.25.16-.25z"/><path class="cls-8" d="M1127.56 31a1.09 1.09 0 0 1-1.22.89 1 1 0 0 1-.93-1.15 1.08 1.08 0 0 1 1.21-.9 1 1 0 0 1 .94 1.16zm.5-1.19c-.16.12-.86-.62-2-.82s-2.09.23-2.19.06.12-.3.54-.5a3 3 0 0 1 1.78-.22 2.85 2.85 0 0 1 1.57.82c.3.34.37.61.3.66zm-11.64-.81a1.09 1.09 0 0 1-1.22.9 1 1 0 0 1-.93-1.15 1.08 1.08 0 0 1 1.22-.9 1 1 0 0 1 .93 1.15z"/><path class="cls-8" d="M1116.73 28.05c-.16.11-.86-.63-2-.82s-2.09.22-2.19.06.13-.3.54-.5a3 3 0 0 1 1.78-.23 2.81 2.81 0 0 1 1.57.83c.3.33.37.61.3.66zm2.68 9.24a8.1 8.1 0 0 1 1.92 0c.3 0 .59 0 .67-.18a1.52 1.52 0 0 0 0-.91c-.15-.76-.31-1.55-.48-2.38a37.77 37.77 0 0 1-.92-6.19 40.79 40.79 0 0 1 1.42 6.1c.15.83.3 1.63.43 2.39a1.67 1.67 0 0 1-.05 1.18.75.75 0 0 1-.55.34 1.66 1.66 0 0 1-.51 0 7.14 7.14 0 0 1-1.93-.35zm-3.52.21c.19 0 0 1.27.88 2.34S1119 41 1119 41.18s-.33.19-.9.11a3.2 3.2 0 0 1-1.88-1 2.72 2.72 0 0 1-.66-2c.05-.53.24-.81.33-.79zm12.11-9.78c-.25.22-1-.19-1.94-.37s-1.79-.13-1.93-.44c-.06-.14.12-.38.51-.57a2.82 2.82 0 0 1 1.66-.15 2.76 2.76 0 0 1 1.46.8c.24.33.34.61.24.73zm-12-4.09c-.15.12-.44 0-.8-.13a10 10 0 0 0-1.39-.44 8.28 8.28 0 0 0-1.44-.15c-.4 0-.7 0-.8-.2s.08-.47.54-.72a3.06 3.06 0 0 1 3.69.77c.28.42.31.77.2.87z"/><path class="cls-8" d="M1131.28 21.9a17.78 17.78 0 0 1-10.8-2.46c-3.62-2.14-7.92-3.38-8.94-2.69s-1.51 4.53-5.31 5.39c0 0-.28 7.39-3.2 6.91s-.25-11.76-.25-11.76l7.45-3 8-.91 7.35.54 6.68 2.6z"/><path class="cls-3" d="M77.3 205c-8.1-12.37-6.92-30.05 2.75-41.25 3-3.47 7.19-6.49 11.76-6.1s8.46 4.42 9.88 8.9.93 9.33.1 14c-1.18 6.48-3.14 13.1-7.63 17.91S83.07 208.12 77.3 205m4.47 59.54a18.49 18.49 0 0 1 5.16-21c1.86-1.52 4.29-2.69 6.61-2.08s4 3.05 4.29 5.48a15.34 15.34 0 0 1-1.22 7.2c-1.19 3.23-2.8 6.47-5.55 8.54s-6.6 4-9.29 1.87m-19.51-4.26A26.78 26.78 0 0 0 48.77 232c-3.09-1.6-6.88-2.55-10-1s-4.71 5.47-4.45 9 2 6.82 3.84 9.84c2.64 4.23 5.87 8.34 10.38 10.46s10.53 3.75 13.71-.08m1.41-29.6C67.53 218.12 61 203 50 195.78c-3.4-2.22-7.7-3.77-11.5-2.32s-6.12 5.81-6.24 10 1.48 8.17 3.31 11.9c2.58 5.22 5.86 10.38 10.85 13.38s13.07 6 17.22 1.91"/><path class="cls-8" d="M71.44 291.72a2.67 2.67 0 0 1-.13-.6c-.06-.46-.15-1-.26-1.75 0-.38-.11-.8-.17-1.26s-.19-.95-.29-1.48c-.2-1.07-.41-2.29-.76-3.61-.16-.67-.33-1.36-.5-2.08s-.43-1.47-.66-2.23c-.42-1.56-1-3.16-1.61-4.87a94.11 94.11 0 0 0-4.82-10.7A92.73 92.73 0 0 0 56 253.2c-1.1-1.43-2.1-2.83-3.16-4l-1.5-1.78-1.46-1.57c-.91-1-1.81-1.88-2.58-2.63l-1.08-1.07-1-.84-1.31-1.18a2.47 2.47 0 0 1-.43-.44 3.22 3.22 0 0 1 .5.36l1.38 1.11 1 .81 1.11 1c.8.74 1.72 1.58 2.65 2.59l1.49 1.55 1.53 1.77c1.09 1.2 2.1 2.6 3.23 4a88.6 88.6 0 0 1 6.32 10 87.72 87.72 0 0 1 4.82 10.78c.57 1.73 1.17 3.35 1.57 4.91l.63 2.25c.17.73.32 1.43.47 2.11.33 1.33.52 2.56.69 3.64l.25 1.5c.05.46.09.88.13 1.27.06.72.12 1.3.16 1.76a2.56 2.56 0 0 1 .03.62z"/><path class="cls-8" d="M71.15 294v-.25-.72c.06-.68.15-1.61.25-2.78.06-.61.13-1.28.2-2s.08-1.53.12-2.39c.07-1.72.23-3.67.17-5.83v-3.4c0-1.18-.12-2.4-.18-3.67-.08-2.55-.43-5.24-.74-8.09a126.89 126.89 0 0 0-3.83-18.18 126.6 126.6 0 0 0-6.7-17.33c-1.29-2.55-2.47-5-3.79-7.18-.64-1.1-1.21-2.19-1.85-3.18l-1.8-2.9c-1.13-1.84-2.33-3.39-3.32-4.8-.51-.69-1-1.35-1.41-1.94L47 207.79l-1.73-2.19-.44-.58c-.09-.13-.14-.2-.13-.21l.17.18.48.54 1.81 2.13 1.3 1.55c.46.57.93 1.23 1.44 1.92 1 1.39 2.25 2.93 3.4 4.77.6.9 1.22 1.85 1.87 2.84s1.23 2.08 1.89 3.18c1.33 2.18 2.53 4.63 3.84 7.19a123.91 123.91 0 0 1 6.77 17.39 123.79 123.79 0 0 1 3.81 18.27c.29 2.86.62 5.57.69 8.12 0 1.28.15 2.51.15 3.69v3.41c0 2.17-.16 4.13-.25 5.85-.06.86-.1 1.66-.17 2.39s-.17 1.4-.24 2c-.15 1.17-.27 2.09-.36 2.77 0 .29-.07.52-.1.72a.81.81 0 0 1-.05.28z"/><path class="cls-8" d="M92.22 172.56a1.15 1.15 0 0 1-.1.23c-.1.17-.21.39-.35.65l-1.38 2.47c-.3.54-.66 1.12-1 1.78s-.7 1.4-1.08 2.18-.81 1.61-1.25 2.5-.82 1.86-1.27 2.86-.92 2.05-1.37 3.16-.88 2.28-1.34 3.49l-.71 1.83c-.21.64-.43 1.28-.65 1.93q-.66 2-1.35 4c-1.72 5.54-3.34 11.72-4.72 18.28s-2.26 12.89-3 18.66-1 11-1.14 15.38c-.11 2.19-.14 4.18-.14 5.93V266a.67.67 0 0 1 0 .25.79.79 0 0 1 0-.25v-.73c0-.69-.08-1.64-.14-2.83s-.1-2.74-.1-4.48 0-3.74.06-5.94c.07-4.4.47-9.63 1-15.43s1.58-12.12 2.91-18.71 3-12.77 4.77-18.32q.7-2.07 1.38-4c.22-.66.45-1.3.67-1.93s.48-1.24.72-1.84l1.36-3.55c.46-1.11 1-2.16 1.41-3.16s.87-2 1.3-2.86l1.29-2.49 1.13-2.16c.35-.66.72-1.23 1-1.76l1.47-2.43c.16-.25.29-.45.39-.62s.22-.21.23-.2zm-2.75 75.94a11.13 11.13 0 0 1-.86 1.51c-.59 1-1.4 2.34-2.36 4.1s-2 3.87-3.06 6.28a85.63 85.63 0 0 0-3 8c-.88 2.91-1.56 5.73-2.07 8.31s-.82 4.94-1 6.93-.31 3.59-.36 4.71a11.14 11.14 0 0 1-.14 1.73 10.38 10.38 0 0 1-.07-1.74c0-1.12 0-2.74.2-4.74s.45-4.37.91-7a77.38 77.38 0 0 1 2-8.37 79.18 79.18 0 0 1 3-8.07 69.61 69.61 0 0 1 3.19-6.28c1-1.73 1.86-3.11 2.51-4a10.53 10.53 0 0 1 1.11-1.37z"/><path class="cls-7" d="M55.55 286.15L91.09 286.15 86.79 322.45 59.98 322.45 55.55 286.15z"/><path class="cls-8" d="M56.85 318.54L59.87 322.45 86.79 322.45 89.9 318.66 56.85 318.54z"/><path class="cls-14" d="M89.71 296.83c0 .15-7.38.26-16.48.26s-16.47-.11-16.47-.26 7.37-.27 16.47-.27 16.48.12 16.48.27zm0 2.42c0 .14-7.38.26-16.48.26s-16.47-.12-16.47-.26 7.37-.27 16.47-.27 16.48.12 16.48.27zm-.45 2.34c0 .14-7.11.26-15.89.26s-15.9-.12-15.9-.26 7.12-.27 15.9-.27 15.89.12 15.89.27z"/><path class="cls-3" d="M133.22 121.89l-1.63 2.57s17.09 3.8 22.12 13.44a2.13 2.13 0 0 0 .72 1.85l3.07 2.61a2.1 2.1 0 0 0 2.37.19s10.41 1.83 15.45 11.78l2.08 3.55 16.29-35.68-32.54-33.89z"/><path class="cls-10" d="M133.57 116.91l-3 4.55s18.57 1.45 25.94 18.76l11.86-23.79s-30.59-3.35-34.8.48z"/><path class="cls-2" d="M154 82.88s24.17-.95 24.1 24.24l-21.61 33.1s-4-24.67-25-23.38z"/><path class="cls-10" d="M156.47 140.22s19.59.95 22.88 17l18-31.42-20-17.51z"/><path class="cls-2" d="M178 107.13s12.05-7.12 21.22.89l5.72 5.35-17.56 32s-14.24-12.76-31-5.11z"/><path class="cls-8" d="M156.47 140.22a9 9 0 0 1 .78-1.35l2.27-3.56 7.56-11.69 7.53-11.71 2.27-3.56a9.25 9.25 0 0 1 .88-1.28 8.42 8.42 0 0 1-.71 1.38c-.48.87-1.22 2.11-2.13 3.65-1.84 3.05-4.46 7.23-7.42 11.79s-5.68 8.67-7.69 11.62l-2.4 3.47a8.08 8.08 0 0 1-.94 1.24zm41.69-24.36c-.07.07-.92-.83-2.54-2a19.93 19.93 0 0 0-3-1.7 21.57 21.57 0 0 0-4-1.34 22 22 0 0 0-4.19-.47 20 20 0 0 0-3.44.29c-1.95.34-3.1.8-3.13.71a3 3 0 0 1 .78-.38 8.13 8.13 0 0 1 1-.34 10.29 10.29 0 0 1 1.31-.34 17.31 17.31 0 0 1 3.5-.4 19 19 0 0 1 8.4 1.84 17.67 17.67 0 0 1 3 1.84 10.12 10.12 0 0 1 1.05.86 8.41 8.41 0 0 1 .73.71 3.47 3.47 0 0 1 .53.72zm-1.55 3.94c-.07.07-.92-.83-2.54-2a19.93 19.93 0 0 0-3-1.7 22.07 22.07 0 0 0-4-1.33 19.9 19.9 0 0 0-7.63-.19c-2 .34-3.09.81-3.13.72a2.62 2.62 0 0 1 .79-.38 6.11 6.11 0 0 1 1-.34 12.15 12.15 0 0 1 1.31-.35 18.14 18.14 0 0 1 3.51-.39 20.08 20.08 0 0 1 4.3.43 20.66 20.66 0 0 1 4.09 1.41 18.47 18.47 0 0 1 3 1.83 12.85 12.85 0 0 1 1 .87 5.55 5.55 0 0 1 .73.71 3.15 3.15 0 0 1 .57.71zm-2.4 3.8c-.06.07-.91-.83-2.53-2a19.93 19.93 0 0 0-3-1.7 22.33 22.33 0 0 0-4-1.33 20 20 0 0 0-7.64-.19c-1.94.35-3.09.81-3.12.72a2.64 2.64 0 0 1 .78-.38 6.67 6.67 0 0 1 1-.34 10.29 10.29 0 0 1 1.31-.34 17.31 17.31 0 0 1 3.5-.4 20.17 20.17 0 0 1 4.31.43 20.66 20.66 0 0 1 4.09 1.41 18.34 18.34 0 0 1 3 1.83 11.56 11.56 0 0 1 1.05.87 7.16 7.16 0 0 1 .73.71c.31.45.55.69.52.71zm-36.42 5.1c-.09 0-.1-1.39-.65-3.54a18 18 0 0 0-11.06-12.39c-2.07-.8-3.46-1-3.44-1.06a3.24 3.24 0 0 1 1 .07 15.09 15.09 0 0 1 2.59.65 17.22 17.22 0 0 1 11.29 12.65 14.76 14.76 0 0 1 .34 2.65 2.82 2.82 0 0 1-.07.97z"/><path class="cls-8" d="M160.47 124.38c-.09 0-.1-1.39-.65-3.54a18 18 0 0 0-11.06-12.39c-2.07-.8-3.46-1-3.44-1.06a3.24 3.24 0 0 1 1 .07 15.09 15.09 0 0 1 2.59.65 17.24 17.24 0 0 1 11.28 12.65 15 15 0 0 1 .35 2.65 3.19 3.19 0 0 1-.07.97z"/><path class="cls-8" d="M163.15 120.06c-.09 0-.1-1.39-.66-3.54a17.91 17.91 0 0 0-11.05-12.39c-2.07-.8-3.46-1-3.45-1.06a3.31 3.31 0 0 1 1 .07 15.32 15.32 0 0 1 2.59.65 17.24 17.24 0 0 1 11.28 12.65 15.06 15.06 0 0 1 .35 2.65 3.19 3.19 0 0 1-.06.97z"/><path class="cls-8" d="M165.83 115.74c-.1 0-.1-1.39-.66-3.54a18 18 0 0 0-11-12.39c-2.08-.8-3.47-1-3.45-1.06a3.16 3.16 0 0 1 1 .08 14.22 14.22 0 0 1 2.59.64 17.24 17.24 0 0 1 11.28 12.65 15.06 15.06 0 0 1 .35 2.65 3.19 3.19 0 0 1-.11.97z"/><path class="cls-8" d="M168.5 111.43c-.09 0-.1-1.4-.65-3.55a18 18 0 0 0-11.06-12.39c-2.07-.8-3.46-1-3.44-1.06a3.16 3.16 0 0 1 1 .08 15 15 0 0 1 2.58.64 17.27 17.27 0 0 1 11.27 12.65 14.87 14.87 0 0 1 .34 2.65 3 3 0 0 1-.04.98z"/><path class="cls-8" d="M171.18 107.11c-.09 0-.1-1.4-.65-3.55a18 18 0 0 0-11.06-12.39c-2.07-.8-3.46-1-3.44-1.06a3.1 3.1 0 0 1 1 .08 14.89 14.89 0 0 1 2.59.64 17.23 17.23 0 0 1 11.28 12.65 15.06 15.06 0 0 1 .35 2.65 3.33 3.33 0 0 1-.07.98z"/><path class="cls-9" d="M173.16 123.6l-6.31 9.13s9.64-1.14 18.07 4.22l5.85-9.78s-8.93-7-17.61-3.57"/><path class="cls-3" d="M1036.66 56.3a10.53 10.53 0 0 0-.81-6.25 10.07 10.07 0 0 0-4-4.7 8.31 8.31 0 0 0-6.45-.76 8.16 8.16 0 0 0-3.38 2 8 8 0 0 0-1.5-3.24 8.3 8.3 0 0 0-5.67-3.15 10.08 10.08 0 0 0-6 1.47 10.49 10.49 0 0 0-4.32 4.6 12.81 12.81 0 0 0-.9 8 18 18 0 0 0 4.14 7.47c3.12 3.58 7.28 8.15 7.28 8.15s5.35-1.83 10-2.92a18 18 0 0 0 7.72-3.64 12.76 12.76 0 0 0 3.89-7.03zm-647.1 68.36a9.09 9.09 0 0 0-4.76-2.73 8.76 8.76 0 0 0-5.36.31 7.22 7.22 0 0 0-3.91 4.06 7.11 7.11 0 0 0-.39 3.39 7 7 0 0 0-8.14 1.61 8.76 8.76 0 0 0-2.14 4.92 9.18 9.18 0 0 0 .92 5.41 11.12 11.12 0 0 0 5 4.81 15.78 15.78 0 0 0 7.34 1.06c4.12-.28 9.47-.76 9.47-.76s1.54-4.66 3.22-8.43a15.83 15.83 0 0 0 1.54-7.26 11.09 11.09 0 0 0-2.79-6.39zm-227-68.46a5.15 5.15 0 0 0-1.91-2.44 4.91 4.91 0 0 0-2.87-1 4 4 0 0 0-3.84 3 4.12 4.12 0 0 0-1.45-1 4.06 4.06 0 0 0-3.19.08 5 5 0 0 0-2.17 2.16 5.19 5.19 0 0 0-.68 3 6.32 6.32 0 0 0 1.61 3.6 8.94 8.94 0 0 0 3.62 2.12c2.21.74 5.11 1.64 5.11 1.64s1.81-2.12 3.49-3.73a8.73 8.73 0 0 0 2.36-3.47 6.25 6.25 0 0 0-.08-3.96zM62.77 96.75a9.48 9.48 0 0 0-1.38-5.48 9 9 0 0 0-4.06-3.77 7.31 7.31 0 0 0-8.61 2.12 7.26 7.26 0 0 0-7-4.93 9 9 0 0 0-5.19 1.92 9.48 9.48 0 0 0-3.37 4.55 11.48 11.48 0 0 0 0 7.19 16.13 16.13 0 0 0 4.46 6.21c3.15 2.87 7.32 6.5 7.32 6.5s4.58-2.18 8.58-3.63a16.21 16.21 0 0 0 6.5-4 11.52 11.52 0 0 0 2.75-6.68z"/><path class="cls-7" d="M1375.78 73.19l.07 2.79s-15.24-5.08-23.75.14a1.9 1.9 0 0 1-1.43 1.1l-3.64.61a1.93 1.93 0 0 1-2-1s-9-3.48-17.71 2l-3.31 1.81 4-35.75 41.58-11.31z"/><path class="cls-10" d="M1377.85 69.11l.25 5s-15.29-7.62-29.26 2.51l1.9-24.3s25.61 11.79 27.11 16.79z"/><path class="cls-2" d="M1377.85 32.71s-18.56-12.15-30.39 7.7l1.38 36.22s14.8-17.5 30.72-6.57z"/><path class="cls-10" d="M1348.84 76.63s-15.86-8.48-26 2.56l.64-33.22 24-4.31z"/><path class="cls-2" d="M1347.48 40.43a22.27 22.27 0 0 0-19.32-8l-8.3 1.18-1.65 33.39s21.1-4.27 30.66 9.64z"/><path class="cls-5" d="M1348.84 76.63a6.28 6.28 0 0 0 .05-1.42c0-1-.05-2.33-.08-3.87-.11-3.39-.26-7.84-.42-12.77s-.3-9.37-.42-12.76c0-1.54-.09-2.83-.12-3.87a6.07 6.07 0 0 0-.12-1.42 6.53 6.53 0 0 0-.11 1.42c0 .92-.06 2.24-.06 3.88 0 3.27.07 7.79.24 12.77s.39 9.5.59 12.77c.1 1.63.19 3 .27 3.86a6.73 6.73 0 0 0 .18 1.41zm-21.29-38.81c0 .1 1.12-.19 2.92-.3a19 19 0 0 1 6.92.93 18.82 18.82 0 0 1 6.08 3.43c1.37 1.18 2.07 2.07 2.15 2s-.11-.26-.42-.68a12 12 0 0 0-1.45-1.63 16.93 16.93 0 0 0-13.31-4.47 11 11 0 0 0-2.15.43c-.49.15-.75.25-.74.29zm-.64 3.82c0 .11 1.12-.18 2.92-.29a18.59 18.59 0 0 1 6.92.93 18.82 18.82 0 0 1 6.08 3.43c1.37 1.17 2.07 2.07 2.15 2s-.11-.26-.42-.68a10.8 10.8 0 0 0-1.45-1.63 16.93 16.93 0 0 0-13.31-4.47 12 12 0 0 0-2.15.42c-.49.15-.75.25-.74.29zm.09 4.12c0 .1 1.12-.19 2.92-.29a18.48 18.48 0 0 1 13 4.36c1.37 1.17 2.07 2.06 2.15 2s-.11-.27-.42-.69a12 12 0 0 0-1.45-1.62 16.93 16.93 0 0 0-13.31-4.47 12 12 0 0 0-2.15.42c-.49.15-.74.25-.74.29zm-.49 3.87c0 .1 1.12-.19 2.92-.3a19 19 0 0 1 6.92.93 18.82 18.82 0 0 1 6.08 3.43c1.37 1.18 2.07 2.07 2.15 2s-.11-.26-.42-.68a12 12 0 0 0-1.45-1.63 17 17 0 0 0-6.17-3.68 16.73 16.73 0 0 0-7.14-.78 10.41 10.41 0 0 0-2.15.42c-.49.15-.75.25-.74.29zm-.59 4.08c0 .1 1.12-.19 2.92-.3a19 19 0 0 1 6.92.93 18.82 18.82 0 0 1 6.08 3.44c1.37 1.17 2.07 2.06 2.15 2s-.11-.26-.42-.68a11.31 11.31 0 0 0-1.45-1.63 16.87 16.87 0 0 0-13.31-4.47 10.41 10.41 0 0 0-2.15.42c-.49.15-.75.25-.74.29zm-.83 4.58c0 .1 1.22-.22 3.18-.3a23.41 23.41 0 0 1 3.44.13 27.25 27.25 0 0 1 4.12.85 25.68 25.68 0 0 1 3.91 1.56 18.64 18.64 0 0 1 2.91 1.83c1.55 1.19 2.3 2.18 2.39 2.11s-.14-.28-.47-.73a6 6 0 0 0-.67-.78 10.17 10.17 0 0 0-1-.93 17.66 17.66 0 0 0-2.91-2 23.33 23.33 0 0 0-4-1.65 24.18 24.18 0 0 0-4.23-.82 18.91 18.91 0 0 0-3.53 0 9.6 9.6 0 0 0-1.34.19 7.48 7.48 0 0 0-1 .22c-.52.17-.81.28-.8.32zm.1 3.61c0 .11 1.23-.22 3.2-.27a22 22 0 0 1 3.44.22 27.09 27.09 0 0 1 4.11 1 27.41 27.41 0 0 1 3.88 1.69 21.77 21.77 0 0 1 2.88 1.91c1.54 1.22 2.3 2.2 2.38 2.14s-.13-.29-.47-.74a6.74 6.74 0 0 0-.67-.78 10 10 0 0 0-1-.94 18.43 18.43 0 0 0-2.87-2.07 24.58 24.58 0 0 0-4-1.77 24 24 0 0 0-4.22-1 18 18 0 0 0-3.54-.09 9.63 9.63 0 0 0-1.35.16 6.21 6.21 0 0 0-1 .22 2.59 2.59 0 0 0-.77.32zm28.04 5.1c.09.05.77-1 2.22-2.45A16.57 16.57 0 0 1 1370 60c2 .34 3.17.85 3.21.75a2.56 2.56 0 0 0-.79-.43 13.63 13.63 0 0 0-2.35-.73 15.76 15.76 0 0 0-14.88 4.64 14 14 0 0 0-1.51 1.93 2.63 2.63 0 0 0-.45.84z"/><path class="cls-5" d="M1353.17 62.29c.08.06.76-1 2.21-2.44a16.59 16.59 0 0 1 14.51-4.52c2 .34 3.17.85 3.21.75s-.26-.2-.79-.43a12.91 12.91 0 0 0-2.34-.73 15.67 15.67 0 0 0-14.88 4.64 12.56 12.56 0 0 0-1.51 1.93c-.31.51-.45.79-.41.8z"/><path class="cls-5" d="M1353.1 57.63c.08.06.76-1 2.22-2.44a16.56 16.56 0 0 1 14.5-4.52c2 .34 3.18.85 3.21.75s-.26-.2-.79-.43a12.91 12.91 0 0 0-2.34-.73 15.67 15.67 0 0 0-14.9 4.64 12.56 12.56 0 0 0-1.51 1.93 2.38 2.38 0 0 0-.39.8z"/><path class="cls-5" d="M1353 53c.09.06.76-1 2.22-2.44a16.56 16.56 0 0 1 14.5-4.52c2 .34 3.18.85 3.21.75s-.26-.2-.79-.43a12.91 12.91 0 0 0-2.34-.73 15.67 15.67 0 0 0-14.8 4.61 12.56 12.56 0 0 0-1.51 1.93 2.38 2.38 0 0 0-.49.83z"/><path class="cls-5" d="M1353 48.31c.09.06.76-1 2.22-2.44a16.56 16.56 0 0 1 14.5-4.52c2 .34 3.18.84 3.22.75a2.46 2.46 0 0 0-.8-.43 12.65 12.65 0 0 0-2.34-.73 15.69 15.69 0 0 0-14.88 4.64 13.23 13.23 0 0 0-1.51 1.93 2.38 2.38 0 0 0-.41.8z"/><path class="cls-5" d="M1352.89 43.65c.09.06.77-1 2.22-2.44a16.56 16.56 0 0 1 14.5-4.52c2 .33 3.18.84 3.22.75s-.26-.2-.8-.43a12.65 12.65 0 0 0-2.34-.73 15.84 15.84 0 0 0-8 .34 16 16 0 0 0-6.83 4.29 14.57 14.57 0 0 0-1.51 1.94 2.65 2.65 0 0 0-.46.8z"/><path class="cls-3" d="M462.45 112.65l2.35 3s11.56-18.53 25-20.44a2.59 2.59 0 0 0 2.46-.08l4.34-2.52a2.62 2.62 0 0 0 1.22-2.71s6.47-11.5 20.28-13.3l5-1-34.63-31.68-53.92 21.93z"/><path class="cls-10" d="M456.74 110.16l4.09 5.47s9.41-21.23 32.83-22.72l-23.05-23.82s-16.61 34.53-13.87 41.07z"/><path class="cls-2" d="M425.19 72s8.93-28.83 38.52-18.29l30 39.17s-30.71-5.49-37.94 19.77z"/><path class="cls-10" d="M493.66 92.91s9.26-22.64 29.47-19.86l-29.47-34.26-28.92 16.3z"/><path class="cls-2" d="M463.71 53.79s-3.37-17.12 9.86-24.58l8.66-4.51 30.32 33.94S491.62 70.09 493.66 93z"/><path class="cls-8" d="M493.66 92.91a12.87 12.87 0 0 1-1.26-1.47l-3.24-4.15-10.61-13.75-10.65-13.73-3.24-4.14a12 12 0 0 1-1.14-1.57 11.51 11.51 0 0 1 1.33 1.41c.82.93 2 2.31 3.4 4 2.83 3.49 6.65 8.27 10.75 13.65s7.88 10.28 10.51 13.84c1.26 1.73 2.3 3.16 3.09 4.26a10.24 10.24 0 0 1 1.06 1.65zm-10.77-58.23a30.48 30.48 0 0 0-3.48 1.62 23.35 23.35 0 0 0-6.69 6.25 22.93 22.93 0 0 0-3.94 8.26c-.52 2.3-.44 3.8-.57 3.8a3.06 3.06 0 0 1-.1-1 13 13 0 0 1 .24-2.84 21.07 21.07 0 0 1 3.87-8.55 21.63 21.63 0 0 1 7-6.26 12.53 12.53 0 0 1 2.65-1.07 3.63 3.63 0 0 1 1.02-.21zM497.82 49c.05.11-1.37.73-3.36 2.17a24.94 24.94 0 0 0-3.25 2.83 27.75 27.75 0 0 0-3.21 4.16 26.93 26.93 0 0 0-2.29 4.74 24 24 0 0 0-1.1 4.16c-.4 2.43-.34 4-.46 4A3.94 3.94 0 0 1 484 70a10.85 10.85 0 0 1 0-1.28 16 16 0 0 1 .14-1.68 21.78 21.78 0 0 1 1-4.29 25.76 25.76 0 0 1 2.3-4.88 26.38 26.38 0 0 1 3.36-4.23 21.74 21.74 0 0 1 3.41-2.78 12.54 12.54 0 0 1 1.44-.87 8.65 8.65 0 0 1 1.15-.57 3.41 3.41 0 0 1 1.02-.42zm4.83 4.09c.05.11-1.49.79-3.63 2.4a29.74 29.74 0 0 0-3.51 3.11 32.2 32.2 0 0 0-6.35 9.51 26.77 26.77 0 0 0-1.44 4.46c-.58 2.61-.49 4.29-.62 4.29a4.19 4.19 0 0 1-.1-1.17 7.59 7.59 0 0 1 .05-1.39 11 11 0 0 1 .24-1.82 23.05 23.05 0 0 1 1.34-4.59 32.69 32.69 0 0 1 2.76-5.17 34.06 34.06 0 0 1 3.71-4.53 26.33 26.33 0 0 1 3.66-3.06 16.71 16.71 0 0 1 1.56-1 9.22 9.22 0 0 1 1.23-.64 5.19 5.19 0 0 1 1.1-.4zm3.03 3.91c.05.11-1.5.78-3.62 2.44a27.87 27.87 0 0 0-3.45 3.2 38.18 38.18 0 0 0-3.46 4.61 37.17 37.17 0 0 0-2.6 5.15 28.66 28.66 0 0 0-1.35 4.51c-.54 2.64-.46 4.32-.58 4.32a3.88 3.88 0 0 1-.11-1.18 8.5 8.5 0 0 1 0-1.39 12.06 12.06 0 0 1 .22-1.83 25.09 25.09 0 0 1 1.27-4.67 34.27 34.27 0 0 1 2.61-5.27 33.66 33.66 0 0 1 3.57-4.67 25.69 25.69 0 0 1 3.6-3.17 13.88 13.88 0 0 1 1.55-1 9.41 9.41 0 0 1 1.23-.65 4.19 4.19 0 0 1 1.12-.4zm-25.01 29.57c0 .12-1.68-.46-4.44-.7a22.39 22.39 0 0 0-19.17 7.86c-1.8 2.1-2.57 3.67-2.67 3.61a4.11 4.11 0 0 1 .49-1.12 19.09 19.09 0 0 1 1.84-2.78 21.53 21.53 0 0 1 19.56-8 18.81 18.81 0 0 1 3.26.69 4.42 4.42 0 0 1 1.13.44z"/><path class="cls-8" d="M476.7 81.63c0 .11-1.68-.46-4.44-.7a22.38 22.38 0 0 0-19.17 7.85c-1.79 2.11-2.57 3.67-2.67 3.61a4.61 4.61 0 0 1 .49-1.11 19.09 19.09 0 0 1 1.84-2.78 21.47 21.47 0 0 1 19.56-8 18.81 18.81 0 0 1 3.26.69 3.66 3.66 0 0 1 1.13.44z"/><path class="cls-8" d="M472.73 76.68c0 .12-1.67-.46-4.43-.7a22.43 22.43 0 0 0-19.18 7.86c-1.79 2.11-2.56 3.67-2.67 3.61a4.56 4.56 0 0 1 .49-1.12 19.66 19.66 0 0 1 1.84-2.77 21.51 21.51 0 0 1 19.56-8 18.81 18.81 0 0 1 3.26.69 4.21 4.21 0 0 1 1.13.43z"/><path class="cls-8" d="M468.77 71.74c0 .11-1.68-.46-4.44-.7a22.42 22.42 0 0 0-19.17 7.85c-1.8 2.11-2.57 3.68-2.67 3.62a3.62 3.62 0 0 1 .49-1.12 18.09 18.09 0 0 1 1.83-2.78 21.53 21.53 0 0 1 19.56-8 18.81 18.81 0 0 1 3.26.69 4.18 4.18 0 0 1 1.14.44z"/><path class="cls-8" d="M464.8 66.8c0 .11-1.68-.46-4.44-.7a22.35 22.35 0 0 0-19.17 7.9c-1.8 2.11-2.57 3.67-2.67 3.61a3.76 3.76 0 0 1 .49-1.11 18.09 18.09 0 0 1 1.83-2.78 21.48 21.48 0 0 1 19.57-8 17.72 17.72 0 0 1 3.25.68 4 4 0 0 1 1.14.4z"/><path class="cls-8" d="M460.83 61.85c0 .12-1.68-.46-4.44-.7A22.39 22.39 0 0 0 437.22 69c-1.8 2.1-2.57 3.67-2.67 3.61a3.74 3.74 0 0 1 .45-1.11 18.29 18.29 0 0 1 1.84-2.77 21.51 21.51 0 0 1 19.56-8 18.81 18.81 0 0 1 3.26.69 4.65 4.65 0 0 1 1.17.43z"/><path class="cls-9" d="M471.84 55.8l8.28 9.2s2.57-12.71 13.82-17.53l-8.74-9.32a21.72 21.72 0 0 0-13.36 17.65z"/><path class="cls-3" d="M906.93 73.79l-1 2.18s13.72 1.12 18.68 8.09a1.63 1.63 0 0 0 .75 1.35l2.64 1.71a1.66 1.66 0 0 0 1.87-.11 18.28 18.28 0 0 1 13.3 7.52l2 2.54 8.85-29.54-29-22.9z"/><path class="cls-10" d="M906.67 69.88l-1.88 3.87s14.62-.87 22.22 11.81l6.68-19.8s-24.16.68-27.02 4.12z"/><path class="cls-2" d="M918.9 41.17s18.73-3.34 21.38 16.29L927 85.56s-5.78-18.77-22-15.51z"/><path class="cls-10" d="M927 85.56s15.36-1.36 19.65 10.76l10.66-26.41-17.5-11.48z"/><path class="cls-2" d="M940.25 57.47s8.62-6.84 16.62-1.58l5 3.54-10.24 26.8s-12.43-8.41-24.63-.65z"/><path class="cls-8" d="M927 85.56a6.23 6.23 0 0 1 .44-1.14l1.37-3 4.62-9.93c1.78-3.83 3.39-7.29 4.62-9.92.56-1.2 1-2.21 1.4-3a4.57 4.57 0 0 1 .57-1.08 6.26 6.26 0 0 1-.39 1.16c-.28.73-.71 1.78-1.25 3.07-1.1 2.58-2.68 6.12-4.49 10s-3.5 7.36-4.76 9.86c-.62 1.26-1.14 2.27-1.51 3a5.59 5.59 0 0 1-.62.98zm29.86-23.45c-.06.07-.83-.53-2.21-1.22a16.33 16.33 0 0 0-5.77-1.59 16 16 0 0 0-6 .67c-1.47.46-2.32.93-2.37.85s.18-.17.56-.4a10 10 0 0 1 1.7-.79 14.49 14.49 0 0 1 12 .95 10.65 10.65 0 0 1 1.55 1.05c.38.28.56.45.54.48zm-.79 3.23c-.05.08-.82-.52-2.2-1.21a15.87 15.87 0 0 0-11.72-.93c-1.48.46-2.33.93-2.37.85s.18-.17.56-.4a10.22 10.22 0 0 1 1.69-.79 14.49 14.49 0 0 1 12 1 9.63 9.63 0 0 1 1.55 1c.34.29.52.46.49.48zm-1.45 3.22c-.06.07-.82-.53-2.21-1.22a16.33 16.33 0 0 0-5.77-1.59 16 16 0 0 0-5.94.67c-1.48.46-2.33.93-2.38.85s.19-.17.57-.4a9.46 9.46 0 0 1 1.69-.79 14.49 14.49 0 0 1 12 1 9.63 9.63 0 0 1 1.55 1c.34.28.51.45.49.48zm-.91 3.21c-.06.08-.83-.52-2.21-1.21a15.87 15.87 0 0 0-11.72-.93c-1.47.46-2.32.93-2.37.85s.18-.17.56-.4a10.82 10.82 0 0 1 1.7-.79 14.33 14.33 0 0 1 6.1-.83 14.55 14.55 0 0 1 5.9 1.78 10.65 10.65 0 0 1 1.55 1.05c.33.29.51.46.49.48zm-.91 3.42c-.06.07-.82-.53-2.21-1.22a15.87 15.87 0 0 0-11.72-.97c-1.47.47-2.32.94-2.37.86s.19-.17.57-.4a9.46 9.46 0 0 1 1.69-.79 14.49 14.49 0 0 1 12 1 9.63 9.63 0 0 1 1.55 1c.34.33.51.49.49.52zm-.89 3.89c-.06.07-.89-.58-2.41-1.3a18.68 18.68 0 0 0-2.75-1.06 23.32 23.32 0 0 0-3.54-.71 22.22 22.22 0 0 0-3.61-.09 16.27 16.27 0 0 0-2.9.47c-1.63.42-2.55.94-2.6.86s.2-.18.62-.42a4.5 4.5 0 0 1 .79-.38 7.85 7.85 0 0 1 1.09-.45 15.31 15.31 0 0 1 3-.59 20.17 20.17 0 0 1 3.71 0 21.42 21.42 0 0 1 3.61.77 15.34 15.34 0 0 1 2.78 1.19 8 8 0 0 1 1 .59 5.28 5.28 0 0 1 .71.51c.33.4.52.58.5.61zm-1.29 2.81c-.06.08-.89-.58-2.43-1.28a18.18 18.18 0 0 0-2.79-1 23 23 0 0 0-3.58-.6 24.09 24.09 0 0 0-3.62 0 17.87 17.87 0 0 0-2.91.54c-1.63.44-2.56 1-2.6.88s.2-.18.62-.42a4.84 4.84 0 0 1 .79-.39 9.8 9.8 0 0 1 1.08-.42 15.91 15.91 0 0 1 3-.65 19.69 19.69 0 0 1 3.71-.07 20.44 20.44 0 0 1 3.66.65 15.61 15.61 0 0 1 2.82 1.12 7.11 7.11 0 0 1 1 .58 4.86 4.86 0 0 1 .72.51c.35.35.55.53.53.55zm-23.82-5.44c-.08 0-.25-1.06-.92-2.67a14.25 14.25 0 0 0-9.88-8.44c-1.69-.41-2.79-.4-2.79-.49a2.06 2.06 0 0 1 .77-.07A11.83 11.83 0 0 1 916 65a13.48 13.48 0 0 1 10.18 8.66 11.78 11.78 0 0 1 .54 2 2 2 0 0 1 .08.79z"/><path class="cls-8" d="M928.42 72.8c-.08 0-.25-1.07-.92-2.67a14.19 14.19 0 0 0-9.92-8.44c-1.69-.41-2.79-.4-2.79-.49a2.06 2.06 0 0 1 .77-.07 10.18 10.18 0 0 1 2.09.21A13.48 13.48 0 0 1 927.83 70a11.78 11.78 0 0 1 .54 2c.08.52.09.8.05.8z"/><path class="cls-8" d="M930 69.15c-.08 0-.25-1.07-.92-2.67A14.23 14.23 0 0 0 919.2 58c-1.69-.4-2.79-.39-2.79-.48s.28-.07.77-.07a10.94 10.94 0 0 1 2.1.2 13.54 13.54 0 0 1 10.17 8.66 11 11 0 0 1 .54 2c.08.56.09.83.01.84z"/><path class="cls-8" d="M931.67 65.5c-.09 0-.26-1.07-.93-2.68a14.25 14.25 0 0 0-9.92-8.44c-1.69-.4-2.79-.4-2.79-.49a2.43 2.43 0 0 1 .77-.07 12 12 0 0 1 2.1.21 13.48 13.48 0 0 1 10.17 8.66 11 11 0 0 1 .54 2 2.15 2.15 0 0 1 .06.81z"/><path class="cls-8" d="M933.29 61.84c-.09 0-.26-1.06-.93-2.67a14.25 14.25 0 0 0-9.92-8.44c-1.69-.41-2.79-.4-2.79-.49a2.11 2.11 0 0 1 .77-.07 12 12 0 0 1 2.1.21A13.48 13.48 0 0 1 932.69 59a10.92 10.92 0 0 1 .54 2 2.15 2.15 0 0 1 .06.84z"/><path class="cls-8" d="M934.91 58.19c-.09 0-.26-1.07-.93-2.67a14.19 14.19 0 0 0-9.92-8.44c-1.69-.41-2.79-.4-2.79-.49a2.11 2.11 0 0 1 .77-.07 10.33 10.33 0 0 1 2.1.21 13.48 13.48 0 0 1 10.17 8.66 10.92 10.92 0 0 1 .54 2 2.15 2.15 0 0 1 .06.8z"/><path class="cls-3" d="M679.84 40.29l-1 1.54s10.2 2.26 13.21 8a1.26 1.26 0 0 0 .43 1.1l1.83 1.56a1.27 1.27 0 0 0 1.42.11 13.88 13.88 0 0 1 9.23 7l1.23 2.12L716 40.48l-19.48-20.25z"/><path class="cls-10" d="M680.05 37.32L678.23 40s11.09.86 15.5 11.2l7.08-14.2s-18.25-2-20.76.32z"/><path class="cls-2" d="M692.24 17s14.44-.56 14.39 14.48l-12.9 19.77s-2.4-14.73-15-14z"/><path class="cls-10" d="M693.73 51.24s11.7.57 13.66 10.14l10.77-18.77-12-10.46z"/><path class="cls-2" d="M706.61 31.48s7.19-4.26 12.67.53l3.42 3.19-10.49 19.1s-8.51-7.63-18.5-3.06z"/><path class="cls-8" d="M693.73 51.24a5.56 5.56 0 0 1 .46-.81c.35-.54.81-1.26 1.35-2.12 1.19-1.83 2.77-4.28 4.52-7l4.5-7 1.36-2.13a5.39 5.39 0 0 1 .52-.76 5 5 0 0 1-.42.82c-.29.53-.73 1.27-1.28 2.18-1.1 1.83-2.66 4.32-4.43 7.05s-3.39 5.17-4.59 6.93l-1.43 2.08a7.16 7.16 0 0 1-.56.76zm24.89-14.55s-.55-.5-1.51-1.17a12.17 12.17 0 0 0-1.8-1 11.93 11.93 0 0 0-4.89-1.08 11.27 11.27 0 0 0-2.06.17c-1.16.2-1.84.48-1.86.43s.15-.1.46-.23a3.87 3.87 0 0 1 .58-.2 6.22 6.22 0 0 1 .78-.21 11.16 11.16 0 0 1 2.1-.24 11.41 11.41 0 0 1 5 1.11 10.41 10.41 0 0 1 1.8 1.09 5.84 5.84 0 0 1 .62.52 3.65 3.65 0 0 1 .44.42c.24.24.36.38.34.39zM717.7 39s-.55-.49-1.52-1.17a12 12 0 0 0-1.79-1 12.88 12.88 0 0 0-2.39-.8 12.69 12.69 0 0 0-2.51-.28 13.34 13.34 0 0 0-2 .17c-1.16.21-1.85.48-1.87.43a1.69 1.69 0 0 1 .47-.23 3.37 3.37 0 0 1 .57-.2 6 6 0 0 1 .79-.21 11 11 0 0 1 2.09-.24 12.49 12.49 0 0 1 2.57.27 11.64 11.64 0 0 1 2.44.84 10.53 10.53 0 0 1 1.81 1.09 7.05 7.05 0 0 1 .62.52c.18.15.32.3.44.42a2.8 2.8 0 0 1 .28.39zm-1.43 2.31s-.55-.5-1.52-1.17a12 12 0 0 0-1.79-1 12.88 12.88 0 0 0-2.39-.8 12.69 12.69 0 0 0-2.51-.28 12.2 12.2 0 0 0-2 .17c-1.16.21-1.85.48-1.87.43a1.69 1.69 0 0 1 .47-.23 3.51 3.51 0 0 1 .58-.2A5.41 5.41 0 0 1 706 38a11 11 0 0 1 2.09-.24 11.49 11.49 0 0 1 5 1.11 10.81 10.81 0 0 1 1.8 1.09 7.05 7.05 0 0 1 .62.52 4.6 4.6 0 0 1 .44.42 2.12 2.12 0 0 1 .32.41zm-21.75 3.05c-.06 0-.06-.83-.39-2.11a10.73 10.73 0 0 0-6.61-7.41c-1.24-.47-2.06-.57-2-.63a1.82 1.82 0 0 1 .58 0 8.86 8.86 0 0 1 1.54.38 10.25 10.25 0 0 1 6.74 7.56 9 9 0 0 1 .21 1.58 2 2 0 0 1-.07.63z"/><path class="cls-8" d="M696.12 41.78c-.06 0-.06-.83-.4-2.11a10.69 10.69 0 0 0-6.6-7.41c-1.24-.47-2.07-.57-2.06-.63a1.88 1.88 0 0 1 .59.05 9.08 9.08 0 0 1 1.54.38 10.25 10.25 0 0 1 6.74 7.56 9 9 0 0 1 .21 1.58 2.66 2.66 0 0 1-.02.58z"/><path class="cls-8" d="M697.72 39.2c-.06 0-.06-.83-.4-2.11a10.69 10.69 0 0 0-6.6-7.41c-1.24-.47-2.07-.57-2.06-.63a1.88 1.88 0 0 1 .59.05 9.08 9.08 0 0 1 1.54.38 10.3 10.3 0 0 1 6.74 7.52 9 9 0 0 1 .21 1.58 2.66 2.66 0 0 1-.02.62z"/><path class="cls-8" d="M699.31 36.62s-.06-.83-.39-2.11a10.69 10.69 0 0 0-6.6-7.41c-1.24-.47-2.07-.57-2.06-.63a1.88 1.88 0 0 1 .59.05 9.08 9.08 0 0 1 1.54.38 10.3 10.3 0 0 1 6.74 7.56 9 9 0 0 1 .21 1.58 1.79 1.79 0 0 1-.03.58z"/><path class="cls-8" d="M700.91 34s-.06-.83-.39-2.11a11 11 0 0 0-2.39-4.52 11.16 11.16 0 0 0-4.21-2.89c-1.24-.47-2.07-.57-2.06-.63a1.88 1.88 0 0 1 .59.05 9.08 9.08 0 0 1 1.54.38 10.3 10.3 0 0 1 6.74 7.56 9 9 0 0 1 .21 1.58 1.79 1.79 0 0 1-.03.58z"/><path class="cls-8" d="M702.51 31.46s-.06-.83-.39-2.11a11 11 0 0 0-2.39-4.52 11.16 11.16 0 0 0-4.21-2.89c-1.24-.47-2.07-.57-2.06-.63a1.82 1.82 0 0 1 .58.05 8.93 8.93 0 0 1 1.55.38 10.3 10.3 0 0 1 6.74 7.56 9 9 0 0 1 .21 1.58 1.79 1.79 0 0 1-.03.58z"/><path class="cls-9" d="M703.69 41.31l-3.76 5.45a18.21 18.21 0 0 1 10.79 2.53l3.49-5.84s-5.33-4.19-10.52-2.14"/><path class="cls-3" d="M1241 129a10.32 10.32 0 0 0-.8-6.16 9.9 9.9 0 0 0-4-4.62 8 8 0 0 0-9.67 1.22 8 8 0 0 0-7.07-6.29 10 10 0 0 0-5.91 1.44 10.44 10.44 0 0 0-4.25 4.53 12.58 12.58 0 0 0-.89 7.85 17.91 17.91 0 0 0 4.08 7.36c3.07 3.53 7.17 8 7.17 8s5.27-1.8 9.82-2.87a17.79 17.79 0 0 0 7.61-3.59A12.59 12.59 0 0 0 1241 129zm53.47-43.82a3.1 3.1 0 0 0-1.14-1.46 3 3 0 0 0-1.73-.59 2.4 2.4 0 0 0-1.75.77 2.38 2.38 0 0 0-.55 1 2.38 2.38 0 0 0-.87-.6 2.48 2.48 0 0 0-1.91 0 3 3 0 0 0-1.3 1.27 3.06 3.06 0 0 0-.41 1.82 3.81 3.81 0 0 0 1 2.16 5.35 5.35 0 0 0 2.17 1.27c1.33.44 3.07 1 3.07 1s1.08-1.27 2.1-2.23a5.35 5.35 0 0 0 1.41-2.08 3.77 3.77 0 0 0-.09-2.33zm-266.18 56.16a9 9 0 0 0-1.32-5.23 8.64 8.64 0 0 0-3.87-3.6 7.08 7.08 0 0 0-5.55 0 7.16 7.16 0 0 0-2.68 2 6.94 6.94 0 0 0-6.73-4.72 8.73 8.73 0 0 0-4.95 1.84A8.94 8.94 0 0 0 1000 136a11 11 0 0 0 0 6.87 15.52 15.52 0 0 0 4.26 5.93c3 2.74 7 6.21 7 6.21s4.37-2.09 8.19-3.47a15.39 15.39 0 0 0 6.2-3.86 11 11 0 0 0 2.64-6.34z"/><path class="cls-15" d="M287.91 88.32s19.71 31.08 23.4 32.45c12.65 4.72 26.62-27.95 26.62-27.95l-7.51 1.86-13.8 9.77-15.06-23.13-13.65 8.83"/><path class="cls-16" d="M313.72 113.9a4.48 4.48 0 0 1-.19-1.51 11.48 11.48 0 0 1 .57-3.63 10.58 10.58 0 0 1 1.67-3.18c.56-.71 1-1 1-1a18.92 18.92 0 0 0-2.3 4.34 20.16 20.16 0 0 0-.75 4.98z"/><path class="cls-15" d="M283.85 190.89a199.42 199.42 0 0 1 16.6 47.21c1.55 7.33 1.64 10 3.77 18.25 3.35 13 6.45 19.26 12 37a470.04 470.04 0 0 1 4 13.49l8.34 5.37 3.91-4.93c-1.94-6.58-4.76-17-7.3-30.05-1.86-9.57-1.79-11.42-5.65-36.49-3.28-21.24-4.84-29.74-5.42-32.74-1.91-10.22-3.7-18.53-4.93-24zm-9.41-3.02q-1 16.44-2.2 33.25-.93 12.7-2 25.14a163.58 163.58 0 0 1 .74 21.55c-.36 10.86-1.66 16.14-2.46 29.28-.5 8-.53 14.6-.5 18.78l-5.89 2.59-5-3.48a268.44 268.44 0 0 0-1.41-32.81c-1-9-2.11-15.2-2.95-27.9-.68-10.23-.12-8.89-.74-17.12-1-12.75-2.45-17.69-4.67-35.09-.86-6.71-1.42-12.1-1.72-15.19z"/><path class="cls-8" d="M255.61 133.51s-6.66 14.18-9.53 25.77c-2.14 8.67-4.21 14.56-3.88 21.34.09 1.84.53 2.87 1.23 7.27 1 6.23 1.52 11.36 1.82 14.79l30.34.32q.14-10.62.26-21.26l9.24 21.26 29.16-5c-2.32-12.65-5.18-26-8.72-39.93a592.28 592.28 0 0 0-7.31-26.3z"/><path class="cls-7" d="M277.8 135.85s.08-.13.29-.22a1.26 1.26 0 0 1 1 0 1.55 1.55 0 0 1 .94 1.21 1.9 1.9 0 0 1-.68 1.83 1.46 1.46 0 0 1-1.76-.11 1.79 1.79 0 0 1-.15-2.46c.17-.17.29-.22.3-.19a2.34 2.34 0 0 0-.43 1.18 1.35 1.35 0 0 0 .49 1.13 1.16 1.16 0 0 0 1.34.07 1.54 1.54 0 0 0 .53-1.38 1.28 1.28 0 0 0-.69-1 1.79 1.79 0 0 0-1.18-.06zm4.2 30.79a1.63 1.63 0 0 1-.35.11 7.19 7.19 0 0 1-1 .19 12.28 12.28 0 0 1-3.85-.07 9.41 9.41 0 0 1-1.26-.29 1.61 1.61 0 0 1-.65-.42 1.75 1.75 0 0 1-.34-.79c-.12-1.12-.11-2.22-.18-3.43-.09-2.4-.18-5-.29-7.8-.19-5.54-.35-10.55-.44-14.18 0-1.76-.07-3.21-.09-4.3v-1.17a1.85 1.85 0 0 1 0-.41 1.13 1.13 0 0 1 .06.41l.08 1.16c.05 1.09.13 2.54.21 4.3.17 3.62.37 8.63.56 14.17.09 2.77.18 5.4.26 7.8.05 1.19 0 2.38.13 3.38a1.11 1.11 0 0 0 .77.95 10.75 10.75 0 0 0 1.21.31 13.79 13.79 0 0 0 3.78.21c.88-.07 1.39-.17 1.39-.13zM302.38 147a2.48 2.48 0 0 1-.59.49 6.85 6.85 0 0 1-1.87.87 7.6 7.6 0 0 1-6.48-1 9.55 9.55 0 0 1-3.7-6.07 9.05 9.05 0 0 1-.13-2.26 2.64 2.64 0 0 1 .13-.82 17.25 17.25 0 0 0 .28 3 9.57 9.57 0 0 0 3.63 5.76 7.65 7.65 0 0 0 6.21 1.09 13.54 13.54 0 0 0 2.52-1.06zm-18.64-6.29a17.06 17.06 0 0 1-.3-3.62 15.71 15.71 0 0 1 .1-3.64 17.06 17.06 0 0 1 .3 3.62 16.4 16.4 0 0 1-.1 3.64zm2.51-.52a20.83 20.83 0 0 1 0-3.58 22.26 22.26 0 0 1 .18-3.57 12.69 12.69 0 0 1 .22 3.58 13.19 13.19 0 0 1-.4 3.57z"/><path class="cls-7" d="M300.18 138.31l-.38.12-1.12.25c-1 .22-2.39.49-4.14.78a102.18 102.18 0 0 1-13.8 1.26 103.11 103.11 0 0 1-13.84-.63c-1.76-.21-3.18-.41-4.16-.59l-1.13-.21a1.29 1.29 0 0 1-.39-.1 1.76 1.76 0 0 1 .4 0l1.14.13c1 .12 2.41.28 4.17.44a119.4 119.4 0 0 0 13.8.5 120.66 120.66 0 0 0 13.77-1.13c1.76-.24 3.17-.46 4.15-.63l1.13-.17c.22-.03.4-.04.4-.02zm-37.7 2.33a6.14 6.14 0 0 1-1.11 2 11 11 0 0 1-4 3.34 9.89 9.89 0 0 1-4.92.94 4.92 4.92 0 0 1-2-.47c0-.07.78.13 2 .15a10.77 10.77 0 0 0 4.75-1 12 12 0 0 0 4-3.13c.8-1.11 1.23-1.87 1.28-1.83zm18.98 20.59c-.12 0-.25-4.22-.3-9.43s0-9.43.11-9.44.24 4.22.29 9.43.01 9.44-.1 9.44zm-5.46 20a37 37 0 0 1-.11-5.55 38.77 38.77 0 0 1 .29-5.54 38.68 38.68 0 0 1 .11 5.55 38.77 38.77 0 0 1-.29 5.54zm23.8-11a15 15 0 0 1-2.41.5c-1.5.26-3.56.63-5.82 1.11s-4.31.95-5.79 1.31a13.47 13.47 0 0 1-2.41.51 13.68 13.68 0 0 1 2.35-.82c1.46-.44 3.5-1 5.77-1.45s4.35-.79 5.86-1a13.25 13.25 0 0 1 2.45-.16zm2.2 3.98a21.39 21.39 0 0 1-2.82.11c-1.73 0-4.14.09-6.78.24s-5.05.37-6.78.53a22 22 0 0 1-2.81.22s.26-.1.74-.2 1.18-.21 2-.33c1.73-.25 4.13-.52 6.79-.67s5.06-.16 6.81-.11c.87 0 1.57.06 2.06.1a2.51 2.51 0 0 1 .79.11zm-31.69-2.59a14.15 14.15 0 0 1-2-.88 41.54 41.54 0 0 0-4.83-1.91 43.31 43.31 0 0 0-5-1.28 13.69 13.69 0 0 1-2.09-.45 8.56 8.56 0 0 1 2.13.13 30.06 30.06 0 0 1 9.88 3.22 9.12 9.12 0 0 1 1.91 1.17z"/><path class="cls-3" d="M333.7 305.33v1.16s15.19 7.35 15.43 11.09l-29.82.92.17-13c4.52 2.5 9.16 2.68 14.22-.17z"/><g class="cls-17"><path class="cls-2" d="M322.61 309.54a1.7 1.7 0 0 0-.81 1.85c.15.76.81 1.28 1.39 1.06a1.8 1.8 0 0 0 .85-2c-.21-.73-1-1.29-1.54-.9"/></g><g class="cls-17"><path class="cls-2" d="M319.34 318.5l.05-3.13 28.56.26a2.23 2.23 0 0 1 1.21 1.95z"/></g><path class="cls-8" d="M333.84 306.6c0 .19-.73.3-1.43.94s-1.08 1.45-1.21 1.38.06-1.18.92-1.93 1.75-.57 1.72-.39zm3.16 1.6c0 .19-.59.53-1.07 1.35s-.61 1.69-.75 1.68-.26-1.08.35-2.09S337 308 337 308.2zm1.86 4.86c-.13 0-.35-.9 0-2s1-1.5 1.09-1.34-.35.73-.63 1.6-.32 1.68-.46 1.74z"/><path class="cls-3" d="M255.08 307.76l.14 1.15s-13.9 10.09-13.59 13.79l29.55-4.61-2.09-12.83a13.53 13.53 0 0 1-14.01 2.5z"/><g class="cls-17"><path class="cls-2" d="M266.64 309.85a1.65 1.65 0 0 1 1.07 1.68c0 .77-.62 1.41-1.22 1.31a1.73 1.73 0 0 1-1.12-1.78c.1-.77.81-1.46 1.38-1.18"/></g><g class="cls-17"><path class="cls-2" d="M271.18 318.09l-.51-3.09-28.13 5.56a2.33 2.33 0 0 0-.91 2.14z"/></g><path class="cls-8" d="M255.13 309c0 .19.76.16 1.55.66s1.27 1.23 1.4 1.13-.24-1.15-1.2-1.73-1.8-.19-1.75-.06zm-2.88 2.2c0 .19.66.42 1.25 1.14s.85 1.55 1 1.52.1-1.12-.65-2-1.62-.86-1.6-.66zm-1.12 5.14c.13 0 .21-1-.3-1.93s-1.23-1.29-1.27-1.12.45.65.86 1.46.58 1.59.71 1.59zm33.29-284.01a10.73 10.73 0 0 0-5.82 2.75c-4.35 4.05-5.54 12.1-2.9 20.15 1.53.17 3.16.42 4.87.77 1.36.28 2.64.59 3.85.93a94.43 94.43 0 0 1-.36-13.88c.05-1.15.13-2.28.22-3.38a18.53 18.53 0 0 0 .74 2 18 18 0 0 0 2.84 4.52 16.51 16.51 0 0 1-2.21-3.9 18.84 18.84 0 0 1-1.23-8.55zm-37.16 10.41A52.59 52.59 0 0 1 248.33 29c.19-.89.4-1.76.63-2.59a20.78 20.78 0 0 1-1.68 6.25 18.65 18.65 0 0 1-4 5.73c4.13-5.83 5.09-10.31 5.15-13.41a34.14 34.14 0 0 1 .8-7.23 14.7 14.7 0 0 1 2.24-5.36 15.7 15.7 0 0 1 1.09-1.32c2.74-3.05 6.7-3.22 9.43.52l-3.35 33.89z"/><path class="cls-7" d="M257 12.85a9.06 9.06 0 0 1 3.82-2.57 2.73 2.73 0 0 1 1.8-.12 1.51 1.51 0 0 1 1 1.52l-3.56 5.64a2.2 2.2 0 0 1-2.69.14 2.73 2.73 0 0 1-1.44-1.8 3.49 3.49 0 0 1 1.07-2.81z"/><path class="cls-15" d="M276.82 67.25zm6.77-38.05c-.59-8.2-6.83-14.75-14.27-14.53-7.89.23-13.94 7.6-13.49 16.19l2.63 34.57a3.37 3.37 0 0 0 .71 1.79 12.07 12.07 0 0 0 8.68 4.39 12.33 12.33 0 0 0 7.79-3.19 3.17 3.17 0 0 0 1-2.72l-1-8.88a14 14 0 0 0 2-.44c1.74-.79 6-2.28 6.14-10.1.13-2.61.36-9.91-.19-17.08z"/><path class="cls-8" d="M275 42a8.1 8.1 0 0 1 1.95-.56c.31-.06.6-.15.63-.39a1.84 1.84 0 0 0-.28-1l-1.1-2.53a47.58 47.58 0 0 1-2.56-6.65 45.91 45.91 0 0 1 3 6.41l1.06 2.55a2.13 2.13 0 0 1 .3 1.37.81.81 0 0 1-.47.54 1.7 1.7 0 0 1-.53.13 6.82 6.82 0 0 1-2 .13zm6.29-7.92a1.22 1.22 0 0 1-1 1.35 1.11 1.11 0 0 1-1.25-1 1.22 1.22 0 0 1 1-1.35 1.11 1.11 0 0 1 1.25 1zm.51-2.48c-.11.22-1.09-.49-2.3-.28s-2 1.17-2.12 1 0-.46.33-.9a2.64 2.64 0 0 1 1.66-1 2.51 2.51 0 0 1 1.87.47c.43.27.61.61.56.71zm-11.91 3.68a1.22 1.22 0 0 1-1 1.35 1.11 1.11 0 0 1-1.24-1 1.22 1.22 0 0 1 1-1.35 1.11 1.11 0 0 1 1.24 1zm.16-2.35c-.14.2-1.09-.65-2.41-.63s-2.26.87-2.41.66.07-.45.48-.84a2.85 2.85 0 0 1 1.92-.78 2.78 2.78 0 0 1 1.93.75c.44.38.57.75.49.84z"/><path class="cls-18" d="M275.67 56.82s-4.77.87-10.92-2.52c0 0 2.44 6.65 11.19 5zm.66-10.89a2.09 2.09 0 0 0-2-.73 2 2 0 0 0-1.32.93 1.51 1.51 0 0 0 0 1.61 1.37 1.37 0 0 0 1.62.31 4.53 4.53 0 0 0 1.48-1.15 1.34 1.34 0 0 0 .32-.43.49.49 0 0 0 0-.5"/><path class="cls-8" d="M270.7 27.87c-.09.37-1.31.33-2.72.66s-2.53.89-2.74.59.07-.52.5-.92a4.44 4.44 0 0 1 2-1 4.16 4.16 0 0 1 2.19.05c.52.18.81.44.77.62zm10.79.78c-.24.32-1.25.06-2.45.1s-2.21.32-2.46 0c-.11-.15 0-.46.47-.77a3.54 3.54 0 0 1 2-.6 3.58 3.58 0 0 1 2 .51c.39.3.55.61.44.76z"/><path class="cls-8" d="M270.17 12.78a3.92 3.92 0 0 0-3.37-1.47c-5.46 0-11 4.56-13.29 10.1s-1.51 13.11 1.39 18.3l2 .07c4.14-1 9.47-15.18 14.39-23.36.71-1.01-.44-2.69-1.12-3.64z"/><path class="cls-8" d="M280.91 15c-2.61-2.49-6.69-5.38-11.07-2.63-.5 1.57 1.13 3.24 2.42 4.15a43.33 43.33 0 0 0 4.74 3.22c1.79 1 4.16 3.33 6.59 9.68.13 3 .27 6 .4 9a12.5 12.5 0 0 0 1-2.11c1.38-3.56 1-7.12.52-11.08a22.22 22.22 0 0 0-.51-3.53 14.92 14.92 0 0 0-4.09-6.7z"/><path class="cls-15" d="M257.93 36.82c-.14 0-5.36-1.44-4.91 4.45s5.61 4.17 5.6 4-.69-8.45-.69-8.45z"/><path class="cls-16" d="M256.85 43.19s-.08.08-.23.17a.82.82 0 0 1-.68.09 2.6 2.6 0 0 1-1.22-2.18 3.81 3.81 0 0 1 .15-1.49 1.15 1.15 0 0 1 .62-.85.44.44 0 0 1 .56.23c.09.15.06.27.09.28s.11-.11.05-.35a.74.74 0 0 0-.24-.35.63.63 0 0 0-.51-.1 1.36 1.36 0 0 0-.89 1 3.88 3.88 0 0 0-.19 1.66c.12 1.19.75 2.25 1.52 2.42a.88.88 0 0 0 .82-.24c.16-.15.17-.28.15-.29z"/><path class="cls-7" d="M282.11 16.06a5.51 5.51 0 0 1-1.49.44 18.92 18.92 0 0 1-3.71.39 18.62 18.62 0 0 1-3.71-.34 5.74 5.74 0 0 1-1.5-.42 8.62 8.62 0 0 1 1.53.16 27.91 27.91 0 0 0 3.68.23 26.86 26.86 0 0 0 3.68-.28 8.77 8.77 0 0 1 1.52-.18zm2.23 3.94a2.82 2.82 0 0 1-1.1.46 7.82 7.82 0 0 1-2.83.23 7.89 7.89 0 0 1-2.75-.79 3.33 3.33 0 0 1-1-.67 14.9 14.9 0 0 0 3.79 1.1 14.7 14.7 0 0 0 3.89-.33zm-31.27 3.5c0-.07 1.14 0 3-.32a19.49 19.49 0 0 0 3.13-.82 27.16 27.16 0 0 0 3.66-1.64 31.89 31.89 0 0 0 3.41-2.2 30.3 30.3 0 0 0 2.57-2.19C270.2 15 271 14 271 14.08a4.43 4.43 0 0 1-.5.71c-.17.22-.38.48-.65.77s-.55.63-.9 1a26.61 26.61 0 0 1-2.55 2.27 28.83 28.83 0 0 1-3.4 2.22 25.92 25.92 0 0 1-3.71 1.64 19.64 19.64 0 0 1-3.19.75 10.26 10.26 0 0 1-1.25.12 6 6 0 0 1-.94 0 3 3 0 0 1-.84-.06zm17.81-7.32a4.59 4.59 0 0 1-.32.87c-.11.28-.26.62-.45 1s-.39.82-.66 1.27a24.85 24.85 0 0 1-2 3.08 25.19 25.19 0 0 1-3 3.22 22.67 22.67 0 0 1-3.53 2.51 19.22 19.22 0 0 1-3.17 1.41 10.88 10.88 0 0 1-1.27.38 7.1 7.1 0 0 1-1 .22 3 3 0 0 1-.83.11c0-.07 1.17-.27 3-.95a22.11 22.11 0 0 0 3.1-1.47 24.85 24.85 0 0 0 3.47-2.49 25.26 25.26 0 0 0 3-3.17 25.55 25.55 0 0 0 2.07-3c1.03-1.8 1.53-3.02 1.59-2.99z"/><path class="cls-7" d="M266.8 11.31a1.74 1.74 0 0 1 1.06-.07 4.4 4.4 0 0 1 2.31 1.21 4.23 4.23 0 0 1 .51.61 4.31 4.31 0 0 1 .34.68 8.75 8.75 0 0 1 .43 1.19 1.92 1.92 0 0 1 .05 1.19c-.05 0 0-.45-.27-1.11a11.36 11.36 0 0 0-.48-1.12 4 4 0 0 0-.33-.61 3.43 3.43 0 0 0-.47-.55 4.78 4.78 0 0 0-2.14-1.23c-.61-.15-1.01-.13-1.01-.19zm-13.09 26.17s0-.1-.08-.3-.15-.47-.25-.84a28.26 28.26 0 0 1-.74-3.16 25.1 25.1 0 0 1-.39-4.8 21 21 0 0 1 .88-5.8 15.53 15.53 0 0 1 1.15-2.76 16 16 0 0 1 1.52-2.27 18.44 18.44 0 0 1 3.25-3.14 22.84 22.84 0 0 1 2.51-1.66l.7-.4c.16-.09.25-.15.24-.16l-.26.11c-.16.08-.42.19-.73.36a20.68 20.68 0 0 0-2.51 1.59 17.53 17.53 0 0 0-3.33 3.13 16.48 16.48 0 0 0-1.55 2.3 15.09 15.09 0 0 0-1.18 2.81 20.91 20.91 0 0 0-.87 5.89 23.52 23.52 0 0 0 .45 4.84 25.39 25.39 0 0 0 .81 3.16c.11.36.23.64.3.82s.07.29.08.28z"/><path class="cls-8" d="M277 47.49c0-.18-1.19-.37-2.57-1.06s-2.36-1.7-2.43-1.57a4.79 4.79 0 0 0 2.3 2.14c1.45.72 2.7.64 2.7.49z"/><path class="cls-15" d="M283.67 62.41L276.15 61.4 258.35 63.98 249.27 69.67 265.06 77.15 276.54 74.5 283.67 62.41z"/><path class="cls-7" d="M253.9 66.29l-12.59 5.79 2.82 27.18s4.69-1.88 7.2 11.85a141.84 141.84 0 0 1 2.56 22.53l45.84-1.84s-1.67-32.92-2.51-40.25l-3.08-28-11.83-2.25s-11.39 21.62-28.41 4.99z"/><path class="cls-7" d="M294.14 63.52s5.59-.45 10 8.22c3.35 6.61 4.53 9.16 4.53 9.16l-13 8.52-5.19-15.93zM241.45 72s-5 3.2-7.66 7.33a104 104 0 0 0-5.86 11.74l15.36 9.62 2.28-4.94z"/><path class="cls-8" d="M245.76 95.25c-.07 0 .33-1.18.69-3.13a29 29 0 0 0 .4-3.44 30.74 30.74 0 0 0-.09-4.25 29.88 29.88 0 0 0-.76-4.17 28.26 28.26 0 0 0-1.08-3.26c-.74-1.8-1.36-2.83-1.29-2.87a3.22 3.22 0 0 1 .47.69 14.62 14.62 0 0 1 1.07 2.05 22.72 22.72 0 0 1 1.19 3.27 25.75 25.75 0 0 1 .86 8.57 23 23 0 0 1-.5 3.48 18.72 18.72 0 0 1-.63 2.27 4 4 0 0 1-.33.79zM295 76.65c-.13 0-.53-2.69-1.76-5.76s-2.73-5.25-2.62-5.34a5.76 5.76 0 0 1 1.05 1.37 21.71 21.71 0 0 1 1.94 3.78 23.52 23.52 0 0 1 1.2 4.16 6.88 6.88 0 0 1 .19 1.79zm-9.08-15.31a1.88 1.88 0 0 1-.13.44c-.1.28-.22.7-.45 1.21a21.91 21.91 0 0 1-7 8.95 19 19 0 0 1-7.24 3.33 17.8 17.8 0 0 1-7.82-.17 19.31 19.31 0 0 1-9.41-5.49c-.38-.38-.63-.73-.82-1a2 2 0 0 1-.25-.35s.42.42 1.18 1.17a20.62 20.62 0 0 0 3.48 2.74 19.56 19.56 0 0 0 5.9 2.48 18.08 18.08 0 0 0 7.67.13 19 19 0 0 0 7.11-3.24 22 22 0 0 0 4.7-4.7 23.94 23.94 0 0 0 2.37-4c.45-.93.68-1.51.71-1.5zm-28.28-7.88l-.68-8a3.12 3.12 0 0 1-1.38-.09 3.51 3.51 0 0 1-1.57-1l-6.73-1.82 1 9.6a16.6 16.6 0 0 1 9.4 1.31z"/><path class="cls-3" d="M172.26 171.82c2.78 7.6 10.77 10.88 17.26 7.08L361 78.46l21.89-35.64-37.65 6.46-167.52 105c-5.52 3.48-7.85 11-5.46 17.54z"/><path class="cls-8" d="M177.7 154.31c-5.5 3.45-7.83 11-5.44 17.51 2.78 7.6 10.77 10.88 17.26 7.08z"/><path class="" d="M345.22 49.28L177.7 154.31 179.72 158.51 347.89 54.88 345.22 49.28z"/><path class="" d="M358.03 72.79L187.58 174.87 189.52 178.9 360.98 78.46 358.03 72.79z"/><path class="" d="M351.26 60.58L182.56 164.43 185.25 170.03 354.13 66.36 351.26 60.58z"/><g class="cls-4"><path class="cls-2" d="M360.98 78.46L345.22 49.28 368.26 45.33 375.35 55.06 360.98 78.46z"/></g><path class="cls-15" d="M330.69 96.53l3.06-3.65s-.36-8.31.9-10.33l.66-1.23s-.65-4 1.28-5c.55-1.53 1.25-2.15 2.21-1.3 0 0-.54-3 2-3.44s3.2 12.49 3.2 12.49 1.26 5.77-1.62 5.77c0 0-1.63 2-3.43 2.23 0 0-.54 3.44-3.06 3.24z"/><path class="cls-16" d="M338.6 90.57s.15.11.29.41a2.57 2.57 0 0 1 .14 1.43 3.3 3.3 0 0 1-.94 1.84 5.77 5.77 0 0 1-2 1.24 13.27 13.27 0 0 1-4 .9 4.69 4.69 0 0 1-1.69-.1 23.91 23.91 0 0 0 5.58-1.22 5.74 5.74 0 0 0 1.9-1.13 3.11 3.11 0 0 0 .92-1.6 3.23 3.23 0 0 0-.2-1.77zm2.24-4.57c-.12 0-.13-2.58-.68-5.69s-1.4-5.5-1.29-5.55a5.43 5.43 0 0 1 .67 1.53 24.91 24.91 0 0 1 1 3.94 25.38 25.38 0 0 1 .4 4.07 6 6 0 0 1-.1 1.7zm-2.17 1.42c-.12 0-.34-2.52-.92-5.57s-1.27-5.45-1.16-5.5a21.84 21.84 0 0 1 1.55 5.41 22.45 22.45 0 0 1 .53 5.66zm4.03-.1c.09-.07.47.73.22 1.73s-.92 1.48-1 1.37.39-.63.58-1.49.09-1.57.2-1.61zm-7.06.57a20.39 20.39 0 0 1-.23-3.15 18.64 18.64 0 0 1-.11-3.17 9.55 9.55 0 0 1 .51 3.14 9.29 9.29 0 0 1-.17 3.18z"/><path class="cls-15" d="M228.65 91.06s-10.17 24.11-11.71 27.7-4 10.24 0 14 32.06 4 32.06 4l1.39-12.7L232 119l10.85-18.29z"/><path class="cls-15" d="M252.82 124.17a10.6 10.6 0 0 1 2.43-3.6c1.76-1.72 5.64-3 6.14-4.7s2-.37 1.63 1.68c-.22 1.31-2.62 4.74-2.62 4.74s2.82.8 4.69-.42 8.44-3.39 9.14-2.36-.92 1.55-1.66 2c-.56.36-4.93 2.79-4.93 2.79s8.69-.33 9.78.13 0 1.69-.58 1.71a14.73 14.73 0 0 0-2.88 2.61 3.74 3.74 0 0 1-2.63 1.19h-2l6.13.72a.94.94 0 0 1-.42 1.66c-.65.25-19.23 3.26-20.67 3.35-2.5.17-6.44.85-6.44.85l1-13z"/><path class="cls-16" d="M277 126.28a12.26 12.26 0 0 1-4.13 1.41 11.66 11.66 0 0 1-4.31.28c0-.13 1.92-.25 4.24-.72s4.2-1.09 4.2-.97z"/></svg>