<svg id="Layer_1" data-name="Layer 1" xmlns="http://www.w3.org/2000/svg" viewBox="0 0 1380 325"><defs><style>.cls-1{fill:#fae4fa}.cls-2{fill:#fafafa}.cls-3{fill:#020102}.cls-4{fill:#375a64}.cls-5{fill:#ec93ee}.cls-6{fill:#ececec}.cls-7{fill:#fff}.cls-8{fill:#1a2e35}.cls-9{fill:#ffbf9e}.cls-10{fill:#ff9a6e}.cls-11{opacity:.3}.cls-12{fill:#ffbf9d}.cls-13{opacity:.6}.cls-14{fill:#e1e1e1}.cls-15{fill:#f5f5f5}.cls-16{fill:#ae4f34}.cls-17{opacity:.2}</style></defs><path class="cls-1" d="M-0.73 -2.67H1380.74V327.68H-0.73z"/><path class="cls-2" d="M877.69 23.78H1016.5200000000001V84.7H877.69z"/><path class="cls-3" d="M1016.63 84.86h-.12l-139-.08V23.66h.13l139 .07v.12zm-138.83-.33l138.58.08V23.94l-138.59-.07z"/><path class="cls-4" d="M1004.82 38.22c0 .1-23.59.18-52.69.16s-52.69-.11-52.69-.22S923 38 952.13 38s52.69.11 52.69.22zm0 7.2c0 .11-23.59.19-52.69.17s-52.7-.11-52.7-.22 23.59-.19 52.7-.17 52.69.12 52.69.22zm0 7.21c0 .11-23.6.19-52.7.17s-52.69-.11-52.69-.22 23.59-.19 52.69-.17 52.7.11 52.7.22zm-.01 7.21c0 .11-23.59.18-52.69.17s-52.7-.12-52.7-.22 23.59-.19 52.7-.17 52.69.11 52.69.22zm0 7.21c0 .11-23.6.18-52.69.17s-52.7-.12-52.7-.23 23.59-.18 52.7-.17 52.69.12 52.69.23z"/><path class="cls-4" d="M995.64 58.65l-.23.32a3.09 3.09 0 0 1-.89.65 3.76 3.76 0 0 1-3.85-.82 8.24 8.24 0 0 1-1.81-2.65c-.5-1.09-.9-2.35-1.37-3.67a12.14 12.14 0 0 0-2.06-3.84 4.57 4.57 0 0 0-1.79-1.26 4.13 4.13 0 0 0-2.21-.15 8.15 8.15 0 0 0-4.2 2.58c-1.26 1.31-2.36 2.93-3.71 4.39a8.14 8.14 0 0 1-5.1 2.9 4.22 4.22 0 0 1-2.91-.9 8 8 0 0 1-2-2.71c-1-2.1-1.57-4.54-2.94-6.45A4.78 4.78 0 0 0 958 45a3.17 3.17 0 0 0-3 .83 7.74 7.74 0 0 0-2 3 21.77 21.77 0 0 0-.94 3.8 26.18 26.18 0 0 1-.93 3.94 9.59 9.59 0 0 1-.85 1.84 7.76 7.76 0 0 1-1.21 1.59 7.58 7.58 0 0 1-3.22 1.86 6.65 6.65 0 0 1-3.54.06 7.72 7.72 0 0 1-3.14-1.79c-.92-.8-1.76-1.69-2.64-2.48a7.55 7.55 0 0 0-2.84-1.8 3.63 3.63 0 0 0-3.05.46 7.77 7.77 0 0 0-2.28 2.45 24.43 24.43 0 0 0-1.54 3.12 25.31 25.31 0 0 1-1.52 3.09 7.68 7.68 0 0 1-2.19 2.4 3.63 3.63 0 0 1-5.33-.83 8.32 8.32 0 0 1-1.36-2.75 22.52 22.52 0 0 1-.63-2.95 15.5 15.5 0 0 0-1.46-5.31 5.27 5.27 0 0 0-3.33-2.95 3.28 3.28 0 0 0-2 .28 5.06 5.06 0 0 0-1.56 1.19c-1.78 2-2.64 4.36-4 5.74a5 5 0 0 1-3.54 2.05 2.49 2.49 0 0 1-1-.21l-.32-.17a3.06 3.06 0 0 0 1.35.3 5.06 5.06 0 0 0 3.45-2.08c1.28-1.37 2.11-3.75 3.92-5.79a5.41 5.41 0 0 1 1.62-1.25 3.44 3.44 0 0 1 2.06-.31 5.47 5.47 0 0 1 3.55 3 10.48 10.48 0 0 1 1 2.56c.22.92.37 1.88.53 2.84a22.86 22.86 0 0 0 .62 2.91 8.24 8.24 0 0 0 1.32 2.65 3.36 3.36 0 0 0 5 .75 7.27 7.27 0 0 0 2.09-2.3 24.81 24.81 0 0 0 1.49-3.06 25.15 25.15 0 0 1 1.56-3.17 8.22 8.22 0 0 1 2.34-2.51 3.92 3.92 0 0 1 3.29-.5 8 8 0 0 1 3 1.86c.89.81 1.73 1.69 2.63 2.47a7.23 7.23 0 0 0 3 1.73 6.4 6.4 0 0 0 3.39-.06 7.24 7.24 0 0 0 3.08-1.78 7.67 7.67 0 0 0 1.13-1.51 9.41 9.41 0 0 0 .81-1.76 26.25 26.25 0 0 0 .91-3.87 22.23 22.23 0 0 1 1-3.88 8.19 8.19 0 0 1 2.08-3.18 3.47 3.47 0 0 1 3.27-.89 5.2 5.2 0 0 1 2.73 2.18c1.41 2 1.94 4.46 3 6.5a7.65 7.65 0 0 0 1.93 2.59 3.92 3.92 0 0 0 2.73.85 7.83 7.83 0 0 0 4.86-2.75c1.34-1.43 2.45-3.05 3.73-4.37A8.38 8.38 0 0 1 981.4 47a4.31 4.31 0 0 1 2.31.16 4.89 4.89 0 0 1 1.87 1.34 12 12 0 0 1 2.08 3.93c.47 1.33.86 2.59 1.35 3.67a7.87 7.87 0 0 0 1.74 2.61 3.69 3.69 0 0 0 3.75.87 3.06 3.06 0 0 0 1.14-.93z"/><path class="cls-4" d="M1002.3 57h-.36l-.45-.07a3.44 3.44 0 0 1-.59-.25 10.48 10.48 0 0 1-3.13-3.06c-.3-.39-.6-.82-.9-1.27a13.92 13.92 0 0 0-1-1.39 4.9 4.9 0 0 0-3.11-1.64 3.79 3.79 0 0 0-1.89.28 4.93 4.93 0 0 0-1.69 1.31 47.66 47.66 0 0 0-2.77 4.16 8.86 8.86 0 0 1-1.78 2 5.11 5.11 0 0 1-2.43 1.06 9.57 9.57 0 0 1-5.32-1.13c-1.75-.84-3.42-2-5.3-2.74a8.7 8.7 0 0 0-2.93-.68 5.7 5.7 0 0 0-2.95.74c-1.88 1-3.36 2.95-5.13 4.5a9.51 9.51 0 0 1-6.37 2.57 11.35 11.35 0 0 1-6.75-2.17 18 18 0 0 1-5.12-5.91 58.4 58.4 0 0 1-3.11-7.56 16 16 0 0 0-1.81-3.43 8.06 8.06 0 0 0-2.67-2.39 4.16 4.16 0 0 0-3.22-.4 5.41 5.41 0 0 0-2.68 2 10.9 10.9 0 0 0-1.6 3.22 29 29 0 0 0-.83 3.55c-.22 1.19-.42 2.38-.7 3.54a16.29 16.29 0 0 1-1.15 3.3 14.48 14.48 0 0 1-3.87 5.05 10.49 10.49 0 0 1-5.05 2.36 9.28 9.28 0 0 1-5-.67 10.73 10.73 0 0 1-6-6.84c-.41-1.4-.62-2.75-.92-4a9.73 9.73 0 0 0-1.2-3.09 4.09 4.09 0 0 0-3.52-2.04 2.61 2.61 0 0 0-1.32.55 2.14 2.14 0 0 1 1.32-.63 4.13 4.13 0 0 1 3.59 2.05 10.25 10.25 0 0 1 1.29 3.12c.31 1.21.53 2.55.94 3.93a10.47 10.47 0 0 0 5.92 6.65 9.08 9.08 0 0 0 4.87.63 10.25 10.25 0 0 0 4.92-2.33A14.09 14.09 0 0 0 924.3 55a25.39 25.39 0 0 0 1.81-6.74 28.94 28.94 0 0 1 .83-3.61 11.29 11.29 0 0 1 1.66-3.33 5.69 5.69 0 0 1 2.84-2.16 4.49 4.49 0 0 1 3.43.41 8.47 8.47 0 0 1 2.79 2.43 16.27 16.27 0 0 1 1.86 3.53 58 58 0 0 0 3.1 7.5 17.38 17.38 0 0 0 5 5.79A11 11 0 0 0 954.2 61a9.55 9.55 0 0 0 3.3-.65 10.11 10.11 0 0 0 2.88-1.83C962.12 57 963.6 55 965.57 54a5.9 5.9 0 0 1 3.09-.78 9.13 9.13 0 0 1 3 .71c1.91.77 3.59 1.94 5.31 2.77a9.37 9.37 0 0 0 5.21 1.17 4.92 4.92 0 0 0 2.32-1 8.42 8.42 0 0 0 1.73-1.93 45.65 45.65 0 0 1 2.81-4.16 5.13 5.13 0 0 1 1.77-1.35 3.94 3.94 0 0 1 2-.28 5.06 5.06 0 0 1 3.2 1.73 13.4 13.4 0 0 1 1 1.42c.3.45.59.88.88 1.27a10.62 10.62 0 0 0 3.06 3.09 2.38 2.38 0 0 0 1.35.34zM892.2 38.51c0 .11-.62.2-1.39.2s-1.4-.09-1.4-.2.63-.19 1.4-.19 1.39.09 1.39.19zm0 6.86c0 .1-.63.19-1.4.19s-1.39-.09-1.39-.2.62-.19 1.39-.19 1.4.09 1.4.2zm-.01 6.85c0 .1-.62.19-1.39.19s-1.39-.09-1.39-.2.59-.21 1.39-.21 1.39.11 1.39.22zm0 6.85c0 .1-.62.19-1.39.19s-1.4-.09-1.4-.2.63-.19 1.4-.19 1.39.13 1.39.2zm0 6.85c0 .1-.63.19-1.4.19s-1.39-.09-1.39-.2.62-.19 1.39-.19 1.4.09 1.4.2zM905 74.73a10.66 10.66 0 0 1-2.79.19 9.83 9.83 0 0 1-2.78-.2 10.07 10.07 0 0 1 2.78-.19 9.93 9.93 0 0 1 2.79.2zm24.56.01a10.07 10.07 0 0 1-2.78.19 10.66 10.66 0 0 1-2.79-.19 9.93 9.93 0 0 1 2.79-.2 9.83 9.83 0 0 1 2.78.2zm24.58.01a19.56 19.56 0 0 1-5.58 0 9.93 9.93 0 0 1 2.79-.2 10.39 10.39 0 0 1 2.79.2zm24.57.01a19.56 19.56 0 0 1-5.58 0 10.17 10.17 0 0 1 2.79-.19 10.66 10.66 0 0 1 2.79.19zm24.57.02a10.17 10.17 0 0 1-2.79.19 9.83 9.83 0 0 1-2.78-.2 10.61 10.61 0 0 1 2.78-.19 9.93 9.93 0 0 1 2.79.2z"/><path class="cls-2" d="M1151.4 10.25H1280.54V125.79H1151.4z"/><path class="cls-3" d="M1280.67 125.91h-129.4V10.12h129.4zm-129.15-.25h128.9V10.37h-128.9z"/><path class="cls-5" d="M1203.16 30.78c0 .19-6.8.34-15.18.34s-15.18-.15-15.18-.34 6.79-.35 15.18-.35 15.18.16 15.18.35zm54.72 8.67c0 .19-18.68.35-41.71.35s-41.71-.16-41.71-.35 18.67-.34 41.71-.34 41.71.15 41.71.34z"/><path class="cls-5" d="M1173.02 54.15H1178.46V59.589999999999996H1173.02z"/><path class="cls-5" d="M1186.41 54.15H1191.8500000000001V59.589999999999996H1186.41z"/><path class="cls-5" d="M1200.05 53.9H1205.49V59.339999999999996H1200.05z"/><path class="cls-5" d="M1213.2 54.15H1218.64V59.589999999999996H1213.2z"/><path class="cls-5" d="M1226.59 54.15H1232.03V59.589999999999996H1226.59z"/><path class="cls-5" d="M1239.98 54.15H1245.42V59.589999999999996H1239.98z"/><path class="cls-5" d="M1253.37 54.15H1258.81V59.589999999999996H1253.37z"/><path class="cls-5" d="M1173.02 65.71H1178.46V71.14999999999999H1173.02z"/><path class="cls-5" d="M1186.41 65.71H1191.8500000000001V71.14999999999999H1186.41z"/><path class="cls-5" d="M1199.8 65.71H1205.24V71.14999999999999H1199.8z"/><path class="cls-5" d="M1213.2 65.71H1218.64V71.14999999999999H1213.2z"/><path class="cls-5" d="M1226.59 65.71H1232.03V71.14999999999999H1226.59z"/><path class="cls-5" d="M1240.23 65.47H1245.67V70.91H1240.23z"/><path class="cls-5" d="M1253.37 65.71H1258.81V71.14999999999999H1253.37z"/><path class="cls-5" d="M1173.02 77.28H1178.46V82.72H1173.02z"/><path class="cls-5" d="M1186.66 77.03H1192.1000000000001V82.47H1186.66z"/><path class="cls-5" d="M1199.8 77.28H1205.24V82.72H1199.8z"/><path class="cls-5" d="M1213.2 77.28H1218.64V82.72H1213.2z"/><path class="cls-5" d="M1226.59 77.28H1232.03V82.72H1226.59z"/><path class="cls-5" d="M1239.98 77.28H1245.42V82.72H1239.98z"/><path class="cls-5" d="M1253.37 77.28H1258.81V82.72H1253.37z"/><path class="cls-5" d="M1173.02 88.85H1178.46V94.28999999999999H1173.02z"/><path class="cls-5" d="M1186.41 88.85H1191.8500000000001V94.28999999999999H1186.41z"/><path class="cls-5" d="M1199.8 88.85H1205.24V94.28999999999999H1199.8z"/><path class="cls-5" d="M1213.44 88.6H1218.88V94.03999999999999H1213.44z"/><path class="cls-5" d="M1226.59 88.85H1232.03V94.28999999999999H1226.59z"/><path class="cls-5" d="M1239.98 88.85H1245.42V94.28999999999999H1239.98z"/><path class="cls-5" d="M1253.37 88.85H1258.81V94.28999999999999H1253.37z"/><path class="cls-5" d="M1173.02 100.41H1178.46V105.85H1173.02z"/><path class="cls-5" d="M1186.41 100.41H1191.8500000000001V105.85H1186.41z"/><path class="cls-5" d="M1199.8 100.41H1205.24V105.85H1199.8z"/><path class="cls-5" d="M1213.2 100.41H1218.64V105.85H1213.2z"/><path class="cls-5" d="M1226.59 100.41H1232.03V105.85H1226.59z"/><path class="cls-5" d="M1240.23 100.17H1245.67V105.61H1240.23z"/><path class="cls-5" d="M1253.37 100.41H1258.81V105.85H1253.37z"/><path class="cls-5" d="M1021.14 298.84l-1.35 16.74s-16.88 5.32-17 8.41l33 .43 1-25.61z"/><path class="cls-6" d="M1030 313.88a1.31 1.31 0 0 1 1 1.48 1.29 1.29 0 0 1-1.49 1 1.39 1.39 0 0 1-1-1.57 1.36 1.36 0 0 1 1.67-.84"/><path class="cls-7" d="M1035.84 324.42l-.07-2.6-31.28.19s-1.79 1.05-1.74 2.06z"/><path class="cls-8" d="M1019.25 315.43c0 .16.82.21 1.63.69s1.25 1.14 1.4 1.07-.12-1-1.11-1.54-1.96-.36-1.92-.22zm-3.42 1.51c0 .15.67.4 1.24 1.05s.75 1.36.91 1.35.24-.91-.49-1.71-1.66-.84-1.66-.69zm-1.83 4.12c.15 0 .35-.77-.09-1.62s-1.21-1.18-1.27-1 .42.58.77 1.29.41 1.32.59 1.33zm5.43-9.45c.07.14.8-.1 1.72-.07s1.63.3 1.71.16-.62-.68-1.7-.71-1.82.5-1.73.62zm-.17-3.37a3 3 0 0 0 1.66-.06 7.44 7.44 0 0 0 1.71-.57 7.33 7.33 0 0 0 .94-.52 1.87 1.87 0 0 0 .49-.4.69.69 0 0 0 0-.84.91.91 0 0 0-.72-.34 2.17 2.17 0 0 0-.62.1 5.83 5.83 0 0 0-1 .38 6.22 6.22 0 0 0-1.5 1c-.74.72-1 1.32-.93 1.35s.43-.46 1.2-1.05a6.48 6.48 0 0 1 2.39-1.18c.35-.1.64-.11.74 0s0 .08 0 .18a1.41 1.41 0 0 1-.36.29 9 9 0 0 1-.86.52 9.64 9.64 0 0 1-1.58.65 12.31 12.31 0 0 0-1.56.49z"/><path class="cls-8" d="M1019.48 308.46a2.54 2.54 0 0 0 .39-1.58 5.18 5.18 0 0 0-.73-2.74 1.42 1.42 0 0 0-1.08-.79.77.77 0 0 0-.68.48 1.82 1.82 0 0 0-.15.6 3.63 3.63 0 0 0 .79 2.74c.67.82 1.35 1 1.36.94s-.52-.37-1-1.16a3.61 3.61 0 0 1-.57-1.51 3.29 3.29 0 0 1 0-.94c0-.35.17-.63.3-.6s.45.25.59.52a4.74 4.74 0 0 1 .44.87 5.54 5.54 0 0 1 .37 1.6c.04.95-.12 1.55-.03 1.57z"/><path class="cls-5" d="M1094.46 297.84l1.36 16.74s16.88 5.32 17 8.41l-33 .43-1-25.61z"/><path class="cls-6" d="M1085.64 312.88a1.31 1.31 0 0 0-1 1.48 1.29 1.29 0 0 0 1.49 1 1.39 1.39 0 0 0 1-1.57 1.36 1.36 0 0 0-1.67-.84"/><path class="cls-7" d="M1079.77 323.42l.06-2.6 31.29.19s1.79 1.05 1.74 2.06z"/><path class="cls-8" d="M1096.36 314.43c0 .16-.82.21-1.63.69s-1.26 1.14-1.4 1.07.12-1 1.11-1.54 1.96-.36 1.92-.22zm3.42 1.51c0 .15-.67.4-1.24 1.05s-.75 1.36-.91 1.35-.24-.91.48-1.71 1.67-.84 1.67-.69zm1.84 4.12c-.14 0-.34-.77.1-1.62s1.2-1.18 1.27-1-.42.58-.77 1.29-.43 1.32-.6 1.33zm-5.44-9.45c-.07.14-.8-.1-1.72-.07s-1.63.3-1.71.16.62-.68 1.7-.71 1.82.49 1.73.62zm.17-3.37a3 3 0 0 1-1.66-.06 7.66 7.66 0 0 1-1.72-.57 8 8 0 0 1-.93-.52 1.87 1.87 0 0 1-.49-.4.69.69 0 0 1 0-.84.91.91 0 0 1 .72-.34 2.23 2.23 0 0 1 .62.1 6.15 6.15 0 0 1 1 .38 6 6 0 0 1 1.49 1c.75.72 1 1.32.94 1.35s-.44-.46-1.2-1.05a6.48 6.48 0 0 0-2.39-1.18c-.35-.1-.65-.11-.74 0s0 .08 0 .18a1.41 1.41 0 0 0 .36.29 7.87 7.87 0 0 0 .86.52 9.64 9.64 0 0 0 1.58.65 12.31 12.31 0 0 1 1.56.49z"/><path class="cls-8" d="M1096.13 307.46a2.54 2.54 0 0 1-.39-1.58 5.18 5.18 0 0 1 .73-2.74 1.42 1.42 0 0 1 1.08-.79.77.77 0 0 1 .68.48 2.11 2.11 0 0 1 .15.6 3.63 3.63 0 0 1-.79 2.74c-.67.82-1.35 1-1.36.94s.52-.37 1-1.16a3.75 3.75 0 0 0 .57-1.51 3.29 3.29 0 0 0 0-.94c0-.35-.17-.63-.3-.6s-.45.25-.59.52a5 5 0 0 0-.44.86 5.67 5.67 0 0 0-.37 1.61c-.04.95.12 1.55.03 1.57z"/><path class="cls-8" d="M1094.69 144c.21 0 2.74 164 2.74 164l-20.23-.68-7-80.65-1.69-59.2-13.76 54.76-17.18 85.94-20.2-5 25.71-160.29 24.22-4.59zm-43.98-101.35c-2.42-4.68-3.18-13.09-.41-17.75s8.4-8 13.68-9.55a4.58 4.58 0 0 1 2.71-.17 1.78 1.78 0 0 1 1.29 2.08 11.57 11.57 0 0 1 3.29-1.87 4 4 0 0 1 3.64.5 2.33 2.33 0 0 1 .35 3.32 4.28 4.28 0 0 1 4.47.68 4.09 4.09 0 0 1 1.14 4.3 13 13 0 0 1-2.69 4.15 3.57 3.57 0 0 0-.85 3.63"/><path class="cls-9" d="M1070.66 81.23c-.15-2.25-.52-22.59-.52-22.68s7.71-.93 8-8.44c.17-3.63-.12-11.13-.47-17.91a14.14 14.14 0 0 0-13.83-13.3h-.74c-8 .21-12.27 7-11.83 14.8l1.09 43.52"/><path class="cls-10" d="M1070.14 58.55a18.8 18.8 0 0 1-9.89-3.2s2.3 4.7 10 4.26z"/><path class="cls-8" d="M1076.43 37.28a1.1 1.1 0 0 1-1.09 1 1 1 0 0 1-1.1-1 1.1 1.1 0 0 1 1.09-1 1 1 0 0 1 1.1 1zm-.43-1.45c-.14.14-1-.49-2.13-.52s-2.06.51-2.18.37.08-.31.47-.57a3 3 0 0 1 1.75-.47 2.91 2.91 0 0 1 1.69.59c.3.28.4.54.4.6zm-11.38 1.61a1.08 1.08 0 0 1-1.09 1.05 1 1 0 0 1-1.1-1 1.08 1.08 0 0 1 1.09-1.05 1.05 1.05 0 0 1 1.1 1zm-.26-1.75c-.14.14-.95-.49-2.13-.52s-2.06.52-2.18.37.08-.31.47-.57a3.14 3.14 0 0 1 1.75-.47 3 3 0 0 1 1.69.59c.35.29.47.54.4.6zm4 8.69a9 9 0 0 1 1.93-.28c.3 0 .59-.07.64-.27a1.42 1.42 0 0 0-.17-.88c-.26-.72-.53-1.48-.82-2.27a38.86 38.86 0 0 1-1.81-5.93 39.1 39.1 0 0 1 2.3 5.78l.78 2.28a1.73 1.73 0 0 1 .12 1.16.78.78 0 0 1-.51.42 2 2 0 0 1-.52 0 7.34 7.34 0 0 1-1.94-.01zm-3.49.7c.19 0 .16 1.25 1.22 2.17s2.43.82 2.44 1-.31.23-.89.23a3.24 3.24 0 0 1-2-.76 2.71 2.71 0 0 1-.95-1.82c-.06-.53.09-.83.18-.82zm-.06-13.9c-.13.31-1.3.12-2.69.24s-2.52.46-2.69.17c-.08-.13.13-.42.59-.71a4.79 4.79 0 0 1 4.09-.32c.5.22.75.44.7.62zm10.81 1.3c-.21.25-1 0-2-.09s-1.81.12-2-.16c-.08-.13.06-.39.43-.63a2.83 2.83 0 0 1 1.63-.38 2.79 2.79 0 0 1 1.58.58c.35.28.46.55.36.68z"/><path class="cls-9" d="M1051.76 39.26c-.13-.06-5.22-1.69-5.22 3.46s5.27 4.07 5.28 3.92-.06-7.38-.06-7.38z"/><path class="cls-10" d="M1050.22 44.7s-.1.06-.25.13a.92.92 0 0 1-.68 0 2.19 2.19 0 0 1-1-2 2.84 2.84 0 0 1 .25-1.29 1.05 1.05 0 0 1 .69-.68.46.46 0 0 1 .54.24c.07.15 0 .25.07.26s.11-.09.07-.3a.66.66 0 0 0-.21-.32.71.71 0 0 0-.51-.13 1.25 1.25 0 0 0-1 .79 3.05 3.05 0 0 0-.32 1.44 2.34 2.34 0 0 0 1.34 2.22 1 1 0 0 0 .79-.06c.21-.18.23-.29.22-.3z"/><path class="cls-8" d="M1081.06 22.49c.61 6.67-7.77 9.45-11.44 5.72-1.7-1.72-3.19-3.87-5.5-4.65a6.4 6.4 0 0 0-4.79.49 7.83 7.83 0 0 0-3.77 5.92c-.47 3.3.07 6.2-.81 9.23a2.06 2.06 0 0 1-.64 1.17 1.71 1.71 0 0 1-2.08-.52 6.22 6.22 0 0 1-1.31-3.39 20.68 20.68 0 0 1 .31-8.33 14.29 14.29 0 0 1 4.27-7.14 14.11 14.11 0 0 1 9.87-3.31 17.25 17.25 0 0 1 9.79 3.77 9.9 9.9 0 0 1 3.04 3.75"/><path class="cls-4" d="M1075.5 18.83a1.39 1.39 0 0 1 .73 0 3.52 3.52 0 0 1 1.73.94 4.37 4.37 0 0 1 1.31 2.59 4.91 4.91 0 0 1-1 3.39 6.54 6.54 0 0 1-2.84 2.17 9 9 0 0 1-2.86.62 11.31 11.31 0 0 1-2-.06 2.73 2.73 0 0 1-.71-.14c0-.07 1 .07 2.65-.08a9.6 9.6 0 0 0 2.74-.68 6.44 6.44 0 0 0 2.66-2.06 4.64 4.64 0 0 0 1-3.12 4.2 4.2 0 0 0-1.14-2.43 3.76 3.76 0 0 0-1.57-1c-.44-.1-.7-.1-.7-.14zm-3.5-2.36s.2-.06.5.09a1.62 1.62 0 0 1 .82 1.1 2.88 2.88 0 0 1-.4 2 8.25 8.25 0 0 1-1.44 2 9 9 0 0 1-3.75 2.33 4.31 4.31 0 0 1-1.81.3c0-.07.68-.16 1.72-.56a10 10 0 0 0 3.55-2.34 8.68 8.68 0 0 0 1.4-1.87 2.76 2.76 0 0 0 .45-1.74 1.53 1.53 0 0 0-.62-1c-.25-.26-.42-.28-.42-.31z"/><path class="cls-9" d="M1117.69 83.05l36.09-3.35 5.71-1.35s13-2.28 14.28-2.66c1.41-.44 2 .13 2.09.65.2.81-.62 1.69-1.82 2.09-.42.15-7.07 2.12-7.07 2.12a17 17 0 0 1 2.19.71c1.55.59 3 2.63 3.64 5s.63 3-.28 3.34a1.24 1.24 0 0 1-1-.18 2.33 2.33 0 0 1-1-1.36c-1.11-3.74-3.46-4.12-3.46-4.12l-.75.18s2.37 1.75 2.24 3.76a2.27 2.27 0 0 1-.22.86 3.06 3.06 0 0 1-.63 2.9 3.21 3.21 0 0 1-3 1c-.51-.1-1.06-.42-1.11-.94a1.55 1.55 0 0 1 .19-.78 1.93 1.93 0 0 0 .15-.4l-2.17.2s-4.88.21-7 .53l-34 8.63a8.73 8.73 0 0 1-10.76-6.34 8.55 8.55 0 0 1 7.69-10.49z"/><path class="cls-9" d="M1154.57 80.62a1.81 1.81 0 0 0 1.49 1.47c.74.18 1.51.11 2.25.24 2.23.38 3.89 2.44 6.13 2.71.31 0 .71 0 .81-.3s-.13-.53-.34-.73l-5.41-5.07"/><path class="cls-10" d="M1159.5 78.94a3.2 3.2 0 0 1 .64.49c.4.34 1 .83 1.65 1.45l2.39 2.18.69.64c.2.21.57.41.61.91a.6.6 0 0 1-.4.57 1.45 1.45 0 0 1-.61.08 4.78 4.78 0 0 1-1.07-.26 27.71 27.71 0 0 1-3.52-1.92 5.73 5.73 0 0 0-1.58-.58c-.52-.1-1-.1-1.5-.15a2.61 2.61 0 0 1-2-.95.92.92 0 0 1-.22-.78 2.23 2.23 0 0 0 .35.68 2.58 2.58 0 0 0 1.91.75 15.06 15.06 0 0 1 1.53.11 5.91 5.91 0 0 1 1.7.58 32.58 32.58 0 0 0 3.48 1.87 4.27 4.27 0 0 0 1 .23c.31 0 .58-.07.56-.23s-.25-.41-.48-.63l-.68-.64-2.33-2.25c-.66-.64-1.19-1.17-1.55-1.54a3 3 0 0 1-.57-.61zm6.69 5.06a3.29 3.29 0 0 1 1.42 0 2.4 2.4 0 0 1 1.19.87 6 6 0 0 1 .82 1.68 9.34 9.34 0 0 0 .75 1.79 3 3 0 0 0 1.13 1.15 1.25 1.25 0 0 0 1.09.07c.24-.12.34-.23.33-.24s-.13.06-.36.14a1.19 1.19 0 0 1-1-.14 3 3 0 0 1-1-1.11 9.81 9.81 0 0 1-.71-1.75 5.7 5.7 0 0 0-.88-1.74 2.43 2.43 0 0 0-1.34-.9 2.14 2.14 0 0 0-1.1 0 .88.88 0 0 0-.34.18zm8.31-5.73a7.33 7.33 0 0 0-1.33.38l-3.16 1-3.18 1a10 10 0 0 0-1.31.43 6 6 0 0 0 1.36-.24c.83-.2 2-.5 3.21-.89s2.36-.77 3.15-1.08a6.43 6.43 0 0 0 1.26-.6zm-9.34 7.67a3.72 3.72 0 0 0 .27.33 1.23 1.23 0 0 1 .37 1 .68.68 0 0 1-.44.51 4.08 4.08 0 0 1-.88.2 1.56 1.56 0 0 0-1 .47 1.24 1.24 0 0 0-.21 1.15 1.5 1.5 0 0 0 .77.88 2 2 0 0 0 1.08.2 6.1 6.1 0 0 0 1.69-.55 3.82 3.82 0 0 0 1-.66c.19-.21.25-.36.23-.36s-.1.11-.31.28a4.4 4.4 0 0 1-1 .57 6.79 6.79 0 0 1-1.64.47 1.5 1.5 0 0 1-1.56-.91 1 1 0 0 1 .16-.91 1.38 1.38 0 0 1 .83-.39 3.56 3.56 0 0 0 .92-.24.87.87 0 0 0 .54-.68 1.26 1.26 0 0 0-.48-1.08c-.2-.22-.32-.3-.34-.28z"/><path class="cls-10" d="M1164.22 90.29a.6.6 0 0 0-.36.15 1.16 1.16 0 0 0-.44 1 1.57 1.57 0 0 0 .9 1.29 2.71 2.71 0 0 0 2 .1 3.18 3.18 0 0 0 1.59-1.09 3 3 0 0 0 .51-2.5c-.07-.23-.14-.35-.16-.35a4.81 4.81 0 0 1 0 1.37 2.85 2.85 0 0 1-.59 1.32 2.91 2.91 0 0 1-1.48 1 2.49 2.49 0 0 1-1.75-.06 1.39 1.39 0 0 1-.82-1.08 1.09 1.09 0 0 1 .32-.87c.15-.21.29-.26.28-.28zm-5.86-3.12s0-.25-.21-.62a2.59 2.59 0 0 0-1.26-1.1v.24a7.19 7.19 0 0 0 .84-.41 5.77 5.77 0 0 0 2.34-2.19 14.67 14.67 0 0 1-2.48 2c-.27.15-.55.29-.8.41l-.29.12.29.11a2.69 2.69 0 0 1 1.22 1c.23.27.32.45.35.44zm11.33-3.33s-.44.35-.51 1 .23 1.11.29 1.07-.09-.48 0-1 .29-1.02.22-1.07z"/><path class="cls-5" d="M1117 100.33L1093.5 95s1.22 42.27 1.22 42.67 1.94 1.07 1.77 4.14l-1.69 3.64-51.61.68-1.39-41-4.71-31.84 10.82-6.56 3.82-5.07L1066.61 77l3.7-13.13-.1-3.91 3.68 3.92 19.85 5.6 26.22 12 17.73-1.33 4.61 15.2z"/><path class="cls-8" d="M1068.67 72.28a2.38 2.38 0 0 1 1.06 1.16 4.56 4.56 0 0 1 .33 1.78 6.42 6.42 0 0 0 .35 2.42l.18.42.18-.42a22.19 22.19 0 0 0 1.17-3.74c.62-2.64 1-5.06 1.29-6.81a15.58 15.58 0 0 0 .31-2.86 22.25 22.25 0 0 0-.61 2.81c-.34 1.73-.79 4.14-1.42 6.76a24.35 24.35 0 0 1-1.1 3.68h.36a6.86 6.86 0 0 1-.38-2.28 4.55 4.55 0 0 0-.44-1.86 2.17 2.17 0 0 0-.85-.93.77.77 0 0 0-.43-.13zm-19.11-6.45a3.72 3.72 0 0 0 .5.71c.35.44.86 1.06 1.5 1.83 1.28 1.53 3.07 3.63 5.06 5.93l3.18 3.64.25.28.09-.36c.45-1.77.81-3.27 1.06-4.32.1-.53.4-.83.69-.84a.64.64 0 0 1 .4.12s-.06-.22-.4-.24a.78.78 0 0 0-.55.22 1.58 1.58 0 0 0-.36.68c-.32 1-.74 2.52-1.22 4.28l.34-.07L1057 74c-2-2.3-3.82-4.37-5.16-5.85-.66-.75-1.21-1.34-1.6-1.75a3.52 3.52 0 0 0-.68-.57zm21.96 67.52a4.71 4.71 0 0 0 0-.54v-1.57-5.77c-.06-4.88-.29-11.61-.86-19s-1.35-14.11-2-18.93c-.34-2.42-.64-4.37-.87-5.71l-.27-1.55a2.19 2.19 0 0 0-.13-.53 3.24 3.24 0 0 0 0 .55c0 .4.11.91.19 1.55.18 1.4.43 3.35.74 5.72.6 4.84 1.34 11.53 1.91 18.94s.85 14.12 1 19c.06 2.4.11 4.36.14 5.77v1.57a2.34 2.34 0 0 0 .15.5zm4.2 9.91a9.28 9.28 0 0 0 .38-3.63 12.78 12.78 0 0 0-.43-3.62 19.3 19.3 0 0 0 0 3.63c.06 1.99-.07 3.6.05 3.62z"/><path class="cls-8" d="M1054.57 131.39a7.83 7.83 0 0 0 1.33.49c.86.3 2.12.69 3.69 1.13a121.48 121.48 0 0 0 12.43 2.83 120.86 120.86 0 0 0 12.67 1.54c1.63.11 3 .17 3.87.19a9.18 9.18 0 0 0 1.42 0 8.23 8.23 0 0 0-1.41-.16l-3.85-.32c-3.25-.29-7.72-.81-12.62-1.65s-9.28-1.88-12.43-2.71l-3.72-1a11.72 11.72 0 0 0-1.38-.34zm39.19-27.46c.12 0 .2-6 .17-13.4s-.15-13.4-.27-13.4-.19 6-.16 13.4.14 13.4.26 13.4z"/><path class="cls-5" d="M1038.05 72.67s-6.51 5.46-6.93 8.56c-.33 2.39-6.73 24.86-9.61 34.91a14.39 14.39 0 0 0 .54 9.49l8.31 20.14 13.45-7.79-6.72-18.89 5.56-16z"/><path class="cls-8" d="M1030.36 145.77s.09 0 .26-.12l.71-.38 2.72-1.53 9.85-5.62.11-.07v-.12l-6.72-18.93v.14l2.45-6.45L1045.3 98c1.71-3.51 3.18-6.89 3.59-10.14a13.72 13.72 0 0 0-.14-4.55 13.26 13.26 0 0 0-1.35-3.66 15.38 15.38 0 0 0-3.47-4.3 11.4 11.4 0 0 0-1.17-.9 3.3 3.3 0 0 0-.43-.28 3 3 0 0 0 .39.33 13.08 13.08 0 0 1 1.12 1 15.71 15.71 0 0 1 3.34 4.31 12.69 12.69 0 0 1 1.28 3.61 13.7 13.7 0 0 1 .1 4.45c-.43 3.18-1.91 6.51-3.62 10l-5.59 14.67c-.83 2.21-1.66 4.37-2.44 6.44V119.13l6.76 18.87.08-.19-9.77 5.74-2.68 1.6-.69.43z"/><path d="M1065 75.62a2 2 0 0 0-2 1.43c-.16.88 0 1.8-.27 2.67s-1 1.7-1.93 1.52a2.39 2.39 0 0 1-1.28-1 30.19 30.19 0 0 1-4.19-7.58c0 .06 4.61 5.19 4.61 5.19a14.72 14.72 0 0 1 1-3.78c.15-.39.33-1 .72-1.22.62-.29 1.45.61 1.87 1.15a10.54 10.54 0 0 0 1.44 1.52m7.57-4.52a26.37 26.37 0 0 1-1.68 8.39 1.9 1.9 0 0 1-.45.73.7.7 0 0 1-.81.11 9.86 9.86 0 0 1-.83-1.73c-.42-1.17-2.15-1.28-2.15-1.28a30.36 30.36 0 0 1 1.13-3.88 1.09 1.09 0 0 1 1.07-.67A1.73 1.73 0 0 1 1070 74a17.81 17.81 0 0 0 .55 3.79c.81-2.23 1.46-4.91 2-6.86m-12.78 61.81a1.75 1.75 0 0 1-.4-2.51 2.79 2.79 0 0 1 2.6-1 5.93 5.93 0 0 1 2.63 1.16c.79.56 1.52 1.2 2.35 1.7a13.75 13.75 0 0 0 6.92 1.55 40.71 40.71 0 0 1 7.16.31 8.28 8.28 0 0 1 5.84 3.7s-20.47-1.43-27.1-4.91z" class=""/><path class="cls-9" d="M1046.39 162.19a16.64 16.64 0 0 0 5.36-5.41.21.21 0 0 1 0-.17.35.35 0 0 1 .21-.13 30.63 30.63 0 0 0 1.57-2.69c-1.67-1.06-3.86-2.67-1.48-3 2.92-.4 5-1.79 5.31-2.56s-.68-1.44-1.45-.95a11.13 11.13 0 0 1-2.81.95 7.06 7.06 0 0 1-2.38.14c-.5-.05-2.24-1.22-4.1-2.08a1.55 1.55 0 0 0-.85-.11h-.71a2.24 2.24 0 0 1-1.81-1.16l-2.7-5.09-8.16 4.72 6.46 8.78a106.56 106.56 0 0 0 7.54 8.76z"/><path class="cls-4" d="M1044.71 163.11a6.37 6.37 0 0 0 1.88-.87 17 17 0 0 0 3.86-3.14 16.38 16.38 0 0 0 2.76-4.12 7 7 0 0 0 .68-1.92 27.23 27.23 0 0 1-3.76 5.76 26.87 26.87 0 0 1-5.42 4.29zm25.7 5.15s.08 0 .23-.07a2.78 2.78 0 0 0 .57-.36 4.88 4.88 0 0 0 1.34-2.08 35.62 35.62 0 0 0 .9-3.49 167.562 167.562 0 0 0 2.3-12.17c.15-1 .26-1.84.32-2.4a3.53 3.53 0 0 0 0-.89 3.18 3.18 0 0 0-.22.86c-.12.65-.28 1.45-.45 2.38-.38 2-.89 4.78-1.51 7.84-.31 1.52-.61 3-.88 4.3s-.5 2.52-.8 3.48a5.06 5.06 0 0 1-1.16 2c-.36.43-.66.56-.64.6zm.69-18.32h-.37a1.46 1.46 0 0 0-.76.66 1.38 1.38 0 0 0 .08 1.49 1.63 1.63 0 0 0 3-.73 1.55 1.55 0 0 0-.52-1.4c-.69-.58-1.31-.41-1.28-.37a2.62 2.62 0 0 1 1.06.58 1.29 1.29 0 0 1 .35 1.13 1.37 1.37 0 0 1-.94 1 1.34 1.34 0 0 1-1.32-.48 1.07 1.07 0 0 1-.12-1.13c.28-.61.85-.69.82-.75zm17.7-3.27a4.78 4.78 0 0 0-.22 1.88 9.89 9.89 0 0 0 1.23 4.4 10 10 0 0 0 3.08 3.43 4.87 4.87 0 0 0 1.72.86c0-.07-.63-.39-1.54-1.1a11.31 11.31 0 0 1-2.88-3.39 11 11 0 0 1-1.3-4.22c-.1-1.14-.01-1.85-.09-1.86z"/><path class="cls-8" d="M1121.1 89.45a24.78 24.78 0 0 0-.41-4 27.54 27.54 0 0 0-.61-4 14.9 14.9 0 0 0 .18 4.08 15.31 15.31 0 0 0 .84 3.92z"/><path class="cls-8" d="M1137.69 80.14a1 1 0 0 0 .06.29l.22.82c.22.76.51 1.8.89 3.1.79 2.71 1.92 6.5 3.26 11l.13-.22c-4.7 1.14-10.37 2.07-16.42 3.16-3 .55-5.92 1.15-8.6 1.8h.09l-16.88-3.74-4.92-1-1.32-.26a2.27 2.27 0 0 0-.46-.07 2.57 2.57 0 0 0 .44.14l1.31.33 4.89 1.16 16.85 3.89h.1c2.67-.64 5.57-1.23 8.58-1.78 6-1.09 11.72-2 16.43-3.23h.19v-.18c-1.41-4.52-2.58-8.3-3.42-11l-1-3.07-.27-.8a1.2 1.2 0 0 0-.15-.34z"/><path class="cls-12" d="M1281.61 120.23l2.64 3.41v-5.87h8.31s.92 13.43.73 16.3-3.3 11-3.3 11a31 31 0 0 1-8.38-7.57c-3.69-4.9-9.83-16.86-9.83-16.86l6.4-4z"/><path class="cls-10" d="M1281.09 119.6a9.2 9.2 0 0 0 1.08 1.5c.7.9 1.67 2.13 2.78 3.47s2.16 2.52 3 3.32a6.2 6.2 0 0 0 1.41 1.18 12.85 12.85 0 0 0-1.22-1.38c-.75-.84-1.76-2-2.87-3.38a43.29 43.29 0 0 0-4.18-4.71z"/><path class="cls-5" d="M1281.33 98.27s2.37-20 11.73-22.09l4.85 19.27-4 13.89-13.36-1.88z"/><path class="cls-5" d="M1343.17 111.59l-.44 1.43-9.2 29.79s-22.67 8.91-30.82 5.38-11.91-8.53-11.91-8.53l1.81-63.41 12.93-2 22.29-1.69 14.94 4.95z"/><path d="M1315 123.2a95.6 95.6 0 0 0 23.57-14.94l4.56 2.52c-3.43 7.16-6.28 13.69-11 20a16.36 16.36 0 0 1-6.3 5.22 10.28 10.28 0 0 1-10.58-2.22c-2.72-2.62-4.75-10.29-3.86-16.55 1.55.09 2.23 6.57 3.61 5.97z" class=""/><path class="cls-8" d="M1291.34 104.88a31.49 31.49 0 0 1 1.53-6.32 30.45 30.45 0 0 1 3.17-5.63 6.68 6.68 0 0 0-1.28 1.42 17.69 17.69 0 0 0-2.25 4.06 18 18 0 0 0-1.13 4.53 6.82 6.82 0 0 0-.04 1.94zm.04-47.32a3.27 3.27 0 0 0 3.12-1.44 3.92 3.92 0 0 1-2.4-.14 1.44 1.44 0 0 1-.57-2.09c.45-.47 1.18-.39 1.81-.44a4 4 0 0 0 3.34-2.64c.53-1.6 0-3.34-.15-5a14 14 0 0 1 5.59-12.74l10.16-6.07c3.69 4.88 4.84 11.45 4.08 17.59s-3.29 11.91-6.32 17.24a20.65 20.65 0 0 1-3.06 4.37 7.84 7.84 0 0 1-4.57 2.42 5 5 0 0 1 .75-4.4 10 10 0 0 1-7.56-2.8l2.18-1.72a7.77 7.77 0 0 1-6.4-2.14z"/><path class="cls-12" d="M1330.52 40.42a9.79 9.79 0 0 0-6.91-9.27l-12.74-3.76c-5.53-.79-9.43 6.16-9.95 11.9-.58 6.38-1 13.12-.43 17.92 1.19 9.64 8.27 11.08 8.27 11.08s-.13 4.57-.2 7.37l2.08 12.56 16.8-14.83 3.11-32.85c.01-.16-.02.1-.03-.12z"/><path class="cls-8" d="M1302.53 46.62a1.22 1.22 0 0 0 1.11 1.28 1.15 1.15 0 0 0 1.26-1.07 1.22 1.22 0 0 0-1.11-1.28 1.15 1.15 0 0 0-1.26 1.07zm-.32-3.53c.14.17 1.06-.49 2.34-.45s2.2.74 2.35.58-.08-.36-.48-.69a3.17 3.17 0 0 0-1.87-.66 3.08 3.08 0 0 0-1.87.56c-.4.3-.54.57-.47.66zm11.54 3.55a1.21 1.21 0 0 0 1.11 1.28 1.17 1.17 0 0 0 1.26-1.07 1.22 1.22 0 0 0-1.11-1.28 1.14 1.14 0 0 0-1.26 1.07zm.62-3.19c.14.17 1.07-.49 2.35-.45s2.2.74 2.34.58-.07-.37-.47-.69a3.17 3.17 0 0 0-1.87-.66 3 3 0 0 0-1.87.56c-.41.3-.55.59-.48.66zm-4.29 10.28a8.5 8.5 0 0 0-2.07-.45c-.33-.05-.63-.12-.68-.36a1.77 1.77 0 0 1 .25-1l1-2.55a44.11 44.11 0 0 0 2.37-6.66 45.41 45.41 0 0 0-2.88 6.45l-1 2.56a2.06 2.06 0 0 0-.21 1.32.83.83 0 0 0 .53.51 1.74 1.74 0 0 0 .55.1 7.5 7.5 0 0 0 2.14.08z"/><path class="cls-10" d="M1321.16 65.24s-3.2 6.5-12.46 5.31l.06-2.26a22.69 22.69 0 0 0 12.4-3.05z"/><path class="cls-8" d="M1314.91 38.68c.11.36 1.4.23 2.89.47s2.7.7 2.91.38c.1-.15-.11-.5-.59-.86a4.65 4.65 0 0 0-2.14-.85 4.78 4.78 0 0 0-2.28.2c-.56.21-.84.49-.79.66zm-12.17.37c.21.31 1.1 0 2.17.05s1.95.26 2.17-.05c.09-.15 0-.45-.43-.75a3 3 0 0 0-1.74-.55 3 3 0 0 0-1.75.55c-.39.3-.52.6-.42.75z"/><path class="cls-10" d="M1314.88 56.32a1.68 1.68 0 0 0-1.69-1.37 1.78 1.78 0 0 0-1.37.95 2.3 2.3 0 0 0-.12 1.73v.12a1.78 1.78 0 0 0 3.16-1.43z"/><path class="cls-8" d="M1310.79 57.75c0-.2 1.3-.1 2.31-1.17s1-2.5 1.15-2.5.22.34.19.94a3.39 3.39 0 0 1-.88 2.1 2.77 2.77 0 0 1-1.93.89c-.54-.01-.85-.17-.84-.26zm15.45-32.61a12.94 12.94 0 0 0-7.47-5.29c-3-.55-4.85 0-6.83 1.87a7.51 7.51 0 0 1-3 1.83c-1.45.29-2.66 0-4.39 1-2.36 1.25-3.4 4.51-4.49 7-1.36 3.1-3.3 6-4.19 9.24s-.41 7.31 2.27 9.3c-.52-2.8-.94-5.91.55-8.31 1.14-1.83 3.16-2.85 4.61-4.42 1.76-1.89 2-4.42 3.83-6.23 4.2-4.12 11.6 3.14 19.11-6"/><path class="cls-8" d="M1299.55 38.26a28.18 28.18 0 0 1 4.14-7.75 14.6 14.6 0 0 1 9.22-5.14 14.33 14.33 0 0 1 10.17 2.57l.74.06a12.17 12.17 0 0 1-9.57 4.76c-2.18 0-4.55-.58-6.42.58s-2.49 3.45-4 5c-1 1-2.36 1.69-3.34 2.76a11.5 11.5 0 0 0-2.06 4.14c-.62-2.32.23-4.76 1.12-6.98z"/><path class="cls-8" d="M1319.08 29.81l6-5.41c4.64-.25 7.61 4.28 9.21 7.78 1.18 2.6 1.55 5.51 2.44 8.23s2.38 5.38 3.21 8.2.95 6.1-.7 8.51l-1-2a12.15 12.15 0 0 1-3.12 7.36c-.14-.68-.27-1.37-.4-2a11.45 11.45 0 0 1-4.48 5l-2.79 7.7c-4.2-13 6.4-13.98-8.37-43.37z"/><path class="cls-8" d="M1319.93 30.94a29.24 29.24 0 0 0 1.4 5.15 9.81 9.81 0 0 0 3.06 4.23c2 1.53 4.66 1.84 7.1 2.45s5 1.78 6.06 4.16a61.29 61.29 0 0 0-2.09-10.32c-1.09-3.71-2.66-7.49-5.65-9.84a10.11 10.11 0 0 0-9.77-1.5"/><path class="cls-12" d="M1326.26 47.89c.12-.32 5.9-2.29 5.8 4-.09 6.11-6 4.73-6 4.55s.2-8.55.2-8.55z"/><path class="cls-10" d="M1327.9 54.16s.1.08.27.16a1 1 0 0 0 .77 0 2.63 2.63 0 0 0 1.22-2.33 3.43 3.43 0 0 0-.26-1.53 1.19 1.19 0 0 0-.75-.83.53.53 0 0 0-.62.28c-.08.17 0 .29-.07.3s-.13-.11-.08-.36a.68.68 0 0 1 .24-.37.75.75 0 0 1 .57-.15 1.45 1.45 0 0 1 1.06 1 3.76 3.76 0 0 1 .33 1.71 2.8 2.8 0 0 1-1.55 2.6 1.08 1.08 0 0 1-.94-.18c-.18-.15-.21-.29-.19-.3z"/><path class="cls-7" d="M1328.54 55.26a1.2 1.2 0 0 1 1.32.92 1.27 1.27 0 0 1-.82 1.42 1.18 1.18 0 0 1-1.41-.75 1.26 1.26 0 0 1 .63-1.51"/><path class="cls-8" d="M1328.26 55.34a1.7 1.7 0 0 0-.55.8 1.07 1.07 0 0 0 .2 1 1.11 1.11 0 0 0 1.1.36 1.17 1.17 0 0 0 .74-.91 1.07 1.07 0 0 0-.33-.93 1.52 1.52 0 0 0-.88-.37s.09-.06.28-.06a1.15 1.15 0 0 1 .73.29 1.22 1.22 0 0 1 .44 1.11 1.34 1.34 0 0 1-.91 1.13 1.31 1.31 0 0 1-1.36-.46 1.24 1.24 0 0 1-.19-1.18 1.19 1.19 0 0 1 .47-.65c.15-.13.26-.15.26-.13z"/><path class="cls-4" d="M1332.32 55s.08 0 .19-.14a3.29 3.29 0 0 0 .45-.46 7.59 7.59 0 0 0 1.23-2.08 7.37 7.37 0 0 0 .46-3.59 6.16 6.16 0 0 0-2.09-3.86 14.08 14.08 0 0 0-3.69-2.24c-1.19-.53-2.27-1-3.13-1.48a12.6 12.6 0 0 1-2.55-1.91 2.58 2.58 0 0 0 .54.69 8.9 8.9 0 0 0 1.88 1.46 29.92 29.92 0 0 0 3.12 1.58 14.6 14.6 0 0 1 3.58 2.21 5.9 5.9 0 0 1 2 3.6 7.33 7.33 0 0 1-.37 3.43 10.51 10.51 0 0 1-1.62 2.79z"/><path class="cls-4" d="M1332.84 51.36a1.54 1.54 0 0 0 .27-.59 5 5 0 0 0 .21-1.78 5.83 5.83 0 0 0-.72-2.56 5.51 5.51 0 0 0-2.31-2.22 29.38 29.38 0 0 0-2.89-1.2 7.9 7.9 0 0 1-2.15-1.24 5 5 0 0 1-1.36-1.87 1.45 1.45 0 0 0 .15.64 3.88 3.88 0 0 0 1 1.45 7.59 7.59 0 0 0 2.2 1.36c.88.39 1.88.71 2.84 1.22a5.35 5.35 0 0 1 2.18 2 6 6 0 0 1 .76 2.39 8.32 8.32 0 0 1-.18 2.4zm-13.29-20.02a18 18 0 0 1 2.31-3.94 17 17 0 0 1 3.46-2.89 3.07 3.07 0 0 0-1.24.51 9.46 9.46 0 0 0-2.52 2.12 9.83 9.83 0 0 0-1.69 2.86 3.43 3.43 0 0 0-.32 1.34zm-27.13 22.43a2.64 2.64 0 0 0 .75-.1 16.05 16.05 0 0 0 2-.56 9 9 0 0 0 1.33-.61 3.66 3.66 0 0 0 1.29-1.15 2.29 2.29 0 0 0 .35-.92l.07-.46a3 3 0 0 0 0-.52 6.43 6.43 0 0 0-.36-2 8.61 8.61 0 0 1-.41-1.91 3.17 3.17 0 0 1 .46-1.67 12.73 12.73 0 0 1 2-2.3 17.59 17.59 0 0 1 1.56-1.38 5.1 5.1 0 0 0 .61-.47 6.93 6.93 0 0 0-2.36 1.64 12.24 12.24 0 0 0-2.16 2.31 3.46 3.46 0 0 0-.54 1.88 8.26 8.26 0 0 0 .42 2 6 6 0 0 1 .35 1.9 3.14 3.14 0 0 1 0 .45l-.06.48a2 2 0 0 1-.29.78 3.44 3.44 0 0 1-1.16 1.06 8.22 8.22 0 0 1-1.26.63c-1.54.63-2.61.85-2.59.92z"/><path class="cls-12" d="M1313.45 313.06L1313.13 304.5 1298.69 303.94 1298.91 314.42 1304.16 317.69 1313.45 313.06z"/><path class="cls-5" d="M1298.6 312.47v1s-16 6.84-16.17 10l31.94-.48-.59-11a17.75 17.75 0 0 1-15.18.48z"/><path d="M1298.7 312.47v1s-16 6.84-16.16 10l31.94-.48-.59-11a17.75 17.75 0 0 1-15.19.48z" class=""/><g class="cls-13"><path class="cls-7" d="M1310.6 315.54a1.36 1.36 0 0 1 .93 1.52 1.25 1.25 0 0 1-1.46 1 1.43 1.43 0 0 1-1-1.62 1.3 1.3 0 0 1 1.62-.82"/></g><path class="cls-7" d="M1314.38 323l-.14-2.64-30.56 1.43s-1.42.66-1.24 1.69z"/><path class="cls-8" d="M1298.49 313.54c0 .16.79.23 1.57.73s1.19 1.18 1.33 1.11-.1-1-1.05-1.59-1.88-.39-1.85-.25zm-3.33 1.46c0 .15.65.42 1.19 1.09s.7 1.39.86 1.38.24-.92-.45-1.74-1.59-.86-1.6-.73zm-1.84 4.2c.14 0 .35-.78-.06-1.65s-1.15-1.22-1.22-1.09.4.6.73 1.33.4 1.4.55 1.41z"/><path class="cls-12" d="M1326.43 313.26L1326.1 304.7 1311.67 304.14 1311.89 314.61 1317.14 317.88 1326.43 313.26z"/><path class="cls-5" d="M1311.57 312.66v1s-16 6.84-16.17 10l31.94-.49-.59-11a17.71 17.71 0 0 1-15.18.49z"/><g class="cls-13"><path class="cls-7" d="M1323.58 315.73a1.35 1.35 0 0 1 .92 1.53 1.25 1.25 0 0 1-1.45 1 1.42 1.42 0 0 1-1-1.62 1.29 1.29 0 0 1 1.62-.83"/></g><path class="cls-7" d="M1327.35 323.15l-.14-2.64-30.56 1.43s-1.41.66-1.24 1.7z"/><path class="cls-8" d="M1311.47 313.74c0 .16.79.22 1.56.73s1.2 1.17 1.34 1.11-.1-1-1-1.59-1.94-.4-1.9-.25zm-3.33 1.48c0 .16.65.42 1.19 1.1s.7 1.39.85 1.38.24-.92-.44-1.75-1.6-.88-1.6-.73zm-1.84 4.17c.14 0 .34-.77-.07-1.65s-1.15-1.22-1.21-1.08.39.6.72 1.32.4 1.4.56 1.41z"/><path class="cls-12" d="M1348.11 102.31s-12 19.23-18.31 27-16.66.93-17.86-9.62-.9-30.09-.9-30.09l8.38-5.16 5.42 26.68 6.76-13z"/><path class="cls-12" d="M1311 89.59l-3.61-9.31a14.71 14.71 0 0 1-2.12-1.27c-.53-.51-.43-3.85-.28-4.47s-.58-2.33-.06-2.64 2 0 2-.62c0-.13-.74-1.71.31-2.49a4.3 4.3 0 0 1 1.66-.31l.59-3.09s2.4-3.25 3.75-1.55c0 0 5.1 6.36 5.55 7.29s.58 11.71.58 13.72"/><path class="cls-10" d="M1319.42 84.85a2.2 2.2 0 0 0 0-.56v-1.61c0-1.4 0-3.43-.07-5.94 0-1.25-.08-2.63-.18-4.11 0-.37-.06-.75-.13-1.14a2.5 2.5 0 0 0-.52-1.1c-.45-.64-.94-1.28-1.44-1.94-1-1.31-2.06-2.67-3.18-4.08a4.58 4.58 0 0 0-1-1 1.53 1.53 0 0 0-1.47 0 6.67 6.67 0 0 0-2.15 1.91c0 .3-.11.62-.18.94-.13.73-.27 1.44-.4 2.15l.18-.16a6.63 6.63 0 0 0-1.17.12 1.61 1.61 0 0 0-.6.23 1.59 1.59 0 0 0-.43.5 1.93 1.93 0 0 0-.17 1.24 3.62 3.62 0 0 0 .12.59l.09.27v.06c0 .06-.2.12-.35.15a4.36 4.36 0 0 1-.52 0l-.55.06a1 1 0 0 0-.59.25.93.93 0 0 0-.16.65 3.3 3.3 0 0 0 .07.56c.06.36.14.7.18 1a1.36 1.36 0 0 1 0 .45 3.43 3.43 0 0 0-.06.54v1a14.21 14.21 0 0 0 .1 2 2.38 2.38 0 0 0 .28 1 2.8 2.8 0 0 0 .76.58c.5.3 1 .56 1.49.81l-.07-.08 2.69 6.77c.32.77.57 1.39.76 1.84a3.48 3.48 0 0 0 .29.64 4.69 4.69 0 0 0-.21-.67l-.69-1.87c-.62-1.66-1.5-4-2.57-6.83-.48-.25-1-.51-1.46-.81a2.72 2.72 0 0 1-.66-.5 2.28 2.28 0 0 1-.21-.81 13.45 13.45 0 0 1-.08-1.92c0-.33 0-.67.05-1a3.65 3.65 0 0 1 .06-.49 1.62 1.62 0 0 0 0-.58c0-.36-.12-.7-.18-1a3 3 0 0 1-.06-.5.67.67 0 0 1 .06-.39 1 1 0 0 1 .38-.12 4.17 4.17 0 0 1 .52 0 3.55 3.55 0 0 0 .55-.06.82.82 0 0 0 .6-.31.5.5 0 0 0 .09-.21.27.27 0 0 0 0-.15v-.08l-.08-.26a3.33 3.33 0 0 1-.11-.53 1.61 1.61 0 0 1 .13-1 1.23 1.23 0 0 1 .31-.37 1.65 1.65 0 0 1 .46-.16 6.61 6.61 0 0 1 1.1-.11h.16v-.15l.41-2.15.18-.94v.08a6.39 6.39 0 0 1 2-1.79 1.15 1.15 0 0 1 1.12 0 4.65 4.65 0 0 1 .86.94c1.12 1.4 2.19 2.76 3.2 4.06.5.65 1 1.29 1.43 1.92a2.2 2.2 0 0 1 .48 1c.06.37.09.74.13 1.11.12 1.46.18 2.84.23 4.09.08 2.48.14 4.49.19 5.93 0 .67 0 1.21.05 1.61a4.85 4.85 0 0 0-.06.43z"/><path class="cls-10" d="M1309 68.48c0 .07.62.16 1.58.49a12.26 12.26 0 0 1 1.6.79 7.66 7.66 0 0 0 2.18.54 4.21 4.21 0 0 1 3.19 2 5.11 5.11 0 0 1 .53 1.56 2.23 2.23 0 0 0-.29-1.7 4.16 4.16 0 0 0-1.24-1.42 4.51 4.51 0 0 0-2.13-.8 8.13 8.13 0 0 1-2.09-.48 9.56 9.56 0 0 0-1.67-.72 4.25 4.25 0 0 0-1.66-.26zm2.17.34c.08.07.41-.24.5-.78s-.13-1-.23-.91-.08.41-.16.84-.2.79-.11.85zm-4.4 2.53a13.21 13.21 0 0 0 4.74.72 4.61 4.61 0 0 1 1.76.18 2 2 0 0 1 .94 1 10.68 10.68 0 0 1 .34 1.37 2.24 2.24 0 0 0-.08-1.47 2.16 2.16 0 0 0-1-1.25 4.4 4.4 0 0 0-1.91-.24c-2.67-.02-4.77-.42-4.79-.31zm-1.46 2.71a2.55 2.55 0 0 0 1.14.28c.72.08 1.72 0 2.8.09a5.51 5.51 0 0 1 1.47.19 1.67 1.67 0 0 1 1 .63 1.81 1.81 0 0 1 .3 1s.1-.08.14-.31a1.4 1.4 0 0 0-.21-.9 2 2 0 0 0-1.07-.83 5.67 5.67 0 0 0-1.57-.24h-2.79a6.38 6.38 0 0 0-1.21.09zm1.33 2.74c-.07 0 .33.73 1.29 1l-.15-.21-.06.52a5.77 5.77 0 0 0 0 2.13 6.1 6.1 0 0 0 .39-2.08v-.72h-.17c-.76-.21-1.23-.72-1.3-.64z"/><path class="cls-8" d="M1290.83 138.52s-10.68 24.37-10.68 39.61 10.53 65.06 10.53 65.06 1.4 13.79 2.81 32.17a225.79 225.79 0 0 0 5.38 34.11h10.53l17.09.48s7.25-30.72 6.78-42.33-2.34-24.91-2.34-24.91 9.13-38.46 10.77-45.48c.64-2.74.93-8 1-13.55a91.53 91.53 0 0 0-6-33.53l-3-7.82z"/><path class="cls-4" d="M1306.57 187.24c.12 0 1.39 27.27 2.84 60.92s2.53 60.93 2.41 60.94-1.38-27.27-2.83-60.92-2.53-60.93-2.42-60.94zm-2.3-10.89a8.42 8.42 0 0 1-.27-1.35c-.13-.87-.27-2.14-.39-3.71a86.18 86.18 0 0 1-.08-12.31 85.29 85.29 0 0 1 1.7-12.18c.34-1.54.64-2.77.88-3.62a8.61 8.61 0 0 1 .41-1.3 7.71 7.71 0 0 1-.25 1.34c-.19.86-.45 2.1-.75 3.64a98.56 98.56 0 0 0-1.62 24.41c.09 1.57.18 2.83.26 3.71a8.72 8.72 0 0 1 .11 1.37zm35.89-14.35a2 2 0 0 1-.73.46 5.21 5.21 0 0 1-2.31.4 13.15 13.15 0 0 1-7-3 16.79 16.79 0 0 1-4.87-6.07 14.6 14.6 0 0 1-.86-2.23 3.47 3.47 0 0 1-.18-.86c.08 0 .38 1.2 1.3 3a17.84 17.84 0 0 0 4.86 5.86 13.55 13.55 0 0 0 6.82 3 6.17 6.17 0 0 0 2.97-.56zm-44.11-14.51a3.06 3.06 0 0 1-.17.78 15.87 15.87 0 0 1-.74 2 21.92 21.92 0 0 1-3.84 5.95 21.13 21.13 0 0 1-5.49 4.34 14.46 14.46 0 0 1-1.92.89 2.32 2.32 0 0 1-.73.23c0-.07 1-.48 2.51-1.39A23.74 23.74 0 0 0 1291 156a24.49 24.49 0 0 0 3.87-5.78c.78-1.67 1.13-2.75 1.18-2.73zm15.07-.55s0-.17-.14-.44a1.85 1.85 0 0 0-.68-.94 1.64 1.64 0 0 0-1.57-.21 1.72 1.72 0 0 0 0 3.18 1.64 1.64 0 0 0 1.57-.21 1.85 1.85 0 0 0 .68-.94c.09-.27.1-.44.14-.44s.06.17 0 .48a1.93 1.93 0 0 1-2.55 1.49 2.11 2.11 0 0 1 0-3.94 1.93 1.93 0 0 1 2.55 1.49c.06.31.02.48 0 .48zm14.56 95.06a100.84 100.84 0 0 1-11.52 6.61 50.6 50.6 0 0 1 5.66-3.49 52.37 52.37 0 0 1 5.86-3.12z"/><path class="cls-14" d="M1280.7 88.93l20.36 32a1 1 0 0 1-.88 1.46l-23.46-3a.9.9 0 0 1-.62-.38l-22.4-31.62a1 1 0 0 1 .81-1.5l24.13 1.84a2.75 2.75 0 0 1 2.06 1.2z"/><path class="cls-8" d="M1280.7 88.93a1.65 1.65 0 0 0-.19-.29 2.62 2.62 0 0 0-.76-.66 3.14 3.14 0 0 0-1.56-.39l-2.19-.19-13.91-1.13-4.61-.36-2.46-.19a6 6 0 0 0-.64 0 1.1 1.1 0 0 0-.68.29 1.16 1.16 0 0 0-.18 1.43c2 2.89 4.23 6 6.52 9.24 4.6 6.5 9.66 13.64 15 21.14.34.47.64.92 1 1.41a1.25 1.25 0 0 0 .42.3 2.31 2.31 0 0 0 .46.09l.82.11 3.28.42 6.42.83 12.13 1.57c.25 0 .46.07.74.08a1.05 1.05 0 0 0 .78-.33 1.17 1.17 0 0 0 .32-.8 1.32 1.32 0 0 0-.28-.77c-.53-.82-1-1.63-1.55-2.43l-3-4.63-5.31-8.3-7.72-12-2.11-3.26-.56-.84-.2-.28a1.77 1.77 0 0 0 .16.3l.53.87 2 3.29 7.62 12.08 5.27 8.34 2.94 4.64 1.54 2.43a.91.91 0 0 1 .22.57.77.77 0 0 1-.22.54.64.64 0 0 1-.52.22c-.2 0-.47 0-.7-.08l-12.12-1.59-6.42-.84-3.28-.42-.83-.11a1.64 1.64 0 0 1-.36-.07.74.74 0 0 1-.27-.19l-1-1.38c-5.32-7.49-10.38-14.63-15-21.12-2.31-3.24-4.5-6.32-6.54-9.21a.79.79 0 0 1 .12-1 .69.69 0 0 1 .47-.2h.61l2.45.18 4.62.34 13.91 1 2.19.15a3.15 3.15 0 0 1 1.53.34 3.22 3.22 0 0 1 1.1.86z"/><path class="cls-8" d="M1253.7 87.34a2 2 0 0 0 .49.08l1.42.15 5.3.48 18 1.52-.15-.08c1.13 1.73 2.29 3.53 3.46 5.39 4.76 7.55 8.91 14.5 12 19.44 1.56 2.48 2.86 4.46 3.76 5.82l1.06 1.56a5 5 0 0 0 .39.53 3.72 3.72 0 0 0-.33-.58l-1-1.6c-.89-1.42-2.13-3.42-3.66-5.89-3.08-5-7.19-11.94-12-19.5-1.17-1.86-2.34-3.66-3.47-5.39v-.08h.03l-18-1.38-5.31-.37-1.42-.08a2.7 2.7 0 0 0-.57-.02z"/><path class="cls-7" d="M1268.24 91.86L1268.24 91.86 1268.23 91.86 1268.24 91.86z"/><path class="cls-7" d="M1267.66 92.23a.48.48 0 0 1 .58-.37 1.31 1.31 0 0 1 .63.37.66.66 0 0 1 .11.83c-.23.3-.71.19-1-.06a.87.87 0 0 1-.32-.77z"/><path class="cls-12" d="M1278.61 110.16s.93-2.28-1.42-2.57a77.27 77.27 0 0 0-8.52 0s-3.37.37-2.66 2.87c0 0-2 1.84-.92 3.82s1.49 1.4 1.49 1.4-.28 2.43 1.5 2.79c0 0 1.93 2.36 3.7 2.21s9.32-3.9 9.82-4.63 1.21-1.16.78-2c0 0 .93-2.15-1.06-2.48 0 .02-.15-1.78-2.71-1.41z"/><path class="cls-10" d="M1267.91 111a6.88 6.88 0 0 0 1.59.11h3.82a22.5 22.5 0 0 0 3.85-.23c1-.25 1.41-.86 1.36-.87a4.34 4.34 0 0 1-1.42.59 37.54 37.54 0 0 1-3.79.11c-1.5 0-2.85.07-3.83.12a5.82 5.82 0 0 0-1.58.17zm1.68 3.66a1.25 1.25 0 0 0 .51.19 5.61 5.61 0 0 0 1.47.09 10 10 0 0 0 2.14-.4c.79-.23 1.63-.54 2.51-.82a11 11 0 0 1 2.53-.54 3.68 3.68 0 0 0 2.15-.45 1.24 1.24 0 0 0 .51-.76 1 1 0 0 0-.09-.68c-.18-.36-.43-.38-.43-.36s.18.11.29.42a1 1 0 0 1-.44 1.15 3.87 3.87 0 0 1-2 .31 10.3 10.3 0 0 0-2.62.52l-2.5.85a11.6 11.6 0 0 1-2.06.47 12.16 12.16 0 0 1-1.97.01zm2.52 3.11a5.67 5.67 0 0 0 1.59-.31c1-.26 2.29-.65 3.73-1.13s2.73-1 3.65-1.37a6.61 6.61 0 0 0 1.46-.71 53.08 53.08 0 0 0-5.23 1.69c-2.88.98-5.22 1.72-5.2 1.83zm-.6 2.89a3.24 3.24 0 0 0 1.31-.16 15.64 15.64 0 0 0 3-1.09c1.13-.53 2.12-1.08 2.83-1.47a4.66 4.66 0 0 0 1.13-.7 24.3 24.3 0 0 0-4.12 1.8c-2.21 1.1-4.16 1.51-4.15 1.62z"/><path class="cls-5" d="M1342.77 77.49s9.64 4.15 7.25 17.35-3.64 17.6-3.64 17.6l-19-10.34z"/><path class="cls-8" d="M1327.76 102.32a3.7 3.7 0 0 0 .7.46c.46.28 1.13.67 2 1.14 1.67 1 4 2.24 6.56 3.64s4.91 2.64 6.61 3.53c.85.44 1.54.79 2 1a2.87 2.87 0 0 0 .77.33 4 4 0 0 0-.7-.47l-2-1.14c-1.67-1-4-2.23-6.56-3.63s-4.9-2.64-6.61-3.53c-.85-.44-1.54-.79-2-1a2.87 2.87 0 0 0-.77-.33zm0 0a13.55 13.55 0 0 0 1-1.83l2.42-4.45c.91-1.68 1.74-3.19 2.43-4.45a10.83 10.83 0 0 0 .92-1.89 12 12 0 0 0-1.16 1.75c-.67 1.1-1.58 2.65-2.53 4.39s-1.78 3.34-2.33 4.52a9.33 9.33 0 0 0-.75 1.96z"/><rect class="cls-7" x="17.76" y="23.22" width="282.1" height="196.57" rx="10.28"/><path class="cls-8" d="M299.86 33.5v-.61a9.36 9.36 0 0 0-.27-1.78 9.7 9.7 0 0 0-1.12-2.75 10.15 10.15 0 0 0-2.73-3 10 10 0 0 0-2.13-1.24 10.53 10.53 0 0 0-2.65-.7 22.85 22.85 0 0 0-3-.09h-19.1l-100.69.08H29.24a18.22 18.22 0 0 0-2.57.11 9.53 9.53 0 0 0-2.46.66 10.07 10.07 0 0 0-4.06 3.07 9.86 9.86 0 0 0-2 4.69 15 15 0 0 0-.15 2.63v174.89a11.53 11.53 0 0 0 .43 2.93 10.62 10.62 0 0 0 1.27 2.68 10.12 10.12 0 0 0 4.51 3.7 10.73 10.73 0 0 0 2.85.71c1 .08 2 .05 3 .05h258.42a21 21 0 0 0 2.25-.07 9.83 9.83 0 0 0 2.16-.5 10.09 10.09 0 0 0 6.12-5.93 11 11 0 0 0 .67-4.26v-4.38-33.36c0-42.51.06-76.91.07-100.69 0-11.88 0-21.11.05-27.37v-7.12-2.43 36.92c0 23.78.05 58.18.08 100.69v37.74a11.41 11.41 0 0 1-.69 4.39 10.46 10.46 0 0 1-6.34 6.15 10.13 10.13 0 0 1-2.24.52 19.6 19.6 0 0 1-2.29.07H30c-1 0-2 0-3-.05a11.74 11.74 0 0 1-3-.75 11.51 11.51 0 0 1-2.65-1.59 11.3 11.3 0 0 1-2.07-2.29 11.14 11.14 0 0 1-1.28-2.66 11.4 11.4 0 0 1-.45-3.07v-94.67V48 34.57a15.09 15.09 0 0 1 .13-2.68A10.46 10.46 0 0 1 19.81 27 10.66 10.66 0 0 1 24 23.8a10.49 10.49 0 0 1 2.57-.68 18 18 0 0 1 2.67-.12h138.87l100.69.07h19.1a23.28 23.28 0 0 1 3 .1 10.58 10.58 0 0 1 2.67.72 11.47 11.47 0 0 1 2.15 1.26 10.24 10.24 0 0 1 2.73 3.08 10 10 0 0 1 1.1 2.77 8.6 8.6 0 0 1 .25 1.8c.06.5.06.7.06.7z"/><path class="cls-7" transform="rotate(-90 155.68 122.24)" d="M63.59 4.44H247.77V240.03H63.59z"/><circle class="cls-8" cx="285.69" cy="120.71" r="7.54"/><rect class="cls-8" x="-2.16" y="119.95" width="59.21" height="3.12" rx="1.08" transform="rotate(-90 27.44 121.51)"/><path class="cls-5" d="M37.89 29.52H59.96V214.33H37.89z"/><path class="cls-7" d="M40 109.93h20.91v18.37H40a2.11 2.11 0 0 1-2.11-2.11V112a2.11 2.11 0 0 1 2.11-2.07zm8.92-53.83a4 4 0 0 1-4-4 4 4 0 0 1 4-4 4 4 0 0 1 4 4 4 4 0 0 1-4 4zm3.35 14.49a14.39 14.39 0 0 1-3.63.23 14.39 14.39 0 0 1-3.64-.23 14.39 14.39 0 0 1 3.63-.23 14.39 14.39 0 0 1 3.64.23zM52.91 91a14 14 0 0 1-3.63.24 14 14 0 0 1-3.62-.24 14.85 14.85 0 0 1 3.62-.23 14.9 14.9 0 0 1 3.63.23zm0 52.06a14 14 0 0 1-3.63.24 14 14 0 0 1-3.62-.24 14.85 14.85 0 0 1 3.62-.23 14.9 14.9 0 0 1 3.63.23zm0 26.83a14.32 14.32 0 0 1-3.63.23 14.27 14.27 0 0 1-3.62-.23 14.27 14.27 0 0 1 3.62-.23 14.32 14.32 0 0 1 3.63.23z"/><path class="cls-8" d="M52.91 119.38a14 14 0 0 1-3.63.24 14 14 0 0 1-3.62-.24 14.85 14.85 0 0 1 3.62-.23 14.9 14.9 0 0 1 3.63.23z"/><path class="cls-8" d="M273.48 214.33c0-1.6-.08-73.33-.2-184.81l.2.19H37.91l.23-.23v184.81l-.21-.21 235.59.21-235.59.2h-.21v-.2V29.24h236.01v.2c-.18 111.56-.25 183.29-.25 184.89z"/><path class="cls-5" d="M198.59 181.64H201.76V192.26999999999998H198.59z"/><path class="cls-5" d="M172.09 180.1H175.26V192.26999999999998H172.09z"/><path class="cls-5" d="M178.71 177.56H181.88V192.27H178.71z"/><path class="cls-5" d="M185.34 178.37H188.51V192.27H185.34z"/><path class="cls-5" d="M191.97 173.67H195.14V192.26999999999998H191.97z"/><path class="cls-5" d="M205.22 173.76H208.39V192.26999999999998H205.22z"/><path class="cls-5" d="M211.85 179.84H215.01999999999998V192.27H211.85z"/><path class="cls-5" d="M218.48 174.57H221.64999999999998V192.26999999999998H218.48z"/><path class="cls-5" d="M225.1 170.59H228.26999999999998V192.28H225.1z"/><path class="cls-5" d="M231.73 174.48H234.89999999999998V192.26999999999998H231.73z"/><path class="cls-14" d="M241.54 205.45h-78.07A6.45 6.45 0 0 1 157 199v-46.66a6.45 6.45 0 0 1 6.44-6.45h78.07a6.45 6.45 0 0 1 6.44 6.45V199a6.45 6.45 0 0 1-6.41 6.45zm-78.07-58.92a5.81 5.81 0 0 0-5.8 5.81V199a5.81 5.81 0 0 0 5.8 5.81h78.07a5.82 5.82 0 0 0 5.81-5.81v-46.66a5.82 5.82 0 0 0-5.81-5.81z"/><path class="cls-14" d="M207.91 161.41c0 .09-9 .17-20.16.17s-20.17-.08-20.17-.17 9-.17 20.17-.17 20.16.08 20.16.17z"/><path class="cls-15" d="M77.83 146.42L77.83 204.06 84.8 204.06 94.41 204.06 139.17 204.06 139.17 146.42 77.83 146.42z"/><path class="cls-8" d="M108.23 153a18.93 18.93 0 1 0 18.92 18.93A18.92 18.92 0 0 0 108.23 153zm.28 30.27a11.63 11.63 0 1 1 11.63-11.63 11.63 11.63 0 0 1-11.63 11.58z"/><path class="cls-5" d="M108.52 153v7a11.63 11.63 0 0 1 11.63 11.62 11.79 11.79 0 0 1-.55 3.53l6.86 1.86a19.14 19.14 0 0 0 .7-5.1A18.92 18.92 0 0 0 108.52 153z"/><path class="cls-4" d="M96.89 171.59a11.64 11.64 0 0 1 6.89-10.59l-2.91-6.53a18.92 18.92 0 0 0-11.57 17.41v.79h7.62a9.54 9.54 0 0 1-.03-1.08z"/><path class="cls-5" d="M108.51 183.22a11.73 11.73 0 0 1-2.46-.27c-.29 1.69-.84 5-1.28 7.53A18.91 18.91 0 0 0 126.45 177l-6.86-1.86a11.64 11.64 0 0 1-11.08 8.08z"/><path d="M108.51 183.13a11.73 11.73 0 0 1-2.46-.26c-.29 1.69-.84 4.95-1.28 7.53a19.7 19.7 0 0 0 3.46.32 18.93 18.93 0 0 0 18.22-13.83l-6.86-1.89a11.62 11.62 0 0 1-11.08 8.13z" class=""/><path class="cls-8" d="M106 172.53h-.7v.91h-1v-.91H102v-.67l2-2.73h1l-1.88 2.59h1.16v-.8h.94v.8h.7zm.29-1.25c0-1.41.79-2.22 1.85-2.22s1.84.81 1.84 2.22-.78 2.23-1.84 2.23-1.85-.81-1.85-2.23zm2.69 0c0-1-.35-1.38-.84-1.38s-.84.41-.84 1.38.35 1.39.84 1.39.86-.41.86-1.39zm1.41-1.01a1.07 1.07 0 0 1 1.07-1.18 1.19 1.19 0 0 1 0 2.37 1.07 1.07 0 0 1-1.07-1.19zm1.52 0c0-.46-.18-.68-.45-.68s-.45.23-.45.68.19.68.45.68.45-.22.45-.68zm2.11-1.14h.73l-2.93 4.31h-.74zm-.7 3.17a1.07 1.07 0 1 1 1.06 1.18 1.07 1.07 0 0 1-1.06-1.18zm1.51 0c0-.46-.18-.68-.45-.68s-.45.22-.45.68.18.68.45.68.45-.23.45-.68zm9.06 23.28c0 .1-7 .18-15.66.18s-15.66-.08-15.66-.18 7-.18 15.66-.18 15.66.08 15.66.18zm-6.98 2.87c0 .1-3.89.18-8.68.18s-8.69-.08-8.69-.18 3.89-.18 8.69-.18 8.68.08 8.68.18z"/><path class="cls-14" d="M260.45 61.93h-14.01l-38.71.07-131.49.08.32-.23v65l-.32-.23 130.58.08 38.4.07h13.9-13.9l-38.4.07-130.58.08h-.32v-.23-33-32 .01h.32l131.49.08 38.71.07h13.09z"/><path class="cls-14" d="M260.45 72.88c0 .13-41.24.23-92.1.23s-92.11-.1-92.11-.23 41.23-.24 92.11-.24 92.1.11 92.1.24zm0 8.95c0 .13-41.24.24-92.1.24s-92.11-.07-92.11-.24 41.23-.24 92.11-.24 92.1.11 92.1.24zm0 8.95c0 .13-41.24.24-92.1.24s-92.11-.11-92.11-.24 41.23-.23 92.11-.23 92.1.1 92.1.23zm0 8.96c0 .13-41.24.23-92.1.23s-92.11-.1-92.11-.23 41.23-.24 92.11-.24 92.1.11 92.1.24zm0 8.95c0 .13-41.24.24-92.1.24s-92.11-.11-92.11-.24 41.23-.23 92.11-.23 92.1.1 92.1.23zm-184.21 8.96c0-.13 41.24-.24 92.1-.24s92.11.11 92.11.24-41.23.23-92.11.23-92.1-.1-92.1-.23z"/><path class="cls-14" d="M102.35 127.93c-.13 0-.24-14.78-.24-33s.11-33 .24-33 .24 14.77.24 33-.11 33-.24 33zm26.53 0c-.13 0-.24-14.78-.24-33s.11-33 .24-33 .24 14.77.24 33-.12 33-.24 33zm26.53 0c-.13 0-.24-14.78-.24-33s.11-33 .24-33 .24 14.77.24 33-.11 33-.24 33zm26.53 0c-.13 0-.23-14.78-.23-33s.1-33 .23-33 .24 14.77.24 33-.11 33-.24 33zm26.53 0c-.13 0-.23-14.78-.23-33s.1-33 .23-33 .24 14.77.24 33-.11 33-.24 33zm25.68 0c-.13 0-.23-14.78-.23-33s.1-33 .23-33 .24 14.77.24 33-.11 33-.24 33zm26.53 0c-.13 0-.23-14.78-.23-33s.1-33 .23-33 .24 14.77.24 33-.1 33-.24 33z"/><path class="cls-5" d="M104 117.65a1.62 1.62 0 1 1-1.62-1.62 1.62 1.62 0 0 1 1.62 1.62zm26.5-17.91a1.62 1.62 0 1 1-1.62-1.62 1.62 1.62 0 0 1 1.62 1.62zm26.5 8.8a1.62 1.62 0 1 1-1.62-1.62 1.62 1.62 0 0 1 1.62 1.62zm26.39-18.86A1.67 1.67 0 0 1 181 92a1.67 1.67 0 0 1 2.39-2.32zm26.84 0a1.67 1.67 0 0 1-2.37 2.32 1.67 1.67 0 0 1 2.37-2.32zm25.1 17.58a1.67 1.67 0 0 1-2.36 2.36 1.67 1.67 0 0 1 2.36-2.36z"/><path class="cls-4" d="M130.5 81.83a1.62 1.62 0 1 1-3.23 0 1.62 1.62 0 0 1 3.23 0zM104 108.69a1.62 1.62 0 1 1-3.23 0 1.62 1.62 0 0 1 3.23 0zm131.34 7.77a1.68 1.68 0 0 1-2.37 2.37 1.68 1.68 0 0 1 2.37-2.37zm-25.25-16.72a1.62 1.62 0 1 1-1.62-1.62 1.62 1.62 0 0 1 1.62 1.62zm-26.26-.24a1.62 1.62 0 1 1-3.23 0 1.62 1.62 0 0 1 3.23 0z"/><path class="cls-14" d="M91.27 134.35a7.18 7.18 0 0 1-2.55.23 7.26 7.26 0 0 1-2.56-.23 7.12 7.12 0 0 1 2.56-.24 7 7 0 0 1 2.55.24zm27.12 0a7.21 7.21 0 0 1-2.56.23 7.18 7.18 0 0 1-2.55-.23 7 7 0 0 1 2.55-.24 7.07 7.07 0 0 1 2.56.24zm27.12 0a7.26 7.26 0 0 1-2.56.23 7.18 7.18 0 0 1-2.55-.23 7 7 0 0 1 2.55-.24 7.12 7.12 0 0 1 2.56.24zm27.11 0a7.18 7.18 0 0 1-2.55.23 7.26 7.26 0 0 1-2.56-.23 7.12 7.12 0 0 1 2.56-.24 7 7 0 0 1 2.55.24zm27.12 0a14.31 14.31 0 0 1-5.11 0 13.72 13.72 0 0 1 5.11 0zm24.26 0a7.26 7.26 0 0 1-2.56.23 7.18 7.18 0 0 1-2.55-.23 7 7 0 0 1 2.55-.24 7.12 7.12 0 0 1 2.56.24zm24.24 0a7.26 7.26 0 0 1-2.56.23 7.18 7.18 0 0 1-2.55-.23 7 7 0 0 1 2.55-.24 7.12 7.12 0 0 1 2.56.24zm-175.83-7.77a4.79 4.79 0 0 1-2.06.23 4.81 4.81 0 0 1-2.07-.23 4.73 4.73 0 0 1 2.07-.24 4.7 4.7 0 0 1 2.06.24zm0-10.42a4.7 4.7 0 0 1-2.06.24 4.73 4.73 0 0 1-2.07-.24 4.81 4.81 0 0 1 2.07-.23 4.79 4.79 0 0 1 2.06.23zm0-10.41a4.79 4.79 0 0 1-2.06.23 4.81 4.81 0 0 1-2.07-.23 4.73 4.73 0 0 1 2.07-.24 4.7 4.7 0 0 1 2.06.24zm0-10.42a4.7 4.7 0 0 1-2.06.24 4.73 4.73 0 0 1-2.07-.24 4.81 4.81 0 0 1 2.07-.23 4.79 4.79 0 0 1 2.06.23zm0-10.41a4.79 4.79 0 0 1-2.06.23 4.81 4.81 0 0 1-2.07-.23 4.73 4.73 0 0 1 2.07-.24 4.7 4.7 0 0 1 2.06.24zm0-10.42a4.7 4.7 0 0 1-2.06.24 4.73 4.73 0 0 1-2.07-.24 4.81 4.81 0 0 1 2.07-.23 4.79 4.79 0 0 1 2.06.23zm0-10.41a4.7 4.7 0 0 1-2.06.24 4.73 4.73 0 0 1-2.07-.24 4.73 4.73 0 0 1 2.07-.24 4.7 4.7 0 0 1 2.06.24z"/><path class="cls-5" d="M76.06 127.36L75.77 126.52 102.15 117.25 128.81 99.25 155.35 108.05 182.08 90.42 208.85 90.34 208.96 90.42 234.4 108.39 259.04 92.11 259.53 92.85 234.38 109.47 234.13 109.29 208.57 91.23 182.34 91.31 155.48 109.03 128.95 100.23 102.5 118.07 76.06 127.36z"/><path class="cls-4" d="M234.54 117.84L208.57 100.18 181.81 100.18 155.03 82.51 129.06 82.28 102.54 109.14 76.24 109.14 76.24 108.25 102.16 108.25 128.7 81.38 155.3 81.62 182.08 99.29 208.84 99.29 234.24 116.56 259.61 71.98 260.38 72.42 234.54 117.84z"/><path class="cls-8" d="M260.18 48.91c0 .13-10 .23-22.34.23s-22.34-.1-22.34-.23 10-.23 22.34-.23 22.34.1 22.34.23zM77.56 48h-1.62v-1h4.42v1h-1.63v4.11h-1.17zm6.65 4.07l-1-1.41h-1.05v1.41H81V47h2.2c1.35 0 2.2.7 2.2 1.84a1.65 1.65 0 0 1-1 1.6l1.14 1.63zM83.11 48h-1v1.76h1c.72 0 1.08-.33 1.08-.88s-.36-.88-1.08-.88zm7.11 3.13v.94H86.3V47h3.83v.94h-2.66V49h2.35v1h-2.35v1.18zM95.8 47v5.07h-1L92.31 49v3.08h-1.15V47h1l2.52 3.08V47zm1.2 0h2.3a2.55 2.55 0 1 1 0 5.07H97zm2.25 4.1a1.57 1.57 0 1 0 0-3.14h-1.07v3.14z"/><path class="cls-9" d="M397.06 263.56L399.43 307.53 383.5 311.38 380.33 268.42 397.06 263.56z"/><path class="cls-5" d="M399.9 307.16L402.62 319.09 384.29 319.09 383.5 311.32 399.9 307.16z"/><path class="cls-8" d="M383.91 317.36a13.21 13.21 0 0 0 2.67.15c1.65 0 3.93 0 6.44-.12l6.43-.27a14 14 0 0 0 2.67-.22 13.8 13.8 0 0 0-2.67-.14c-1.65 0-3.93 0-6.45.12l-6.43.27a15.75 15.75 0 0 0-2.66.21z"/><path class="cls-8" d="M391.68 309.48a14.89 14.89 0 0 0 0 3.87 15.33 15.33 0 0 0 .51 3.83 29.23 29.23 0 0 0-.51-7.7z"/><path class="cls-9" d="M336.58 284.94L332.71 314.07 318.61 313.09 321.58 286.38 336.58 284.94z"/><path class="cls-5" d="M318.47 309.93s-15.84 5.35-16.11 8.24l30.29.89.28-7.92-1.13.22a22.49 22.49 0 0 1-13.33-1.43z"/><g class="cls-13"><path class="cls-7" d="M329.38 312.52a1.22 1.22 0 0 1 .81 1.43 1.18 1.18 0 0 1-1.41.82 1.31 1.31 0 0 1-.86-1.52 1.24 1.24 0 0 1 1.57-.69"/></g><path class="cls-8" d="M318 309.76c0 .15.74.24 1.45.74s1.08 1.13 1.22 1.07-.06-.91-.93-1.5-1.74-.44-1.74-.31zm-3.24 1.24c0 .15.6.42 1.08 1.06s.61 1.3.76 1.3.27-.84-.35-1.62-1.48-.9-1.49-.74zm-1.91 3.73c.13 0 .36-.69 0-1.51s-1-1.17-1.1-1.05.35.57.63 1.25.32 1.3.47 1.31z"/><path class="cls-8" d="M318.31 309.69a2.84 2.84 0 0 0 1.52 0 6.47 6.47 0 0 0 1.6-.44 7.12 7.12 0 0 0 .88-.43 2 2 0 0 0 .47-.35.64.64 0 0 0 .09-.78.81.81 0 0 0-.64-.36 2.43 2.43 0 0 0-.57.06 5.28 5.28 0 0 0-1 .3 5 5 0 0 0-1.43.88c-.72.63-1 1.17-.92 1.2s.42-.4 1.15-.92a6.23 6.23 0 0 1 1.37-.72 6 6 0 0 1 .88-.24c.33-.08.6-.07.68.07s0 .08 0 .17a1.26 1.26 0 0 1-.35.25 8.06 8.06 0 0 1-.81.44 9.49 9.49 0 0 1-1.48.52 9.39 9.39 0 0 0-1.44.35z"/><path class="cls-8" d="M318.5 309.9c.05 0 .36-.49.44-1.45a4.83 4.83 0 0 0-.16-1.67 4.68 4.68 0 0 0-.36-.93 1.25 1.25 0 0 0-.94-.79.71.71 0 0 0-.65.4 1.91 1.91 0 0 0-.17.55 3.26 3.26 0 0 0 0 1 3.38 3.38 0 0 0 .6 1.58c.57.8 1.18 1 1.19.95s-.45-.37-.88-1.14a3.54 3.54 0 0 1-.44-1.44 3.3 3.3 0 0 1 0-.88c.06-.32.19-.57.31-.54s.4.25.51.51a5.06 5.06 0 0 1 .36.84 5.65 5.65 0 0 1 .25 1.52c.03.92-.14 1.47-.06 1.49z"/><path class="cls-8" d="M385.28 137.45s11.18 18.68 11.18 29.85l2.75 136.08-17.67 4.21-13.47-133s-32.64 133.33-33.69 133.33-17.12-2.88-17.12-2.88l24.37-167z"/><path class="cls-4" d="M378.32 171a1.52 1.52 0 0 0 0 .35c0 .25.09.58.15 1 .14.9.35 2.19.61 3.83.54 3.33 1.3 8.15 2.2 14.12 1.8 11.89 4 28.42 5.92 46.74s3 34.95 3.68 47c.32 6 .56 10.9.7 14.27.08 1.66.14 3 .18 3.88l.06 1a2 2 0 0 0 0 .35 1.88 1.88 0 0 0 0-.35v-1c0-.91-.05-2.22-.09-3.88-.08-3.37-.27-8.25-.55-14.28-.57-12-1.67-28.69-3.54-47s-4.17-34.84-6.06-46.75c-.94-6-1.75-10.78-2.36-14.1-.3-1.63-.53-2.92-.7-3.82l-.19-1a2.74 2.74 0 0 0-.01-.36zm-27.96 2.21c-.14 0-5.53 29.84-12 66.69s-11.69 66.77-11.56 66.79 5.52-29.83 12-66.7 11.69-66.76 11.56-66.78zm18.33 1.17s.08-.11.19-.34.26-.56.45-1a34.66 34.66 0 0 0 1.31-3.83 39 39 0 0 0 1.26-13.29 37.37 37.37 0 0 0-.47-3.79 35.29 35.29 0 0 0-.84-3.47c-.62-2.17-1.27-4.1-1.82-5.72s-1-2.91-1.38-3.8c-.17-.41-.3-.75-.41-1a1.35 1.35 0 0 0-.17-.34s0 .13.09.37l.33 1.05c.31 1 .74 2.27 1.25 3.85s1.13 3.56 1.73 5.73c.3 1.09.6 2.23.81 3.43s.37 2.46.46 3.75a41.6 41.6 0 0 1-1.13 13.18c-.42 1.65-.87 2.95-1.18 3.85a12.78 12.78 0 0 0-.48 1.37zm-5-22.86a1.13 1.13 0 0 0 0 .27v.71c0 .67-.06 1.57-.11 2.69-.08 2.34-.2 5.59-.33 9.47l.11-.17-6.8 2.77h.19l-5.52-3.36-.36-.22.1.16c-.42-4.49-.81-8.71-1.15-12.35l-.18.2 10.16-.09 2.9-.05h1.06-3.85l-10.29-.09h-.21v.21c.32 3.65.69 7.87 1.09 12.36V164l.09.05.36.22 5.53 3.35.09.06h.1l6.78-2.82h.11v-.12c.06-3.94.11-7.23.15-9.59v-2.65a8.83 8.83 0 0 0-.02-.98zm25.57-3.59a8.48 8.48 0 0 0 .12.92c.09.62.22 1.45.38 2.49.35 2.16.84 5.16 1.42 8.75l.07-.18-5.14 3.81h.18l-6.24-1.72-.32-.09.15.14c-1.2-4.07-2.32-7.89-3.29-11.19l-.14.23 9.23-2.2 2.62-.65a7.57 7.57 0 0 0 1-.26 6.62 6.62 0 0 0-.9.16l-2.6.55-9.39 2h-.2l.06.19c.95 3.31 2.06 7.14 3.23 11.21v.12h.11l.32.09 6.25 1.72h.1l.08-.06 5.11-3.85.09-.07v-.11c-.67-3.62-1.22-6.65-1.63-8.83-.19-1-.35-1.82-.46-2.43a6 6 0 0 0-.21-.74zm-35.68 23.81a72.59 72.59 0 0 0 7.51 1.85 67.9 67.9 0 0 0 7.61 1.41 72.4 72.4 0 0 0-7.52-1.85 67.53 67.53 0 0 0-7.6-1.41z"/><path class="cls-4" d="M375.54 172.33a7 7 0 0 0 1.93 0 33 33 0 0 0 4.59-.72 31.44 31.44 0 0 0 4.45-1.36 7 7 0 0 0 1.74-.84 10.83 10.83 0 0 0-1.84.55c-1.12.37-2.69.83-4.44 1.23s-3.36.67-4.53.84a11.69 11.69 0 0 0-1.9.3z"/><path class="cls-8" d="M377.5 30.57c-.61 1.76 1.48 3.25 3.29 3.67s4 .68 4.85 2.34c.72 1.45 0 3.28.65 4.76 1.24 2.81 6.29 2.22 7.28 5.13.67 2-1.2 4.06-1 6.15.27 2.4 2.94 2.47 3.31 4.13.72 3.23-6.78 7.46-7.43 7.82-3.6 2-12.38 5.8-27.56 2.77m-16.28-21.82a18.28 18.28 0 0 1 .61-3 2.9 2.9 0 0 1 .75-1.21c.37-.35.85-.13 1.15.37a7.71 7.71 0 0 1 .83 3.79 7.73 7.73 0 0 1-.83 3.8c-.3.5-.78.72-1.15.37a2.9 2.9 0 0 1-.75-1.21 18 18 0 0 1-.61-3 2.15 2.15 0 0 0-.07.83 8.22 8.22 0 0 0 .35 2.24 3.27 3.27 0 0 0 .82 1.41 1 1 0 0 0 1 .23 1.58 1.58 0 0 0 .79-.67 7.72 7.72 0 0 0 .94-4 7.76 7.76 0 0 0-.94-4 1.64 1.64 0 0 0-.79-.67 1 1 0 0 0-1 .24 3.27 3.27 0 0 0-.82 1.41 8.22 8.22 0 0 0-.35 2.24 2.08 2.08 0 0 0 .07.83z"/><path class="cls-8" d="M375.12 62.75c3.39-5.72 4.36-13.33 5.21-19.92.41-3.1 1.11-7.52-1.07-9.46s-2.56-5.28-5.24-6.89a8.27 8.27 0 0 0-8.86.1"/><path class="cls-9" d="M365.75 83a9.18 9.18 0 0 1-9.9-8.77c-.2-5-.39-10-.39-10s-7.57-.68-8.14-8.17-.32-24.82-.32-24.82a26.08 26.08 0 0 1 26.38 1.61l-.39 26.37.01 14.18c0 4.76-2.51 9.23-7.25 9.6z"/><path class="cls-8" d="M354.76 46.85a3.85 3.85 0 0 1 5.12-1.13 4.35 4.35 0 0 1 1.46 5.44 5.75 5.75 0 0 1-3.66 2.84 2.87 2.87 0 0 0-2.25 3.1c.22 1.88 3.35 2.58 4.77 4.13 2.2 2.41 7 3.42 10.27 3.8s2.81.4 4.65-2.23a10 10 0 0 0 1.81-6.09q.15-8.28.29-16.57a23.61 23.61 0 0 0-.39-5.94 8 8 0 0 0-3.15-4.91c-1.83-1.19-4.14-1.29-6.21-1.95-2.6-.83-4.81-2.55-7.24-3.78s-5.41-2-7.84-.74c-1.75.88-2.91 2.63-4.61 3.61-2.42 1.38-5.72 1.08-6.88 4.64a6 6 0 0 0 .05 3.81c1.65 4.84 7.66 6.78 12 4.67.09.82-.72 2.65.16 5.24.27.83.38 2.09 1.67 2.11"/><path class="cls-16" d="M356.11 51.52s0 .15.11.33a1.11 1.11 0 0 0 .83.41 2.06 2.06 0 0 0 1.95-2.07 2.14 2.14 0 0 0-.55-1.58 2.26 2.26 0 0 0-1.18-.68c-.77-.16-1.21.13-1.18.18s.46 0 1.08.19a1.87 1.87 0 0 1 1.3 1.86 1.75 1.75 0 0 1-1.41 1.72c-.64.04-.89-.4-.95-.36z"/><path class="cls-8" d="M344.59 45.16a26.32 26.32 0 0 0 5 1.08 27.44 27.44 0 0 0 5.12.59 55.71 55.71 0 0 0-10.16-1.67zm31.72 23.08a9.49 9.49 0 0 0-3.35.22c-1.76.44-2.38 1.14-3.56.94s-1.1-1.33-2.49-1.75c-2-.6-4.45.73-6.13-.51-1.53-1.13-1.33-3.68-2.83-4.85-.8-.62-1.91-.7-2.72-1.3-1.52-1.12-1.27-3.63 0-5s3.19-1.95 5-2.46l16.1 6.86z"/><path class="cls-5" d="M353.63 71.19l1.94-4 5.29-.05a9.57 9.57 0 0 0 2.84.57c1.86.08 2.44-.45 3.75-.06s1.32 1 2.45 1.31a4.59 4.59 0 0 0 3.18-.51l2.07 3.31H353.9"/><path class="cls-4" d="M295.47 107.38c.12-.61-4.48-24.5-5.74-31.06a1.38 1.38 0 0 1 1.36-1.65H325a1.39 1.39 0 0 1 1.35 1.07l6.91 29.26 17.1 1.28-.6 1.12z"/><path class="cls-6" d="M296.95 105.26L291.47 76.3 324.78 76.5 332.09 105.3 296.95 105.26z"/><path class="cls-8" d="M297 105.28l-5.49-29 33.33.21 7.32 28.82zm-5.45-29l5.45 28.96h35.09l-7.3-28.76z"/><path class="cls-8" d="M297 105.46c0 .12 9.74.22 21.76.22s21.77-.1 21.77-.22-9.75-.21-21.77-.21-21.76.09-21.76.21z"/><path class="cls-4" d="M299.28 98.15a1.89 1.89 0 0 0 .44 0h1.25l4.59.07c3.87 0 9.23.06 15.14.06h5.13l-.07-.26c-1.18-4.56-2.21-8.55-3-11.47-.37-1.38-.68-2.5-.91-3.34a9.65 9.65 0 0 0-.37-1.2 7.55 7.55 0 0 0 .23 1.23c.2.85.47 2 .79 3.38.72 2.93 1.7 6.92 2.82 11.5l.2-.26h-4.82c-5.91 0-11.27 0-15.14.07l-4.59.07h-1.25a1.38 1.38 0 0 0-.44.15z"/><path class="cls-5" d="M323.41 97.05L322.79 94.25 318.5 94.25 319.05 97.05 323.41 97.05z"/><path class="cls-5" d="M317.58 97.05L316.29 91.55 312 91.55 313.22 97.05 317.58 97.05z"/><path class="cls-5" d="M311.75 97.05L311.13 94.25 306.84 94.25 307.39 97.05 311.75 97.05z"/><path class="cls-5" d="M305.92 97.05L303.47 86.36 299.18 86.36 301.56 97.05 305.92 97.05z"/><path class="cls-4" d="M320.05 100.17a3.63 3.63 0 0 0 1.73.2 3.74 3.74 0 0 0 1.73-.23c0-.12-.77-.21-1.74-.2s-1.77.11-1.72.23zm-5.65-.01a3.63 3.63 0 0 0 1.73.2 3.74 3.74 0 0 0 1.73-.23c0-.12-.77-.21-1.74-.2s-1.73.07-1.72.23zm-5.65-.01a3.63 3.63 0 0 0 1.73.2 3.74 3.74 0 0 0 1.73-.23c0-.12-.77-.21-1.74-.2s-1.73.08-1.72.23zm-5.65-.01a3.63 3.63 0 0 0 1.73.2 3.74 3.74 0 0 0 1.73-.23c0-.12-.77-.21-1.74-.2a3.73 3.73 0 0 0-1.72.23zm8.3-19.31a52.47 52.47 0 0 0 9.6 0 55 55 0 0 0-9.6 0zm5.05-1.18a10.86 10.86 0 0 0 4.25 0 10.37 10.37 0 0 0-4.25 0z"/><path class="cls-5" d="M325.64 125L306 110.8l.73-1.18a9.43 9.43 0 0 1 4.58-3.85l3.07.55 18.17 2.77z"/><path class="cls-5" d="M395.34 121.73L379.05 115.26 382.68 101.77 395.96 106.28 395.34 121.73z"/><path class="cls-5" d="M326.31 125.38c-4.06-2-5.1-6.86-3.12-10.94l16.88-36.07a6.65 6.65 0 0 1 1.7-2.33 19.09 19.09 0 0 1 14-4.78l17.6-.46s13.83 0 19 10.9c.38.79 8.42 16.74 13.71 27.24a9.08 9.08 0 0 1-5 12.62 9.07 9.07 0 0 1-11.42-4.81l-5.76-12.83-3.62 18.38 5.21 15.15-43.64.6 3.36-20.27 1.06-14.45-8.86 18.25a8.26 8.26 0 0 1-11.1 3.8z"/><path d="M378.8 122c-3.3 2.47-8.17 1.65-12.24 1a17.68 17.68 0 0 1-10.66-5.77 7.19 7.19 0 0 1-2-5c.16-1.85 1.79-3.63 3.63-3.41 2.11.25 3.13 2.62 4.14 4.48a16.34 16.34 0 0 0 17 8s.72.21.13.7zm-26.95-28.45c-1 8.3-.56 7.67-2.3 15.85-.85 4-1.88 8.23-4.66 11.27l1.38-17.34z" class=""/><path class="cls-5" d="M385.49 137.45L386.75 133.81 383.49 131.64 343.46 128.34 340.64 133.64 341.85 138.05 385.49 137.45z"/><path class="cls-8" d="M384 105.68a11 11 0 0 0 .89 2c.6 1.23 1.49 2.92 2.56 4.73s2.13 3.4 2.92 4.53a10.74 10.74 0 0 0 1.37 1.76 12.76 12.76 0 0 0-1.12-1.93c-.72-1.17-1.73-2.78-2.8-4.58s-2-3.46-2.67-4.66a12.81 12.81 0 0 0-1.15-1.85z"/><path class="cls-8" d="M387.85 112.6a5.34 5.34 0 0 0 .28 3 5.26 5.26 0 0 0 1.53 2.62c.1-.07-.64-1.2-1.13-2.75s-.53-2.87-.68-2.87zm-63.94.54c.1 0 3.52-7.09 7.62-16s7.35-16.09 7.24-16.14-3.52 7.09-7.63 16-7.34 16.09-7.23 16.14zm20.79-36.85c0 .07.74.34 1.82 1a11.29 11.29 0 0 1 5.29 8.06c.19 1.27.14 2.07.21 2.08a5.52 5.52 0 0 0 .09-2.12 10.58 10.58 0 0 0-5.43-8.28 5.57 5.57 0 0 0-1.98-.74zm35.63 46.19c.11 0 2.08-8.34 4.38-18.68s4.08-18.74 4-18.77-2.08 8.34-4.39 18.68-4.11 18.74-3.99 18.77z"/><path class="cls-9" d="M306.03 110.8L298.07 107.38 308.67 107.38 306.36 110.38"/><path class="cls-8" d="M322.38 111.69a14 14 0 0 0 1.93-1.82 13.82 13.82 0 0 0 1.87-1.87 9.29 9.29 0 0 0-3.8 3.69zm14.67 10.57a8.37 8.37 0 0 0 .67-1.11c.41-.73 1-1.79 1.67-3.1 1.38-2.64 3.22-6.31 5.23-10.37s3.85-7.73 5.22-10.37c.65-1.27 1.2-2.32 1.62-3.12A8.33 8.33 0 0 0 352 93a6.77 6.77 0 0 0-.7 1.09c-.43.71-1 1.76-1.74 3.06-1.44 2.6-3.32 6.25-5.34 10.32l-5.11 10.42-1.55 3.16a6.7 6.7 0 0 0-.51 1.21zm15.73-11.17a.93.93 0 0 0 0 .29 7.28 7.28 0 0 0 .14.81A10.59 10.59 0 0 0 354 115a16 16 0 0 0 7.37 6.54A32.16 32.16 0 0 0 371 124c1.26.14 2.28.22 3 .27a5.11 5.11 0 0 0 1.1 0 5 5 0 0 0-1.08-.19l-3-.41a35 35 0 0 1-9.49-2.49 16.36 16.36 0 0 1-7.28-6.3 15.92 15.92 0 0 1-1.47-3.79zm8.78 21.17c0 .12 5.41.6 12.09 1.07s12.12.75 12.12.63-5.4-.59-12.09-1.06-12.11-.75-12.12-.64zm-6.98-3.26a13.34 13.34 0 0 0-.88 4.1 13.74 13.74 0 0 0 0 4.19c.12 0 .17-1.87.42-4.15s.58-4.09.46-4.14zm-2.81-2.59a5.53 5.53 0 0 0-.36 1.65 20.79 20.79 0 0 0-.11 4.08 20 20 0 0 0 .68 4 5.48 5.48 0 0 0 .59 1.59c.13 0-.64-2.5-.85-5.65s.19-5.66.05-5.67zm1.81-54.93c0 .12 3.92 0 8.73-.28s8.72-.59 8.71-.7-3.91 0-8.73.27a87.25 87.25 0 0 0-8.71.71z"/><circle class="cls-5" cx="470.04" cy="70.82" r="20.78"/><circle class="cls-5" cx="963.21" cy="197.32" r="18.94"/><circle class="cls-5" cx="1188.71" cy="215.04" r="11"/><circle class="cls-5" cx="122.32" cy="275.54" r="18.94"/><circle class="cls-5" cx="822.66" cy="44.54" r="9.17"/></svg>