<svg id="Layer_1" data-name="Layer 1" xmlns="http://www.w3.org/2000/svg" viewBox="0 0 1380 325"><defs><style>.cls-1{fill:#fcf8ed}.cls-2{fill:#c9c8c7}.cls-3{fill:#fafafa}.cls-4{fill:#1a2e35}.cls-5{fill:#375a64}.cls-6{fill:#ffdc6b}.cls-7{fill:#fff}.cls-8{fill:#ffbf9e}.cls-9{fill:#ff9c6c}.cls-10{fill:#f5f5f5}.cls-11{opacity:.3}.cls-12{fill:#c78976}.cls-13{fill:#ff4f5b}.cls-14{fill:#e1e1e1}.cls-15{fill:#f4f4f4}.cls-16{fill:#e0e0e0}.cls-17{fill:#ebebeb}</style></defs><path class="cls-1" d="M-0.73 -2.67H1380.74V327.68H-0.73z"/><rect class="cls-2" x="129.56" y="18.57" width="135.71" height="281.56" rx="14.29"/><rect class="cls-3" x="116.22" y="10.26" width="135.71" height="281.56" rx="14.29"/><path class="cls-4" d="M237.64 291.82h.52a11.75 11.75 0 0 0 1.56-.15 14.16 14.16 0 0 0 5.68-2.16 14.77 14.77 0 0 0 3.32-3 13.77 13.77 0 0 0 2.53-4.78c.12-.47.27-.95.36-1.45s.18-1 .2-1.55c.08-1.05.06-2.15.06-3.29v-7.25c0-20.5 0-50.15-.06-86.79s0-80.28 0-128.73v-27.8a15.54 15.54 0 0 0-.66-4.59 14.45 14.45 0 0 0-5.51-7.4 14.42 14.42 0 0 0-4.28-2 15.31 15.31 0 0 0-2.36-.38c-.79 0-1.58-.08-2.39-.06h-106A14.14 14.14 0 0 0 116.5 23c-.16 1.69-.08 3.43-.1 5.15v250.69c0 .29.08.58.12.87a13.9 13.9 0 0 0 .37 1.7 14.13 14.13 0 0 0 9 9.48 15.07 15.07 0 0 0 1.59.45c.54.1 1.09.18 1.63.25 1.09.08 2.18.08 3.27.07H237.54 132.43c-1.08 0-2.18 0-3.3-.06-.55-.07-1.1-.15-1.65-.26a14.93 14.93 0 0 1-1.62-.45 14.44 14.44 0 0 1-9.21-9.65 15 15 0 0 1-.38-1.74c0-.29-.1-.59-.12-.88l-.05-.9v-3.58-14.7-31.17-68.8V28.1c0-1.72-.06-3.44.1-5.19a14.5 14.5 0 0 1 14.4-12.84h106c.8 0 1.61 0 2.43.06a16.21 16.21 0 0 1 2.39.44 15.07 15.07 0 0 1 4.39 2 14.64 14.64 0 0 1 5.65 7.58 16 16 0 0 1 .68 4.7v156.48c0 36.65 0 66.29-.06 86.79v7.25c0 1.14 0 2.24-.06 3.3 0 .53-.14 1.05-.21 1.56s-.24 1-.36 1.47a14.26 14.26 0 0 1-2.56 4.8 15.19 15.19 0 0 1-3.36 3 14.19 14.19 0 0 1-5.72 2.13 11 11 0 0 1-1.56.13z"/><path class="cls-4" d="M232.92 28.66a.36.36 0 0 1-.36-.36v-7.47a.36.36 0 0 1 .72 0v7.47a.36.36 0 0 1-.36.36zm2.88 0a.36.36 0 0 1-.35-.36v-2.67a.36.36 0 1 1 .71 0v2.67a.36.36 0 0 1-.36.36zm0-4.66a.36.36 0 0 1-.35-.36V21a.36.36 0 1 1 .71 0v2.68a.36.36 0 0 1-.36.32z"/><circle class="cls-4" cx="235.73" cy="25.32" r=".82"/><circle class="cls-4" cx="232.87" cy="26.51" r=".82"/><path class="cls-4" d="M238.53 28.66a.36.36 0 0 1-.36-.36v-7.47a.36.36 0 1 1 .71 0v7.47a.36.36 0 0 1-.35.36z"/><circle class="cls-4" cx="238.48" cy="22.46" r=".82"/><path class="cls-5" d="M246.31 97.42c0 .1-28.41.18-63.45.18s-63.45-.08-63.45-.18 28.4-.19 63.45-.19 63.45.08 63.45.19zm-9.72-9.79h-8.85a5.17 5.17 0 0 1 0-10.34h8.85a5.17 5.17 0 0 1 0 10.34zM227.74 78a4.45 4.45 0 0 0 0 8.9h8.85a4.45 4.45 0 0 0 0-8.9z"/><path class="cls-5" d="M227.69 86.05a3.49 3.49 0 1 1 3.48-3.49 3.49 3.49 0 0 1-3.48 3.49zm0-6.25a2.77 2.77 0 1 0 2.77 2.76 2.77 2.77 0 0 0-2.77-2.76zm18.62 47.44c0 .1-28.41.19-63.45.19s-63.45-.09-63.45-.19 28.4-.19 63.45-.19 63.45.09 63.45.19z"/><rect class="cls-5" x="222.93" y="108.36" width="18.47" height="9.62" rx="4.81"/><path class="cls-5" d="M239.85 113.28a3.13 3.13 0 1 1-3.13-3.13 3.13 3.13 0 0 1 3.13 3.13zM236.59 150h-8.85a4.81 4.81 0 0 1-4.81-4.81 4.81 4.81 0 0 1 4.81-4.81h8.85a4.81 4.81 0 0 1 4.81 4.81 4.81 4.81 0 0 1-4.81 4.81z"/><path class="cls-5" d="M239.85 145.31a3.13 3.13 0 1 1-3.13-3.13 3.13 3.13 0 0 1 3.13 3.13zm6.46 12.05c0 .1-28.41.18-63.45.18s-63.45-.08-63.45-.18 28.4-.19 63.45-.19 63.45.08 63.45.19zm-9.72 20.44h-8.85a5.17 5.17 0 1 1 0-10.34h8.85a5.17 5.17 0 1 1 0 10.34zm-8.85-9.62a4.45 4.45 0 1 0 0 8.9h8.85a4.45 4.45 0 1 0 0-8.9z"/><path class="cls-5" d="M227.69 176.22a3.49 3.49 0 1 1 3.48-3.48 3.49 3.49 0 0 1-3.48 3.48zm0-6.25a2.77 2.77 0 1 0 2.77 2.77 2.77 2.77 0 0 0-2.77-2.74zm18.62 17.22c0 .1-28.41.19-63.45.19s-63.45-.09-63.45-.19 28.4-.19 63.45-.19 63.45.09 63.45.19zm0 28.81c0 .1-28.41.19-63.45.19s-63.45-.09-63.45-.19 28.4-.19 63.45-.19 63.45.06 63.45.19zm-5.47-12a.36.36 0 0 1-.24-.62l.85-.81-.87-.91a.36.36 0 0 1 .52-.5l1.12 1.18a.35.35 0 0 1 .1.25.36.36 0 0 1-.11.26l-1.12 1.05a.39.39 0 0 1-.25.1zm-.56 28.26a.36.36 0 0 1-.24-.62l.85-.81-.86-.91a.35.35 0 0 1 0-.51.36.36 0 0 1 .5 0l1.12 1.18a.35.35 0 0 1 .1.25.36.36 0 0 1-.11.26l-1.12 1a.39.39 0 0 1-.24.16z"/><path class="cls-4" d="M181.72 277.31s.13 0 .37-.05a1.83 1.83 0 0 0 .93-.55 1.67 1.67 0 0 0 .39-.68 3 3 0 0 0 .08-1v-2.46-6.74V262.76a2.09 2.09 0 0 0-.16-1 1.74 1.74 0 0 0-1.77-1h-2.42l-51.73.06a1.65 1.65 0 0 0-1.41.8 1.61 1.61 0 0 0-.23.8v12.74a2.4 2.4 0 0 0 .09.82 1.67 1.67 0 0 0 1.1 1.05 3.08 3.08 0 0 0 .82.06H160.26l15.68.06h5.75a2.79 2.79 0 0 1-.38 0h-5.37l-15.68.05h-32.58a3.19 3.19 0 0 1-.91-.07 2 2 0 0 1-1.35-1.29 2.52 2.52 0 0 1-.11-.93v-.89-11.93a2 2 0 0 1 2-2l51.73.05h2.42a2 2 0 0 1 2 1.14 2.38 2.38 0 0 1 .18 1.13v12.27a2.88 2.88 0 0 1-.1 1 1.71 1.71 0 0 1-.43.71 1.78 1.78 0 0 1-1 .53 1.37 1.37 0 0 1-.39.39z"/><path class="cls-4" d="M146.2 269.08a1.8 1.8 0 0 1 1.88-1.81 1.76 1.76 0 0 1 1.35.55l-.33.32a1.31 1.31 0 0 0-1-.42 1.37 1.37 0 1 0 0 2.73 1.32 1.32 0 0 0 1-.43l.33.32a1.77 1.77 0 0 1-1.35.56 1.8 1.8 0 0 1-1.88-1.82zm5.98.16v1.62h-.46v-.36a1 1 0 0 1-.88.39c-.61 0-1-.33-1-.79s.28-.79 1.08-.79h.77v-.09c0-.42-.24-.65-.72-.65a1.34 1.34 0 0 0-.85.29l-.2-.37a1.81 1.81 0 0 1 1.11-.34c.73 0 1.15.35 1.15 1.09zm-.49.8v-.38h-.75c-.48 0-.62.19-.62.42s.23.43.6.43a.78.78 0 0 0 .77-.51zm3.94-.73v1.55h-.49v-1.49c0-.53-.26-.79-.72-.79a.8.8 0 0 0-.85.89v1.39h-.49v-2.69h.47v.41a1.12 1.12 0 0 1 1-.43 1 1 0 0 1 1.08 1.16zm.67.2a1.33 1.33 0 0 1 1.42-1.36 1.18 1.18 0 0 1 1.09.57l-.37.24a.82.82 0 0 0-.73-.39.95.95 0 0 0 0 1.89.83.83 0 0 0 .73-.38l.37.23a1.2 1.2 0 0 1-1.09.58 1.35 1.35 0 0 1-1.42-1.38zm5.52.17h-2.18a.9.9 0 0 0 1 .78 1 1 0 0 0 .78-.32l.27.31a1.38 1.38 0 0 1-1.06.44 1.35 1.35 0 0 1-1.45-1.38 1.32 1.32 0 0 1 1.35-1.36 1.29 1.29 0 0 1 1.33 1.38s-.04.1-.04.15zm-2.18-.35h1.72a.87.87 0 0 0-1.72 0zm2.86-2.23h.5v3.76h-.49z"/><rect class="cls-6" x="187.08" y="260.6" width="58.02" height="16.71" rx="1.82"/><path class="cls-7" d="M210.31 270h-1.89l-.39.89h-.52l1.61-3.55h.5l1.61 3.55h-.53zm-.18-.41l-.76-1.73-.77 1.73zm4.34-.08a1.31 1.31 0 0 1-1.36 1.38 1.16 1.16 0 0 1-.94-.44v1.39h-.48v-3.67h.47v.43a1.12 1.12 0 0 1 1-.45 1.3 1.3 0 0 1 1.31 1.36zm-.49 0a.91.91 0 1 0-.91.95.89.89 0 0 0 .93-.95zm3.95 0a1.31 1.31 0 0 1-1.36 1.38 1.15 1.15 0 0 1-.94-.44v1.39h-.49v-3.67h.47v.43a1.14 1.14 0 0 1 1-.45 1.3 1.3 0 0 1 1.32 1.36zm-.5 0a.9.9 0 1 0-.9.95.89.89 0 0 0 .9-.95zm1.17-2.41h.49v3.76h-.49zm3.79 1.07l-1.3 2.95c-.24.57-.55.75-1 .75a1 1 0 0 1-.69-.25l.21-.36a.71.71 0 0 0 .48.19c.23 0 .38-.1.51-.41l.09-.19-1.19-2.68h.51l.94 2.15.92-2.15z"/><path d="M128.36 19.74h3.27v.74h-2.36v1.64h1.84v.74h-1.84v2.43h-.91zm6.01 5.63a2.14 2.14 0 0 1-2.2-2.28 2.11 2.11 0 0 1 2.2-2.27 2 2 0 0 1 2.14 2.18 2.22 2.22 0 0 1 0 .45h-3.36a1.21 1.21 0 0 0 1.25 1.17 1.06 1.06 0 0 0 1-.62h1a2 2 0 0 1-2.03 1.37zm-1.25-2.67h2.44a1.15 1.15 0 0 0-1.23-1.12 1.21 1.21 0 0 0-1.21 1.12zm6.07-1.88a1.86 1.86 0 0 1 1.52.71v-.64h.92v4.4h-.92v-.65a1.9 1.9 0 0 1-1.54.73 2.13 2.13 0 0 1-2.06-2.3 2.09 2.09 0 0 1 2.08-2.25zm.19.79a1.35 1.35 0 0 0-1.38 1.46 1.39 1.39 0 0 0 1.34 1.5 1.36 1.36 0 0 0 1.33-1.48 1.36 1.36 0 0 0-1.29-1.48zm3.62.02h-.52v-.74h.52v-1.1h.92v1.1H145v.74h-1.1v2.44c0 .33.13.46.51.46h.59v.76h-.72c-.78 0-1.27-.32-1.27-1.22zm6.8 3.66h-.91v-.52a1.65 1.65 0 0 1-1.3.59 1.72 1.72 0 0 1-1.82-1.88v-2.59h.9v2.45a1.08 1.08 0 0 0 1.11 1.23c.67 0 1.11-.42 1.11-1.23v-2.45h.91zm2.11 0H151v-4.4h.91v.64a1.44 1.44 0 0 1 1.32-.71v.94H153c-.67 0-1.09.28-1.09 1.22zm4.09.08a2.14 2.14 0 0 1-2.2-2.28 2.11 2.11 0 0 1 2.2-2.27 2 2 0 0 1 2.11 2.18 2.22 2.22 0 0 1 0 .45h-3.37A1.22 1.22 0 0 0 156 24.6a1.06 1.06 0 0 0 1-.62h1a2 2 0 0 1-2 1.39zm-1.25-2.67h2.44a1.15 1.15 0 0 0-1.23-1.12 1.21 1.21 0 0 0-1.24 1.12zm5.86 2.67a1.66 1.66 0 0 1-1.84-1.43h.94a.82.82 0 0 0 .88.66c.53 0 .81-.23.81-.53 0-.86-2.56-.37-2.56-2 0-.71.66-1.27 1.7-1.27a1.5 1.5 0 0 1 1.7 1.41h-.91a.73.73 0 0 0-.82-.65c-.49 0-.75.2-.75.5 0 .89 2.49.39 2.54 2 0 .75-.65 1.31-1.69 1.31z"/><rect class="cls-2" x="126.12" y="80.84" width="51.77" height="4.72" rx="2.36"/><path class="cls-5" d="M247.19 70.81c0 .1-28.41.18-63.45.18s-63.45-.08-63.45-.18 28.4-.19 63.45-.19 63.45.08 63.45.19zM237.47 61h-8.85a5.17 5.17 0 0 1 0-10.34h8.85a5.17 5.17 0 0 1 0 10.34zm-8.85-9.62a4.45 4.45 0 0 0 0 8.9h8.85a4.45 4.45 0 0 0 0-8.9z"/><path class="cls-5" d="M228.57 59.44a3.49 3.49 0 1 1 3.48-3.44 3.49 3.49 0 0 1-3.48 3.44zm0-6.26a2.77 2.77 0 1 0 2.77 2.82 2.78 2.78 0 0 0-2.77-2.82z"/><rect class="cls-2" x="127" y="54.23" width="51.77" height="4.72" rx="2.36"/><rect class="cls-2" x="126.12" y="111.25" width="36.14" height="4.72" rx="2.15"/><path class="cls-4" d="M248.08 43.46c0 .11-28.41.19-63.45.19s-63.45-.08-63.45-.19 28.4-.18 63.45-.18 63.45.08 63.45.18z"/><path class="cls-6" d="M153.46 44.18h-25.1a.72.72 0 1 1 0-1.43h25.1a.72.72 0 1 1 0 1.43z"/><rect class="cls-2" x="129.19" y="33.7" width="23.43" height="2.7" rx="1.35"/><rect class="cls-2" x="171.37" y="33.7" width="23.43" height="2.7" rx="1.35"/><rect class="cls-2" x="213.38" y="33.7" width="23.43" height="2.7" rx="1.35"/><rect class="cls-2" x="126.12" y="141.13" width="43.52" height="4.72" rx="2.36"/><rect class="cls-2" x="126.12" y="171.54" width="47.08" height="4.72" rx="2.36"/><rect class="cls-5" x="126.12" y="200.11" width="39.83" height="4.72" rx="2.26"/><rect class="cls-5" x="126.12" y="230.52" width="43.52" height="4.72" rx="2.36"/><path class="cls-6" d="M42.64 234.41a31 31 0 0 0-13.3-4.58c-2.18-.22-4.55-.16-6.3 1.16a1.3 1.3 0 0 0-.65 1.15 1.39 1.39 0 0 0 .62.78 19 19 0 0 0 19.63 1.49m-.34-.41a64.39 64.39 0 0 1-8.59-7.56 21.63 21.63 0 0 1-5.39-10 4 4 0 0 1 .42-3.34C35.59 218.52 41 225.44 42.3 234"/><path class="cls-6" d="M42.57 234.36a31 31 0 0 1 .16-11.29 15.27 15.27 0 0 1 6-9.31c1.18 2.77.67 6-.16 8.85a43.09 43.09 0 0 1-6 12.55m6.72 11.23c-4.08.5-7.63 2.65-10.68 5.4a20.24 20.24 0 0 0-6.1 10.48c4-.25 7.39-3.07 9.85-6.23s4.17-6.63 6.87-9.59m1.51 1.87a26.34 26.34 0 0 1 3-24.9c2.33 8.26 1.47 17.59-3 24.9m8.88 10.56a19 19 0 0 0-18.2 10.48 1.39 1.39 0 0 0-.12 1.42 1.34 1.34 0 0 0 1.2.36c3.59-.24 6.77-2.39 9.39-4.85s4.91-5.29 7.81-7.42m-.37-.56a34 34 0 0 1-.33-18.94c.66-2.43 1.78-5 4-6.14a.79.79 0 0 1 .61-.11.76.76 0 0 1 .39.45 11.36 11.36 0 0 1 1 5.43 35.14 35.14 0 0 1-.85 5.5c-.71 3.36-1.09 7-2.93 9.87a19.77 19.77 0 0 0-1.22 2.17c-.35.74-.35 1-.67 1.58m23.49 3.68c-1.74-6.61.11-14.64 4.28-20.06.31-.4.71-.83 1.22-.79.76.07 1 1.1.93 1.87a36.22 36.22 0 0 1-6.43 19m2.12 1.43a29.15 29.15 0 0 0 24-4.87 19.37 19.37 0 0 0-13-1.59c-4.34 1-8.29 2.93-11 6.46m1.78-4.4c4.51-7.35 13.14-12.14 21.75-12.58-1 3.5-3.87 6.22-7.12 7.87a39.75 39.75 0 0 1-10.43 3.05c-1.39.27-3.3.56-4.2 1.66m-3.45-21.39a63.48 63.48 0 0 0 2.78-12.73 21.21 21.21 0 0 0-2.54-12.6c-4.2 8.14-4.63 17.65-.37 25.77m14.29-7.6c4.92-8.94 15-16.08 25.12-17.08-3.92 9.75-14.61 17.29-25.12 17.08m-3.09 1.75c7.33 1.12 13.59 5.81 20.44 8.65a9.1 9.1 0 0 0 4.62.88 3.62 3.62 0 0 0 2.27-6.4 9.76 9.76 0 0 0-3.36-2C110.84 230 102.84 230 95 231.84"/><path class="cls-6" d="M90.09 237.2c1.66.47 2.23 1.33 3.55 2.45a38.05 38.05 0 0 0 15.5 8c.59.15 1.37.21 1.66-.33s-.07-1-.4-1.45a21.29 21.29 0 0 0-9.36-6.35c-3.58-1.34-6.68-2.94-11-2.6m-4.74-30.8a29.33 29.33 0 0 0 22.5 7.65 1.49 1.49 0 0 0 1-.37c.57-.61-.11-1.56-.77-2.08-6.62-5.15-14.63-7.29-22.75-5.2"/><path class="cls-6" d="M91 204a31.35 31.35 0 0 1 28.07-4.63 22.27 22.27 0 0 1-13.38 5.87A42.36 42.36 0 0 1 91 204m-2.28-14.24c-.65-6.6-.22-11.82-.68-18.45 0-.53-.15-1.17-.65-1.36-.69-.26-1.26.59-1.49 1.29a21.14 21.14 0 0 0 2.81 18.37"/><path class="cls-6" d="M88.25 190.49a38.81 38.81 0 0 0 10.93-10.63c2.16-3 4-6.5 3.49-10.12a10.43 10.43 0 0 0-7.88 3.91 22.06 22.06 0 0 0-4 8.09c-.87 2.91-1.48 5.89-2.51 8.75M99 187.5a88 88 0 0 0 26.91-15.87c-3.21-1.29-6.89-.52-10.11.78a31.87 31.87 0 0 0-16.94 15m-7.59 6.69a55 55 0 0 0 14.94.07c4.85-.81 9.42-2.73 14-4.64a1.61 1.61 0 0 0 1-.71 1.09 1.09 0 0 0-.34-1.2 3 3 0 0 0-1.19-.56c-4.92-1.37-10.23-.73-15.08.9a70.31 70.31 0 0 0-13.23 6.14M62.9 206.34c-3.39-6.84-3.17-14.82-.24-21.87 2.06 3.14 2.31 7.14 1.94 10.87s-1.52 7.59-1.59 11.34m-13.65-7.17a30.54 30.54 0 0 0-22.67 9.66 21.14 21.14 0 0 0 12.42-2.3 62.82 62.82 0 0 0 10.63-7.12m-9.48-3.28c-4.14-.34-8.12-.85-12.1.37a14.53 14.53 0 0 0-9.23 7.82 21.83 21.83 0 0 0 11.35-2.14 65.19 65.19 0 0 0 10-6.05m13.46.14c-3.73-2.44-7.55-4.93-11.89-5.94s-9.36-.26-12.38 3c3.51 2.06 7.77 2.3 11.84 2.3s9.06 0 12.89 1.31"/><path class="cls-6" d="M53.76 196.81c-6.37-6.26-8.78-17.49-6.22-26a39.6 39.6 0 0 1 6.22 26m17.51-17.72c1.2-2.79 2-5.72 3.12-8.56a24.69 24.69 0 0 1 4.45-7.89 11.72 11.72 0 0 1 7.89-4.09 31.78 31.78 0 0 1-15.31 20.59m-3.32 3.64c-2-2.73-4.28-6.44-7-8.49s-6.2-3.27-9.49-2.49a22.09 22.09 0 0 0 16.47 11m.65-3.48a47.49 47.49 0 0 1-3.14-10.17 15.94 15.94 0 0 1 1.59-10.34c3.5 6.6 4.62 13.69 1.73 20.59m2.39-20.59c2-6.55 8-11.37 14.45-13.59a5.4 5.4 0 0 1 2.53-.38 2.2 2.2 0 0 1 1.87 1.56c.24 1.12-.68 2.11-1.55 2.85a49.24 49.24 0 0 1-17.3 9.56m.07-5.36c.25-4.22.52-8.51 1.89-12.51s4-7.75 7.87-9.5c.66 4.26-1.23 8.51-3.5 12.18s-5 7.13-6.36 11.22m0 1.52c-1.64-4.78-1.81-10.84-4.67-15-2-2.9-5.19-4.88-6.91-8a12.06 12.06 0 0 0 .4 9 26 26 0 0 0 5.29 7.64c2.11 2.26 3.92 4 5.89 6.35"/><path class="cls-6" d="M71.3 296.91c-.13 0-.24-31.84-.25-71.1s.09-71.12.22-71.12.23 31.84.24 71.12-.08 71.1-.21 71.1z"/><path class="cls-6" d="M99.12 201.54a6.45 6.45 0 0 1-1.19.45l-3.3 1.11c-2.78 1-6.59 2.32-10.73 4s-8 3.19-10.17 5.1a7.37 7.37 0 0 0-2 2.7c-.31.75-.37 1.21-.41 1.2s0-.12 0-.33a5.33 5.33 0 0 1 .23-.93 7.16 7.16 0 0 1 2-2.88 18.14 18.14 0 0 1 4.41-2.75c1.77-.82 3.72-1.68 5.8-2.53 4.16-1.7 8-3 10.81-3.9 1.4-.44 2.55-.76 3.34-1a6.84 6.84 0 0 1 1.21-.24z"/><path class="cls-6" d="M108.24 179.14a2.12 2.12 0 0 1-.33.36l-1 .95-3.82 3.47-12.69 11.3c-5 4.41-9.24 8.63-12.21 11.8-1.49 1.59-2.66 2.9-3.45 3.82l-.93 1a2 2 0 0 1-.34.35 2.08 2.08 0 0 1 .27-.41c.19-.25.48-.64.86-1.11.76-.95 1.89-2.3 3.35-3.92a162.75 162.75 0 0 1 12.14-11.92c5-4.4 9.5-8.35 12.79-11.2l3.91-3.36 1.08-.89a2.37 2.37 0 0 1 .37-.24z"/><path class="cls-6" d="M85 199.71c-.13-.06.9-2.45 1.93-5.47s1.54-5.58 1.67-5.55a18.94 18.94 0 0 1-1.23 5.7 37.79 37.79 0 0 1-1.54 3.82 6.24 6.24 0 0 1-.83 1.5zM71.33 219a5.39 5.39 0 0 1-.77-.89l-2-2.51c-1.64-2.12-3.92-5.05-6.46-8.26s-4.89-6.09-6.59-8.17l-2-2.47a6.68 6.68 0 0 1-.69-1 5.61 5.61 0 0 1 .83.83c.51.55 1.23 1.37 2.11 2.38 1.76 2 4.15 4.88 6.7 8.09s4.78 6.18 6.36 8.36c.79 1.09 1.42 2 1.84 2.6a6.47 6.47 0 0 1 .67 1.04z"/><path class="cls-6" d="M65.23 211.15a11.1 11.1 0 0 1-2.56-4.79 13.56 13.56 0 0 1-.58-4.82h.21c-.1.36-.16.56-.2.55s0-.21 0-.59h.21a21.68 21.68 0 0 0 .81 4.69 35.68 35.68 0 0 0 2.11 4.96zm-7.88-9.91a7.92 7.92 0 0 0-1.78-1 12 12 0 0 0-5-.39 31.22 31.22 0 0 0-5 .8 15.55 15.55 0 0 1-2 .5 7 7 0 0 1 2-.81 23.11 23.11 0 0 1 5-1 10.83 10.83 0 0 1 5.11.55 3.19 3.19 0 0 1 1.67 1.35zm-1.87-2.4c0 .07-1-.42-2.73-1A27.64 27.64 0 0 0 39 196.79c-1.76.32-2.83.65-2.85.57a2.6 2.6 0 0 1 .73-.31 18.21 18.21 0 0 1 2.06-.58 24.32 24.32 0 0 1 14 1.07 17.27 17.27 0 0 1 2 .88c.32.24.56.39.54.42zm15.79-10.15a55 55 0 0 1-2-6.93 56.08 56.08 0 0 1-1.54-7 58.21 58.21 0 0 1 2 6.93 56.47 56.47 0 0 1 1.54 7z"/><path class="cls-6" d="M71.39 188.69a31.76 31.76 0 0 0-2.21-4.15 18.37 18.37 0 0 0-3.25-3.36 3 3 0 0 1 1.26.65 10.13 10.13 0 0 1 2.37 2.45 9 9 0 0 1 1.83 4.41zm-.09 91.25s-.14-.77-.5-2.12a31 31 0 0 0-2.13-5.51 76.07 76.07 0 0 0-11.29-15.9c-2.52-2.88-5-5.6-7-8.2a56.72 56.72 0 0 1-5-7.26 35 35 0 0 1-2.55-5.39c-.23-.66-.4-1.18-.5-1.54a3.31 3.31 0 0 1-.13-.55s.28.73.8 2a39.19 39.19 0 0 0 2.66 5.28 59.33 59.33 0 0 0 5.08 7.16c2.08 2.58 4.53 5.28 7.06 8.16 5.1 5.73 9.09 11.5 11.23 16.07a27 27 0 0 1 2 5.61 13.63 13.63 0 0 1 .28 1.6 2.91 2.91 0 0 1-.01.59z"/><path class="cls-6" d="M96.44 251.54a9.18 9.18 0 0 1-1.32.74 30 30 0 0 0-3.41 2.26 38.75 38.75 0 0 0-4.49 4.09c-1.58 1.67-3.2 3.6-4.86 5.67-3.31 4.16-6.41 7.83-8.26 10.77a46.51 46.51 0 0 0-2.08 3.54 11.8 11.8 0 0 1-.72 1.33s0-.13.12-.37.23-.6.44-1a34.89 34.89 0 0 1 2-3.63A120.93 120.93 0 0 1 82 264c1.66-2.07 3.31-4 4.91-5.67a36.79 36.79 0 0 1 4.6-4.06 24.38 24.38 0 0 1 3.49-2.15c.44-.22.79-.35 1-.45a1.59 1.59 0 0 1 .44-.13z"/><path class="cls-6" d="M96.93 260.75a18.2 18.2 0 0 1-2.78.41 36.73 36.73 0 0 0-6.61 1.3 19.94 19.94 0 0 0-5.91 3.1c-1.36 1.06-2 1.93-2.07 1.88a2 2 0 0 1 .41-.64 11.28 11.28 0 0 1 1.45-1.49 18.12 18.12 0 0 1 6-3.29 29.83 29.83 0 0 1 6.72-1.18 15.43 15.43 0 0 1 2.79-.09z"/><path class="cls-6" d="M80.37 266.43c-.14-.09 1.11-2 2.09-4.58s1.12-4.85 1.29-4.85a4.56 4.56 0 0 1 0 1.49 16.08 16.08 0 0 1-.81 3.52 16.89 16.89 0 0 1-1.62 3.23 4.47 4.47 0 0 1-.95 1.19zm24.21-39.62a2.16 2.16 0 0 1-.44.23l-1.31.6c-.57.25-1.27.56-2 1s-1.71.83-2.66 1.4l-1.52.86c-.53.31-1 .67-1.61 1-1.12.68-2.24 1.52-3.44 2.37a66.09 66.09 0 0 0-7.18 6.32 63.62 63.62 0 0 0-6.11 7.41c-.82 1.23-1.62 2.38-2.26 3.52-.32.57-.67 1.1-1 1.64l-.81 1.55c-.54 1-.93 1.9-1.31 2.7s-.67 1.51-.9 2.09-.4 1-.55 1.33a2.23 2.23 0 0 1-.22.45 1.79 1.79 0 0 1 .13-.48c.13-.36.28-.81.47-1.37s.47-1.31.84-2.12.72-1.76 1.25-2.75c.25-.5.51-1 .79-1.57s.61-1.09.93-1.66c.64-1.16 1.43-2.33 2.24-3.57a61.6 61.6 0 0 1 6.09-7.51 63 63 0 0 1 7.26-6.34c1.21-.85 2.35-1.68 3.49-2.35.56-.34 1.09-.7 1.63-1l1.54-.85c1-.56 1.9-1 2.71-1.34a22.27 22.27 0 0 1 2.09-.9l1.34-.52a2 2 0 0 1 .52-.14z"/><path class="cls-6" d="M84.69 240.14a3.19 3.19 0 0 1 1.09-1.63 6.92 6.92 0 0 1 4.41-1.69 12 12 0 0 1 4.64.91 6.42 6.42 0 0 1 1.75.85 11.61 11.61 0 0 1-1.86-.55 14.16 14.16 0 0 0-4.52-.75 7.12 7.12 0 0 0-4.2 1.48 12.46 12.46 0 0 0-1.31 1.38zm-2.98 3.07a16.11 16.11 0 0 0 1.29-4.07 16.37 16.37 0 0 0-.28-4.26 2.81 2.81 0 0 1 .52 1.19 8.43 8.43 0 0 1-.71 6.1c-.43.71-.77 1.07-.82 1.04z"/><path class="cls-5" d="M49.31 284.5c.69 12.17 4.35 24.54 10 37.06h24.52c5.38-12.39 8.79-24.75 9.4-37.06z"/><path class="cls-3" d="M89.25 304.19c0 .13-8.07.23-18 .23s-18-.1-18-.23 8.07-.23 18-.23 18 .1 18 .23zm-.55 4.41c0 .13-7.57.23-16.9.23s-16.91-.1-16.91-.23 7.57-.23 16.91-.23 16.9.1 16.9.23zm-29-16.11a69.51 69.51 0 0 1 0 11.3 69.51 69.51 0 0 1 0-11.3z"/><path class="cls-3" d="M72.84 292.49a74.51 74.51 0 0 1 0 11.7 74.51 74.51 0 0 1 0-11.7zm12.33-.1a38.46 38.46 0 0 1 .23 6 38.57 38.57 0 0 1-.23 6 77.6 77.6 0 0 1 0-11.94z"/><path class="cls-3" d="M92.45 292.49c0 .13-9.47.23-21.15.23s-21.16-.1-21.16-.23 9.47-.23 21.16-.23 21.15.1 21.15.23z"/><path class="cls-4" d="M1033.74 41.23c1.19-6.49 3-16.21 11.16-21.21a21.89 21.89 0 0 1 12.85-2.86 27.49 27.49 0 0 1 7 1.63c.7.26 6.92 3 9.93 8.72 2.78 5.25 1 9.56.22 18a80.82 80.82 0 0 0 1.13 22.09l-41.2-4.75a48.18 48.18 0 0 1-1.09-21.62z"/><path class="cls-8" d="M1060.06 22.08L1059 21l-11.76 4.74a3.28 3.28 0 0 0-3.1 3.18l.11 38.29a10.69 10.69 0 0 0 2.07 6.92L1057.09 88c3.76 5 3.41-6 6.39-11.45.21-.38-.69-1.81-.63-2.08a6.52 6.52 0 0 0 .18-.85c.35-3.09.37-5.76.37-5.76.21-3.38.28-4.77.28-4.74s7.2-.82 9.14-10.06c1-4.6.79-10.92.52-17.15-.34-8.64-6.34-13.84-13.28-13.83z"/><path class="cls-4" d="M1059.48 42.51a1.19 1.19 0 0 1-1.21 1.15 1.14 1.14 0 0 1-1.18-1.14 1.19 1.19 0 0 1 1.21-1.14 1.13 1.13 0 0 1 1.18 1.13zm11.52.27a1.19 1.19 0 0 1-1.21 1.14 1.14 1.14 0 0 1-1.18-1.14 1.19 1.19 0 0 1 1.21-1.14 1.14 1.14 0 0 1 1.18 1.14zm1.11-4.43c-.16.14-1-.57-2.32-.63s-2.26.53-2.39.37.1-.35.53-.63a3.35 3.35 0 0 1 1.92-.49 3.19 3.19 0 0 1 1.83.7c.38.33.5.61.43.68zm-13.05.13c-.17.13-1-.67-2.24-.86s-2.3.3-2.41.12.13-.34.58-.57a3.38 3.38 0 0 1 2-.29 3.17 3.17 0 0 1 1.75.88c.31.36.4.66.32.72zm4.49 9.36a8.51 8.51 0 0 1 2.11-.28c.33 0 .64-.06.71-.28a1.68 1.68 0 0 0-.17-1c-.27-.81-.55-1.66-.85-2.55a42.32 42.32 0 0 1-1.85-6.64 41.17 41.17 0 0 1 2.38 6.48c.28.89.55 1.75.81 2.56a1.9 1.9 0 0 1 .1 1.3.83.83 0 0 1-.56.45 2.32 2.32 0 0 1-.56 0 9 9 0 0 1-2.12-.04z"/><path class="cls-9" d="M1063.68 63.09a23.74 23.74 0 0 1-12.31-4s2.81 6.61 12.18 6.2zm-.83-12.18a2.32 2.32 0 0 0-2-1 2.18 2.18 0 0 0-1.5.71 1.36 1.36 0 0 0-.18 1.53 1.54 1.54 0 0 0 1.67.51 4.77 4.77 0 0 0 1.69-.9 1.31 1.31 0 0 0 .38-.36.43.43 0 0 0 0-.48"/><path class="cls-4" d="M1059.72 48.54c.21 0 .15 1.39 1.29 2.44s2.64 1 2.64 1.17-.34.25-1 .24a3.45 3.45 0 0 1-2.21-.9 3 3 0 0 1-1-2c.02-.63.19-.97.28-.95zm.57-15.07c-.18.32-1.42 0-2.94-.08s-2.79.17-2.94-.17c-.07-.16.19-.46.73-.72a4.85 4.85 0 0 1 2.26-.42 5 5 0 0 1 2.22.61c.52.31.75.62.67.78zm11.63-.65c-.24.28-1.11-.06-2.17-.13s-2 .1-2.17-.22c-.09-.15.07-.44.48-.69a3 3 0 0 1 1.79-.39 3 3 0 0 1 1.71.67c.36.32.44.63.36.76z"/><path class="cls-4" d="M1044.36 45.3s6.58 2.05 10.31-14.2c1.27-5.56 6.42-10.06 6.42-10.06l-2.08-.63s-13 3.66-13.21 3.83-3.27 6.71-3.27 6.71z"/><path class="cls-8" d="M1046 44.69c0-.69-.68-2.37-1.36-2.51-1.82-.37-5.12-.39-5.39 4.25-.36 6.35 6.09 5.4 6.11 5.22s.51-4.56.64-6.96z"/><path class="cls-9" d="M1043.54 49.14s-.12.07-.31.14a1 1 0 0 1-.83 0 2.73 2.73 0 0 1-1.12-2.52 3.57 3.57 0 0 1 .4-1.57 1.28 1.28 0 0 1 .88-.8.56.56 0 0 1 .63.34c.08.18 0 .31.06.32s.15-.1.11-.37a.75.75 0 0 0-.23-.41.79.79 0 0 0-.6-.19 1.54 1.54 0 0 0-1.21.91 3.8 3.8 0 0 0-.49 1.75 2.9 2.9 0 0 0 1.46 2.84 1.22 1.22 0 0 0 1-.11c.23-.18.27-.32.25-.33z"/><path class="cls-4" d="M1048.83 42.19a8.71 8.71 0 0 0 1-.19 5.92 5.92 0 0 0 2.26-1.31 8.19 8.19 0 0 0 1.18-1.38 11.19 11.19 0 0 0 1-1.86 39.22 39.22 0 0 0 1.36-4.62c.45-1.65.93-3.22 1.46-4.61a27.14 27.14 0 0 1 1.66-3.58 17.78 17.78 0 0 1 1.45-2.23c.19-.26.35-.44.46-.57a1.35 1.35 0 0 1 .17-.19 1.52 1.52 0 0 1-.15.21c-.09.14-.25.33-.42.58a21.87 21.87 0 0 0-1.41 2.25 28.27 28.27 0 0 0-1.61 3.59c-.52 1.39-1 2.94-1.44 4.6a38.53 38.53 0 0 1-1.39 4.63 10.31 10.31 0 0 1-1 1.87 8.08 8.08 0 0 1-1.21 1.4 5.65 5.65 0 0 1-2.33 1.28 3.14 3.14 0 0 1-1.04.13z"/><path class="cls-5" d="M1038.93 62.66a42.29 42.29 0 0 1-1.39-7.21 47.48 47.48 0 0 1-.39-6.61 29.78 29.78 0 0 1 .63-7.25 11.26 11.26 0 0 1 1.15-2.88 15 15 0 0 1 1.76-2.44c1.29-1.5 2.68-2.78 4-4.05l6.81-6.71 4.62-4.5c.53-.52 1-.92 1.26-1.21l.34-.32c.07-.06.11-.1.12-.09l-.1.12-.32.33-1.22 1.25-4.55 4.57-6.77 6.75c-1.27 1.28-2.66 2.57-3.93 4a12.54 12.54 0 0 0-2.84 5.22 30.4 30.4 0 0 0-.63 7.17 56.11 56.11 0 0 0 .36 6.58c.41 4.38 1.16 7.27 1.09 7.28z"/><path class="cls-6" d="M1078.21 73.47s4.24 1.74 4.72 11 1.28 30.37 1.28 30.37 2.72 3.51 3 6.41 5.45 19.83 5.45 19.83l-11.53 3.67-3-5.19-2.49-51.42z"/><path class="cls-8" d="M1088.79 125.73s2.09-2.26 3.67-2.26c1.42 0 2.53.78 2.53 1.82v1.54z"/><path class="cls-4" d="M1079.16 85.11a3.71 3.71 0 0 1 .08.6c0 .45.08 1 .13 1.74.12 1.52.21 3.71.26 6.42.11 5.43-.16 12.93-.73 21.18s-1.06 15.73-1.16 21.14c-.07 2.71-.09 4.9-.07 6.42v1.74a4.81 4.81 0 0 1 0 .61 2.66 2.66 0 0 1-.07-.6c0-.45 0-1-.09-1.75-.08-1.51-.11-3.71-.1-6.42 0-5.43.46-12.92 1-21.17s.89-15.73.87-21.15c0-2.7 0-4.9-.1-6.41v-1.74a2.2 2.2 0 0 1-.02-.61z"/><path class="cls-4" d="M1078.48 123.47a10 10 0 0 1 1.5-4.13 10.77 10.77 0 0 1 2.8-3.45c.12.1-1.18 1.59-2.36 3.68s-1.79 3.93-1.94 3.9z"/><path class="cls-5" d="M1039.07 276.47L1019.91 294l21.69 24c2.16-2.21-4.47-18.76-4.47-18.76l12-11.58z"/><path class="cls-7" d="M1031.46 290.85a1.31 1.31 0 0 0-1.72.33 1.26 1.26 0 0 0 .31 1.72 1.39 1.39 0 0 0 1.83-.36 1.32 1.32 0 0 0-.53-1.75"/><path class="cls-4" d="M1019.91 294l2-1.85 20 23.84s.49 1.49-.38 2z"/><path class="cls-7" d="M1037.61 299.47c-.12.11-.71-.43-1.6-.67s-1.67-.09-1.72-.24.78-.59 1.86-.29 1.59 1.13 1.46 1.2zm1.23 3.46c-.09.13-.75-.2-1.6-.15s-1.48.41-1.58.29.44-.79 1.5-.83 1.84.58 1.68.69zm-1.71 4.15c-.15-.11.19-.74 1.23-1.06s1.66 0 1.61.18-.71.11-1.45.35-1.28.63-1.39.53zm3.11-10.37c-.15 0-.48-.64-1.12-1.26s-1.32-.95-1.27-1.1.91 0 1.65.71.88 1.62.74 1.65zm2.32-3.15c0 .05-.53-.35-1.08-1.2a7.83 7.83 0 0 1-.75-1.61 7.61 7.61 0 0 1-.25-1 1.91 1.91 0 0 1 0-.61.69.69 0 0 1 .57-.62.87.87 0 0 1 .74.27 2.38 2.38 0 0 1 .34.51 5.08 5.08 0 0 1 .42 1 5.77 5.77 0 0 1 .28 1.77 2.71 2.71 0 0 1-.34 1.58c-.09 0 0-.62 0-1.57a6.45 6.45 0 0 0-.37-1.61 5.78 5.78 0 0 0-.41-.88c-.16-.32-.36-.53-.53-.5s-.08 0-.11.15a1.5 1.5 0 0 0 0 .45 7.23 7.23 0 0 0 .21 1 9.45 9.45 0 0 0 .6 1.56 10.85 10.85 0 0 1 .68 1.31z"/><path class="cls-7" d="M1042.26 293.56c-.06 0 .15-.63.87-1.36a5.3 5.3 0 0 1 1.46-1 5.22 5.22 0 0 1 1-.35 1.34 1.34 0 0 1 1.3.21.79.79 0 0 1 .12.81 2.33 2.33 0 0 1-.33.52 3.46 3.46 0 0 1-.81.73 3.7 3.7 0 0 1-1.7.61 2.1 2.1 0 0 1-1.6-.31 13 13 0 0 0 1.54-.07 3.88 3.88 0 0 0 1.47-.64 3.78 3.78 0 0 0 .68-.65c.22-.27.33-.55.22-.62s-.48-.15-.77-.07a5 5 0 0 0-.92.29 6.19 6.19 0 0 0-1.41.85c-.72.58-1.05 1.1-1.12 1.05z"/><path class="cls-5" d="M1034.45 293.37l.24 26 32.32-.14c-.21-3.08-17-9.21-17-9.21l.53-16.65z"/><path class="cls-7" d="M1040.06 308.63a1.34 1.34 0 0 0-.91 1.51 1.26 1.26 0 0 0 1.49.91 1.38 1.38 0 0 0 .95-1.6 1.32 1.32 0 0 0-1.65-.78"/><path class="cls-4" d="M1034.69 319.4v-2.78l31.08 1.05s1.44.63 1.27 1.64zm15.89-9.58c0 .16-.79.24-1.57.75s-1.18 1.17-1.33 1.11.09-1 1-1.57 1.94-.43 1.9-.29zm3.42 1.39c0 .16-.65.43-1.18 1.1s-.69 1.37-.84 1.37-.26-.9.41-1.72 1.61-.9 1.61-.75zm1.92 4.05c-.14 0-.37-.75 0-1.62s1.13-1.21 1.2-1.08-.39.59-.71 1.31-.33 1.37-.49 1.39zm-5.64-9.26c-.06.14-.79-.07-1.68 0s-1.59.35-1.67.22.58-.71 1.64-.77 1.79.44 1.71.55zm-14.21-160.79a46 46 0 0 0-6.75 9.5c-2.22 4.64-5.64 14.54-5.64 14.54s-4.26 15.12-3.31 22.25 7.32 55.86 7.32 55.86-1.25 38.64 4.19 55.83l1 4.56 18.22-3.23 4-95.65 11.12-63.24z"/><path class="cls-5" d="M1059.34 149.29c-.08 0 0-.6-.7-1a1.32 1.32 0 0 0-1.25-.13 1.3 1.3 0 0 0 0 2.42 1.38 1.38 0 0 0 1.25-.17c.63-.48.58-1.1.66-1.07s.07.13 0 .38a1.48 1.48 0 0 1-.51.93 1.65 1.65 0 0 1-1.57.31 1.68 1.68 0 0 1 0-3.18 1.62 1.62 0 0 1 1.57.26 1.49 1.49 0 0 1 .55.91c.07.2.03.34 0 .34z"/><path class="cls-4" d="M1080.49 158.36s6.68 60.63 7.64 71-36.84 66-36.84 66l-16-18.84 24.34-45.23-8.2-45.06 10.79-40.64 16.77.2z"/><path class="cls-5" d="M1029.1 288.59a10.08 10.08 0 0 0 .13 1.33c.11.87.32 2.15.62 3.8.61 3.3 1.59 8.08 2.91 14.06v.13h.12l18.23-3.19h.14v-.14c.51-12.51 1.12-27.45 1.76-43.48.68-17.25 1.3-33.24 1.81-46.35 1.37-10.54 2.5-19.25 3.29-25.35.38-3 .68-5.41.88-7.05.1-.8.17-1.41.22-1.85s.06-.64.06-.64l-.11.63c-.06.44-.15 1.05-.27 1.85-.22 1.64-.56 4-1 7-.82 6.1-2 14.81-3.43 25.34-.53 13.12-1.18 29.11-1.88 46.35-.62 16-1.21 31-1.7 43.48l.15-.16-18.21 3.27.15.1c-1.35-6-2.38-10.74-3-14-.32-1.64-.56-2.92-.69-3.78-.08-.43-.12-.76-.15-1s-.03-.35-.03-.35zm27.59-118.72a5.26 5.26 0 0 1 1 0 4.61 4.61 0 0 0 2.57-.44 2.36 2.36 0 0 0 1-1.38 9.37 9.37 0 0 0 .31-2.09c.13-1.51.26-3.17.38-4.92.23-3.5.36-6.67.44-9 0-1.08.07-2 .1-2.72a.5.5 0 1 1 .16 0v2.72a142.423 142.423 0 0 1-.72 13.93 10 10 0 0 1-.37 2.16 2.68 2.68 0 0 1-1.22 1.53 3.39 3.39 0 0 1-1.55.41 5.93 5.93 0 0 1-1.18-.07 3.79 3.79 0 0 1-.92-.13zm23.06-11.47a6.18 6.18 0 0 1-1.74-.92 17.89 17.89 0 0 1-3.58-3.13 18.28 18.28 0 0 1-2.64-4 6.32 6.32 0 0 1-.69-1.84 32.47 32.47 0 0 0 3.65 5.51 32.36 32.36 0 0 0 5 4.38z"/><path class="cls-10" d="M1033.7 86.69l6.27 55.74 34.74 2.44 2.77-2.26-1.76-37.46-12-33.1-.4-1.33c-1.17 2-3 15.82-5 16-1.29.11-10.74-14.06-14.09-17.78l-.11-1.31z"/><path class="cls-6" d="M1044.12 63.89l-5.52 6.65-18.63 6 11.63 53.58-8.85 20.74a48.37 48.37 0 0 0-2.32 6.71l-5.43 20.32s18.79 4.87 23.63 2.21 10.74-28.53 12.54-34.67 4.47-24.39 3.22-34.12-3.4-24-4.48-29-5.79-18.42-5.79-18.42z"/><path class="cls-6" d="M1020 76.52s-4.88 6.09-6.27 11.93c-2.34 9.88-11.37 36.83-10.84 43.14s35.56 17.77 35.56 17.77l1.43-17.58-16.29-8.17 4.47-16.56"/><path class="cls-6" d="M1028 107.05a1.09 1.09 0 0 1-.06.29c0 .2-.12.48-.2.84-.2.76-.48 1.85-.84 3.26-.76 2.87-1.85 7-3.23 12.2l-.07-.16 16.31 8.14.11.06v.12c-.42 5.33-.9 11.27-1.4 17.57v.27l-.27-.09c-6.86-2.3-14.25-5-21.7-8.27-2.45-1.1-4.85-2.23-7.12-3.5a21.48 21.48 0 0 1-6.17-4.58 4.28 4.28 0 0 1-.5-.82 2 2 0 0 1-.15-.47 1.31 1.31 0 0 1-.07-.47 13.8 13.8 0 0 1 .07-1.83c.11-1.2.33-2.36.53-3.52.48-2.29 1-4.53 1.56-6.69 2.26-8.66 4.66-16.36 6.54-22.86.95-3.25 1.75-6.19 2.42-8.8a28.46 28.46 0 0 1 2.83-6.33 43 43 0 0 1 2.42-3.68c.3-.41.54-.71.7-.91l.26-.3a3.75 3.75 0 0 1-.22.32l-.66.94c-.57.83-1.41 2.06-2.34 3.72a27.93 27.93 0 0 0-2.74 6.31c-.64 2.6-1.43 5.56-2.36 8.81-1.84 6.51-4.2 14.22-6.44 22.87q-.84 3.26-1.54 6.68c-.19 1.15-.42 2.3-.52 3.48a12.94 12.94 0 0 0-.06 1.76 2.66 2.66 0 0 0 .64 1.54 21 21 0 0 0 6 4.45c2.27 1.26 4.66 2.39 7.1 3.48 7.41 3.28 14.8 6 21.64 8.28l-.29.18c.52-6.3 1-12.23 1.46-17.57l.1.18-16.27-8.22h-.1v-.11c1.43-5.18 2.57-9.31 3.35-12.16.4-1.4.71-2.49.92-3.25l.24-.83a1.33 1.33 0 0 1 .12-.33zm35.57-40.17l3.23 3.84 11.41 2.75s3 14.31 3 18.24-1.7 47.42-1.7 49.46 8.24 29.86 7.52 31.56-9.31 2.9-9.31 2.9-3.23-24-3.23-32.24-.36-28.32-2.15-38.21-9.12-33.72-9.12-33.72z"/><path class="cls-4" d="M1074.69 148a1.39 1.39 0 0 1 0-.2v-.6-2.29c0-2 .12-4.91.2-8.45.18-7.13.48-17 .67-27.87v-4c0-1.3-.15-2.61-.25-3.89-.22-2.56-.43-5-.68-7.37s-.53-4.57-.9-6.63a27.75 27.75 0 0 0-1.67-5.56 71 71 0 0 0-3.76-7.64c-.48-.85-.87-1.52-1.15-2l-.3-.53a1.11 1.11 0 0 1-.09-.18l.13.16.34.5c.29.45.71 1.11 1.23 2a63.79 63.79 0 0 1 3.9 7.6 26.88 26.88 0 0 1 1.74 5.62c.39 2.07.69 4.3.95 6.65s.48 4.81.71 7.37c.1 1.28.26 2.58.25 3.92s0 2.68 0 4c-.18 10.89-.54 20.74-.79 27.87-.15 3.53-.27 6.41-.35 8.44-.05 1-.09 1.73-.12 2.3v.59c0 .16-.05.19-.06.19zm-21.22-16.41a2.6 2.6 0 0 1-.11-.64c0-.42-.1-1-.15-1.85-.11-1.6-.21-3.93-.16-6.8 0-1.44.09-3 .2-4.71a20.49 20.49 0 0 0-.67-5.28 86.88 86.88 0 0 0-4.12-11.66c-1.73-4.06-3.51-7.87-5.16-11.33a45.1 45.1 0 0 1-2.21-5 44.18 44.18 0 0 1-1.17-4.58c-.57-2.83-.88-5.14-1.09-6.73-.1-.8-.16-1.42-.2-1.84a2.66 2.66 0 0 1 0-.65 5.91 5.91 0 0 1 .12.63c.07.46.17 1.07.29 1.83.26 1.59.62 3.89 1.23 6.69a42.43 42.43 0 0 0 1.21 4.54 47.12 47.12 0 0 0 2.23 4.92c1.67 3.45 3.48 7.26 5.2 11.33a82.74 82.74 0 0 1 4.11 11.74 20.61 20.61 0 0 1 .64 5.4c-.13 1.68-.21 3.25-.26 4.68-.09 2.87 0 5.19 0 6.8 0 .77.06 1.38.08 1.84s0 .67-.01.67z"/><path class="cls-4" d="M1104.84 130.25l-9.78 12.58a1.81 1.81 0 0 1-1.76.66l-42.3-7.61a1.68 1.68 0 0 1-1.36-2.19l4.56-13.38a1.8 1.8 0 0 1 2-1.15l47.51 8.41a1.68 1.68 0 0 1 1.13 2.68zm-91.14-5.54a4 4 0 0 1 1.42-1.1 9.11 9.11 0 0 1 8.55-.11 4.15 4.15 0 0 1 1.45 1.06c0 .06-.6-.35-1.6-.78a10 10 0 0 0-4.13-.85 10.12 10.12 0 0 0-4.11.95c-.99.47-1.53.88-1.58.83z"/><path class="" d="M1023.71 148.58L1040.42 154.44 1042.16 147.83 1050.08 149.35 1051.37 144.74 1039.13 142.54 1038.6 149.35 1025.62 144.69 1023.71 148.58z"/><path class="cls-8" d="M1040.07 132.62s3.83-2.35 4.79-2.91 4.22-2.61 5.7-2.4l1.47.21-1.33 3.74s11.9-1.69 13.53.14-1.77 2.18-3.55 2.39-7.47 1.13-7.47 1.13 14.86-1.55 15.9 0-1.44 1.9-1.44 1.9l-9.85 3.73-1.13.42-1.13 1.41s-4 2.68-5.3 2.32-11.13-2.16-11.13-2.16z"/><path class="cls-9" d="M1051.14 139.17a11.59 11.59 0 0 1 2.3-.67c1.45-.34 3.46-.74 5.71-1a57.34 57.34 0 0 1 5.8-.49 11.26 11.26 0 0 1 2.4 0 16.93 16.93 0 0 1-2.39.24c-1.47.12-3.51.31-5.75.61s-4.25.65-5.7.92a16.77 16.77 0 0 1-2.37.39zm1.35 2.72a12.94 12.94 0 0 1 4.36-1.08 12.34 12.34 0 0 1-4.36 1.08z"/><path class="cls-4" d="M1080.93 85.74a3.1 3.1 0 0 1 .07.56c0 .41.07.94.13 1.61.11 1.39.18 3.42.24 5.93.09 5-.15 11.94-.68 19.57s-1 14.53-1.08 19.53c-.06 2.5-.08 4.53-.06 5.93v1.61a2 2 0 0 1 0 .56 2.05 2.05 0 0 1-.06-.56c0-.41 0-.94-.08-1.61-.08-1.4-.11-3.43-.09-5.93 0-5 .42-11.94.94-19.56s.83-14.53.81-19.54c0-2.5 0-4.53-.09-5.93V86.3a1.85 1.85 0 0 1-.05-.56zm-51.62 19.56a5.3 5.3 0 0 1-.08-1.12c0-.72 0-1.76-.15-3.05a51.11 51.11 0 0 0-1.73-9.9 51.71 51.71 0 0 0-3.69-9.4c-.59-1.16-1.09-2.09-1.46-2.72a5.41 5.41 0 0 1-.52-1 5.94 5.94 0 0 1 .67.92 30.43 30.43 0 0 1 1.6 2.66 45.31 45.31 0 0 1 3.85 9.43 44.64 44.64 0 0 1 1.61 10v3.06a5 5 0 0 1-.1 1.12z"/><path class="cls-8" d="M1101.76 134.24s1.49 2 1 3.58-4.3 4.5-4.3 4.5-1.46 1.68-2.15 1.68-3.82.57-3.6-1.3 3-2.21 3-2.21.07-.67 1.26-1.53 2.5-1.84 2.5-1.84z"/><path class="cls-9" d="M1099.06 141.8s-.14.29-.56.53a2.23 2.23 0 0 1-1.89.17 1.82 1.82 0 0 1-.87-.68 1.53 1.53 0 0 1-.25-.87c0-.53.28-.76.32-.72s0 .3 0 .7a1.43 1.43 0 0 0 1 1.12 2.35 2.35 0 0 0 1.58 0c.38-.17.61-.3.67-.25z"/><circle class="cls-5" cx="1043.37" cy="53.08" r="2.61"/><path class="cls-6" d="M281.07 298.88L274.67 323.85 261.13 320.66 267.5 295.63 281.07 298.88z"/><path class="cls-4" d="M268.23 321.33c-.12 0 1.26-5.5 3.08-12.22s3.37-12.11 3.48-12.11-1.26 5.5-3.08 12.22-3.37 12.14-3.48 12.11z"/><path class="cls-3" d="M275.12 322.13L261.58 318.9 261.13 320.66 274.67 323.85 275.12 322.13z"/><path class="cls-4" d="M263.17 312.66s.15-.19.48-.45a9.13 9.13 0 0 1 1.54-1 9.36 9.36 0 0 1 2.55-.89 7.26 7.26 0 0 1 3.33.09 7.37 7.37 0 0 1 4.65 3.65 6.21 6.21 0 0 1 .6 1.72 1.84 1.84 0 0 1 .06.66 14.24 14.24 0 0 0-.92-2.24 7.47 7.47 0 0 0-4.5-3.39 8.54 8.54 0 0 0-5.64.67c-1.32.65-2.11 1.25-2.15 1.18z"/><path class="" d="M265.69 302.76L264.99 305.51 278.57 308.64 279.1 306.57 265.69 302.76z"/><path class="cls-6" d="M321 298.63l-.7 16.11s16.14 6.12 16.3 9.11l-31.29-.23.06-25.15z"/><path class="cls-3" d="M310.83 313.37a1.28 1.28 0 0 0-.9 1.46 1.24 1.24 0 0 0 1.44.91 1.37 1.37 0 0 0 .95-1.56 1.29 1.29 0 0 0-1.61-.77m-5.41 10.2v-2.51l30.27 1.14s1.4.62 1.23 1.61z"/><path class="cls-4" d="M321.08 314.65c0 .15-.78.22-1.54.71s-1.17 1.13-1.31 1.07.09-.95 1-1.53 1.88-.39 1.85-.25zm3.29 1.35c0 .15-.63.41-1.16 1s-.68 1.34-.84 1.33-.24-.88.43-1.67 1.57-.77 1.57-.66zm1.85 4c-.14 0-.35-.74 0-1.58s1.13-1.17 1.19-1-.39.58-.7 1.27-.34 1.31-.49 1.31zm-5.39-9.07c-.07.14-.77-.07-1.64 0s-1.55.32-1.63.19.57-.68 1.6-.73 1.74.42 1.67.54zm.08-3.27a3.07 3.07 0 0 1-1.58 0 7.34 7.34 0 0 1-1.65-.52 8 8 0 0 1-.9-.49 1.69 1.69 0 0 1-.47-.37.67.67 0 0 1-.07-.82.84.84 0 0 1 .68-.35 2 2 0 0 1 .59.09 4.92 4.92 0 0 1 1 .34 5.71 5.71 0 0 1 1.45 1c.72.68 1 1.26.91 1.29s-.42-.44-1.16-1a6.71 6.71 0 0 0-1.4-.81 5.92 5.92 0 0 0-.9-.28c-.34-.09-.62-.1-.71.05s0 .08 0 .18a1.44 1.44 0 0 0 .34.27 6 6 0 0 0 .84.48 8.35 8.35 0 0 0 1.52.6 10 10 0 0 1 1.51.34z"/><path class="cls-4" d="M320.71 307.88a2.47 2.47 0 0 1-.41-1.53 5.07 5.07 0 0 1 .64-2.68 1.28 1.28 0 0 1 1-.79.76.76 0 0 1 .66.44 2.07 2.07 0 0 1 .15.58 3.49 3.49 0 0 1 0 1.07 3.72 3.72 0 0 1-.69 1.62c-.62.81-1.26 1-1.28.94s.49-.37 1-1.15a3.8 3.8 0 0 0 .51-1.48 3.49 3.49 0 0 0 0-.91c-.05-.34-.17-.61-.3-.57s-.43.24-.56.51a5.35 5.35 0 0 0-.39.85 5.55 5.55 0 0 0-.32 1.57c-.09.93.07 1.5-.01 1.53z"/><path class="" d="M305.3 308.13L305.33 311.7 320.42 311.7 320.42 309.74 305.3 308.13z"/><path class="cls-12" d="M242.37 69.86l1.72 7.07 10.2-1.35-.22-8.49c.16-.53.35-1.12.58-1.78a7.48 7.48 0 0 1 1.2-2.11 11.1 11.1 0 0 1 2.15-2.15c.78-.49.59-1.67-.23-1.73s-3 1.24-4.7 3.72-2-2.15-2.2-3.84-.92-6.88-1.48-7.22c-.82-.51-1.53.29-1.33 2s.47 6.77-.43 6.84a3.6 3.6 0 0 0-4.21-.1c-1.23.84-2.8 2.13-2.65 3.17a47.14 47.14 0 0 0 1.6 5.97zm72-35.39l.12 38.68-16.6.79-.48-9.41s-5.9 1.17-7.42-4.3c-1-3.5-.73-30.52-.73-30.52z"/><path class="cls-4" d="M286 36c-.46 3.67 4.68 5.8 4.68 5.8l.89 8.7a16.72 16.72 0 0 1 2.42 0c-.43-4.08 4.82-3.28 5.35-.5s-2.53 4.46-2.53 4.46c2.1 3.23 3 4.93 5.94 8 3.23 3.27 5 3.53 8.3 3.43l3.68-.17s1.27-3.18 2.27-10.6c.46-3.56 3.25-8.24 2.45-14-2.25-16.48-18-14.74-18-14.74-8.24.2-14.38 1.11-15.45 9.62z"/><path class="cls-5" d="M315.31 35.76s0 .11-.13.29a5.35 5.35 0 0 1-.48.79 10.92 10.92 0 0 1-2.32 2.47 12 12 0 0 1-10.65 2.21 55.29 55.29 0 0 1-5.81-2 22.42 22.42 0 0 0-4.78-1.28 11.37 11.37 0 0 0-4.52.29s.09-.06.29-.14a5.43 5.43 0 0 1 .88-.28 10.45 10.45 0 0 1 3.39-.17 21.84 21.84 0 0 1 4.87 1.21 61 61 0 0 0 5.78 2 12.13 12.13 0 0 0 5.95.07 12.46 12.46 0 0 0 4.42-2.1 14.9 14.9 0 0 0 3.11-3.36z"/><path class="cls-5" d="M290.76 42.54s.09 0 .28-.07a7.77 7.77 0 0 1 .84-.1 14 14 0 0 1 3.1.19c1.3.19 2.81.57 4.49.93A18.21 18.21 0 0 0 305 44a16 16 0 0 0 9.09-3.89 24.51 24.51 0 0 0 2.8-3.12 5.6 5.6 0 0 1-.57 1 14.35 14.35 0 0 1-2 2.35 15.7 15.7 0 0 1-9.32 4.07 18.1 18.1 0 0 1-5.62-.54c-1.69-.38-3.18-.79-4.46-1a16.71 16.71 0 0 0-3-.31 10.87 10.87 0 0 1-1.16-.02z"/><path class="cls-4" d="M331.3 159.65s1.84 43.43 0 83.54a651.63 651.63 0 0 1-6.93 67.18l-20.94-2s.93-58.59.85-78.41c-.09-20.57 0-38.72 0-38.72s-8.08-8.15-8.82-18.16 0-11.85 0-11.85z"/><path class="cls-4" d="M284.46 160.34c0 1.56-3.54 14.53-1.84 24.34S263.39 302.1 263.39 302.1l20 5.68s10.53-36 17-68.06c5.64-27.84 7.39-52.3 7.13-52.21-.57.19-1.87-26.75-1.87-26.75z"/><path class="cls-5" d="M295.46 161.2a3.44 3.44 0 0 1-.1.59c-.07.38-.17.94-.27 1.68a47.39 47.39 0 0 0-.41 6.36c0 1.36 0 2.86.19 4.48a14.71 14.71 0 0 0 1.3 5 33.53 33.53 0 0 0 2.74 5.16 23.34 23.34 0 0 0 1.87 2.51 9 9 0 0 0 2.41 2.1l.11.06v.11c.08 3.91.17 8.14.26 12.52.22 11.95.42 22.76.56 30.62.05 3.89.09 7.05.12 9.27V244.84a2.07 2.07 0 0 1 0 .23.72.72 0 0 1 0-.23v-.65c0-.61-.06-1.46-.09-2.53-.07-2.22-.15-5.38-.26-9.27-.17-7.86-.41-18.67-.68-30.61-.08-4.38-.16-8.61-.24-12.52l.11.18a9.27 9.27 0 0 1-2.52-2.2 21.33 21.33 0 0 1-1.89-2.56 32.62 32.62 0 0 1-2.75-5.24 15 15 0 0 1-1.28-5.1c-.13-1.63-.16-3.14-.14-4.51a44 44 0 0 1 .53-6.38c.12-.74.24-1.3.34-1.68a5.51 5.51 0 0 1 .09-.57z"/><path class="cls-13" d="M315.92 72.68a26.73 26.73 0 0 1-10.4 2.8 31.78 31.78 0 0 1-10.6-1.93l2.5-1.34c2.42.76 8.39 2.28 16.68-.4.46-.14 1.82.87 1.82.87z"/><path class="cls-6" d="M281.48 80.79l-21.64 12.93-5.34-23.83-12.32 4.54 4.92 27.36A14.74 14.74 0 0 0 261.33 114h.16a17.24 17.24 0 0 0 9.42-2.81l11.14-7.19z"/><path class="cls-6" d="M313.76 71.81S334.29 82.68 335 87.62s1.69 75.23 1.69 75.23l-52.2-2v-32.93s-3.17-17.55-3.88-23.23a87.59 87.59 0 0 1 .56-23.9l15.94-8.58a25.92 25.92 0 0 0 16.65-.4z"/><path class="cls-14" d="M369.93 172.78L368.77 143.08 324.26 152.76 330.65 183.94 369.93 172.78z"/><path class="cls-5" d="M370.24 145.19L371.78 175.01 330.85 185.13 325.65 154.04 370.24 145.19z"/><path class="cls-4" d="M320.92 99.3a2.59 2.59 0 0 1 .06.44c0 .34.06.77.11 1.28.07 1.11.19 2.71.36 4.69.34 4 .95 9.42 1.93 15.39s2.19 11.34 3.15 15.2c.48 1.93.88 3.48 1.16 4.56.13.5.24.91.32 1.24a1.33 1.33 0 0 1 .08.44 2.08 2.08 0 0 1-.16-.42c-.11-.32-.24-.72-.39-1.22-.34-1.06-.78-2.61-1.3-4.53-1-3.84-2.27-9.2-3.27-15.2s-1.55-11.47-1.81-15.44c-.14-2-.21-3.59-.24-4.7v-1.28a1.59 1.59 0 0 1 0-.45zm-29.78 33.06a8.54 8.54 0 0 1 .6 1.11c.18.36.41.8.7 1.29s.6 1.07 1 1.66.82 1.26 1.35 1.93 1.09 1.36 1.7 2.09a33.25 33.25 0 0 0 9.71 7.54c.85.42 1.66.83 2.45 1.13a22.87 22.87 0 0 0 2.2.83c.67.26 1.31.4 1.86.57s1 .27 1.42.36a7 7 0 0 1 1.22.31 7.45 7.45 0 0 1-1.25-.15 13 13 0 0 1-1.45-.3c-.56-.14-1.21-.27-1.89-.5s-1.45-.46-2.24-.79-1.63-.7-2.5-1.11a32.09 32.09 0 0 1-9.82-7.63c-.61-.75-1.21-1.44-1.69-2.15a22.59 22.59 0 0 1-1.32-2c-.4-.61-.69-1.2-1-1.71a12.77 12.77 0 0 1-.64-1.33 5.87 5.87 0 0 1-.41-1.15zm-31.57-33.05c-.12 0 .19-1.31.25-2.9s-.12-2.87 0-2.9a8 8 0 0 1-.25 5.8z"/><path class="cls-12" d="M343.05 176l-1.75-7 9.66-3.52 3.74 7.63c.38.4.82.83 1.34 1.3a7.31 7.31 0 0 0 2 1.32 11.13 11.13 0 0 0 2.88.93c.92.07 1.3 1.21.59 1.64s-3.25.3-5.88-1.13-.78 2.84-.18 4.43c.15.38.34 1.34-.26 1.61-.91.4-1.49-.32-2.08-1.14a.93.93 0 0 0-1.26-.38 3.63 3.63 0 0 1-3.69 2c-1.48-.18-3.46-.59-3.82-1.58a48.54 48.54 0 0 1-1.29-6.11z"/><path class="cls-6" d="M330.24 83.4a5.92 5.92 0 0 1 5 3.82 43.4 43.4 0 0 1 2.76 9.65c.83 6 2.49 28.48 2.49 28.48s13.35 44.59 13.25 44.86c0 0-4.07 4.32-11.48 3.08 0 0-11.95-24-14.24-29.86s-5.2-19.48-5.4-27.3c-.16-6-1.75-15.21-1.75-20.65 0-2.53 1.89-6.72 3.48-8.69 1.31-1.68 3.16-3.55 5.89-3.39z"/><path class="cls-4" d="M320.92 99.3a2.59 2.59 0 0 1 .06.44c0 .34.06.77.11 1.28.07 1.11.19 2.71.36 4.69.34 4 .95 9.42 1.93 15.39s2.19 11.34 3.15 15.2c.48 1.93.88 3.48 1.16 4.56.13.5.24.91.32 1.24a1.33 1.33 0 0 1 .08.44 2.08 2.08 0 0 1-.16-.42c-.11-.32-.24-.72-.39-1.22-.34-1.06-.78-2.61-1.3-4.53-1-3.84-2.27-9.2-3.27-15.2s-1.55-11.47-1.81-15.44c-.14-2-.21-3.59-.24-4.7v-1.28a1.59 1.59 0 0 1 0-.45z"/><path d="M280.24 89s-5.39 13.3-4 18.79l4.37-2.86s-1.36-10.63-.37-15.93z" class=""/><path class="cls-4" d="M1334.2 311.52l-99.25-.06a21.61 21.61 0 0 1-21.6-21.62L1213.4 41a21.62 21.62 0 0 1 21.6-21.59l99.24.06a21.62 21.62 0 0 1 21.61 21.62l-.05 248.81a21.61 21.61 0 0 1-21.61 21.62z"/><path class="cls-7" d="M1334.17 28.27h-19.24a4.79 4.79 0 0 0-4.68 4.88v3.49a4.79 4.79 0 0 1-4.67 4.89h-37.51a4.79 4.79 0 0 1-4.67-4.89v-3.5a4.78 4.78 0 0 0-4.67-4.88h-23.61a15.15 15.15 0 0 0-15.12 15.1v242.86a15.13 15.13 0 0 0 15.12 15.14l99 .06a15.14 15.14 0 0 0 15.14-15.14V43.42a15.15 15.15 0 0 0-15.13-15.16z"/><path class="cls-4" d="M1337.09 52.8c0 .06-2.49.14-5.58.16s-5.59 0-5.59-.07 2.5-.14 5.59-.17 5.58.01 5.58.08zm.03 2.86c0 .06-2.5.13-5.59.16s-5.59 0-5.59-.07 2.5-.14 5.59-.17 5.59.01 5.59.08zm-101.7 6.12h.88l2.39-.06-.07.07v-1.73-1a.91.91 0 0 1 .8-.73h1.14a.93.93 0 0 1 .79.92v2.52l-.11-.1h3l-.11.11V57a1 1 0 0 0-.42-.71l-1.32-1.3-1.27-1.25-.61-.61c-.22-.2-.38-.41-.63-.46a.84.84 0 0 0-.69.13c-.18.15-.38.38-.56.55l-1.08 1.09c-.68.71-1.39 1.35-1.9 2a2.1 2.1 0 0 0-.15 1.14v3.87a2.41 2.41 0 0 1 0 .38v-.36-1.08-1.72V57a1.29 1.29 0 0 1 .17-.63c.55-.68 1.22-1.28 1.9-2l1.07-1.1a7.86 7.86 0 0 1 .58-.57 1 1 0 0 1 .87-.18 1.58 1.58 0 0 1 .72.52l.62.6 1.28 1.25 1.31 1.3a2.05 2.05 0 0 1 .34.38 1 1 0 0 1 .16.5v4.86H1241.3v-2.68a.73.73 0 0 0-.61-.73h-1.09a.74.74 0 0 0-.65.58v2.8h-3.13a.63.63 0 0 1-.4-.12z"/><rect class="cls-15" x="1230.93" y="76.9" width="105.58" height="19.21" rx="8.1"/><path class="cls-4" d="M1328.41 96.1h.61a8.64 8.64 0 0 0 1.74-.34 8.12 8.12 0 0 0 2.54-1.33 7.89 7.89 0 0 0 3-5.28 18.63 18.63 0 0 0 .07-2.59 16.48 16.48 0 0 0-.12-2.81 8 8 0 0 0-6.37-6.52 22.11 22.11 0 0 0-3.67-.14h-3.91l-83.3.01a7.93 7.93 0 0 0-7.87 7.25c-.07 1 0 2 0 2.94a9.2 9.2 0 0 0 .3 2.86 8 8 0 0 0 3.27 4.47 7.54 7.54 0 0 0 2.56 1.09 11.81 11.81 0 0 0 2.78.21H1293.91l25.25.06h9.26-9.26l-25.25.06H1240a11.92 11.92 0 0 1-2.86-.21 8.21 8.21 0 0 1-2.69-1.14 8.43 8.43 0 0 1-3.42-4.69 9.88 9.88 0 0 1-.31-3v-3a8.3 8.3 0 0 1 8.27-7.6l83.31.06h3.9a20.86 20.86 0 0 1 3.72.16 8.2 8.2 0 0 1 6.53 6.72 18.12 18.12 0 0 1 .11 2.85 22.69 22.69 0 0 1-.09 2.61 7.88 7.88 0 0 1-.67 2.28 8 8 0 0 1-2.47 3.09 7.88 7.88 0 0 1-4.36 1.62z"/><path class="cls-4" d="M1330 86s0-.31-.18-.83a3.53 3.53 0 0 0-1.28-1.82 3.31 3.31 0 1 0 0 5.31 3.47 3.47 0 0 0 1.28-1.82c.15-.52.14-.83.18-.83s0 .08 0 .22a2.81 2.81 0 0 1-.06.65 3.48 3.48 0 0 1-1.26 2 3.62 3.62 0 0 1-5.64-4.09 3.67 3.67 0 0 1 2.22-2.22 3.63 3.63 0 0 1 3.42.56 3.5 3.5 0 0 1 1.26 2 2.78 2.78 0 0 1 .06.64c.06.23.06.23 0 .23z"/><path class="cls-16" d="M1245.18 84.58h-1.9v-.49h4.34v.49h-1.9v4.87h-.57zm6.33 3.02h-3.37a1.5 1.5 0 0 0 1.57 1.41 1.58 1.58 0 0 0 1.24-.52l.3.35a2.13 2.13 0 0 1-3.67-1.39 2 2 0 0 1 3.92 0s.01.09.01.15zm-3.37-.4h2.86a1.43 1.43 0 0 0-2.85 0zm6.93 2.25l-1.26-1.69-1.28 1.69h-.62l1.6-2.07-1.52-2h.61l1.21 1.58 1.21-1.58h.6l-1.52 2 1.61 2.07zm3.65-.23a1.31 1.31 0 0 1-.85.29 1.08 1.08 0 0 1-1.18-1 .81.81 0 0 1 0-.22V85.9h-.69v-.48h.72v-.88h.54v.88h1.23v.46h-1.23v2.41a.65.65 0 0 0 .55.73h.15a.93.93 0 0 0 .6-.21z"/><path class="cls-6" d="M1235.38 111.91H1258.49V135.01999999999998H1235.38z"/><path class="cls-6" d="M1303 114.39c0 .11-7.73.2-17.26.2s-17.26-.09-17.26-.2 7.73-.2 17.26-.2 17.26.1 17.26.2z"/><path class="cls-4" d="M1330.47 121.48c0 .11-13.89.19-31 .19s-31-.08-31-.19 13.89-.2 31-.2 31 .09 31 .2zm-.73 5.06c0 .11-13.72.19-30.65.19s-30.66-.08-30.66-.19 13.72-.2 30.66-.2 30.65.08 30.65.2zm-25.11 4.82c0 .11-8.11.2-18.1.2s-18.1-.09-18.1-.2 8.1-.19 18.1-.19 18.1.08 18.1.19z"/><path class="cls-6" d="M1235.38 150.41H1258.49V173.51999999999998H1235.38z"/><path class="cls-6" d="M1303 152.89c0 .11-7.73.2-17.26.2s-17.26-.09-17.26-.2 7.73-.19 17.26-.19 17.26.08 17.26.19z"/><path class="cls-4" d="M1330.47 160c0 .1-13.89.2-31 .2s-31-.1-31-.2 13.89-.2 31-.2 31 .08 31 .2zm-.73 5c0 .1-13.72.2-30.65.2s-30.66-.1-30.66-.2 13.72-.2 30.66-.2 30.65.13 30.65.2zm-25.11 4.86c0 .11-8.11.2-18.1.2s-18.1-.09-18.1-.2 8.1-.19 18.1-.19 18.1.08 18.1.19z"/><path class="cls-6" d="M1235.38 188.91H1258.49V212.01999999999998H1235.38z"/><path class="cls-6" d="M1303 191.4c0 .11-7.73.2-17.26.2s-17.26-.09-17.26-.2 7.73-.19 17.26-.19 17.26.08 17.26.19z"/><path class="cls-4" d="M1330.47 198.48c0 .11-13.89.2-31 .2s-31-.09-31-.2 13.89-.2 31-.2 31 .09 31 .2zm-.73 5.08c0 .11-13.72.19-30.65.19s-30.66-.08-30.66-.19 13.72-.2 30.66-.2 30.65.07 30.65.2zm-25.11 4.81c0 .11-8.11.19-18.1.19s-18.1-.08-18.1-.19 8.1-.2 18.1-.2 18.1.09 18.1.2z"/><path class="cls-6" d="M1235.38 227.41H1258.49V250.51999999999998H1235.38z"/><path class="cls-6" d="M1303 229.9c0 .11-7.73.19-17.26.19s-17.26-.08-17.26-.19 7.73-.2 17.26-.2 17.26.09 17.26.2z"/><path class="cls-4" d="M1330.47 237c0 .1-13.89.19-31 .19s-31-.09-31-.19 13.89-.2 31-.2 31 .07 31 .2zm-.73 5c0 .11-13.72.2-30.65.2s-30.66-.09-30.66-.2 13.72-.19 30.66-.19 30.65.12 30.65.19zm-25.11 4.86c0 .11-8.11.2-18.1.2s-18.1-.09-18.1-.2 8.1-.19 18.1-.19 18.1.09 18.1.19z"/><path class="cls-16" d="M1235.38 265.91H1258.49V289.02000000000004H1235.38z"/><path class="cls-6" d="M1303 268.4c0 .11-7.73.2-17.26.2s-17.26-.09-17.26-.2 7.73-.19 17.26-.19 17.26.08 17.26.19z"/><path class="cls-17" d="M1330.47 275.48c0 .11-13.89.2-31 .2s-31-.09-31-.2 13.89-.19 31-.19 31 .09 31 .19zm-.73 5.06c0 .11-13.72.2-30.65.2s-30.66-.09-30.66-.2 13.72-.19 30.66-.19 30.65.09 30.65.19zm-25.11 4.83c0 .11-8.11.2-18.1.2s-18.1-.09-18.1-.2 8.1-.2 18.1-.2 18.1.09 18.1.2z"/><path class="cls-7" transform="rotate(-17.59 1146.084 72.06)" d="M1110.56 57.74H1181.12V86.4H1110.56z"/><path class="cls-5" d="M1183.8 75.07l-.16-.49-.45-1.42c-.39-1.24-1-3.08-1.74-5.43-1.49-4.72-3.68-11.53-6.37-20h.09l-67.24 21.35.07-.08 8.66 27.31-.13-.07L1164.77 81l14-4.41 3.75-1.17 1-.31.33-.1-.32.1-1 .3-3.72 1.18-14 4.46-48.28 15.36h-.1v-.1l-8.66-27.32v-.11h.11l67.27-21.3h.07v.13c2.69 8.46 4.82 15.3 6.31 20 .75 2.34 1.33 4.18 1.7 5.43l.45 1.4a1.83 1.83 0 0 1 .12.53z"/><path class="cls-5" d="M1109.11 72.74c0-.06 15-4.88 33.53-10.75s33.6-10.6 33.62-10.54-15 4.87-33.55 10.75-33.59 10.6-33.6 10.54z"/><circle class="cls-5" cx="1110.91" cy="70.35" r=".51"/><circle class="cls-5" cx="1112.59" cy="69.82" r=".51"/><path class="cls-5" d="M1114.73 69.14a.53.53 0 0 1-.34.65.52.52 0 0 1-.64-.34.5.5 0 0 1 .33-.64.52.52 0 0 1 .65.33z"/><path class="cls-5" transform="matrix(.95 -.3 .3 .95 28.25 344.4)" d="M1118.34 72.41H1135.3799999999999V89.44999999999999H1118.34z"/><path class="cls-5" d="M1174.44 61.7c0 .06-8.33 2.76-18.64 6s-18.69 5.87-18.71 5.81 8.33-2.76 18.64-6 18.69-5.87 18.71-5.81zm1.05 3.3c0 .06-8.33 2.76-18.64 6s-18.69 5.87-18.71 5.81 8.33-2.76 18.64-6 18.69-5.81 18.71-5.81zm-12.26 7.54a1.33 1.33 0 0 1-.24.1l-.69.24-2.56.85-8.48 2.72-8.51 2.67-2.59.78-.7.2a1.22 1.22 0 0 1-.26.06 1.22 1.22 0 0 1 .24-.1l.7-.24 2.56-.85 8.49-2.73 8.5-2.66 2.59-.78.7-.2a1.14 1.14 0 0 1 .25-.06z"/><path class="cls-7" transform="rotate(-82.5 415.274 64.493)" d="M376.6 8.23H452.48V120.55H376.6z"/><path class="cls-5" d="M465.37 109.23l.18-1.36.51-4c.45-3.49 1.11-8.6 1.91-15.12 1.7-13.07 4.08-31.87 7-54.77l.14.18L363.7 19.8l.23-.17-9.75 75.25-.16-.2 80.25 10.48 22.92 3 6.09.79 1.58.2.54.07-.52-.06-1.55-.2-6.06-.79-22.93-2.88L354 95h-.2v-.18l9.74-75.25v-.21h.21l111.43 14.46h.16v.16c-3 23-5.48 41.78-7.19 54.87-.85 6.53-1.51 11.63-2 15.11-.22 1.72-.39 3-.51 3.94s-.27 1.33-.27 1.33z"/><path class="cls-5" d="M362.85 26.27c0-.12 24.95 3 55.68 7s55.64 7.3 55.62 7.41-24.93-3-55.67-7-55.64-7.31-55.63-7.41zm4.84-2.83a.9.9 0 1 1-.78-1 .9.9 0 0 1 .78 1z"/><ellipse class="cls-5" cx="369.86" cy="23.72" rx=".91" ry=".9" transform="rotate(-82.62 369.861 23.72)"/><ellipse class="cls-5" cx="372.87" cy="24.11" rx=".91" ry=".9" transform="rotate(-82.62 372.876 24.11)"/><path class="cls-5" transform="rotate(-82.62 384.336 52.272)" d="M369.22 37.29H399.45000000000005V67.25H369.22z"/><path class="cls-5" d="M456.86 55c0 .11-11.62-1.3-25.91-3.15s-25.88-3.44-25.86-3.56 11.61 1.3 25.91 3.15 25.87 3.48 25.86 3.56zm-.73 5.61c0 .11-11.61-1.3-25.9-3.15S404.35 54 404.37 53.9s11.61 1.3 25.91 3.15 25.87 3.44 25.85 3.56zm-.72 5.57c0 .11-11.61-1.3-25.9-3.15s-25.88-3.44-25.86-3.56 11.61 1.3 25.91 3.15 25.87 3.45 25.85 3.56zM433.52 69a6.16 6.16 0 0 1-1.21-.08l-3.31-.35c-2.77-.32-6.6-.8-10.82-1.34s-8.05-1-10.81-1.46l-3.27-.49a5.84 5.84 0 0 1-1.19-.24 9.83 9.83 0 0 1 1.21.08l3.28.37c2.78.32 6.61.79 10.83 1.33s8.05 1.05 10.81 1.47l3.27.49a7 7 0 0 1 1.21.22z"/><path class="cls-5" transform="rotate(-82.62 374.155 83.638)" d="M367.04 76.6H381.25V90.67999999999999H367.04z"/><path class="cls-5" transform="rotate(-82.62 399.478 86.915)" d="M392.37 79.88H406.58V93.96H392.37z"/><path class="cls-5" transform="rotate(-82.5 425.549 90.34)" d="M417.7 83.16H431.90999999999997V97.24H417.7z"/><path class="cls-5" transform="rotate(-82.62 450.13 93.476)" d="M443.02 86.44H457.22999999999996V100.52H443.02z"/><path class="cls-5" d="M955.66 105.19L846 55.69l20.25-44.83 109.65 49.5zM846.83 55.4l108.53 49 19.75-43.75-108.53-49z"/><path class="cls-7" d="M924.68 90.79l22.67 10.29 6.08 2.74 1.56.71.55.25-.55-.25-1.55-.7-6-2.73-22.71-10.17-78.35-35.29-.17-.08.08-.16 20-44.31.08-.17.18.08L975.6 60.3l.12.06-.05.12c-6.2 13.72-11.25 24.78-14.73 32.44-1.72 3.81-3.06 6.78-4 8.78l-1 2.27a7.43 7.43 0 0 1-.43.83"/><path class="cls-5" d="M866.36 11.43l.25-.1m-2.77 5.94c0-.09 24.46 10.84 54.53 24.42s54.42 24.67 54.38 24.76S948.29 55.62 918.22 42s-54.42-24.63-54.38-24.73z"/><circle class="cls-5" cx="868.82" cy="16.31" r=".87" transform="rotate(-65.7 868.816 16.31)"/><path class="cls-5" d="M872.32 17.89a.86.86 0 1 1-.43-1.15.86.86 0 0 1 .43 1.15zM875 19.1a.87.87 0 1 1-.43-1.15.86.86 0 0 1 .43 1.15z"/><rect class="cls-5" x="862.52" y="33.28" width="28.91" height="28.91" rx="5.73" transform="rotate(-65.7 876.967 47.731)"/><path class="cls-5" d="M958.83 77.33c-.05.1-13.64-6-30.36-13.5S898.24 50.09 898.28 50s13.63 6 30.36 13.5 30.23 13.74 30.19 13.83zm-2.43 5.37c0 .1-13.64-6-30.36-13.5s-30.25-13.75-30.2-13.84 13.63 5.94 30.36 13.49 30.25 13.75 30.2 13.85zm-23.99-4.4a2 2 0 0 1-.41-.14l-1.15-.48-4.2-1.83-13.81-6.17-13.76-6.28-4.16-1.94-1.11-.55a1.58 1.58 0 0 1-.36-.2 2.83 2.83 0 0 1 .41.14l1.13.52 4.21 1.82 13.8 6.18 13.76 6.27 4.15 2 1.13.51a3.07 3.07 0 0 1 .37.15z"/><path class="cls-6" d="M859.93 101.93a10.49 10.49 0 0 0-.82-6.26 10.09 10.09 0 0 0-4-4.69 8.14 8.14 0 0 0-9.82 1.23 8.13 8.13 0 0 0-7.18-6.38 10 10 0 0 0-6 1.47 10.55 10.55 0 0 0-4.32 4.6 12.79 12.79 0 0 0-.9 8 18 18 0 0 0 4.14 7.47c3.12 3.58 7.28 8.15 7.28 8.15s5.35-1.84 10-2.92a18.24 18.24 0 0 0 7.72-3.64 12.81 12.81 0 0 0 3.9-7.03zm271.34 77.78a10.31 10.31 0 0 0-.8-6.16 9.93 9.93 0 0 0-4-4.63 8 8 0 0 0-9.67 1.22 8 8 0 0 0-7.07-6.29 10 10 0 0 0-5.91 1.45 10.33 10.33 0 0 0-4.25 4.53 12.57 12.57 0 0 0-.89 7.85 17.88 17.88 0 0 0 4.08 7.35c3.07 3.53 7.17 8 7.17 8s5.27-1.81 9.82-2.88a17.77 17.77 0 0 0 7.61-3.58 12.66 12.66 0 0 0 3.91-6.86zm53.44-43.8a3.12 3.12 0 0 0-1.14-1.47 3 3 0 0 0-1.73-.59 2.44 2.44 0 0 0-1.75.77 2.5 2.5 0 0 0-.55 1 2.36 2.36 0 0 0-.87-.59 2.39 2.39 0 0 0-1.91.05 3 3 0 0 0-1.3 1.27 3 3 0 0 0-.41 1.81 3.75 3.75 0 0 0 1 2.16 5.49 5.49 0 0 0 2.17 1.28c1.33.44 3.07 1 3.07 1s1.08-1.27 2.1-2.24a5.27 5.27 0 0 0 1.41-2.08 3.74 3.74 0 0 0-.09-2.37zm-201.4 106.61a9 9 0 0 0-1.32-5.24 8.61 8.61 0 0 0-3.87-3.59 7 7 0 0 0-8.23 2 6.92 6.92 0 0 0-6.73-4.71 8.59 8.59 0 0 0-4.95 1.84 8.94 8.94 0 0 0-3.21 4.34 10.88 10.88 0 0 0 0 6.86 15.48 15.48 0 0 0 4.26 5.94c3 2.73 7 6.2 7 6.2s4.37-2.09 8.19-3.47a15.39 15.39 0 0 0 6.2-3.86 10.93 10.93 0 0 0 2.66-6.31zM508.79 82.65a10.49 10.49 0 0 1 .82-6.26 10 10 0 0 1 4-4.69 8.14 8.14 0 0 1 9.82 1.23 8.13 8.13 0 0 1 7.18-6.38 10 10 0 0 1 6 1.47 10.47 10.47 0 0 1 4.31 4.6 12.72 12.72 0 0 1 .9 8 18.13 18.13 0 0 1-4.13 7.47c-3.13 3.58-7.28 8.15-7.28 8.15s-5.36-1.84-10-2.92a18.24 18.24 0 0 1-7.72-3.64 12.81 12.81 0 0 1-3.9-7.03zM66.22 55.41a10.31 10.31 0 0 1 .78-6.16 9.93 9.93 0 0 1 4-4.63 8 8 0 0 1 9.67 1.22 8 8 0 0 1 1.48-3.19 8.17 8.17 0 0 1 5.59-3.1A10 10 0 0 1 93.63 41a10.33 10.33 0 0 1 4.25 4.53 12.63 12.63 0 0 1 .88 7.85 17.74 17.74 0 0 1-4.07 7.35c-3.08 3.53-7.17 8-7.17 8s-5.27-1.73-9.83-2.85a17.74 17.74 0 0 1-7.6-3.58 12.61 12.61 0 0 1-3.87-6.89zM23.86 69.18A3.12 3.12 0 0 1 25 67.71a2.93 2.93 0 0 1 1.72-.59 2.41 2.41 0 0 1 1.75.77 2.35 2.35 0 0 1 .56 1 2.51 2.51 0 0 1 .87-.6 2.44 2.44 0 0 1 1.91.06 3 3 0 0 1 1.3 1.27 3 3 0 0 1 .41 1.81 3.79 3.79 0 0 1-1 2.16 5.25 5.25 0 0 1-2.16 1.27c-1.33.45-3.07 1-3.07 1s-1.09-1.26-2.1-2.23a5.35 5.35 0 0 1-1.41-2.08 3.74 3.74 0 0 1 .08-2.37zM378 232.25a9 9 0 0 1 1.31-5.24 8.64 8.64 0 0 1 3.88-3.59 6.94 6.94 0 0 1 8.22 2 6.95 6.95 0 0 1 6.73-4.71 8.62 8.62 0 0 1 5 1.84 9 9 0 0 1 3.21 4.34 10.88 10.88 0 0 1 0 6.86 15.35 15.35 0 0 1-4.25 5.94c-3 2.73-7 6.2-7 6.2s-4.36-2.09-8.19-3.47a15.52 15.52 0 0 1-6.2-3.86 11 11 0 0 1-2.71-6.31z"/></svg>