<svg id="Layer_1" data-name="Layer 1" xmlns="http://www.w3.org/2000/svg" viewBox="0 0 1380 325"><defs><style>.cls-1{fill:none}.cls-2{clip-path:url(#clip-path)}.cls-3{fill:#ffe9e8}.cls-4{fill:#fd736b}.cls-5{fill:#1a2e35}.cls-6{fill:#375a64}.cls-7{fill:#f9f9f9}.cls-8,.cls-9{opacity:.6}.cls-12,.cls-16,.cls-9{isolation:isolate}.cls-10{fill:#fff}.cls-11,.cls-12{opacity:.4}.cls-13{fill:#ffbe9e}.cls-14{fill:#ff9970}.cls-15,.cls-16{opacity:.3}.cls-17{fill:#ebebeb}.cls-18{fill:#e0e0e0}.cls-19{fill:#f4f4f4}</style><clipPath id="clip-path"><path class="cls-1" d="M0 0H1380V325H0z"/></clipPath></defs><g class="cls-2"><path class="cls-3" d="M1360.74-2.67H19.27a20 20 0 0 0-20 20v290.35a20 20 0 0 0 20 20h1341.47a20 20 0 0 0 20-20V17.33a20 20 0 0 0-20-20z"/><path class="cls-4" d="M250.14 203.08c-8.09-12.38-6.91-30.06 2.75-41.25 3-3.48 7.19-6.5 11.77-6.1s8.45 4.41 9.88 8.89.93 9.33.09 13.95c-1.17 6.48-3.13 13.1-7.62 17.91s-11.1 9.75-16.87 6.6zm4.47 59.57a18.49 18.49 0 0 1 5.16-21c1.86-1.52 4.29-2.7 6.62-2.08s3.95 3 4.28 5.48a15.28 15.28 0 0 1-1.22 7.19c-1.19 3.23-2.8 6.47-5.55 8.54s-6.6 4-9.29 1.87zm-19.51-4.25a26.77 26.77 0 0 0-13.49-28.24c-3.08-1.61-6.88-2.56-10-1s-4.71 5.47-4.46 9 2 6.83 3.84 9.84c2.64 4.23 5.88 8.34 10.38 10.47s10.53 3.75 13.71-.09m1.42-29.65c3.88-12.5-2.69-27.66-13.64-34.83-3.4-2.23-7.7-3.78-11.5-2.33s-6.12 5.81-6.24 10 1.48 8.17 3.32 11.9c2.57 5.23 5.85 10.39 10.85 13.38s13.07 6 17.21 1.91"/><path class="cls-5" d="M244.28 289.84a3.14 3.14 0 0 1-.12-.61c-.07-.45-.16-1-.26-1.74-.06-.39-.11-.81-.18-1.26s-.18-1-.28-1.49c-.21-1.07-.42-2.29-.77-3.61-.16-.66-.33-1.36-.5-2.08s-.43-1.46-.65-2.23c-.42-1.55-1-3.16-1.62-4.87a95.07 95.07 0 0 0-4.82-10.7 96.43 96.43 0 0 0-6.25-9.94c-1.11-1.43-2.11-2.83-3.17-4-.52-.62-1-1.21-1.5-1.78l-1.45-1.53c-.91-1-1.81-1.87-2.59-2.63l-1.12-1.13-.95-.84-1.31-1.18a3.05 3.05 0 0 1-.44-.44 3.87 3.87 0 0 1 .51.35l1.37 1.11 1 .81 1.11 1c.8.74 1.73 1.58 2.66 2.59l1.49 1.56L226 247c1.08 1.2 2.1 2.59 3.22 4a81.21 81.21 0 0 1 11.14 20.76c.57 1.73 1.18 3.35 1.58 4.91.21.78.42 1.53.62 2.26s.33 1.43.48 2.1c.33 1.33.51 2.56.69 3.64q.14.79.24 1.5c.05.46.09.88.13 1.27.07.72.12 1.3.16 1.76a2 2 0 0 1 .02.64z"/><path class="cls-5" d="M244 292.08a1 1 0 0 1 0-.25 4 4 0 0 1 .05-.72c.07-.68.15-1.61.26-2.78.06-.61.12-1.27.2-2s.07-1.54.12-2.4c.06-1.71.23-3.67.16-5.83v-3.4c0-1.18-.13-2.4-.19-3.67-.08-2.55-.43-5.24-.73-8.08a116.15 116.15 0 0 0-10.53-35.52c-1.3-2.55-2.48-5-3.79-7.18-.64-1.09-1.22-2.18-1.85-3.18l-1.84-2.85c-1.13-1.85-2.33-3.4-3.32-4.8-.51-.7-1-1.36-1.41-1.94s-.87-1.1-1.25-1.58l-1.73-2.19-.44-.57a.77.77 0 0 1-.14-.21s.07 0 .18.17l.48.55c.44.51 1 1.23 1.81 2.12l1.29 1.55c.46.58.93 1.23 1.45 1.92 1 1.39 2.24 2.93 3.39 4.77l1.88 2.85c.64 1 1.23 2.08 1.88 3.17 1.34 2.18 2.54 4.63 3.85 7.19a113.32 113.32 0 0 1 10.57 35.66c.3 2.86.63 5.57.69 8.12.05 1.28.16 2.51.16 3.69v3.41c0 2.17-.16 4.13-.25 5.85-.06.86-.09 1.66-.16 2.4s-.17 1.4-.25 2c-.15 1.17-.26 2.1-.35 2.77a3.92 3.92 0 0 1-.11.72.68.68 0 0 1-.08.24z"/><path class="cls-5" d="M265.06 170.67a.48.48 0 0 1-.1.23c-.1.15-.21.39-.35.65l-1.38 2.45c-.3.54-.65 1.12-1 1.78s-.69 1.4-1.08 2.18l-1.25 2.5c-.42.9-.82 1.86-1.27 2.86s-.92 2-1.37 3.17-.87 2.28-1.34 3.48l-.71 1.84-.65 1.92-1.35 4c-1.72 5.55-3.34 11.72-4.71 18.28s-2.26 12.89-2.95 18.66-1 11-1.15 15.38c-.11 2.2-.13 4.18-.14 5.93s0 3.25 0 4.48V264a1 1 0 0 1 0 .25 1 1 0 0 1 0-.24 4.21 4.21 0 0 0 0-.74c0-.69-.08-1.63-.14-2.83s-.1-2.73-.1-4.48 0-3.74.07-5.94c.07-4.4.47-9.63 1-15.42A170.75 170.75 0 0 1 248 216a186.52 186.52 0 0 1 4.76-18.33c.48-1.37.94-2.72 1.38-4 .23-.65.45-1.29.67-1.93l.72-1.84q.72-1.8 1.38-3.48c.46-1.11 1-2.15 1.4-3.16s.87-2 1.31-2.85.88-1.71 1.29-2.49l1.12-2.17c.36-.65.73-1.23 1-1.76l1.47-2.42.39-.63zm-2.75 75.94a9.8 9.8 0 0 1-.86 1.51c-.59.95-1.4 2.35-2.35 4.1s-2 3.88-3.07 6.29-2.06 5.13-3 8a72 72 0 0 0-2.08 8.31 65.1 65.1 0 0 0-1 6.92c-.18 2-.32 3.59-.37 4.71a10 10 0 0 1-.14 1.73 11.25 11.25 0 0 1-.06-1.74 47.31 47.31 0 0 1 .19-4.73c.19-2 .45-4.37.91-7a71.77 71.77 0 0 1 5.09-16.45 67 67 0 0 1 3.18-6.27 46.9 46.9 0 0 1 2.51-4 12.86 12.86 0 0 1 1.05-1.38z"/><path class="cls-6" d="M228.39 284.27h35.55l-4.3 36.3h-26.82z"/><path class="cls-5" d="M229.69 316.65l3 3.92h26.93l3.1-3.8z"/><path class="cls-7" d="M262.55 294.94c0 .15-7.37.27-16.47.27s-16.48-.12-16.48-.27 7.38-.26 16.48-.26 16.47.12 16.47.26zm0 2.42c0 .15-7.37.26-16.47.26s-16.48-.11-16.48-.26 7.38-.27 16.48-.27 16.47.12 16.47.27zm-.44 2.34c0 .15-7.12.26-15.9.26s-15.9-.11-15.9-.26 7.12-.27 15.9-.27 15.9.12 15.9.27z"/><path class="cls-4" d="M226.35 44.37a10.62 10.62 0 0 0-.81-6.26 10.16 10.16 0 0 0-4-4.69 8.15 8.15 0 0 0-9.83 1.23 8 8 0 0 0-1.5-3.24 8.35 8.35 0 0 0-2.51-2.15 8.22 8.22 0 0 0-3.16-1 10 10 0 0 0-6 1.47 10.44 10.44 0 0 0-4.32 4.6 12.67 12.67 0 0 0-.9 8 18 18 0 0 0 4.14 7.47c3.12 3.58 7.28 8.15 7.28 8.15s5.35-1.84 10-2.92a18.29 18.29 0 0 0 7.72-3.64 12.78 12.78 0 0 0 3.89-7.02zm748.58.63a6.2 6.2 0 0 0-.49-3.7 6 6 0 0 0-2.37-2.78 4.85 4.85 0 0 0-3-.62 4.9 4.9 0 0 0-2.78 1.35 5 5 0 0 0-.89-1.92 4.89 4.89 0 0 0-1.49-1.3 5 5 0 0 0-1.88-.6 6 6 0 0 0-3.55.87 6.19 6.19 0 0 0-2.54 2.7 7.48 7.48 0 0 0-.53 4.71 10.75 10.75 0 0 0 2.44 4.42c1.85 2.12 4.31 4.82 4.31 4.82s3.17-1.08 5.91-1.72a10.81 10.81 0 0 0 4.56-2.16 7.59 7.59 0 0 0 2.3-4.07zM468.38 87.17a10.35 10.35 0 0 0-.8-6.16 10.07 10.07 0 0 0-4-4.63A8 8 0 0 0 454 77.6a8.07 8.07 0 0 0-7.06-6.29 9.86 9.86 0 0 0-5.94 1.45 10.34 10.34 0 0 0-4.25 4.53 12.55 12.55 0 0 0-.89 7.85 17.83 17.83 0 0 0 4.07 7.35c3.08 3.53 7.17 8 7.17 8s5.27-1.81 9.83-2.88a17.72 17.72 0 0 0 7.6-3.58 12.63 12.63 0 0 0 3.85-6.86zm542.83-.82a10.37 10.37 0 0 0-4.94-3.77 10 10 0 0 0-6.07-.45 8 8 0 0 0-6 7.72 8 8 0 0 0-9.44.59 10 10 0 0 0-3.13 5.21 10.29 10.29 0 0 0 .22 6.21 12.57 12.57 0 0 0 5 6.16 17.85 17.85 0 0 0 8.09 2.29c4.67.3 10.74.56 10.74.56s2.43-5 4.89-9a17.83 17.83 0 0 0 2.8-7.92 12.54 12.54 0 0 0-2.16-7.6zM117 181.52a9 9 0 0 0-1.32-5.24 8.62 8.62 0 0 0-3.87-3.59 7 7 0 0 0-5.55 0 7.24 7.24 0 0 0-2.68 2 7.05 7.05 0 0 0-1.59-2.6 7.18 7.18 0 0 0-2.35-1.57 7.29 7.29 0 0 0-2.77-.52 8.59 8.59 0 0 0-5 1.84 9 9 0 0 0-3.21 4.34 11 11 0 0 0 0 6.86A15.47 15.47 0 0 0 93 189c3 2.73 7 6.2 7 6.2s4.37-2.08 8.19-3.47a15.33 15.33 0 0 0 6.2-3.86 11 11 0 0 0 2.61-6.35zm238.23 134.23l-.05-9.11H338.1L338 320l1 .07c4.72.27 24 1 27.13.06 3.61-1.13-10.9-4.38-10.9-4.38z"/><g class="cls-8"><g class="cls-9"><path class="cls-10" d="M344.21 320.05a5.91 5.91 0 0 0-2.18-3.64 5.79 5.79 0 0 0-4-1.25v4.77z"/></g></g><g class="cls-8"><g class="cls-9"><path class="cls-10" d="M362.29 317.6s5.09 1.47 4.45 2.3-20.13.82-28.73.05v-.38l22.74.22s.55-2.15 1.54-2.19z"/></g></g><path class="cls-5" d="M337.92 319.44h1.13l3.11.14c2.62.1 6.24.18 10.24.19s7.63-.06 10.25-.15l3.11-.12.84-.05h-.85l-3.1.05c-2.62.05-6.25.1-10.25.09s-7.62-.07-10.24-.13l-3.11-.07h-1.13z"/><path class="cls-5" d="M360.78 320.12a6.69 6.69 0 0 1 .58-1.48 7 7 0 0 1 1.06-1.18 2.72 2.72 0 0 0-1.64 2.66zm-5.36-2.96a2.16 2.16 0 0 0 .54-.65c.25-.39.41-.74.36-.77s-.29.26-.54.65-.41.74-.36.77zm-1.42-.73a2.9 2.9 0 0 0 .6-.4c.3-.26.5-.52.46-.56s-.3.14-.6.4a1.66 1.66 0 0 0-.46.56zm-.84-1.62a2 2 0 0 0 .9.12 2.24 2.24 0 0 0 .89-.09 1.93 1.93 0 0 0-.89-.12 2.29 2.29 0 0 0-.9.09zm-.29-1.13a1.68 1.68 0 0 0 1 .29 1.72 1.72 0 0 0 1-.14 6.73 6.73 0 0 0-1-.07 4.82 4.82 0 0 0-1-.08z"/><path class="cls-5" d="M356 315.67a3.38 3.38 0 0 0 1.1 0 6.6 6.6 0 0 0 1.17-.26 3.81 3.81 0 0 0 .66-.27.67.67 0 0 0 .28-.34.39.39 0 0 0 0-.24.43.43 0 0 0-.15-.2 2 2 0 0 0-1.35-.16 2 2 0 0 0-1.14.74 2.26 2.26 0 0 0-.36.73.76.76 0 0 0 0 .3 3 3 0 0 1 .5-.94 2.09 2.09 0 0 1 .94-.6 1.65 1.65 0 0 1 .66-.09 1.8 1.8 0 0 1 .65.18c.17.13.11.33-.09.45a4.66 4.66 0 0 1-.61.26 8.92 8.92 0 0 1-1.13.29c-.71.12-1.13.12-1.13.15z"/><path class="cls-5" d="M356.28 315.73a1.09 1.09 0 0 0 .13-.77 1.77 1.77 0 0 0-.3-.8 1.12 1.12 0 0 0-.38-.4 1.1 1.1 0 0 0-.53-.16.45.45 0 0 0-.34.51 1.22 1.22 0 0 0 .19.49 3.24 3.24 0 0 0 .51.66 1.66 1.66 0 0 0 .63.45 6.74 6.74 0 0 1-.52-.55 3.39 3.39 0 0 1-.46-.66c-.15-.23-.25-.64 0-.69s.56.24.73.46a1.92 1.92 0 0 1 .31.72 3 3 0 0 1 .03.74zm-18.48-.64h1.26a5.68 5.68 0 0 1 2.76 1.14 5.46 5.46 0 0 1 1.71 2.44c.13.4.23.8.32 1.21v-.34a4.18 4.18 0 0 0-.19-.92 5.19 5.19 0 0 0-4.59-3.67 4.92 4.92 0 0 0-.94 0 1 1 0 0 0-.33.14zm1.78-7.64a34 34 0 0 0-.15 3.5 31.8 31.8 0 0 0 .05 3.52 27.49 27.49 0 0 0 .16-3.51 29.37 29.37 0 0 0-.06-3.51zm6.42 10.37a9.09 9.09 0 0 0 2.49.25 10 10 0 0 0 2.5-.19c0-.06-1.12 0-2.49 0s-2.5-.12-2.5-.06z"/><path class="cls-5" d="M342.68 317.81a4.36 4.36 0 0 0 .21.5c.11.26.17.48.23.48s.09-.27 0-.57-.4-.45-.44-.41zm-1.25-1.57c-.05 0 .06.22.24.4s.35.29.39.25-.06-.22-.24-.39-.35-.3-.39-.26zm-1.81-.72c0 .06.24.06.49.15s.43.22.48.18-.1-.27-.41-.38-.58 0-.56.05zm-1.28-.34c0 .06.07.14.22.2s.27.06.29 0-.08-.14-.22-.19-.27-.06-.29-.01z"/><path class="cls-4" d="M413.14 14.73l-150.33 6.05v34.67l152.56-5.6zM440 27.61s8.55-1 10.58 2.67c0 0-1.73 4.68-10.21 4.29z"/><path class="cls-5" d="M440.74 26l.87 9.59-10.31 1s-4.23.34-9.12 5.6-6.81 7.65-6.81 7.65l-2.23-35.12 6.78 6.35a16.32 16.32 0 0 0 4.56 3 26 26 0 0 0 6.43 2.16 75 75 0 0 0 9.83-.23zm-177.93-5.22s-9.07 5.19-7.26 18.6c1.55 11.56 7.26 16.07 7.26 16.07z"/><g class="cls-11"><g class="cls-12"><path class="cls-10" d="M413.86 27.53l-151 5.52v9.38l151.61-6z"/></g></g><path class="cls-4" d="M302.9 316.3l.05-9.12H320l.07 13.34-1.06.07c-4.71.26-24 1-27.13.06-3.49-1.07 11.02-4.35 11.02-4.35z"/><g class="cls-8"><g class="cls-9"><path class="cls-10" d="M313.92 320.59a5.93 5.93 0 0 1 2.17-3.64 5.73 5.73 0 0 1 4-1.24v4.77z"/></g></g><g class="cls-8"><g class="cls-9"><path class="cls-10" d="M295.83 318.14s-5.08 1.47-4.45 2.31 20.14.81 28.73.05v-.39l-22.75.23s-.53-2.16-1.53-2.2z"/></g></g><path class="cls-5" d="M320.21 320h-.29l-.85.06-3.1.13c-2.62.1-6.24.19-10.25.2s-7.63-.07-10.25-.15l-3.1-.13-.84-.05h.84l3.11.06c2.62 0 6.24.1 10.24.09s7.62-.07 10.25-.13l3.1-.07h1.14z"/><path class="cls-5" d="M297.35 320.67a7.88 7.88 0 0 0-.59-1.48 6.32 6.32 0 0 0-1.06-1.19 2.3 2.3 0 0 1 1.24 1.08 2.36 2.36 0 0 1 .41 1.59zm5.36-2.96a3.8 3.8 0 0 1-.54-.66c-.25-.39-.42-.73-.37-.76s.29.26.54.65.42.74.37.77zm1.38-.71a2.28 2.28 0 0 1-.6-.4c-.29-.27-.51-.51-.47-.55s.31.13.6.4.51.48.47.55zm.91-1.64a4.11 4.11 0 0 1-1.78 0 2.06 2.06 0 0 1 .89-.11 1.92 1.92 0 0 1 .89.11zm.26-1.14a2.51 2.51 0 0 1-2 .16 4.76 4.76 0 0 1 1-.07 8.26 8.26 0 0 1 1-.09z"/><path class="cls-5" d="M302.13 316.22a3.38 3.38 0 0 1-1.1 0 6.58 6.58 0 0 1-1.17-.25 4 4 0 0 1-.67-.28.58.58 0 0 1-.17-.14.54.54 0 0 1-.1-.2.48.48 0 0 1 0-.24.43.43 0 0 1 .15-.2 2 2 0 0 1 2.49.59 1.79 1.79 0 0 1 .36.73.51.51 0 0 1 0 .3 3 3 0 0 0-.5-.94 2 2 0 0 0-.94-.61 1.75 1.75 0 0 0-1.31.09c-.17.13-.1.34.09.45a2.62 2.62 0 0 0 .62.26 7.54 7.54 0 0 0 1.13.3c.7.1 1.12.1 1.12.14z"/><path class="cls-5" d="M301.84 316.27a1.12 1.12 0 0 1-.13-.76 1.9 1.9 0 0 1 .3-.8 1.07 1.07 0 0 1 .39-.4 1.1 1.1 0 0 1 .53-.16.42.42 0 0 1 .27.18.45.45 0 0 1 .06.32 1.08 1.08 0 0 1-.18.49 3.09 3.09 0 0 1-.52.67 1.47 1.47 0 0 1-.63.44 5.54 5.54 0 0 0 .52-.54 3.39 3.39 0 0 0 .46-.66c.15-.23.26-.65 0-.7s-.55.25-.72.47a1.81 1.81 0 0 0-.31.71 6 6 0 0 0-.04.74zm18.48-.64s-.49 0-1.26.05a5.37 5.37 0 0 0-4.47 3.57c-.26.73-.28 1.23-.32 1.22a1 1 0 0 1 0-.34 4.93 4.93 0 0 1 .18-.93 5.39 5.39 0 0 1 1.73-2.54 5.27 5.27 0 0 1 2.87-1.13 4.92 4.92 0 0 1 .94 0 1.39 1.39 0 0 1 .33.1zm-1.78-7.63a56.07 56.07 0 0 1 .1 7 29.44 29.44 0 0 1-.15-3.51 31.62 31.62 0 0 1 .05-3.49zm-6.45 10.37a9.94 9.94 0 0 1-2.49.25 9.13 9.13 0 0 1-2.5-.2c0-.06 1.12 0 2.5 0s2.49-.11 2.49-.05z"/><path class="cls-5" d="M315.44 318.36s-.09.24-.2.49-.18.49-.24.48-.09-.27.05-.56.35-.45.39-.41zm1.26-1.57a1.11 1.11 0 0 1-.25.4c-.18.18-.35.29-.39.25s.07-.22.25-.4.35-.29.39-.25zm1.8-.72c0 .06-.24.06-.49.14s-.43.23-.47.19.1-.28.41-.38.57-.02.55.05zm1.29-.34a.53.53 0 0 1-.22.2c-.14.06-.27.05-.3 0s.08-.14.22-.2.28-.05.3 0z"/><path class="cls-13" d="M364.49 60.78S391 72 391.83 71.55s1.46-20.89 1.46-20.89l13.22-.49S409 81.44 401 86.51C390.18 93.44 363.9 79 363.9 79zm-13.33-7.34c0-3.31.06-6.19.06-6.19s6.68-.71 7.09-7.34 0-21.91 0-21.91l-12.17-5.95-13.39 10.14 1.41 31.56a8.5 8.5 0 0 0 17-.31z"/><path class="cls-5" d="M356.67 29.64a1 1 0 0 1-.18.59 1.06 1.06 0 0 1-1.1.46 1.05 1.05 0 0 1-.84-.84 1.06 1.06 0 0 1 .46-1.1 1 1 0 0 1 .59-.18 1.1 1.1 0 0 1 .76.31 1.08 1.08 0 0 1 .31.76zm1.03-1.16c-.14.13-.93-.53-2.07-.59s-2 .48-2.12.33.08-.32.46-.58a2.76 2.76 0 0 1 1.7-.45 2.81 2.81 0 0 1 1.64.66c.34.3.45.57.39.63zm-10.85 1.37a1.18 1.18 0 0 1-.2.65 1.12 1.12 0 0 1-.52.42 1.14 1.14 0 0 1-1.26-.25 1.11 1.11 0 0 1-.32-.6 1.18 1.18 0 0 1 .07-.67 1.21 1.21 0 0 1 .43-.52 1.16 1.16 0 0 1 1.8 1zm.72-1.26c-.15.15-1-.58-2.25-.64s-2.18.53-2.31.36.09-.35.5-.63a3.06 3.06 0 0 1 3.64.22c.37.33.49.62.42.69zm3.3 7.34a4 4 0 0 0 1.51.14 1.41 1.41 0 0 0 .41 0 .58.58 0 0 0 .26-.13.69.69 0 0 0 .18-.24 1.5 1.5 0 0 0-.08-1l-.59-1.91a24.18 24.18 0 0 0-1.84-4.79 23.31 23.31 0 0 0 1.28 5c.21.65.42 1.27.63 1.89a1.23 1.23 0 0 1 .14.68c0 .11-.2.16-.44.17a4.19 4.19 0 0 0-1.46.19z"/><path class="cls-14" d="M346.49 36.38c0 .76-1.19 1.3-2.6 1.33s-2.58-.46-2.62-1.21 1.11-1.5 2.59-1.5 2.65.63 2.63 1.38zm11.91 1.25c-1.46 0-2.49-.66-2.53-1.2s1-1.41 2.6-1.52v1.32c0 .45-.04.95-.07 1.4z"/><path class="cls-10" d="M348 38.11c-1.25-.57 3.42 1.35 5.7 1a3.14 3.14 0 0 1-3.53 1.65c-2.56-.64-2.17-2.65-2.17-2.65z"/><path class="cls-14" d="M351.53 47.25a16.51 16.51 0 0 1-8.78-3s2 4.87 8.64 4.59z"/><path class="cls-5" d="M312.35 45.2a25.11 25.11 0 0 0 7.81-9.33c1.93-4.1 1.17-5.75 3.43-11.75 1.61-4.28 2.7-7.17 5.46-10.06a20.47 20.47 0 0 1 12.71-6.34c2.58 0 7.09-1.42 13.66 5.41s3 14.18 3 14.18l-1.1-1-9.7-2.5c.77-2.62-.36-5.87-1-7.38l-.06-.06c-1.94 9.92-12.87 11-12.87 11a46 46 0 0 1 1.44 16.88 44.1 44.1 0 0 1-1 5.94 21.59 21.59 0 0 1-12.73.34 21.37 21.37 0 0 1-9.05-5.33z"/><path class="cls-5" d="M348.36 9.38a29.94 29.94 0 0 0 3 1.3 15.87 15.87 0 0 1 8.94 11.6c.37 1.94.32 3.19.5 3.2s.47-1.24.29-3.31a14.52 14.52 0 0 0-9.42-12.23c-2-.7-3.3-.69-3.31-.56z"/><path class="cls-13" d="M331.94 35.65a8.23 8.23 0 0 0-.36-3.27 3.12 3.12 0 0 0-.91-1.35 3.06 3.06 0 0 0-1.47-.71 2.61 2.61 0 0 0-2.69 2.18 3.25 3.25 0 0 0 1.64 3.19 4.32 4.32 0 0 0 1.83.47 4.2 4.2 0 0 0 1.85-.37"/><path class="cls-14" d="M330 35.13c0-.08-.25-.17-.57-.46a1.75 1.75 0 0 1-.5-.61 1.84 1.84 0 0 1-.18-.76 1.69 1.69 0 0 1 .16-.77 1.83 1.83 0 0 1 .47-.63c.3-.29.57-.4.55-.48s-.34-.11-.79.16a2 2 0 0 0-.73.73 2 2 0 0 0-.27 1 2 2 0 0 0 .28 1 2 2 0 0 0 .72.71c.5.23.86.18.86.11z"/><path class="cls-5" d="M370.12 137.45l-8.3 175.2-26.59.56 6.89-151.4-18 150.76-27.16.67 21.26-177.71"/><path class="cls-6" d="M349.29 312.91c.16 0 2.07-39.15 4.27-87.44s3.87-87.47 3.71-87.47-2.07 39.14-4.27 87.45-3.86 87.46-3.71 87.46zm-39.69-1.41c.15 0 4.93-38 10.67-84.92s10.27-85 10.12-85-4.94 38-10.68 84.92-10.27 84.98-10.11 85zm4.95-248.76a29.9 29.9 0 0 1 11.57-7.49 23.9 23.9 0 0 1 6.63-1.34v-1.35l7.34.15s.38 1.15.78 2.46c.39 1 .58 3.19 1.05 3.19s1.21-2.14 1.93-3.21l1.26-2.52 6.78-.33V54a41.74 41.74 0 0 1 12.78 3.82c.75 2.49 3.92 13.38 3 23.38a26.12 26.12 0 0 1-3.32 11.63 23.28 23.28 0 0 1-2.13 3l.32 17.83 7.54 23.75-51.9.54 5.9-25.64-2.69-25.41a32.33 32.33 0 0 1-6.88-24.2z"/><path class="cls-5" d="M345.27 52.88a4.67 4.67 0 0 0 .36 1.56l.54 1.65c.11.31.2.61.35 1a1 1 0 0 0 .46.55.79.79 0 0 0 .4.07.8.8 0 0 0 .39-.14 25.87 25.87 0 0 0 4.38-3.27 27.45 27.45 0 0 0-4.66 2.78c-.39.37-.58-.59-.83-1.15s-.43-1.07-.65-1.6c-.39-.93-.66-1.48-.74-1.45zm-13.13 1.39a15.3 15.3 0 0 0 4.44 4.52l.38.26.23.17.16-.24a13.78 13.78 0 0 0 2.44-5.35c-.15-.06-1.06 2.36-2.91 5l.4-.07-.37-.26c-2.81-1.99-4.64-4.14-4.77-4.03zm11.93 83.51a3.7 3.7 0 0 0 .07-.81c0-.58 0-1.35.08-2.31 0-2 0-4.93-.05-8.52-.12-7.19-.46-17.12-.89-28.08s-.78-20.83-1-28.07c-.1-3.55-.17-6.44-.23-8.51v-2.31a4.41 4.41 0 0 0-.05-.81 3.55 3.55 0 0 0-.06.8c0 .59 0 1.36-.08 2.32 0 2 0 4.92.05 8.52.12 7.19.46 17.12.89 28.08s.78 20.83 1 28.07c.1 3.54.17 6.43.23 8.51V137a7.32 7.32 0 0 0 .04.78zm-6.48-66.35c0-.06-.45-.13-.85.38a1.36 1.36 0 0 0-.23.52 1.32 1.32 0 0 0 0 .56 1.2 1.2 0 0 0 .4.59 1.27 1.27 0 0 0 .66.29 1.33 1.33 0 0 0 .71-.08 1.27 1.27 0 0 0 .55-.45 1.28 1.28 0 0 0 .18-.54 1.33 1.33 0 0 0-.07-.56c-.23-.61-.7-.68-.7-.61a1.81 1.81 0 0 1 .31.72 1.15 1.15 0 0 1 0 .37 1 1 0 0 1-.15.33.8.8 0 0 1-.75.26.84.84 0 0 1-.38-.15.82.82 0 0 1-.26-.32.92.92 0 0 1 0-.37.88.88 0 0 1 .1-.35c.17-.41.5-.5.48-.59zm-.18 17.94c0-.06-.39-.12-.75.31a1.22 1.22 0 0 0-.22.44 1.16 1.16 0 0 0 0 .49 1.05 1.05 0 0 0 .33.55 1.17 1.17 0 0 0 1.21.2 1.05 1.05 0 0 0 .48-.43 1 1 0 0 0 0-1c-.3-.5-.75-.43-.72-.35s.26.16.36.52a.6.6 0 0 1 .05.3.66.66 0 0 1-.12.27.59.59 0 0 1-.25.17.61.61 0 0 1-.3 0 .53.53 0 0 1-.3-.12.64.64 0 0 1-.21-.25.74.74 0 0 1 0-.33.56.56 0 0 1 .12-.3c.07-.29.34-.38.32-.47z"/><path class="cls-4" d="M295.43 133.19l7.46-36.12 34.4 7.1a15.83 15.83 0 0 1 12.3 18.72l-1 5.09a15.84 15.84 0 0 1-18.71 12.31z"/><path class="cls-4" d="M275 91.3l55.33 11.44a4.07 4.07 0 0 0 0-1.63 4.19 4.19 0 0 0-1.76-2.68 4.24 4.24 0 0 0-1.5-.63l-47.17-9.74a4.16 4.16 0 0 0-4.9 3.24z"/><g class="cls-11"><path d="M302.14 96.9a15.94 15.94 0 0 0 2.95.82c1.85.43 4.41 1 7.24 1.58s5.4 1.09 7.27 1.43a16.8 16.8 0 0 0 3 .42 17.51 17.51 0 0 0-3-.81c-1.85-.44-4.4-1-7.24-1.59s-5.4-1.09-7.27-1.42a17.35 17.35 0 0 0-2.95-.43z" class=""/></g><g class="cls-15"><path d="M300.06 111.14c.12-.86.25-1.71.37-2.56a133.8 133.8 0 0 1 17.8 17.42 20.84 20.84 0 0 1 3.94 5.88 7.94 7.94 0 0 1 .64 3.47 7.76 7.76 0 0 1-.94 3.39l-14.38-3.21z" class=""/></g><path class="cls-13" d="M285.68 119c-.69-.78-5.41-6.34-4.09-13.76a16 16 0 0 1 4.16-8.11Q300 81.31 314.32 65.49A31.47 31.47 0 0 0 319.91 85l-21.19 23.8 17.33 21.59c2.67 3.33 4.12 8 2.73 12.05l-2.31 4.84a7.11 7.11 0 0 1-9.33 3.42l-4.14-1.86a1.5 1.5 0 0 1-.89-1.17 1.5 1.5 0 0 1 .07-.76 1.61 1.61 0 0 1 .43-.63l1-.88a3.57 3.57 0 0 1 1.26-.71 3.5 3.5 0 0 1 1.44-.15l5.28.53.24-1z"/><path class="cls-14" d="M302.16 147a12.32 12.32 0 0 0 1.66.63 12.17 12.17 0 0 0 4.24 1 3.53 3.53 0 0 0 2.24-1.12 5.87 5.87 0 0 0 1.15-1.63 2.64 2.64 0 0 0 .39-1.77c-.07 0-.19.66-.74 1.58a6 6 0 0 1-1.16 1.44 3.15 3.15 0 0 1-1.9.93 15.86 15.86 0 0 1-4.1-.81 3.73 3.73 0 0 0-1.78-.25z"/><path class="cls-14" d="M303.62 145.4a15.34 15.34 0 0 0 4 1.4 4.32 4.32 0 0 0 3-.28c.72-.41.93-.91.87-.94s-.37.31-1 .58a4.64 4.64 0 0 1-2.76.09c-2.2-.59-4.09-1.02-4.11-.85z"/><path class="cls-10" d="M139.41 43.43l-104.18 42L63.6 155.8l104.18-42z"/><path class="cls-6" d="M167.79 113.81l-.52-1.28-1.5-3.72c-1.31-3.26-3.23-8-5.73-14.11-4.93-12.23-12-29.78-20.72-51.18l.2.09-104.17 42 .11-.27 28.37 70.38-.24-.1 75.09-30.17 21.46-8.59 5.7-2.3 1.47-.6.51-.2-.48.19-1.46.59-5.67 2.28-21.39 8.72L63.68 156l-.18.07-.07-.17-28.37-70.41-.06-.19.2-.08 104.21-42 .14-.06.07.16 20.6 51.38c2.46 6.11 4.38 10.88 5.66 14.15l1.48 3.68c.27.85.43 1.28.43 1.28z"/><path class="cls-6" d="M37.77 91.7c0-.11 23.23-9.59 52-21.17s52.08-20.9 52.12-20.79-23.22 9.58-52 21.17S37.81 91.8 37.77 91.7zm2.83-4.83a.93.93 0 0 1 0 .52 1 1 0 0 1-.26.46.84.84 0 0 1-.46.23.93.93 0 0 1-.48-.08.94.94 0 0 1-.4-.34 1 1 0 0 1-.14-.5.9.9 0 0 1 .16-.5.94.94 0 0 1 .41-.32.83.83 0 0 1 .35-.06.8.8 0 0 1 .34.07 1 1 0 0 1 .29.2 1 1 0 0 1 .19.32zm2.4.03a.89.89 0 0 0 .5-1.18.91.91 0 0 0-1.18-.51.91.91 0 0 0-.49 1.18.9.9 0 0 0 1.17.51zm2.78-1.14a.9.9 0 0 0 .5-1.18.9.9 0 1 0-1.67.67.9.9 0 0 0 1.17.51zm31.69-1.53l-27.79 11.2 11.3 28 27.79-11.2zm56.34-13.5c.05.1-10.76 4.55-24.12 9.94s-24.25 9.68-24.29 9.57 10.76-4.55 24.14-9.95 24.23-9.67 24.27-9.56zm2.1 5.21c.05.1-10.76 4.55-24.12 9.94s-24.25 9.68-24.29 9.57 10.76-4.56 24.14-10 24.23-9.62 24.27-9.51zm2.09 5.21c.05.1-10.76 4.55-24.12 9.94s-24.25 9.68-24.29 9.57 10.76-4.56 24.14-10S138 81.05 138 81.15zm-17.68 13.19a6.55 6.55 0 0 1-1.1.53l-3 1.29c-2.58 1.08-6.14 2.54-10.09 4.13s-7.53 3-10.14 4l-3.09 1.17a6.56 6.56 0 0 1-1.16.38 7.37 7.37 0 0 1 1.1-.52l3-1.3c2.58-1.08 6.15-2.54 10.1-4.14s7.52-3 10.13-4l3.09-1.18a7.44 7.44 0 0 1 1.16-.36zM79.59 127l-13.06 5.26 5.31 13.18 13.06-5.26zm23.69-9.58l-13.06 5.27 5.32 13.18 13.06-5.27zm23.72-9.55l-13.06 5.27 5.31 13.18 13.06-5.27zm23.65-9.55l-13.06 5.26 5.31 13.18 13.1-5.26zm-14.82 191.05l-109.62-49.5L46.45 195l109.63 49.5zM27 239.57l108.53 49 19.76-43.75-108.54-49z"/><path class="cls-10" d="M104.86 275l22.67 10.29 6.07 2.71 1.57.71.54.25-.54-.25-1.56-.7-6-2.73-22.67-10.17-78.39-35.29-.17-.08.08-.16 20-44.31.08-.17.18.08 109.05 49.3.12.06v.12c-6.2 13.72-11.25 24.78-14.73 32.44-1.72 3.81-3.06 6.78-4 8.78l-1 2.27a8.13 8.13 0 0 1-.43.83"/><path class="cls-6" d="M46.53 195.61l.25-.1zM44 201.45c0-.09 24.46 10.84 54.53 24.42s54.42 24.67 54.38 24.76-24.46-10.83-54.53-24.41S44 201.55 44 201.45zm5.78-.6a.87.87 0 1 0-1.59-.71.88.88 0 0 0 .44 1.15.87.87 0 0 0 1.15-.44zm2.71 1.22a.87.87 0 0 1-.81.5.87.87 0 0 1-.47-.17.77.77 0 0 1-.3-.39.85.85 0 0 1 0-.5.94.94 0 0 1 .25-.43.87.87 0 0 1 .94-.16.88.88 0 0 1 .45.48.86.86 0 0 1 0 .67zm2.68 1.21a.87.87 0 0 1-.33.38.86.86 0 0 1-.49.13.92.92 0 0 1-.48-.16.87.87 0 0 1-.31-.4.89.89 0 0 1 0-.51.92.92 0 0 1 .25-.44 1 1 0 0 1 .46-.22.86.86 0 0 1 .5.07.88.88 0 0 1 .27.19 1 1 0 0 1 .18.29 1 1 0 0 1 .06.33.89.89 0 0 1-.08.33zM47.56 218l-7.18 15.91a5.73 5.73 0 0 0 2.86 7.58l15.91 7.18a5.74 5.74 0 0 0 7.58-2.86l7.18-15.91a5.73 5.73 0 0 0-2.91-7.57l-15.9-7.18a5.73 5.73 0 0 0-7.54 2.85zM139 261.51c-.05.1-13.64-5.95-30.36-13.5s-30.23-13.74-30.18-13.83 13.63 5.95 30.35 13.5S139 261.42 139 261.51zm-2.43 5.37c0 .1-13.63-5.95-30.36-13.5S76 239.63 76 239.53s13.63 5.95 30.36 13.5 30.26 13.75 30.21 13.85zm-23.99-4.4a2 2 0 0 1-.41-.14l-1.15-.48-4.2-1.83L93 253.86l-13.76-6.28-4.15-1.94-1.09-.55a1.58 1.58 0 0 1-.36-.2l.36.11 1.14.51 4.2 1.83 13.81 6.18 13.76 6.27 4.15 1.94 1.14.52a3 3 0 0 1 .38.23z"/><path class="cls-7" d="M1046.5 18.35l-37.67 178a12.43 12.43 0 0 0 9.58 14.74l273.94 58a12.43 12.43 0 0 0 14.73-9.59l37.68-178a12.45 12.45 0 0 0-9.59-14.74l-273.93-58a12.43 12.43 0 0 0-14.74 9.59z"/><path class="cls-4" d="M1343.45 89.65L1045 26.45l2.15-10.17a10.09 10.09 0 0 1 4.39-6.38 10.12 10.12 0 0 1 7.61-1.41l278.7 59a9.93 9.93 0 0 1 3.63 1.56 10.07 10.07 0 0 1 4.16 10.44z"/><path class="cls-17" d="M1290.72 269.22l-271.07-57.39a14.12 14.12 0 0 1-10.9-16.74l3.66-17.3L1311.12 241l-3.66 17.3a14.1 14.1 0 0 1-16.74 10.92z"/><path class="cls-5" d="M1067.39 204.85l2.46.52.44 1.78.53.11-1.38-5.67h-.14l-3.56 4.62.54.12zm1.78-2.31l.55 2.3-2-.42zm-4.17 4.62l-.09.41 5.83 1.24.09-.41zm-33.06-13.82l-.36-.08a2.19 2.19 0 0 0-1.65.34 2.22 2.22 0 0 0-.93 1.4 9.31 9.31 0 0 0 1.12 4.82s.09.3.39.09a9.43 9.43 0 0 0 3-4 2.22 2.22 0 0 0-1.57-2.57zm-.94 3.46a1.3 1.3 0 0 1-.46-.18 1 1 0 0 1-.35-.34 1.2 1.2 0 0 1-.19-.45 1.35 1.35 0 0 1 0-.49 1.24 1.24 0 0 1 .54-.78 1.22 1.22 0 0 1 .93-.18 1.24 1.24 0 0 1 .78.54 1.22 1.22 0 0 1 .18.93 1.25 1.25 0 0 1-.52.77 1.27 1.27 0 0 1-.91.18zm27.17 7.47a1.32 1.32 0 0 1-.19.46 1.29 1.29 0 0 1-.36.34 1.1 1.1 0 0 1-.46.19 1.4 1.4 0 0 1-.5 0 1.51 1.51 0 0 1-.45-.2 1.17 1.17 0 0 1-.35-.35 1.3 1.3 0 0 1-.18-.46 1.2 1.2 0 0 1 0-.5l.85-4a.84.84 0 0 1 .37-.48.84.84 0 0 1 .6-.1.81.81 0 0 1 .5.33.78.78 0 0 1 .15.59l-.73 3.43a.47.47 0 0 1-.22.22.48.48 0 0 1-.31 0 .46.46 0 0 1-.26-.17.44.44 0 0 1-.11-.29l.56-2.64-.3-.06-.54 2.52v.12a.76.76 0 0 0 .13.53.76.76 0 0 0 1.35-.21v-.12l.71-3.34a1.15 1.15 0 0 0-.18-.83 1.14 1.14 0 0 0-1.55-.33 1.19 1.19 0 0 0-.49.69l-.9 4.21a1.58 1.58 0 0 0 2.37 1.52 1.55 1.55 0 0 0 .72-.87l.71-3.4-.3-.06zm-12.63-5.86l-.66-2.59-1.65 2.1-2.67-.17 1.49 2.22-1 2.48 2.57-.73 2 1.71.11-2.67 2.25-1.43zm-.21 4.22l-1.61-1.34-2 .58.73-1.85v-.1l-1.16-1.74 2.09.14 1.29-1.65.52 2 2 .72-1.69 1.07h-.08zm46.81.2l-.38-.08-2.54 12 .38.08zm-2.73 11.95l2.54-12zM1079 204.47l-1.08 5.09 4.77 1 1.08-5.09zm1.88-.84l-.08.39 1.76.38.08-.4 1.51.32-.17.79-4.77-1 .17-.79zm.01-.43l-.09.4 1.76.37.09-.39z"/><path class="cls-5" d="M1080.81 203.6l-.09.4 1.77.37.08-.39zm20.66 8.48l1.77-1.15.14.21-2 1.3-1.29-2 .21-.14zm217.22-138.14l4.13.88v-.22l-4.14-.88 4.14.88.05-.22-4.14-.88zm21.09 2.24l-.25-.38-2.32 1.51-1.51-2.31-.37.25 1.51 2.32-2.32 1.51.24.37 2.32-1.51 1.51 2.32.41-.26-1.51-2.32zm-13.68 1.5l4.58 1 1-4.57-4.57-1zm1.31-4.05l3.7.78-.78 3.7-3.7-.78zM1328 134a1.58 1.58 0 0 0 0-.65 1.72 1.72 0 0 0-.22-.61 2 2 0 0 0-.44-.47 1.66 1.66 0 0 0-.59-.27l-6.16-1.3a2.32 2.32 0 0 0-1.63.41 2.32 2.32 0 0 0 .63 4.1l5 1 .09-.44-4.76-1a1.93 1.93 0 0 1-1.09-.83 1.88 1.88 0 0 1-.22-1.35 1.84 1.84 0 0 1 .75-1.15 1.9 1.9 0 0 1 1.33-.32l5.91 1.25a1.24 1.24 0 0 1 .76.52 1.22 1.22 0 0 1-.35 1.68 1.22 1.22 0 0 1-.91.17l-5-1.06a.68.68 0 0 1-.39-.76.7.7 0 0 1 .24-.39.67.67 0 0 1 .43-.16l3.86.82.09-.44-3.68-.78h-.18a1.13 1.13 0 0 0-.75.23 1.1 1.1 0 0 0-.41.66 1 1 0 0 0 .12.77 1.09 1.09 0 0 0 .59.51h.18l4.88 1a1.68 1.68 0 0 0 1.18-.23 1.66 1.66 0 0 0 .74-.91z"/><path class="cls-10" d="M1062.39 15.89l-1.17 5.49-.64-.14-2.43-4.79-.86 4.1-.79-.17 1.16-5.49.65.14 2.43 4.79.86-4.1zm4.49 4.78l-3.37-.72a1.44 1.44 0 0 0 1.25 1.54 1.73 1.73 0 0 0 .68 0 1.77 1.77 0 0 0 .63-.27l.31.58a2.25 2.25 0 0 1-1.26.38 2.31 2.31 0 0 1-1.26-.36 2.35 2.35 0 0 1-.87-1 2.32 2.32 0 0 1-.18-1.3 2.07 2.07 0 0 1 .31-.79 2.14 2.14 0 0 1 .6-.6 2.2 2.2 0 0 1 .78-.31 2 2 0 0 1 .85 0 1.92 1.92 0 0 1 .79.31 2.05 2.05 0 0 1 .6.61 1.92 1.92 0 0 1 .28.8 2.57 2.57 0 0 1-.14 1.08zm-3.25-1.26l2.66.57a1.38 1.38 0 0 0-.29-.98 1.36 1.36 0 0 0-.82-.52 1.35 1.35 0 0 0-1.58.89zm11.01.47l-2.43 3.83-.72-.16-.53-3.4-1.89 2.85-.72-.15-.66-4.49.71.16.51 3.56 1.95-3 .64.13.53 3.59 1.94-3.07zm6.22 4.95l-.14.68-4-.85 1.17-5.49 3.87.82-.14.69-3.09-.66-.36 1.69 2.75.58-.14.67-2.75-.58-.38 1.77zm8.43-.01l-.51 2.39-.75-.16.48-2.3c.18-.82-.13-1.3-.81-1.45a1.4 1.4 0 0 0-.54 0 1.21 1.21 0 0 0-.49.22 1.25 1.25 0 0 0-.36.4 1.2 1.2 0 0 0-.15.52l-.46 2.14-.75-.16.49-2.3c.17-.82-.14-1.3-.82-1.45a1.4 1.4 0 0 0-.54 0 1.21 1.21 0 0 0-.49.22 1.25 1.25 0 0 0-.36.4 1.2 1.2 0 0 0-.15.52l-.45 2.14-.75-.16.88-4.16.72.16-.13.62a1.86 1.86 0 0 1 .74-.38 1.79 1.79 0 0 1 .83 0 1.6 1.6 0 0 1 .8.35 1.7 1.7 0 0 1 .48.73 1.9 1.9 0 0 1 1.76-.43 1.7 1.7 0 0 1 .68.25 1.62 1.62 0 0 1 .5.51 1.53 1.53 0 0 1 .23.68 1.59 1.59 0 0 1-.08.7zm4.71.87l-.53 2.51-.71-.15.11-.55a1.45 1.45 0 0 1-.7.35 1.62 1.62 0 0 1-.79 0c-.94-.2-1.43-.83-1.27-1.55s.68-1.12 1.92-.86l1.2.25v-.19c.13-.63-.16-1.08-.9-1.24a2.11 2.11 0 0 0-1.42.17l-.19-.63a2.81 2.81 0 0 1 1.83-.17 1.59 1.59 0 0 1 .7.19 1.66 1.66 0 0 1 .54.48 1.64 1.64 0 0 1 .27.67 1.75 1.75 0 0 1-.06.72zm-1 1.08l.12-.58L1092 26c-.74-.16-1 .08-1.09.44s.2.75.77.87a1.25 1.25 0 0 0 1.36-.49zm2.86-3.77a.46.46 0 0 1 .08-.19.67.67 0 0 1 .15-.14.62.62 0 0 1 .19-.07.46.46 0 0 1 .2 0 .37.37 0 0 1 .18.08.38.38 0 0 1 .14.14.64.64 0 0 1 .08.19.46.46 0 0 1 0 .2.45.45 0 0 1-.22.32.48.48 0 0 1-.18.07.67.67 0 0 1-.2 0 .44.44 0 0 1-.19-.07.67.67 0 0 1-.15-.14.77.77 0 0 1-.08-.19.5.5 0 0 1 0-.2zm-.14 1.31l.76.16-.88 4.16-.76-.16zm2.54-1.17l.76.16-1.24 5.82-.78-.12z"/><path class="cls-5" d="M1053.69 35.23l-1.88-.4.14-.68 4.54 1-.14.68-1.88-.4-1 4.81-.78-.16zm2.01 3.28a2.18 2.18 0 0 1 .6-1.14 2.27 2.27 0 0 1 1.14-.61 2.25 2.25 0 0 1 1.28.13 2.2 2.2 0 0 1 1 .82 2.21 2.21 0 0 1-2.3 3.38 2.09 2.09 0 0 1-1.74-1.72 2.08 2.08 0 0 1 .02-.86zm3.56.75a1.4 1.4 0 0 0-.11-.81 1.38 1.38 0 0 0-.54-.63 1.43 1.43 0 0 0-1.57 0 1.48 1.48 0 0 0-.52.64 1.52 1.52 0 0 0-.08.82 1.42 1.42 0 0 0 .39.72 1.48 1.48 0 0 0 .72.4 1.42 1.42 0 0 0 .58 0 1.3 1.3 0 0 0 .53-.22 1.34 1.34 0 0 0 .4-.42 1.31 1.31 0 0 0 .2-.5zm3.89-.83a.5.5 0 0 1 .08-.2.54.54 0 0 1 .15-.15.44.44 0 0 1 .2-.08.5.5 0 0 1 .21 0 .46.46 0 0 1 .19.08.54.54 0 0 1 .15.15.7.7 0 0 1 .08.2.5.5 0 0 1 0 .21.52.52 0 0 1 0 .25.51.51 0 0 1-.15.21.48.48 0 0 1-.22.12.7.7 0 0 1-.25 0 .46.46 0 0 1-.23-.12.43.43 0 0 1-.15-.2.53.53 0 0 1-.05-.25.68.68 0 0 1 .08-.24zm-.67 3.17a.5.5 0 0 1 .08-.2.54.54 0 0 1 .15-.15.44.44 0 0 1 .2-.08.5.5 0 0 1 .21 0 .54.54 0 0 1 .41.64.5.5 0 0 1-.08.2.54.54 0 0 1-.15.15.5.5 0 0 1-.2.08h-.21a.5.5 0 0 1-.2-.08.57.57 0 0 1-.15-.16.68.68 0 0 1-.07-.2.5.5 0 0 1 .01-.2zm-13.9 14a2.77 2.77 0 0 1 .45-1.06 2.61 2.61 0 0 1 .83-.79 2.72 2.72 0 0 1 1.07-.4 3 3 0 0 1 3.06 1.36l-.62.38a2 2 0 0 0-.59-.65 2.17 2.17 0 0 0-.81-.35 2.31 2.31 0 0 0-.87-.05 2 2 0 0 0-.81.3 2.12 2.12 0 0 0-.64.59 2.3 2.3 0 0 0-.35.8 2.12 2.12 0 0 0 0 .87 2.16 2.16 0 0 0 .33.8 2.25 2.25 0 0 0 .63.6 2.1 2.1 0 0 0 .81.31 2.06 2.06 0 0 0 1.69-.33l.4.6a2.75 2.75 0 0 1-2.27.42 2.87 2.87 0 0 1-1.89-1.2 3.1 3.1 0 0 1-.44-1.06 2.92 2.92 0 0 1 .02-1.14zm5.3 1.82a2 2 0 0 1 .34-.8 2.09 2.09 0 0 1 .62-.6 2 2 0 0 1 .82-.3 2.13 2.13 0 0 1 .87.05 1.9 1.9 0 0 1 .9.41 1.88 1.88 0 0 1 .57.82l-.65.25a1.42 1.42 0 0 0-.39-.55 1.33 1.33 0 0 0-.61-.29 1.47 1.47 0 0 0-1.08.25 1.51 1.51 0 0 0-.43 2 1.5 1.5 0 0 0 .89.67 1.31 1.31 0 0 0 .68 0 1.35 1.35 0 0 0 .59-.33l.49.49a2 2 0 0 1-.87.53 1.92 1.92 0 0 1-1 0 2.12 2.12 0 0 1-1.43-.92 2 2 0 0 1-.33-.81 2.13 2.13 0 0 1 .02-.87zm6.95-.18a.5.5 0 0 1 .08-.2.54.54 0 0 1 .15-.15.5.5 0 0 1 .2-.08.54.54 0 0 1 .22 0 .46.46 0 0 1 .19.08.54.54 0 0 1 .15.15.68.68 0 0 1 .07.2.64.64 0 0 1-.09.41.67.67 0 0 1-.14.15.5.5 0 0 1-.2.08h-.21a.53.53 0 0 1-.34-.24.54.54 0 0 1-.08-.4zm-.67 3.17a.5.5 0 0 1 .08-.2.54.54 0 0 1 .15-.15.5.5 0 0 1 .2-.08.41.41 0 0 1 .22 0 .58.58 0 0 1 .35.24.54.54 0 0 1 .07.41.51.51 0 0 1-.24.35.54.54 0 0 1-.41.08.5.5 0 0 1-.2-.08.57.57 0 0 1-.15-.16.6.6 0 0 1-.08-.2.5.5 0 0 1 .01-.21zm-16.82 15.85l.42-.56a2.9 2.9 0 0 0 1.68 1c1 .2 1.43-.08 1.53-.56.29-1.34-3.22-1.19-2.79-3.23.18-.85 1-1.43 2.44-1.13a3.32 3.32 0 0 1 1.66.86l-.39.57a3 3 0 0 0-1.41-.76c-.94-.2-1.42.11-1.52.59-.28 1.34 3.22 1.2 2.79 3.22-.18.84-1 1.42-2.45 1.11a3.3 3.3 0 0 1-1.96-1.11zm9.88-1.6l-.88 4.16-.71-.15.13-.63a1.8 1.8 0 0 1-.74.38 1.75 1.75 0 0 1-.82 0 1.72 1.72 0 0 1-.7-.24 1.66 1.66 0 0 1-.78-1.21 1.69 1.69 0 0 1 .08-.74l.51-2.39.75.16-.49 2.31a1.12 1.12 0 0 0-.07.48 1 1 0 0 0 .15.46 1 1 0 0 0 .33.35 1 1 0 0 0 .45.17 1.1 1.1 0 0 0 .54 0 1.15 1.15 0 0 0 .51-.21 1.29 1.29 0 0 0 .37-.4 1.37 1.37 0 0 0 .16-.52l.46-2.15zm5.3 3.34a2.12 2.12 0 0 1-.91 1.41 2.07 2.07 0 0 1-1.65.27 1.75 1.75 0 0 1-1.33-1l-.14.66-.72-.15 1.23-5.89.76.16-.49 2.29a1.76 1.76 0 0 1 .75-.37 1.71 1.71 0 0 1 .84 0 2.16 2.16 0 0 1 .81.31 2.12 2.12 0 0 1 .61.62 2 2 0 0 1 .3.81 2.13 2.13 0 0 1-.06.88zm-.76-.16a1.42 1.42 0 0 0-.11-.81 1.38 1.38 0 0 0-.53-.62 1.43 1.43 0 0 0-2.18 1.44 1.33 1.33 0 0 0 .36.73 1.41 1.41 0 0 0 .7.42 1.52 1.52 0 0 0 .6 0 1.62 1.62 0 0 0 .56-.23 1.72 1.72 0 0 0 .41-.44 1.43 1.43 0 0 0 .19-.57zm-.36 3.42l.37-.52a1 1 0 0 0 .57.32c.4.09.67-.12.77-.6l.92-4.36.76.16-.92 4.35a1.33 1.33 0 0 1-.55.93 1.37 1.37 0 0 1-.52.2 1.28 1.28 0 0 1-.55 0 1.48 1.48 0 0 1-.85-.48zm2.77-6.47a.46.46 0 0 1 .08-.19.67.67 0 0 1 .15-.14.54.54 0 0 1 .19-.07.46.46 0 0 1 .2 0 .37.37 0 0 1 .18.08.38.38 0 0 1 .14.14.64.64 0 0 1 .08.19.46.46 0 0 1 0 .2.45.45 0 0 1-.22.32.56.56 0 0 1-.18.07h-.2a.44.44 0 0 1-.19-.07.67.67 0 0 1-.15-.14.77.77 0 0 1-.08-.19.5.5 0 0 1 0-.2zm5.3 4.9l-3.37-.69a1.44 1.44 0 0 0 .31 1 1.48 1.48 0 0 0 .93.52 1.73 1.73 0 0 0 .68 0 1.77 1.77 0 0 0 .63-.27l.31.57a2.25 2.25 0 0 1-1.26.38 2.28 2.28 0 0 1-1.26-.36 2.36 2.36 0 0 1-.86-1 2.33 2.33 0 0 1-.18-1.3 2.07 2.07 0 0 1 .31-.79 2 2 0 0 1 .59-.6 2.25 2.25 0 0 1 .79-.31 2 2 0 0 1 .84 0 1.92 1.92 0 0 1 .79.31 2.05 2.05 0 0 1 .6.61 1.92 1.92 0 0 1 .28.8 1.87 1.87 0 0 1-.07.85zm-3.26-1.26l2.67.57a1.37 1.37 0 0 0-.24-1 1.37 1.37 0 0 0-1.82-.39 1.36 1.36 0 0 0-.61.82zm3.98 1.15a2.2 2.2 0 0 1 .33-.81 2.25 2.25 0 0 1 .63-.6 2 2 0 0 1 .82-.3 2.13 2.13 0 0 1 .87 0 1.85 1.85 0 0 1 .92.42 1.8 1.8 0 0 1 .58.83l-.65.25a1.34 1.34 0 0 0-1-.84 1.48 1.48 0 0 0-1.08.25 1.51 1.51 0 0 0-.43 2 1.5 1.5 0 0 0 .89.67 1.42 1.42 0 0 0 .68 0 1.31 1.31 0 0 0 .58-.34l.49.48a1.87 1.87 0 0 1-.87.53 1.83 1.83 0 0 1-1 0 2.05 2.05 0 0 1-.82-.31 2.09 2.09 0 0 1-.62-.6 2 2 0 0 1-.33-.81 2.13 2.13 0 0 1 .01-.82zm6.86 3.42a1.44 1.44 0 0 1-1 .1 1.25 1.25 0 0 1-.5-.18 1.22 1.22 0 0 1-.37-.38 1.12 1.12 0 0 1-.18-.5 1.19 1.19 0 0 1 0-.53l.48-2.28-.7-.15.13-.62.7.15.2-.91.75.16-.19.91 1.19.25-.13.62-1.19-.25-.48 2.25a.66.66 0 0 0 0 .28.62.62 0 0 0 .09.26.61.61 0 0 0 .19.2.64.64 0 0 0 .26.1 1 1 0 0 0 .63-.07zm3.39-2.91a.5.5 0 0 1 .08-.2.57.57 0 0 1 .16-.15.6.6 0 0 1 .2-.08.5.5 0 0 1 .21 0 .46.46 0 0 1 .19.08.54.54 0 0 1 .15.15.68.68 0 0 1 .07.2.59.59 0 0 1-.23.56.72.72 0 0 1-.2.09.74.74 0 0 1-.21 0 .52.52 0 0 1-.2-.09.54.54 0 0 1-.15-.15.7.7 0 0 1-.08-.2.54.54 0 0 1 .01-.21zm-.67 3.17a.5.5 0 0 1 .08-.2.54.54 0 0 1 .15-.15.7.7 0 0 1 .2-.08.55.55 0 0 1 .54.85.67.67 0 0 1-.14.15.5.5 0 0 1-.2.08.74.74 0 0 1-.21 0 .5.5 0 0 1-.2-.08.57.57 0 0 1-.15-.16.6.6 0 0 1-.08-.2.5.5 0 0 1 .01-.21zm76.81-23.1c0 .16-17.66-3.44-39.37-8s-39.3-8.46-39.26-8.62 17.66 3.44 39.38 8 39.29 8.46 39.25 8.62zm31.32 25.38c0 .16-25.53-5.11-56.93-11.76s-56.85-12.17-56.82-12.33 25.52 5.11 56.94 11.76 56.84 12.17 56.81 12.33zm-45.83 8.89a1.65 1.65 0 0 1-.54-.05l-1.5-.26-5.52-1.07c-4.66-.94-11.09-2.26-18.18-3.76s-13.5-2.9-18.13-3.93l-5.49-1.26-1.48-.37a1.8 1.8 0 0 1-.51-.17 2.35 2.35 0 0 1 .53 0l1.51.27 5.52 1.07c4.66.93 11.09 2.26 18.18 3.76s13.5 2.89 18.13 3.93l5.48 1.25 1.49.38a2.28 2.28 0 0 1 .51.21z"/><path class="cls-18" d="M1329.35 145.05c0 .16-66.14-13.7-147.63-31s-147.55-31.38-147.51-31.54 66.12 13.7 147.64 31 147.53 31.38 147.5 31.54zm4.11-19.42c0 .16-66.16-13.7-147.68-31s-147.61-31.39-147.57-31.55 66.14 13.7 147.69 31 147.6 31.4 147.56 31.55zm3.61-17.03c0 .15-66.14-13.71-147.63-31s-147.55-31.34-147.51-31.5 66.12 13.7 147.64 31 147.53 31.34 147.5 31.5z"/><path class="cls-5" d="M1065.77 114a77.63 77.63 0 0 1-9.43-1.69A78.61 78.61 0 0 1 1047 110a79.61 79.61 0 0 1 9.43 1.69 78.61 78.61 0 0 1 9.34 2.31zm58.66 27.08c0 .16-18-3.52-40.25-8.22s-40.16-8.64-40.13-8.8 18.06 3.52 40.26 8.22 40.16 8.64 40.12 8.8z"/><path class="cls-4" d="M1292.59 201.74h-82.77a6.45 6.45 0 0 1-6.45-6.45v-55.9a2.94 2.94 0 0 1 2.93-2.93h89.82a2.94 2.94 0 0 1 2.93 2.93v55.9a6.42 6.42 0 0 1-1.89 4.56 6.44 6.44 0 0 1-2.1 1.4 6.33 6.33 0 0 1-2.47.49z"/><path class="cls-5" d="M1209.83 201.74h-.21a3 3 0 0 1-.6-.05 6.85 6.85 0 0 1-2.24-.73 6.47 6.47 0 0 1-2.64-2.72 6.2 6.2 0 0 1-.68-2.33c-.06-.87 0-1.81 0-2.8 0-8 0-19.44.06-33.63V139.4a2.8 2.8 0 0 1 1.48-2.4 2.94 2.94 0 0 1 1.45-.33h89.16a5.57 5.57 0 0 1 1 0 2.76 2.76 0 0 1 1.6.93 2.68 2.68 0 0 1 .66 1.73v56.53a6.18 6.18 0 0 1-1.15 3.12 6.43 6.43 0 0 1-2.54 2.08 7.12 7.12 0 0 1-3.22.55h-36.16l-33.63.06 33.63.06h36.2a7.4 7.4 0 0 0 3.35-.58 6.6 6.6 0 0 0 3.89-5.46v-56.36a3.1 3.1 0 0 0-2.56-3 6.7 6.7 0 0 0-1-.05h-89.16a3.16 3.16 0 0 0-1.59.37 3 3 0 0 0-1.61 2.65v20.15c0 14.19 0 25.68.06 33.63v2.81a6.38 6.38 0 0 0 .71 2.37 6.58 6.58 0 0 0 2.7 2.73 6.2 6.2 0 0 0 2.26.7 6.81 6.81 0 0 0 .78.05z"/><path class="cls-4" d="M1242.93 201.74h16.61s5.12 8.53 0 13.64h-17.18s8.47-5.55.57-13.64z"/><g class="cls-15"><path d="M1259.54 201.74l.85 1.69-15.23 1.19s-1.26-1.8-2.23-2.88z" class=""/></g><path class="cls-7" d="M1249.18 197.28a1.88 1.88 0 1 0-1.88-1.88 1.88 1.88 0 0 0 1.88 1.88zm45.29-57.22H1208v49.79h86.51z"/><path class="cls-5" d="M1208 189.84v-13.5c0-8.62 0-21.05.08-36.31l-.14.13h86.5l-.18-.17v49.78l.17-.16-62.22.08h-17.91l17.83.05 62.33.08h.16v-50.13h-86.82v.14c0 15.29.06 27.75.07 36.4v12.51a5.11 5.11 0 0 0 .13 1.1z"/><path class="cls-4" d="M1273.13 188.63h20.36v-44.35h-20.36z"/><g class="cls-11"><path d="M1273.15 165h20.35v-4h-20.35z" class=""/></g><g class="cls-11"><path d="M1273.15 173.14h20.35v-4h-20.35z" class=""/></g><g class="cls-11"><path d="M1273.15 183.23h20.35v-4.39h-20.35z" class=""/></g><path class="cls-5" d="M1276.68 167.11a119.08 119.08 0 0 0 13.09 0 119.08 119.08 0 0 0-13.09 0zm0-4.11a124.25 124.25 0 0 0 13.09 0 119.08 119.08 0 0 0-13.09 0zm-3.54 20.24c0 .1 4.51.18 10.08.18s10.09-.08 10.09-.18-4.52-.18-10.09-.18-10.08.08-10.08.18zm6.64-11.95a69.53 69.53 0 0 0 10 0 72.55 72.55 0 0 0-10 0zm-1.41 9.28a72.55 72.55 0 0 0 10 0 69.53 69.53 0 0 0-10 0zm-1.69-4.69a119.08 119.08 0 0 0 13.09 0 119.08 119.08 0 0 0-13.09 0zm0 9.96a124.25 124.25 0 0 0 13.09 0 119.08 119.08 0 0 0-13.09 0z"/><path class="cls-7" d="M1278.74 152.11a4.84 4.84 0 0 0 2.47 4.22V155a2.32 2.32 0 0 1 .72-1.52 2.26 2.26 0 0 1 1.56-.62 2.29 2.29 0 0 1 1.57.62 2.32 2.32 0 0 1 .72 1.52v1.48a4.87 4.87 0 0 0 1.91-1.69 4.92 4.92 0 0 0 .78-2.43 4.86 4.86 0 0 0-4.74-5.08 5 5 0 0 0-2.48.62 4.88 4.88 0 0 0-1.81 1.8 4.71 4.71 0 0 0-.66 2.46zm3-1.5a1.69 1.69 0 0 1 .29-1 1.73 1.73 0 0 1 .76-.63 1.71 1.71 0 0 1 2.34 1.25 1.73 1.73 0 0 1-.1 1 1.68 1.68 0 0 1-3.24-.65z"/><path class="cls-4" d="M1283.5 152.67a2.29 2.29 0 0 1 2.28 2.28v1.48a4.78 4.78 0 0 1-2.19.53 4.87 4.87 0 0 1-2.38-.63V155a2.26 2.26 0 0 1 .16-.89 2.36 2.36 0 0 1 .49-.76 2.19 2.19 0 0 1 .75-.5 2.28 2.28 0 0 1 .89-.18zm0-3.77a1.71 1.71 0 0 1 1.58 1.06 1.73 1.73 0 0 1 .1 1 1.71 1.71 0 0 1-2.34 1.25 1.73 1.73 0 0 1-.76-.63 1.69 1.69 0 0 1-.29-.95 1.71 1.71 0 0 1 1.71-1.71z"/><path class="cls-7" d="M1278.71 152.11a4.58 4.58 0 0 1 .22-1.17 4.83 4.83 0 0 1 3.92-3.48 4.73 4.73 0 0 1 4.48 1.89 4.68 4.68 0 0 1 0 5.52 4.74 4.74 0 0 1-4.64 1.86 4.76 4.76 0 0 1-2-.86 4.92 4.92 0 0 1-1.77-2.59c-.2-.74-.18-1.17-.22-1.17a.81.81 0 0 0 0 .31 3.8 3.8 0 0 0 .11.89 4.88 4.88 0 0 0 3.84 3.71 5 5 0 0 0 5-1.94 5.15 5.15 0 0 0 .91-2.12 4.94 4.94 0 0 0-8-4.76 4.89 4.89 0 0 0-1.75 2.75 3.8 3.8 0 0 0-.11.89.82.82 0 0 0 .01.27z"/><path class="cls-17" d="M1209.38 165.08h63.75v-6h-63.75z"/><path class="cls-19" d="M1209.38 147.26h63.75v-3h-63.75z"/><path class="cls-18" d="M1227.83 146.33h43.05a.49.49 0 0 0 .49-.49v-.19a.49.49 0 0 0-.49-.49h-43.05a.49.49 0 0 0-.49.49v.19a.49.49 0 0 0 .49.49zm-6.15 0h2.87a.49.49 0 0 0 .49-.49v-.19a.49.49 0 0 0-.49-.49h-2.87a.49.49 0 0 0-.49.49v.19a.49.49 0 0 0 .49.49zm-3.01-.76h.48v-.48h-.48zm0 .64h.48v-.48h-.48zm-.75-.64h.48v-.48h-.48zm0 .64h.48v-.48h-.48zm-8.54 7.02h63.75v-6h-63.75z"/><path class="cls-4" d="M1269.57 151h1.8v-1.8h-1.8z"/><path class="cls-5" d="M1241.68 150.11c0 .09 5.86.17 13.07.17s13.07-.08 13.07-.17-5.85-.18-13.07-.18-13.07.07-13.07.18zm-24.62-.05a6.09 6.09 0 0 0 2.94 0 6.09 6.09 0 0 0-2.94 0z"/><path class="cls-7" d="M1209.38 171h63.75v-6h-63.75z"/><path class="cls-4" d="M1269.8 168.78h1.82V167h-1.82z"/><path class="cls-5" d="M1241.64 167.87c0 .1 5.91.18 13.2.18s13.19-.08 13.19-.18-5.91-.18-13.19-.18-13.2.08-13.2.18zm-24.86-.05a6.09 6.09 0 0 0 3 0 6.34 6.34 0 0 0-3 0z"/><path class="cls-18" d="M1209.38 176.87h63.75v-6h-63.75z"/><path class="cls-4" d="M1269.8 174.66h1.82v-1.8h-1.82z"/><path class="cls-5" d="M1241.64 173.75c0 .1 5.91.18 13.2.18s13.19-.08 13.19-.18-5.91-.18-13.19-.18-13.2.08-13.2.18zm-24.86-.05a6.09 6.09 0 0 0 3 0 6.34 6.34 0 0 0-3 0z"/><path class="cls-7" d="M1209.38 182.75h63.75v-6h-63.75z"/><path class="cls-4" d="M1269.8 180.53h1.82v-1.8h-1.82z"/><path class="cls-5" d="M1241.64 179.63c0 .09 5.91.17 13.2.17s13.19-.08 13.19-.17-5.91-.18-13.19-.18-13.2.08-13.2.18zm-24.86-.05a6.34 6.34 0 0 0 3 0 6.34 6.34 0 0 0-3 0z"/><path class="cls-17" d="M1209.38 188.62h63.75v-6h-63.75z"/><path class="cls-4" d="M1269.8 186.41h1.82v-1.8h-1.82z"/><path class="cls-5" d="M1241.64 185.5c0 .1 5.91.18 13.2.18s13.19-.08 13.19-.18-5.91-.17-13.19-.17-13.2.08-13.2.17zm-24.86-.05a6.09 6.09 0 0 0 3 0 6.61 6.61 0 0 0-3 0z"/><path class="cls-7" d="M1209.38 159.12h63.76v-6h-63.76z"/><path class="cls-4" d="M1269.57 156.9h1.8v-1.8h-1.8z"/><path class="cls-5" d="M1252.86 156c0 .09 3.35.17 7.48.17s7.48-.08 7.48-.17-3.35-.18-7.48-.18-7.48.08-7.48.18zm-35.8.17a6.09 6.09 0 0 0 2.94 0 6.09 6.09 0 0 0-2.94 0zm0 5.83a6.09 6.09 0 0 0 2.94 0 6.09 6.09 0 0 0-2.94 0z"/><path class="cls-4" d="M1269.57 162.86h1.8v-1.8h-1.8z"/><path class="cls-5" d="M1231.78 162c0 .1 8.07.18 18 .18s18-.08 18-.18-8.07-.17-18-.17-18 .03-18 .17zm58.88-19.2a.55.55 0 1 0 .16-.38.55.55 0 0 0-.16.38zm-2.12 0a.55.55 0 1 0 .16-.38.55.55 0 0 0-.16.38zm-2.12 0a.55.55 0 1 0 .16-.38.55.55 0 0 0-.16.38z"/><path class="cls-5" d="M1209.39 188.62c0-1.09 0-18.35.08-47.35l-.08.09h84.1l-.11-.11v47.35l.1-.1-84.11.1 84.11.1h.1v-47.53h-84.3v.08c.07 29.02.1 46.28.11 47.37z"/><path class="cls-6" d="M1168.27 324.3h5.14l11.47-103h-6.75zm32.51 0h5.14l11.55-103h-6.75z"/><path class="cls-6" d="M1166.69 221.33h181.22v-6h-181.22z"/><path class="cls-5" d="M1310.3 324.3h-5.14l-11-103h6.74zm44.1 0h-5.14l-11.55-103h6.75z"/><path class="cls-5" d="M1347.91 215.38h-55.83v6h55.83zm-119.91 0h38.55v-1.78H1228z"/></g></svg>