<svg width="378" height="151" fill="none" xmlns="http://www.w3.org/2000/svg"><path opacity=".2" d="M0 70C0 31.34 31.34 0 70 0h56.928c8.151 0 14.759 6.608 14.759 14.759v54.398c0 39.125-32.142 70.843-71.268 70.843C31.76 140 0 108.66 0 70z" fill="#118AF7"/><circle opacity=".4" cx="69.156" cy="69.156" r="57.63" fill="#118AF7"/><circle cx="69.147" cy="69.157" r="46.104" fill="#118AF7"/><path d="M81.644 64.683c3.444 1.988 3.444 6.959 0 8.947L66.78 82.212c-3.444 1.988-7.749-.497-7.749-4.474V60.576c0-3.977 4.305-6.462 7.749-4.474l14.864 8.582zM229.51 78.618a6.945 6.945 0 0 1-1.288-.445c-.379-.188-.612-.54-.7-1.058-.023-.135-.004-.228.056-.28a.476.476 0 0 0 .136-.222c.033-.072.103-.206.209-.4.105-.195.22-.402.344-.622.121-.242.234-.46.339-.655l.204-.434a10.06 10.06 0 0 0-.246-1.039 6.735 6.735 0 0 1-.167-1.184c.003-.39.085-.72.247-.99.159-.291.476-.463.952-.515a.936.936 0 0 1 .732.23c.212.16.455.226.727.196l.136-.014a20.665 20.665 0 0 1 2.536-2.2c.903-.67 1.966-1.072 3.191-1.204.794-.086 1.481.08 2.06.498.598.394.968 1.006 1.11 1.838.176 1.035.12 2.13-.169 3.283a18.032 18.032 0 0 1-1.252 3.434 24.517 24.517 0 0 1-1.815 3.186 46.7 46.7 0 0 1-1.838 2.639c-.052.097-.137.21-.254.337-.121.105-.229.22-.323.344a6.142 6.142 0 0 0-.373.453l1.048 7.79c.034.201.059.416.075.644.038.225.027.432-.033.622a.857.857 0 0 1-.26.51c-.113.149-.306.238-.578.268-.136.015-.323 0-.561-.042a2.366 2.366 0 0 1-.687-.166 2.67 2.67 0 0 1-.613-.346.863.863 0 0 1-.296-.518l-2.649-13.938zm3.526 1.782l.136-.014c.023-.003.079-.078.17-.225.113-.15.233-.323.362-.52.15-.2.29-.398.418-.595.147-.222.256-.395.328-.517a8.405 8.405 0 0 0 1.556-2.058c.44-.804.768-1.595.982-2.374.233-.804.331-1.514.296-2.128-.013-.618-.185-1.023-.519-1.216-.314-.218-.798-.142-1.451.226-.631.367-1.446 1.142-2.446 2.327-.234.254-.439.54-.616.857a1.889 1.889 0 0 0-.242 1.023l1.026 5.214zm12.061 1.236c-.183-.805-.446-1.876-.789-3.213a164.218 164.218 0 0 0-1.064-4.214c-.362-1.45-.722-2.82-1.08-4.11-.358-1.29-.644-2.289-.857-2.999-.05-.292.054-.498.311-.618s.51-.192.759-.22c.318-.034.662.02 1.033.164.393.14.662.363.807.668.015.09.055.258.12.503.061.222.112.457.154.704l.195.735c.061.223.099.379.114.469l.052.303.034.203a.6.6 0 0 0 .063.165c.034.065.087.174.159.326.038-.05.074-.11.108-.183l.113-.15c.275-.557.55-1.044.825-1.464.271-.442.56-.85.865-1.227.302-.4.636-.814 1.002-1.243.385-.454.828-.971 1.33-1.553a3.63 3.63 0 0 1 .266-.269.652.652 0 0 1 .147-.153.347.347 0 0 1 .192-.09.88.88 0 0 1 .267-.063c.385-.042.794.051 1.226.28.45.203.713.529.79.979a.927.927 0 0 1-.084.524c-.087.17-.196.342-.328.517a3.921 3.921 0 0 1-.447.426c-.14.13-.274.225-.402.284a30.671 30.671 0 0 0-1.567 1.991 17.127 17.127 0 0 0-1.476 2.325 11.51 11.51 0 0 0-.988 2.546 6.113 6.113 0 0 0-.119 2.556c.13.765.315 1.512.555 2.242.239.73.424 1.477.554 2.242l.201 1.181c-.151.2-.285.363-.402.49-.116.127-.3.205-.549.232-.386.041-.787-.075-1.203-.351-.421-.298-.716-.61-.887-.935zm23.454-10.822c.024.41.021.73-.009.963-.007.23-.064.442-.169.637a3.202 3.202 0 0 1-.481.636c-.219.207-.513.514-.883.92-.373.385-.83.892-1.369 1.523a53.067 53.067 0 0 0-1.941 2.444l-.945 1.168a9.315 9.315 0 0 1-1.058 1.11 6.587 6.587 0 0 1-1.178.816c-.423.229-.884.37-1.383.424-.976.106-1.746-.143-2.31-.746-.565-.603-.92-1.332-1.065-2.187a25.481 25.481 0 0 1-.208-1.42c-.019-.388-.013-.892.02-1.514a54.121 54.121 0 0 0-.744-.504 1.032 1.032 0 0 1-.393-.679c-.046-.27-.02-.456.079-.558a.996.996 0 0 1 .413-.217c.174-.064.336-.128.488-.19a.48.48 0 0 0 .294-.307c.022-.14.06-.396.112-.768.075-.374.148-.76.219-1.157l.184-1.154c.075-.375.124-.632.146-.772.094-.4.199-.8.316-1.202.135-.427.3-.812.496-1.154.219-.344.481-.636.787-.875.328-.242.731-.389 1.207-.44.272-.03.622.058 1.05.264.45.203.888.465 1.312.785.42.299.788.625 1.102.98.315.356.495.668.541.938.057.338.032.661-.077.97a3.546 3.546 0 0 1-.481.843c-.188.25-.402.49-.639.722-.238.232-.455.45-.651.655-.023.002-.065.03-.125.082-.06.053-.111.093-.153.12a46.845 46.845 0 0 0-.339.449l-.227.3a1.738 1.738 0 0 1-.107.183 4.474 4.474 0 0 1-.351.381 23.93 23.93 0 0 0-.532.54c-.2.181-.389.362-.566.542a9.384 9.384 0 0 1-.328.31l-.09.285c-.031.095-.041.302-.033.622.027.294.05.636.07 1.023.02.387.041.786.065 1.195.042.385.084.701.126.949.004.022.019.044.046.064.053.04.091.058.113.056.182-.02.339-.117.471-.291a1.33 1.33 0 0 1 .453-.393l4.594-5.583 1.033-2.277c.087-.17.274-.362.561-.576.305-.24.628-.377.969-.414.336-.06.648.01.936.208.31.195.521.619.632 1.271zm-7.933-1.82c.098-.103.121-.243.067-.42a.968.968 0 0 0-.284-.45.567.567 0 0 0-.415-.196c-.166-.028-.3.067-.402.284-.053.097-.147.291-.282.58a38.4 38.4 0 0 1-.367.9 36.37 36.37 0 0 0-.288.752c-.079.215-.088.296-.028.244l1.999-1.695zm15.402 9.463l-.052-.303a.56.56 0 0 1 .124-.288c.215-.367.462-.75.741-1.146.275-.42.541-.826.797-1.22.253-.417.48-.843.684-1.277a7.76 7.76 0 0 0 .474-1.288l-.035-.203-4.302 1.394-.51.056c-.318.034-.719.055-1.203.061a7.547 7.547 0 0 1-1.407-.122 3.956 3.956 0 0 1-1.231-.52c-.341-.238-.55-.582-.626-1.031-.066-.52.109-1.123.523-1.81.415-.686.922-1.37 1.522-2.054.6-.684 1.207-1.322 1.822-1.916a90.51 90.51 0 0 1 1.529-1.402c.43-.322.961-.597 1.592-.826.627-.25 1.213-.406 1.758-.465.453-.05.865-.002 1.236.14.367.122.593.43.677.924.035.203.044.396.03.581.008.182-.107.32-.346.415a5.46 5.46 0 0 0-2.012.39 6.21 6.21 0 0 0-1.677.938c-.51.399-.974.861-1.393 1.388-.422.504-.83 1.029-1.222 1.575a8.026 8.026 0 0 0-.395.73c-.158.292-.234.46-.226.506l.006.034a8.745 8.745 0 0 0 1.706-.357c.571-.177 1.13-.352 1.678-.526a58.59 58.59 0 0 1 1.672-.559 9.448 9.448 0 0 1 1.775-.364 4.7 4.7 0 0 1 .76-.013c.276-.007.537.033.783.12.268.086.488.223.658.41.19.163.309.39.359.683.073.428.03.856-.128 1.285-.139.405-.376.912-.711 1.52a50.856 50.856 0 0 1-1.261 2.165 62.627 62.627 0 0 0-1.763 3.283c-.034.072-.139.13-.317.172-.155.04-.289.066-.403.078-.317.034-.669-.065-1.055-.298-.364-.236-.574-.522-.631-.86zm14.017-1.518a144.2 144.2 0 0 1-.051-.304.56.56 0 0 1 .124-.288c.215-.367.462-.749.741-1.146.275-.419.541-.826.797-1.22.252-.417.48-.842.684-1.277.203-.434.361-.863.474-1.288l-.035-.202-4.302 1.393-.51.056c-.318.034-.719.055-1.203.061a7.556 7.556 0 0 1-1.407-.122 3.97 3.97 0 0 1-1.232-.52c-.34-.237-.549-.581-.626-1.031-.065-.52.11-1.123.524-1.81.415-.686.922-1.37 1.522-2.054.6-.683 1.207-1.322 1.822-1.916a90.94 90.94 0 0 1 1.529-1.402c.43-.322.961-.597 1.592-.825.627-.252 1.213-.407 1.757-.466.454-.049.866-.002 1.237.141.367.12.593.428.677.923.034.203.044.396.03.581.008.183-.108.321-.346.415a5.456 5.456 0 0 0-2.012.39 6.207 6.207 0 0 0-1.677.938c-.51.399-.974.861-1.393 1.388-.422.504-.83 1.029-1.222 1.575a8.022 8.022 0 0 0-.395.73c-.159.292-.234.461-.226.506l.006.034a8.745 8.745 0 0 0 1.706-.357c.571-.176 1.13-.352 1.678-.525a58.583 58.583 0 0 1 1.672-.56 9.432 9.432 0 0 1 1.775-.364c.226-.024.48-.029.76-.013.276-.007.537.033.783.121.268.085.488.222.658.41.19.162.309.39.359.683.073.427.03.855-.128 1.285-.139.404-.376.91-.711 1.52a50.924 50.924 0 0 1-1.261 2.164 62.636 62.636 0 0 0-1.763 3.283c-.034.073-.139.13-.317.172-.155.04-.289.066-.403.078-.317.034-.669-.065-1.055-.298-.364-.236-.574-.522-.632-.86zm-25.893 25.202a1.486 1.486 0 0 0-.81.328c-.223.185-.505.295-.845.332l-.374.041a3.935 3.935 0 0 0-.346.003 1.254 1.254 0 0 0-.352-.237l-.375-.165a2.146 2.146 0 0 1-.358-.271c-.087-.105-.148-.259-.182-.461a.913.913 0 0 1 .27-.854c.234-.254.519-.48.855-.677.337-.197.675-.382 1.015-.556.362-.177.642-.368.838-.572l-.253-1.485a54.236 54.236 0 0 0-1.087-4.967 54.872 54.872 0 0 1-1.088-4.968c-.077-.45-.013-.754.191-.914.204-.16.498-.26.884-.302.454-.049.806.05 1.056.298.269.223.481.52.637.893.152.35.264.739.337 1.166.069.405.139.753.212 1.043.049.292.16.807.332 1.544.171.737.351 1.52.538 2.347.187.827.366 1.61.538 2.347.171.737.293 1.251.366 1.541a6.05 6.05 0 0 0 .481-.224c.253-.142.52-.274.799-.396.276-.144.531-.275.765-.392.257-.12.438-.208.544-.265a55.155 55.155 0 0 0 1.7-1.009 4.146 4.146 0 0 1 1.859-.682c.453-.05.82.071 1.101.361.299.266.483.6.552 1.006.05.292-.027.518-.231.678a6.66 6.66 0 0 1-.651.448l-5.803 2.965-.181.157a.51.51 0 0 0-.181.157l.184 1.08c.134.787.285 1.607.453 2.459.187.828.404 1.629.651 2.404.229.662.466 1.312.713 1.95.247.637.428 1.293.543 1.968.035.203.012.48-.066.832-.079.352-.266.544-.561.576-.612.066-1.142-.059-1.589-.377-.446-.319-.744-.779-.893-1.381-.312-1.158-.655-2.426-1.029-3.806-.35-1.382-.691-2.708-1.023-3.978l-.136.015zm12.638 3.407l-.216-8.808c-.004-.297.084-.524.265-.681.204-.16.442-.254.714-.284.499-.054.921.05 1.266.31.341.238.647.548.92.931l.035-.004a1.7 1.7 0 0 0 .691-.212c.208-.137.47-.223.788-.257.726-.079 1.376.08 1.952.475a5.63 5.63 0 0 1 1.54 1.517 8.175 8.175 0 0 1 1.031 1.985c.285.725.475 1.368.571 1.931.115.674.061 1.447-.16 2.319a9.076 9.076 0 0 1-.993 2.513 7.723 7.723 0 0 1-1.624 2.066c-.641.573-1.336.9-2.085.981-.68.074-1.297-.019-1.85-.28a4.679 4.679 0 0 1-1.391-1.052 6.067 6.067 0 0 1-.928-1.583 8.528 8.528 0 0 1-.508-1.766l-.018-.101zm2.893-.108c.083.22.173.474.268.762.095.287.209.55.342.787.129.215.284.382.466.5.201.092.45.065.748-.082.249-.301.515-.64.798-1.014a9.95 9.95 0 0 0 .769-1.183c.253-.416.445-.85.576-1.299.132-.449.157-.91.077-1.383-.04-.774-.215-1.465-.526-2.073-.315-.63-.689-1.06-1.12-1.287-.413-.254-.838-.242-1.276.035-.442.254-.821.879-1.137 1.875-.172.615-.248 1.321-.228 2.121.039.774.115 1.488.226 2.14l.017.101zm23.389-3.668a6.93 6.93 0 0 1-1.288-.444c-.379-.188-.612-.541-.7-1.058-.023-.135-.004-.229.056-.281a.476.476 0 0 0 .136-.221c.034-.073.103-.206.209-.4.105-.195.22-.403.344-.622.121-.242.234-.46.339-.655l.204-.435a10.06 10.06 0 0 0-.246-1.038 6.736 6.736 0 0 1-.167-1.185c.003-.39.085-.72.247-.989.159-.292.476-.464.952-.515a.933.933 0 0 1 .732.23.99.99 0 0 0 .727.196l.136-.015a20.6 20.6 0 0 1 2.537-2.199c.902-.67 1.966-1.072 3.19-1.205.794-.086 1.481.08 2.06.499.599.393.968 1.006 1.11 1.838.176 1.035.12 2.129-.169 3.283a18.032 18.032 0 0 1-1.252 3.434 24.378 24.378 0 0 1-1.815 3.186 47.152 47.152 0 0 1-1.838 2.639 1.736 1.736 0 0 1-.254.336c-.121.105-.228.22-.323.345a6.222 6.222 0 0 0-.373.452l1.048 7.79c.034.202.059.417.075.644.038.225.027.433-.033.622a.854.854 0 0 1-.26.51c-.113.149-.306.239-.578.268a2.068 2.068 0 0 1-.561-.042 2.363 2.363 0 0 1-.687-.166 2.666 2.666 0 0 1-.613-.346.863.863 0 0 1-.296-.518l-2.649-13.938zm3.526 1.783l.136-.015c.023-.002.079-.077.17-.224.113-.15.234-.323.362-.521.151-.199.29-.398.418-.595.147-.222.257-.394.328-.516a8.415 8.415 0 0 0 1.556-2.059c.441-.803.768-1.595.982-2.374.233-.804.331-1.513.296-2.128-.012-.617-.185-1.022-.518-1.215-.315-.218-.799-.143-1.452.226-.631.366-1.446 1.142-2.446 2.326-.233.255-.439.54-.616.858a1.889 1.889 0 0 0-.242 1.022l1.026 5.215zm10.647.461a55.915 55.915 0 0 1-.403-2.774 54.999 54.999 0 0 0-.402-2.774 215.571 215.571 0 0 1-1.348-7.516 74.63 74.63 0 0 0-1.632-7.554c-.073-.427-.019-.72.163-.877.177-.18.47-.291.878-.335.522-.057.991.052 1.407.328.436.25.711.645.825 1.182a194.752 194.752 0 0 0 1.721 9.503 224.818 224.818 0 0 1 1.823 9.492l.442 2.598a2.492 2.492 0 0 1-.487.603c-.219.207-.457.301-.714.283-.677-.041-1.197-.248-1.561-.621-.367-.395-.605-.908-.712-1.538zm11.662-8.445c-.143.382-.307.847-.491 1.394l-.541 1.708a25.86 25.86 0 0 1-.694 1.827 12.66 12.66 0 0 1-.825 1.67 6.859 6.859 0 0 1-.95 1.34c-.355.359-.742.596-1.161.71-.182.02-.388.03-.618.033a8.436 8.436 0 0 1-.71-.095 2.228 2.228 0 0 1-.635-.275.965.965 0 0 1-.308-.585c-.368-2.297-.551-4.396-.552-6.297-.003-1.924.214-3.631.654-5.122.435-1.513 1.106-2.8 2.011-3.86s2.084-1.875 3.534-2.445l.239-.025c.132-.038.221-.059.266-.064.677-.096 1.218.166 1.624.787.425.595.824 1.582 1.197 2.962.392 1.355.797 3.12 1.213 5.298a295.251 295.251 0 0 0 1.7 7.753c.111.24.181.45.212.63.053.177.101.39.143.637.057.337-.001.607-.175.809-.177.18-.424.287-.742.321-.658.071-1.153-.058-1.487-.389-.333-.33-.597-.794-.791-1.391-.004-.023-.057-.2-.16-.533-.08-.335-.19-.712-.331-1.132l-.366-1.335a48.78 48.78 0 0 1-.291-1.102l-.023-.135a6.847 6.847 0 0 1-.246-.833 7.049 7.049 0 0 0-.234-.97c-.111-.378-.21-.757-.298-1.137l-.164-.154zm-1.886-6.599c-.535.517-1.033 1.189-1.493 2.018-.46.828-.753 1.616-.88 2.363-.056.35-.102.824-.139 1.424a49.19 49.19 0 0 0-.076 1.794c.005.573.016 1.11.032 1.612.012.48.03.787.053.922.023-.002.041-.027.057-.075l.084-.112c1.177-1.502 1.917-3.06 2.22-4.673.322-1.639.369-3.396.142-5.273zm17.518 23.941a29.623 29.623 0 0 1-.394-1.709l-.362-2.126-.385-2.26a50.298 50.298 0 0 1-.253-2.103l-.207-1.215a4.134 4.134 0 0 0-.489-.428c-.189-.163-.53-.469-1.023-.92a436.922 436.922 0 0 1-2.051-2.08 243.663 243.663 0 0 1-3.644-3.9c-.56-.443-.936-.815-1.125-1.115-.194-.323-.285-.588-.274-.795a.573.573 0 0 1 .266-.475 1.38 1.38 0 0 1 .555-.198c.454-.05.879.008 1.277.17.397.164.77.387 1.118.67.349.283.669.603.961.961.31.333.608.656.892.969.171.187.385.427.643.72l.773.879c.254.27.468.51.642.72l.296.312.483.394-.603-3.542a78.405 78.405 0 0 0-.625-3.266 81.118 81.118 0 0 1-.625-3.265.954.954 0 0 1 .208-.813c.193-.227.45-.346.771-.358.393.003.688.04.885.11.22.068.454.226.704.474.224.227.353.511.388.851.057.337.124.662.2.975.455 2.127.886 4.256 1.295 6.388.428 2.107.824 4.229 1.187 6.365.012.205.069.611.173 1.219l.361 2.125c.157.785.308 1.605.453 2.459.169.853.312 1.627.431 2.325.145.717.255 1.301.332 1.75.103.47.164.693.183.668.057.337-.025.598-.248.783-.2.182-.47.291-.811.328-.453.049-.805.018-1.055-.092a1.273 1.273 0 0 1-.562-.454 2.35 2.35 0 0 1-.359-.683 4.549 4.549 0 0 0-.382-.818zM163.613 98.776c2.534 3.104 4.975 6.073 7.406 9.049.487.591.83 1.008 1.348 1.855.389.624 1.194 1.967.583 2.244-.531.164-.934.197-1.856-.744-2.372-2.445-4.455-5.247-6.534-8.016-1.834-2.446-3.204-4.34-4.729-6.604-.712-1.057-.538-1.814.336-2.264.785-.405 1.584-.837 2.436-1.049 3.067-.785 6.149-1.47 9.237-2.196.383-.093.674-.193 1.15-.225.579-.031.994-.093 1.195.558.197.617-.433 1.038-.794 1.17-2.981 1.186-9.178 3.506-9.476 3.722 1.848 1.084 3.544 2.13 5.28 3.073 12.116 6.494 24.424 11.961 37.347 14.033 10.23 1.64 20.308 1.835 30.223.183a14.234 14.234 0 0 1 1.779-.144c.793-.039 1.227.108 1.32.597.071.93-.445 1.12-.841 1.315-.785.404-1.673.605-2.533.804-11.539 2.518-23.35 1.768-35.307-.822-12.271-2.658-23.848-8.396-35.164-15.269-.588-.388-2.101-1.195-2.406-1.27z" fill="#fff"/></svg>