<svg width="261" height="299" fill="none" xmlns="http://www.w3.org/2000/svg"><path opacity=".2" d="M92.006 83c0-45.84 37.161-83 83-83h67.5c9.665 0 17.5 7.835 17.5 17.5V82c0 46.392-38.111 84-84.503 84-45.839 0-83.497-37.16-83.497-83z" fill="#118AF7"/><circle opacity=".4" cx="174.005" cy="81.999" r="68.333" fill="#118AF7"/><circle cx="173.995" cy="82" r="54.667" fill="#118AF7"/><path d="M188.812 76.695c4.084 2.358 4.084 8.252 0 10.61L171.187 97.48c-4.083 2.358-9.187-.59-9.187-5.304V71.824c0-4.715 5.104-7.662 9.187-5.304l17.625 10.175z" fill="#fff"/><path d="M4.534 249.867a6.479 6.479 0 0 1-1.265-.415c-.37-.18-.59-.53-.66-1.05-.019-.136.003-.231.064-.285a.52.52 0 0 0 .142-.227c.036-.074.11-.21.221-.41.111-.199.232-.411.363-.636.127-.248.246-.471.358-.67l.216-.444a9.807 9.807 0 0 0-.211-1.042 6.812 6.812 0 0 1-.127-1.192c.015-.393.108-.728.278-1.005.166-.298.487-.48.962-.545a.88.88 0 0 1 .72.214.93.93 0 0 0 .715.179l.135-.019a22.557 22.557 0 0 1 2.591-2.286c.918-.7 1.988-1.133 3.208-1.299.792-.107 1.468.043 2.03.45.581.382.929.991 1.043 1.827.14 1.04.05 2.146-.275 3.319a19.46 19.46 0 0 1-1.356 3.499 26.814 26.814 0 0 1-1.905 3.264 51.83 51.83 0 0 1-1.911 2.711 1.95 1.95 0 0 1-.264.347 2.44 2.44 0 0 0-.332.356c-.12.131-.249.287-.385.467l.787 7.836c.028.204.046.42.054.649.03.226.013.436-.053.629a.932.932 0 0 1-.274.521c-.118.154-.312.249-.583.286a2.003 2.003 0 0 1-.557-.028 2.2 2.2 0 0 1-.676-.15 2.434 2.434 0 0 1-.598-.333.82.82 0 0 1-.277-.515l-2.178-14.003zm3.444 1.708l.136-.018c.022-.003.081-.08.176-.231.117-.154.242-.332.376-.535.156-.205.301-.409.435-.611.153-.228.268-.405.343-.53a9.203 9.203 0 0 0 1.611-2.119c.464-.823.815-1.63 1.053-2.422.258-.818.379-1.537.364-2.156.007-.623-.151-1.027-.476-1.214-.305-.212-.788-.123-1.449.266-.638.386-1.473 1.19-2.505 2.412-.24.263-.454.557-.64.882a2.008 2.008 0 0 0-.273 1.038l.85 5.238zm11.939.935c-.156-.808-.382-1.882-.68-3.223a162.674 162.674 0 0 0-.919-4.227 161.461 161.461 0 0 0-.94-4.121 158.561 158.561 0 0 0-.753-3.006c-.04-.294.07-.504.329-.631.259-.128.513-.208.761-.242.317-.043.657.003 1.02.138.387.132.647.35.78.654.013.09.047.258.103.504.054.223.097.459.13.707l.17.737c.053.223.086.38.098.47l.042.306c.01.067.018.135.027.203.007.045.026.1.057.165.032.065.082.173.148.325.04-.051.077-.114.113-.188l.117-.154c.291-.569.58-1.068.867-1.499.284-.453.584-.873.9-1.262a29.82 29.82 0 0 1 1.035-1.28c.396-.468.853-1.002 1.37-1.602.121-.132.212-.225.274-.279a.743.743 0 0 1 .15-.159.369.369 0 0 1 .195-.095.875.875 0 0 1 .267-.071c.384-.052.787.031 1.208.251.44.193.692.516.753.968a.982.982 0 0 1-.1.532c-.092.173-.206.35-.343.53-.14.157-.292.304-.458.442-.143.134-.279.233-.409.297-.517.6-1.057 1.283-1.62 2.051a18.663 18.663 0 0 0-1.542 2.385c-.46.845-.815 1.711-1.063 2.596-.248.886-.316 1.747-.202 2.583.104.769.264 1.519.478 2.249.214.731.374 1.481.478 2.25l.161 1.187a7.626 7.626 0 0 1-.415.505c-.12.131-.305.214-.553.248-.385.052-.78-.056-1.184-.323-.408-.29-.691-.597-.85-.921zm23.646-11.534a5.71 5.71 0 0 1-.04.973 1.503 1.503 0 0 1-.189.647 3.52 3.52 0 0 1-.498.655c-.224.214-.527.532-.907.952-.384.397-.854.921-1.41 1.573a58.644 58.644 0 0 0-2.006 2.517l-.977 1.203c-.335.414-.697.797-1.087 1.149-.37.327-.77.611-1.197.854-.427.242-.89.397-1.387.464-.972.132-1.729-.099-2.27-.693-.541-.594-.87-1.321-.987-2.18a25.135 25.135 0 0 1-.16-1.429c-.006-.39.017-.9.07-1.529-.28-.192-.521-.355-.723-.489-.206-.156-.328-.381-.368-.675-.037-.272-.005-.46.096-.566a1.06 1.06 0 0 1 .417-.229c.175-.07.338-.138.49-.205a.525.525 0 0 0 .303-.317c.027-.142.072-.402.136-.779.087-.38.172-.771.255-1.174l.221-1.17c.087-.38.143-.641.17-.783.106-.405.224-.813.352-1.222.149-.434.325-.827.531-1.177.228-.353.498-.655.81-.904.334-.253.738-.411 1.213-.476.272-.037.616.043 1.034.24.441.193.867.446 1.278.759.407.29.762.61 1.063.961.3.35.47.661.506.932.046.339.01.667-.108.982-.122.293-.29.581-.505.863a7.06 7.06 0 0 1-.658.746c-.244.24-.467.466-.668.677-.023.003-.065.032-.127.087a1.59 1.59 0 0 1-.155.124l-.147.193a299.38 299.38 0 0 0-.44.578 2.222 2.222 0 0 1-.112.188 5.192 5.192 0 0 1-.361.394c-.163.16-.345.346-.546.558-.205.189-.398.376-.58.562-.162.16-.274.268-.336.322l-.099.29c-.033.096-.05.306-.053.629.018.296.03.64.037 1.031.007.39.015.792.025 1.205.03.387.062.705.095.954.003.023.018.044.043.063.052.039.089.057.111.054.181-.024.34-.126.477-.306.136-.18.29-.316.462-.408l4.745-5.756 1.1-2.325c.092-.174.283-.373.575-.596.312-.25.637-.398.976-.444.336-.068.644-.007.924.186.302.189.497.611.586 1.267zm-7.82-1.632c.101-.106.128-.248.08-.425a.912.912 0 0 0-.267-.448.524.524 0 0 0-.406-.186c-.164-.024-.3.075-.408.297-.056.1-.155.297-.3.593-.121.293-.252.599-.393.917-.121.293-.225.549-.31.767-.086.219-.098.301-.036.247l2.04-1.762zm14.99 9.155l-.042-.305a.606.606 0 0 1 .132-.295c.226-.376.483-.767.773-1.175l.832-1.253c.264-.427.504-.863.72-1.306.216-.444.387-.882.513-1.313l-.028-.204-4.318 1.519-.509.069c-.316.043-.715.074-1.196.093a7.23 7.23 0 0 1-1.393-.087 3.67 3.67 0 0 1-1.207-.492c-.33-.232-.526-.573-.588-1.026-.048-.523.145-1.136.58-1.84.433-.703.96-1.408 1.577-2.113a34.704 34.704 0 0 1 1.873-1.981 93.122 93.122 0 0 1 1.563-1.456c.438-.336.974-.627 1.608-.875.632-.27 1.218-.441 1.76-.515.453-.061.861-.025 1.225.11.36.112.574.417.642.915.028.203.031.398.01.585.002.184-.116.327-.356.429a5.545 5.545 0 0 0-2.012.445 6.657 6.657 0 0 0-1.696.991c-.519.415-.995.894-1.428 1.437-.436.519-.857 1.06-1.265 1.622a8.912 8.912 0 0 0-.416.747c-.167.299-.247.471-.241.517l.005.033a8.802 8.802 0 0 0 1.706-.404c.573-.193 1.134-.384 1.684-.574a63.13 63.13 0 0 1 1.678-.608 9.58 9.58 0 0 1 1.775-.413c.226-.031.478-.042.755-.034.274-.014.532.02.774.102.264.08.477.212.64.397.184.159.295.386.335.68a2.58 2.58 0 0 1-.169 1.301c-.151.412-.403.929-.756 1.553a54.802 54.802 0 0 1-1.322 2.217 67.998 67.998 0 0 0-1.858 3.361c-.036.074-.143.134-.32.181-.156.044-.29.074-.403.09-.317.042-.663-.049-1.039-.274-.353-.228-.553-.512-.599-.851zm13.97-1.897l-.04-.305a.607.607 0 0 1 .132-.295c.225-.376.483-.767.773-1.175l.832-1.253c.264-.427.504-.863.72-1.306.216-.444.387-.882.513-1.313l-.028-.204-4.318 1.519-.509.069c-.316.043-.715.074-1.196.093a7.31 7.31 0 0 1-1.393-.087 3.668 3.668 0 0 1-1.207-.492c-.33-.232-.527-.573-.588-1.026-.048-.523.145-1.136.579-1.84.434-.703.96-1.408 1.578-2.113a34.704 34.704 0 0 1 1.872-1.981 93.122 93.122 0 0 1 1.564-1.456c.438-.336.974-.627 1.608-.875.631-.27 1.218-.441 1.76-.515.453-.061.86-.025 1.224.11.361.112.575.417.643.915.027.203.03.398.01.585.002.184-.117.327-.356.429a5.545 5.545 0 0 0-2.012.445 6.683 6.683 0 0 0-1.696.99 9.11 9.11 0 0 0-1.428 1.438c-.436.519-.858 1.06-1.265 1.622a8.912 8.912 0 0 0-.416.747c-.167.299-.247.471-.241.517l.004.033a8.802 8.802 0 0 0 1.707-.404 238.48 238.48 0 0 0 1.683-.574 63.13 63.13 0 0 1 1.68-.608 9.58 9.58 0 0 1 1.773-.413c.227-.031.478-.042.756-.034.274-.014.532.02.773.102.265.08.478.212.641.397.183.159.295.386.335.68a2.58 2.58 0 0 1-.17 1.301c-.15.412-.403.929-.755 1.553a54.667 54.667 0 0 1-1.323 2.217 67.998 67.998 0 0 0-1.857 3.361c-.036.074-.143.134-.321.181-.155.044-.29.074-.402.089-.317.043-.663-.048-1.039-.273-.353-.228-.553-.512-.6-.851zm-26.535 26.115a1.56 1.56 0 0 0-.816.352c-.227.192-.51.311-.85.357l-.372.051a4.054 4.054 0 0 0-.344.012 1.164 1.164 0 0 0-.342-.23l-.367-.157a1.95 1.95 0 0 1-.347-.264c-.083-.104-.138-.257-.166-.461a.975.975 0 0 1 .297-.869 3.96 3.96 0 0 1 .87-.705c.341-.208.683-.404 1.026-.589.366-.187.65-.387.851-.599l-.202-1.492a53.774 53.774 0 0 0-.919-4.987 54.487 54.487 0 0 1-.919-4.986c-.061-.452.012-.762.22-.928.207-.166.503-.276.888-.328.452-.061.798.03 1.038.274.26.218.461.513.604.885.14.349.238.739.297 1.168.055.407.114.756.176 1.047.04.294.134.811.28 1.551.147.739.3 1.525.458 2.355.159.83.311 1.615.458 2.355.146.74.251 1.256.313 1.547a6.57 6.57 0 0 0 .486-.239c.256-.15.525-.29.806-.42.28-.153.537-.292.773-.416.259-.127.442-.221.549-.282a59.448 59.448 0 0 0 1.72-1.062 4.313 4.313 0 0 1 1.87-.738c.451-.061.812.051 1.08.337.29.26.461.594.517 1.001.04.294-.044.524-.252.69a7.245 7.245 0 0 1-.661.47l-5.86 3.144-.184.163a.54.54 0 0 0-.185.163l.147 1.086c.107.791.23 1.614.37 2.47.159.831.348 1.634.569 2.41a52.9 52.9 0 0 0 .645 1.95c.224.637.383 1.295.475 1.973.027.204-.004.484-.093.842-.09.357-.282.556-.576.596-.61.083-1.132-.03-1.565-.34-.434-.31-.715-.766-.843-1.371-.272-1.16-.572-2.432-.898-3.815-.303-1.386-.599-2.716-.887-3.99l-.135.019zm12.441 3.111l.072-8.886c.005-.3.1-.531.285-.694.208-.167.447-.268.718-.305.498-.068.913.025 1.247.279.331.232.626.537.885.917l.033-.005a1.76 1.76 0 0 0 .694-.232c.21-.144.474-.238.791-.281.723-.098 1.365.045 1.923.43a5.182 5.182 0 0 1 1.48 1.491 7.73 7.73 0 0 1 .96 1.977c.26.725.427 1.369.504 1.935.092.678.014 1.46-.234 2.345a9.829 9.829 0 0 1-1.068 2.563 8.46 8.46 0 0 1-1.68 2.128c-.656.595-1.357.944-2.103 1.045-.678.092-1.287.014-1.828-.235a4.274 4.274 0 0 1-1.348-1.026 5.708 5.708 0 0 1-.87-1.574 8.346 8.346 0 0 1-.447-1.77l-.014-.102zm2.876-.183c.076.22.157.474.242.762.085.287.19.549.314.786.121.214.27.378.447.492.196.088.444.054.746-.102.257-.311.532-.659.825-1.044.293-.385.56-.79.802-1.214.264-.428.47-.87.614-1.327a3.16 3.16 0 0 0 .121-1.398c-.014-.781-.165-1.474-.455-2.079-.292-.628-.649-1.052-1.07-1.271-.402-.245-.825-.222-1.269.069-.447.267-.843.908-1.19 1.922-.19.625-.29 1.341-.295 2.147.014.781.066 1.5.154 2.155l.014.102zm23.35-4.31a6.477 6.477 0 0 1-1.266-.415c-.37-.18-.59-.53-.66-1.05-.019-.136.003-.231.065-.285a.52.52 0 0 0 .141-.227c.037-.074.11-.211.221-.41.111-.199.232-.411.363-.636.127-.248.247-.471.358-.67l.216-.444a9.777 9.777 0 0 0-.21-1.042 6.815 6.815 0 0 1-.128-1.192c.016-.393.108-.728.278-1.005.167-.299.487-.48.962-.545a.877.877 0 0 1 .72.213.93.93 0 0 0 .715.18l.136-.019a22.555 22.555 0 0 1 2.59-2.286c.918-.7 1.988-1.133 3.209-1.299.79-.107 1.467.043 2.03.45.58.382.928.991 1.042 1.827.14 1.04.05 2.146-.275 3.318a19.441 19.441 0 0 1-1.355 3.5 26.738 26.738 0 0 1-1.906 3.263 51.482 51.482 0 0 1-1.911 2.712c-.056.1-.144.215-.264.347a2.438 2.438 0 0 0-.332.356c-.12.131-.248.287-.385.466l.788 7.837c.027.204.045.42.053.649.03.226.013.436-.053.629a.932.932 0 0 1-.274.521c-.118.154-.312.249-.583.286a2.043 2.043 0 0 1-.556-.028 2.26 2.26 0 0 1-.677-.15 2.433 2.433 0 0 1-.598-.333.819.819 0 0 1-.277-.515l-2.177-14.003zm3.443 1.708l.136-.018c.023-.003.081-.08.176-.231.117-.154.243-.333.376-.535.157-.205.302-.409.435-.612.154-.228.268-.404.343-.53a9.176 9.176 0 0 0 1.612-2.118c.464-.823.815-1.63 1.052-2.422.258-.818.379-1.537.364-2.156.007-.623-.151-1.028-.476-1.214-.305-.212-.788-.123-1.449.266-.638.386-1.473 1.19-2.504 2.412-.241.263-.454.557-.64.882-.187.324-.278.67-.274 1.038l.85 5.238zm10.56.19c-.129-.95-.232-1.88-.31-2.79a56.136 56.136 0 0 0-.31-2.79 215.425 215.425 0 0 1-1.094-7.553 73.848 73.848 0 0 0-1.375-7.585c-.058-.429.005-.726.19-.889.182-.186.476-.306.883-.362.52-.07.983.028 1.387.296.425.241.685.632.781 1.172.39 3.216.858 6.399 1.4 9.549a223.727 223.727 0 0 1 1.502 9.536l.355 2.611a2.732 2.732 0 0 1-.503.621c-.224.214-.464.316-.719.304-.67-.024-1.18-.219-1.53-.586-.352-.39-.571-.901-.657-1.534zm11.856-8.828a50.77 50.77 0 0 0-.532 1.419l-.593 1.738a27.781 27.781 0 0 1-.749 1.863 13.59 13.59 0 0 1-.873 1.708 7.56 7.56 0 0 1-.987 1.377c-.364.372-.756.621-1.177.747-.18.024-.386.041-.615.049a7.713 7.713 0 0 1-.701-.078 2.023 2.023 0 0 1-.623-.261c-.157-.139-.252-.334-.286-.582-.29-2.309-.405-4.424-.343-6.343.059-1.942.33-3.671.815-5.188.482-1.539 1.19-2.855 2.123-3.949.934-1.094 2.131-1.947 3.59-2.56l.237-.032c.133-.041.222-.064.267-.071.675-.114 1.204.136 1.587.752.403.59.767 1.577 1.093 2.96.345 1.358.69 3.13 1.033 5.317.362 2.161.841 4.755 1.436 7.783.102.239.165.449.19.63.047.178.087.391.121.64.046.339-.02.613-.199.821-.182.186-.432.301-.748.344-.656.089-1.144-.029-1.464-.354-.321-.325-.567-.787-.741-1.385-.003-.022-.05-.2-.141-.533a13.411 13.411 0 0 0-.292-1.135l-.32-1.338a51.931 51.931 0 0 1-.254-1.105l-.018-.136a6.645 6.645 0 0 1-.217-.834 6.88 6.88 0 0 0-.202-.974 20.558 20.558 0 0 1-.258-1.139l-.159-.151zm-1.657-6.614c-.549.535-1.066 1.227-1.549 2.076-.483.848-.8 1.651-.95 2.408-.068.355-.13.835-.185 1.441a49.58 49.58 0 0 0-.134 1.814c-.013.578-.02 1.12-.02 1.626-.004.484.004.794.022.93.022-.003.042-.029.058-.077.04-.051.069-.09.088-.116 1.218-1.546 2.003-3.138 2.357-4.775.373-1.662.477-3.438.313-5.327zm16.62 23.716a28.372 28.372 0 0 1-.336-1.716l-.291-2.136-.308-2.272a51.207 51.207 0 0 1-.184-2.117l-.165-1.221a3.866 3.866 0 0 0-.472-.419c-.183-.16-.511-.46-.986-.902-.455-.468-1.112-1.15-1.97-2.047-.862-.919-2.026-2.2-3.492-3.843-.542-.433-.903-.798-1.081-1.097-.182-.32-.264-.585-.247-.795a.623.623 0 0 1 .28-.487c.191-.118.377-.189.558-.214a2.465 2.465 0 0 1 1.262.14c.389.154.753.369 1.089.646.337.277.645.592.923.945a64.633 64.633 0 0 1 1.47 1.666l.739.867c.243.266.448.503.615.711l.283.306.467.386-.484-3.561a78.128 78.128 0 0 0-.514-3.28 79.905 79.905 0 0 1-.515-3.28 1.01 1.01 0 0 1 .234-.826c.198-.234.457-.362.777-.382.39-.007.682.022.875.088.216.063.444.216.684.46.215.224.334.507.357.849.046.34.102.666.168.979.382 2.136.741 4.274 1.078 6.416.356 2.116.68 4.248.972 6.396.005.206.049.615.132 1.225l.29 2.136c.13.789.253 1.612.37 2.471.139.856.256 1.635.352 2.336.12.72.212 1.306.273 1.759.087.471.14.694.16.669.046.339-.045.604-.272.796-.204.189-.476.307-.815.353-.453.061-.801.039-1.045-.065a1.163 1.163 0 0 1-.544-.445 2.203 2.203 0 0 1-.334-.68 4.39 4.39 0 0 0-.353-.815zm3.374-112.316c-2.999 1.393-5.871 2.741-8.746 4.077-.572.269-.976.458-1.749.674-.572.167-1.793.493-1.845-.175.014-.556.092-.947 1.042-1.515 2.458-1.452 5.113-2.515 7.74-3.585 2.321-.944 4.106-1.626 6.209-2.336.982-.332 1.508.078 1.622 1.052.103.874.223 1.769.162 2.644-.199 3.156-.479 6.294-.729 9.45-.029.392-.028.7-.127 1.161-.126.558-.187.971-.73.95-.517-.014-.672-.746-.679-1.13-.125-3.205-.275-9.82-.361-10.171-1.296 1.398-2.524 2.663-3.684 4.001-8.035 9.359-15.343 19.233-20.248 30.789-3.882 9.147-6.633 18.619-7.95 28.535a17.288 17.288 0 0 1-.35 1.729c-.175.763-.399 1.126-.792 1.055-.72-.233-.73-.783-.776-1.221-.102-.874-.024-1.779.048-2.657 1.082-11.733 4.7-22.664 9.746-33.137 5.178-10.75 12.502-19.844 20.616-28.324.445-.431 1.446-1.601 1.581-1.866z" fill="#F5F5F7"/></svg>