<svg xmlns="http://www.w3.org/2000/svg" width="141" height="156" fill="none"><path fill="#008B86" d="M68.095 45.493a25.275 25.275 0 0 1 7.832 2.21c5.109 2.409 5.447 4.777 9.577 6.686a6.077 6.077 0 0 1 2.836 2.345c.383.657.62 1.39.695 2.146-.964.483-6.041 2.901-11.606.792-5.48-2.076-9.215-7.704-9.334-14.178z"/><path fill="#6DA59A" d="M87.18 66.89c1.125.079 3.03 3.067 3.712 4.14a19.433 19.433 0 0 1 2.448 5.732c.846 3.339.545 5.432-.132 15.166-.41 5.9-.432 7.04-.062 7.138.877.228 3.222-5.607 4.546-9.775a61.52 61.52 0 0 0 2.225-9.617 47.987 47.987 0 0 0 15.989 8.17 154.99 154.99 0 0 1-1.387 15.868 101.473 101.473 0 0 1-4.269 18.878c-3.116 9.289-5.386 11.12-6.527 11.9-5.05 3.446-10.975 1.941-11.258 1.864-1.355-.367-3.512-1.191-7.628-5.241A56.778 56.778 0 0 1 74.958 118c6.548-41.644 10.13-51.254 12.222-51.106"/><path fill="#F9947D" d="M75.928 39.945a76.129 76.129 0 0 1-6.065 10.388 7.907 7.907 0 0 0 5.08 2.324c4.611.165 7.264-4.54 7.673-5.267.725-1.29 2.286-4.061 1.036-6.107-1.152-1.885-4.376-2.63-7.724-1.338z"/><path fill="#D85F52" d="M88.324 49.78c2.539 1.556 7.458-2.073 10.212-4.105 1.826-1.347 3.677-2.714 4.997-5.174.702-1.307.699-1.892 1.991-4.355.858-1.64 1.878-3.315 2.188-3.825a27.146 27.146 0 0 0 2.022-3.463c.473-.969.798-2.003.964-3.069a10.071 10.071 0 0 0-.515-4.628c-.486-1.362-.662-.933-1.908-3.504-.776-1.597-.924-2.214-1.711-2.976-.876-.85-1.196-.574-2.011-1.358-1.307-1.259-.798-2.27-1.908-3.505-.79-.88-1.746-1.142-3.629-1.66a18.066 18.066 0 0 0-4.126-.57c-1.24-.056-1.514.033-3.035-.072a9.452 9.452 0 0 1-2.872-.437 12.69 12.69 0 0 1-2.374-1.524c-2.107-1.441-2.401-1.577-2.737-1.69a4.483 4.483 0 0 0-3.035-.074c-2.63 1.122-2.477 5.906-2.457 6.335a9.485 9.485 0 0 0 1.409 4.593 16.989 16.989 0 0 0 3.889 3.971 8.146 8.146 0 0 1 .32 4.096c-.523 1.96-1.784 2.105-2.353 4.19a6.84 6.84 0 0 0-.072 3.036c.401 2.497 1.682 3.2 2.892 6.149a25.802 25.802 0 0 1 1.016 3.535c2.12 8.413 1.764 9.412 2.852 10.078"/><path fill="#FFAE97" d="M82.586 15.79a51.816 51.816 0 0 0 14.71 7.164 16.926 16.926 0 0 0-5.969 13.063 4.047 4.047 0 0 1 3.204-.29 2.787 2.787 0 0 1 1.846 1.722 2.49 2.49 0 0 1-.467 1.98 3.82 3.82 0 0 1-2.81 1.347 5.583 5.583 0 0 1-2.509-.27 7.452 7.452 0 0 0-1.131 3.433 8.02 8.02 0 0 0 2.166 5.813 10.02 10.02 0 0 0-2.416 2.406 10.162 10.162 0 0 0-1.793 4.886c-4.147 4.258-10.3 4.793-14.039 1.917-3.787-2.912-3.545-8.128-3.514-8.626 2.046.247 4.12-.01 6.044-.746a13.145 13.145 0 0 0 6.75-6.127 13.684 13.684 0 0 1-8.025.281c-1.696-.466-3.896-.985-5.276-2.85-2.223-3.002-.8-7.31-.145-9.28 1.173-3.547 3.18-5.771 6.459-9.333a65.076 65.076 0 0 1 6.915-6.49z"/><path fill="#6DA59A" d="M68.092 45.494a30.884 30.884 0 0 0 6.01 6.654 31.778 31.778 0 0 0 14.93 6.728 8.119 8.119 0 0 1-.923 3.561 8.008 8.008 0 0 1-1.445 1.95c.228.821.4 1.656.517 2.5a21.65 21.65 0 0 1-1.34 10.516c-.995 2.75.506-.233-3.936 21.737-2.552 12.619-4.602 21.292-5.39 24.578-1.6 6.68-2.845 11.398-4.612 16.912a190.545 190.545 0 0 1-2.75 8.006 5.089 5.089 0 0 1-1.981 2.125c-1.536.861-3.2.574-4.998.133a45.234 45.234 0 0 1-8.361-2.928 73.219 73.219 0 0 1-9.056-5.074c-3.564-2.35-5.827-3.847-8.33-6.498-2.918-3.087-2.576-3.947-4.944-6.109-2.112-1.928-3.795-2.533-9.238-4.721-11.926-4.79-13.766-5.867-14.03-7.615-.188-1.233.545-1.902 2.722-5.329a93.719 93.719 0 0 0 5.075-9.057 39.488 39.488 0 0 1-7.407-10.057c-2.186-4.278-2.308-6.562-2.252-7.87a15.005 15.005 0 0 1 1.11-4.81 20.82 20.82 0 0 1 3.26-5.503c3.425-4.509 2.732-4.662 5.967-9.05a78.59 78.59 0 0 1 10.988-11.86c5.278-4.837 8.1-7.423 12.93-9.524a21.409 21.409 0 0 1 8.764-2.244c5.201-.073 9.375 2.073 11.393 3.133a28.408 28.408 0 0 1 3.728 2.352l3.59-2.647"/><path fill="#6DA59A" d="M53.13 124.77a9.954 9.954 0 0 1-3.75.325 11.43 11.43 0 0 1-5.512-2.366c-2.741-1.921-5.637-3.624-8.338-5.604-5.427-3.979-5.488-3.493-13.305-9.037a331.827 331.827 0 0 1-6.206-4.516l-2.36 4.62a980.497 980.497 0 0 0 30.171 18.999 5.407 5.407 0 0 0 2.842 1.452c1.145.172 1.732-.193 3.032.204a6.044 6.044 0 0 1 1.776.908 8.486 8.486 0 0 1 1.77 1.8c1.129 1.401.893 1.558 1.587 2.154 1.003.863 1.799.793 1.95 1.446.136.59-.47.848-.37 1.602a2.432 2.432 0 0 0 1.06 1.437c.573.583 1.32.966 2.129 1.089 1.504.087 2.646-1.407 3.592-2.647a5.501 5.501 0 0 0 1.452-2.843c.164-1.766-1.075-3.178-1.927-4.12-3.006-3.327-7.327-4.475-9.593-4.902"/><path fill="#FFAE97" d="M61.946 116.281a12.56 12.56 0 0 1-1.996 3.909 13.167 13.167 0 0 1-6.821 4.58c.42 1.352.946 2.669 1.573 3.939a16.822 16.822 0 0 0 1.934 3.229c.42.581.893 1.123 1.413 1.618a6.71 6.71 0 0 1 1.77 1.801c.173.336.29.698.347 1.072a2.454 2.454 0 0 0-1.43.167c-.366.165-.647.294-.718.529-.207.7 1.506 2.007 3.19 2.526a3.303 3.303 0 0 0 2.14.197c.762-.261.981-.812 1.792-.873.61-.046.628.252 1.248.189a5.744 5.744 0 0 0 1.791-.877l1.967-.34c.524.164 1.06.288 1.602.37a3.405 3.405 0 0 0 2.692-1.76c.332-.602.52-1.272.552-1.958a8.067 8.067 0 0 0-.671-4.824 18.89 18.89 0 0 0-1.588-2.155c-.397-.506-.912-1.116-1.943-2.336a19.563 19.563 0 0 0-1.413-1.619c-.903-.824-1.337-.865-2.305-1.626a12.337 12.337 0 0 1-1.769-1.8 184.225 184.225 0 0 1-3.355-3.955"/><path fill="#fff" d="M54.247 57.685a137.016 137.016 0 0 1-18.415 24.644 89.668 89.668 0 0 0 9.515 13.822c1.807 2.156 5.177 5.722 11.846 12.776 2.071 2.191 3.788 3.996 4.95 5.218.24.305.363.685.347 1.073-.054.637-.586 1.027-.544 1.066a1.873 1.873 0 0 0 1.082-1.24c.12-.48.061-.988-.166-1.428a625.82 625.82 0 0 1-3.182-3.418c-4.59-4.97-9.368-10.143-14.49-16.365a245.284 245.284 0 0 1-8.647-11.14 85.57 85.57 0 0 0 17.704-25.008z"/><path fill="#FFAE97" d="M114.101 66.582a2.23 2.23 0 0 1 2.495.378c.338.437.279 1.065.159 2.322-.04.419-.104.835-.19 1.247a2.481 2.481 0 0 1 1.595 1.263c.2.579.195 1.21-.015 1.785a6.057 6.057 0 0 1-1.271 2.487 2.726 2.726 0 0 1 1.534 2.707 2.748 2.748 0 0 1-.317 1.05 2.974 2.974 0 0 1-1.619 1.413 2.199 2.199 0 0 1 1.058 1.437c.126.891-.562 1.593-1.09 2.13a5.245 5.245 0 0 1-1.973 1.232 3.783 3.783 0 0 1-2.858.332c-.189-.076-1.372-.585-1.413-1.618a1.891 1.891 0 0 1 .725-1.421 2.257 2.257 0 0 1-1.239-1.082 2.34 2.34 0 0 1 .379-2.495 3.028 3.028 0 0 1-.521-1.61c-.008-.797.353-1.42 1.452-2.843a54.569 54.569 0 0 1 2.344-2.835 2.24 2.24 0 0 1-1.239-1.081c-.343-.75-.033-1.503.378-2.495.492-1.192.803-1.945 1.626-2.306m-14.04 12.009a20.441 20.441 0 0 1-.517-2.499 5.871 5.871 0 0 1 .023-2.676 5.23 5.23 0 0 1 1.444-1.95c1.054-1.094 1.911-1.985 2.692-1.76.401.173.719.496.888.9a3.3 3.3 0 0 1 .34 1.965 3.86 3.86 0 0 1-.734 2.314 3.563 3.563 0 0 1-1.974 1.231 9.35 9.35 0 0 0-.733 2.314l-1.429.161z"/><path fill="#EAB339" d="m112.128 71.892-1.73 6.209 3.104.865c-.386 1.38-.771 2.759-1.153 4.14.69.192 1.381.385 2.071.579l-1.01 3.622-17.592-4.9 1.01-3.622 2.07.58c.386-1.38.77-2.76 1.152-4.14l2.588.72 1.873-6.726 7.617 2.68"/><path fill="#F9C64A" d="M104.252 43.531a.92.92 0 0 0-.976.279.904.904 0 0 0-.172.311l-4.276 13.472a12.9 12.9 0 0 0 18.409 14.895 12.897 12.897 0 0 0 6.283-7.46l3.657-13.133a.912.912 0 0 0-.595-1.109l-22.332-7.258"/><path fill="#F9C64A" d="M133.271 56.037a16.314 16.314 0 0 1-5.902 11.18 15.981 15.981 0 0 1-9.864 3.385l-16.186-3.95a17.908 17.908 0 0 1-7.668-10.5 17.632 17.632 0 0 1 .813-10.925l13.97 3.892 24.837 6.918zm-23.856 12.59a17.708 17.708 0 0 0 12.309-1.327 17.706 17.706 0 0 0 8.428-9.067c-11.209-3.122-22.419-6.244-33.628-9.368a17.707 17.707 0 0 0 12.891 19.761z"/><path fill="#EAB339" d="m103.797 41.136 24.635 6.862a.909.909 0 0 1 .632 1.12l-.52 1.87a.909.909 0 0 1-1.121.633l-24.636-6.863a.91.91 0 0 1-.632-1.12l.522-1.87a.904.904 0 0 1 .766-.659.901.901 0 0 1 .354.027z"/><path fill="#fff" d="M80.097 34.96c-.185-.369-.889-.06-2.532-.486a5.88 5.88 0 0 1-2.182-.944 4.838 4.838 0 0 1-1.481-1.86 3.795 3.795 0 0 0-1.36 1.72 3.798 3.798 0 0 0-.178 2.186c.57 1.994 3.126 2.643 4.823 2.239 1.85-.44 3.213-2.253 2.91-2.855z"/><path fill="#0F1539" d="M80.123 21.269c.045-.061.093-.12.144-.175.027-.028.053-.056.082-.082l.029-.026a2.09 2.09 0 0 1 .171-.126c.032-.02.065-.042.098-.061 0 0 .1-.053.05-.03a1.97 1.97 0 0 1 .44-.149c.035-.002.071-.01.107-.013l.09-.007c.012 0 .109.002.074 0 .104.01.206.034.302.074.11.045.206.116.282.206-.038-.04.026.037.03.042l.048.072c.016.024.018.03.026.045-.01-.023-.011-.023 0 0 .012.022.024.054.034.079.01.026.023.067.032.102-.016-.056.007.047.008.05l.008.11c0 .01-.003.109.004.057a.354.354 0 0 0 .272.402.349.349 0 0 0 .257-.052.346.346 0 0 0 .145-.218 1.553 1.553 0 0 0-.302-1.098 1.537 1.537 0 0 0-.966-.569 2.247 2.247 0 0 0-2.035.874.39.39 0 0 0 .04.533.382.382 0 0 0 .533-.04m5.967 4.052a1.495 1.495 0 0 1 .636-.34s.102-.021.046-.011c.053-.01.107-.017.162-.021l.096-.008c.007 0 .09.003.051 0l.05.006.092.016c.03.007.05.011.074.018.025.007-.024-.012.026.01.053.022.104.047.154.076.028.02-.025-.02.019.016l.07.058c.006.004.062.06.037.033-.026-.026.026.032.03.038a.59.59 0 0 1 .053.078c0 .007.044.079.025.04-.02-.037.018.038.02.046a1.237 1.237 0 0 1 .047.132c-.01-.04.003.041.008.049.007.063.01.127.007.19a.33.33 0 0 0 .114.224c.065.058.15.087.237.082a.342.342 0 0 0 .222-.117.34.34 0 0 0 .079-.238 1.39 1.39 0 0 0-1.075-1.361 1.987 1.987 0 0 0-1.771.573.32.32 0 0 0-.075.23.32.32 0 0 0 .11.217.327.327 0 0 0 .446-.034m-1.91 3.089c.006.058.01.116.01.174.001.026 0 .017-.003-.024.001.013-.003.027-.005.04a1.049 1.049 0 0 1-.035.18c-.005.017-.034.096-.007.025-.02.054-.042.108-.07.16a1.604 1.604 0 0 1-.087.157.966.966 0 0 1-.078.096c-.04.048-.081.093-.126.136-.028.027-.03.028 0 0a1.948 1.948 0 0 1-.122.095l.418.022c.066.07 0-.007-.016-.024-.015-.017-.05-.06-.049-.078.023.045.026.05.01.016l-.017-.043c0-.011-.033-.079-.027-.09.01.051.012.058.002.02l-.004-.047a1.05 1.05 0 0 1-.007-.098l-.004-.048c.002-.039-.002-.033.001.016a.315.315 0 0 1 .013-.101 1.61 1.61 0 0 1 .021-.1c.005-.018.042-.124.01-.043.026-.066.055-.13.09-.194.007-.014.073-.11.024-.044a1.167 1.167 0 0 1 .142-.17c.012-.015.026-.027.04-.04-.03.025-.03.025 0 0l-.51-.163c.009.024.015.05.023.076-.025-.08 0 0 0 .015l.011.135c.006.081.008-.052.002.02l-.011.083c-.01.052-.025.101-.036.153-.007.037.019-.043-.004.015l-.034.085c-.02.05-.044.099-.07.146-.011.02-.036.058-.01.02l-.055.074c-.037.05-.078.096-.122.14l.524.028c.041.073-.005-.017-.016-.047a.345.345 0 0 1-.014-.042c-.005-.015-.029-.073-.008-.023.021.05 0-.01-.002-.024l-.003-.046a.956.956 0 0 1-.004-.118c-.005-.063-.008.046 0 .005.003-.015.004-.032.006-.049a.91.91 0 0 1 .022-.12c.01-.038.018-.073.03-.11-.014.042-.012.032 0 0l.025-.059c.031-.072.068-.142.11-.209.043-.071-.026.03.005-.008l.04-.053c.024-.032.05-.063.074-.093.025-.03.063-.064.094-.096.03-.032-.057.046.009-.007.014-.012.028-.024.042-.034.072-.056.149-.105.23-.146l-.51-.243c.018.112.027.224.025.337 0 .1.009-.061-.002.04l-.01.078c-.007.06-.017.118-.031.176a2.325 2.325 0 0 1-.043.16c.015-.05-.018.046-.018.045a1.556 1.556 0 0 1-.037.095 2.724 2.724 0 0 1-.18.332.308.308 0 0 0-.016.246.326.326 0 0 0 .163.184.331.331 0 0 0 .43-.148 2.27 2.27 0 0 0 .367-1.594c-.032-.183-.229-.388-.431-.283a1.925 1.925 0 0 0-.917.97 1.452 1.452 0 0 0 .027 1.266c.029.04.067.075.111.1a.343.343 0 0 0 .292.015.35.35 0 0 0 .121-.087 1.654 1.654 0 0 0 .444-1.622.326.326 0 0 0-.083-.127.342.342 0 0 0-.424-.036c-.323.261-.54.63-.612 1.04a1.281 1.281 0 0 0 .32 1.101.347.347 0 0 0 .418.022 1.86 1.86 0 0 0 .827-1.657.34.34 0 0 0-.12-.238.344.344 0 0 0-.253-.083.342.342 0 0 0-.13.037.342.342 0 0 0-.174.202.364.364 0 0 0-.017.135m-6.118-4.17c.053.049-.013-.011-.009-.014l.031.04c.007.011.018.038.027.043-.013-.008-.034-.079-.013-.024l.03.089c.019.06-.01-.081-.002-.02l.004.051.003.045c.001.015-.004.082.002.019.005-.064 0-.004 0 .01a1.533 1.533 0 0 1-.034.168c-.014.056.023-.055.007-.018l-.022.056a1.115 1.115 0 0 1-.046.099l-.03.054c-.01.018-.04.06-.008.015l-.017.024a1.125 1.125 0 0 1-.114.128l-.015.014a.537.537 0 0 0 .018-.016c-.012 0-.029.024-.039.032a.955.955 0 0 1-.091.066c-.019.009-.036.02-.053.031l.032-.016-.028.013c-.038.016-.077.03-.116.042l.445.381c.016-.078.034-.156.056-.233l.015-.051.011-.037c-.014.047.006-.016.008-.024l.024-.064c.06-.155.13-.307.212-.453l.056-.098.038-.06c0-.005.036-.057.014-.024l.024-.035.032-.047c.026-.035.052-.07.075-.104.108-.142.227-.277.354-.403l-.594-.194c.004.032.007.064.008.097 0 .012-.007.042-.001.054-.007-.013.008-.075-.002-.025-.007.033-.01.067-.017.099a.555.555 0 0 0-.026.099c.001-.058.014-.04 0-.006l-.019.043a.846.846 0 0 1-.046.096c-.004.01-.063.099-.06.105.003.005.04-.055.008-.01l-.037.048a1.865 1.865 0 0 1-.187.203c-.029.028.048-.039 0 0l-.088.068a.93.93 0 0 1-.093.061c-.014.01-.029.017-.043.026-.069.041.043-.018 0 0-.07.031-.142.058-.216.08l.447.29c-.004-.052-.002-.104 0-.156-.002-.024 0-.048.001-.072.002-.094-.008.07-.002-.024.009-.097.027-.192.054-.286-.021.067.012-.024.015-.03a.708.708 0 0 1 .03-.062c.01-.02.02-.036.03-.053-.042.068.006 0 .014-.013.028-.033.057-.065.088-.094-.057.054.006 0 .017-.01.01-.009.035-.024.053-.035l.022-.014-.022.01c.01-.011.043-.016.058-.021.053-.02.023.003-.007-.004a.55.55 0 0 0 .07-.005c.063-.005-.05-.004-.013 0 .062.005-.01.01-.019-.009l.024.012a.46.46 0 0 0-.033-.02c0 .005.054.05.01.003-.043-.046.001.009.001.012-.014-.008-.038-.071-.009-.012.02.04-.007-.02-.002-.035l.004.055c-.011-.018.016-.083-.002-.025-.018.059-.002-.018.008-.02a.09.09 0 0 1-.013.026c-.012.022-.004.012.02-.03l-.013.016c-.024.025-.018.02.017-.014a.336.336 0 0 0-.084.46.335.335 0 0 0 .46.083.65.65 0 0 0 .207-.788.666.666 0 0 0-.831-.334 1.17 1.17 0 0 0-.668.594c-.128.3-.182.625-.16.95a.34.34 0 0 0 .448.293 1.733 1.733 0 0 0 1.261-1.72.338.338 0 0 0-.592-.195 3.817 3.817 0 0 0-1.073 1.945.344.344 0 0 0 .271.395.343.343 0 0 0 .174-.012c.792-.24 1.392-1.43.696-2.078a.333.333 0 0 0-.243-.079.344.344 0 0 0-.229.114.343.343 0 0 0 .036.473"/><path fill="#ED6255" d="M80.17 27.45a4.258 4.258 0 0 1-1.7 1.067 5.51 5.51 0 0 1-1.958.445.349.349 0 0 0-.24.122.358.358 0 0 0-.085.255c.156.994.7 1.886 1.512 2.48.383.288.873-.28.487-.568a3.25 3.25 0 0 1-1.295-1.966l-.324.378a6.358 6.358 0 0 0 2.175-.564 5.34 5.34 0 0 0 1.917-1.232c.273-.308-.22-.728-.486-.417"/></svg>
