<svg xmlns="http://www.w3.org/2000/svg" width="22" height="19" viewBox="0 0 22 19" fill="none"><path d="M15.5455 17.3647V15.5465C15.5455 14.5821 15.1623 13.6572 14.4804 12.9752C13.7984 12.2933 12.8735 11.9102 11.9091 11.9102H4.63636C3.67194 11.9102 2.74702 12.2933 2.06507 12.9752C1.38312 13.6572 1 14.5821 1 15.5465V17.3647" stroke="#118AF7" stroke-width="1.5" stroke-linecap="round" stroke-linejoin="round"></path><path d="M8.27259 8.2737C10.2809 8.2737 11.909 6.64565 11.909 4.63734C11.909 2.62903 10.2809 1.00098 8.27259 1.00098C6.26429 1.00098 4.63623 2.62903 4.63623 4.63734C4.63623 6.64565 6.26429 8.2737 8.27259 8.2737Z" stroke="#118AF7" stroke-width="1.5" stroke-linecap="round" stroke-linejoin="round"></path><path d="M21.0002 17.3644V15.5463C20.9996 14.7406 20.7315 13.9579 20.2378 13.3211C19.7442 12.6843 19.0531 12.2295 18.2729 12.0281" stroke="#118AF7" stroke-width="1.5" stroke-linecap="round" stroke-linejoin="round"></path><path d="M14.6362 1.11914C15.4184 1.31941 16.1117 1.77432 16.6068 2.41215C17.1019 3.04998 17.3706 3.83444 17.3706 4.64187C17.3706 5.4493 17.1019 6.23376 16.6068 6.87159C16.1117 7.50941 15.4184 7.96432 14.6362 8.16459" stroke="#118AF7" stroke-width="1.5" stroke-linecap="round" stroke-linejoin="round"></path></svg>