<svg xmlns="http://www.w3.org/2000/svg" width="42" height="42" fill="none"><circle cx="20.567" cy="20.567" r="20.567" fill="#118AF7"/><path fill="#fff" d="M25.038 27.68h5.609a1.874 1.874 0 0 0 1.318-.546 1.872 1.872 0 0 0 .546-1.318v-5.61a1.854 1.854 0 0 0-.546-1.317 1.872 1.872 0 0 0-1.318-.546h-4.241V17.15a1.616 1.616 0 0 1 1.616-1.616h.316v-3.232h-.316a4.847 4.847 0 0 0-4.847 4.847v8.666a1.868 1.868 0 0 0 1.863 1.865zm-13.18 0h5.61a1.868 1.868 0 0 0 1.863-1.864v-5.61a1.854 1.854 0 0 0-.546-1.317 1.868 1.868 0 0 0-1.317-.546h-4.242V17.15a1.618 1.618 0 0 1 1.616-1.616h.316v-3.232h-.316a4.846 4.846 0 0 0-4.847 4.847v8.666a1.864 1.864 0 0 0 1.863 1.865z"/></svg>
