<svg viewBox="0 0 1400 393" xmlns="http://www.w3.org/2000/svg" xml:space="preserve" fill-rule="evenodd" clip-rule="evenodd" stroke-linecap="round" stroke-linejoin="round"><path d="M4.293 60.4c0 .425-.125.84-.36 1.193a2.153 2.153 0 0 1-2.204.914 2.148 2.148 0 0 1-.775-3.891 2.15 2.15 0 0 1 3.34 1.784h-.001zm11.794.06a2.148 2.148 0 0 1-1.324 1.982 2.148 2.148 0 0 1-2.339-.464 2.148 2.148 0 0 1 1.518-3.664 2.148 2.148 0 0 1 2.145 2.145v.001zM4.366 75.406a2.145 2.145 0 1 1-4.29.001 2.145 2.145 0 0 1 4.29-.002v.001zm11.794.061a2.15 2.15 0 0 1-1.325 1.982 2.145 2.145 0 1 1-.822-4.128 2.145 2.145 0 0 1 2.146 2.146h.001zM4.366 90.386a2.145 2.145 0 1 1-4.29-.001 2.145 2.145 0 0 1 4.29.001zm11.794.059a2.153 2.153 0 0 1-1.325 1.982 2.145 2.145 0 1 1-.822-4.128 2.148 2.148 0 0 1 2.146 2.146h.001zM4.33 105.349a2.153 2.153 0 0 1-1.325 1.982 2.149 2.149 0 0 1-2.339-.464 2.15 2.15 0 0 1 .324-3.302 2.146 2.146 0 0 1 3.339 1.784h.001zm11.793.058a2.145 2.145 0 1 1-4.292.004 2.145 2.145 0 0 1 4.293-.004h-.001zM4.401 120.356a2.14 2.14 0 0 1-1.325 1.982 2.14 2.14 0 0 1-2.338-.465 2.139 2.139 0 0 1-.465-2.338 2.145 2.145 0 0 1 4.129.821h-.001zm11.795.059a2.143 2.143 0 0 1-2.564 2.106 2.15 2.15 0 0 1-1.686-1.686 2.148 2.148 0 0 1 2.104-2.565 2.144 2.144 0 0 1 2.147 2.145h-.001zM4.401 135.334a2.144 2.144 0 0 1-3.663 1.518 2.145 2.145 0 1 1 3.664-1.518h-.001zm11.795.059a2.145 2.145 0 1 1-4.29-.001 2.145 2.145 0 0 1 4.29.001zm12.218-75.248a2.147 2.147 0 0 1-3.663 1.519 2.15 2.15 0 0 1 .325-3.302 2.145 2.145 0 0 1 3.339 1.783h-.001zm11.794.06a2.143 2.143 0 0 1-2.564 2.104 2.15 2.15 0 0 1-1.686-1.686 2.148 2.148 0 0 1 .912-2.203 2.144 2.144 0 0 1 2.71.267c.402.403.628.948.628 1.518zM28.487 75.153a2.145 2.145 0 1 1-4.29-.001 2.145 2.145 0 0 1 4.29.001zm11.794.059a2.143 2.143 0 0 1-1.325 1.982 2.148 2.148 0 0 1-2.338-.465 2.15 2.15 0 0 1 .325-3.302 2.152 2.152 0 0 1 2.71.267c.402.403.628.949.628 1.518zM28.487 90.13a2.146 2.146 0 1 1-4.292-.002 2.146 2.146 0 0 1 4.292.003v-.001zm11.794.06a2.143 2.143 0 0 1-1.325 1.982 2.148 2.148 0 0 1-2.338-.465 2.139 2.139 0 0 1-.465-2.338 2.145 2.145 0 0 1 4.128.821zM28.45 105.091a2.143 2.143 0 0 1-2.564 2.106 2.15 2.15 0 0 1-1.686-1.686 2.148 2.148 0 0 1 2.104-2.565 2.147 2.147 0 0 1 2.146 2.145zm11.794.062a2.143 2.143 0 0 1-2.564 2.104 2.142 2.142 0 0 1-1.686-1.685 2.156 2.156 0 0 1 .121-1.24 2.146 2.146 0 0 1 4.13.821h-.001zm-11.721 14.948a2.145 2.145 0 1 1-4.29-.001 2.145 2.145 0 0 1 4.29.001zm11.794.059a2.145 2.145 0 1 1-4.29-.001 2.145 2.145 0 0 1 4.29.001zm-11.794 14.919a2.145 2.145 0 1 1-4.29-.001 2.145 2.145 0 0 1 4.29.001zm11.794.059a2.145 2.145 0 1 1-4.29-.001 2.145 2.145 0 0 1 4.29.001zM397.928 260.23a3.616 3.616 0 0 1-3.545-4.32 3.618 3.618 0 0 1 2.84-2.841 3.616 3.616 0 1 1 .705 7.161zm-.099 19.866a3.622 3.622 0 0 1-3.338-2.232 3.613 3.613 0 1 1 3.338 2.232zm-25.179-19.745a3.61 3.61 0 0 1-3.545-4.32 3.61 3.61 0 0 1 2.84-2.84 3.618 3.618 0 0 1 4.32 3.545 3.612 3.612 0 0 1-3.615 3.615zm-.095 19.863a3.615 3.615 0 0 1-.704-7.159 3.613 3.613 0 1 1 .704 7.159zm-25.133-19.863a3.61 3.61 0 0 1-3.545-4.32 3.61 3.61 0 0 1 2.84-2.84 3.613 3.613 0 0 1 4.32 3.545 3.612 3.612 0 0 1-3.615 3.615zm-.1 19.863a3.604 3.604 0 0 1-2.007-.61 3.622 3.622 0 0 1-1.537-3.71 3.62 3.62 0 0 1 2.84-2.839 3.614 3.614 0 1 1 .704 7.159zm-25.103-19.923a3.62 3.62 0 0 1-3.34-2.232 3.614 3.614 0 1 1 6.955-1.383 3.614 3.614 0 0 1-3.615 3.615zm-.1 19.866a3.614 3.614 0 1 1 .005-7.228 3.614 3.614 0 0 1-.005 7.228zm-25.179-19.744a3.61 3.61 0 0 1-3.545-4.32 3.61 3.61 0 0 1 2.84-2.84 3.618 3.618 0 0 1 4.32 3.546 3.61 3.61 0 0 1-3.615 3.614zm-.098 19.866a3.623 3.623 0 0 1-3.339-2.232 3.618 3.618 0 0 1 .784-3.938 3.618 3.618 0 0 1 3.938-.783 3.612 3.612 0 0 1 1.173 5.894 3.616 3.616 0 0 1-2.556 1.059zm-25.13-19.866a3.61 3.61 0 0 1-3.545-4.32 3.61 3.61 0 0 1 2.84-2.84 3.618 3.618 0 0 1 4.32 3.546 3.61 3.61 0 0 1-3.615 3.614zm-.099 19.866a3.62 3.62 0 0 1-3.338-2.232 3.618 3.618 0 0 1 .783-3.938 3.614 3.614 0 1 1 2.555 6.17zm126.742 20.58a3.614 3.614 0 1 1 0-7.228 3.614 3.614 0 0 1 0 7.228zm-.1 19.866a3.607 3.607 0 0 1-2.008-.61 3.61 3.61 0 0 1-1.537-3.711 3.61 3.61 0 0 1 2.84-2.84 3.618 3.618 0 0 1 4.32 3.546 3.616 3.616 0 0 1-3.615 3.615zm-25.175-19.744a3.614 3.614 0 1 1 0-7.228 3.614 3.614 0 0 1 0 7.228zm-.1 19.866a3.614 3.614 0 1 1 0-7.228 3.614 3.614 0 0 1 0 7.228zm-25.125-19.866a3.614 3.614 0 1 1 0-7.228 3.614 3.614 0 0 1 0 7.228zm-.1 19.866a3.614 3.614 0 1 1 0-7.228 3.614 3.614 0 0 1 0 7.228zm-25.106-19.927a3.614 3.614 0 1 1 0-7.228 3.614 3.614 0 0 1 0 7.228zm-.1 19.866a3.616 3.616 0 0 1-2.556-6.172 3.621 3.621 0 0 1 3.939-.783 3.611 3.611 0 0 1 2.232 3.34 3.616 3.616 0 0 1-3.615 3.615zm-25.179-19.744a3.614 3.614 0 1 1 0-7.228 3.614 3.614 0 0 1 0 7.228zm-.099 19.866a3.622 3.622 0 0 1-3.338-2.232 3.613 3.613 0 1 1 3.338 2.232zm-25.129-19.866a3.614 3.614 0 1 1 0-7.228 3.614 3.614 0 0 1 0 7.228zm-.099 19.866a3.61 3.61 0 0 1-3.339-2.231 3.613 3.613 0 0 1 4.722-4.722 3.617 3.617 0 0 1 2.231 3.338 3.614 3.614 0 0 1-3.614 3.615z" fill="#224860" fill-rule="nonzero"/><path d="M304.054 278.363C196.113 117.933 148.972 89.408 126.613 98.515c-24.842 10.119-28.407 70.492-9.979 111.589 26.584 59.284 105.458 93.005 187.42 68.259z" fill="#008b86" fill-rule="nonzero"/><path d="m260.653 219.97-152.428-56.614m144.838 44.883-146.288-53.822m170.439 88.324-166.988-61.413m158.018 48.992-160.088-58.653" fill="none" stroke="#224860" stroke-width="3.83"/><path d="m252.545 152.577-52.8 216.028m-7.737-225.528-52.801 216.028m69.26-201.133L155.666 374m80.421-236.319-52.801 216.028" fill="none" stroke="#b6d8e2" stroke-width="2.87" stroke-linecap="butt" stroke-linejoin="miter" stroke-miterlimit="10"/><path d="M1303.73 281.539c-40.95-186.887-73.95-230.285-97.84-230.04-26.54.274-51.78 54.529-49.78 99.049 2.9 64.221 63.2 123.944 147.62 130.991z" fill="#008b86" fill-rule="nonzero"/><path d="m1285.04 212.02-119.66-107.547m116.94 93.992L1167.3 95.721M1292 238.998l-131.32-117.259m127.58 102.566-125.97-112.209" fill="none" stroke="#224860" stroke-width="3.8"/><path d="m1189.23 154.534 88.75 147.362m-86.7-129.243 88.76 147.314m-18.2-109.528-40.88 167.096m29.57-152.794-40.84 167.067" fill="none" stroke="#b6d8e2" stroke-width="2.85" stroke-linecap="butt" stroke-linejoin="miter" stroke-miterlimit="10"/><path d="M1293.79 296.559c86.56-131.294 93.19-175.614 79.35-189.539-15.38-15.472-61.81.777-86.87 27.49-36.16 38.533-36.74 108.296 7.52 162.049z" fill="#ff8780" fill-rule="nonzero"/><path d="m1324.01 245.684-5.3-132.14m11.72 122.766-5.46-126.656m-12.86 155.596-6.26-144.571m12.77 133.946-6.16-138.527" fill="none" stroke="#224860" stroke-width="3.12"/><path d="m1250.03 55.921 71.67 121.889m-70.14-106.978 71.68 121.849m-59.11-137.265 71.67 121.888m-70.14-106.978 71.68 121.849" fill="none" stroke="#b6d8e2" stroke-width="2.34" stroke-linecap="butt" stroke-linejoin="miter" stroke-miterlimit="10"/><path d="M1300.1 2.64c0 .468-.14.924-.39 1.312a2.37 2.37 0 0 1-2.43 1.005 2.343 2.343 0 0 1-1.85-1.856 2.355 2.355 0 0 1 1-2.423 2.38 2.38 0 0 1 1.31-.397 2.353 2.353 0 0 1 2.36 2.36V2.64zm12.98.065c0 .467-.14.924-.4 1.312s-.63.69-1.06.87c-.43.178-.91.225-1.37.134a2.366 2.366 0 0 1-1.2-.646c-.33-.33-.56-.75-.65-1.209-.09-.458-.04-.932.13-1.364.18-.431.49-.8.87-1.06.39-.259.85-.397 1.32-.397.62 0 1.22.249 1.66.691.45.443.7 1.043.7 1.67v-.001zm-12.9 16.438c0 .467-.13.923-.39 1.312a2.375 2.375 0 0 1-2.43 1.004 2.366 2.366 0 0 1-1.2-.646c-.33-.33-.56-.75-.65-1.208-.09-.458-.04-.933.13-1.364.18-.431.49-.8.87-1.06.39-.258.85-.397 1.31-.397.63 0 1.23.249 1.67.691.45.443.69 1.043.69 1.668zm12.97.065c0 .467-.13.924-.39 1.312a2.37 2.37 0 0 1-2.43 1.005 2.366 2.366 0 0 1-1.2-.646c-.34-.33-.56-.75-.65-1.209-.09-.458-.05-.933.13-1.364a2.365 2.365 0 0 1 2.18-1.457c.63 0 1.23.249 1.67.691.45.443.69 1.043.69 1.668zm-12.97 16.407a2.343 2.343 0 0 1-1.45 2.18c-.43.178-.91.225-1.37.134-.45-.09-.87-.316-1.2-.646-.33-.33-.56-.75-.65-1.208a2.44 2.44 0 0 1 .13-1.363c.18-.432.49-.8.87-1.06a2.38 2.38 0 0 1 1.31-.397c.63 0 1.23.248 1.67.691.45.443.69 1.043.69 1.669zm12.97.065c0 .467-.13.923-.39 1.311a2.37 2.37 0 0 1-2.43 1.005 2.437 2.437 0 0 1-1.21-.646c-.33-.33-.55-.751-.64-1.21a2.355 2.355 0 0 1 1-2.423 2.38 2.38 0 0 1 1.31-.397c.63 0 1.23.248 1.67.691.45.443.69 1.043.69 1.669zm-13.01 16.39c0 .467-.13.923-.39 1.312-.26.388-.63.69-1.06.87-.43.178-.91.225-1.37.134a2.437 2.437 0 0 1-1.21-.646c-.33-.33-.55-.751-.64-1.21a2.355 2.355 0 0 1 1-2.423 2.38 2.38 0 0 1 1.31-.397c.63 0 1.23.249 1.67.691.45.443.69 1.043.69 1.669zm12.97.065c0 .467-.13.923-.39 1.312-.26.388-.63.69-1.06.87-.43.178-.91.225-1.37.134a2.366 2.366 0 0 1-1.2-.646c-.34-.33-.56-.751-.65-1.21a2.355 2.355 0 0 1 1-2.423 2.38 2.38 0 0 1 1.31-.397c.63 0 1.23.248 1.67.691.45.443.69 1.043.69 1.669zm-12.89 16.438c0 .467-.13.923-.39 1.311-.26.388-.63.69-1.06.87-.43.178-.91.225-1.37.134a2.366 2.366 0 0 1-1.2-.646c-.33-.33-.56-.75-.65-1.208-.09-.458-.04-.933.13-1.364.18-.431.49-.8.87-1.059a2.372 2.372 0 0 1 2.22-.218c.28.118.54.292.76.511.22.22.4.48.51.766.12.286.18.593.18.903zm12.98.065c0 .467-.14.923-.4 1.311a2.359 2.359 0 0 1-3.63.359c-.33-.33-.56-.75-.65-1.209-.09-.458-.04-.932.14-1.363a2.365 2.365 0 0 1 2.18-1.457c.62 0 1.22.249 1.67.69.44.443.69 1.043.69 1.669zm-12.98 16.406c0 .467-.13.923-.39 1.311-.26.388-.63.69-1.06.87a2.357 2.357 0 0 1-2.57-.512c-.33-.33-.56-.75-.65-1.209a2.44 2.44 0 0 1 .13-1.363c.18-.431.49-.8.87-1.06.39-.258.85-.397 1.31-.397.31 0 .62.06.91.18.28.118.54.292.76.511.22.22.4.48.51.766.12.286.18.593.18.903zm12.98.065a2.37 2.37 0 0 1-1.46 2.18 2.35 2.35 0 0 1-1.36.134c-.46-.09-.88-.315-1.21-.645a2.36 2.36 0 0 1-.65-1.209c-.09-.457-.04-.932.14-1.363a2.365 2.365 0 0 1 2.18-1.457c.62 0 1.22.249 1.67.691.44.443.69 1.043.69 1.669zm13.43-82.749c0 .467-.14.923-.4 1.312a2.35 2.35 0 0 1-2.42 1.004 2.356 2.356 0 0 1-1.21-.646c-.33-.33-.55-.751-.65-1.21-.09-.457-.04-.932.14-1.363A2.365 2.365 0 0 1 1324.27 0a2.353 2.353 0 0 1 2.36 2.36zm12.97.064c0 .467-.14.924-.4 1.312s-.62.691-1.06.87c-.43.178-.9.225-1.36.134a2.349 2.349 0 0 1-1.85-1.855c-.1-.458-.05-.932.13-1.364a2.358 2.358 0 0 1 2.18-1.457c.63 0 1.23.25 1.67.692.44.442.69 1.042.69 1.668zm-12.89 16.439c0 .467-.14.924-.4 1.312s-.63.691-1.06.87a2.356 2.356 0 0 1-2.57-.511c-.33-.33-.55-.751-.65-1.209a2.36 2.36 0 0 1 .14-1.364 2.365 2.365 0 0 1 2.18-1.457 2.353 2.353 0 0 1 2.36 2.359zm12.97.066c0 .467-.14.923-.4 1.311-.26.389-.62.691-1.06.87a2.356 2.356 0 0 1-2.57-.511c-.33-.33-.55-.751-.64-1.21-.1-.457-.05-.932.13-1.363a2.36 2.36 0 0 1 4.54.903zm-12.97 16.405c0 .467-.14.924-.4 1.312s-.63.691-1.06.87c-.43.179-.9.226-1.36.134-.46-.09-.88-.316-1.21-.646-.33-.33-.55-.75-.65-1.208a2.36 2.36 0 0 1 .14-1.364 2.36 2.36 0 0 1 4.54.903v-.001zm12.97.065c0 .467-.14.923-.4 1.312a2.35 2.35 0 0 1-2.42 1.004 2.344 2.344 0 0 1-1.85-1.855c-.1-.458-.05-.933.13-1.364a2.365 2.365 0 0 1 2.18-1.457 2.353 2.353 0 0 1 2.36 2.36zm-13.01 16.393c0 .467-.14.923-.4 1.311-.26.388-.63.69-1.06.87-.43.178-.9.225-1.36.133a2.349 2.349 0 0 1-1.85-1.854c-.09-.458-.05-.932.13-1.364a2.363 2.363 0 0 1 2.18-1.456c.31 0 .62.061.9.18a2.34 2.34 0 0 1 1.28 1.277c.12.286.18.593.18.903zm12.97.061c0 .467-.14.924-.4 1.312-.26.389-.62.691-1.06.87-.43.179-.9.225-1.36.134-.46-.09-.88-.316-1.21-.646-.33-.33-.55-.75-.65-1.209-.09-.458-.04-.932.14-1.364a2.363 2.363 0 0 1 3.85-.766c.44.443.69 1.044.69 1.67v-.001zm-12.89 16.44a2.37 2.37 0 0 1-1.46 2.181c-.43.179-.9.225-1.36.134-.46-.09-.88-.315-1.21-.646-.33-.33-.55-.75-.65-1.208-.09-.458-.04-.933.14-1.365a2.363 2.363 0 0 1 3.85-.766c.44.443.69 1.044.69 1.67zm12.97.064a2.361 2.361 0 0 1-1.46 2.182 2.36 2.36 0 0 1-2.57-.512c-.33-.33-.55-.75-.65-1.208a2.36 2.36 0 0 1 .14-1.364 2.36 2.36 0 0 1 4.54.902zm-12.97 16.407a2.37 2.37 0 0 1-1.46 2.181 2.356 2.356 0 0 1-2.57-.511c-.33-.33-.55-.751-.65-1.21-.09-.457-.04-.932.14-1.363a2.36 2.36 0 0 1 4.54.903zm12.97.064c0 .467-.14.924-.4 1.312s-.63.69-1.06.87a2.356 2.356 0 0 1-2.57-.512c-.33-.33-.55-.75-.65-1.209-.09-.458-.04-.932.14-1.364a2.365 2.365 0 0 1 2.18-1.457 2.353 2.353 0 0 1 2.36 2.361v-.001zm15.03-16.952c0 .467-.14.924-.4 1.312s-.63.691-1.06.87c-.43.179-.9.225-1.36.134-.46-.09-.88-.316-1.21-.646-.33-.33-.56-.75-.65-1.209-.09-.457-.04-.932.14-1.364a2.363 2.363 0 0 1 2.18-1.456c.62 0 1.22.248 1.67.69.44.443.69 1.044.69 1.67v-.001zm12.97.065c0 .467-.14.924-.4 1.312s-.63.691-1.06.87a2.35 2.35 0 0 1-1.36.134c-.46-.09-.88-.316-1.21-.646-.33-.33-.56-.75-.65-1.209-.09-.458-.04-.932.14-1.364a2.358 2.358 0 0 1 3.08-1.277 2.34 2.34 0 0 1 1.28 1.277c.12.287.18.593.18.903zm-12.89 16.439c0 .466-.14.923-.4 1.311-.26.388-.63.691-1.06.87a2.356 2.356 0 0 1-2.57-.511c-.33-.33-.56-.75-.65-1.209a2.36 2.36 0 0 1 .14-1.364 2.365 2.365 0 0 1 2.18-1.457c.62 0 1.22.249 1.67.691.44.442.69 1.042.69 1.668v.001zm12.97.065a2.37 2.37 0 0 1-1.46 2.18c-.43.179-.9.225-1.36.134-.46-.09-.88-.316-1.21-.645-.33-.33-.55-.751-.65-1.209-.09-.458-.04-.932.14-1.363a2.365 2.365 0 0 1 2.18-1.457c.62 0 1.22.249 1.67.691.44.443.69 1.043.69 1.669zm-12.97 16.406a2.37 2.37 0 0 1-1.46 2.181 2.351 2.351 0 0 1-2.57-.512c-.33-.33-.56-.75-.65-1.208a2.36 2.36 0 0 1 .14-1.364 2.36 2.36 0 0 1 4.54.903zm12.97.065a2.358 2.358 0 0 1-1.46 2.18 2.356 2.356 0 0 1-2.57-.512c-.33-.33-.55-.75-.65-1.208-.09-.458-.04-.932.14-1.363a2.36 2.36 0 0 1 4.54.903zm-13.01 16.389c0 .467-.14.923-.4 1.311a2.35 2.35 0 0 1-2.42 1.004 2.355 2.355 0 0 1-1.21-.645c-.33-.33-.55-.751-.65-1.209-.09-.457-.04-.932.14-1.363.18-.432.48-.8.87-1.059.39-.26.84-.398 1.31-.398.62 0 1.22.249 1.67.691.44.442.69 1.042.69 1.668zm12.97.066a2.37 2.37 0 0 1-1.46 2.181c-.43.179-.9.226-1.36.134a2.349 2.349 0 0 1-1.21-.646c-.33-.33-.56-.75-.65-1.208a2.36 2.36 0 0 1 .14-1.364 2.36 2.36 0 0 1 4.54.903zm-12.89 16.44c0 .467-.14.923-.4 1.311a2.35 2.35 0 0 1-2.42 1.004 2.356 2.356 0 0 1-1.21-.646c-.33-.33-.56-.75-.65-1.208-.09-.458-.04-.932.14-1.363a2.36 2.36 0 0 1 4.54.902zm12.97.063a2.361 2.361 0 0 1-1.46 2.182 2.356 2.356 0 0 1-2.57-.511 2.364 2.364 0 0 1-.65-1.209 2.36 2.36 0 0 1 .14-1.364 2.36 2.36 0 0 1 4.54.902zm-12.97 16.406a2.369 2.369 0 0 1-2.82 2.315 2.356 2.356 0 0 1-1.21-.646c-.33-.33-.56-.751-.65-1.208a2.36 2.36 0 0 1 .14-1.364 2.358 2.358 0 0 1 2.18-1.457c.62 0 1.22.249 1.67.692.44.442.69 1.042.69 1.668zm12.97.065a2.37 2.37 0 0 1-1.46 2.181 2.356 2.356 0 0 1-2.57-.511 2.364 2.364 0 0 1-.65-1.209 2.36 2.36 0 0 1 .14-1.364 2.36 2.36 0 0 1 4.54.903zm13.43-82.749a2.343 2.343 0 0 1-1.45 2.18c-.43.178-.91.225-1.37.134-.45-.09-.87-.316-1.2-.646-.33-.33-.56-.75-.65-1.208a2.44 2.44 0 0 1 .13-1.363c.18-.432.49-.8.87-1.06a2.38 2.38 0 0 1 1.31-.397c.63 0 1.23.248 1.67.69.45.444.69 1.044.69 1.67zm12.97.064c0 .468-.13.924-.39 1.312a2.37 2.37 0 0 1-2.43 1.005 2.341 2.341 0 0 1-1.85-1.855c-.09-.458-.05-.933.13-1.364a2.36 2.36 0 0 1 3.85-.766c.45.442.69 1.043.69 1.669v-.001zm-12.89 16.436c0 .467-.14.923-.39 1.311a2.37 2.37 0 0 1-2.43 1.005 2.35 2.35 0 0 1-1.85-1.855c-.09-.458-.05-.933.13-1.364a2.36 2.36 0 0 1 4.54.903zm12.97.072c0 .467-.13.923-.39 1.312-.26.388-.63.69-1.06.87-.43.178-.91.225-1.37.134a2.344 2.344 0 0 1-1.85-1.855c-.09-.458-.05-.933.13-1.364a2.365 2.365 0 0 1 2.18-1.457c.31 0 .62.061.91.18.28.118.54.292.76.511.22.22.4.48.51.766.12.286.18.593.18.903zm-12.97 16.403c0 .467-.14.924-.39 1.312-.26.388-.63.691-1.06.87-.44.178-.91.225-1.37.134a2.344 2.344 0 0 1-1.85-1.855c-.09-.458-.05-.932.13-1.364a2.365 2.365 0 0 1 2.18-1.457c.63 0 1.23.25 1.67.692.44.442.69 1.042.69 1.668zm12.97.064c0 .467-.13.924-.39 1.312s-.63.691-1.06.87c-.43.178-.91.225-1.37.134a2.344 2.344 0 0 1-1.85-1.855c-.09-.458-.05-.932.13-1.364a2.365 2.365 0 0 1 2.18-1.457c.31 0 .62.061.91.18.28.118.54.292.76.511.22.22.4.48.51.766.12.286.18.593.18.903zm-13.01 16.39c0 .467-.13.923-.39 1.312a2.369 2.369 0 0 1-3.64.358c-.33-.33-.55-.751-.64-1.209-.09-.458-.05-.933.13-1.364a2.358 2.358 0 0 1 2.18-1.457 2.353 2.353 0 0 1 2.36 2.36zm12.97.064c0 .467-.14.923-.4 1.311a2.35 2.35 0 0 1-2.42 1.004 2.345 2.345 0 0 1-1.85-1.854c-.1-.458-.05-.933.13-1.364a2.358 2.358 0 0 1 2.18-1.457c.63 0 1.23.249 1.67.692.44.442.69 1.042.69 1.668zm-12.89 16.439c0 .467-.13.923-.39 1.311a2.37 2.37 0 0 1-2.43 1.004 2.364 2.364 0 0 1-1.2-.645 2.36 2.36 0 0 1-.52-2.572 2.358 2.358 0 0 1 2.18-1.457 2.353 2.353 0 0 1 2.36 2.359zm12.97.067c0 .467-.14.923-.39 1.311a2.369 2.369 0 0 1-3.64.358c-.33-.33-.55-.751-.64-1.208-.09-.458-.05-.933.13-1.364a2.358 2.358 0 0 1 2.18-1.457c.63 0 1.23.249 1.67.692.44.442.69 1.042.69 1.668zm-12.97 16.404c0 .467-.14.923-.39 1.311a2.369 2.369 0 0 1-3.64.358c-.33-.33-.55-.751-.64-1.209-.09-.457-.05-.932.13-1.363a2.358 2.358 0 0 1 2.18-1.457 2.353 2.353 0 0 1 2.36 2.36zm12.97.065c0 .467-.14.923-.39 1.311a2.369 2.369 0 0 1-3.64.358c-.33-.33-.55-.751-.64-1.209-.09-.458-.05-.932.13-1.363a2.358 2.358 0 0 1 2.18-1.457 2.353 2.353 0 0 1 2.36 2.36z" fill="#224860" fill-rule="nonzero"/></svg>
