<svg xmlns="http://www.w3.org/2000/svg" width="35" height="24" fill="none"><path fill="#118AF7" d="M23.3 24h8.754a2.911 2.911 0 0 0 2.687-1.795c.147-.353.222-.732.222-1.114v-8.754a2.911 2.911 0 0 0-1.796-2.687 2.89 2.89 0 0 0-1.113-.222h-6.619V7.566a2.521 2.521 0 0 1 2.522-2.523h.493V0h-.493a7.565 7.565 0 0 0-7.565 7.564V21.09c0 .382.075.76.22 1.114a2.895 2.895 0 0 0 1.575 1.574c.353.147.731.222 1.113.222zM2.907 24h8.755a2.911 2.911 0 0 0 2.687-1.796c.146-.353.221-.73.221-1.113v-8.754c0-.382-.075-.76-.22-1.113a2.895 2.895 0 0 0-1.575-1.574 2.894 2.894 0 0 0-1.113-.222H5.043V7.566a2.517 2.517 0 0 1 .738-1.783 2.527 2.527 0 0 1 1.783-.739h.493V0h-.493a7.56 7.56 0 0 0-5.348 2.216A7.56 7.56 0 0 0 0 7.564V21.09a2.92 2.92 0 0 0 .85 2.058c.27.27.59.484.944.63.353.147.731.222 1.113.222z"/></svg>
