<svg width="127" height="43" viewBox="0 0 127 43" fill="none" xmlns="http://www.w3.org/2000/svg">
<g clip-path="url(#clip0_1_2346)">
<path d="M120.261 1.26276H16.1436C12.6731 1.26276 9.75048 3.95702 9.47649 7.38193L1.62203 10.3502C0.480389 10.7612 -0.113262 12.0855 0.297727 13.2271C0.526055 13.8664 1.02837 14.3687 1.66769 14.5514L9.43082 17.1543V35.4662C9.43082 39.1651 12.4447 42.179 16.1436 42.179H120.261C123.96 42.179 126.974 39.1651 126.974 35.4662V7.97558C126.974 4.27668 123.96 1.26276 120.261 1.26276Z" fill="#8C9097"/>
<path d="M25.8245 12.0853C26.3268 11.2633 27.2858 10.761 28.2448 10.8066C28.5644 10.8066 28.8384 10.8523 29.1581 10.898C29.3864 10.9436 29.6604 11.035 29.8887 11.172C30.1171 11.2633 30.2997 11.4003 30.4824 11.5373C30.6194 11.6743 30.802 11.8113 30.939 11.9483C31.1674 11.7656 31.35 11.5373 31.487 11.309C31.6697 11.1263 31.761 10.8523 31.761 10.624C31.761 10.487 31.7154 10.35 31.6697 10.213C31.5784 10.076 31.487 9.98467 31.3957 9.89333C31.2587 9.802 31.1217 9.66501 30.9847 9.57368C30.7564 9.43668 30.5281 9.29968 30.2997 9.20835C29.9801 9.07136 29.6604 8.98002 29.3408 8.93436C28.9298 8.84303 28.5188 8.79736 28.1078 8.79736C27.2858 8.79736 26.4638 8.93436 25.7332 9.25402C25.0939 9.52801 24.5002 9.98467 24.0436 10.5327C23.5869 11.0806 23.2216 11.7656 23.0389 12.4506C22.8106 13.2269 22.6736 14.0489 22.7193 14.8709C22.7193 15.6928 22.8106 16.5148 23.0389 17.2911C23.2216 17.9761 23.5412 18.6154 23.9979 19.2091C24.4545 19.7571 25.0482 20.1681 25.6875 20.4421C26.4638 20.7617 27.2858 20.8987 28.1078 20.8987C28.5188 20.8987 28.9754 20.853 29.3864 20.8074C29.7061 20.716 30.0257 20.6247 30.3454 20.4877C30.5737 20.3964 30.802 20.3051 30.9847 20.1681C31.1217 20.0767 31.213 19.9854 31.35 19.8941C31.4414 19.8027 31.5327 19.6657 31.624 19.5287C31.6697 19.3918 31.7154 19.3004 31.7154 19.1634C31.7154 19.0264 31.6697 18.9351 31.624 18.7981C31.5784 18.6611 31.487 18.5698 31.4414 18.4328C31.35 18.2958 31.2587 18.2044 31.1674 18.0675L30.939 17.7478C30.8477 17.8391 30.7107 17.9305 30.5281 18.0675C30.3454 18.2044 30.1627 18.3414 29.9801 18.4328C29.7517 18.5698 29.5234 18.6611 29.2951 18.7524C29.0211 18.8438 28.7014 18.8894 28.3818 18.8894C27.8338 18.8894 27.3315 18.7981 26.8292 18.5241C26.4182 18.2958 26.0985 17.9761 25.8245 17.6108C25.5505 17.1998 25.3679 16.7432 25.2765 16.2865C25.1852 15.7842 25.1395 15.2362 25.1395 14.7339C25.1395 14.2316 25.1852 13.7292 25.2765 13.2269C25.3679 12.9073 25.5505 12.4963 25.8245 12.0853Z" fill="#8C9097"/>
<path d="M27.9254 21.7209C27.0578 21.7209 26.1901 21.5382 25.3682 21.2185C24.5919 20.8989 23.9069 20.3966 23.4046 19.7572C22.8566 19.1179 22.4912 18.3873 22.2629 17.5653C22.0346 16.6977 21.8976 15.83 21.9433 14.9167C21.9433 14.0491 22.0346 13.1357 22.3086 12.2681C22.5369 11.4461 22.9479 10.7155 23.4502 10.0762C23.9982 9.43685 24.6832 8.93453 25.4138 8.61487C26.2815 8.24954 27.1948 8.06688 28.1081 8.11255C28.5648 8.11255 29.0214 8.15821 29.4781 8.24954C29.8434 8.34088 30.2087 8.43221 30.574 8.5692C30.848 8.66053 31.122 8.79753 31.396 8.98019C31.5787 9.07152 31.7157 9.20852 31.8983 9.34552C32.081 9.52818 32.218 9.66517 32.3093 9.84784C32.4463 10.0762 32.5376 10.3502 32.5376 10.6241C32.5376 11.0351 32.355 11.4461 32.1267 11.7658C31.944 11.9941 31.7157 12.2681 31.4873 12.4964C31.2133 12.7704 30.711 12.7704 30.437 12.4508C30.3 12.3138 30.163 12.1768 30.026 12.0854C29.889 11.9484 29.7521 11.8571 29.5694 11.8115C29.3867 11.7201 29.2041 11.6288 28.9757 11.5831C28.7474 11.5375 28.5191 11.4918 28.2451 11.4918C27.4688 11.4461 26.8295 11.8115 26.4185 12.4051C26.2358 12.7248 26.0988 13.0901 26.0075 13.4554C25.9162 13.9121 25.8705 14.3687 25.8705 14.8254C25.8705 15.282 25.9162 15.7843 26.0075 16.241C26.0988 16.6063 26.2358 16.9716 26.4185 17.2913C26.6011 17.5653 26.8751 17.7936 27.1491 17.9763C27.4688 18.159 27.8798 18.2503 28.2908 18.2503C28.5648 18.2503 28.7931 18.2046 28.9757 18.159C29.1584 18.1133 29.3411 18.022 29.5237 17.9306C29.6607 17.8393 29.8434 17.748 29.9347 17.6566C30.0717 17.5196 30.2087 17.4283 30.3 17.337C30.437 17.2 30.6654 17.1543 30.848 17.1543C31.0307 17.1543 31.2133 17.2913 31.3503 17.4283L31.5787 17.7023C31.67 17.8393 31.807 17.9763 31.8983 18.1133C31.9897 18.2959 32.081 18.4329 32.1267 18.5699C32.218 18.7526 32.2637 18.9809 32.3093 19.2093C32.3093 19.4832 32.2637 19.7116 32.1267 19.9399C32.1267 19.9399 32.1267 19.9856 32.081 19.9856C31.9897 20.1682 31.8527 20.3509 31.67 20.4879C31.533 20.6249 31.3503 20.7619 31.2133 20.8532C30.985 20.9902 30.711 21.1272 30.437 21.2185C30.1174 21.3555 29.7521 21.4925 29.3867 21.5382C28.8844 21.6295 28.4278 21.6752 27.9254 21.6752C28.0624 21.7209 27.9711 21.7209 27.9254 21.7209ZM27.9711 9.61951C27.2861 9.61951 26.6468 9.7565 26.0075 10.0305C25.4595 10.2588 24.9572 10.6241 24.5919 11.0808C24.1809 11.5831 23.9069 12.1311 23.7242 12.7248C23.4959 13.4554 23.4046 14.1861 23.4046 14.9624C23.4046 15.7387 23.4959 16.4693 23.6785 17.2C23.8612 17.7936 24.1352 18.3416 24.5005 18.8439C24.8658 19.3006 25.3682 19.6659 25.9162 19.8942C26.6011 20.1682 27.2861 20.3052 28.0168 20.3052C28.4278 20.3052 28.7931 20.2596 29.2041 20.2139C29.4781 20.1682 29.7521 20.0769 29.9804 19.9399C30.2087 19.8486 30.3457 19.7572 30.5284 19.6659C30.6197 19.6202 30.6654 19.5746 30.7567 19.4832C30.8024 19.4376 30.848 19.3919 30.8937 19.3463V19.3006C30.848 19.2093 30.8024 19.1179 30.711 18.9809C30.574 19.0723 30.3914 19.1636 30.2544 19.2549C29.9804 19.3919 29.7064 19.5289 29.4324 19.6202C29.0671 19.7116 28.7017 19.8029 28.3364 19.7572C27.6971 19.7572 27.0578 19.6202 26.4641 19.3463C25.9618 19.0723 25.5052 18.6613 25.1855 18.2046C24.8658 17.7023 24.6375 17.2 24.5462 16.6063C24.4092 16.0583 24.3635 15.4647 24.3635 14.9167C24.3635 14.3687 24.4092 13.8207 24.5462 13.2727C24.6375 12.7248 24.8658 12.2224 25.1398 11.7201C25.8248 10.6698 27.0121 10.0305 28.2451 10.0762C28.5648 10.0762 28.9757 10.1218 29.3411 10.2132C29.6151 10.3045 29.9347 10.3958 30.2087 10.5328C30.437 10.6698 30.6654 10.8068 30.848 10.9438C30.848 10.9438 30.848 10.9438 30.848 10.8981C30.9394 10.8068 30.9394 10.7155 30.985 10.6241C30.9394 10.5328 30.8937 10.4872 30.848 10.4415C30.7567 10.3502 30.6654 10.3045 30.5284 10.2132C30.3457 10.0762 30.163 9.98483 29.9804 9.93917C29.7064 9.84784 29.4324 9.75651 29.1584 9.66517C28.8387 9.61951 28.4734 9.61951 28.1081 9.61951C28.0624 9.61951 28.0168 9.61951 27.9711 9.61951Z" fill="#8C9097"/>
<path d="M40.2572 15.4188C40.2572 14.9622 40.2115 14.4598 40.0745 14.0032C39.9832 13.6379 39.7549 13.2725 39.4809 12.9985C39.1612 12.7245 38.7959 12.4962 38.4306 12.4049C37.9282 12.2679 37.3803 12.2222 36.8323 12.2222C36.4213 12.2222 35.9646 12.2679 35.5536 12.3136C35.1883 12.3592 34.823 12.4962 34.4577 12.5876C34.1837 12.6789 33.9554 12.8159 33.727 12.9985C33.59 13.0899 33.4987 13.2725 33.453 13.4552C33.453 13.6379 33.5444 13.8205 33.59 14.0032C33.6814 14.2315 33.8184 14.4598 33.9554 14.6425C34.3207 14.4142 34.686 14.2315 35.097 14.0945C35.508 13.9119 35.9646 13.8662 36.4213 13.8662C36.8323 13.8205 37.2433 13.9119 37.5629 14.1402C37.8369 14.3685 37.9739 14.7338 37.9282 15.0992V15.4188H37.5629C37.4259 15.4188 37.2889 15.4188 37.1519 15.4188C36.6953 15.4645 36.2386 15.5101 35.782 15.5558C35.3253 15.6471 34.823 15.7841 34.412 16.0125C34.001 16.1951 33.59 16.5148 33.316 16.8801C32.9964 17.2911 32.8594 17.7934 32.905 18.3414C32.905 18.7524 32.9964 19.1634 33.1334 19.5287C33.2704 19.8484 33.4987 20.1224 33.7727 20.3507C34.0467 20.5333 34.3207 20.6703 34.6403 20.7617C34.96 20.853 35.2797 20.8987 35.5993 20.8987C36.1016 20.8987 36.6496 20.8073 37.1519 20.6247C37.5173 20.442 37.8826 20.2137 38.1566 19.9397C38.2022 20.2137 38.3392 20.442 38.5676 20.6247C38.8416 20.8073 39.1612 20.8987 39.5265 20.853C39.7092 20.853 39.8919 20.853 40.0745 20.8073C40.2572 20.7617 40.4855 20.716 40.6682 20.6247C40.3485 19.9854 40.2115 19.3004 40.2572 18.6154V15.4188ZM38.0196 18.4327C38.0196 18.5241 37.9739 18.6611 37.8826 18.7524C37.7913 18.8894 37.6543 18.9807 37.5173 19.072C37.3346 19.1634 37.1976 19.2547 37.0149 19.3004C36.8323 19.346 36.6039 19.3917 36.3756 19.3917C36.0103 19.4374 35.6906 19.3004 35.4166 19.0264C35.234 18.7981 35.1427 18.4784 35.1427 18.2044C35.1427 17.9304 35.1883 17.7021 35.371 17.4738C35.508 17.2911 35.6906 17.1084 35.919 17.0171C36.1473 16.8801 36.4213 16.7888 36.6953 16.7888C36.9693 16.7431 37.2433 16.6974 37.5629 16.6974H37.7913H38.0196V18.4327Z" fill="#8C9097"/>
<path d="M35.6882 21.6752C35.6425 21.6752 35.5968 21.6752 35.5512 21.6752C35.1859 21.6752 34.8205 21.6296 34.4095 21.5382C33.9986 21.4469 33.6332 21.2642 33.3136 20.9902C32.9483 20.7162 32.6286 20.3053 32.4459 19.8943C32.2176 19.4376 32.1263 18.8896 32.1263 18.3873C32.0806 17.7023 32.3089 17.063 32.6743 16.515C33.0396 16.0584 33.4506 15.693 33.9529 15.4647C33.7246 15.4647 33.4962 15.3734 33.3592 15.1907C33.1766 14.9624 32.9939 14.6884 32.8569 14.3687C32.7656 14.1404 32.6743 13.8664 32.6286 13.5924C32.6286 13.5468 32.6286 13.5011 32.6286 13.4554C32.6743 13.0444 32.9026 12.6791 33.2222 12.4508C33.4962 12.2681 33.7702 12.0855 34.1356 11.9485C34.5465 11.8115 34.9575 11.6745 35.3685 11.6288C35.8252 11.5375 36.3275 11.4918 36.7841 11.4918C37.3778 11.4918 37.9715 11.5375 38.5651 11.7201C39.0674 11.8571 39.5697 12.1311 39.9351 12.4965C40.3004 12.8618 40.5744 13.3184 40.7114 13.8208C40.8484 14.3687 40.9397 14.8711 40.894 15.4191V18.707V18.7526C40.8484 19.3006 40.9854 19.8486 41.2137 20.3509C41.305 20.5336 41.305 20.7619 41.2594 20.9446C41.168 21.1272 41.031 21.3099 40.8484 21.3556C40.62 21.4469 40.3917 21.5382 40.1177 21.5839C39.8894 21.6296 39.6611 21.6296 39.4327 21.6296C38.9304 21.6752 38.4738 21.5382 38.0628 21.2642C38.0628 21.2642 38.0171 21.2642 38.0171 21.2186C37.9715 21.1729 37.8801 21.1272 37.8345 21.0359C37.6975 21.1272 37.5148 21.2186 37.3321 21.2642C36.8755 21.5839 36.2818 21.6752 35.6882 21.6752ZM35.4142 16.4694C35.1859 16.515 35.0032 16.6064 34.8205 16.7433C34.5009 16.926 34.1812 17.1543 33.9986 17.4283C33.8159 17.7023 33.7246 18.022 33.7246 18.3873V18.433C33.7246 18.7526 33.7702 19.0266 33.9072 19.3006C33.9986 19.4833 34.1356 19.6659 34.3182 19.8486C34.5009 19.9856 34.6835 20.0769 34.9119 20.1226C35.1402 20.2139 35.4142 20.2139 35.6425 20.2139C35.9165 20.2139 36.1905 20.2139 36.4188 20.1226C35.8708 20.1683 35.3229 19.9399 34.9119 19.5289L34.8662 19.4833C34.5922 19.118 34.4095 18.6613 34.4095 18.2046C34.4095 17.7937 34.5009 17.3827 34.7749 17.063C34.9119 16.8347 35.1402 16.6064 35.4142 16.4694ZM38.9761 20.0769C39.1131 20.1683 39.2958 20.2139 39.4327 20.1683H39.4784H39.6154C39.4784 19.6659 39.4327 19.1636 39.4784 18.6613V15.4191C39.4784 15.0081 39.4327 14.5971 39.3414 14.2317C39.2501 14.0034 39.1588 13.7751 38.9304 13.5468C38.7478 13.3641 38.4738 13.2271 38.1998 13.1358C37.7431 12.9988 37.2865 12.9531 36.8298 12.9531C36.4188 12.9531 36.0535 12.9988 35.6425 13.0444C35.3229 13.0901 35.0032 13.1814 34.6835 13.3184C34.5009 13.3641 34.3639 13.4554 34.1812 13.5924C34.1812 13.6381 34.2269 13.6838 34.2269 13.6838C34.4095 13.5924 34.5922 13.5011 34.8205 13.4098C35.3229 13.1814 35.8708 13.0901 36.4188 13.0901C36.9668 13.0444 37.5148 13.1814 37.9715 13.5011C38.0171 13.5468 38.0628 13.5468 38.1084 13.5924C38.5194 14.0034 38.7478 14.5514 38.7021 15.1451V15.4191C38.7021 15.693 38.5651 15.8757 38.3824 16.0127C38.6108 16.1497 38.7478 16.378 38.7478 16.652V18.433V18.4786C38.7021 18.7526 38.6108 19.0266 38.4281 19.2093V19.255C38.7021 19.3463 38.8848 19.5746 38.9304 19.8486C38.8848 19.9399 38.9304 20.0313 38.9761 20.0769ZM36.0078 18.5243C36.0992 18.6156 36.1905 18.6156 36.3275 18.6156H36.4188C36.5558 18.6156 36.6928 18.6156 36.8298 18.57C36.9668 18.5243 37.0581 18.4786 37.1951 18.433C37.2408 18.3873 37.2865 18.3873 37.3321 18.3416V17.474C37.1495 17.474 37.0125 17.5197 36.8298 17.5197C36.6472 17.5653 36.4645 17.611 36.2818 17.7023C36.1448 17.748 36.0535 17.8393 36.0078 17.9307C35.9622 17.9763 35.9165 18.0676 35.9622 18.159V18.2046C35.9165 18.3416 35.9165 18.433 36.0078 18.5243ZM36.4188 14.6427C36.0535 14.6427 35.7338 14.6884 35.4142 14.8254C35.2315 14.9167 35.0489 14.9624 34.8662 15.0537C35.1402 14.9624 35.4142 14.8711 35.6882 14.8254C36.1448 14.7341 36.5558 14.6884 37.0125 14.6884C36.8755 14.6427 36.6928 14.5971 36.5102 14.5971C36.4645 14.5971 36.4645 14.5971 36.4188 14.5971V14.6427Z" fill="#8C9097"/>
<path d="M49.2045 13.1355C48.9305 12.8159 48.5651 12.5876 48.1542 12.4506C47.7432 12.3136 47.3322 12.2222 46.9212 12.2222C46.4189 12.2222 45.8709 12.3136 45.4142 12.5419C45.0946 12.7245 44.7749 12.9529 44.5466 13.2269C44.5009 12.9529 44.3183 12.7245 44.0443 12.5876C43.7246 12.4506 43.4049 12.4049 43.0396 12.4049H42.72C42.6286 12.4049 42.5373 12.4049 42.4916 12.4506L42.2633 12.4962V24.4606H44.6379V20.1224C44.6836 20.2137 44.7292 20.2594 44.8206 20.305C44.9576 20.3963 45.0489 20.5333 45.2316 20.579C45.4142 20.6703 45.6426 20.7617 45.8709 20.8073C46.1449 20.8987 46.4645 20.9443 46.7385 20.8987C47.1495 20.8987 47.5605 20.8073 47.9715 20.6703C48.3825 20.5333 48.7478 20.2594 49.0675 19.9397C49.4328 19.5287 49.7068 19.072 49.8894 18.5697C50.1178 17.8391 50.2091 17.1084 50.2091 16.3321C50.2091 15.6471 50.1178 15.0078 49.9351 14.3685C49.7524 13.9575 49.5241 13.5465 49.2045 13.1355ZM47.2865 18.3871C47.0125 18.8437 46.5102 19.1177 46.0079 19.072C45.7339 19.072 45.4599 19.0264 45.1859 18.8894C45.0032 18.7981 44.8206 18.7067 44.6836 18.5697V14.8708C44.6836 14.6425 44.7749 14.4142 44.9576 14.2772C45.2316 14.0488 45.5969 13.9575 45.9622 14.0032C46.2362 14.0032 46.5102 14.0488 46.7842 14.1858C47.0125 14.3228 47.1952 14.4598 47.3322 14.6882C47.4692 14.9165 47.5605 15.1905 47.6062 15.4645C47.6518 15.7841 47.6975 16.1038 47.6975 16.4235C47.7432 17.1541 47.6062 17.7934 47.2865 18.3871Z" fill="#8C9097"/>
<path d="M44.6396 25.146H42.265C41.854 25.146 41.5344 24.8263 41.5344 24.4153V12.451C41.5344 12.0857 41.8084 11.766 42.1737 11.7203L42.402 11.6747C42.4933 11.6747 42.5847 11.629 42.7217 11.629H43.087C43.498 11.629 43.9546 11.7203 44.3656 11.903C44.5026 11.9487 44.5939 12.04 44.7309 12.1313C44.8679 12.04 44.9593 11.9943 45.0963 11.903C45.6899 11.5834 46.3292 11.4464 46.9686 11.492C47.4252 11.492 47.9275 11.5834 48.3842 11.766C48.8865 11.9487 49.3432 12.2683 49.7085 12.6793C50.1195 13.136 50.3935 13.6383 50.5761 14.2319C50.8045 14.9626 50.8958 15.6932 50.8958 16.4239C50.8958 17.2459 50.8045 18.0678 50.5305 18.8442C50.3478 19.4835 49.9825 20.0315 49.5715 20.5338C49.1605 20.9448 48.7038 21.2644 48.1559 21.4471C47.6992 21.6298 47.1969 21.6754 46.6946 21.7211C46.3292 21.7211 45.9639 21.6754 45.5986 21.5841C45.5073 21.5384 45.4159 21.5384 45.3246 21.4928V24.4153C45.4159 24.8263 45.0506 25.146 44.6396 25.146ZM43.0413 23.6847H43.909V20.1228C43.909 19.8031 44.0916 19.5291 44.4113 19.4378C44.457 19.4378 44.457 19.4378 44.5026 19.3921C44.4113 19.3008 44.2743 19.2552 44.183 19.1638C44.0003 19.0268 43.909 18.7985 43.909 18.6158V14.9169C43.909 14.5516 44.046 14.2319 44.2743 13.958C44.046 13.8666 43.909 13.684 43.8176 13.41C43.8176 13.3643 43.772 13.3186 43.7263 13.273C43.5436 13.1816 43.3153 13.136 43.087 13.136H43.0413V23.6847ZM45.3246 19.7575C45.4159 19.8031 45.4616 19.8945 45.5529 19.8945C45.7356 19.9858 45.8726 20.0315 46.0552 20.0771C46.2836 20.1228 46.5119 20.1685 46.6946 20.1685C47.0599 20.1685 47.3795 20.1228 47.6992 19.9858C48.0189 19.8945 48.2928 19.7118 48.5212 19.4378C48.7952 19.1182 49.0235 18.7528 49.1605 18.3418C49.3432 17.7025 49.4345 17.0175 49.4345 16.3782C49.4345 15.7389 49.3888 15.1909 49.2062 14.5973C49.0692 14.2319 48.8865 13.9123 48.6582 13.5926C48.4755 13.3643 48.2015 13.1816 47.9275 13.0903C47.6079 12.999 47.2882 12.9077 46.9686 12.9077C46.5576 12.9077 46.1466 12.999 45.8269 13.1816C45.8269 13.1816 45.7812 13.1816 45.7812 13.2273H46.0552C46.4662 13.2273 46.8316 13.3186 47.1969 13.5013C47.5622 13.684 47.8362 13.958 48.0189 14.2776C48.2015 14.5973 48.3385 14.9626 48.3842 15.3279C48.4298 15.6932 48.4755 16.0586 48.4755 16.4239C48.5212 17.2002 48.3385 18.0222 47.9732 18.7528V18.7985C47.5622 19.4835 46.8316 19.8945 46.0096 19.8488C45.7812 19.8488 45.5529 19.8031 45.3246 19.7575ZM46.0096 18.3418C46.2836 18.3418 46.5119 18.2505 46.6489 18.0222C46.8772 17.5655 47.0142 17.0175 46.9686 16.4696V16.4239C46.9686 16.1499 46.9686 15.8759 46.8772 15.6019C46.8316 15.4193 46.7859 15.2366 46.6946 15.0539C46.6489 14.9626 46.5576 14.8713 46.4662 14.8256C46.3292 14.7799 46.1922 14.7343 46.0096 14.7343C45.9639 14.7343 45.9182 14.7343 45.9182 14.7343C45.7813 14.7343 45.5986 14.7343 45.4616 14.8256V14.8713V18.1592C45.5073 18.1592 45.5073 18.2048 45.5529 18.2048C45.6443 18.3418 45.8269 18.3418 46.0096 18.3418C45.9639 18.3418 45.9639 18.3418 46.0096 18.3418Z" fill="#8C9097"/>
<path d="M56.5126 18.5242C56.4669 18.5698 56.4212 18.6155 56.3299 18.6612C56.2386 18.7525 56.1472 18.7981 56.0103 18.8438C55.8733 18.9351 55.7363 18.9808 55.5993 19.0265C55.4623 19.0721 55.2796 19.1178 55.1426 19.1178C54.5033 19.1178 54.138 18.7068 54.138 17.8848V14.1859H56.5582V12.4506H54.138V11.2177C54.138 10.9894 54.0923 10.7154 54.001 10.5327C53.9096 10.35 53.7726 10.213 53.6357 10.1217C53.4987 10.0304 53.316 9.93905 53.1333 9.89338C52.9507 9.84772 52.768 9.84772 52.5853 9.84772H52.3114C52.22 9.84772 52.1287 9.84772 52.0374 9.89338L51.7634 9.93905V18.0218C51.7634 18.2958 51.7634 18.5242 51.809 18.7981C51.809 19.0265 51.9004 19.3005 51.946 19.5288C52.083 19.9855 52.4027 20.3508 52.768 20.6248C53.2703 20.9444 53.864 21.0814 54.4576 21.0358C54.823 21.0358 55.1426 20.9901 55.4623 20.9444C55.7363 20.8988 56.0103 20.7618 56.2842 20.6248C56.4669 20.5334 56.6496 20.3964 56.7866 20.2138C56.9236 20.0768 56.9692 19.9398 56.9692 19.7571C56.9692 19.5745 56.9236 19.3918 56.8322 19.2091C56.7866 18.9351 56.6496 18.7068 56.5126 18.5242Z" fill="#8C9097"/>
<path d="M54.3668 21.7207C53.6818 21.7207 53.0425 21.538 52.4945 21.1727C51.9466 20.8074 51.5356 20.3051 51.3529 19.6657C51.2616 19.3918 51.1702 19.0721 51.1702 18.7524C51.1246 18.4784 51.1246 18.1588 51.1246 17.8848V9.84767C51.1246 9.48235 51.3986 9.16269 51.7639 9.11703L52.0379 9.07136C52.1292 9.07136 52.2205 9.0257 52.3575 9.0257H52.6772C52.9055 9.0257 53.1339 9.0257 53.3622 9.07136C53.6362 9.11703 53.9102 9.25402 54.1385 9.39102C54.4125 9.57368 54.5951 9.80201 54.7321 10.1217C54.8691 10.4413 54.9605 10.8066 54.9605 11.172V11.6286H56.6501C57.0611 11.6286 57.3807 11.9483 57.3807 12.3593V14.1859C57.3807 14.5969 57.0611 14.9165 56.6501 14.9165H54.9605V17.8848C54.9605 18.3415 55.0518 18.3415 55.1888 18.3415C55.2801 18.3415 55.3258 18.3415 55.4171 18.2958C55.5085 18.2501 55.5998 18.2045 55.6911 18.1588C55.7368 18.1131 55.8281 18.0675 55.8738 18.0218C55.9194 17.9761 55.9651 17.9305 56.0108 17.9305C56.1478 17.7935 56.3761 17.7021 56.6044 17.7021C56.8328 17.7021 57.0154 17.8391 57.1524 18.0218C57.3351 18.2501 57.4721 18.5241 57.6091 18.7524C57.7461 19.0264 57.8374 19.3004 57.8374 19.6201C57.8374 19.9854 57.7004 20.3507 57.4721 20.5791C57.2894 20.8074 57.0611 20.99 56.7414 21.127C56.4218 21.3097 56.1021 21.401 55.7368 21.4924C55.3715 21.5837 54.9605 21.6294 54.5495 21.6294C54.5038 21.7207 54.4125 21.7207 54.3668 21.7207ZM52.5402 10.5327V17.9305C52.5402 18.1588 52.5402 18.3871 52.5859 18.5698V18.6154C52.5859 18.7981 52.6315 18.9808 52.7229 19.1634C52.8142 19.4374 53.0425 19.7114 53.2708 19.8941C53.6362 20.1224 54.0472 20.2137 54.5038 20.1681H54.5495C54.8235 20.1681 55.1431 20.1224 55.4171 20.0767C55.6455 20.0311 55.8281 19.9397 56.0564 19.8484C56.1478 19.8027 56.2848 19.7114 56.3304 19.6201C56.3304 19.5744 56.3304 19.5744 56.3304 19.5288C56.1934 19.5744 56.0564 19.6657 55.9194 19.7114C55.6911 19.8027 55.4628 19.8484 55.2345 19.8484C54.1385 19.8484 53.4992 19.1178 53.4992 17.8848V14.1859C53.4992 13.7749 53.8188 13.4552 54.2298 13.4552H55.9194V13.1813H54.2298C53.8188 13.1813 53.4992 12.8616 53.4992 12.4506V11.2176C53.4992 11.0806 53.4992 10.9436 53.4078 10.8066C53.4078 10.761 53.3622 10.7153 53.2708 10.6697C53.2252 10.624 53.1339 10.5783 53.0425 10.5783C52.9055 10.5783 52.7685 10.5327 52.6315 10.5327H52.5402Z" fill="#8C9097"/>
<path d="M64.7306 13.3639C64.411 12.9985 64.0457 12.7245 63.6347 12.5419C63.1324 12.3136 62.5387 12.2222 61.9907 12.2222C61.4884 12.2222 60.9861 12.3136 60.5294 12.4506C60.0728 12.6332 59.6161 12.8615 59.2508 13.2269C58.8398 13.5922 58.5201 14.0488 58.3375 14.5512C58.1091 15.1448 57.9722 15.7841 57.9722 16.4235C57.9265 17.1998 58.0635 17.9304 58.3375 18.6611C58.5658 19.209 58.9311 19.6657 59.3421 20.0767C59.7531 20.442 60.2554 20.6703 60.7577 20.8073C61.3057 20.9443 61.8081 21.0357 62.356 21.0357C62.904 21.0357 63.4063 20.99 63.9087 20.853C64.274 20.7617 64.6393 20.579 64.959 20.3963C65.233 20.2594 65.37 19.9854 65.4156 19.7114C65.4156 19.483 65.3243 19.2547 65.1873 19.0264C65.0503 18.7981 64.9133 18.5697 64.7306 18.3414L64.3653 18.6611C64.2283 18.7981 64.0913 18.8894 63.9087 18.9807C63.726 19.072 63.4977 19.1634 63.315 19.209C63.0867 19.2547 62.8127 19.3004 62.5387 19.3004C61.8994 19.346 61.3057 19.1177 60.8947 18.6611C60.5294 18.2044 60.3468 17.6564 60.3011 17.0628H65.4156C65.4156 16.9714 65.4156 16.9258 65.4613 16.8344C65.4613 16.7431 65.4613 16.6518 65.4613 16.5148C65.4613 16.3778 65.4613 16.3321 65.4613 16.1951V15.9668C65.4613 15.5101 65.4156 15.0535 65.2786 14.5968C65.233 14.0945 65.0046 13.6835 64.7306 13.3639ZM60.3468 15.6928C60.3011 15.1905 60.4838 14.7338 60.7577 14.3228C61.0317 14.0032 61.4884 13.8205 61.8994 13.8205C62.356 13.7749 62.8127 13.9575 63.0867 14.3228C63.315 14.7338 63.452 15.2361 63.4063 15.6928H60.3468Z" fill="#8C9097"/>
<path d="M62.494 21.7664C62.4483 21.7664 62.4026 21.7664 62.4026 21.7664C61.809 21.7664 61.2153 21.6751 60.6217 21.5381C59.9824 21.3554 59.4344 21.0814 58.9321 20.6704C58.3841 20.2138 57.9731 19.6201 57.6991 18.9808C57.3794 18.1588 57.2424 17.2912 57.2424 16.4692C57.2424 15.7386 57.3338 15.0079 57.6534 14.3229C57.8817 13.7293 58.2927 13.1813 58.7494 12.7247C59.206 12.3137 59.7084 11.994 60.302 11.8113C60.85 11.6287 61.4437 11.5374 61.9916 11.5374C62.631 11.5374 63.3159 11.6287 63.9096 11.9027C64.4576 12.131 64.9142 12.4963 65.2795 12.9073C65.6449 13.3183 65.8732 13.8663 66.0559 14.3686C66.1929 14.8709 66.2842 15.4189 66.2842 15.9212V16.7889C66.2842 16.9259 66.2842 17.0629 66.2385 17.1542C66.1929 17.5195 65.8732 17.7935 65.5079 17.7935H65.2795C65.3252 17.7935 65.3252 17.8392 65.3252 17.8849C65.5079 18.1132 65.6905 18.3872 65.8732 18.6612C66.0559 18.9352 66.1472 19.2548 66.1929 19.6201V19.7571C66.1472 20.3051 65.8275 20.7618 65.3709 21.0358C65.0056 21.3098 64.5946 21.4924 64.1379 21.5838C63.6356 21.6751 63.0876 21.7664 62.494 21.7664ZM62.4026 20.2595C62.8593 20.2595 63.3159 20.2138 63.7726 20.0768C64.0466 19.9855 64.3206 19.8941 64.5946 19.7115C64.6402 19.7115 64.6402 19.6658 64.6859 19.6658C64.7316 19.6658 64.7316 19.6201 64.7316 19.6201C64.7316 19.5288 64.6859 19.4375 64.6402 19.3918C64.5489 19.4375 64.4576 19.5288 64.3206 19.5745C64.0923 19.7115 63.8183 19.8028 63.5899 19.8485C63.2703 19.9398 62.9506 19.9855 62.631 19.9855C61.809 20.0311 60.987 19.7115 60.3933 19.1178L60.3477 19.0722C59.891 18.4785 59.617 17.7935 59.5714 17.0629C59.5714 16.8802 59.617 16.6519 59.7997 16.5149C59.8454 16.4692 59.891 16.4236 59.9824 16.3779C59.754 16.2409 59.5714 16.0126 59.5714 15.7386C59.5257 15.0536 59.754 14.4143 60.165 13.8663C60.6217 13.364 61.2153 13.09 61.8546 13.09C62.5396 13.0443 63.2246 13.364 63.6356 13.912L63.6813 13.9576C64.0009 14.5056 64.1379 15.0993 64.0923 15.7386C64.0923 15.9212 64.0009 16.1039 63.8639 16.2409H64.7316V15.9212C64.7316 15.5102 64.6859 15.1449 64.5489 14.7339C64.4576 14.3686 64.2749 14.0946 64.0923 13.8206C63.8639 13.5466 63.5899 13.364 63.2703 13.227C62.8593 13.0443 62.4026 12.953 61.946 12.9986C61.4893 12.9986 61.0783 13.09 60.713 13.1813C60.3477 13.3183 59.9824 13.501 59.7084 13.775C59.3887 14.049 59.1604 14.4143 58.9777 14.8253C58.7951 15.3276 58.6581 15.8756 58.7037 16.4236C58.7037 17.1085 58.7951 17.7935 59.0234 18.3872C59.206 18.7982 59.48 19.2092 59.8454 19.4831C60.165 19.7571 60.5303 19.9398 60.9413 20.0768C61.4437 20.2138 61.9003 20.2595 62.4026 20.2595ZM61.535 18.1132C61.809 18.3872 62.1743 18.5242 62.5396 18.4785H62.631C62.8136 18.4785 62.9963 18.4785 63.1789 18.3872C63.3159 18.3415 63.4986 18.2958 63.6356 18.2045C63.7269 18.1588 63.8639 18.0675 63.9553 17.9762L64.2749 17.7022H61.3067C61.3523 17.8849 61.4437 17.9762 61.535 18.1132ZM61.2153 14.9623H62.5396C62.494 14.8709 62.494 14.8253 62.4483 14.7339C62.357 14.5969 62.1743 14.5513 61.9916 14.5513C61.946 14.5513 61.9003 14.5513 61.8546 14.5513C61.6263 14.5513 61.4437 14.6426 61.3067 14.7796C61.3067 14.8709 61.261 14.9166 61.2153 14.9623Z" fill="#8C9097"/>
<path d="M72.4476 12.4049C72.3106 12.3592 72.128 12.3136 71.991 12.2679C71.854 12.2679 71.6713 12.2222 71.5343 12.2222C71.306 12.2222 71.0777 12.2679 70.895 12.3136C70.7123 12.3592 70.5297 12.4506 70.347 12.5876C70.21 12.6789 70.0274 12.8159 69.936 12.9529C69.8447 13.0442 69.7534 13.1812 69.662 13.3182C69.6164 13.0442 69.388 12.7702 69.1597 12.6332C68.8401 12.4962 68.5204 12.4049 68.2008 12.4049H67.8811C67.7898 12.4049 67.6984 12.4049 67.6528 12.4506L67.4244 12.4962V20.99H69.799V15.3275C69.799 15.0535 69.936 14.7795 70.1644 14.5968C70.4384 14.3685 70.758 14.2772 71.0777 14.2772C71.306 14.2772 71.5343 14.3228 71.7627 14.4142C71.991 14.5055 72.1736 14.6425 72.3563 14.7795C72.4933 14.5055 72.6303 14.2315 72.7216 13.9575C72.8586 13.6835 72.9043 13.3639 72.9043 13.0899C72.9043 12.9529 72.8586 12.8159 72.7673 12.6789C72.676 12.5419 72.5846 12.4506 72.4476 12.4049Z" fill="#8C9097"/>
<path d="M69.7106 21.721H67.336C66.925 21.721 66.6053 21.4013 66.6053 20.9903V12.4509C66.6053 12.0855 66.8793 11.7659 67.2447 11.7202L67.473 11.6746C67.5643 11.6746 67.7013 11.6289 67.7926 11.6289H68.158C68.6146 11.6289 69.0256 11.7202 69.4366 11.9029C69.5279 11.9485 69.6193 11.9942 69.7106 12.0855C69.8019 12.0399 69.8476 11.9942 69.9389 11.9029C70.1673 11.7659 70.3956 11.6746 70.6239 11.5832C70.9436 11.4919 71.2176 11.4462 71.5372 11.4462C71.7199 11.4462 71.9025 11.4462 72.0852 11.4919C72.3135 11.5376 72.5419 11.5832 72.7702 11.6746C72.9985 11.8116 73.1812 11.9485 73.3182 12.1769C73.5008 12.4052 73.5922 12.7249 73.5922 13.0445C73.5922 13.4555 73.5008 13.8208 73.3638 14.1862C73.2725 14.4601 73.0898 14.7798 72.9528 15.0995C72.8615 15.2821 72.6789 15.4191 72.4505 15.4648C72.2222 15.5105 71.9939 15.4648 71.8112 15.3278C71.6742 15.2365 71.5372 15.1451 71.4002 15.0538C71.3089 15.0081 71.1719 15.0081 71.0349 15.0081H70.9892C70.8522 15.0081 70.7152 15.0538 70.5782 15.1451C70.4869 15.1908 70.4869 15.2821 70.4869 15.3278V20.9446C70.4869 21.3556 70.1216 21.721 69.7106 21.721ZM68.1123 20.214H68.9799V15.3278C68.9799 14.8255 69.2083 14.3232 69.5736 14.0035C69.5279 14.0035 69.4823 14.0035 69.4823 14.0035C69.2083 13.9578 68.98 13.7295 68.8886 13.4098C68.8886 13.3185 68.843 13.2728 68.7516 13.2272C68.569 13.1359 68.3406 13.0902 68.158 13.0902H68.1123V20.214ZM71.0349 13.5012C71.3546 13.5012 71.6742 13.5468 71.9482 13.6838V13.6382C72.0395 13.4098 72.0852 13.2272 72.0852 13.0445C71.9939 12.9989 71.9482 12.9989 71.8569 12.9989C71.7199 12.9989 71.6285 12.9532 71.4916 12.9532C71.3546 12.9532 71.2176 12.9532 71.0806 12.9989C70.9436 13.0445 70.8066 13.0902 70.6696 13.1815C70.5782 13.2272 70.4869 13.3185 70.3956 13.4098C70.3499 13.4555 70.3042 13.5468 70.2586 13.5925C70.5326 13.5468 70.7609 13.5012 71.0349 13.5012Z" fill="#8C9097"/>
<path d="M79.2057 12.4049C79.0687 12.3592 78.9317 12.3136 78.7947 12.2679C78.6577 12.2679 78.475 12.2222 78.338 12.2222C78.1097 12.2222 77.8814 12.2679 77.6987 12.3136C77.5161 12.3592 77.3334 12.4506 77.1507 12.5876C77.0137 12.6789 76.8311 12.8159 76.7398 12.9529C76.6484 13.0442 76.5571 13.1812 76.4658 13.3182C76.4201 13.0442 76.2374 12.7702 75.9634 12.6332C75.6894 12.4962 75.3241 12.4049 75.0045 12.4049H74.6848C74.5935 12.4049 74.5021 12.4049 74.4565 12.4506L74.2281 12.4962V20.99H76.6028V15.3275C76.6028 15.0535 76.7398 14.7795 76.9681 14.5968C77.2421 14.3685 77.5617 14.2772 77.8814 14.2772C78.1097 14.2772 78.338 14.3228 78.5664 14.4142C78.7947 14.5055 78.9774 14.6425 79.16 14.7795C79.297 14.5055 79.434 14.2315 79.5253 13.9575C79.6623 13.6835 79.708 13.3639 79.708 13.0899C79.708 12.9529 79.6623 12.8159 79.571 12.6789C79.434 12.5419 79.297 12.4506 79.2057 12.4049Z" fill="#8C9097"/>
<path d="M76.5142 21.721H74.1396C73.7287 21.721 73.409 21.4013 73.409 20.9903V12.4509C73.409 12.0855 73.683 11.7659 74.0483 11.7202L74.2766 11.6746C74.368 11.6746 74.505 11.6289 74.5963 11.6289H74.9616C75.4183 11.6289 75.8293 11.7202 76.2403 11.9029C76.3316 11.9485 76.4229 11.9942 76.5142 12.0855C76.6056 12.0399 76.6512 11.9942 76.7426 11.9029C76.9709 11.7659 77.1992 11.6746 77.4276 11.5832C77.7472 11.4919 78.0212 11.4462 78.3409 11.4462C78.5235 11.4462 78.7062 11.4462 78.8889 11.4919C79.1172 11.5376 79.3455 11.5832 79.5282 11.6746C79.7565 11.7659 79.9848 11.9485 80.1218 12.1312L80.1675 12.1769C80.3501 12.4052 80.4415 12.7249 80.3958 13.0445C80.3958 13.4555 80.3045 13.8208 80.1675 14.1862C80.0762 14.4601 79.8935 14.7798 79.7565 15.0995C79.6652 15.2821 79.4825 15.4191 79.2542 15.4648C79.0259 15.5105 78.7975 15.4648 78.6149 15.2821C78.4779 15.1908 78.3409 15.0995 78.2039 15.0081C78.1125 14.9625 77.9755 14.9625 77.8385 14.9625C77.6559 14.9625 77.5189 15.0081 77.3819 15.0995C77.3362 15.1451 77.2906 15.1908 77.2906 15.2821V20.899C77.2449 21.3556 76.9252 21.721 76.5142 21.721ZM74.8703 20.214H75.7379V15.3278C75.7379 14.8255 75.9663 14.3688 76.3316 14.0035C76.2859 14.0035 76.2403 14.0035 76.1946 14.0035C75.9206 13.9578 75.6923 13.7295 75.6009 13.4098C75.6009 13.3642 75.5553 13.2728 75.4639 13.2728C75.2813 13.1815 75.053 13.1359 74.8703 13.1359H74.8246V20.214H74.8703ZM77.8385 13.5012C78.1125 13.5012 78.4322 13.5468 78.7062 13.6838C78.7062 13.6838 78.7062 13.6838 78.7062 13.6382C78.7975 13.4555 78.8432 13.2272 78.8432 13.0445C78.8432 13.0445 78.8432 13.0445 78.7975 13.0445C78.7519 12.9989 78.6605 12.9989 78.5692 12.9989C78.4322 12.9989 78.3409 12.9532 78.2039 12.9532C78.0669 12.9532 77.9299 12.9532 77.7929 12.9989C77.6559 13.0445 77.5189 13.0902 77.3819 13.1815C77.2906 13.2272 77.1992 13.3185 77.1079 13.4098C77.0622 13.4555 77.0166 13.5468 76.9709 13.5925C77.1992 13.5012 77.4732 13.4555 77.7472 13.4555C77.8385 13.5012 77.8385 13.5012 77.8385 13.5012Z" fill="#8C9097"/>
<path d="M87.7002 18.7067V15.4188C87.7002 14.9622 87.6545 14.4598 87.5175 14.0032C87.4262 13.6379 87.1979 13.2725 86.9239 12.9985C86.6042 12.7245 86.2389 12.4962 85.8736 12.4049C85.3712 12.2679 84.8232 12.2222 84.2753 12.2222C83.8643 12.2222 83.4076 12.2679 82.9966 12.3136C82.6313 12.3592 82.266 12.4962 81.9007 12.5876C81.6267 12.6789 81.3983 12.8159 81.17 12.9985C81.033 13.0899 80.896 13.2725 80.896 13.4552C80.896 13.6379 80.9417 13.8205 81.033 14.0032C81.1243 14.2315 81.2613 14.4598 81.444 14.6425C81.8093 14.4142 82.1746 14.2315 82.5856 14.0945C82.9966 13.9119 83.4533 13.8662 83.9099 13.8662C84.3209 13.8205 84.7319 13.9119 85.0516 14.1402C85.3256 14.3685 85.4626 14.7338 85.4169 15.0992V15.4188H85.0516C84.9146 15.4188 84.7776 15.4188 84.6406 15.4188C84.1839 15.4645 83.7273 15.5101 83.2706 15.5558C82.814 15.6471 82.3116 15.7841 81.9007 16.0125C81.4897 16.1951 81.0787 16.5148 80.8047 16.8801C80.485 17.2911 80.348 17.7934 80.3937 18.3414C80.3937 18.7524 80.485 19.1634 80.622 19.5287C80.759 19.8484 80.9873 20.1224 81.2613 20.305C81.5353 20.4877 81.8093 20.6247 82.129 20.716C82.4486 20.8073 82.7683 20.853 83.088 20.853C83.5903 20.853 84.1383 20.7617 84.6406 20.579C85.0059 20.3963 85.3712 20.168 85.6452 19.894C85.6909 20.168 85.8279 20.3963 86.0562 20.579C86.3302 20.7617 86.6499 20.853 87.0152 20.8073C87.1978 20.8073 87.3805 20.8073 87.5632 20.7617C87.7458 20.716 87.9742 20.6703 88.1568 20.579C87.7915 20.0767 87.6545 19.3917 87.7002 18.7067ZM85.4626 18.4327C85.4626 18.5241 85.4169 18.6611 85.3256 18.7524C85.2342 18.8894 85.0972 18.9807 84.9602 19.072C84.7776 19.1634 84.6406 19.2547 84.4579 19.3004C84.2753 19.346 84.0469 19.3917 83.8186 19.3917C83.4533 19.4374 83.1336 19.3004 82.8596 19.0264C82.677 18.7981 82.5856 18.4784 82.5856 18.2044C82.5856 17.9304 82.6313 17.7021 82.814 17.4738C82.951 17.2911 83.1336 17.1084 83.3619 17.0171C83.5903 16.8801 83.8643 16.7888 84.1383 16.7888C84.4123 16.7431 84.6863 16.6974 85.0059 16.6974H85.2342H85.4626V18.4327Z" fill="#8C9097"/>
<path d="M83.1337 21.6752C83.0881 21.6752 83.0424 21.6752 82.9967 21.6752C82.6314 21.6752 82.2204 21.6296 81.8551 21.4926C81.4441 21.4012 81.0788 21.2186 80.7591 20.9446C80.3938 20.6706 80.1198 20.3053 79.8915 19.8943C79.6632 19.4376 79.5718 18.8896 79.5718 18.3873C79.5262 17.7023 79.7545 17.063 80.1198 16.515C80.4851 16.0584 80.8961 15.693 81.3984 15.4647C81.1701 15.4647 80.9418 15.3734 80.8048 15.1907C80.5765 14.9624 80.4395 14.6427 80.3025 14.3687C80.2111 14.1404 80.1198 13.8664 80.0742 13.5924C80.0742 13.5468 80.0742 13.5011 80.0742 13.4554C80.1198 13.0444 80.3025 12.6791 80.6221 12.4508C80.8961 12.2225 81.2158 12.0398 81.5354 11.9485C81.9008 11.8115 82.3118 11.6745 82.7228 11.6288C83.1794 11.5375 83.6817 11.4918 84.1384 11.4918C84.732 11.4918 85.3257 11.5375 85.9193 11.7201C86.4217 11.8571 86.924 12.1311 87.2893 12.4965C87.6546 12.8618 87.9286 13.3184 88.0656 13.8208C88.2026 14.3687 88.2939 14.8711 88.2483 15.4191V18.6613V18.707C88.2026 19.255 88.2939 19.8029 88.5679 20.3053C88.6593 20.4879 88.6593 20.7162 88.6136 20.8989C88.5223 21.0816 88.3853 21.2642 88.2026 21.3099C87.9743 21.4012 87.746 21.4926 87.472 21.5382C87.2436 21.5839 87.0153 21.5839 86.787 21.6296C86.2847 21.6752 85.828 21.5382 85.417 21.2642C85.417 21.2642 85.3713 21.2642 85.3713 21.2186C85.3257 21.1729 85.2343 21.1272 85.1887 21.0359C85.0517 21.1272 84.869 21.2186 84.6864 21.2642C84.321 21.5382 83.7274 21.6752 83.1337 21.6752ZM82.8597 16.4694C82.6314 16.515 82.4488 16.6064 82.2204 16.7433C81.8551 16.926 81.5811 17.1543 81.3528 17.4283C81.1701 17.7023 81.0788 18.022 81.0788 18.3873V18.433C81.0788 18.7526 81.1245 19.0266 81.2615 19.3006C81.3528 19.4833 81.4898 19.6659 81.6724 19.8029C81.8551 19.9399 82.0378 20.0313 82.2661 20.0769C82.4944 20.1683 82.7684 20.1683 82.9967 20.1683C83.2251 20.1683 83.4534 20.1683 83.6817 20.1226C83.1794 20.1226 82.6771 19.9399 82.3118 19.5289L82.2661 19.4833C81.9464 19.118 81.8094 18.6613 81.8094 18.2046C81.8094 17.7937 81.9008 17.3827 82.1748 17.063C82.4031 16.789 82.6314 16.6064 82.8597 16.4694ZM86.4217 20.0313C86.5586 20.1226 86.7413 20.1683 86.8783 20.1226H86.924H87.061C86.924 19.6203 86.8783 19.118 86.924 18.6156V15.3734C86.924 14.9624 86.8783 14.5514 86.787 14.1861C86.6956 13.9578 86.6043 13.7294 86.376 13.5011C86.1933 13.3184 85.9193 13.1814 85.6453 13.0901C85.1887 12.9531 84.732 12.9075 84.2754 12.9075C83.8644 12.9075 83.4991 12.9531 83.0881 12.9988C82.7684 13.0444 82.4488 13.1358 82.1291 13.2728C81.9464 13.3184 81.7638 13.4098 81.6268 13.5468C81.6268 13.5924 81.6724 13.6381 81.6724 13.6381C81.8551 13.5468 82.0378 13.4554 82.2661 13.3641C82.7684 13.1358 83.3164 13.0444 83.8644 13.0444C84.4124 12.9988 84.9604 13.1358 85.417 13.4554C85.4627 13.5011 85.5083 13.5011 85.5083 13.5468C85.9193 13.9578 86.1477 14.5057 86.102 15.0994V15.3734C86.102 15.6474 85.965 15.83 85.7823 15.967C86.0107 16.104 86.1477 16.3324 86.1477 16.6064V18.3873V18.433C86.1477 18.707 86.0107 18.981 85.828 19.1636V19.2093C86.0563 19.3006 86.239 19.5289 86.2847 19.8029C86.3303 19.9399 86.376 19.9856 86.4217 20.0313ZM83.4534 18.5243C83.5447 18.6156 83.6361 18.6156 83.7731 18.6156H83.8644C84.0014 18.6156 84.1384 18.6156 84.2754 18.57C84.4124 18.5243 84.5037 18.4786 84.6407 18.433C84.6864 18.3873 84.732 18.3873 84.7777 18.3416V17.474C84.595 17.474 84.458 17.5197 84.2754 17.5197C84.0927 17.5653 83.9101 17.611 83.7274 17.7023C83.6361 17.748 83.4991 17.8393 83.4534 17.9307C83.4077 17.9763 83.3621 18.0676 83.4077 18.159V18.2046C83.3621 18.3416 83.4077 18.433 83.4534 18.5243ZM83.8644 14.6427C83.4991 14.6427 83.1794 14.6884 82.8597 14.8254C82.6771 14.9167 82.4944 14.9624 82.3118 15.0537C82.5858 14.9624 82.8597 14.8711 83.1337 14.8254C83.5904 14.7341 84.0014 14.6884 84.458 14.6884C84.321 14.6427 84.1384 14.5971 83.9557 14.5971C83.9557 14.6427 83.9101 14.6427 83.8644 14.6427Z" fill="#8C9097"/>
<path d="M11.4392 15.5105L2.39746 12.4509L15.0011 7.70172L20.9833 5.46411L15.0011 24.4153L11.4392 15.5105Z" fill="#8C9097"/>
<path d="M2.39764 12.4966H10.2521H15.0013V7.79309L2.39764 12.4966Z" fill="white"/>
<path d="M15.0018 7.79333V24.5069L20.9839 5.55573L15.0018 7.79333Z" fill="#E4E5E9"/>
<path d="M15.0009 12.4966H10.2517L15.0009 24.5066V12.4966Z" fill="#65676B"/>
<path d="M2.39764 12.4966L11.4394 15.6018L10.2521 12.4966H2.39764Z" fill="#BEC2C9"/>
<path d="M31.3023 20.0774C31.211 20.1688 31.074 20.2601 30.937 20.3514C30.7544 20.4884 30.526 20.5798 30.2977 20.6711C29.978 20.8081 29.6584 20.8537 29.3387 20.9451C28.9277 21.0364 28.4711 21.0821 28.0601 21.0364C27.2381 21.0364 26.4161 20.8994 25.6398 20.5798C25.0005 20.3058 24.4069 19.8948 23.9502 19.3468C23.4935 18.7988 23.1739 18.1595 22.9912 17.4288C22.7629 16.6525 22.6716 15.8305 22.6716 15.0086C22.6716 14.1866 22.7629 13.3646 22.9912 12.5883C23.1739 11.9033 23.5392 11.2183 23.9959 10.6703C24.4525 10.1224 25.0462 9.66571 25.6855 9.39171C26.4161 9.07205 27.2381 8.93506 28.0601 8.93506C28.4711 8.93506 28.8821 8.98072 29.2931 9.07205C29.6127 9.16339 29.9324 9.25472 30.252 9.34605C30.4804 9.43738 30.7087 9.57438 30.937 9.71137C31.074 9.8027 31.211 9.89403 31.348 10.031C31.4393 10.1224 31.5307 10.2594 31.622 10.3507C31.7133 10.4877 31.759 10.6247 31.7133 10.7617C31.7133 11.0357 31.622 11.264 31.4393 11.4923C31.2567 11.7207 31.074 11.949 30.8914 12.1316C30.7544 11.9946 30.5717 11.8576 30.4347 11.7207C30.252 11.5837 30.0694 11.4467 29.841 11.3553C29.6127 11.2183 29.3387 11.127 29.1104 11.0813C28.7907 10.99 28.5168 10.9443 28.1971 10.99C27.1925 10.9443 26.2791 11.4467 25.7768 12.2686C25.5485 12.6796 25.3658 13.0906 25.2745 13.5929C25.1832 14.0953 25.1375 14.5976 25.1375 15.0999C25.1375 15.6022 25.1832 16.1502 25.2745 16.6525C25.3658 17.1092 25.5485 17.5658 25.8225 17.9768C26.0965 18.3421 26.4161 18.6618 26.8271 18.8901C27.6034 19.2555 28.4254 19.3468 29.2474 19.1185C29.4757 19.0271 29.7497 18.9358 29.978 18.8445C30.1607 18.7531 30.3434 18.6161 30.526 18.4791C30.663 18.3421 30.8 18.2508 30.937 18.1595L31.1653 18.4791C31.2567 18.5705 31.348 18.7075 31.4393 18.8445C31.5307 18.9815 31.5763 19.1185 31.622 19.2098C31.6677 19.3011 31.7133 19.4381 31.7133 19.5751C31.7133 19.7121 31.6677 19.8491 31.622 19.9404C31.5307 19.8948 31.4393 19.9861 31.3023 20.0774Z" fill="white"/>
<path d="M40.254 18.7527C40.2084 19.4377 40.3454 20.1227 40.665 20.762C40.4824 20.8534 40.2997 20.899 40.0714 20.9447C39.8887 20.9904 39.706 20.9904 39.5234 20.9904C39.2037 20.9904 38.8384 20.9447 38.5644 20.762C38.3361 20.5794 38.1991 20.351 38.1534 20.077C37.8794 20.351 37.5141 20.5794 37.1488 20.762C36.6465 20.9447 36.1441 21.036 35.5961 21.036C35.2765 21.036 34.9568 20.9904 34.6372 20.899C34.3175 20.8077 34.0435 20.6707 33.8152 20.488C33.5412 20.2597 33.3129 19.9857 33.1759 19.7117C32.9932 19.3464 32.9019 18.9354 32.9476 18.5244C32.9476 18.0221 33.0845 17.5198 33.3585 17.0631C33.6325 16.6978 33.9979 16.3781 34.4088 16.1955C34.8198 15.9672 35.3222 15.8302 35.7788 15.7388C36.2355 15.6475 36.6921 15.6018 37.1488 15.6018H37.5598H37.9251V15.2822C37.9708 14.9168 37.8338 14.5972 37.5598 14.3232C37.1944 14.0949 36.8291 14.0035 36.4181 14.0492C35.9615 14.0492 35.5048 14.1405 35.0938 14.2775C34.6828 14.4602 34.3175 14.6429 33.9522 14.8255C33.7695 14.6429 33.6325 14.4145 33.5412 14.1862C33.4499 14.0035 33.4042 13.8209 33.4042 13.6382C33.4042 13.4555 33.5412 13.2729 33.6782 13.1816C33.9065 12.9989 34.1349 12.8619 34.4088 12.7706C34.7742 12.6336 35.1395 12.5422 35.5048 12.4966C35.9158 12.4052 36.3725 12.3596 36.7834 12.4052C37.3314 12.4052 37.8794 12.4509 38.3817 12.5879C38.7927 12.6792 39.1581 12.9076 39.432 13.1816C39.706 13.4555 39.9344 13.8209 40.0257 14.1862C40.1627 14.6429 40.2084 15.0995 40.2084 15.6018L40.254 18.7527ZM38.0164 16.7435H37.7881C37.6968 16.7435 37.6054 16.7435 37.5598 16.7435C37.2858 16.7435 36.9661 16.7891 36.6921 16.8348C36.4181 16.8805 36.1898 16.9718 35.9158 17.0631C35.6875 17.1545 35.5048 17.3371 35.3678 17.5198C35.2308 17.7481 35.1395 18.0221 35.1395 18.2961C35.1395 18.6157 35.2308 18.8897 35.4135 19.1181C35.6418 19.3921 36.0071 19.4834 36.3725 19.4834C36.6008 19.4834 36.7834 19.4377 37.0118 19.3921C37.1944 19.3464 37.3771 19.2551 37.5141 19.1637C37.6511 19.0724 37.7881 18.9811 37.8794 18.8441C37.9708 18.7527 38.0164 18.6614 38.0164 18.5244V16.7435Z" fill="white"/>
<path d="M44.5938 13.3189C44.8221 13.0449 45.1418 12.8166 45.4615 12.634C45.9181 12.4056 46.4204 12.2686 46.9684 12.3143C47.3794 12.3143 47.7904 12.4056 48.2014 12.5426C48.6124 12.6796 48.932 12.9536 49.2517 13.2276C49.5714 13.5929 49.8454 14.0496 49.9823 14.5062C50.165 15.1456 50.2563 15.8305 50.2563 16.4698C50.2563 17.2462 50.165 17.9768 49.9367 18.7075C49.754 19.2098 49.48 19.6664 49.1147 20.0774C48.795 20.3971 48.4297 20.6711 48.0187 20.8081C47.6077 20.9451 47.1968 20.9907 46.7858 21.0364C46.5118 21.0364 46.1921 20.9907 45.9181 20.9451C45.6898 20.8994 45.4615 20.8081 45.2788 20.6711C45.1418 20.5797 45.0048 20.4884 44.8678 20.3971C44.8221 20.3514 44.7308 20.2601 44.6852 20.2144V24.507H42.3105V12.5426L42.5389 12.497C42.6302 12.497 42.7215 12.4513 42.7672 12.4513H43.0869C43.4065 12.4513 43.7718 12.497 44.0915 12.634C44.3198 12.8166 44.5025 13.0449 44.5938 13.3189ZM47.6991 16.5155C47.6991 16.1959 47.6534 15.8762 47.6077 15.5565C47.5621 15.2825 47.4707 15.0086 47.3337 14.7802C47.1968 14.5519 47.0141 14.3692 46.7858 14.2779C46.5118 14.1409 46.2378 14.0952 45.9638 14.0952C45.5985 14.0496 45.2331 14.1409 44.9591 14.3692C44.7765 14.5062 44.6852 14.7346 44.6852 14.9629V18.6618C44.8221 18.7988 45.0048 18.8901 45.1875 18.9814C45.4615 19.1184 45.7355 19.1641 46.0094 19.1641C46.5574 19.2098 47.0598 18.9358 47.2881 18.4791C47.6077 17.8855 47.7447 17.2005 47.6991 16.5155Z" fill="white"/>
<path d="M51.9894 19.5293C51.8981 19.301 51.8524 19.027 51.8524 18.7986C51.8524 18.5246 51.8068 18.2963 51.8068 18.0223V9.93954L52.0808 9.89387C52.1721 9.89387 52.2634 9.84821 52.3547 9.84821H52.6287C52.8114 9.84821 52.9941 9.84821 53.1767 9.89387C53.3594 9.93954 53.542 9.9852 53.679 10.1222C53.816 10.2135 53.953 10.3962 54.0444 10.5332C54.1357 10.7615 54.1814 10.9898 54.1814 11.2182V12.4511H56.6016V14.1864H54.1814V17.8853C54.1814 18.7073 54.501 19.1183 55.186 19.1183C55.323 19.1183 55.5057 19.0726 55.6427 19.027C55.7797 18.9813 55.9167 18.9356 56.0536 18.8443C56.145 18.7986 56.282 18.7073 56.3733 18.6616C56.419 18.616 56.5103 18.5703 56.556 18.5246C56.693 18.753 56.83 18.9356 56.967 19.2096C57.0583 19.3923 57.104 19.5293 57.104 19.7576C57.104 19.9403 57.0583 20.0773 56.9213 20.2143C56.7843 20.3969 56.6016 20.5339 56.419 20.6253C56.145 20.7623 55.9167 20.8536 55.597 20.9449C55.2773 21.0362 54.912 21.0819 54.5924 21.0362C53.9987 21.0819 53.4051 20.9449 52.9027 20.6253C52.4461 20.3513 52.1721 19.9859 51.9894 19.5293Z" fill="white"/>
<path d="M62.6291 19.3008C62.9031 19.3008 63.1314 19.2551 63.4054 19.2095C63.5881 19.1638 63.8164 19.0725 63.9991 18.9811C64.1817 18.8898 64.3187 18.7985 64.4557 18.6615L64.821 18.3418C65.0037 18.5701 65.1407 18.7985 65.2777 19.0268C65.4147 19.2095 65.506 19.4378 65.506 19.7118C65.4604 19.9858 65.3234 20.2598 65.0494 20.3968C64.7297 20.6251 64.3644 20.7621 63.9991 20.8534C63.4967 20.9904 62.9488 21.0817 62.4464 21.0361C61.8984 21.0361 61.3505 20.9447 60.8481 20.8078C60.3458 20.6708 59.8435 20.4424 59.4325 20.0771C58.9759 19.7118 58.6562 19.2551 58.4279 18.7071C58.1539 18.0222 58.0169 17.2458 58.0625 16.4695C58.0625 15.8302 58.1539 15.1909 58.4279 14.5972C58.6105 14.0949 58.9302 13.6383 59.3412 13.273C59.7065 12.9533 60.1632 12.6793 60.6198 12.4966C61.0765 12.3596 61.5788 12.2683 62.0811 12.2683C62.6291 12.2683 63.2227 12.3596 63.7251 12.588C64.1361 12.7706 64.547 13.0446 64.821 13.4099C65.095 13.7753 65.3234 14.1406 65.4604 14.5972C65.5974 15.0539 65.643 15.5106 65.643 15.9672V16.1955V16.5152C65.643 16.5152 65.643 16.7435 65.643 16.8349C65.643 16.9262 65.643 16.9719 65.5974 17.0632H60.4372C60.4828 17.6568 60.6655 18.2048 61.0308 18.6615C61.3505 19.1181 61.9898 19.3465 62.6291 19.3008ZM63.4054 15.7846C63.4054 15.3279 63.3141 14.8256 63.0858 14.4146C62.8118 14.0493 62.3551 13.8209 61.8984 13.9123C61.4418 13.9123 61.0308 14.0949 60.7568 14.4146C60.4372 14.8256 60.3002 15.2822 60.3458 15.7846H63.4054Z" fill="white"/>
<path d="M69.6623 13.3643C69.7536 13.2273 69.845 13.136 69.9363 12.999C70.0733 12.862 70.2103 12.725 70.3473 12.6336C70.5299 12.5423 70.7126 12.451 70.8953 12.3596C71.1236 12.2683 71.3062 12.2683 71.5346 12.2683C71.6716 12.2683 71.8542 12.2683 71.9912 12.314C72.1282 12.314 72.3109 12.3596 72.4479 12.451C72.5849 12.4966 72.6762 12.588 72.7675 12.725C72.8589 12.862 72.9045 12.999 72.9045 13.136C72.9045 13.4556 72.8132 13.7296 72.7219 14.0036C72.6305 14.2776 72.4935 14.5516 72.3565 14.8256C72.1739 14.6886 71.9912 14.5516 71.7629 14.4603C71.5346 14.3689 71.3062 14.3233 71.0779 14.3233C70.7583 14.3233 70.4386 14.4146 70.1646 14.6429C69.9363 14.8256 69.7993 15.0996 69.7993 15.3736V21.0361H67.4247V12.5423L67.653 12.4966C67.7443 12.4966 67.8357 12.451 67.8813 12.451H68.201C68.5207 12.451 68.886 12.4966 69.16 12.6793C69.434 12.862 69.6166 13.0903 69.6623 13.3643Z" fill="white"/>
<path d="M76.3745 13.3643C76.4658 13.2273 76.5571 13.136 76.6485 12.999C76.7855 12.862 76.9224 12.7706 77.0594 12.6336C77.2421 12.5423 77.4248 12.451 77.6074 12.3596C77.8358 12.2683 78.0184 12.2683 78.2467 12.2683C78.3837 12.2683 78.5664 12.2683 78.7034 12.314C78.8404 12.314 78.9774 12.3596 79.1144 12.451C79.2514 12.4966 79.3427 12.588 79.434 12.725C79.5254 12.862 79.571 12.999 79.571 13.136C79.571 13.4556 79.4797 13.7296 79.3884 14.0036C79.2971 14.2776 79.1601 14.5516 79.0231 14.8256C78.8404 14.6886 78.6577 14.5516 78.4294 14.4603C78.2011 14.3689 77.9728 14.3233 77.7444 14.3233C77.4248 14.3233 77.1051 14.4146 76.8311 14.6429C76.6028 14.8256 76.4658 15.0996 76.4658 15.3736V21.0361H74.0912V12.5423L74.3195 12.4966C74.4108 12.4966 74.5022 12.451 74.5478 12.451H74.8675C75.1872 12.451 75.5525 12.4966 75.8265 12.6793C76.1461 12.8163 76.3288 13.0903 76.3745 13.3643Z" fill="white"/>
<path d="M87.7022 18.7527C87.6565 19.4377 87.7935 20.1227 88.1131 20.762C87.9305 20.8534 87.7478 20.899 87.5195 20.9447C87.3368 20.9904 87.1542 20.9904 86.9715 20.9904C86.6519 20.9904 86.2865 20.9447 86.0125 20.762C85.7842 20.5794 85.6472 20.351 85.6015 20.077C85.3276 20.351 84.9622 20.5794 84.5969 20.762C84.0946 20.9447 83.5923 21.036 83.0443 21.036C82.7246 21.036 82.405 20.9904 82.0853 20.899C81.7656 20.8077 81.4917 20.6707 81.2177 20.488C80.9437 20.3054 80.7153 20.0314 80.5783 19.7117C80.3957 19.3464 80.3044 18.9354 80.35 18.5244C80.3044 18.0221 80.487 17.5198 80.761 17.0631C81.035 16.6978 81.4003 16.3781 81.8113 16.1955C82.2223 15.9672 82.7246 15.8302 83.1813 15.7388C83.6379 15.6475 84.0946 15.6018 84.5512 15.6018H84.9622H85.3732V15.2822C85.4189 14.9168 85.2819 14.5972 85.0079 14.3232C84.6426 14.0949 84.2773 14.0035 83.8663 14.0492C83.4096 14.0492 82.9529 14.1405 82.542 14.2775C82.131 14.4602 81.7656 14.6429 81.4003 14.8255C81.2177 14.6429 81.0807 14.4145 80.9893 14.1862C80.898 14.0035 80.8523 13.8209 80.8523 13.6382C80.8523 13.4555 80.9893 13.2729 81.1263 13.1816C81.3547 12.9989 81.583 12.8619 81.857 12.7706C82.2223 12.6336 82.5876 12.5422 82.953 12.4966C83.3639 12.4052 83.8206 12.3596 84.2316 12.4052C84.7796 12.4052 85.3276 12.4509 85.8299 12.5879C86.2409 12.6792 86.6062 12.9076 86.8802 13.1816C87.1542 13.4555 87.3825 13.8209 87.4738 14.1862C87.6108 14.6429 87.6565 15.0995 87.6565 15.6018L87.7022 18.7527ZM85.4646 16.7435H85.2362C85.1449 16.7435 85.0536 16.7435 85.0079 16.7435C84.7339 16.7435 84.4142 16.7891 84.1403 16.8348C83.8663 16.8805 83.6379 16.9718 83.3639 17.0631C83.1356 17.1545 82.953 17.3371 82.816 17.5198C82.679 17.7481 82.5876 17.9764 82.5876 18.2504C82.5876 18.5701 82.679 18.8441 82.8616 19.0724C83.0899 19.3464 83.4553 19.4377 83.8206 19.4377C84.0489 19.4377 84.2316 19.3921 84.4599 19.3464C84.6426 19.3007 84.8252 19.2094 84.9622 19.1181C85.0992 19.0267 85.2362 18.9354 85.3276 18.7984C85.4189 18.7071 85.4646 18.6157 85.4646 18.4788V16.7435Z" fill="white"/>
<path d="M92.9044 34.6903C92.8588 34.6903 92.8131 34.6446 92.8131 34.599V8.84365C92.8131 8.79798 92.8588 8.75232 92.9044 8.75232C92.9501 8.75232 92.9958 8.79798 92.9958 8.84365V34.599C92.9958 34.6446 92.9501 34.6903 92.9044 34.6903Z" fill="white"/>
<path d="M107.014 25.2834H105.69V27.6123H102.494V25.2834H97.6987V22.9088L102.722 15.5566H105.736V22.8631H107.06V25.2834H107.014ZM102.448 22.8631V21.4475C102.448 21.1735 102.448 20.8082 102.494 20.3972C102.494 19.9405 102.539 19.7122 102.539 19.7122H102.448C102.265 20.1232 102.037 20.5342 101.809 20.8995L100.484 22.8631H102.448Z" fill="white"/>
<path d="M107.975 26.2426C107.975 25.7403 108.112 25.3293 108.431 25.0553C108.751 24.7813 109.162 24.6443 109.756 24.6443C110.304 24.6443 110.715 24.7813 110.989 25.0553C111.263 25.3293 111.445 25.7403 111.445 26.2426C111.445 26.7449 111.308 27.1102 110.989 27.3842C110.669 27.6582 110.258 27.7952 109.756 27.7952C109.208 27.7952 108.797 27.6582 108.477 27.3842C108.112 27.1559 107.975 26.7449 107.975 26.2426Z" fill="white"/>
<path d="M112.721 22.5433C112.721 20.8537 112.949 19.4837 113.452 18.4334C113.954 17.3831 114.639 16.6068 115.598 16.1501C116.557 15.6478 117.698 15.4195 119.068 15.4195C119.571 15.4195 120.119 15.4652 120.804 15.5565V18.1138C120.256 18.0224 119.662 17.9768 119.023 17.9768C117.927 17.9768 117.105 18.2051 116.603 18.7074C116.055 19.1641 115.781 19.986 115.735 21.0363H115.826C116.329 20.123 117.105 19.6207 118.201 19.6207C119.251 19.6207 120.119 19.986 120.712 20.671C121.306 21.356 121.58 22.315 121.58 23.5479C121.58 24.8722 121.215 25.9226 120.438 26.6989C119.708 27.4752 118.657 27.8405 117.287 27.8405C115.872 27.8405 114.73 27.3838 113.954 26.4705C113.132 25.4659 112.721 24.1873 112.721 22.5433ZM117.196 25.1919C117.561 25.1919 117.835 25.0549 118.064 24.7809C118.292 24.5069 118.383 24.0959 118.383 23.5479C118.383 22.589 118.018 22.0867 117.242 22.0867C116.877 22.0867 116.557 22.2236 116.329 22.452C116.1 22.726 115.963 23 115.963 23.3653C115.963 23.9133 116.055 24.3243 116.283 24.6439C116.511 25.0549 116.831 25.1919 117.196 25.1919Z" fill="white"/>
<path d="M40.3013 34.5987C40.1643 34.5987 39.9816 34.553 39.8446 34.5074L38.3377 33.731C38.2463 33.6854 38.2007 33.6854 38.1093 33.6854C38.018 33.6854 37.9267 33.6854 37.881 33.731L36.374 34.5074C36.237 34.5987 36.0544 34.6444 35.9174 34.5987C35.6434 34.5987 35.3694 34.4617 35.1867 34.279C35.0041 34.0507 34.9127 33.7767 34.9584 33.5027L35.2324 31.8131C35.2781 31.6304 35.1867 31.4934 35.0954 31.3564L33.8624 30.1691C33.5884 29.8951 33.4971 29.5298 33.6341 29.1645C33.7254 28.7992 34.0451 28.5708 34.4104 28.4795L36.1 28.2055C36.2827 28.1599 36.4197 28.0685 36.511 27.9315L37.2417 26.4246C37.47 25.9223 38.0637 25.7396 38.566 25.9679C38.7486 26.0592 38.9313 26.2419 39.0226 26.4246L39.7989 27.9315C39.8903 28.0685 40.0273 28.2055 40.2099 28.2055L41.8996 28.4339C42.2649 28.4795 42.5845 28.7535 42.6759 29.1188C42.7672 29.4842 42.6759 29.8495 42.4019 30.1235L41.1232 31.3564C40.9862 31.4934 40.9406 31.6304 40.9862 31.8131L41.2602 33.5027C41.3059 33.7767 41.2602 34.0964 41.0776 34.3247C40.8493 34.5074 40.5753 34.6444 40.3013 34.5987Z" fill="white"/>
<path d="M38.1079 26.105C38.3819 26.105 38.6559 26.2876 38.7929 26.516L39.5235 28.0229C39.6148 28.2512 39.8432 28.3882 40.0715 28.4339L41.7611 28.6622C42.1721 28.7079 42.4461 29.1189 42.4004 29.5299C42.3548 29.7125 42.3091 29.8495 42.1721 29.9409L40.9391 31.1282C40.7565 31.3108 40.6651 31.5392 40.7108 31.8132L40.9848 33.4571C41.0305 33.8681 40.7565 34.2334 40.3455 34.3248C40.2085 34.3248 40.0258 34.3248 39.8888 34.2334L38.3819 33.4571C38.1535 33.3201 37.8796 33.3201 37.6969 33.4571L36.2813 34.2791C35.9159 34.4618 35.4593 34.3248 35.2766 33.9138C35.1853 33.7768 35.1853 33.6398 35.1853 33.5028L35.4593 31.8588C35.505 31.6305 35.4136 31.3565 35.231 31.1738L33.998 29.9865C33.6783 29.7125 33.6783 29.2102 33.998 28.9362C34.135 28.7992 34.272 28.7536 34.409 28.7079L36.0986 28.4796C36.3269 28.4339 36.5553 28.2969 36.6466 28.0686L37.3772 26.5616C37.5599 26.2876 37.8339 26.105 38.1079 26.105ZM38.1079 25.6483C37.6512 25.6483 37.1946 25.9223 37.0119 26.3333L36.2813 27.8403C36.2356 27.9316 36.1443 27.9773 36.0529 27.9773L34.3633 28.2056C33.9067 28.2512 33.5413 28.5709 33.4043 29.0276C33.2673 29.4842 33.3587 29.9409 33.724 30.2605L34.957 31.4478C35.0483 31.4935 35.0483 31.6305 35.0483 31.7218L34.7286 33.4114C34.683 33.7768 34.7743 34.1421 35.0026 34.4161C35.231 34.6901 35.5506 34.8727 35.9159 34.8727C36.0986 34.8727 36.3269 34.8271 36.4639 34.7357L37.9709 33.9138C38.0622 33.8681 38.1535 33.8681 38.2449 33.9138L39.7518 34.6901C39.9345 34.7814 40.1172 34.8271 40.2998 34.8271C40.6651 34.8271 40.9848 34.6444 41.2131 34.3704C41.4415 34.0964 41.5328 33.7311 41.4871 33.3658L41.2131 31.7218C41.2131 31.6305 41.2131 31.5392 41.3045 31.4478L42.4918 30.3062C42.8114 29.9865 42.9484 29.4842 42.8114 29.0732C42.6744 28.6166 42.3091 28.2969 41.8525 28.2512L40.1628 28.0229C40.0715 28.0229 39.9802 27.9316 39.9345 27.8859L39.2039 26.379C38.9755 25.9223 38.5645 25.6483 38.1079 25.6483Z" fill="white"/>
<path d="M51.9452 34.5991C51.8082 34.5991 51.6255 34.5534 51.4885 34.5078L49.9816 33.7315C49.8902 33.6858 49.7989 33.6858 49.7532 33.6858C49.6619 33.6858 49.5706 33.6858 49.5249 33.7315L48.018 34.5078C47.881 34.5991 47.6983 34.6448 47.5613 34.5991C47.2873 34.5991 47.0133 34.4621 46.785 34.2338C46.6023 34.0055 46.511 33.7315 46.5567 33.4575L46.8307 31.7678C46.8763 31.5852 46.785 31.4482 46.6937 31.3112L45.5064 30.1696C45.2324 29.8956 45.141 29.5302 45.278 29.1649C45.3694 28.7996 45.689 28.5256 46.0543 28.4799L47.744 28.2516C47.9266 28.2059 48.0636 28.1146 48.155 27.9776L48.9313 26.4707C49.1596 25.9683 49.7532 25.7857 50.2556 26.014C50.4382 26.1053 50.6209 26.288 50.7122 26.4707L51.4429 27.9776C51.5342 28.1146 51.6712 28.2516 51.8539 28.2516L53.5435 28.4799C54.0915 28.5713 54.4568 29.0736 54.3655 29.6216C54.3198 29.8499 54.2285 30.0326 54.0915 30.1696L52.8585 31.3569C52.7215 31.4939 52.6758 31.6309 52.7215 31.8135L52.9955 33.5031C53.0412 33.7771 52.9498 34.0968 52.7672 34.2794C52.4932 34.5078 52.2192 34.5991 51.9452 34.5991Z" fill="white"/>
<path d="M49.7525 26.105C50.0265 26.105 50.3005 26.2876 50.4375 26.516L51.1681 28.0229C51.2594 28.2512 51.4878 28.3882 51.7161 28.4339L53.4057 28.6622C53.8167 28.7079 54.0907 29.1189 54.045 29.5299C53.9994 29.7125 53.9537 29.8495 53.8167 29.9409L52.5837 31.1282C52.4011 31.3108 52.3097 31.5392 52.3554 31.8132L52.6294 33.4571C52.7207 33.8681 52.4467 34.2791 52.0358 34.3248C51.9901 34.3248 51.9444 34.3248 51.8988 34.3248C51.7618 34.3248 51.6704 34.2791 51.5334 34.2334L50.0265 33.4571C49.7981 33.3201 49.5242 33.3201 49.3415 33.4571L47.8345 34.2334C47.4692 34.4161 47.0126 34.2791 46.8299 33.9138C46.7386 33.7768 46.7386 33.5941 46.7386 33.4114L47.0126 31.7675C47.0582 31.5392 46.9669 31.2652 46.7842 31.0825L45.5969 29.9409C45.2773 29.6669 45.2773 29.1646 45.5969 28.8906C45.7339 28.7536 45.8709 28.7079 46.0079 28.6622L47.6975 28.4339C47.9259 28.3882 48.1542 28.2512 48.2455 28.0229L48.9762 26.516C49.2045 26.2876 49.4785 26.105 49.7525 26.105ZM49.7525 25.6483C49.2958 25.6483 48.8848 25.9223 48.6565 26.3333L47.9259 27.8403C47.8802 27.9316 47.7889 27.9773 47.6975 27.9773L46.0079 28.2056C45.3686 28.2969 44.9119 28.8906 45.0033 29.5755C45.0489 29.8495 45.1859 30.0779 45.3686 30.2605L46.6016 31.4478C46.6929 31.4935 46.6929 31.6305 46.6929 31.7218L46.4189 33.3658C46.3732 33.7311 46.4646 34.0964 46.6929 34.3704C46.9212 34.6444 47.2409 34.8271 47.6062 34.8271C47.7889 34.8271 48.0172 34.7814 48.1542 34.6901L49.6612 33.9138C49.7068 33.9138 49.7525 33.8681 49.7981 33.8681C49.8438 33.8681 49.8895 33.8681 49.9351 33.9138L51.4421 34.6901C51.6248 34.7814 51.8074 34.8271 51.9901 34.8271C52.3554 34.8271 52.6751 34.6444 52.9034 34.3704C53.1317 34.0964 53.2231 33.7311 53.1774 33.3658L52.9034 31.7218C52.9034 31.6305 52.9034 31.5392 52.9947 31.4478L54.2277 30.2605C54.6844 29.8039 54.73 29.0276 54.2734 28.5709C54.0907 28.3882 53.8167 28.2512 53.5884 28.2056L51.8988 27.9773C51.8074 27.9773 51.7161 27.8859 51.6704 27.8403L50.9398 26.3333C50.6201 25.9223 50.2091 25.6483 49.7525 25.6483Z" fill="white"/>
<path d="M63.086 34.5987C62.949 34.5987 62.7663 34.553 62.6294 34.5074L61.1224 33.731C60.9854 33.6397 60.8027 33.6397 60.6201 33.731L59.1131 34.5074C58.9761 34.5987 58.7934 34.6444 58.6565 34.5987C58.3825 34.5987 58.1085 34.4617 57.8801 34.2334C57.6975 34.005 57.6061 33.731 57.6518 33.4571L57.9258 31.7674C57.9715 31.5848 57.8801 31.4478 57.7888 31.3108L56.6015 30.1235C56.3275 29.8495 56.2362 29.4842 56.3732 29.1188C56.4645 28.7535 56.7842 28.4795 57.1495 28.4339L58.8391 28.2055C59.0218 28.1599 59.1588 28.0685 59.2501 27.9315L59.9808 26.4246C60.2091 25.9223 60.8027 25.7396 61.3051 25.9679C61.4877 26.0592 61.6704 26.2419 61.7617 26.4246L62.4924 27.9315C62.5837 28.0685 62.7207 28.2055 62.9033 28.2055L64.593 28.4339C65.1409 28.5252 65.5063 29.0275 65.4149 29.5298C65.3693 29.7582 65.2779 29.9408 65.141 30.0778L63.9536 31.2651C63.8167 31.4021 63.771 31.5391 63.8167 31.7218L64.0906 33.4114C64.1363 33.6854 64.045 34.005 63.8623 34.1877C63.6797 34.4617 63.4057 34.5987 63.086 34.5987Z" fill="white"/>
<path d="M60.8961 26.105C61.1701 26.105 61.4441 26.2876 61.5811 26.516L62.3117 28.0229C62.403 28.2512 62.6314 28.3882 62.8597 28.4339L64.5493 28.6622C64.9603 28.7079 65.2343 29.1189 65.1886 29.5299C65.143 29.7125 65.0973 29.8495 64.9603 29.9409L63.7273 31.1282C63.5447 31.3108 63.4534 31.5392 63.499 31.8132L63.773 33.4571C63.8643 33.8681 63.5904 34.2334 63.1794 34.3248C63.1337 34.3248 63.088 34.3248 63.0424 34.3248C62.9054 34.3248 62.814 34.2791 62.677 34.2334L61.1701 33.4571C60.9418 33.3201 60.6678 33.3201 60.4851 33.4571L58.9781 34.2334C58.6128 34.4161 58.1562 34.2791 57.9735 33.9138C57.8822 33.7768 57.8822 33.5941 57.8822 33.4114L58.1562 31.7675C58.2018 31.5392 58.1105 31.2652 57.9278 31.0825L56.6949 29.8952C56.3752 29.6212 56.3752 29.1189 56.6949 28.8449C56.8319 28.7079 56.9689 28.6622 57.1059 28.6166L58.7955 28.3882C59.0238 28.3426 59.2521 28.2056 59.3435 27.9773L60.0741 26.4703C60.3481 26.2876 60.6221 26.105 60.8961 26.105ZM60.8961 25.6483C60.4394 25.6483 60.0284 25.9223 59.8458 26.3333L59.1151 27.8403C59.0695 27.9316 58.9781 27.9773 58.8868 27.9773L57.1972 28.2056C56.5579 28.2969 56.1012 28.8906 56.1925 29.5755C56.2382 29.8495 56.3752 30.0779 56.5579 30.2605L57.7908 31.4478C57.8822 31.4935 57.8822 31.6305 57.8822 31.7218L57.6082 33.3658C57.5625 33.7311 57.6538 34.0964 57.8822 34.3704C58.1105 34.6444 58.4302 34.8271 58.7955 34.8271C58.9781 34.8271 59.2065 34.7814 59.3435 34.6901L60.8048 33.8681C60.8504 33.8681 60.8961 33.8224 60.9418 33.8224C60.9874 33.8224 61.0331 33.8224 61.0787 33.8681L62.5857 34.6444C62.7684 34.7357 62.951 34.7814 63.1337 34.7814C63.499 34.7814 63.8187 34.5987 64.047 34.3248C64.2753 34.0508 64.3667 33.6854 64.321 33.3201L64.047 31.6762C64.047 31.5848 64.047 31.4935 64.1383 31.4022L65.417 30.2605C65.8736 29.8039 65.9193 29.0276 65.4626 28.5709C65.28 28.3882 65.0516 28.2512 64.7777 28.2056L63.088 27.9773C62.9967 27.9773 62.9054 27.8859 62.8597 27.8403L62.1291 26.3333C61.8094 25.9223 61.3984 25.6483 60.8961 25.6483Z" fill="white"/>
<path d="M74.6412 34.5991C74.5042 34.5991 74.3215 34.5534 74.1846 34.5078L72.6776 33.7315C72.5406 33.6401 72.3579 33.6401 72.1753 33.7315L70.6683 34.5078C70.5313 34.5991 70.3487 34.6448 70.2117 34.5991C69.9377 34.5991 69.6637 34.4621 69.481 34.2338C69.2984 34.0055 69.207 33.7315 69.2527 33.4575L69.5267 31.7678C69.5723 31.5852 69.481 31.4482 69.3897 31.3112L68.2024 30.1239C67.8371 29.7586 67.7914 29.1193 68.2024 28.7539C68.3394 28.6169 68.5677 28.4799 68.7504 28.4799L70.44 28.2516C70.6226 28.2059 70.7596 28.1146 70.851 27.9776L71.5816 26.4707C71.8099 25.9683 72.4036 25.7857 72.9059 26.014C73.0886 26.1053 73.2712 26.288 73.3626 26.4707L74.0932 27.9776C74.1846 28.1146 74.3216 28.2516 74.5042 28.2516L76.1938 28.4799C76.7418 28.5713 77.1071 29.0736 77.0158 29.5759C76.9702 29.8042 76.8788 29.9869 76.7418 30.1239L75.5545 31.3112C75.4175 31.4482 75.3719 31.5852 75.4175 31.7678L75.6915 33.4575C75.7372 33.7315 75.6458 34.0511 75.4632 34.2794C75.2349 34.5078 74.9609 34.6448 74.6412 34.5991Z" fill="white"/>
<path d="M72.4491 26.105C72.7231 26.105 72.997 26.2876 73.134 26.516L73.8647 28.0229C73.956 28.2512 74.1843 28.3882 74.4127 28.4339L76.1023 28.6622C76.5133 28.7079 76.7873 29.1189 76.7416 29.5299C76.6959 29.7125 76.6503 29.8495 76.5133 29.9409L75.326 31.1282C75.1433 31.3108 75.052 31.5392 75.0977 31.8132L75.3716 33.4571C75.4173 33.8681 75.1433 34.2334 74.7323 34.3248C74.5953 34.3704 74.4127 34.3248 74.2757 34.2334L72.7687 33.4571C72.5404 33.3201 72.2664 33.3201 72.0837 33.4571L70.5768 34.2334C70.2115 34.4161 69.7548 34.2791 69.5721 33.9138C69.4808 33.7768 69.4808 33.5941 69.4808 33.4114L69.7548 31.7675C69.8005 31.5392 69.7091 31.2652 69.5265 31.0825L68.3392 29.8952C68.0195 29.6212 68.0195 29.1189 68.3392 28.8449C68.4762 28.7079 68.6132 28.6622 68.7502 28.6166L70.4398 28.3882C70.6681 28.3426 70.8964 28.2056 70.9878 27.9773L71.7184 26.4703C71.9011 26.2876 72.1751 26.105 72.4491 26.105ZM72.4947 25.6483C72.0381 25.6483 71.6271 25.9223 71.3988 26.3333L70.6681 27.8403C70.6224 27.9316 70.5311 27.9773 70.4398 27.9773L68.7502 28.2056C68.2935 28.2512 67.9282 28.5709 67.7912 29.0276C67.6542 29.4842 67.7455 29.9409 68.1108 30.2605L69.2981 31.4478C69.3895 31.4935 69.3895 31.6305 69.3895 31.7218L69.1155 33.3658C69.0698 33.7311 69.1611 34.0964 69.3895 34.3704C69.6178 34.6444 69.9375 34.8271 70.3028 34.8271C70.4854 34.8271 70.7138 34.7814 70.8508 34.6901L72.3577 33.9138C72.4034 33.9138 72.4491 33.8681 72.4947 33.8681C72.5404 33.8681 72.5861 33.8681 72.6317 33.9138L74.1387 34.6901C74.3213 34.7814 74.504 34.8271 74.6867 34.8271C75.052 34.8271 75.3716 34.6444 75.6 34.3704C75.8283 34.0964 75.9196 33.7311 75.874 33.3658L75.6 31.7218C75.6 31.6305 75.6 31.5392 75.6913 31.4478L76.8786 30.2605C77.1983 29.9409 77.3353 29.4385 77.1983 29.0276C77.0613 28.5709 76.6959 28.2512 76.2393 28.2056L74.5497 27.9773C74.4583 27.9773 74.367 27.8859 74.3213 27.8403L73.5907 26.3333C73.3624 25.9223 72.9057 25.6483 72.4947 25.6483Z" fill="white"/>
<path d="M49.7525 26.105C50.0265 26.105 50.3005 26.2876 50.4375 26.516L51.1681 28.0229C51.2594 28.2512 51.4878 28.3882 51.7161 28.4339L53.4057 28.6622C53.8167 28.7079 54.0907 29.1189 54.045 29.5299C53.9994 29.7125 53.9537 29.8495 53.8167 29.9409L52.5837 31.1282C52.4011 31.3108 52.3097 31.5392 52.3554 31.8132L52.6294 33.4571C52.7207 33.8681 52.4467 34.2791 52.0358 34.3248C51.9901 34.3248 51.9444 34.3248 51.8988 34.3248C51.7618 34.3248 51.6704 34.2791 51.5334 34.2334L50.0265 33.4571C49.7981 33.3201 49.5242 33.3201 49.3415 33.4571L47.8345 34.2334C47.4692 34.4161 47.0126 34.2791 46.8299 33.9138C46.7386 33.7768 46.7386 33.5941 46.7386 33.4114L47.0126 31.7675C47.0582 31.5392 46.9669 31.2652 46.7842 31.0825L45.5969 29.9409C45.2773 29.6669 45.2773 29.1646 45.5969 28.8906C45.7339 28.7536 45.8709 28.7079 46.0079 28.6622L47.6975 28.4339C47.9259 28.3882 48.1542 28.2512 48.2455 28.0229L48.9762 26.516C49.2045 26.2876 49.4785 26.105 49.7525 26.105ZM49.7525 25.6483C49.2958 25.6483 48.8848 25.9223 48.6565 26.3333L47.9259 27.8403C47.8802 27.9316 47.7889 27.9773 47.6975 27.9773L46.0079 28.2056C45.3686 28.2969 44.9119 28.8906 45.0033 29.5755C45.0489 29.8495 45.1859 30.0779 45.3686 30.2605L46.6016 31.4478C46.6929 31.4935 46.6929 31.6305 46.6929 31.7218L46.4189 33.3658C46.3732 33.7311 46.4646 34.0964 46.6929 34.3704C46.9212 34.6444 47.2409 34.8271 47.6062 34.8271C47.7889 34.8271 48.0172 34.7814 48.1542 34.6901L49.6612 33.9138C49.7068 33.9138 49.7525 33.8681 49.7981 33.8681C49.8438 33.8681 49.8895 33.8681 49.9351 33.9138L51.4421 34.6901C51.6248 34.7814 51.8074 34.8271 51.9901 34.8271C52.3554 34.8271 52.6751 34.6444 52.9034 34.3704C53.1317 34.0964 53.2231 33.7311 53.1774 33.3658L52.9034 31.7218C52.9034 31.6305 52.9034 31.5392 52.9947 31.4478L54.2277 30.2605C54.6844 29.8039 54.73 29.0276 54.2734 28.5709C54.0907 28.3882 53.8167 28.2512 53.5884 28.2056L51.8988 27.9773C51.8074 27.9773 51.7161 27.8859 51.6704 27.8403L50.9398 26.3333C50.6201 25.9223 50.2091 25.6483 49.7525 25.6483Z" fill="white"/>
<path d="M60.9418 26.105C61.2157 26.105 61.4897 26.2876 61.6267 26.516L62.3574 28.0229C62.4487 28.2512 62.677 28.3882 62.9054 28.4339L64.595 28.6622C65.006 28.7079 65.28 29.1189 65.2343 29.5299C65.1886 29.7125 65.143 29.8495 65.006 29.9409L63.8187 31.1282C63.636 31.3108 63.5447 31.5392 63.5903 31.8132L63.8643 33.4571C63.91 33.8681 63.636 34.2334 63.225 34.3248C63.088 34.3248 62.9054 34.3248 62.7684 34.2334L61.2614 33.4571C61.0331 33.3201 60.7591 33.3201 60.5764 33.4571L59.0695 34.2334C58.9781 34.2791 58.8411 34.3248 58.7041 34.3248C58.2932 34.3248 57.9735 33.9594 57.9735 33.5484C57.9735 33.5028 57.9735 33.5028 57.9735 33.4571L58.2475 31.8132C58.2932 31.5848 58.2018 31.3108 58.0192 31.1282L56.7862 29.9409C56.4665 29.6669 56.4665 29.1646 56.7862 28.8906C56.9232 28.7536 57.0602 28.7079 57.1972 28.6622L58.8868 28.4339C59.1151 28.3882 59.3435 28.2512 59.4348 28.0229L60.1654 26.516C60.3938 26.2876 60.6678 26.105 60.9418 26.105ZM60.9418 25.6483C60.4851 25.6483 60.0284 25.9223 59.8458 26.3333L59.1151 27.8403C59.0695 27.9316 58.9781 27.9773 58.8868 27.9773L57.1972 28.2056C56.5579 28.2969 56.1012 28.8906 56.1925 29.5755C56.2382 29.8495 56.3752 30.0779 56.5579 30.2605L57.7908 31.4478C57.8822 31.4935 57.8822 31.6305 57.8822 31.7218L57.6082 33.3658C57.5625 33.7311 57.6538 34.0964 57.8822 34.3704C58.1105 34.6444 58.4302 34.8271 58.7955 34.8271C58.9781 34.8271 59.2065 34.7814 59.3435 34.6901L60.8504 33.9138C60.8961 33.9138 60.9418 33.8681 60.9874 33.8681C61.0331 33.8681 61.0788 33.8681 61.1244 33.9138L62.6314 34.6901C62.814 34.7814 62.9967 34.8271 63.1794 34.8271C63.5447 34.8271 63.8643 34.6444 64.0927 34.3704C64.321 34.0964 64.4123 33.7311 64.3667 33.3658L64.0927 31.7218C64.0927 31.6305 64.0927 31.5392 64.184 31.4478L65.3713 30.3062C65.828 29.8495 65.8736 29.0732 65.417 28.6166C65.2343 28.4339 65.006 28.2969 64.732 28.2512L63.0424 28.0229C62.951 28.0229 62.8597 27.9316 62.814 27.8859L62.0834 26.379C61.8094 25.9223 61.3984 25.6483 60.9418 25.6483Z" fill="white"/>
<path d="M88.2501 30.2605C88.7068 29.8039 88.7524 29.0276 88.2958 28.5709C88.1131 28.3882 87.8391 28.2512 87.6108 28.2056L85.9212 27.9773C85.8298 27.9773 85.7385 27.8859 85.6928 27.8403L84.9622 26.3333C84.6425 25.9223 84.2315 25.6483 83.7749 25.6483C83.3182 25.6483 82.9072 25.9223 82.6789 26.3333L81.9483 27.8403C81.9026 27.9316 81.8113 27.9773 81.7199 27.9773L80.0303 28.2056C79.391 28.2969 78.9343 28.8906 79.0257 29.5755C79.0713 29.8495 79.2083 30.0779 79.391 30.2605L80.624 31.4478C80.7153 31.4935 80.7153 31.6305 80.7153 31.7218L80.4413 33.3658C80.3956 33.7311 80.487 34.0964 80.7153 34.3704C80.9436 34.6444 81.2633 34.8271 81.6286 34.8271C81.8113 34.8271 82.0396 34.7814 82.1766 34.6901L83.6836 33.9138C83.7292 33.9138 83.7749 33.8681 83.8205 33.8681C83.8662 33.8681 83.9119 33.8681 83.9575 33.9138L85.4645 34.6901C85.6472 34.7814 85.8298 34.8271 86.0125 34.8271C86.3778 34.8271 86.6975 34.6444 86.9258 34.3704C87.1541 34.0964 87.2455 33.7311 87.1998 33.3658L86.9258 31.7218C86.9258 31.6305 86.9258 31.5392 87.0171 31.4478L88.2501 30.2605ZM86.6061 31.1282C86.4235 31.3108 86.3322 31.5392 86.3778 31.8132L86.6518 33.4571C86.7431 33.8681 86.4691 34.2791 86.0582 34.3248C86.0125 34.3248 85.9668 34.3248 85.9212 34.3248C85.7842 34.3248 85.6928 34.2791 85.5558 34.2334L84.6425 33.7768V26.9269L85.1905 28.0686C85.2818 28.2969 85.5102 28.4339 85.7385 28.4796L87.4281 28.7079C87.8391 28.7536 88.1131 29.1646 88.0674 29.5755C88.0218 29.7582 87.9761 29.8952 87.8391 29.9865L86.6061 31.1282Z" fill="white"/>
</g>
<defs>
<clipPath id="clip0_1_2346">
<rect width="126.95" height="41.5556" fill="white" transform="translate(0.022644 0.943359)"/>
</clipPath>
</defs>
</svg>
