<svg width="132" height="42" viewBox="0 0 132 42" fill="none" xmlns="http://www.w3.org/2000/svg">
<path fill-rule="evenodd" clip-rule="evenodd" d="M21.2973 41.6983C32.6852 41.6983 41.9169 32.4666 41.9169 21.0787C41.9169 9.69081 32.6852 0.459106 21.2973 0.459106C9.90944 0.459106 0.677734 9.69081 0.677734 21.0787C0.677734 32.4666 9.90944 41.6983 21.2973 41.6983ZM17.3389 9.90271C19.2037 9.24222 21.9694 9.16035 23.5075 9.43208L21.2658 14.4027C20.3809 14.4741 20.1333 14.4981 19.0965 14.8653C18.0598 15.2325 17.1314 15.8533 16.3959 16.6711C15.6605 17.4889 15.1414 18.4778 14.8859 19.5475C14.6304 20.6173 14.6467 21.734 14.9332 22.7959C15.2197 23.8578 15.7674 24.8311 16.5264 25.6272C17.2853 26.4232 18.2314 27.0167 19.2784 27.3536C20.3254 27.6904 21.44 27.7599 22.5208 27.5558C23.6015 27.3516 24.7186 26.8505 25.5706 26.155L28.0866 30.6502C26.5541 31.9013 25.442 32.3617 23.498 32.7289C21.5541 33.0962 19.5492 32.9711 17.666 32.3652C15.7827 31.7593 14.081 30.6918 12.7159 29.26C11.3508 27.8281 10.3657 26.0774 9.85032 24.1674C9.33494 22.2574 9.30569 20.2488 9.76523 18.3246C10.2248 16.4004 11.1585 14.6218 12.4813 13.1508C13.8042 11.6798 15.4741 10.5632 17.3389 9.90271ZM23.82 19.4808H29.7901L32.565 24.442L29.7901 29.1509L27.1834 24.442H21.2132L23.82 19.4808ZM25.1689 17.595H30.1959V16.3161H27.0626V16.2472C27.0626 16.0007 27.4846 15.6517 27.4846 15.6517C27.6705 15.4802 27.9413 15.2623 28.212 15.0446C28.5573 14.7668 28.9022 14.4894 29.0695 14.3092C29.3712 13.9878 29.6007 13.6632 29.7581 13.3353C29.9155 13.0074 29.9942 12.645 29.9942 12.2482C29.9942 11.8777 29.9024 11.5465 29.7188 11.2546C29.5351 10.9595 29.2728 10.7267 28.9318 10.5562C28.594 10.3856 28.189 10.3004 27.7168 10.3004C27.2872 10.3004 26.9183 10.3496 26.6101 10.448C26.3051 10.543 26.0362 10.6693 25.8034 10.8267C25.5739 10.9841 25.3558 11.1513 25.1492 11.3284L25.9756 12.3073C26.2608 12.0712 26.5347 11.8892 26.797 11.7613C27.0593 11.6334 27.3299 11.5694 27.6086 11.5694C27.8742 11.5694 28.0857 11.6416 28.2431 11.7859C28.4038 11.9269 28.4841 12.14 28.4841 12.4253C28.4841 12.6614 28.4333 12.8828 28.3317 13.0893C28.2333 13.2959 28.0726 13.5255 27.8496 13.778C27.4135 14.236 26.5017 14.9832 25.9937 15.3995C25.8569 15.5116 25.7494 15.5997 25.6884 15.6517C25.4005 15.8968 25.1689 16.1616 25.1689 16.5374V17.595Z" fill="#8C9097"/>
<path d="M72.204 12.3227L74.7772 17.5367L80.5312 18.3728L76.3676 22.4314L77.3505 28.1621L72.204 25.4564L67.0574 28.1621L68.0403 22.4314L63.8767 18.3728L69.6307 17.5367L72.204 12.3227Z" fill="#8C9097"/>
<path d="M105.776 12.3227L108.35 17.5367L114.104 18.3728L109.94 22.4314L110.923 28.1621L105.776 25.4564L100.63 28.1621L101.613 22.4314L97.449 18.3728L103.203 17.5367L105.776 12.3227Z" fill="#8C9097"/>
<path d="M55.4416 12.3227L58.0149 17.5367L63.7689 18.3728L59.6053 22.4314L60.5882 28.1621L55.4416 25.4564L50.2951 28.1621L51.278 22.4314L47.1143 18.3728L52.8683 17.5367L55.4416 12.3227Z" fill="#8C9097"/>
<path d="M89.0138 12.3227L91.587 17.5367L97.3411 18.3728L93.1774 22.4314L94.1603 28.1621L89.0138 25.4564L83.8672 28.1621L84.8501 22.4314L80.6865 18.3728L86.4405 17.5367L89.0138 12.3227Z" fill="#8C9097"/>
<path d="M122.629 14.807V24.6513L118.445 26.651L119.06 22.2518L115.738 18.8986L120.383 18.0679L122.629 13.6688V14.807Z" fill="#8C9097"/>
<path d="M122.585 18.7624L122.603 18.798L123.266 20.1416L124.749 20.3571L124.788 20.3628L124.759 20.3905L123.687 21.4364L123.94 22.9132L123.947 22.9523L123.911 22.9338L122.585 22.2366L121.259 22.9338L121.224 22.9523L121.231 22.9132L121.484 21.4364L120.411 20.3905L120.382 20.3628L120.422 20.3571L121.904 20.1416L122.568 18.798L122.585 18.7624Z" stroke="#8C9097" stroke-width="5.70001"/>
<mask id="mask0_1_2328" style="mask-type:alpha" maskUnits="userSpaceOnUse" x="114" y="12" width="17" height="17">
<path d="M122.585 18.7624L122.603 18.798L123.266 20.1416L124.749 20.3571L124.788 20.3628L124.759 20.3905L123.687 21.4364L123.94 22.9132L123.947 22.9523L123.911 22.9338L122.585 22.2366L121.259 22.9338L121.224 22.9523L121.231 22.9132L121.484 21.4364L120.411 20.3905L120.382 20.3628L120.422 20.3571L121.904 20.1416L122.568 18.798L122.585 18.7624Z" stroke="#8C9097" stroke-width="5.70001"/>
</mask>
<g mask="url(#mask0_1_2328)">
<rect x="122.63" y="5.28461" width="8.71094" height="31.1958" fill="#CED0D4"/>
</g>
</svg>
