<svg width="221" height="47" viewBox="0 0 221 47" fill="none" xmlns="http://www.w3.org/2000/svg">
<path d="M0.0981547 36.2491C0.480143 37.4895 -0.378446 38.8008 0.796146 39.995C-0.0774308 40.4488 0.317299 40.9662 0.258914 41.4628C0.263029 42.0408 0.301535 42.618 0.374233 43.1911C0.591013 44.4338 1.67893 45.2815 4.95479 45.0637C9.07571 44.9363 13.1989 44.8098 17.3241 44.6844L21.2052 44.5748C21.6408 44.5646 22.0736 44.5545 22.5092 44.5424C24.9042 44.4672 27.3015 44.5167 29.6915 44.6904C30.561 44.6516 31.4277 44.6109 32.2981 44.5751C32.9745 44.6117 33.6518 44.6452 34.33 44.6818L39.3984 44.6556C39.651 44.743 39.9046 44.8294 40.1552 44.9169C41.2804 45.7968 42.6684 45.0332 43.9466 44.9492C44.3994 45.0039 44.8504 45.0547 45.3013 45.1132C46.0308 45.4689 47.0729 45.2484 47.9477 45.34C47.9627 45.3402 47.9824 45.3404 47.9993 45.3405C48.2274 45.3314 48.4556 45.3508 48.6791 45.3984C48.894 45.4053 49.1046 45.3698 49.3195 45.371C50.4161 45.4291 51.5273 45.4362 52.6366 45.451C53.0336 45.4549 53.4314 45.4587 53.8266 45.4578C54.2959 45.5006 54.7691 45.4587 55.2244 45.3336C55.3921 45.3691 55.5937 45.2936 55.7517 45.357C55.1112 45.3902 54.4679 45.4254 53.8266 45.4578C54.8293 45.8953 56.0777 45.6102 57.2284 45.6119L58.407 45.6362C59.3884 46.0475 60.6056 45.7698 61.7214 45.7836L61.3762 45.6702C61.5073 45.7004 61.5998 45.7506 61.7243 45.7837C63.0024 45.737 64.2811 45.6918 65.5605 45.6477C66.4397 45.7072 67.3191 45.7676 68.1989 45.829C68.404 45.8687 68.6149 45.8648 68.8185 45.8177L71.4875 45.7475C73.0279 45.7328 74.5398 45.5497 76.0457 45.5027C75.885 45.5419 75.7211 45.5659 75.5561 45.5743C74.2005 45.3932 72.8247 45.4503 71.4876 45.7435C72.1368 45.9461 72.8231 45.9902 73.492 45.8724C74.7607 45.8997 76.0294 45.928 77.298 45.9572C78.2718 46.3838 79.4994 46.1005 80.6161 46.1193C81.4816 46.132 82.3446 46.0195 83.1798 45.7853C87.7092 46.16 92.2589 46.2009 96.7943 45.9077C100.289 45.9363 103.784 45.9666 107.279 45.9984C109.905 46.2116 112.601 45.7303 115.217 45.9945L117.086 45.8255L122.899 45.7399C123.774 45.7485 124.65 45.7572 125.527 45.7658C128.969 46.1965 132.496 45.6905 135.975 45.7074L147.61 45.3439C147.84 45.3385 148.074 45.3291 148.306 45.3227L153.537 45.2604C155.672 45.6946 157.931 45.2891 160.126 45.2972C160.472 45.2871 160.815 45.2751 161.159 45.263C162.993 45.2122 164.825 45.1607 166.657 45.1085C166.39 45.0297 166.126 44.9508 165.86 44.869C165.939 44.8418 166.026 44.8639 166.104 44.8405C166.273 44.9598 166.46 45.0502 166.657 45.1085C167.212 45.0908 167.765 45.0703 168.319 45.0526C172.479 44.857 176.7 45.1428 180.808 44.4717L184.058 44.3106L188.602 44.2066C189.471 44.0533 190.35 43.9619 191.232 43.9332C191.24 43.9281 191.249 43.9244 191.258 43.9219C191.464 43.866 191.707 43.9388 191.884 43.8489C194.524 43.8189 197.158 43.5542 199.755 43.0576C202.592 43.0672 205.411 42.5821 208.092 41.6229L208.191 41.6336C209.199 41.5469 210.564 41.7427 210.713 40.969C210.714 40.8725 210.715 40.7847 210.724 40.6922C213.153 40.6541 215.567 40.29 217.905 39.6091L214.588 39.704C214.377 39.6227 214.164 39.5395 213.954 39.4592C214.406 39.4736 214.852 39.3572 215.243 39.1233C221.001 38.2146 220.999 38.2147 220.364 35.6298C220.346 35.4868 220.348 35.3419 220.368 35.1993C220.666 34.5756 220.752 33.8667 220.61 33.1872C220.469 32.5077 220.109 31.8974 219.588 31.4547C220.589 30.6266 220.228 29.9364 219.022 29.2343C218.016 28.6452 217.206 29.0621 216.281 29.2422L212.379 29.3513C208.668 28.9731 204.956 28.5965 201.245 28.2214C201.045 28.2195 200.849 28.208 200.649 28.2021C197.423 27.5843 194.124 27.4744 190.866 27.8761C190.286 27.1463 188.215 27.706 187.439 27.1452L188.653 25.9447C188.495 24.4951 191.17 24.2502 193.321 23.7857C193.51 23.7766 193.699 23.7532 193.885 23.7159C194.548 23.7394 195.209 23.6379 195.837 23.4164C196.546 22.96 197.714 23.3877 198.5 23.0856C199.438 22.6507 199.917 22.1564 199.641 21.5648C199.599 21.1705 201.986 20.9429 200.17 20.425C200.237 20.1283 200.303 19.8315 200.372 19.5349C201.288 19.2678 201.421 18.8193 201.425 18.4351C201.431 17.7594 202.365 17.6961 203.454 17.6556C204.727 17.6682 206.429 17.7428 206.332 16.9521C206.245 16.2243 204.527 16.6226 203.476 16.5978C203.297 16.3393 202.814 16.29 202.289 16.2665C202.205 16.0823 202.121 15.902 202.04 15.7177C202.121 15.622 202.202 15.5348 202.277 15.4429L206.088 14.9977C206.736 15.0678 207.332 15.3962 208.059 15.0433C208.177 14.9846 208.154 14.8742 208.2 14.7859C207.494 14.7789 206.785 14.7652 206.078 14.7544C204.796 14.6838 203.512 14.6153 202.232 14.5419C202.238 14.3585 202.245 14.1721 202.251 13.9858C203.15 13.3975 204.179 13.0544 205.243 12.9891C206.288 12.9685 207.333 12.9653 208.375 12.9157C208.9 12.8919 209.829 12.9376 209.462 12.4986C209.007 12.3949 208.541 12.3477 208.075 12.3577C207.312 12.0113 205.933 12.0662 205.4 11.5734C206.154 11.2555 206.169 10.9604 205.36 10.6908C205.529 10.2027 205.7 9.71491 205.871 9.22746C206.457 8.86541 206.811 8.48066 206.506 8.04323C206.48 7.27065 206.453 6.49802 206.424 5.73122C206.146 5.45237 205.961 5.17453 206.554 4.90427C207.509 4.28133 208.761 3.64878 206.538 3.10365C206.549 2.80325 206.471 2.50639 206.314 2.25319C206.156 1.99998 205.927 1.8026 205.657 1.68743C205.871 1.24158 206.626 0.623532 204.487 0.927818C202.355 1.45134 200.186 1.79473 198 1.95477L194.654 1.76746C193.129 1.77755 191.604 1.78633 190.078 1.79383C184.205 1.46862 178.303 2.00618 172.416 2.09305C171.404 2.14358 170.392 2.19614 169.38 2.25054C167.391 2.30113 165.403 2.35292 163.415 2.40608L162.251 2.38002C152.617 2.64755 142.983 2.91529 133.349 3.18283C132.519 3.12601 131.685 3.22772 130.89 3.48294L130.193 3.48762C126.917 3.1146 123.587 3.55192 120.284 3.58314C120.408 3.65483 120.522 3.72843 120.632 3.80481L120.275 3.81756C120.319 3.73883 120.493 3.65663 120.284 3.58313C118.38 3.72948 116.493 3.34599 114.582 3.67762C112.846 3.44429 110.981 3.8769 109.251 3.60017C103.627 3.80226 98.0026 4.00416 92.3787 4.20625C92.3632 4.25524 92.3542 4.30634 92.3518 4.35778C92.2842 4.36387 92.2165 4.37071 92.1471 4.37485C92.2264 4.31964 92.3592 4.2804 92.3787 4.20625C82.8675 4.17829 73.3653 4.67276 63.8623 4.96925C63.7964 5.08735 64.0289 5.10411 64.1654 5.15372L63.8106 5.16484C63.8059 5.09647 63.8241 5.02854 63.8622 4.97232C60.1487 5.02716 56.4368 5.08285 52.7264 5.13966C50.7879 5.04637 48.8454 5.10319 46.9151 5.30944L38.0423 5.64188C37.8435 5.72006 38.0578 5.78118 38.0647 5.84786C37.9173 5.85221 37.7708 5.85643 37.6197 5.85881C37.7665 5.80152 37.9072 5.72881 38.0395 5.64186C31.8064 5.81929 25.5728 5.99486 19.339 6.16843C18.4846 6.20539 17.6309 6.26267 16.7805 6.27264C14.0677 6.30387 12.0672 6.63355 12.3632 8.12414C12.4338 8.4801 12.0969 8.86212 11.9468 9.23039C11.9384 9.32685 11.9307 9.43197 11.9204 9.53323C12.3203 9.61826 12.7194 9.70317 13.1174 9.79108L13.1169 9.8375C12.761 9.60244 12.3389 9.49631 11.9176 9.53603C11.9355 10.7623 11.9532 11.99 11.9705 13.2195C12.0386 13.7299 11.5592 14.2891 12.4634 14.7266C12.5889 14.9412 12.7117 15.1547 12.8325 15.3692C12.6128 16.0429 11.7487 16.6793 12.013 17.3818C11.0939 17.7869 12.3811 18.1298 12.0413 18.5155C10.7576 19.253 11.9922 20.0722 11.3784 20.8308L12.1066 20.838C12.1066 20.838 12.0971 20.8523 12.1064 20.8601C11.8692 20.7988 11.6221 20.7898 11.3812 20.8336C11.198 20.8521 11.0055 20.8667 10.8242 20.8765C9.69893 21.3481 10.3316 21.9124 10.2682 22.4379C11.4606 23.1553 9.92592 23.9328 10.2462 24.6697C10.6442 26.3824 9.64026 28.1672 10.9463 29.8347C11.2369 30.1285 11.529 30.4209 11.8227 30.7121C11.4709 31.173 12.1398 31.4876 12.5296 31.8419C12.479 32.0287 12.4277 32.2161 12.3758 32.4042C12.1813 32.4283 11.9913 32.4582 11.8117 32.495C10.0465 32.43 8.28291 32.6671 6.59297 33.1967C5.91332 33.1031 5.22165 33.2074 4.59647 33.4976C4.05612 34.0435 3.34828 33.6784 2.69384 33.6092C-0.903806 34.0044 0.577734 35.2973 0.0888165 36.2434L0.0981547 36.2491ZM138.067 3.64242L138.089 3.64264L138.083 3.64729L138.067 3.64714L138.067 3.64242ZM200.749 33.7087C200.811 33.7152 200.874 33.7159 200.936 33.7105C200.929 33.7178 200.92 33.7237 200.911 33.7277L200.752 33.733L200.749 33.7087ZM29.8338 40.6294C29.7476 40.7145 29.7932 40.7515 29.7588 40.8148C29.7276 40.7412 29.8069 40.6977 29.8338 40.6294ZM94.4858 5.9089C94.4762 5.93101 94.5419 5.94122 94.5369 5.96337C94.4687 5.93857 94.3984 5.93498 94.3301 5.91113C94.3883 5.90688 94.4238 5.91206 94.4858 5.91267L94.4858 5.9089ZM55.6894 43.3822L55.6811 43.3753L55.7009 43.3679L55.6894 43.3822ZM17.5328 28.8154L17.5272 28.8153L17.5338 28.8154L17.5328 28.8154ZM21.3209 20.4217C21.2158 20.4139 21.1146 20.3994 20.9973 20.3954C21.1693 20.371 21.3585 20.3247 21.5134 20.3175C21.4511 20.3555 21.3888 20.3837 21.3246 20.4217L21.3209 20.4217ZM40.6203 14.8192C40.5454 14.8001 40.4532 14.8264 40.3755 14.8102C40.4152 14.7739 40.4006 14.739 40.43 14.7016C40.4935 14.7409 40.5587 14.78 40.6165 14.8192L40.6203 14.8192ZM97.7865 10.6988C97.7768 10.7306 97.8651 10.7334 97.8422 10.7699C97.756 10.7555 97.6739 10.7963 97.5858 10.7848C97.6544 10.7607 97.7215 10.7319 97.7865 10.6988ZM186.693 36.8594C186.661 36.8678 186.659 36.8706 186.627 36.881C186.636 36.8723 186.644 36.8632 186.652 36.8534L186.693 36.8594ZM43.6073 15.0631L43.6074 15.0581C43.617 15.0341 43.5929 15.002 43.6138 14.9781C43.6177 15.0063 43.6174 15.035 43.6129 15.0631L43.6073 15.0631ZM130.234 12.5985C130.249 12.6257 130.279 12.6385 130.301 12.6628C130.262 12.6624 130.228 12.6834 130.191 12.6801L130.234 12.5985ZM166.568 21.8377C166.535 21.6955 166.56 21.5799 166.839 21.5759C166.686 21.5976 166.666 21.7614 166.568 21.8377ZM163.814 16.8186L163.814 16.8273C163.797 16.8272 163.795 16.8194 163.777 16.8192C163.79 16.8179 163.804 16.8181 163.817 16.8196C164.564 17.2353 164.899 16.8245 165.345 16.6338C165.347 17.1861 164.375 16.8029 163.817 16.8196L163.814 16.8186ZM154.929 30.5595C154.718 30.5198 154.816 30.543 154.951 30.5491L154.951 30.5539C154.945 30.5538 154.942 30.5539 154.933 30.5596L154.929 30.5595ZM161.412 26.7549C161.385 26.7315 161.356 26.7106 161.325 26.6923C161.295 26.6476 161.364 26.596 161.365 26.5458C161.435 26.6074 161.399 26.6978 161.504 26.7471L161.475 26.7393C161.454 26.7425 161.433 26.7477 161.412 26.7549ZM137.891 27.1751C137.311 27.3943 136.747 27.7778 136.132 27.2195C136.409 27.3527 136.711 27.4179 137.016 27.4102C137.322 27.4025 137.621 27.3221 137.891 27.1751ZM125.092 30.6666L125.092 30.6741L125.071 30.6739C125.077 30.6682 125.083 30.6684 125.092 30.6656L125.092 30.6666ZM145.366 28.8521C145.364 28.8504 145.362 28.8483 145.361 28.8457C145.361 28.8431 145.36 28.8403 145.361 28.8377C145.374 28.8281 145.382 28.8379 145.402 28.8381C145.389 28.8418 145.377 28.8461 145.366 28.8511L145.366 28.8521ZM163.656 28.5437C163.74 28.5084 163.829 28.4824 163.918 28.4662C163.832 28.4904 163.741 28.5146 163.656 28.5437ZM124.249 21.5004C124.343 21.5284 124.295 21.5878 124.334 21.6297C124.291 21.5897 124.301 21.5328 124.249 21.5004ZM114.361 27.3327C113.622 27.3029 112.882 27.3735 112.16 27.5427C112.88 27.3653 113.622 27.2946 114.361 27.3327ZM123.479 32.5621C123.422 32.5529 123.368 32.5417 123.309 32.5334C123.368 32.5417 123.421 32.5548 123.479 32.5621ZM131.54 29.0366L131.551 29.0289L131.564 29.0359L131.54 29.0356L131.54 29.0366ZM91.8482 28.645C91.9198 28.7104 92.1541 28.7378 92.0337 28.8573C91.8041 28.857 91.5752 28.8284 91.3522 28.7723C91.4848 28.7437 91.6835 28.6907 91.8482 28.645ZM112.093 34.795C112.124 34.7953 112.144 34.8052 112.173 34.8045C112.147 34.8178 112.103 34.8038 112.079 34.8151L112.093 34.795ZM133.441 32.2623C133.426 32.3037 133.333 32.3096 133.328 32.3579C133.293 32.3488 133.284 32.3322 133.253 32.3213C133.311 32.3171 133.38 32.2733 133.442 32.2642L133.441 32.2623ZM166.855 31.4858C166.847 31.5079 166.829 31.531 166.819 31.5503C166.789 31.5384 166.763 31.5303 166.734 31.5214C166.783 31.5151 166.805 31.4901 166.855 31.4858ZM154.979 15.8087C154.95 15.8567 154.964 15.8974 154.856 15.9369L154.979 15.8087ZM130.812 15.8044C130.708 15.7397 130.719 15.7543 130.558 15.6697C130.85 15.717 130.904 15.6278 131.139 15.6436C131.026 15.6882 130.917 15.742 130.812 15.8044ZM120.655 16.3107C120.486 16.2991 120.315 16.3098 120.149 16.3425L120.156 16.3223L120.684 16.3053L120.655 16.3107ZM118.218 15.9673C118.246 15.9418 118.264 15.9072 118.271 15.8693C118.277 15.8314 118.27 15.7925 118.252 15.7591C118.345 15.8121 118.304 15.8851 118.218 15.9673ZM88.9875 28.4382C89.0622 28.4564 89.1359 28.4789 89.2083 28.5052C89.2082 28.5196 89.2391 28.5256 89.238 28.5401C89.1933 28.5221 89.1497 28.5013 89.1073 28.478C89.068 28.4651 89.0004 28.4703 88.9564 28.4612C88.9996 28.4529 88.9997 28.4451 88.9875 28.4382ZM164.476 33.927C164.663 33.9202 164.866 33.8971 165.049 33.9018C164.862 33.73 165.505 33.9392 165.115 33.9991C165.075 33.9987 165.057 34.0197 165.021 34.0184C164.844 33.9729 164.663 33.9423 164.48 33.9271L164.476 33.927ZM133.677 14.792C133.712 14.7547 133.756 14.7309 133.79 14.6965C133.824 14.7635 133.932 14.7945 133.976 14.8558C133.864 14.8441 133.789 14.7738 133.674 14.7948L133.677 14.792ZM108.38 14.3404C108.38 14.3404 108.37 14.3333 108.37 14.3276C109.253 14.4547 110.151 14.4073 111.017 14.1877C110.18 14.2905 109.256 14.2882 108.38 14.3404ZM37.7158 27.0957C37.7243 27.0861 37.6962 27.0821 37.6962 27.0821C37.7481 27.0778 37.8002 27.0783 37.852 27.0836C37.8097 27.0957 37.7581 27.0825 37.7158 27.0985L37.7158 27.0957ZM48.0303 23.5982C48.0621 23.6101 48.0892 23.623 48.1238 23.6349C48.098 23.6357 48.0722 23.6381 48.0467 23.6419C48.0469 23.6246 48.0282 23.6155 48.033 23.5982L48.0303 23.5982ZM50.5628 25.8523C50.6311 25.8723 50.7805 25.8632 50.7499 25.9218C50.7363 25.8685 50.6292 25.8722 50.5628 25.8523ZM45.3402 25.518C45.3045 25.5177 45.2727 25.5106 45.2352 25.5092C45.2704 25.5098 45.3054 25.5128 45.3402 25.518ZM56.7331 24.5036C56.7237 24.5035 56.7209 24.5034 56.7209 24.5034C56.7258 24.5021 56.731 24.5022 56.7359 24.5036L56.7331 24.5036ZM47.4262 29.6559C47.4627 29.6717 47.5096 29.6828 47.5451 29.6976C47.4992 29.6875 47.475 29.666 47.4282 29.6559L47.4262 29.6559ZM75.1848 28.2715C75.0149 28.2325 74.8421 28.208 74.6683 28.198C74.8431 28.1956 75.0172 28.2202 75.1848 28.2715ZM74.3709 23.8998C74.2532 23.9956 74.173 24.1321 74.1456 24.2839C73.9656 24.1615 74.0975 24.0255 74.3709 23.8998ZM79.4124 23.5634C79.4189 23.5634 79.4124 23.5566 79.4125 23.5537L79.4378 23.5627C79.4281 23.5618 79.4184 23.5617 79.4087 23.5624L79.4124 23.5634ZM67.4991 20.4311C67.5609 20.4809 67.6291 20.5219 67.7016 20.5529L67.6902 20.5528C67.6418 20.5186 67.5906 20.4886 67.5373 20.4633C67.5122 20.4293 67.4258 20.4325 67.3885 20.4051C67.4232 20.4131 67.4597 20.4249 67.4962 20.433L67.4991 20.4311ZM38.4598 18.6317C38.451 18.6265 38.4436 18.6192 38.4384 18.6103C38.4563 18.6028 38.4725 18.5796 38.5044 18.5789C38.5192 18.6003 38.4534 18.6124 38.4598 18.6317ZM36.3491 17.2786C36.3425 17.2785 36.3492 17.2689 36.3492 17.2689C36.8986 17.2481 37.4488 17.2827 37.9917 17.3721C37.4625 17.1857 36.8934 17.1533 36.3473 17.2786L36.3491 17.2786ZM74.2983 32.9903C74.3058 32.9912 74.3132 32.9936 74.3199 32.9973C74.2924 33.0192 74.2202 33.0088 74.1862 33.0297C74.1086 33.0038 73.9987 33.0135 73.9192 32.9915C74.0487 32.9879 74.1725 32.9939 74.2945 32.9902L74.2983 32.9903ZM39.1183 18.197C38.6223 18.1582 38.1233 18.1936 37.6371 18.3022C37.9395 18.0927 38.2981 17.9013 38.6107 17.6968C38.6384 17.7425 38.7373 17.7182 38.7555 17.7725C38.9115 17.7647 39.0652 17.7311 39.2107 17.6728C39.0174 17.7674 38.7514 17.6981 38.5875 17.8597C38.6188 18.0183 38.9298 18.0871 39.1183 18.1951L39.1183 18.197ZM31.0101 21.913C30.6849 22.1521 29.8626 22.2522 27.8693 22.4228L27.8627 22.4227C28.9374 22.5916 30.0367 22.4147 31.0101 21.9161L31.0101 21.913ZM91.961 34.817L91.9733 34.8094L91.9779 34.8219C91.9723 34.8218 91.9666 34.8218 91.9609 34.8217L91.961 34.817ZM155.131 36.0701C155.478 36.234 155.848 36.3377 156.228 36.3772C155.837 36.4237 155.444 36.3138 155.131 36.0701ZM167.053 35.2914C166.983 35.3322 167.052 35.3784 167.016 35.4234C166.987 35.3823 166.96 35.3394 166.935 35.2951L167.053 35.2963L167.053 35.2914ZM175.137 28.3343L175.154 28.3239L175.137 28.3343ZM135.424 15.0129C135.31 14.6517 134.797 14.7258 134.565 14.5015C134.822 14.6159 135.098 14.675 135.378 14.6754C135.518 14.6401 135.613 14.6884 135.754 14.6656C135.652 14.8152 135.53 14.8266 135.428 15.0129L135.424 15.0129ZM116.875 15.2164C116.876 15.2349 116.879 15.2534 116.883 15.2716C116.808 15.2709 116.778 15.2193 116.71 15.2138C116.769 15.2057 116.812 15.2303 116.875 15.2154L116.875 15.2164ZM101.281 16.5911C101.383 16.6329 101.479 16.687 101.569 16.7524C101.364 16.809 101.164 16.88 100.97 16.9647C101.03 16.8379 101.347 16.7057 101.281 16.5911ZM78.1284 22.0487C78.8261 22.0429 79.5219 22.1249 80.2002 22.293C79.5327 22.0689 78.828 21.9858 78.1284 22.0487ZM65.6142 19.8806L65.602 19.8805C65.6133 19.8722 65.6253 19.8649 65.6379 19.8587C65.6454 19.8588 65.6218 19.8684 65.6142 19.8828L65.6142 19.8806ZM43.3155 15.9115L43.2994 15.9222L43.2778 15.922C43.2919 15.9222 43.3023 15.9164 43.3155 15.9165L43.3155 15.9115ZM25.9328 23.4948C25.5899 23.5397 25.253 23.6233 24.9279 23.7444C25.2343 23.5678 25.5819 23.4816 25.9328 23.4948ZM25.1686 28.9494C25.2797 29.0181 25.4317 29.0184 25.5484 29.0814C25.432 29.0802 25.2677 28.9927 25.1587 29.0071C25.1587 29.0071 25.1638 28.9687 25.1686 28.9494ZM33.7451 33.4359C33.5828 33.4343 33.4213 33.4424 33.259 33.4398C33.4193 33.4059 33.5844 33.4045 33.7451 33.4359ZM72.7246 36.3065L72.6551 36.3058C72.6786 36.3061 72.703 36.3063 72.7246 36.3065ZM164.35 36.5238L164.355 36.5239L164.348 36.5238L164.35 36.5238ZM183.74 32.771C183.717 32.7428 183.665 32.7585 183.641 32.7371C183.695 32.7328 183.743 32.7024 183.803 32.7281C183.77 32.7384 183.767 32.7607 183.74 32.771ZM185.319 11.7187C185.58 11.7349 185.838 11.7729 186.092 11.8324C185.839 11.7661 185.58 11.7281 185.319 11.7187ZM188.478 12.3722L188.478 12.38C188.464 12.3799 188.462 12.3799 188.462 12.3799L188.478 12.3722ZM154.362 10.6183C154.326 10.5987 154.363 10.578 154.333 10.5594C154.39 10.5648 154.448 10.5654 154.506 10.5611C154.467 10.5983 154.397 10.5715 154.362 10.6136L154.362 10.6183ZM86.5177 14.6619C86.6972 14.6244 86.8672 14.5483 87.0164 14.4389C87.1572 14.5368 87.2326 14.5927 87.3959 14.687C87.1042 14.657 86.8106 14.6486 86.5177 14.6619ZM85.5408 13.5902C85.5998 13.6101 85.6882 13.5918 85.749 13.6185C85.6816 13.5985 85.6101 13.6073 85.5408 13.5902ZM22.912 20.9723C22.8888 20.9451 22.8911 20.9046 22.8641 20.8811C22.925 20.8875 22.9753 20.8368 23.038 20.8539C23.0207 20.8962 22.9433 20.9321 22.912 20.9723ZM22.184 28.1892C22.2083 28.2029 22.1941 28.2143 22.2174 28.231C22.1938 28.2394 22.1714 28.2305 22.1488 28.2409C22.1547 28.211 22.1781 28.22 22.184 28.1892ZM79.9536 36.4731C79.8598 36.4722 79.7661 36.4549 79.6723 36.4482C79.7525 36.4142 79.8484 36.3823 79.9125 36.3539C79.9064 36.4021 79.9785 36.4204 79.9573 36.4781L79.9536 36.4731ZM105.639 38.9087C105.423 39.0089 105.215 38.8941 104.996 39.0956C104.755 39.3105 104.385 38.9678 103.966 38.8719C103.951 38.865 103.955 38.8508 103.934 38.8438C104.363 39.3751 105.036 39.2078 105.642 38.9106L105.639 38.9087ZM120.684 38.357C120.592 38.4168 120.495 38.4675 120.394 38.5085L120.389 38.5084C120.482 38.4635 120.573 38.4132 120.66 38.3577C120.67 38.3578 120.677 38.3578 120.684 38.3579L120.684 38.357ZM124.633 40.287C124.666 40.2816 124.681 40.2818 124.715 40.2753L124.691 40.2876C124.673 40.2874 124.649 40.2872 124.631 40.287L124.633 40.287ZM144.102 37.5622C143.996 37.5527 143.892 37.5212 143.798 37.4694C143.834 37.5093 143.937 37.4803 143.985 37.5049C144.034 37.5295 144.045 37.5462 144.097 37.5621L144.102 37.5622ZM143.792 37.4066C143.736 37.4061 143.681 37.4142 143.625 37.4156L143.593 37.4153C143.604 37.3777 143.675 37.3929 143.704 37.3662C143.739 37.3791 143.754 37.3984 143.792 37.4113L143.792 37.4066ZM182.107 37.8851C182.106 37.9439 182.169 37.9571 182.172 38.0092C182.099 37.995 182.059 37.9348 181.985 37.9225C182.027 37.9229 182.066 37.8818 182.11 37.8851L182.107 37.8851ZM184.889 33.1675C184.23 33.3946 183.988 33.2802 183.912 33.0294C184.097 33.2552 184.528 33.163 184.889 33.1675ZM195.874 10.9748C196.481 10.8837 197.095 10.859 197.707 10.9011C197.702 10.9223 197.648 10.9344 197.647 10.9585C197.061 10.8463 196.459 10.8517 195.874 10.9748ZM194.222 8.39938C194.217 8.42153 194.242 8.43414 194.235 8.45725C194.112 8.4319 194.109 8.4995 193.996 8.48294C194.07 8.45471 194.156 8.43059 194.222 8.39938ZM149.767 9.1976C149.415 9.16904 149.073 9.17146 148.718 9.15734C149.08 9.16091 149.421 9.17392 149.767 9.1976ZM73.6207 14.4789C73.7719 14.3751 73.734 14.3208 73.8476 14.2254C73.9188 14.2775 73.9972 14.3186 74.0801 14.3474C73.8918 14.4006 73.8608 14.4088 73.6207 14.4789ZM26.6074 14.164C26.7083 14.1167 26.6802 14.0257 26.8521 14.012C27.0607 14.0744 27.2617 14.1612 27.4511 14.2708C27.1701 14.2178 26.8887 14.1966 26.6074 14.1658L26.6074 14.164ZM16.6211 42.7834L16.6215 42.7398C16.6833 42.7511 16.7156 42.7167 16.7672 42.7172C16.7032 42.735 16.6926 42.7706 16.6239 42.7835L16.6211 42.7834ZM91.4603 40.3968C91.3081 40.4088 91.213 40.4359 91.0496 40.4449C91.1328 40.3916 91.264 40.4084 91.3499 40.3571C91.374 40.3853 91.4305 40.3734 91.4603 40.3968ZM133.963 40.9367C133.924 40.932 133.885 40.9193 133.85 40.8991C133.876 40.8839 133.9 40.8994 133.925 40.8871C133.945 40.9037 133.939 40.923 133.963 40.9367ZM135.916 38.95C135.953 38.9503 135.983 38.9506 136.021 38.951C136.015 38.9569 136.01 38.9633 136.006 38.9702C135.974 38.9698 135.943 38.9635 135.913 38.9518L135.916 38.95ZM146.165 38.5217L146.188 38.5219C146.18 38.5303 146.172 38.5371 146.162 38.542C146.162 38.5352 146.162 38.5275 146.162 38.5226L146.165 38.5217ZM152.733 40.9409C152.733 40.9409 152.763 40.9548 152.764 40.9674C152.746 40.9627 152.727 40.9567 152.709 40.9494C152.718 40.9495 152.725 40.9418 152.733 40.9409ZM159.74 40.1121L159.771 40.1124C159.756 40.1171 159.756 40.1335 159.74 40.1421L159.74 40.1121ZM178.293 41.1538C178.188 41.1867 178.08 41.204 177.971 41.2049C178.086 41.1983 178.179 41.1595 178.293 41.1538ZM193.696 38.61C193.766 38.659 193.874 38.7374 193.948 38.7893C193.857 38.7253 193.755 38.6803 193.647 38.6569C193.68 38.6447 193.659 38.6232 193.696 38.61ZM174.471 21.0437C174.26 20.9615 174.067 20.8931 173.873 20.7995C174.035 20.7876 174.069 20.7175 174.206 20.6908C174.191 20.7959 174.408 20.931 174.471 21.0437ZM177.277 19.5527C177.277 19.5527 177.268 19.5682 177.277 19.5779C177.261 19.5778 177.242 19.5776 177.225 19.5774C177.25 19.5719 177.255 19.5575 177.281 19.5539L177.277 19.5527ZM192.998 14.0357C193.027 14.0254 193.016 14.0091 193.047 13.9978C193.141 14.0701 193.314 14.0439 193.422 14.0913C193.268 14.0897 193.153 14.0353 192.997 14.0357L192.998 14.0357ZM117.957 8.71743C118.013 8.71799 118.07 8.72347 118.128 8.725C118.07 8.72444 118.016 8.72381 117.957 8.71743ZM79.8045 7.94315C79.8027 7.92359 79.7994 7.90438 79.7948 7.88531C79.9123 7.8604 79.8772 7.89483 79.9137 7.90581C79.8797 7.92478 79.8386 7.91839 79.8045 7.94315ZM55.6594 40.811C55.6839 40.7977 55.7028 40.7806 55.7236 40.7682C55.8303 40.8011 55.9575 40.7589 56.0633 40.7831C55.9317 40.7982 55.7955 40.8094 55.6594 40.811ZM116.318 43.976C116.33 43.9842 116.341 43.9932 116.352 44.0033L116.34 44.0031C116.34 43.9925 116.315 43.9826 116.318 43.973L116.318 43.976ZM134.886 40.7481C135.232 40.7737 135.573 40.7422 135.918 40.7804C135.91 40.7868 135.903 40.7938 135.896 40.8014C135.565 40.7298 135.224 40.7118 134.887 40.7481L134.886 40.7481ZM143.484 41.181C143.449 41.2135 143.421 41.2316 143.389 41.2612C143.377 41.2476 143.382 41.2256 143.369 41.2139C143.424 41.2144 143.425 41.1785 143.481 41.181L143.484 41.181ZM164.503 39.6155C164.28 39.4849 164.123 39.3493 164.632 39.1699C164.707 39.1851 164.783 39.2022 164.86 39.2165C164.708 39.3139 164.585 39.4518 164.503 39.6155ZM175.555 42.0152C175.568 42.0182 175.581 42.0227 175.593 42.029C175.581 42.0289 175.584 42.029 175.573 42.0347C175.618 42.0689 175.626 42.1047 175.666 42.1398C175.583 42.1091 175.567 42.0634 175.464 42.0412L175.569 42.0422L175.555 42.0152ZM187.09 40.0308C187.429 39.9376 187.959 39.9217 187.854 39.6523L187.889 39.6526C187.652 39.831 187.384 39.9595 187.099 40.0309L187.09 40.0308ZM202.92 36.1706C202.99 36.2032 202.981 36.2611 203.058 36.2899C202.978 36.3016 202.965 36.2687 202.876 36.2881C202.886 36.2483 202.901 36.2097 202.92 36.1735L202.92 36.1706ZM154.359 3.23592L154.349 3.23111L154.358 3.2312L154.359 3.23592ZM8.2175 42.0868C8.31101 42.1224 8.38299 42.1471 8.47741 42.1857C8.28979 42.1761 8.28277 42.2147 8.12324 42.2122C8.16774 42.1721 8.23111 42.1323 8.21842 42.0868L8.2175 42.0868ZM31.0932 41.3156C30.706 41.4586 30.3334 41.5493 30.0131 41.1919C30.0083 41.1847 30.0041 41.1773 30.0002 41.1696C30.3584 41.2581 30.7248 41.3071 31.0932 41.3156ZM60.1691 43.3018C60.215 43.3129 60.1856 43.3328 60.2249 43.3467C60.1855 43.3521 60.1311 43.3457 60.0916 43.3569C60.1049 43.3349 60.1567 43.3239 60.1691 43.3018ZM80.4138 41.2101C80.4053 41.2168 80.4137 41.2208 80.4052 41.2284L80.3904 41.2099C80.3988 41.21 80.4054 41.2101 80.4138 41.2101ZM115.035 44.8979C115.788 44.7239 116.074 44.7981 116.217 44.9492C115.977 44.9706 115.739 45.0095 115.504 45.0657C115.151 45.0699 114.801 45.0519 114.447 45.0687C114.635 45.0078 114.823 44.9441 115.035 44.8979ZM164.948 44.1881C164.962 44.1892 164.975 44.1893 164.988 44.1885C164.973 44.1883 164.964 44.1882 164.948 44.1881ZM202.638 30.5367C202.638 30.5193 202.607 30.5094 202.611 30.494C202.688 30.4948 202.725 30.5347 202.799 30.5373C202.732 30.5512 202.705 30.5181 202.636 30.5357L202.638 30.5367ZM191.365 29.4969C191.503 29.4413 191.48 29.4141 191.588 29.364C191.597 29.3911 191.656 29.4111 191.681 29.4345C191.546 29.4457 191.518 29.4897 191.365 29.4969ZM199.452 8.86307C199.452 8.85535 199.437 8.84831 199.437 8.84831C199.467 8.84861 199.491 8.86914 199.52 8.86846C199.498 8.87403 199.472 8.86219 199.449 8.86776L199.452 8.86307ZM61.2697 5.56738C61.261 5.56175 61.2532 5.55485 61.2464 5.54688C61.2727 5.53742 61.3005 5.53319 61.3283 5.53425C61.3056 5.54465 61.2905 5.55793 61.2697 5.56738ZM40.4402 6.13475C40.4251 6.14039 40.4119 6.14994 40.3978 6.15366L40.4046 6.13534L40.4402 6.13475ZM15.2863 31.644L15.3471 31.6611C15.3226 31.6676 15.2795 31.6604 15.2579 31.6689C15.2786 31.6633 15.2647 31.6495 15.2863 31.644ZM29.9826 41.6222C30.6955 41.8135 31.4398 41.8475 32.1666 41.7219L31.8737 41.9121C31.3007 41.6094 30.6462 41.5107 30.0125 41.6312C29.9975 41.631 29.9967 41.6213 29.9826 41.6222ZM142.838 45.271C142.97 45.2614 143.102 45.2445 143.233 45.2207C143.262 45.2326 143.277 45.2473 143.307 45.2582L142.837 45.271L142.838 45.271ZM159.273 45.0408C159.296 45.031 159.319 45.0189 159.341 45.0047L159.34 45.0384L159.271 45.0377L159.273 45.0408ZM159.403 44.7494C160.688 44.7948 162.002 44.7076 163.29 44.7289C162.006 44.4837 160.688 44.4905 159.406 44.7494L159.403 44.7494ZM163.685 45.0234C164.019 45.0059 164.349 44.944 164.668 44.8398C164.84 44.8734 165.03 44.8338 165.2 44.8828C164.698 44.9563 164.192 45.0036 163.685 45.0244L163.685 45.0234ZM195.566 43.0606C196.201 43.065 196.827 42.9052 197.386 42.5959C197.385 42.5996 197.385 42.6037 197.386 42.6074C197.386 42.6074 197.41 42.6077 197.415 42.6136C196.811 42.8136 196.192 42.9631 195.565 43.0606L195.566 43.0606ZM210.348 29.6163C210.237 29.6094 210.16 29.6145 210.055 29.6134C210.173 29.6078 210.237 29.6084 210.348 29.6163ZM121.971 3.77651C121.996 3.8144 122.065 3.79674 122.098 3.82796C121.985 3.79499 121.849 3.82549 121.739 3.78483C121.815 3.78558 121.894 3.77768 121.971 3.77651ZM35.1656 6.12432C35.1336 6.08091 35.0935 6.04464 35.0477 6.01733C35.0019 5.99003 34.9513 5.97238 34.8987 5.96543C34.9926 5.96635 35.0865 5.96242 35.1804 5.95948C35.1752 6.01542 35.1708 6.06741 35.1665 6.12433L35.1656 6.12432ZM13.2726 14.4256L13.1685 14.4246C13.2052 14.4163 13.2372 14.4022 13.2711 14.391L13.2708 14.4218L13.2726 14.4256ZM12.4432 14.1172C12.4648 14.1925 12.5038 14.2613 12.557 14.3175C12.6103 14.3737 12.6761 14.4157 12.7488 14.4398L12.6182 14.4453L12.4432 14.1172ZM11.0495 26.3138C10.9863 26.3363 11.0011 26.3636 10.9323 26.3871C10.93 26.3826 10.9289 26.3775 10.9289 26.3725C10.929 26.3674 10.9302 26.3625 10.9326 26.3581C10.9872 26.3393 10.9894 26.3199 11.0476 26.3138" fill="#DBEEFE"/>
</svg>
