<svg viewBox="0 0 470 638" xmlns="http://www.w3.org/2000/svg" xml:space="preserve" style="fill-rule:evenodd;clip-rule:evenodd;stroke-linejoin:round;stroke-miterlimit:2"><path style="fill:#dbeefe" d="M0 0h470v638H0z"/><g opacity=".05"><path d="m470 197.314-2.075 5.554c-3.675 9.9-7.335 19.787-11.06 29.614-6.017 15.846-12.352 31.873-18.48 47.375-12.5 31.593-25.427 64.258-36.23 97.145C371.868 469.2 364.85 553.235 380.706 638h2.565c-15.896-84.498-8.926-168.263 21.277-260.205 10.777-32.8 23.68-65.442 36.167-96.998 6.14-15.514 12.478-31.542 18.495-47.412L470 204.509v-7.195Z" style="fill:#118af7"/><path d="m470 78.166-6.395 20.369c-13.452 43.055-27.357 87.585-42.432 130.895-7.423 21.327-15.612 42.932-23.523 63.83-19.14 50.515-38.94 102.747-50 156.325-12.5 60.547-14.367 123.888-5.602 188.415h2.537c-8.777-64.355-6.945-127.527 5.53-187.902 11.023-53.37 30.775-105.506 49.878-155.933 7.935-20.91 16.125-42.542 23.548-63.893 15.087-43.359 29.004-87.902 42.469-130.98L470 86.583v-8.417Z" style="fill:#118af7"/><path d="M424.394 0h-2.578c6.064 27.878 2.789 58.235-1.181 87.12-.572 4.14-.67 9.938-.78 16.652-.282 16.235-.672 38.476-8.985 45.116l-.329.404c-4.371 8.326-5.458 17.98-6.496 27.318-.402 3.638-.792 7.068-1.355 10.437-2.452 14.576-7.225 29.138-11.84 43.225l-1.575 4.835c-8.91 27.393-19.482 54.688-29.712 81.103-4.468 11.56-9.105 23.522-13.538 35.328-26.964 71.899-41.027 144.542-41.785 215.929-.255 23.413 1.075 47.218 2.613 70.533h2.515c-1.537-23.315-2.868-47.132-2.613-70.507.758-71.083 14.773-143.446 41.628-215.053 4.43-11.802 9.057-23.755 13.525-35.315 10.242-26.44 20.825-53.77 29.747-81.225l1.588-4.833c4.64-14.172 9.447-28.835 11.927-43.592.573-3.442.988-7.067 1.378-10.582 1.002-9.023 2.052-18.335 6.105-26.198 9.033-7.543 9.41-29.333 9.715-46.875.11-6.64.207-12.365.757-16.358 3.977-28.931 7.268-59.344 1.269-87.462Z" style="fill:#118af7"/><path d="M334.224 0h-18.847c12.261 6.531 22.091 14.702 29.429 24.45 16.417 21.802 20.569 50.415 23.644 80.298-2.27 65.71-14.99 128.319-38.88 191.395a9767.138 9767.138 0 0 1-7.102 18.614c-20.313 53.125-41.322 108.058-48.89 166.908-5.615 43.603-6.14 88.025-6.653 130.98-.11 8.362-.219 16.848-.355 25.355h10.06c.145-8.473.255-16.908.353-25.232.512-42.663 1.038-86.793 6.58-129.81 7.41-57.641 27.27-109.57 48.302-164.563 2.37-6.2 4.75-12.402 7.105-18.64 24.341-64.257 37.28-128.04 39.551-195.007l.012-.343-.035-.34c-3.223-31.507-7.618-61.755-25.672-85.73C347.682 11.496 341.481 5.37 334.224 0ZM27.279 0H0v3.968C9.142 2.534 18.255 1.233 27.279 0Z" style="fill:#118af7"/><path d="M0 42.865v2.602l4.06-1.009c46.433-11.366 101.293-22.973 156.115-22.973h.011c20.117 0 39.489 1.598 57.544 4.747 65.918 11.511 102.55 55.543 108.9 130.763.133 61.34-23.635 118.7-46.607 174.183-2.478 5.954-4.945 11.9-7.373 17.844-26.745 65.406-39.65 125.063-40.589 187.746l-.145 10.29c-.416 29.247-.855 60.364-3.663 90.942h2.54c2.782-30.578 3.222-61.67 3.637-90.917l.145-10.28c.94-62.353 13.783-121.716 40.405-186.816 2.43-5.932 4.895-11.877 7.363-17.835 23.07-55.712 46.935-113.317 46.79-175.267C322.686 80.26 285.345 35.46 218.17 23.73c-18.212-3.175-37.72-4.785-57.984-4.785h-.011c-55.092 0-110.132 11.658-156.715 23.06l-3.46.86ZM0 432.638v16.803c1.468 13.406 1.302 26.79 0 40.122v19.326c4.185-24.806 5.224-49.881.26-75.101l-.26-1.15ZM0 307.757v3.747l8.25 9.088c13.3 14.588 27.045 29.676 38.715 45.191 22.353 29.699 33.583 55.407 35.353 80.897 1.94 27.99-9.35 54.307-20.275 79.773-2.675 6.212-5.433 12.645-7.91 18.932C45.66 566.808 31.39 603.002 27.24 638h2.53c4.148-34.557 18.32-70.46 26.693-91.675 2.477-6.25 5.225-12.67 7.885-18.872 11.048-25.733 22.463-52.343 20.485-80.958-1.808-26-13.198-52.135-35.853-82.238-11.742-15.612-25.54-30.737-38.88-45.372L0 307.757Z" style="fill:#118af7"/><path d="M0 101.861v2.793l4.11-1.944c37.46-16.442 82.103-25.88 122.471-25.88 42.75 0 117.542 11.378 138.159 87.39 4.895 42.602-5.14 88.355-29.81 135.988-7.592 14.66-16.675 29.297-25.44 43.444-16.15 26.051-32.85 52.991-41.882 82.238-11.12 36-6.593 74.245-2.21 111.22 3.332 28.21 6.788 57.385 3.272 85.363-.622 4.955-1.612 10.179-2.905 15.527h2.575c1.258-5.237 2.223-10.34 2.833-15.21 3.552-28.295.073-57.618-3.285-85.987-4.345-36.705-8.838-74.683 2.125-110.156 8.935-28.942 25.55-55.737 41.615-81.652 8.788-14.185 17.895-28.87 25.535-43.615 24.915-48.097 35.035-94.338 30.03-137.635-21.08-77.832-97.155-89.453-140.612-89.453h-.013c-40.697 0-85.693 9.508-123.458 26.098L0 101.861Z" style="fill:#118af7"/><path d="M113.385 284.825c19.75 0 39.208-9.702 53.406-26.622 14.964-17.835 21.74-41.298 18.14-62.745-9.51-32.983-46.607-47.815-79.137-47.815h-.013c-33.337 0-60.806 14.477-71.681 37.794-5.99 12.853-5.979 26.818.061 41.491 10.963 26.684 37.623 46.717 57.765 54.052 7.005 2.553 14.232 3.845 21.459 3.845Zm-7.604-139.72h.013c33.47.013 71.677 15.405 81.59 49.792 3.76 22.315-3.236 46.545-18.676 64.94-14.675 17.493-34.827 27.516-55.323 27.516-7.519 0-15.026-1.343-22.314-3.991-20.642-7.52-47.985-28.077-59.24-55.457-6.23-15.15-6.23-30.2 0-43.543 11.291-24.207 39.623-39.257 73.95-39.257Z" style="fill:#118af7"/></g></svg>
