<svg xmlns="http://www.w3.org/2000/svg" width="295" height="51" fill="none"><path fill="#DBEEFE" d="M82.322 35.37c.385 1.262-.567 2.572.671 3.8-.95.444-.536.974-.61 1.475-.007.584.022 1.169.088 1.75.207 1.26 1.359 2.137 4.888 1.976 4.437-.054 8.876-.106 13.318-.158l4.178-.04c.469-.002.935-.005 1.404-.009a79.34 79.34 0 0 1 7.725.28c.936-.023 1.869-.048 2.807-.069.727.05 1.455.096 2.184.145l5.454.066c.27.093.541.185.808.278 1.192.91 2.702.164 4.079.102.486.063.97.123 1.454.19.778.373 1.904.17 2.843.278l.055.002c.246-.006.491.018.731.07.231.011.458-.02.689-.016 1.179.079 2.375.106 3.568.142.427.01.855.022 1.28.028a4.495 4.495 0 0 0 1.507-.1c.179.04.398-.034.566.033-.689.022-1.382.046-2.073.067 1.07.46 2.419.195 3.657.218l1.268.046c1.047.434 2.362.175 3.563.21l-.369-.121c.14.032.239.085.372.12 1.376-.023 2.753-.046 4.13-.067l2.835.231c.22.044.447.044.667 0l2.874-.022c1.657.013 3.288-.144 4.909-.164a3.01 3.01 0 0 1-.528.063 13.422 13.422 0 0 0-4.381.097 4.844 4.844 0 0 0 2.154.167c1.364.05 2.729.102 4.093.155 1.039.449 2.366.185 3.567.224a10.29 10.29 0 0 0 2.765-.29c4.866.46 9.761.585 14.647.371 3.76.093 7.52.187 11.279.283 2.821.263 5.733-.174 8.541.14l2.015-.136 6.257.02 2.827.074c3.694.498 7.499.05 11.242.13l12.527-.154c.248-.002.5-.007.749-.01l5.63.033c8.421-.25 38.722-.427 16.688-.317 8.054-.036 11.272-.242 19.334-.314 5.166-.047 1.771-1.489 3.962-3.734l-.677-.26c.486.023.969-.086 1.394-.316 6.215-.813 3.645-.654 3.017-3.28a1.541 1.541 0 0 1 .014-.434c.334-.625 3.009-1.5 2.871-2.19a3.093 3.093 0 0 0-1.063-1.77c1.095-.818.721-1.523-.561-2.255-1.07-.614-1.951-.207-2.95-.041l-1.041.022c-3.985-.45 2.637-1.448-1.349-1.895-.215-.005-.426-.02-.641-.03-3.457-.683 2.676-2.47-.838-2.124-.608-.748.31-.238-.513-.819l5.656-2.386c1.067-1.145-2.289-1.416-4.26-2.046-.037-.4 2.536-.586.593-1.143.078-.299.156-.598.237-.896.991-.254-1.213.072-1.2-.316.021-.683 1.027-.73 2.2-.751 1.37.036 3.199.142 3.112-.659-.078-.737-1.936-.366-3.066-.41-.187-.265-.705-.323-1.27-.357-.086-.188-.172-.371-.256-.559.09-.095.178-.182.261-.274 12.527-1.16-10.273-1.834-5.995-2.008 1.124-.002 2.25.014 3.372-.017.565-.014 1.564.049 1.178-.402-1.243-.288-1.495-1.663-2.062-1.85-1.356-1.207.386-.981.581-1.471.638-.355 1.027-.738.708-1.186-.011-.781-.024-1.563-.038-2.339-.294-.287-.487-.57.157-.833 1.041-.613.089-1.281-2.292-1.873a1.446 1.446 0 0 0-.223-.864 1.518 1.518 0 0 0-.694-.583c.24-.447 1.065-1.058-1.243-.79-2.304.49-4.646.798-7.001.92-8.725.048-4.643-.377-14.557-.296l-1.252-.048-31.115.285a7.513 7.513 0 0 0-2.652.259l-.75-.008c-3.517-.437-7.11-.056-10.664-.084.131.075.253.151.369.23l-.384.007c.049-.08.239-.159.015-.237-2.051.113-4.074-.309-6.138-.009-1.863-.267-3.878.136-5.734-.175l-18.167.305a.542.542 0 0 0-.032.153c-.073.005-.146.01-.221.013.087-.054.23-.091.253-.166-10.233-.201-20.468.125-30.7.252-.073.118.177.14.323.192l-.382.005a.294.294 0 0 1 .059-.194c-3.997-.012-7.992-.024-11.985-.034a43.13 43.13 0 0 0-6.257.066l-9.554.174c-.215.076.014.141.02.209-.159.002-.316.003-.479.003.159-.055.312-.126.456-.212-6.71.066-13.421.13-20.132.192-.92.022-1.84.064-2.755.058-2.92-.017-5.08.28-4.793 1.792.069.361-.302.741-.472 1.11-.01.098-.021.204-.034.306.428.094.856.187 1.282.283l-.002.047a2.092 2.092 0 0 0-1.284-.327l-.021 3.725c.062.517-.466 1.074.498 1.533.13.22.258.437.383.656-.25.677-1.194 1.305-.924 2.02-.998.393.38.763.006 1.147-1.397.722-.086 1.573-.763 2.328l.783.02s-.01.015 0 .023a1.935 1.935 0 0 0-.78-.04c-.198.016-.405.027-.6.034-1.221.456-.552 1.038-.632 1.568 1.268.747-.4 1.505-.071 2.256.391 1.739-.727 3.525.643 5.235.306.302.614.603.924.903-.388.46.325.79.736 1.155l-.177.565c-.21.021-.415.048-.61.082-1.897-.098-3.8.11-5.63.614a4.078 4.078 0 0 0-2.154.268c-.593.542-1.347.16-2.05.078-3.879.334-2.312 1.668-2.859 2.616l.01.006zM231.47 4.92h.024l-.007.005h-.017V4.92zm44.136 31.662c.067.008.135.01.202.005a.095.095 0 0 1-.027.017l-.171.002-.004-.024zm-161.383 3.76c-.094.084-.046.122-.084.186-.032-.075.054-.118.084-.187zM184.53 6.416c-.011.022.059.034.054.056-.073-.026-.149-.031-.222-.057.063-.003.101.003.168.005v-.004zm-42.545 37.179-.009-.007.021-.008-.012.015zm-36.489-23.84c-.113-.01-.222-.026-.348-.032.186-.022.39-.065.557-.07-.068.038-.135.065-.205.102h-.004zm20.885-5.312c-.08-.021-.18.004-.263-.014.043-.036.028-.072.061-.109.067.041.137.082.198.123h.004zm61.598-3.124c-.011.032.084.036.058.073-.092-.016-.181.023-.276.01.074-.023.147-.05.218-.083zm78.929 28.156c-.034.008-.036.01-.071.02a.179.179 0 0 0 .028-.027l.043.007zM129.59 14.745v-.005c.011-.024-.014-.057.009-.081a.312.312 0 0 1-.003.086h-.006zm93.261-.913c.016.028.048.041.07.066-.041-.001-.078.02-.118.016l.048-.082zm38.897 10.003c-.032-.144-.003-.26.298-.26-.165.02-.191.185-.298.26zm-2.855-5.125-.001.01c-.018-.001-.021-.01-.04-.01.015 0 .029 0 .044.002.794.433 1.164.024 1.648-.16-.01.558-1.048.153-1.648.16l-.003-.002zm-9.855 13.73c-.226-.043-.12-.018.025-.01v.005c-.007 0-.01 0-.021.006h-.004zm7.058-3.728a.673.673 0 0 0-.093-.065c-.031-.045.044-.096.046-.147.075.064.033.154.146.206l-.031-.008a.39.39 0 0 0-.068.014zm-25.318-.004c-.628.212-1.243.589-1.893.013.295.14.619.211.947.21.329-.003.652-.079.946-.223zm-13.846 3.297v.008h-.022c.006-.007.013-.005.022-.008zm21.853-1.465c-.002-.002-.004-.004-.004-.006v-.008c.013-.01.022 0 .043 0l-.039.014zm19.686.022c.092-.034.188-.06.285-.074-.094.023-.193.046-.285.074zm-42.25-7.84c.1.03.048.09.089.133-.045-.041-.033-.099-.089-.132zm-10.764 5.717a9.346 9.346 0 0 0-2.372.172 8.663 8.663 0 0 1 2.372-.172zm9.699 5.453c-.061-.01-.119-.023-.182-.032.063.01.12.024.182.032zm8.749-3.417.012-.008.014.007h-.026zm-42.699-1.12c.075.068.327.1.195.218a3.17 3.17 0 0 1-.732-.098c.144-.027.359-.077.537-.12zm21.652 6.587c.033.001.054.011.085.011-.028.013-.075-.002-.101.01l.016-.02zm23.023-2.171c-.016.041-.116.045-.123.094-.037-.01-.047-.027-.08-.038.063-.003.138-.046.204-.054l-.001-.002zm35.97-.177c-.01.023-.029.046-.04.065a1.207 1.207 0 0 0-.091-.03c.053-.006.077-.031.131-.035zm-12.443-16.066c-.033.048-.018.09-.136.128l.136-.128zm-26.003-.444c-.111-.068-.1-.053-.271-.141.313.053.373-.036.625-.016a2.382 2.382 0 0 0-.354.157zm-10.94.326a2.218 2.218 0 0 0-.546.023l.009-.02.568-.008-.031.005zm-2.615-.391a.167.167 0 0 0 .041-.21c.099.055.053.128-.041.21zm-31.718 12.075c.08.02.159.044.236.072 0 .014.033.021.032.036a1.377 1.377 0 0 1-.14-.066c-.042-.013-.115-.01-.162-.02.047-.007.047-.015.034-.022zm81.107 6.925c.202-.003.42-.023.616-.015-.196-.177.491.046.07.1-.043-.001-.063.02-.102.018a3.678 3.678 0 0 0-.579-.103h-.005zm-32.73-19.907c.038-.037.086-.06.123-.094.035.068.151.101.197.164-.121-.014-.199-.086-.324-.067l.004-.003zm-27.21-.917s-.01-.008-.01-.014a7.768 7.768 0 0 0 2.851-.093c-.903.089-1.897.07-2.841.107zm-76.305 11.607c.009-.01-.021-.014-.021-.014a.93.93 0 0 1 .167.005c-.045.011-.101-.003-.147.012l.001-.003zm11.172-3.348.1.04a.578.578 0 0 0-.083.005c.001-.018-.019-.027-.014-.045h-.003zm2.677 2.325c.073.022.234.015.2.074-.013-.054-.129-.052-.2-.074zm-5.612-.433c-.038 0-.072-.009-.113-.01.038 0 .076.004.113.01zm12.28-.818h-.013.016-.003zm-10.124 5.04c.039.016.089.028.127.044-.049-.011-.075-.033-.125-.044h-.002zm29.897-.894a3.563 3.563 0 0 0-.554-.084c.188.001.375.03.554.084zm-.782-4.435a.65.65 0 0 0-.251.385c-.191-.127-.046-.262.251-.385zm5.432-.248c.007 0 0-.007 0-.01l.027.01c-.01-.001-.021-.002-.031-.001l.004.001zm-12.752-3.384a.95.95 0 0 0 .215.127h-.012a1.095 1.095 0 0 0-.163-.094c-.026-.034-.119-.033-.158-.061.037.009.076.021.115.03l.003-.002zm-31.207-2.348a.08.08 0 0 1-.023-.022c.02-.008.038-.03.072-.03.016.021-.056.032-.049.052zm-2.242-1.407c-.007 0 0-.01 0-.01a9.478 9.478 0 0 1 1.765.135 3.37 3.37 0 0 0-1.767-.125h.002zM162.23 33.43c.008 0 .016.003.023.007-.03.022-.108.01-.145.03-.083-.027-.201-.02-.286-.043.139-.001.272.007.403.005h.005zm-37.537-15.6a5.733 5.733 0 0 0-1.596.08c.33-.207.72-.394 1.06-.595.029.047.136.024.154.08.168-.006.335-.037.492-.093-.21.092-.494.017-.674.177.03.162.363.237.564.35v.001zm-8.804 3.61c-.355.235-1.242.321-3.39.457h-.007a5.865 5.865 0 0 0 3.397-.454v-.004zm65.306 14.156.014-.007.004.013h-.018v-.006zm67.943 2.419c.369.172.766.283 1.174.33a1.68 1.68 0 0 1-1.174-.33zm12.844-.57c-.076.04-.003.088-.042.133a1.331 1.331 0 0 1-.084-.132l.126.004v-.005zm-33.599-21.079c-.114-.367-.668-.301-.912-.532.273.12.57.185.871.19.151-.033.252.018.404-.003-.113.15-.245.159-.358.346h-.005zm-19.962-.132a.504.504 0 0 0 .007.056c-.081-.002-.111-.055-.185-.062.064-.007.11.02.178.006zm-16.808 1.106c.109.044.211.1.306.168a5.037 5.037 0 0 0-.649.204c.067-.127.412-.255.343-.372zm-25.029 5.095a9.514 9.514 0 0 1 2.224.285 5.794 5.794 0 0 0-2.224-.285zm-13.418-2.42h-.013a.242.242 0 0 1 .039-.021c.008 0-.018.009-.026.023v-.002zm-23.908-4.419-.018.01h-.023c.015 0 .026-.005.041-.005v-.005zm-18.866 7.35c-.37.04-.734.117-1.086.234a2.115 2.115 0 0 1 1.086-.234zm-.939 5.5c.118.072.282.075.406.141-.125-.003-.3-.095-.417-.082 0 0 .006-.039.011-.058zm9.133 4.693c-.175-.005-.349 0-.523-.005.173-.031.35-.03.523.005zm41.879 3.613-.074-.002.074.002zm115.126-1.528c-.024-.029-.08-.014-.106-.036.059-.003.111-.033.175-.006-.036.01-.039.032-.069.042zm-9.623-21.191c.28.02.557.064.829.129a4.067 4.067 0 0 0-.829-.13zm3.384.718v.008h-.017l.017-.008zm-20.497-2.482c-.039-.02.001-.041-.031-.06.062.006.125.008.187.004-.043.037-.117.009-.156.05v.006zm-73.086 2.851c.194-.035.379-.108.542-.216.149.101.229.16.403.258a6.78 6.78 0 0 0-.945-.042zm-1.028-1.101c.063.021.159.004.223.032-.072-.021-.149-.014-.223-.032zm-67.545 6.322c-.025-.028-.021-.07-.05-.093.066.007.121-.043.188-.025-.02.043-.104.078-.138.118zm-.938 7.283c.026.014.011.025.035.043-.025.008-.049-.002-.074.008.007-.03.032-.02.039-.051zm61.982 9.428c-.101-.003-.201-.022-.302-.03.087-.033.191-.064.26-.091-.007.048.07.068.046.126l-.004-.005zm27.585 2.93c-.235.098-.456-.022-.696.178-.263.212-.654-.14-1.104-.245-.015-.008-.011-.022-.033-.03.451.546 1.178.389 1.836.1l-.003-.003zm16.2-.283c-.1.059-.206.108-.315.148h-.005c.101-.044.199-.093.294-.148h.026zm4.208 2.023c.035-.005.051-.004.088-.01l-.026.012-.064-.002h.002zm21.006-2.4a.843.843 0 0 1-.325-.1c.038.042.149.014.201.04.052.026.063.043.119.06h.005zm-.33-.163c-.061-.001-.119.006-.18.006h-.034c.012-.038.088-.022.12-.048.037.013.053.033.094.047v-.005zm36.816 1.206c-.002.06.065.074.067.127-.079-.016-.12-.078-.2-.092.046.002.089-.04.136-.035h-.003zm-8.678-4.655c-.714.217-.972.097-1.049-.158.195.232.66.147 1.049.158zm10.636-22.229c.655-.08-3.519-.068-2.862-.014-.006.021 4.772.006 4.77.03a5.143 5.143 0 0 0-1.908-.016zm-.065-2.642c-.006.022.02.036.013.059-.132-.028-.137.04-.258.021.08-.027.174-.05.245-.08zm-31.677-.09c-.378-.036-.746-.04-1.128-.06.39.01.756.03 1.128.06zM161.896 14.7c.165-.102.125-.158.25-.252a.947.947 0 0 0 .247.127c-.204.05-.237.059-.497.125zm-50.578-1.175c.109-.046.081-.139.266-.15.223.068.438.159.639.273-.301-.058-.604-.085-.906-.121l.001-.002zM99.961 42.278l.001-.044c.067.013.102-.021.158-.02-.07.017-.082.053-.156.064h-.003zm80.576-1.048c-.164.009-.267.035-.443.04.091-.052.232-.032.325-.083.026.03.087.018.118.043zm45.721 1.32a.326.326 0 0 1-.121-.04c.028-.015.054.001.081-.01.021.016.014.036.04.05zm2.144-1.973.112.003a.108.108 0 0 0-.016.02.343.343 0 0 1-.1-.021l.004-.002zm11.037-.246h.024a.09.09 0 0 1-.028.02v-.02h.004zm7.015 2.565s.031.015.033.028a.41.41 0 0 1-.059-.02c.009 0 .017-.007.026-.008zm7.557-.71.033.001c-.016.005-.017.021-.034.03l.001-.03zm19.94 1.392c-.113.03-.23.046-.347.045.123-.004.224-.042.347-.045zm.455-2.204c.074.05.189.132.268.185a.935.935 0 0 0-.322-.139c.036-.012.015-.034.054-.046zm-4.137-18.198c-.226-.087-.431-.16-.638-.257.174-.01.212-.08.361-.104-.019.106.211.246.277.361zm3.051-1.456s-.011.015-.001.026l-.056-.002c.027-.005.033-.02.061-.023l-.004-.001zm.861-5.204c.031-.01.02-.027.054-.037.098.074.285.051.401.1-.166-.003-.288-.06-.455-.063zm-64.457-6.832c.061.002.122.008.184.011-.062-.002-.12-.003-.184-.01zm-41.035-1.478a.29.29 0 0 0-.009-.059c.127-.023.089.012.128.023-.037.019-.082.012-.119.036zm-26.682 32.79c.027-.013.048-.03.07-.042.114.035.252-.005.366.02a4.173 4.173 0 0 1-.436.022zm65.2 4.305a.344.344 0 0 1 .036.028h-.013c.001-.01-.026-.021-.023-.03v.002zm20.048-2.925c.372.032.739.007 1.11.052a.16.16 0 0 0-.024.02 3.667 3.667 0 0 0-1.086-.072zm9.242.595c-.039.032-.069.05-.104.079-.013-.014-.007-.036-.021-.048.06.001.061-.035.122-.032h.003zm22.65-1.2c-.238-.136-.404-.276.148-.448.08.017.162.035.244.051a1.052 1.052 0 0 0-.392.397zm11.839 2.627a.248.248 0 0 1 .041.015c-.013 0-.01 0-.021.006.047.035.055.071.098.107-.089-.032-.105-.079-.215-.103l.113.003-.016-.028zm-3.717-1.708c.366-.088.936-.095.83-.37l.037.002c-.258.176-.55.3-.858.368h-.009zm10.621-3.58c.075.035.064.093.147.123-.088.01-.101-.023-.196-.005a.504.504 0 0 1 .049-.115v-.003zM249.009 4.806l-.01-.005h.009l.001.005zM90.934 41.42c.1.038.176.064.277.105-.201-.014-.21.025-.381.02.048-.04.116-.079.104-.125zm24.63-.363c-.42.138-.823.223-1.16-.145l-.013-.022a5.73 5.73 0 0 0 1.173.167zm31.242 2.538c.05.012.018.032.06.047-.043.004-.101-.003-.144.007.015-.022.071-.032.084-.054zm21.828-1.746c-.009.007 0 .011-.01.019l-.015-.02.025.001zm37.173 4.36c.813-.162 1.12-.082 1.271.073a5.511 5.511 0 0 0-.769.105c-.38-.002-.757-.027-1.139-.016.204-.058.408-.12.637-.162zm71.9-12.8c.001-.018-.033-.029-.028-.044.083.002.121.043.201.047-.072.013-.1-.021-.175-.005l.002.001zm-5.614-1.292c.149-.054.126-.082.243-.13.009.027.072.048.098.072-.145.01-.176.053-.341.058zm2.649-20.679c.001-.008-.015-.015-.015-.015.032 0 .057.022.089.022-.025.005-.053-.008-.077-.002l.003-.005zM148.797 5.466l-.025-.02a.226.226 0 0 1 .089-.012c-.025.01-.041.023-.064.032zm-22.424.194c-.016.006-.031.015-.046.019l.008-.019h.038zm-27.61 25.332.065.018c-.027.006-.073-.002-.096.006.022-.005.007-.019.03-.024zm15.599 10.356a5.811 5.811 0 0 0 2.348.14l-.319.187a3.225 3.225 0 0 0-1.997-.317c-.016-.001-.016-.01-.032-.01zm121.353 5.746a4.34 4.34 0 0 0 .425-.044c.031.013.047.028.079.04l-.504.004zm50.308-14.475c-.12-.009-.202-.005-.315-.008a2.52 2.52 0 0 1 .315.008zM214.149 4.762c.026.039.1.022.136.054-.122-.035-.269-.007-.386-.05.082.002.167-.004.25-.004zm-93.451.792a.412.412 0 0 0-.125-.11.415.415 0 0 0-.159-.056c.101.003.202 0 .303 0l-.019.166zm-23.734 7.993-.112-.003c.04-.007.074-.021.111-.032v.031l.001.004zm-.886-.327a.486.486 0 0 0 .322.332l-.14.003-.182-.335zm-1.76 12.306c-.069.021-.053.05-.128.072l-.003-.015c0-.005.002-.01.004-.014.06-.018.062-.038.125-.043"/><path fill="#DBEEFE" d="M230.182 16.096c-.379-1.286.602-2.613-.646-3.872.971-.444.555-.986.635-1.495.014-.595-.01-1.19-.072-1.78-.198-1.285-1.362-2.185-4.955-2.047-4.515.024-9.033.046-13.553.067l-4.252.012c-.477-.001-.951-.002-1.429-.001a80.498 80.498 0 0 1-7.858-.34c-.953.017-1.903.036-2.857.05-.739-.055-1.479-.107-2.221-.162l-5.549-.106-.82-.288c-1.204-.935-2.748-.186-4.15-.133-.494-.068-.986-.132-1.477-.204-.788-.385-1.936-.185-2.89-.302l-.057-.002a3.241 3.241 0 0 1-.742-.077c-.235-.013-.467.018-.702.011-1.199-.088-2.415-.125-3.629-.169-.434-.014-.87-.029-1.302-.038a4.58 4.58 0 0 0-1.535.091c-.182-.04-.405.032-.576-.038.702-.017 1.407-.037 2.111-.053-1.084-.476-2.46-.216-3.72-.247l-1.289-.056c-1.061-.449-2.403-.195-3.624-.238l.375.125c-.143-.034-.243-.088-.378-.126-1.401.015-2.802.028-4.204.04l-2.882-.255a1.725 1.725 0 0 0-.679-.005l-2.924.002c-1.687-.025-3.348.124-4.998.133.178-.036.358-.056.539-.06 1.478.221 2.986.198 4.459-.068a4.92 4.92 0 0 0-2.19-.185l-4.164-.187c-1.053-.464-2.406-.205-3.627-.253a10.474 10.474 0 0 0-2.818.276 107.87 107.87 0 0 0-14.9-.482c-3.825-.12-7.65-.243-11.475-.367-2.868-.288-5.835.137-8.689-.203l-2.052.125-6.367-.064-2.876-.095c-3.754-.533-7.63-.105-11.439-.213l-12.748.07c-.252 0-.508.003-.763.003l-5.728-.072c-2.323-.503-4.81-.145-7.212-.21-.38.001-.756.004-1.132.008-2.01.004-4.017.01-6.024.015.29.088.576.176.865.267-.087.026-.181.001-.268.023a2.1 2.1 0 0 0-.596-.29l-1.822.014c-11.028.239-14.082.102-15.688.422-3.106-.084-5.392 1.127-8.357 2.044l-.108-.014c-1.106.063-2.594-.174-2.782.618-.004.1-.008.19-.021.284a31.672 31.672 0 0 0-7.895.927l3.634-.011.686.268a2.735 2.735 0 0 0-1.421.312c-6.332.784-6.33.784-5.716 3.46.014.147.008.296-.019.442a3.097 3.097 0 0 0 .735 3.873c-1.122.825-.748 1.544.55 2.298 1.082.632 1.982.224 3 .063l4.276-.01c4.05.486 8.101.97 12.153 1.453.219.007.433.024.652.035 3.511.72 7.12.92-8.905.614.611.766 2.897.244 3.729.842l-1.367 1.203c.126 1.495-2.81 1.677-5.179 2.098a4.594 4.594 0 0 0-.62.057 6.183 6.183 0 0 0-2.146.257c-.791.451-2.056-.02-2.926.271-1.04.423-1.58.919-1.297 1.534.033.407-2.586.579-.615 1.159-.082.304-.165.607-.25.91-1.01.251-1.17.709-1.187 1.104-.028.695-1.052.736-2.246.749-1.393-.047-3.254-.168-3.173.648.072.751 1.966.386 3.116.44.187.27.714.333 1.289.37.086.193.171.38.255.572-.092.096-.183.184-.269.276l-4.186.359c-.707-.09-1.348-.443-2.156-.099-.13.058-.11.172-.163.261.774.026 1.549.059 2.323.088 1.4.106 2.804.21 4.204.32l-.04.57a7.07 7.07 0 0 1-3.306.948c-1.144-.006-2.289-.03-3.432-.006-.575.01-1.59-.061-1.202.4.495.119 1.003.18 1.514.181.824.376 2.335.356 2.903.877-.835.307-.861.61.016.909-.2.497-.403.995-.606 1.492-.652.357-1.052.743-.732 1.201.004.795.01 1.59.016 2.38.296.294.49.585-.168.847-1.065.616-2.456 1.234-.04 1.853a1.47 1.47 0 0 0 .22.88c.164.265.408.474.7.6-.248.453-1.094 1.069 1.257.811a45.639 45.639 0 0 1 7.133-.886l3.657.28c1.67.03 3.34.06 5.011.092 6.42.488 12.897.09 19.345.154 1.11-.026 2.219-.053 3.328-.083 2.178 0 4.357-.001 6.535-.004l1.273.057 31.665-.07a7.644 7.644 0 0 0 2.701-.245l.764.014c3.574.469 7.234.106 10.85.16a5.086 5.086 0 0 1-.373-.237l.391-.004c-.05.08-.245.16-.018.241 2.089-.1 4.143.343 6.246.052 1.893.285 3.947-.11 5.833.22 6.163-.062 12.327-.123 18.49-.183a.596.596 0 0 0 .034-.156c.074-.004.148-.01.224-.012-.088.055-.235.092-.258.168 10.411.277 20.829.017 31.241-.04.076-.12-.178-.143-.326-.198l.389-.002a.302.302 0 0 1-.063.197l12.196.119c2.119.146 4.248.139 6.367-.023l9.724-.11c.22-.075-.012-.144-.018-.213h.488a2.626 2.626 0 0 0-.467.213c6.829-.02 13.659-.038 20.489-.053.936-.016 1.873-.053 2.804-.04 2.971.038 5.171-.249 4.894-1.79-.066-.367.315-.752.491-1.126.012-.1.024-.207.038-.311-.435-.098-.869-.196-1.302-.297l.002-.047c.382.25.841.37 1.304.34l.058-3.79c-.058-.526.484-1.089-.492-1.562a51.64 51.64 0 0 1-.383-.67c.261-.688 1.227-1.32.96-2.05 1.019-.392-.379-.779.005-1.166 1.429-.725.103-1.6.799-2.364l-.797-.027s.011-.014.001-.023c.258.07.528.085.793.047.201-.015.413-.025.611-.03 1.247-.456.572-1.052.658-1.591-1.282-.77.422-1.53.095-2.295-.381-1.772.774-3.582-.603-5.331-.309-.31-.619-.618-.932-.926.4-.465-.322-.806-.738-1.18l.187-.574c.213-.02.422-.046.62-.08 1.93.114 3.868-.084 5.735-.584a4.157 4.157 0 0 0 2.195-.258c.609-.547 1.372-.153 2.087-.065 3.951-.312 2.37-1.68 2.935-2.641l-.01-.006zM78.113 46.029l-.024-.001.007-.005h.017v.006zM30.05 13.443a1.286 1.286 0 0 0-.206-.007.092.092 0 0 1 .029-.017l.174-.001.003.025zm167.718-2.63c.097-.085.049-.124.088-.189.032.077-.056.12-.088.19zm-71.874 34.023c.011-.022-.061-.034-.055-.057.074.027.151.033.225.059-.064.003-.102-.003-.17-.006v.004zm43.657-37.53.009.008-.022.007.013-.015zm36.897 24.515c.115.01.225.028.353.035-.189.02-.397.063-.567.067.069-.038.138-.065.21-.102h.004zm-21.305 5.258c.082.021.183-.003.268.015-.045.037-.03.073-.063.11-.068-.041-.138-.083-.201-.125h-.004zm-62.711 2.744c.012-.032-.085-.037-.059-.074.094.017.185-.023.281-.009a1.8 1.8 0 0 0-.222.083zm-96.5-29.23c.036-.008.038-.011.074-.021l-.03.028-.043-.008zm155.95 26.157v.005c-.011.024.014.058-.01.082a.283.283 0 0 1 .004-.087h.006zm-94.91.272c-.016-.029-.048-.043-.07-.068.041.001.08-.02.12-.015l-.05.083zM47.49 26.569c.03.147 0 .265-.306.262.168-.018.196-.186.306-.262zm2.855 5.234v-.009c.019.001.021.01.041.01-.015 0-.03 0-.044-.002-.805-.447-1.185-.033-1.679.151.015-.568 1.068-.148 1.679-.15h.003zm10.162-13.9c.23.046.122.02-.025.01v-.006c.007 0 .01 0 .02-.005h.005zm-7.218 3.743c.029.025.06.047.094.067.03.046-.046.098-.049.15-.075-.066-.032-.158-.146-.211l.031.008a.334.334 0 0 0 .07-.014zm25.763.182c.64-.21 1.27-.59 1.926 0a2.216 2.216 0 0 0-1.926.001zm14.121-3.256v-.008h.023c-.006.006-.013.005-.023.008zm-22.251 1.336.004.007v.008c-.014.01-.022 0-.044-.001l.04-.014zm-20.033-.16c-.093.034-.19.058-.29.072.096-.022.197-.045.29-.073zm42.917 8.274c-.102-.032-.048-.091-.09-.136.046.043.034.101.09.136zm11.009-5.74a9.506 9.506 0 0 0 2.416-.16 8.827 8.827 0 0 1-2.416.16zm-9.816-5.618c.061.011.12.024.185.034-.064-.01-.122-.025-.185-.034zm-8.936 3.416-.013.007-.014-.007h.027zm43.439 1.44c-.077-.07-.332-.104-.197-.224.252.007.501.042.744.106-.146.025-.366.075-.547.118zm-21.969-6.855c-.034-.001-.055-.012-.087-.012.03-.013.077.003.104-.008l-.017.02zm-23.449 2.047c.017-.042.12-.046.126-.095.038.01.048.027.081.04-.064.002-.14.045-.208.053l.001.002zm-36.604-.074c.01-.023.03-.046.042-.066.032.013.06.022.092.032-.054.006-.078.03-.134.034zm12.505 16.435c.034-.048.019-.09.139-.129l-.14.129zm26.456.636c.112.07.1.054.273.145-.317-.056-.38.034-.636.012a2.65 2.65 0 0 0 .363-.157zm11.135-.255c.185.016.372.01.555-.02l-.009.02-.578.004.032-.004zm2.657.416a.178.178 0 0 0-.061.1.167.167 0 0 0 .017.114c-.1-.057-.053-.131.044-.214zm32.394-12.063a2.224 2.224 0 0 1-.24-.075c.001-.014-.033-.021-.031-.036.048.02.095.042.141.067.042.014.117.01.165.021-.048.008-.048.016-.035.023zm-82.465-7.618c-.206.002-.428.02-.628.011.199.182-.498-.05-.07-.102.045.002.065-.02.104-.017.193.051.39.087.59.108h.004zm33.11 20.486c-.038.038-.088.061-.126.096-.035-.07-.152-.105-.199-.17.123.016.202.09.33.072l-.005.002zm27.679 1.126s.011.007.011.013a7.934 7.934 0 0 0-2.902.075c.92-.084 1.93-.057 2.891-.088zm77.761-11.273c-.009.01.021.014.021.014a.967.967 0 0 1-.17-.006c.047-.01.103.004.15-.011l-.001.003zm-11.402 3.328c-.034-.014-.063-.028-.101-.04a.81.81 0 0 0 .085-.006c-.001.018.019.028.013.045h.003zm-2.701-2.385c-.074-.023-.238-.017-.202-.076.013.055.13.053.202.076zm5.707.48c.039.001.074.01.115.012a1.092 1.092 0 0 1-.115-.012zm-12.504.746h.013c-.005.002-.011.001-.016 0h.003zm10.351-5.056c-.039-.018-.09-.03-.129-.046.05.011.076.034.127.045h.002zm-30.431.698c.184.045.373.074.563.09a1.978 1.978 0 0 1-.563-.09zm.752 4.518a.66.66 0 0 0 .259-.39c.193.131.044.268-.259.39zm-5.529.214c-.008 0-.001.007-.001.01l-.027-.01c.01.002.021.002.032.001h-.004zm12.942 3.533a.975.975 0 0 0-.218-.13h.013c.052.037.107.069.164.096.027.036.121.035.161.064l-.117-.032-.003.002zm31.733 2.61a.06.06 0 0 1 .023.022c-.02.008-.038.031-.073.031-.016-.022.056-.033.05-.053zm2.268 1.447c.007 0 0 .01 0 .01a9.458 9.458 0 0 1-1.795-.15 3.42 3.42 0 0 0 1.797.14h-.002zM148.85 17.509a.063.063 0 0 1-.023-.008c.031-.022.109-.01.147-.03.084.029.205.022.291.046-.142 0-.277-.009-.411-.008h-.004zm38.045 16.135a5.78 5.78 0 0 0 1.624-.07c-.337.208-.736.395-1.085.598-.029-.048-.138-.026-.156-.082-.171.004-.34.034-.501.09.214-.092.503-.014.688-.175-.029-.164-.368-.243-.571-.36l.001-.001zm8.993-3.61c.364-.238 1.267-.32 3.455-.443h.007a5.974 5.974 0 0 0-3.462.44v.003zm-66.316-14.866-.013.008-.005-.013h.019l-.001.005zm-69.113-2.94a3.901 3.901 0 0 0-1.191-.344 1.71 1.71 0 0 1 1.191.345zm-13.076.49c.078-.04.004-.09.045-.135.03.044.059.088.084.134l-.128-.004v.005zm33.983 21.685c.114.374.678.311.924.548a2.313 2.313 0 0 0-.884-.2c-.155.032-.257-.02-.412 0 .117-.151.25-.16.367-.349h.005zm20.313.275c-.001-.02-.004-.038-.007-.057.082.003.113.056.187.064-.065.007-.111-.02-.18-.007zm17.114-1.007a1.472 1.472 0 0 1-.31-.173c.226-.053.447-.12.663-.203-.07.13-.422.257-.353.376zm25.518-5.008a9.612 9.612 0 0 1-2.26-.306 5.888 5.888 0 0 0 2.26.306zm13.631 2.557h.013a.194.194 0 0 1-.04.022c-.008 0 .018-.01.027-.024v.002zm24.285 4.665.018-.01h.024c-.015 0-.027.005-.041.005l-.001.005zm19.27-7.346a5.288 5.288 0 0 0 1.107-.23 2.163 2.163 0 0 1-1.107.23zm1.009-5.59c-.12-.074-.286-.078-.412-.146.127.004.305.099.424.087 0 0-.006.039-.012.059zm-9.247-4.839c.177.006.354.002.532.009-.176.03-.357.027-.532-.009zm-42.581-3.971.076.002-.076-.002zm-121.642.736c.024.03.081.014.107.037-.06.003-.113.033-.178.005.037-.01.04-.032.07-.042zM26.64 36.487a5.427 5.427 0 0 1-.843-.137c.275.075.557.12.843.137zm-3.437-.755v-.008h.018l-.018.008zm37.291 2.696c.04.021-.002.041.03.061a1.203 1.203 0 0 0-.19-.006c.044-.037.12-.008.16-.05v-.005zm74.399-2.387a1.459 1.459 0 0 0-.553.217c-.151-.105-.232-.164-.408-.265a7 7 0 0 0 .961.048zm1.035 1.128c-.064-.022-.161-.005-.227-.034.073.022.152.015.227.034zm68.795-5.956c.024.028.02.07.049.095-.066-.009-.123.042-.191.023.02-.043.106-.078.142-.118zm1.025-7.404c-.026-.015-.01-.027-.035-.044.026-.008.05.002.075-.009-.007.03-.033.021-.04.053zm-62.979-10.03c.102.003.204.023.307.033-.089.032-.195.063-.266.09.008-.05-.07-.07-.045-.129l.004.006zm-28.041-3.177c.239-.097.463.027.709-.175.27-.215.665.147 1.121.257.016.007.011.022.034.03-.453-.558-1.195-.404-1.867-.114l.003.002zm-16.488.175c.102-.06.21-.109.322-.149h.005a3.006 3.006 0 0 0-.301.149h-.026zm-4.26-2.089-.09.01.026-.012.066.002h-.002zm-21.4 2.294a.88.88 0 0 1 .33.104c-.038-.042-.151-.015-.204-.042-.052-.026-.064-.044-.12-.062h-.005zm.335.168c.062.002.122-.005.183-.004h.035c-.013.04-.09.022-.123.048-.037-.014-.053-.034-.095-.048v.004zm-41.93-1.493c.003-.06-.066-.075-.067-.13.08.017.122.08.202.095-.046-.002-.09.04-.138.035h.003zm-3.195 4.78c.729-.217.99-.093 1.066.167-.196-.237-.67-.153-1.066-.167zm-12.727 22.54a9.856 9.856 0 0 1-2.01.027c.007-.021.066-.032.068-.057.638.13 1.298.14 1.942.03zm1.726 2.692c.006-.023-.02-.037-.012-.06.134.03.14-.04.262-.02-.08.027-.176.05-.25.08zm48.692.34c.384.039.758.045 1.147.069a19.86 19.86 0 0 1-1.147-.069zm83.525-3.442c-.169.102-.129.16-.256.255a.971.971 0 0 0-.251-.132l.507-.123zm51.457 1.552c-.112.046-.084.14-.273.15a3.132 3.132 0 0 1-.647-.282c.306.062.613.091.92.13v.002zm11.838-29.176-.002.045c-.068-.013-.104.021-.16.02.07-.017.083-.054.159-.065h.003zm-82.004.5c.167-.01.272-.035.451-.04-.092.053-.236.032-.331.083-.026-.03-.088-.019-.12-.044zM83.785 7.775c.044.006.085.02.123.042-.028.015-.054-.002-.083.01-.02-.017-.014-.037-.04-.052zm-2.2 1.993-.115-.004a.082.082 0 0 0 .017-.02.35.35 0 0 1 .102.022l-.004.002zm-11.233.172h-.025a.084.084 0 0 1 .029-.02l-.001.02h-.003zm-7.114-2.66s-.032-.015-.033-.028l.06.02c-.01 0-.018.008-.027.009zm-7.697.67-.033-.001c.016-.005.017-.021.035-.03l-.002.03zM35.264 6.395c.115-.031.235-.046.354-.044-.126.003-.23.04-.354.044zm2.661 2.191c-.075-.052-.19-.136-.27-.191a.93.93 0 0 0 .326.144c-.037.012-.015.034-.056.047zm.886 18.593c.229.09.438.166.647.267-.177.008-.217.08-.368.103.02-.108-.213-.252-.279-.37zm-3.119 1.46s.011-.015.001-.026l.058.002c-.028.005-.034.02-.063.023l.004.001zm-17.384 5.264c-.033.01-.021.027-.055.038-.1-.077-.29-.054-.407-.106.168.006.291.065.462.068zm81.98 7.431c-.061-.002-.124-.009-.186-.012.062.002.122.004.186.012zm41.742 1.793a.31.31 0 0 0 .009.06c-.13.023-.09-.012-.13-.024.038-.019.083-.01.121-.035zm27.472-33.175c-.027.013-.048.03-.072.042-.115-.037-.256.003-.371-.024.145-.012.294-.02.443-.018zm-66.303-4.84c-.013-.01-.026-.019-.037-.03h.013c0 .012.027.023.024.032v-.003zm-20.43 2.834c-.378-.035-.752-.012-1.128-.06l.024-.021c.36.082.734.11 1.104.081zm-9.398-.67c.04-.032.07-.05.106-.08.013.015.007.037.02.05-.06-.003-.061.034-.123.03h-.003zm-23.06 1.061c.24.14.408.284-.155.455-.082-.017-.164-.037-.248-.054.17-.096.308-.234.403-.4zM38.289 5.58a.15.15 0 0 1-.042-.015c.014 0 .01 0 .022-.005-.048-.037-.055-.074-.098-.11.09.033.105.08.218.106l-.115-.004.015.028zM25.598 7.32c-.374.087-.954.09-.849.37l-.038-.002c.265-.177.563-.302.877-.368h.01zm2.153 3.534c-.076-.035-.064-.095-.148-.126.089-.01.102.024.199.006a.553.553 0 0 1-.051.117v.003zm32.514 35.167.01.005h-.009v-.005zM221.478 9.88c-.101-.04-.179-.066-.281-.109.205.015.214-.024.388-.018-.05.04-.119.08-.107.127zm-25.067.196c.429-.137.839-.221 1.179.155l.013.023c-.389-.1-.789-.16-1.192-.178zm-31.767-2.803c-.05-.013-.017-.032-.06-.048.044-.004.103.004.147-.007-.016.023-.073.032-.087.055zm-22.228 1.622c.009-.006 0-.01.01-.018l.015.02-.025-.002zm-37.784-4.697c-.829.159-1.141.075-1.292-.084.263-.016.525-.05.783-.101.387.005.77.032 1.158.024-.208.058-.416.119-.649.16zm-54.663-.575c-.015-.001-.03-.002-.044-.001l.044.001zM27.88 16.656c-.001.018.034.03.028.045-.085-.003-.123-.045-.204-.05.074-.012.102.023.178.006h-.002zm-7.296 1.387c-.152.054-.13.082-.248.13-.01-.027-.073-.05-.1-.074.148-.008.18-.053.348-.056zm-9.506 21.012c0 .008.016.016.016.016-.033-.002-.059-.023-.09-.023.024-.005.052.007.077.002l-.003.005zm151.166 7c.009.007.018.014.025.022a.23.23 0 0 1-.09.011c.025-.01.042-.023.065-.033zm22.821-.039c.016-.005.031-.015.047-.018l-.008.018h-.039zm28.343-25.58-.066-.02c.027-.006.074.003.098-.006-.023.006-.008.02-.032.025zM197.637 9.787a5.92 5.92 0 0 0-2.388-.16l.327-.187a3.275 3.275 0 0 0 2.028.337c.017 0 .017.01.033.01zM74.207 3.086c-.145.007-.29.02-.433.042-.032-.013-.048-.029-.08-.04l.513-.002zM56.21 2.894a.478.478 0 0 0-.076.035l.002-.035.076.003-.002-.003zm-.152.296c-1.405-.08-2.846-.025-4.256-.08 1.398.285 2.841.313 4.252.08h.004zm-4.68-.394a4.48 4.48 0 0 0-1.08.163c-.188-.039-.397-.003-.582-.058a17.104 17.104 0 0 1 1.663-.105zM36.02 3.96a4.31 4.31 0 0 0-2.008.43c.002-.003.002-.007.001-.011 0 0-.026-.001-.032-.007.668-.19 1.35-.328 2.04-.412zM19.411 17.401c.122.01.206.007.32.011-.128.003-.198 0-.32-.01zm76.327 28.91c-.026-.04-.102-.023-.138-.056.123.037.273.01.392.054-.083-.003-.17.003-.254.002zm95.102-.146a.423.423 0 0 0 .287.17 7.958 7.958 0 0 0-.309-.001l.022-.17zm24.229-7.967.114.004c-.041.008-.076.021-.114.032l.002-.032-.002-.004zm.898.34a.493.493 0 0 0-.324-.34l.143-.003.181.342zm1.912-12.51c.07-.021.054-.05.13-.072.003.005.004.01.004.015a.038.038 0 0 1-.005.015c-.06.018-.063.038-.127.043"/></svg>
