<svg xmlns="http://www.w3.org/2000/svg" width="232" height="53" fill="none"><path fill="#FFDC63" d="M.01 42.567c.415 1.407-.475 2.908.773 4.253-.914.526-.494 1.11-.55 1.676.01.657.057 1.313.14 1.964.24 1.411 1.393 2.364 4.837 2.08 4.333-.192 8.668-.382 13.006-.57l4.081-.169c.459-.016.914-.033 1.372-.051a67.308 67.308 0 0 1 7.556.087c.914-.053 1.825-.11 2.74-.16.712.034 1.425.065 2.139.099l5.33-.087c.267.097.535.192.8.289 1.192.988 2.644.104 3.988-.006.477.057.952.11 1.426.172.771.396 1.865.134 2.786.228h.055c.24-.013.48.007.715.058.226.006.448-.037.674-.038 1.154.054 2.323.05 3.49.054.417 0 .836 0 1.251-.006.494.044.992-.01 1.47-.157.176.039.387-.05.554.021-.673.045-1.35.092-2.024.136 1.06.487 2.37.148 3.58.137l1.24.015c1.036.457 2.314.127 3.488.13l-.365-.125c.139.033.237.09.368.125 1.344-.067 2.688-.133 4.033-.197l2.778.177c.216.042.438.036.651-.02l2.807-.11c1.62-.034 3.208-.26 4.792-.33a2.584 2.584 0 0 1-.514.088 11.443 11.443 0 0 0-4.278.238 4.155 4.155 0 0 0 2.11.124l4.004.053c1.028.475 2.317.139 3.492.148a8.795 8.795 0 0 0 2.693-.409c4.768.376 9.554.371 14.321-.013 3.677-.007 7.353-.011 11.03-.014 2.764.213 5.595-.365 8.349-.093l1.964-.214 6.114-.162h2.764c3.625.451 7.329-.164 10.989-.184l12.235-.543c.242-.009.488-.022.731-.032l5.502-.13c2.25.47 4.622-.016 6.931-.031l1.086-.05 5.782-.238c-.282-.087-.56-.174-.841-.264.082-.032.174-.007.256-.035.179.134.377.235.585.299.583-.026 1.164-.056 1.748-.082 4.373-.27 8.816.008 13.13-.8l3.417-.22 4.778-.17a18.15 18.15 0 0 1 2.764-.34.084.084 0 0 1 .027-.013c.216-.066.473.014.657-.09a43.62 43.62 0 0 0 8.271-.988 24.055 24.055 0 0 0 8.755-1.726l.105.011c1.059-.11 2.496.098 2.645-.784 0-.11 0-.21.009-.315 2.555-.07 5.09-.512 7.542-1.312l-3.488.145c-.223-.09-.447-.182-.67-.271.476.01.944-.127 1.353-.397 6.047-1.098 6.045-1.098 5.35-4.031a2.008 2.008 0 0 1 0-.49c.307-.712.39-1.52.234-2.291a3.592 3.592 0 0 0-1.093-1.96c1.044-.953.657-1.733-.618-2.519-1.064-.659-1.912-.175-2.884.04l-4.103.168a9116.39 9116.39 0 0 0-11.723-1.16c-.21 0-.417-.012-.627-.016a30.654 30.654 0 0 0-10.294-.261c-.617-.824-2.79-.164-3.612-.793l1.265-1.38c-.181-1.647 2.63-1.955 4.887-2.507.2-.013.397-.042.593-.086a5.185 5.185 0 0 0 2.05-.363c.742-.527 1.975-.053 2.798-.406.982-.505 1.481-1.073 1.185-1.742-.049-.448 2.459-.734.544-1.303.067-.338.134-.676.203-1.014.961-.315 1.096-.826 1.096-1.263 0-.769.981-.851 2.126-.91 1.34 0 3.131.066 3.02-.832-.098-.827-1.902-.355-3.008-.371-.19-.292-.699-.343-1.252-.364-.089-.208-.179-.412-.267-.621.085-.11.169-.21.247-.315l4.004-.55c.682.073 1.312.44 2.073.03.123-.068.099-.193.146-.294-.743 0-1.489-.008-2.233-.012-1.349-.066-2.7-.13-4.048-.199l.015-.632a6.16 6.16 0 0 1 3.137-1.168c1.098-.035 2.198-.05 3.294-.118.552-.033 1.529.008 1.138-.487a5.567 5.567 0 0 0-1.46-.145c-.805-.385-2.256-.307-2.821-.862.789-.37.802-.706-.052-1.003.173-.557.348-1.114.523-1.67.612-.419.981-.86.655-1.354-.035-.879-.072-1.757-.109-2.63-.297-.313-.494-.627.127-.941.998-.72 2.309-1.453-.036-2.048a1.817 1.817 0 0 0-.244-.965 1.546 1.546 0 0 0-.696-.636c.22-.51 1.007-1.221-1.239-.851a38.394 38.394 0 0 1-6.812 1.24l-3.522-.175c-1.604.028-3.208.055-4.813.081-6.181-.304-12.383.373-18.575.538-1.064.069-2.128.14-3.192.213-2.091.08-4.182.161-6.273.244l-1.224-.017-30.391 1.237a6.44 6.44 0 0 0-2.584.369l-.734.013c-3.449-.388-6.948.147-10.421.22.131.08.252.162.368.248l-.376.018c.046-.09.228-.185.007-.266-2.001.187-3.989-.228-5.996.17-1.828-.245-3.785.268-5.609-.028l-17.74.879a.67.67 0 0 0-.026.172c-.072.008-.143.017-.216.022.083-.064.222-.11.242-.194-10.004.074-19.994.743-29.987 1.187-.068.135.177.151.32.206l-.372.017a.373.373 0 0 1 .052-.22c-3.905.104-7.81.21-11.711.315a36.72 36.72 0 0 0-6.111.258l-9.33.478c-.208.091.018.158.026.234-.155.007-.309.013-.468.017.154-.066.301-.15.44-.251-6.555.272-13.11.541-19.665.808-.898.052-1.796.127-2.69.147-2.853.066-4.954.464-4.627 2.156.078.404-.273.842-.427 1.263l-.024.345c.421.092.842.184 1.261.28v.052a1.841 1.841 0 0 0-1.264-.33l.093 4.19c.077.58-.421 1.221.534 1.709.135.242.266.484.395.727-.224.768-1.126 1.502-.84 2.298-.963.471.394.847.04 1.29-1.342.852-.035 1.77-.673 2.64h.766s-.01.017 0 .025a1.654 1.654 0 0 0-.763-.022c-.192.024-.395.042-.585.055-1.179.55-.508 1.184-.569 1.783 1.262.802-.344 1.704 0 2.538.437 1.944-.6 3.985.79 5.868.309.33.619.66.931.988-.365.528.342.878.755 1.277l-.156.641c-.204.03-.404.066-.592.11a15.197 15.197 0 0 0-5.482.857 3.507 3.507 0 0 0-2.097.364c-.563.627-1.311.22-2 .148-3.78.49-2.209 1.944-2.713 3.026l.01.006zM144.794 3.934h.023l-.006.005h-.017v-.005zm66.243 33.497a.936.936 0 0 0 .198 0 .073.073 0 0 1-.027.02l-.167.008-.004-.028zM31.333 47.217c-.09.097-.042.139-.077.212-.034-.084.049-.134.077-.212zM98.977 7c-.01.025.06.036.054.061-.072-.027-.146-.03-.218-.057.061-.005.099 0 .164 0V7zm-40.42 43.059-.009-.008.021-.009-.012.017zM18.271 33.916h-.005.007-.002zm3.898-9.59c-.11-.007-.217-.022-.34-.026.18-.03.379-.084.541-.094-.065.044-.13.077-.197.12h-.004zm20.242-6.588c-.079-.02-.176.01-.258-.008.042-.041.026-.08.057-.124.067.044.136.088.197.132h.004zM102.5 12.41c-.01.037.083.039.059.08-.091-.015-.177.032-.27.02.072-.028.142-.061.211-.1zm93.786 28.762c-.034.01-.036.013-.069.025a.278.278 0 0 0 .026-.032l.043.007zM45.555 17.982v-.006c.01-.027-.015-.063.006-.09a.31.31 0 0 1 0 .096h-.005zm91.093-3.773c.017.03.048.045.071.072-.041 0-.076.024-.116.021l.045-.093zm38.313 10.102c-.036-.161-.011-.293.283-.3-.161.026-.18.212-.283.3zm-2.948-5.678v.01c-.018 0-.021-.009-.039-.009h.042c.79.465 1.138-.006 1.605-.228.008.628-1.019.203-1.605.228h-.003zm-9.204 15.73c-.222-.044-.118-.018.024-.013v.006c-.007 0-.01 0-.02.006h-.004zm6.78-4.4a.685.685 0 0 0-.092-.071c-.032-.05.04-.11.04-.167.075.069.038.172.149.227l-.03-.008a.39.39 0 0 0-.067.018zm-24.737.74c-.607.256-1.196.699-1.849.07.293.149.611.22.932.208.321-.013.635-.108.917-.278zm-13.426 4.115v.009h-.021c.005-.007.012-.007.021-.01v.001zm21.307-2.29-.005-.008v-.01c.012-.01.021 0 .042 0l-.037.016v.001zm19.235-.556c.088-.041.181-.072.275-.091-.091.028-.187.057-.275.09zm-41.523-7.57c.099.03.049.098.091.145-.046-.045-.036-.11-.091-.146zm-10.34 6.744a7.97 7.97 0 0 0-2.313.264 7.36 7.36 0 0 1 2.313-.264zm9.644 5.846c-.059-.01-.117-.022-.179-.03.062.008.119.022.179.03zm8.443-4.1.012-.01.013.009h-.025zm-41.754-.001c.076.073.323.102.197.24a2.807 2.807 0 0 1-.717-.09c.139-.034.347-.096.52-.15zm21.359 6.769c.032 0 .053.01.084.01-.028.015-.074 0-.099.012l.015-.023zm22.427-3.12c-.014.047-.112.055-.117.11-.037-.01-.046-.03-.079-.041.061-.006.133-.056.197-.067l-.001-.002zm35.14-1.258c-.009.026-.028.052-.038.074-.031-.013-.059-.022-.09-.032.052-.008.074-.036.128-.042zm-12.655-17.699c-.03.055-.014.101-.128.147l.128-.147zm-25.42.266c-.11-.073-.098-.056-.268-.15.307.05.363-.052.61-.037a2.372 2.372 0 0 0-.342.187zm-10.678.69a1.872 1.872 0 0 0-.533.041l.008-.023.555-.025-.03.006zm-2.567-.364a.207.207 0 0 0 .033-.237c.099.06.057.143-.033.237zM93.427 32.687c.079.02.156.045.233.074 0 .017.032.023.032.04a1.205 1.205 0 0 1-.139-.07c-.041-.014-.112-.007-.159-.017.046-.01.046-.019.033-.026zm79.459 5.399c.197-.01.409-.039.602-.035-.197-.194.481.037.071.11-.042 0-.061.024-.099.023a3.15 3.15 0 0 0-.569-.098h-.005zm-32.593-21.42c.035-.044.081-.071.117-.11.036.075.15.11.197.178-.118-.012-.197-.09-.318-.066l.004-.003zm-26.614-.231s-.011-.008-.011-.015a6.63 6.63 0 0 0 2.783-.189c-.88.127-1.851.135-2.772.204zm-74.196 15.3c.009-.012-.02-.016-.02-.016a.888.888 0 0 1 .163 0c-.044.014-.098 0-.143.019v-.004zm10.813-4.094c.034.013.062.027.099.04a.746.746 0 0 0-.081.01c0-.02-.02-.03-.015-.05h-.003zm2.687 2.535c.072.022.23.01.198.077-.015-.06-.128-.055-.198-.077zm-5.496-.321c-.038 0-.072-.008-.111-.01a.803.803 0 0 1 .11.01zm11.973-1.282h-.013.015-.002zm-9.736 5.965c.038.017.087.03.125.046-.048-.011-.074-.035-.123-.046h-.002zm29.183-1.886a3.047 3.047 0 0 0-.544-.077 1.65 1.65 0 0 1 .544.077zm-.901-4.963a.748.748 0 0 0-.234.44c-.19-.138-.053-.294.234-.44zm5.299-.44c.007 0 0-.007 0-.01l.027.01h-.03.003zM70.74 23.82a.922.922 0 0 0 .215.137h-.012a1.01 1.01 0 0 0-.162-.1c-.027-.039-.117-.034-.157-.065.037.009.075.022.114.03l.002-.002zM40.178 22.1a.066.066 0 0 1-.023-.024c.02-.01.036-.036.07-.037.015.024-.054.039-.047.06zm-2.234-1.516c-.007 0 0-.01 0-.01a8.012 8.012 0 0 1 1.729.098 2.893 2.893 0 0 0-1.731-.088h.002zm40.08 17.447a.04.04 0 0 1 .022.008c-.029.025-.105.014-.14.038-.082-.029-.198-.017-.282-.04.137-.006.267 0 .395-.006h.004zM40.865 21.597a4.869 4.869 0 0 0-1.557.136c.316-.242.691-.463 1.018-.7.03.052.133.023.153.085.164-.01.326-.05.478-.118-.202.11-.483.034-.654.22.035.18.363.254.562.375v.002zm-8.49 4.317c-.34.276-1.203.4-3.298.615h-.007a5.06 5.06 0 0 0 3.305-.611v-.004zM96.621 39.91l.013-.009.004.014h-.017v-.005zm66.458.718c.366.183.757.296 1.157.337a1.488 1.488 0 0 1-1.157-.337zm12.531-1.02c-.073.048 0 .1-.037.152a1.643 1.643 0 0 1-.086-.146h.123v-.005zm8.432-8.003.017-.012-.017.012zm-41.91-14.708c-.124-.41-.663-.32-.908-.572.271.127.562.191.856.189.147-.042.247.012.395-.016-.105.172-.234.186-.338.399h-.005zm-19.509.44.009.062c-.079 0-.111-.059-.183-.064.063-.01.108.018.174 0v.001zm-16.388 1.737c.108.047.21.107.304.18-.214.067-.424.15-.628.249.063-.145.395-.3.324-.429zm-24.296 6.467a8.12 8.12 0 0 1 2.181.255 4.97 4.97 0 0 0-2.181-.255zm-13.186-2.326h-.013a.226.226 0 0 1 .038-.025c.008 0-.017.011-.025.028v-.003zM45.257 18.95l-.017.013h-.022c.015 0 .025-.007.04-.007v-.006zm-18.205 8.82c-.36.055-.714.154-1.054.296.32-.205.685-.307 1.054-.296zm-.747 6.213c.117.077.277.076.4.146-.122 0-.296-.097-.41-.08 0 0 .005-.044.01-.066zm9.067 5.008c-.17 0-.34.01-.511.01a1.19 1.19 0 0 1 .511-.01zm41.03 2.828h-.073.073zm96.378-.778h.006-.008.002zm20.357-4.486c-.025-.032-.079-.013-.105-.037.057-.006.108-.04.171-.012-.035.012-.038.037-.066.05zm1.443-23.964c.274.016.546.056.814.121a3.451 3.451 0 0 0-.814-.12zm3.329.708v.01h-.017l.017-.01zm-35.902-1.613c-.039-.022 0-.046-.032-.066.061.005.122.005.183 0-.041.042-.115.013-.151.061v.005zm-71.32 5.36c.188-.046.366-.134.522-.26.149.11.229.172.401.278a5.937 5.937 0 0 0-.924-.019zm-1.04-1.209c.063.022.156 0 .22.03-.071-.022-.146-.011-.22-.03zm-65.799 9.098c-.024-.03-.022-.077-.051-.103.064.006.117-.052.183-.033-.018.048-.1.09-.132.136zm-.69 8.217c.025.015.01.029.035.047-.025.01-.049 0-.072.012.006-.034.03-.024.036-.059zm60.85 8.776c-.099 0-.197-.019-.296-.025.084-.04.184-.077.251-.11-.005.055.07.075.049.14l-.004-.005zm27.042 2.483c-.226.116-.446-.012-.674.22-.251.247-.644-.139-1.086-.243-.016-.008-.012-.024-.034-.032.457.6 1.163.402 1.797.057l-.003-.002zm15.819-.796a1.701 1.701 0 0 1-.303.175h-.005c.098-.052.192-.11.284-.174h.024v-.001zm4.174 2.151c.035-.006.051-.006.086-.014l-.025.014h-.063.002zm20.451-3.317a.785.785 0 0 1-.321-.102c.038.045.146.01.197.038.051.027.063.046.119.064h.005zm-.328-.174c-.059 0-.117.01-.176.012h-.033c.01-.042.085-.026.116-.057.037.015.052.036.093.05v-.005zm40.306.116c0 .067.066.08.069.14-.077-.015-.119-.083-.197-.096.044 0 .085-.048.131-.044h-.003zm2.878-5.398c-.691.266-.947.139-1.03-.146.198.255.65.145 1.03.146zm11.324-25.366a8.247 8.247 0 0 1 1.927-.104c-.004.024-.061.038-.062.066a4.378 4.378 0 0 0-1.865.038zm-1.764-2.91c-.005.024.021.038.014.065-.129-.028-.132.05-.251.032.077-.033.168-.062.237-.098zm-46.752 1.405c-.37-.029-.729-.022-1.103-.034.381 0 .739.01 1.103.034zm-80.039 6.86c.158-.12.118-.182.236-.291a.912.912 0 0 0 .246.136c-.198.062-.23.072-.482.154zm-49.454.168c.106-.055.075-.159.256-.176.22.069.432.165.633.288-.297-.058-.593-.079-.89-.11v-.003zM17.457 49.814v-.05c.065.012.099-.027.153-.027-.067.02-.078.061-.15.077h-.003zm78.695-3.553c-.16.016-.26.047-.432.06.087-.062.225-.044.315-.104.026.032.085.018.117.044zm44.712.139a.303.303 0 0 1-.119-.042c.026-.017.052 0 .079-.014.02.018.014.04.04.056zm2.034-2.282h.109l-.014.022a.261.261 0 0 1-.099-.02l.004-.002zm10.775-.602h.024a.075.075 0 0 1-.027.023v-.022l.003-.001zm6.934 2.678s.031.016.033.03a.397.397 0 0 1-.058-.02c.009 0 .017-.009.025-.01zm7.361-1.02h.033c-.016.005-.016.023-.033.033v-.034zm19.526.976c-.11.039-.223.06-.338.062.121-.009.218-.054.338-.062zm16.175-3.066.268.201a.866.866 0 0 0-.319-.147c.035-.014.013-.038.051-.054zM183.266 23.32c-.223-.092-.426-.167-.631-.271.169-.016.205-.096.349-.128-.015.12.214.271.282.399zm2.936-1.728s-.009.018 0 .029h-.055c.027-.007.032-.023.059-.027l-.004-.002zm16.479-6.451c.031-.012.019-.03.051-.044.099.082.281.05.395.102-.162 0-.283-.06-.447-.058h.001zm-78.987-5.21c.06 0 .12.006.18.007-.06 0-.117 0-.18-.006zm-40.138-.453a.505.505 0 0 0-.011-.066c.123-.03.087.01.125.022-.035.022-.079.016-.114.044zM58.499 47.134c.026-.015.045-.035.067-.05.113.037.246-.012.357.014-.138.019-.28.033-.424.036zm63.836 2.921.036.03h-.012c0-.011-.027-.022-.024-.033v.003zm19.498-3.88c.364.026.722-.014 1.086.026a.13.13 0 0 0-.023.024 3.11 3.11 0 0 0-1.062-.05h-.001zm9.048.397c-.037.037-.066.058-.099.092-.013-.015-.008-.04-.022-.053.058 0 .058-.041.118-.04h.003zm22.093-2.016c-.236-.146-.403-.299.131-.508.079.016.159.035.24.05-.159.113-.287.27-.371.458zm11.649 2.606a.15.15 0 0 1 .04.015c-.013 0-.01 0-.02.007.047.038.056.079.098.118-.088-.034-.104-.086-.213-.11h.111l-.016-.03zm12.113-2.386c.356-.11.912-.134.8-.44h.036a2.253 2.253 0 0 1-.827.44h-.009zm16.61-4.569c.074.037.065.103.147.135-.085.014-.098-.024-.191 0a.63.63 0 0 1 .044-.131v-.004zM161.927 3.29l-.01-.005h.009l.001.005zM8.611 49.116c.098.04.174.067.274.11-.197-.009-.204.035-.372.034.046-.046.112-.092.099-.144H8.61zm24.053-1.133c-.405.167-.796.275-1.137-.128l-.014-.026c.378.097.764.149 1.151.154zm30.604 1.934c.049.012.018.035.06.05-.042.007-.1 0-.14.013.013-.025.067-.038.08-.063zm21.273-2.606c-.009.008 0 .012-.009.021l-.016-.02h.025zm36.454 3.807c.79-.206 1.092-.125 1.244.045a4.902 4.902 0 0 0-.748.14c-.371.01-.741-.007-1.113.016.198-.071.395-.146.617-.2zm52.494-1.366h.042-.042zm39.503-15.95c0-.02-.034-.03-.029-.048.081 0 .12.045.198.047-.071.017-.099-.02-.171 0l.002.001zm-11.869-1.056c.144-.065.121-.096.233-.154.01.03.072.053.099.08-.142.013-.171.064-.332.074zm8.293-23.561c0-.009-.016-.017-.016-.017.032 0 .057.023.088.022-.024.007-.051-.006-.075 0l.003-.005zM64.036 6.983a.092.092 0 0 1-.025-.023.226.226 0 0 1 .086-.015c-.024.012-.04.027-.062.038zm-21.904.879c-.016.006-.03.017-.045.022l.007-.021.038-.001zM15.938 37.159l.064.019c-.026.007-.071 0-.094.01.022-.007.007-.022.03-.029zm15.561 11.185c.752.21 1.536.24 2.299.09l-.306.219a2.793 2.793 0 0 0-1.961-.299c-.016 0-.017-.01-.032-.01zm118.745 2.887c.139-.012.277-.033.414-.061.031.013.047.03.078.041l-.493.02h.001zm17.284-.446a.336.336 0 0 0 .071-.041v.038h-.073l.002.004zm.134-.332c1.352.037 2.733-.077 4.088-.067a9.817 9.817 0 0 0-4.085.066h-.003zm4.507.263a3.681 3.681 0 0 0 1.032-.22c.181.037.381-.01.56.043-.527.09-1.059.15-1.592.178zm33.513-2.59a3.67 3.67 0 0 0 1.911-.548.015.015 0 0 0 0 .013s.024 0 .03.007c-.633.234-1.283.41-1.942.529h.001zm15.41-15.457c-.118-.007-.198 0-.308 0 .123-.008.19-.008.308 0zM127.865 4.267c.027.042.099.022.135.057-.12-.037-.263 0-.379-.045.08 0 .163-.01.244-.012zM36.584 7.909a.423.423 0 0 0-.283-.178c.099 0 .198-.005.296-.01l-.012.188h-.001zM13.64 17.596h-.11c.04-.01.073-.026.108-.039v.035l.003.004zm-.875-.341a.552.552 0 0 0 .122.226.48.48 0 0 0 .203.137l-.138.008-.187-.371zm-1.34 13.889c-.066.026-.05.057-.122.084-.003-.005-.004-.01-.004-.016s.001-.012.004-.017c.057-.022.059-.044.12-.051"/></svg>
