<svg xmlns="http://www.w3.org/2000/svg" width="188" height="48" fill="none" viewBox="0 0 188 48">
    <path fill="#DBEEFE" d="M.096 36.48c.323 1.208-.408 2.488.589 3.65-.743.444-.408.948-.459 1.432.003.563.035 1.126.096 1.685.183 1.21 1.107 2.036 3.893 1.82 3.504-.13 7.01-.258 10.517-.386l3.3-.111c.37-.01.739-.02 1.11-.033 2.036-.076 4.074-.031 6.106.135.74-.039 1.476-.08 2.216-.115.576.035 1.151.066 1.728.101l4.31-.032.643.254c.955.857 2.136.11 3.223.027.385.053.769.102 1.152.158.62.346 1.506.13 2.25.218h.044c.194-.009.388.01.578.056.182.007.361-.028.544-.027.933.055 1.877.06 2.82.074.338.003.676.006 1.012.005.4.04.802 0 1.189-.123.142.034.314-.04.448.022-.544.033-1.091.068-1.637.1.852.426 1.914.147 2.893.147l1.002.022c.834.4 1.869.128 2.818.14l-.294-.11c.112.029.19.078.296.11 1.087-.047 2.174-.093 3.262-.137.748.056 1.495.114 2.243.173.175.038.354.034.527-.012l2.27-.072c1.31-.016 2.595-.196 3.876-.244-.137.039-.277.062-.417.07-1.152-.174-2.322-.117-3.46.17.552.197 1.136.24 1.705.124 1.078.025 2.157.05 3.236.078.827.415 1.871.137 2.82.154.737.011 1.47-.1 2.181-.329 3.85.36 7.72.394 11.576.103 2.971.023 5.943.048 8.915.075 2.232.205 4.526-.268 6.749-.013l1.59-.167 4.942-.09 2.235.021c2.926.416 5.925-.082 8.883-.07l9.894-.368c.195-.006.394-.015.591-.022l4.448-.067c1.815.42 3.736.023 5.603.028.294-.01.586-.023.878-.035l4.675-.157c-.227-.077-.451-.153-.677-.233.066-.026.141-.005.207-.028.144.116.302.204.47.26.472-.017.942-.038 1.414-.056 3.537-.195 7.125.078 10.619-.581l2.764-.161 3.863-.107c.74-.15 1.487-.241 2.237-.27.007-.005.014-.009.022-.011.175-.055.382.016.532-.072 2.245-.032 4.485-.294 6.694-.781 2.412.006 4.81-.47 7.09-1.409l.085.01c.857-.085 2.017.104 2.145-.65.001-.095.002-.18.01-.27 2.065-.04 4.118-.398 6.106-1.065l-2.82.096c-.18-.079-.36-.16-.539-.237.384.013.764-.101 1.097-.33 4.896-.892 4.895-.892 4.358-3.411-.015-.14-.013-.281.004-.42.255-.608.328-1.3.209-1.962-.12-.662-.425-1.257-.867-1.688.852-.808.546-1.48-.479-2.164-.854-.573-1.544-.165-2.331.012l-3.318.11c-3.155-.363-6.31-.726-9.465-1.087-.17-.002-.337-.013-.507-.018-2.742-.599-5.547-.702-8.318-.306-.492-.71-2.254-.163-2.913-.708l1.034-1.172c-.132-1.413 2.142-1.655 3.972-2.11.161-.01.321-.033.479-.07.564.023 1.127-.077 1.661-.294.603-.446 1.596-.03 2.264-.326.799-.425 1.206-.907.973-1.483-.036-.385 1.993-.61.45-1.112l.173-.868c.779-.262.893-.7.897-1.074.006-.659.8-.721 1.726-.762 1.083.01 2.53.081 2.448-.69-.073-.709-1.535-.319-2.428-.341-.152-.252-.562-.3-1.009-.322-.071-.18-.142-.355-.211-.535.07-.093.138-.178.202-.268l3.241-.438c.551.067 1.057.386 1.676.042.1-.058.081-.165.12-.252-.601-.006-1.203-.018-1.805-.028-1.089-.067-2.181-.132-3.27-.202l.018-.542c.765-.575 1.641-.91 2.545-.976.888-.02 1.777-.025 2.663-.075.447-.024 1.236.02.925-.408-.387-.1-.783-.146-1.179-.136-.648-.336-1.821-.281-2.274-.76.642-.312.655-.6-.033-.861.145-.476.29-.952.437-1.427.498-.354.8-.73.541-1.156l-.067-2.253c-.236-.272-.393-.543.111-.807.813-.608 1.879-1.226-.011-1.755.01-.293-.056-.582-.19-.829-.133-.247-.328-.439-.557-.55.182-.436.825-1.039-.994-.74-1.813.513-3.658.85-5.517 1.01l-2.844-.18c-1.297.013-2.594.023-3.892.032-4.993-.31-10.012.222-15.018.314-.86.05-1.721.103-2.581.157-1.691.052-3.382.104-5.072.159l-.99-.024-24.575.818c-.706-.055-1.415.046-2.091.295l-.593.006c-2.785-.36-5.617.07-8.425.105.104.07.202.141.295.216l-.304.013c.038-.077.186-.157.008-.229-1.619.145-3.222-.226-4.848.1-1.476-.226-3.062.198-4.533-.07l-14.346.612c-.014.048-.021.097-.023.148-.058.006-.115.012-.174.016.067-.053.18-.092.197-.164-8.087-.016-16.167.478-24.248.779-.056.115.142.13.258.179l-.302.011c-.004-.066.011-.133.044-.187-3.157.058-6.314.116-9.469.176-1.648-.088-3.3-.03-4.941.173l-7.545.335c-.169.076.013.136.019.2-.125.005-.25.01-.378.012.125-.056.244-.127.357-.212-5.3.18-10.6.36-15.901.536-.727.037-1.453.094-2.176.105-2.306.034-4.008.358-3.758 1.81.06.347-.227.72-.355 1.08-.008.093-.014.196-.023.295.34.082.679.164 1.017.25v.045c-.303-.229-.661-.332-1.02-.293.014 1.196.028 2.393.04 3.591.058.498-.35 1.043.418 1.469.107.209.21.417.313.626-.187.657-.923 1.278-.699 1.963-.782.396.312.729.023 1.105-1.093.72-.044 1.518-.567 2.258l.62.006s-.009.014 0 .021c-.203-.059-.413-.067-.617-.024-.156.018-.32.032-.474.042-.957.461-.42 1.01-.475 1.523 1.013.698-.293 1.458-.021 2.176.336 1.669-.52 3.41.589 5.034.246.286.494.57.744.854-.3.45.269.756.6 1.1l-.132.55c-.165.023-.327.052-.48.088-1.5-.061-3 .172-4.438.69-.578-.09-1.166.013-1.698.297-.46.532-1.061.177-1.618.11-3.06.39-1.801 1.649-2.218 2.572l.008.005zM117.447 4.522h.018l-.005.005h-.013v-.005zm53.259 29.234c.053.006.107.007.16.001-.007.008-.014.013-.022.017l-.135.006-.003-.024zM25.374 40.713c-.073.083-.035.12-.064.181-.026-.072.041-.114.064-.18zM80.388 6.786c-.008.022.048.031.044.053-.058-.024-.118-.027-.176-.05.05-.005.08 0 .132 0v-.003zM47.355 43.365l-.007-.007.017-.007-.01.014zM14.929 29.211h-.005.006zm3.231-8.187c-.089-.008-.175-.022-.275-.026.147-.023.308-.069.44-.076-.054.037-.107.065-.161.102h-.004zm16.417-5.486c-.064-.018-.142.008-.208-.008.034-.035.021-.07.046-.106.054.038.11.076.159.114h.003zm48.612-4.086c-.008.03.067.033.047.069-.073-.014-.143.026-.218.015.058-.024.115-.052.17-.084zm75.562 25.394c-.027.008-.029.01-.056.02l.022-.026.034.006zM37.116 15.773v-.005c.009-.024-.012-.055.006-.078.003.027.003.055 0 .083h-.005zm73.659-2.51c.014.027.039.04.057.063-.033 0-.061.02-.093.017l.036-.08zm30.883 8.963c-.028-.139-.007-.251.231-.255-.13.02-.148.18-.231.255zm-2.335-4.89v.009c-.015 0-.017-.008-.032-.008h.034c.635.405.92.004 1.3-.183.001.539-.826.166-1.3.183h-.002zm-7.572 13.407c-.179-.038-.096-.016.019-.01v.004c-.006 0-.008 0-.016.006h-.003zm5.517-3.717c-.023-.023-.048-.043-.074-.06-.025-.044.033-.095.034-.144.06.06.029.148.119.196l-.025-.007c-.018.003-.036.008-.054.015zm-20 .439c-.493.214-.973.588-1.495.045.235.13.492.193.751.185.26-.008.514-.087.744-.23zm-10.887 3.419v.007h-.017c.004-.005.01-.005.017-.008zm17.241-1.794l-.004-.006v-.008c.01-.01.017 0 .034 0l-.03.013v.001zm15.552-.323c.072-.034.146-.06.223-.076-.074.024-.151.048-.223.076zm-33.498-6.818c.079.027.039.085.072.126-.036-.039-.028-.094-.072-.126zm-8.415 5.698c-.628-.028-1.258.042-1.871.207.612-.173 1.242-.243 1.871-.207zm7.746 5.087c-.048-.01-.094-.02-.144-.028.05.008.096.02.144.028zm6.859-3.447l.009-.008.011.007h-.02zm-33.748-.333c.06.063.26.09.157.207-.195 0-.39-.028-.58-.082.114-.028.283-.08.423-.125zm17.206 5.97c.026 0 .043.01.068.01-.023.013-.06-.001-.08.01l.012-.02zm18.154-2.495c-.012.04-.091.047-.096.094-.029-.01-.037-.025-.063-.036.049-.004.108-.047.16-.056l-.001-.002zm28.413-.798c-.008.022-.023.044-.031.063-.026-.011-.048-.02-.073-.028.042-.006.06-.03.104-.035zm-10.079-15.268c-.025.047-.013.086-.105.125l.105-.125zm-20.549.025c-.088-.063-.079-.048-.216-.13.248.045.295-.042.494-.027-.096.044-.189.096-.278.157zm-8.637.506c-.144-.01-.289 0-.43.032l.006-.02.449-.017-.025.005zm-2.072-.331c.024-.025.04-.06.045-.096.006-.037 0-.075-.015-.107.079.051.044.122-.03.203zM75.686 28.755c.063.017.126.04.187.065 0 .014.026.02.025.034-.038-.018-.075-.038-.11-.06-.034-.013-.092-.008-.129-.017.037-.008.037-.015.026-.022zm64.178 5.258c.16-.007.332-.03.487-.025-.158-.167.388.036.057.095-.035 0-.05.02-.08.018-.151-.044-.305-.073-.46-.088h-.004zm-26.163-18.616c.029-.037.066-.06.095-.093.029.065.121.095.159.155-.096-.012-.159-.08-.258-.06l.004-.002zm-21.51-.41s-.008-.006-.008-.012c.75.123 1.515.076 2.251-.14-.712.102-1.497.1-2.242.153zM32.093 27.51c.008-.01-.016-.013-.016-.013.044-.005.088-.004.132.001-.036.012-.08-.001-.116.015v-.003zm8.775-3.422c.027.011.05.024.08.035-.023.001-.045.003-.066.007 0-.017-.016-.025-.012-.042h-.002zm2.15 2.194c.058.02.185.01.16.067-.012-.051-.103-.048-.16-.067zm-4.44-.32c-.03 0-.057-.007-.09-.008.03 0 .06.003.09.009zm9.688-1.002h-.01c.004-.002.008-.002.013 0h-.003zm-7.92 5.034c.032.015.072.026.102.04-.04-.01-.06-.03-.1-.04h-.001zM63.95 28.61c-.145-.038-.292-.061-.44-.07.15-.003.297.02.44.07zm-.687-4.26c-.1.093-.169.226-.192.374-.153-.119-.04-.252.192-.375zm4.287-.335c.006 0 0-.006 0-.01l.022.01h-.025.003zm-10.126-3.039c.053.049.11.089.172.119h-.01c-.04-.034-.084-.063-.13-.087-.02-.033-.094-.03-.126-.057.03.008.06.02.092.027l.002-.002zm-24.689-1.718c-.007-.005-.013-.012-.018-.021.015-.007.03-.03.056-.03.013.02-.043.032-.038.05zm-1.793-1.317c-.005 0 0-.01 0-.01.468-.02.935.013 1.397.1-.45-.182-.934-.212-1.398-.09h.001zm32.248 15.27c.007.001.013.004.019.007-.024.022-.085.012-.114.032-.066-.025-.16-.016-.227-.037.11-.004.215.002.319-.002h.003zM33.296 18.834c-.422-.037-.846-.002-1.26.105.258-.205.563-.392.829-.592.023.045.107.02.123.074.132-.008.263-.041.387-.098-.164.093-.39.025-.53.183.026.155.29.221.45.326v.002zm-6.899 3.633c-.277.233-.976.332-2.671.5h-.006c.914.164 1.849-.01 2.677-.497v-.003zM78.206 34.97l.01-.008.004.012h-.014v-.004zm53.71 1.144c.294.16.609.26.932.298-.332.046-.666-.061-.932-.298zm10.138-.774c-.06.04-.001.085-.032.129-.025-.04-.048-.082-.068-.125h.099l.001-.004zm6.882-6.792l.014-.01-.014.01zM115.185 15.61c-.096-.352-.532-.28-.729-.498.218.112.453.169.691.169.119-.035.199.012.319-.01-.087.146-.19.157-.277.339h-.004zm-15.772.221l.007.054c-.064 0-.089-.05-.147-.056.05-.008.087.016.14.001v.001zm-13.26 1.36c.086.04.168.093.244.156-.174.056-.344.125-.51.208.052-.124.322-.253.266-.364zM66.46 22.54c.593-.006 1.185.073 1.761.236-.567-.218-1.166-.298-1.76-.236zm-10.638-2.098h-.01l.03-.021c.007 0-.013.009-.02.023v-.002zM36.867 16.6l-.013.01h-.019c.012 0 .021-.005.032-.005V16.6zm-14.789 7.414c-.291.044-.578.126-.855.245.261-.173.557-.257.855-.245zm-.656 5.319c.094.066.223.066.322.128-.099-.001-.238-.086-.33-.072 0 0 .003-.038.008-.056zm7.287 4.363c-.139-.002-.276.006-.414.004.136-.033.277-.035.413-.004zm33.139 2.75h-.06.06zm77.906.1h.005-.007.002zm16.491-3.682c-.019-.028-.063-.012-.084-.033.046-.005.087-.034.138-.01-.028.01-.031.032-.054.043zm1.369-20.526c.221.016.441.053.657.11-.215-.064-.435-.1-.657-.11zm2.685.634v.007h-.014l.014-.007zm-29.006-1.668c-.031-.02.001-.04-.025-.058.05.005.099.006.148.002-.033.036-.093.01-.123.051v.005zm-57.69 4.025c.152-.037.297-.111.424-.218.12.095.183.15.322.241-.248-.029-.498-.037-.747-.023zm-.83-1.044c.05.02.125.002.177.027-.057-.019-.118-.01-.177-.027zm-53.26 7.274c-.02-.027-.018-.066-.041-.09.052.007.095-.043.148-.026-.015.041-.08.076-.107.116zm-.628 7.036c.02.013.008.024.028.04-.02.009-.039 0-.058.01.005-.029.025-.02.03-.05zm49.11 8.005c-.08 0-.16-.018-.24-.024.068-.033.15-.065.205-.092-.006.047.056.064.038.12l-.004-.004zm21.836 2.343c-.184.098-.36-.014-.547.183-.205.21-.52-.124-.876-.217-.013-.007-.01-.02-.027-.027.365.517.937.353 1.452.063l-.002-.002zm12.793-.557c-.078.059-.161.108-.247.148h-.004c.079-.044.156-.093.231-.147h.02zm3.355 1.877c.028-.005.041-.005.07-.011l-.02.012h-.051.001zm16.558-2.68c-.091-.01-.179-.04-.259-.09.031.039.118.01.159.034.042.024.051.04.096.056h.004zm-.264-.151c-.048 0-.094.007-.142.009h-.027c.009-.037.07-.023.095-.049.029.013.042.032.074.044v-.004zm32.578.419c-.001.057.052.07.054.121-.062-.014-.096-.072-.158-.084.035 0 .069-.04.106-.037h-.002zm2.371-4.602c-.561.222-.766.11-.831-.134.158.22.524.13.831.134zm9.367-21.649c.516-.09 1.039-.114 1.559-.074-.004.02-.05.033-.051.056-.499-.109-1.011-.102-1.508.018zm-1.401-2.508c-.004.021.016.033.011.056-.105-.025-.108.041-.203.025.062-.027.136-.05.192-.081zm-37.8.832c-.299-.027-.59-.024-.892-.038.308.003.598.016.892.038zm-64.751 5.242c.128-.101.096-.154.193-.247.06.05.127.09.197.118-.16.052-.186.06-.39.13zm-39.974-.25c.086-.045.062-.134.208-.148.178.061.348.145.51.252-.24-.051-.479-.072-.718-.101v-.002zM14.137 42.83v-.042c.053.01.08-.023.124-.023-.054.018-.063.053-.122.065h-.002zm63.636-2.418c-.129.012-.21.038-.349.047.07-.052.182-.036.255-.086.021.028.069.016.094.039zm36.139.474c-.034-.005-.067-.017-.096-.036.021-.015.042 0 .064-.012.016.016.011.035.032.048zm1.663-1.94l.088.002-.012.018c-.027 0-.054-.006-.079-.017l.003-.002zm8.714-.43h.02c-.006.01-.014.016-.022.02v-.018l.002-.001zm5.582 2.351s.025.014.027.026c-.016-.005-.032-.01-.047-.018.007 0 .013-.007.02-.008zm5.959-.816h.026c-.013.004-.013.02-.027.029l.001-.03zm15.773.992c-.088.032-.181.05-.273.05.097-.006.177-.044.273-.05zm13.1-2.498c.06.047.152.123.215.174-.078-.062-.165-.106-.257-.129.028-.012.011-.033.042-.045zm-16.324-17.102c-.18-.08-.343-.146-.508-.237.137-.012.166-.08.283-.106-.013.102.171.234.225.343zm2.388-1.457s-.009.015-.001.025h-.044c.021-.006.025-.02.048-.023l-.003-.002zm13.373-5.397c.025-.01.016-.026.042-.037.079.07.226.044.319.09-.131 0-.229-.054-.361-.053zm-63.798-5.093c.048 0 .096.006.145.007-.049 0-.095 0-.145-.007zm-32.44-.708c-.001-.019-.004-.038-.008-.056.1-.025.07.009.102.02-.03.018-.064.012-.093.036zm-20.57 32.071c.021-.012.037-.03.055-.041.09.032.199-.01.289.014-.112.015-.228.026-.344.027zm51.572 3.012c.01.008.02.016.03.026h-.01c0-.01-.022-.02-.02-.03v.004zm15.793-3.17c.294.024.584-.007.877.03l-.019.02c-.281-.069-.571-.086-.858-.05zm7.309.411c-.029.032-.053.05-.08.079-.01-.014-.006-.035-.017-.046.047 0 .047-.035.095-.032h.002zm17.875-1.551c-.19-.128-.324-.26.11-.435.064.015.128.031.193.045-.129.095-.234.23-.303.39zm9.393 2.325c.012.003.023.008.033.014-.011 0-.008 0-.017.005.038.034.045.068.079.103-.071-.03-.084-.075-.172-.096h.09l-.013-.026zm9.811-1.948c.288-.091.739-.108.65-.37h.03c-.202.174-.43.3-.673.37h-.007zm13.464-3.783c.06.032.052.088.118.116-.069.012-.08-.02-.155-.001.009-.04.021-.077.037-.112v-.003zM131.3 4.107l-.008-.005h.007l.001.005zM6.992 42.16c.08.035.141.059.221.097-.16-.01-.165.028-.3.026.037-.04.091-.078.08-.123zm19.452-.78c-.33.14-.646.23-.918-.119l-.011-.022c.304.086.616.134.929.142zm24.72 1.901c.039.01.014.03.047.044-.033.005-.08-.001-.113.01.011-.022.055-.032.066-.054zm17.216-2.064c-.007.007 0 .01-.007.018l-.013-.018h.02zm29.433 3.553c.64-.17.883-.099 1.005.048-.204.022-.407.06-.606.115-.3.004-.599-.013-.9.004.16-.06.32-.122.5-.167zm42.44-.753h.035-.035zm32.064-13.355c0-.017-.027-.026-.023-.041.065 0 .096.04.159.042-.057.013-.08-.019-.138-.002l.002.001zm-9.584-1c.117-.054.098-.08.189-.13.008.027.058.046.079.07-.115.01-.138.053-.268.06zm6.901-20.125c0-.007-.013-.014-.013-.014.026 0 .047.02.071.02-.019.005-.041-.007-.06-.001l.002-.005zM52.146 6.494c-.007-.006-.014-.012-.02-.02.023-.01.046-.014.07-.013-.02.01-.032.024-.05.033zm-17.711.579c-.013.005-.025.014-.037.018l.006-.018h.03zM13.015 31.97l.052.017c-.02.006-.057 0-.076.008.018-.006.006-.02.025-.025zm12.484 9.71c.606.185 1.239.218 1.857.094l-.25.186c-.486-.294-1.042-.39-1.581-.271-.013 0-.014-.01-.026-.01zm95.953 3.419c.113-.01.225-.027.336-.05.025.012.037.026.063.036l-.399.014zm13.975-.245c.02-.01.039-.021.057-.035v.032h-.059l.002.003zm.111-.284c1.092.042 2.209-.044 3.305-.025-1.092-.238-2.212-.23-3.303.025h-.002zm3.64.262c.284-.018.565-.079.836-.18.146.032.308-.007.453.04-.427.073-.858.12-1.289.14zm27.11-1.953c.54.003 1.072-.153 1.548-.455v.01s.02.001.025.007c-.514.196-1.04.342-1.574.438h.001zm12.585-13.125c-.095-.006-.159-.001-.249-.002.1-.006.154-.005.249.003zM103.761 4.675c.021.036.079.02.108.05-.097-.032-.213-.003-.306-.042.065 0 .132-.007.198-.008zM29.95 7.069c-.027-.042-.061-.078-.1-.104-.04-.027-.082-.044-.127-.05.08 0 .16-.004.24-.007-.005.055-.009.105-.012.16h-.001zm-18.625 8.12l-.089-.002c.031-.008.058-.021.087-.032v.03l.002.003zm-.705-.3c.018.073.051.14.096.195.046.055.102.095.163.119l-.11.005-.15-.32zM9.42 26.78c-.054.022-.041.049-.1.072-.002-.004-.003-.01-.003-.014 0-.005.001-.01.003-.014.047-.019.049-.038.098-.044"/>
</svg>
