<svg width="66" height="29" fill="none" xmlns="http://www.w3.org/2000/svg"><path d="M.058 22.847c.11.756-.15 1.56.196 2.285-.261.28-.146.594-.165.898 0 .352.01.705.03 1.054.06.759.38 1.273 1.354 1.13l3.673-.27 1.153-.079.387-.024c.711-.053 1.423-.03 2.132.068l.774-.078c.2.02.402.038.603.059l1.505-.032.224.157c.331.534.746.064 1.125.008.135.032.268.062.402.096.215.215.526.077.785.13h.015a.411.411 0 0 1 .202.034c.064.003.126-.019.19-.019.326.032.655.033.985.039.118.001.236.002.353 0 .14.025.28-.002.415-.08.05.021.11-.025.157.013-.19.022-.381.046-.572.067.296.264.668.087 1.01.084l.35.011c.29.248.652.075.983.08l-.102-.068c.039.018.066.048.103.068.38-.033.76-.064 1.14-.095l.782.103c.06.023.123.02.184-.01l.793-.05c.457-.014.906-.13 1.354-.164a.43.43 0 0 1-.146.045 1.756 1.756 0 0 0-1.208.116.65.65 0 0 0 .594.073l1.13.04c.288.257.653.08.985.088.257.006.513-.066.762-.211 1.343.214 2.694.225 4.041.032l3.113.023c.78.122 1.581-.18 2.357-.026l.555-.11 1.726-.07.78.008c1.021.252 2.07-.067 3.103-.068l3.455-.258.207-.015 1.553-.054c.633.259 1.305.004 1.956.002.103-.007.205-.015.307-.024l1.633-.111a15.488 15.488 0 0 1-.236-.144c.023-.017.05-.004.072-.018.05.072.105.127.164.162l.494-.04c1.235-.132 2.487.03 3.71-.393l.965-.108 1.349-.078c.259-.096.52-.154.782-.175a.026.026 0 0 1 .007-.007c.062-.034.134.01.186-.046a6.85 6.85 0 0 0 2.34-.508c.842-.002 1.68-.307 2.48-.901l.029.006c.3-.056.704.06.75-.414.001-.058.002-.112.005-.169.721-.03 1.439-.26 2.135-.683l-.985.068-.188-.147c.135.007.267-.065.384-.21 1.712-.572 1.712-.572 1.531-2.148a2.078 2.078 0 0 1 .003-.263c.09-.382.118-.815.078-1.23-.04-.414-.145-.785-.298-1.054.3-.508.195-.929-.161-1.354-.297-.356-.539-.1-.814.014l-1.159.078c-1.1-.22-2.201-.438-3.302-.655-.06 0-.118-.007-.177-.01a4.648 4.648 0 0 0-2.904-.169c-.17-.444-.786-.096-1.015-.436l.364-.736c-.042-.885.753-1.043 1.393-1.333a.6.6 0 0 0 .168-.044.881.881 0 0 0 .58-.19c.212-.28.558-.022.792-.21.28-.268.423-.57.343-.931-.01-.24.698-.387.16-.698.022-.181.042-.362.063-.544.273-.166.314-.44.316-.675.005-.412.282-.454.605-.482.378.004.883.044.857-.438-.023-.444-.535-.196-.847-.208-.052-.157-.195-.185-.351-.198-.025-.112-.049-.222-.072-.335.024-.058.048-.112.07-.168l1.134-.284c.192.041.368.24.585.022.035-.036.029-.103.042-.157-.21-.003-.42-.009-.63-.013-.38-.04-.761-.077-1.14-.118l.007-.34c.268-.362.575-.574.89-.617.311-.016.622-.021.931-.055.156-.016.432.01.324-.258a.865.865 0 0 0-.411-.082c-.226-.209-.635-.17-.792-.47.225-.197.23-.377-.01-.539l.157-.895c.175-.223.282-.459.192-.725-.005-.471-.01-.943-.017-1.411-.082-.17-.136-.339.041-.505.285-.384.66-.774 0-1.1a1.706 1.706 0 0 0-.063-.518.733.733 0 0 0-.193-.344c.065-.273.29-.652-.345-.46a6.455 6.455 0 0 1-1.93.647l-.992-.104-1.359.03c-1.743-.18-3.496.166-5.245.238l-.901.105c-.591.037-1.181.075-1.772.114l-.345-.013-8.584.58a1.053 1.053 0 0 0-.73.19l-.208.005c-.971-.217-1.961.06-2.942.09.037.043.07.087.103.134l-.106.008c.013-.048.065-.098.003-.143-.566.096-1.125-.133-1.693.076-.515-.138-1.07.132-1.583-.031l-5.01.422a.718.718 0 0 0-.01.092l-.06.012c.024-.034.063-.059.07-.104-2.824.012-5.647.343-8.47.554-.02.072.05.082.09.111l-.105.008a.349.349 0 0 1 .016-.117l-3.307.136a5.502 5.502 0 0 0-1.726.122l-2.635.23c-.06.048.004.085.006.126a4.63 4.63 0 0 1-.132.008.731.731 0 0 0 .125-.134c-1.851.128-3.702.254-5.554.38-.254.025-.507.062-.76.07-.805.028-1.4.236-1.317 1.145.02.217-.081.451-.127.677L3.65 6.5c.119.05.237.1.355.153v.029c-.105-.143-.23-.206-.356-.18l.005 2.248c.018.311-.126.654.141.919l.108.39c-.067.413-.326.804-.25 1.232-.274.25.108.456.005.692-.383.454-.019.95-.204 1.416l.217.002s-.003.009 0 .013a.254.254 0 0 0-.216-.014 1.87 1.87 0 0 1-.165.028c-.336.292-.15.634-.17.955.352.435-.106.914-.014 1.363.113 1.045-.19 2.137.192 3.151l.258.533c-.106.283.092.473.206.688l-.047.344a1.218 1.218 0 0 0-.168.057c-.524-.034-1.048.116-1.551.444-.202-.055-.408.011-.594.19-.162.335-.371.114-.565.074-1.07.253-.634 1.037-.782 1.616l.003.004ZM41.12 2.514h.006l-.002.003h-.004v-.003Zm18.517 18.163a.144.144 0 0 0 .055 0 .035.035 0 0 1-.007.01l-.047.004-.001-.014ZM8.873 25.43c-.026.052-.013.074-.023.113-.01-.045.014-.072.023-.113ZM28.175 4.032c-.003.013.016.02.015.033-.02-.015-.041-.017-.062-.031.018-.003.028 0 .047 0v-.002ZM16.54 27.03l-.003-.004.006-.004-.003.008ZM5.257 18.255h-.002.002Zm1.15-5.137c-.03-.004-.06-.013-.095-.015.05-.015.107-.044.153-.049-.019.024-.037.04-.056.064h-.001Zm5.748-3.48c-.022-.011-.05.005-.073-.005.012-.022.008-.043.017-.066.018.024.038.047.055.071ZM29.14 6.946c-.003.02.023.021.016.043-.025-.008-.05.017-.076.01a.449.449 0 0 0 .06-.053Zm26.315 15.698c-.01.005-.01.007-.02.013a.165.165 0 0 0 .008-.017l.012.004ZM13.04 9.778v-.003c.003-.015-.004-.034.002-.049a.36.36 0 0 1 0 .052h-.002Zm25.726-1.772c.005.016.014.024.02.039-.011 0-.022.013-.033.01l.013-.05Zm10.76 5.528c-.01-.086-.002-.157.08-.16-.045.013-.051.114-.08.16Zm-.803-3.055v.005c-.005 0-.006-.005-.01-.005h.011c.22.252.321 0 .454-.118 0 .337-.288.106-.454.118Zm-2.68 8.416c-.063-.023-.034-.01.007-.006v.003c-.003 0-.003 0-.006.003h-.001Zm1.936-2.343a.274.274 0 0 0-.025-.037c-.01-.028.012-.06.012-.09.02.037.01.093.04.122L48 16.543a.066.066 0 0 0-.019.01Zm-6.984.33c-.173.135-.342.371-.523.032.082.08.172.12.262.114.091-.006.18-.056.26-.146Zm-3.811 2.17v.005h-.006c.002-.003.003-.003.006-.005Zm6.025-1.17a.01.01 0 0 1-.002-.004v-.004c.004-.006.007 0 .012 0a.096.096 0 0 0-.01.008Zm5.43-.244a.266.266 0 0 1 .08-.049c-.027.016-.054.03-.08.049Zm-11.677-4.179c.028.017.014.053.025.079-.013-.024-.01-.06-.025-.079ZM34.01 17.05c-.22-.015-.439.03-.654.136a1.17 1.17 0 0 1 .654-.136Zm2.691 3.165-.05-.017c.017.005.033.013.05.017Zm2.404-2.177.004-.005.004.004h-.008Zm-11.783-.117c.021.04.09.056.055.13a.437.437 0 0 1-.202-.05c.04-.018.098-.051.147-.08Zm5.992 3.692c.01 0 .015.006.024.006-.008.008-.021 0-.028.007l.004-.013Zm6.346-1.612c-.005.026-.032.03-.034.059-.01-.005-.013-.015-.022-.022.017-.003.038-.03.056-.035V20Zm9.923-.577-.011.04c-.009-.008-.017-.012-.025-.018.014-.004.02-.02.036-.022Zm-3.478-9.535c-.009.03-.005.055-.037.079l.037-.079Zm-7.175.072c-.03-.039-.027-.03-.075-.081.087.028.103-.027.173-.018a.693.693 0 0 0-.098.1Zm-3.017.34c-.05-.006-.1.001-.15.022l.002-.013.157-.012-.009.004Zm-.722-.201a.159.159 0 0 0 .016-.06.204.204 0 0 0-.006-.068c.028.033.015.077-.01.128Zm-8.717 7.704a.433.433 0 0 1 .065.04c0 .009.01.012.009.021a.347.347 0 0 1-.039-.037c-.011-.008-.032-.005-.045-.01.013-.005.013-.01.01-.014Zm22.395 3.118c.055-.005.116-.02.17-.017-.055-.105.135.021.02.059-.013 0-.018.013-.029.012a.529.529 0 0 0-.16-.054h-.001ZM39.783 9.334c.01-.023.023-.037.034-.058.01.04.041.06.054.096-.033-.006-.055-.05-.09-.036l.002-.002Zm-7.51-.197-.002-.008c.261.075.528.043.786-.094-.249.066-.523.067-.783.102Zm-21.019 8.005c.003-.005-.005-.008-.005-.008a.124.124 0 0 1 .046 0c-.013.008-.028 0-.04.01v-.002Zm3.074-2.167.027.022a.097.097 0 0 0-.023.005c0-.01-.005-.016-.004-.027Zm.745 1.369c.02.012.064.006.055.041-.004-.032-.036-.03-.055-.041Zm-1.55-.188c-.01 0-.02-.005-.031-.005.01 0 .02.002.031.005Zm3.386-.655h-.004.005-.001Zm-2.78 3.175c.011.009.025.016.036.025-.014-.006-.02-.02-.035-.026Zm8.246-.931a.488.488 0 0 0-.153-.044.268.268 0 0 1 .153.044Zm-.228-2.667a.574.574 0 0 0-.068.235c-.053-.074-.014-.157.068-.235Zm1.498-.22c.002 0 0-.005 0-.007l.008.006h-.01.002Zm-3.527-1.877c.018.03.038.056.06.074h-.004a.355.355 0 0 0-.045-.054c-.008-.02-.033-.018-.044-.035.01.005.02.012.032.017v-.002Zm-8.616-1.008a.036.036 0 0 1-.007-.014c.006-.004.01-.018.02-.019.004.013-.015.02-.013.033Zm-.623-.82c-.002 0 0-.006 0-.006a1.21 1.21 0 0 1 .488.058.458.458 0 0 0-.488-.052Zm11.219 9.475c.002 0 .004.002.006.005-.008.013-.03.007-.04.02-.023-.016-.055-.01-.08-.023.04-.002.076 0 .112-.002h.002Zm-10.4-8.923a.757.757 0 0 0-.44.069c.09-.129.198-.247.291-.373.008.028.038.013.043.046a.259.259 0 0 0 .135-.062c-.057.058-.136.017-.185.116.009.097.1.138.156.203v.001ZM9.28 14c-.098.147-.342.21-.934.32h-.002c.318.1.645-.01.936-.318v-.002Zm18.056 7.69.004-.005v.008h-.004v-.003Zm18.75.57a.663.663 0 0 0 .325.184c-.116.03-.232-.036-.324-.184Zm3.543-.512c-.021.025 0 .053-.012.08a1.218 1.218 0 0 1-.023-.078h.035v-.002Zm2.421-4.273.005-.006-.005.006ZM40.3 9.464c-.032-.22-.184-.174-.252-.31.075.07.157.105.24.104.042-.022.07.007.112-.007-.03.091-.067.099-.098.213h-.001Zm-5.507.181.002.034c-.022 0-.03-.032-.051-.035.018-.005.03.01.049 0v.001Zm-4.634.888c.03.025.059.058.085.097-.06.035-.12.08-.178.132.018-.078.113-.16.093-.23Zm-6.89 3.403c.207-.005.413.043.614.143a.797.797 0 0 0-.615-.143Zm-3.71-1.285h-.003a.094.094 0 0 1 .01-.013c.003 0-.004.006-.006.014Zm-6.607-2.354-.005.006h-.007c.005 0 .008-.003.012-.003v-.003ZM7.767 14.98a.878.878 0 0 0-.299.156c.092-.109.195-.163.3-.156Zm-.243 3.333c.032.042.078.041.112.08-.035-.001-.083-.054-.115-.045l.003-.035Zm2.532 2.713c-.048 0-.096.005-.144.003a.182.182 0 0 1 .144-.003Zm11.564 1.632h-.02.02Zm27.202-.15h.002-.002Zm5.769-2.351c-.007-.018-.023-.008-.03-.02.017-.004.031-.022.049-.007-.01.007-.011.02-.02.027Zm.534-12.858c.077.009.154.031.229.067a.564.564 0 0 0-.23-.067Zm.935.389v.005h-.005l.005-.005Zm-10.123-.966c-.01-.012 0-.024-.008-.036a.15.15 0 0 0 .051 0c-.012.024-.032.008-.043.033v.003ZM25.782 9.4a.364.364 0 0 0 .149-.137c.041.06.063.093.112.15a.863.863 0 0 0-.261-.013Zm-.287-.65c.018.011.044 0 .062.016-.02-.012-.041-.007-.062-.017Zm-18.617 4.7c-.007-.017-.006-.042-.014-.056.018.004.034-.027.052-.017-.005.026-.028.048-.038.073Zm-.238 4.408c.007.008.003.015.01.025-.007.006-.014 0-.02.007.001-.019.008-.013.01-.032Zm17.126 4.88c-.028-.001-.056-.011-.084-.015.024-.021.053-.04.072-.058-.002.03.02.04.013.075l-.001-.003Zm7.618 1.407c-.064.062-.126-.008-.191.116-.073.132-.181-.076-.306-.133-.004-.005-.003-.013-.009-.017.126.323.326.218.507.035l-.001-.001Zm4.468-.383a.556.556 0 0 1-.086.093h-.001a.923.923 0 0 0 .08-.093h.008Zm1.167 1.166.024-.008-.007.008h-.017Zm5.789-1.724a.16.16 0 0 1-.09-.056c.01.025.04.007.055.021.015.015.018.026.033.035h.002Zm-.092-.094c-.017 0-.033.005-.05.006h-.009c.003-.023.024-.014.033-.03.01.007.015.02.026.027v-.003Zm11.374.174c0 .036.018.044.019.076-.022-.009-.033-.046-.055-.053.012 0 .024-.025.037-.023Zm.84-2.889c-.196.14-.267.072-.289-.081.054.137.183.08.29.081Zm3.33-13.583c.181-.058.364-.075.545-.05-.002.012-.017.02-.018.034a.67.67 0 0 0-.526.016Zm-.482-1.567c-.001.013.006.02.004.035-.037-.015-.038.026-.071.016.022-.017.047-.032.067-.051Zm-13.2.624c-.105-.016-.207-.014-.312-.021.107 0 .208.008.311.021ZM21.952 9.33c.046-.064.035-.097.069-.156a.275.275 0 0 0 .068.074l-.137.082ZM7.996 9.28c.03-.029.022-.084.074-.093.061.037.12.09.177.156-.084-.031-.167-.044-.25-.061V9.28ZM4.943 26.785v-.026c.019.006.029-.015.044-.015-.02.012-.023.033-.043.041Zm22.227-1.688c-.045.008-.074.025-.122.03.025-.032.064-.022.09-.054.006.017.023.01.032.024Zm12.617.199a.064.064 0 0 1-.033-.023c.007-.01.015 0 .022-.008.006.01.004.022.011.03Zm.586-1.22.031.001a.085.085 0 0 0-.004.012.046.046 0 0 1-.028-.011l.001-.001Zm3.044-.292h.007a.038.038 0 0 1-.008.012v-.012h.001Zm1.943 1.456s.008.009.009.016a.09.09 0 0 1-.016-.01c.002 0 .004-.005.007-.006Zm2.083-.527h.009c-.005.003-.005.013-.01.018v-.018Zm5.505.578a.183.183 0 0 1-.096.033c.034-.005.062-.029.096-.033Zm4.58-1.6.075.108a.22.22 0 0 0-.09-.08c.01-.007.005-.02.016-.028Zm-5.653-10.666c-.062-.05-.12-.09-.177-.147.048-.008.059-.05.1-.067-.005.064.059.146.077.214Zm.838-.919s-.003.01 0 .016h-.016c.008-.004.01-.013.017-.015h-.001Zm4.684-3.417c.009-.006.006-.016.015-.023.028.044.079.027.11.056-.045 0-.079-.033-.125-.033ZM35.135 5.674c.016 0 .033.003.05.004-.017 0-.033 0-.05-.004ZM23.81 5.32a.508.508 0 0 0-.003-.035c.035-.016.024.005.035.012-.01.012-.022.008-.032.023Zm-7.27 20.142c.007-.008.013-.02.019-.027.031.02.07-.006.1.008a.586.586 0 0 1-.12.019Zm17.999 1.745.01.016h-.004c0-.006-.007-.012-.006-.018v.002Zm5.523-2.028c.102.014.204-.006.306.016a.11.11 0 0 0-.007.013.472.472 0 0 0-.3-.03Zm2.55.238c-.01.02-.018.03-.027.049-.004-.009-.002-.022-.006-.03.016.001.016-.02.033-.02Zm6.246-1.021c-.066-.08-.112-.162.04-.273.022.01.045.02.067.028a.683.683 0 0 0-.107.245Zm3.274 1.43a.036.036 0 0 1 .011.01c-.003-.001-.002 0-.005.003.013.02.015.042.027.063-.025-.018-.03-.046-.06-.06l.031.001-.004-.016Zm3.431-1.246c.1-.058.258-.07.228-.234h.01a.66.66 0 0 1-.235.234h-.003Zm4.712-2.406c.02.02.017.055.04.072-.024.008-.027-.012-.054 0a.54.54 0 0 1 .014-.07v-.002ZM45.959 2.215l-.003-.003h.003v.003ZM2.45 26.386c.028.021.05.036.077.06-.055-.006-.058.018-.105.017.013-.025.032-.05.029-.077Zm6.794-.541c-.115.088-.226.145-.32-.073a.195.195 0 0 1-.004-.013.789.789 0 0 0 .324.086Zm8.627 1.123c.013.006.005.018.016.027-.012.003-.028 0-.04.006.005-.013.02-.02.024-.034Zm6.017-1.34c-.003.004 0 .006-.003.011l-.004-.011h.007Zm10.267 2.145c.224-.109.309-.065.351.027a.82.82 0 0 0-.212.073c-.105.004-.209-.006-.314.006.056-.038.112-.078.175-.106Zm14.821-.588a.04.04 0 0 0 .012 0h-.012Zm11.232-8.45c0-.011-.009-.017-.007-.027.022 0 .033.025.055.026-.02.009-.028-.012-.048 0Zm-3.343-.6c.04-.035.034-.052.066-.083.003.017.02.029.028.043-.04.007-.049.034-.094.04ZM59.329 5.51c0-.004-.004-.008-.004-.008.009 0 .016.012.025.012-.007.003-.015-.004-.022 0l.001-.004ZM18.314 3.926a.06.06 0 0 1-.007-.013.036.036 0 0 1 .024-.007c-.006.006-.01.014-.017.02Zm-6.186.41c-.004.004-.008.01-.012.012l.002-.01.01-.001ZM4.581 19.989l.018.01c-.007.005-.02 0-.026.006.006-.004.002-.012.008-.016Zm4.333 6.047a.765.765 0 0 0 .648.054l-.088.117c-.169-.183-.363-.241-.551-.165-.005 0-.005-.006-.01-.006Zm33.495 1.88a.574.574 0 0 0 .117-.032c.009.007.013.016.022.022l-.14.01Zm4.88-.192a.138.138 0 0 0 .02-.022v.02h-.02v.002Zm.04-.178c.38.024.77-.034 1.153-.025a1.5 1.5 0 0 0-1.153.025Zm1.27.154c.099-.012.197-.05.292-.115.051.02.108-.005.158.024-.15.047-.3.077-.45.092v-.001Zm9.471-1.297c.189.001.375-.099.542-.29a.02.02 0 0 0 0 .008s.007 0 .008.004c-.18.124-.364.217-.55.278Zm4.43-8.254c-.033-.003-.055 0-.087 0a.308.308 0 0 1 .087 0ZM36.342 2.645c.007.023.027.012.037.031-.033-.02-.074 0-.106-.025.022 0 .046-.005.069-.006Zm-25.78 1.702a.22.22 0 0 0-.034-.065.087.087 0 0 0-.045-.032c.028 0 .056-.002.084-.004l-.005.1ZM4.037 9.482h-.031c.01-.005.02-.014.03-.02V9.481Zm-.246-.185a.437.437 0 0 0 .034.122c.015.034.035.06.056.074l-.039.003-.05-.2Zm-.451 7.45c-.019.014-.015.03-.035.046a.037.037 0 0 1 0-.018c.016-.012.017-.024.034-.028" fill="#118AF7"/></svg>
