<svg viewBox="0 0 16 15" xmlns="http://www.w3.org/2000/svg" xml:space="preserve" fill-rule="evenodd" clip-rule="evenodd" stroke-linejoin="round" stroke-miterlimit="2"><path d="M8 14.8c-1 0-1.9-.2-2.8-.6-1.3-.6-2.5-1.5-3.3-2.7C1.1 10.4.7 9 .7 7.5c0-1.9.8-3.8 2.1-5.2C4.1.9 6.1.2 8 .2c1.5 0 2.9.4 4.1 1.2 1.2.8 2.1 1.9 2.7 3.3.6 1.3.7 2.8.4 4.2-.3 1.4-1 2.7-2 3.8-1 1-2.3 1.7-3.8 2-.4.1-.9.1-1.4.1zM8 1.5c-1.6 0-3.1.6-4.2 1.8C2.7 4.5 2 5.9 2 7.5c0 1.2.3 2.3 1 3.3s1.6 1.8 2.7 2.2c1.1.5 2.3.6 3.5.3 1.2-.2 2.2-.8 3.1-1.6.8-.8 1.4-1.9 1.6-3.1.2-1.2.1-2.4-.3-3.5-.5-1.1-1.2-2-2.2-2.7-1.1-.6-2.2-.9-3.4-.9z" fill="#050505" fill-rule="nonzero"/><path d="M7.9 11c-.6 0-1.2-.1-1.8-.4-.6-.3-1-.7-1.4-1.2-.2-.3-.2-.7.1-.9.3-.2.7-.2.9.1.3.3.6.6 1 .8.7.4 1.7.4 2.4 0 .4-.2.7-.5.9-.8.2-.3.6-.4.9-.1.3.2.4.6.1.9-.4.5-.9.9-1.4 1.2-.5.3-1.1.4-1.7.4zM5.9 6.3c-.4 0-.7-.3-.7-.6s.3-.7.7-.7c.4 0 .7.3.7.7 0 .4-.3.6-.7.6zM9.9 6.3c-.4 0-.7-.3-.7-.6s.3-.7.7-.7c.4 0 .7.3.7.7 0 .4-.3.6-.7.6z" fill="#050505" fill-rule="nonzero"/></svg>
