<svg id="Layer_1" data-name="Layer 1" xmlns="http://www.w3.org/2000/svg" viewBox="0 0 739 400"><defs><style>.cls-1{fill:#d2cff3}.cls-2{fill:#bbbbea}.cls-3{fill:#a4a5e6}.cls-4{fill:#726bc7}.cls-5{fill:#6462b4}.cls-6{fill:#595a9d}.cls-7{fill:#e98184}.cls-8{fill:#fff}.cls-9{fill:#ff9399}.cls-10{fill:#f28a8f}.cls-11{fill:#fbfef8}.cls-12{fill:#e7837f}.cls-13{fill:#fc9193}.cls-14{fill:#c97d8c}.cls-15{fill:#c8c7f2}</style></defs><path class="cls-1" d="M0 0H739V400H0z"/><path class="cls-2" d="M640.56 387.12c7.67-2.79 67.45-25.54 77.39-75.75 9.49-47.94-32.39-90.88-48.19-107.08-36.39-37.31-60.93-30.74-93.94-74.74-10-13.32-15.92-24.83-33.24-43.18C523 65.63 504.42 53.11 495.2 46.73a190.35 190.35 0 0 0-31.12-17.18C396.86-.59 335.68 4.29 335.68 4.29 270 10.53 226.45 44.64 213.19 55.3 177.57 84 186.48 94.24 141 145.2 81.36 212 49.43 212.94 33.9 260.86c-3.89 12-15.73 48.52 4 82.32 21.07 36 62.84 42.93 69.67 43.94z"/><path class="cls-3" d="M128.85 132.07a18.06 18.06 0 0 0-5-10.1c-2.32-2.25-7.4-5.83-10.11-4-2 1.35-2.17 5.41-1 8.08 1.9 4.48 8.37 6.95 16.11 6.02zM141 145.2c-.66-.66-5-5.18-4-11.11.54-3.46 3-8.15 6.06-8.08 2.86.06 5.24 4.21 5.55 7.58.39 4.41-2.61 8.97-7.61 11.61zm0 0c-1.47-.88-7.48-4.28-13.64-2-2.48.92-6.31 3.24-6.06 5.56.28 2.56 5.45 4.48 9.6 4 6.26-.66 9.62-6.76 10.1-7.56zm13.6 16.67c1.37-1.47-3.7-5.8-3-12.12.44-4.14 3.3-8.69 6.06-8.59 2.44.09 4.74 3.76 5.06 7.07.37 4-2.44 7.25-8.09 13.64-6.53 7.4-9.17 7.94-10.1 8.08-3.55.54-8.35-.74-9.09-3.53-.65-2.49 2-5.9 5.05-7.08 5.94-2.27 12.51 4.26 14.11 2.53zm15.91 20.73c1.85-2-5-7.83-4.09-16.38.59-5.59 4.45-11.73 8.19-11.6 3.28.12 6.39 5.08 6.82 9.56.51 5.36-3.29 9.79-10.92 18.42-8.83 10-12.39 10.73-13.65 10.92-4.8.74-11.28-1-12.28-4.77-.89-3.37 2.66-8 6.82-9.56 8.06-3.07 16.94 5.81 19.11 3.41zm14.9 23.21c-1.32-1.76-6.61-9.16-4.8-18.24 1.07-5.36 4.94-13 9.7-12.83 3.89.13 7.58 5.61 8.08 10.56.61 5.93-3.89 10.83-12.93 20.38-10.46 11-14.68 11.86-16.17 12.07-5.68.81-13.36-1.1-14.55-5.28-1-3.66 3.81-8.48 8.09-10.57 10.06-4.9 21.62 3.21 22.58 3.91zm17.09 28.73c-1.63-2.43-8-12.46-4.88-23.93 1.81-6.75 7.36-15.73 12.86-15 4.64.58 8.23 7.87 8.47 14 .31 7.62-5.27 13.4-16.45 25-2.21 2.29-11.24 11.44-20.85 12.53-.32 0-.57.06-.66.06-6.83.44-15.74-2.72-16.7-8-.85-4.76 5.35-10.25 10.71-12.37 13-5.27 26.79 7.05 27.5 7.71zm19.66 21.98c-1.73-2.22-9.34-12.46-6.84-25.08 1.48-7.45 6.94-18 13.68-17.76 5.54.22 10.74 7.73 11.4 14.62.46 4.75-5.73 12.57-18.12 28-4.38 5.45-12.12 14.89-22.13 16.78l-.79.13c-8 1.13-18.85-1.52-20.52-7.31-1.44-5 5.43-11.72 11.4-14.63 14.14-6.87 30.34 4.13 31.92 5.25z"/><path class="cls-3" d="M125.36 129.37q12.64 14 24.71 28.5c7.81 9.4 15.52 18.93 22.39 29 6.07 8.94 11.22 18.42 16.46 27.86 5 9.07 10.24 18.09 16.62 26.31A90.2 90.2 0 0 0 216 252.53c3.72 3.38 8.17 6.24 11.1 10.39a15.11 15.11 0 0 1 1.78 3.25c.36.9 1.82.51 1.47-.4-1.9-4.82-5.92-8.12-9.8-11.33a88.06 88.06 0 0 1-11.07-10.86c-6.78-8-12.2-17-17.32-26.07-5.26-9.32-10.23-18.82-16.07-27.81a326 326 0 0 0-21.92-29.2q-12-14.64-24.65-28.74l-3.12-3.47c-.66-.72-1.73.35-1.07 1.08zM723.3 379.12c.19-11.54-190.71-24.21-356.87-24.83-161.61-.61-351.58 10-351.73 21.49-.14 11.68 194.5 24.09 362.66 24.47 157.03.35 345.74-9.66 345.94-21.13z"/><path class="cls-4" d="M241.46 342.54c-2.48-30.79-14.3-49.39-21-58.15-23.85-31.14-62-40.83-93.17-48.72A267.62 267.62 0 0 0 95 229.58a339.19 339.19 0 0 0 18.88 51.15c13.89 30 21.43 46.75 36.53 57.86 32.03 23.55 78.89 8.3 91.05 3.95z"/><path class="cls-5" d="M95.62 229.58a338.94 338.94 0 0 0 18.87 51.15c13.9 30 21.44 46.75 36.54 57.86 32 23.55 78.88 8.3 91 4z"/><path class="cls-6" transform="rotate(-52.35 159.263 277.395)" d="M158.5 196.63H160.01V358.14H158.5z"/><path class="cls-6" transform="rotate(-24.03 185.778 282.9)" d="M184.99 258.19H186.51000000000002V307.53H184.99z"/><path class="cls-6" transform="rotate(-3.53 141.8 284.208)" d="M117.19 283.63H166.61V285.15H117.19z"/><path class="cls-4" d="M224.36 364.92c-9.3-17-20.84-24.69-26.93-28-21.65-11.76-46-7.55-65.92-4.11a166.66 166.66 0 0 0-20.07 4.77 213.23 213.23 0 0 0 23.91 24.51c15.65 13.66 24.26 21.34 35.77 23.85 24.4 5.32 47.38-15.42 53.24-21.02z"/><path class="cls-5" d="M111.79 337.42a213.17 213.17 0 0 0 23.91 24.52c15.65 13.66 24.26 21.33 35.77 23.84 24.39 5.32 47.38-15.42 53.24-21z"/><path class="cls-6" transform="rotate(-48.07 177.12 344.93)" d="M176.37 329.43H177.89000000000001V360.43H176.37z"/><path class="cls-6" transform="rotate(-27.57 152.333 356.972)" d="M136.84 356.27H167.88V357.78999999999996H136.84z"/><path class="cls-4" d="M510.93 343.76c2.48-30.79 14.3-49.4 21-58.15 23.85-31.14 62-40.83 93.17-48.72a267.35 267.35 0 0 1 32.28-6.09 340.7 340.7 0 0 1-18.87 51.2c-13.9 30-21.44 46.75-36.54 57.85-31.97 23.51-78.88 8.25-91.04 3.91z"/><path class="cls-5" d="M656.78 230.8A340.7 340.7 0 0 1 637.9 282c-13.9 30-21.44 46.7-36.54 57.8-32 23.56-78.88 8.3-91 4z"/><path class="cls-6" transform="rotate(-37.65 593.065 278.588)" d="M512.38 277.85H673.89V279.36H512.38z"/><path class="cls-6" transform="rotate(-65.95 566.697 284.08)" d="M541.98 283.33H591.32V284.84999999999997H541.98z"/><path class="cls-6" transform="rotate(-86.47 610.48 285.614)" d="M609.74 260.9H611.26V310.32H609.74z"/><path class="cls-4" d="M528 366.13c9.3-17 20.84-24.68 26.93-28 21.66-11.76 46-7.55 65.92-4.11a168.73 168.73 0 0 1 20.15 4.77 213.45 213.45 0 0 1-24 24.52c-15.65 13.66-24.26 21.34-35.76 23.84-24.36 5.33-47.34-15.42-53.24-21.02z"/><path class="cls-5" d="M640.61 338.64a214.27 214.27 0 0 1-23.92 24.52C601 376.82 592.43 384.49 580.93 387c-24.4 5.32-47.38-15.42-53.25-21z"/><path class="cls-6" transform="rotate(-41.91 575.306 346.151)" d="M559.77 345.39H590.77V346.90999999999997H559.77z"/><path class="cls-6" transform="rotate(-62.43 600.075 358.241)" d="M599.28 342.72H600.8V373.77000000000004H599.28z"/><path class="cls-7" d="M377 88.91l179.6 92.56c-1.6 10.53-15.77 91.29-90.73 132.76-11.3 6.25-63 33.2-122.4 17.66-59.72-15.64-94.34-65.67-121.8-105.35a353.49 353.49 0 0 1-25.57-43.24z"/><path class="cls-8" d="M521.89 107.79q-.6 71.25-1.22 142.5c-7.75 9.31-58.29 68-141.88 70-106.56 2.53-165.47-89.55-168.08-93.78q-.3-59.07-.61-118.14z"/><path class="cls-1" transform="rotate(-.34 363.566 146.004)" d="M315.76 146.11H419.28999999999996V148.64000000000001H315.76z"/><path class="cls-1" transform="rotate(-.34 363.496 169.597)" d="M316.06 171.08H419.59000000000003V173.61H316.06z"/><path class="cls-1" d="M289.27 186H444.55999999999995V188.53H289.27z"/><path class="cls-1" d="M289.27 204.87H444.55999999999995V207.4H289.27z"/><path class="cls-1" d="M289.88 220.1H445.16999999999996V222.63H289.88z"/><path class="cls-1" transform="rotate(-.34 363.3 235.318)" d="M316.06 236.24H419.59000000000003V238.77H316.06z"/><path class="cls-1" transform="rotate(-.34 369.941 269.041)" d="M322.15 270.95H425.67999999999995V273.47999999999996H322.15z"/><path class="cls-1" transform="rotate(-.34 369.901 282.523)" d="M322.15 285.56H425.67999999999995V288.09H322.15z"/><path class="cls-9" d="M556.6 181.47v210.7H196.1V183.3L359.3 296l14.61-8 13.4 6.7z"/><path class="cls-10" d="M555.38 391.71a.84.84 0 0 1-.37-.09L373.54 288.7a.76.76 0 1 1 .75-1.32L555.76 390.3a.75.75 0 0 1 .28 1 .74.74 0 0 1-.66.41z"/><path class="cls-10" d="M197.31 392.32a.75.75 0 0 1-.65-.37.76.76 0 0 1 .27-1l176.6-103.52a.76.76 0 1 1 .77 1.31L197.7 392.22a.78.78 0 0 1-.39.1z"/><path class="cls-5" d="M275.26 313.31c-.2 3.66-.4 7.31-.61 11L254 328.54v9.13l51.15-2.43a29.82 29.82 0 0 0-12.79-17.66 29.25 29.25 0 0 0-17.1-4.27z"/><path class="cls-11" d="M296 303q4.86 16.14 9.74 32.28l-73.08-5.48 33.47-12.8 32.27 14.61-23.14-18.27z"/><path class="cls-5" d="M424.62 73.05l-2.13 6.74-13.58-.65-1.46 5.69 32.27 6.65a19.15 19.15 0 0 0-5.15-13 18.81 18.81 0 0 0-9.95-5.43z"/><path class="cls-11" d="M439.18 69.91l.92 21.67-44.67-15.08 22.92-2.63q8.88 7.14 17.78 14.26l-11.51-15.08z"/><rect class="cls-12" x="526.83" y="72.48" width="61.62" height="32.83" rx="5.81" transform="rotate(155.97 557.635 88.87)"/><path class="cls-13" d="M538.87 115.23l50.91-22.7a2.94 2.94 0 0 0 1.49-3.88L580.28 64l-1.62-1.54L558 89.58l-33.6-3.29a2.86 2.86 0 0 0-.62 2 2.61 2.61 0 0 0 .23.86l11 24.62a2.94 2.94 0 0 0 3.86 1.46z"/><path class="cls-14" d="M558 89.77a.19.19 0 0 1-.12 0 .18.18 0 0 1 0-.26l20.63-26.9a.19.19 0 0 1 .26 0 .19.19 0 0 1 0 .27L558.1 89.7a.19.19 0 0 1-.1.07z"/><path class="cls-14" d="M558 89.77l-33.21-3.16a.2.2 0 0 1-.17-.21.19.19 0 0 1 .21-.17L558 89.39a.21.21 0 0 1 .18.21.19.19 0 0 1-.18.17zm33.46 1.37l-31.26-4.32a.19.19 0 0 1-.16-.22.18.18 0 0 1 .21-.16l31.24 4.32a.19.19 0 0 1 0 .38z"/><path class="cls-14" d="M536.57 115.62a.17.17 0 0 1-.11 0 .19.19 0 0 1-.05-.26l17.66-26.16a.18.18 0 0 1 .26 0 .19.19 0 0 1 .06.26l-17.66 26.12a.19.19 0 0 1-.16.04z"/><rect class="cls-15" x="295.83" y="22.83" width="61.62" height="32.83" rx="5.81" transform="rotate(-176.11 326.637 39.235)"/><path class="cls-4" d="M297.71 53.74l55.63 3.77a2.93 2.93 0 0 0 3.12-2.72l1.83-26.9-.72-2.13L326.59 40l-28.1-18.61a2.83 2.83 0 0 0-1.49 1.46 2.64 2.64 0 0 0-.19.86L295 50.61a2.93 2.93 0 0 0 2.71 3.13z"/><path class="cls-6" transform="rotate(-54.21 342.738 47.696)" d="M342.52 31.92H343.03V63.45H342.52z"/><path class="cls-6" transform="rotate(-28.02 309.473 45.437)" d="M293.75 45.17H325.28V45.68H293.75z"/><rect class="cls-12" x="188.08" y="56.49" width="61.62" height="32.83" rx="5.81" transform="rotate(-169.98 218.887 72.904)"/><path class="cls-13" d="M188.58 84.21l54.9 9.71a2.94 2.94 0 0 0 3.4-2.38L251.57 65l-.48-2.2-32.33 10.85-25.95-21.51a2.79 2.79 0 0 0-1.63 1.29 2.32 2.32 0 0 0-.28.83l-4.7 26.55a2.94 2.94 0 0 0 2.38 3.4z"/><path class="cls-14" d="M218.76 73.84a.19.19 0 0 1-.06-.37l32.15-10.73a.18.18 0 0 1 .24.12.19.19 0 0 1-.12.24l-32.15 10.73z"/><path class="cls-14" d="M218.76 73.84a.21.21 0 0 1-.13 0l-25.74-21.27a.18.18 0 0 1 0-.26.19.19 0 0 1 .27 0l25.72 21.19a.19.19 0 0 1 0 .27.21.21 0 0 1-.12.07zm26.99 19.9a.18.18 0 0 1-.12 0l-23.46-21.12a.18.18 0 0 1 0-.27.18.18 0 0 1 .26 0l23.46 21.07a.19.19 0 0 1-.13.33z"/><path class="cls-14" d="M186.57 83.28a.21.21 0 0 1-.18-.12.2.2 0 0 1 .11-.25l29.26-11.75a.2.2 0 0 1 .25.1.19.19 0 0 1-.11.25l-29.26 11.75z"/><path class="cls-5" d="M689.46 294.66c-.54 1.72-1.09 3.44-1.63 5.16l-10.41-.5-1.11 4.36 24.69 5.09a14.68 14.68 0 0 0-3.94-10 14.45 14.45 0 0 0-7.6-4.11z"/><path class="cls-11" d="M700.61 292.25l.7 16.6-34.21-11.55 17.55-2 13.62 10.92-8.81-11.55z"/><path class="cls-5" d="M587.28 156.62l3.63 6.06-9.49 9.74 3.29 4.87 26.38-19.75a19.17 19.17 0 0 0-13.18-4.79 18.87 18.87 0 0 0-10.63 3.87z"/><path class="cls-11" d="M594.58 143.64l16.84 13.68-40.92 23.44q6.62-9.45 13.24-18.89L606.2 158l-18.92-1.39q3.66-6.47 7.3-12.97z"/></svg>