<svg width="21" height="23" viewBox="0 0 21 23" fill="none" xmlns="http://www.w3.org/2000/svg">
<path fill-rule="evenodd" clip-rule="evenodd" d="M11.5042 21.432C8.85143 21.432 6.35727 20.3989 4.48144 18.5225C2.6055 16.647 1.57242 14.1525 1.57242 11.4998C1.57242 8.84697 2.6055 6.35281 4.48144 4.47698C6.35727 2.60114 8.85143 1.56805 11.5042 1.56805C12.889 1.56805 14.2287 1.8477 15.487 2.39922C16.7031 2.93186 17.7841 3.69143 18.7022 4.65685C18.9408 4.90794 18.9313 5.30497 18.6802 5.54369C18.4291 5.78232 18.0323 5.77245 17.7937 5.52137C16.9906 4.67736 16.0457 4.01353 14.9839 3.54826C13.8856 3.06669 12.7146 2.82261 11.5042 2.82261C6.71962 2.82261 2.82697 6.71516 2.82697 11.4998C2.82697 16.2848 6.71962 20.1775 11.5042 20.1775C12.7146 20.1775 13.8856 19.9331 14.9849 19.4511C16.0467 18.9854 16.9916 18.3212 17.7947 17.4769C18.0333 17.2259 18.4301 17.2163 18.6811 17.4549C18.9322 17.6935 18.9418 18.0903 18.7032 18.3414C17.7851 19.3074 16.7041 20.0673 15.488 20.6001C14.2297 21.1521 12.889 21.432 11.5042 21.432Z" fill="#FF6C36"/>
<path fill-rule="evenodd" clip-rule="evenodd" d="M11.5018 19.4454C7.12072 19.4454 3.55649 15.8814 3.55649 11.4999C3.55649 7.11877 7.12072 3.55444 11.5018 3.55444C12.6097 3.55444 13.682 3.77812 14.6883 4.21933C15.661 4.6455 16.5264 5.25309 17.2604 6.0255C17.4195 6.19283 17.4128 6.45761 17.2461 6.6167C17.0784 6.77588 16.8139 6.76917 16.6548 6.60184C15.2987 5.17604 13.4683 4.39078 11.5018 4.39078C7.58196 4.39078 4.39282 7.57992 4.39282 11.4999C4.39282 15.4195 7.58196 18.6088 11.5018 18.6088C12.5608 18.6088 13.5785 18.3817 14.5282 17.9341C14.7372 17.8364 14.9863 17.9255 15.085 18.1344C15.1837 18.3433 15.0937 18.5925 14.8847 18.6912C13.8229 19.1915 12.6844 19.4454 11.5018 19.4454Z" fill="#FF6C36"/>
<path fill-rule="evenodd" clip-rule="evenodd" d="M19.5682 16.1832C19.8557 16.3767 19.9314 16.7668 19.7378 17.0533C19.5442 17.3408 19.1542 17.4165 18.8667 17.223C18.5801 17.0294 18.5035 16.6393 18.698 16.3518C18.8916 16.0653 19.2816 15.9886 19.5682 16.1832Z" fill="#FF6C36"/>
<path fill-rule="evenodd" clip-rule="evenodd" d="M11.5038 23C8.43215 23 5.54422 21.804 3.37216 19.6314C1.2001 17.4599 0.00390625 14.5714 0.00390625 11.5C0.00388987 8.42824 1.2001 5.54041 3.37216 3.36825C5.54422 1.19619 8.43215 0 11.5038 0C13.1071 0 14.6586 0.323801 16.1162 0.962357C17.5231 1.57904 18.7756 2.4586 19.8384 3.57659C19.9975 3.74392 19.9908 4.00861 19.824 4.16779C19.6563 4.32697 19.3918 4.32026 19.2327 4.15293C18.2466 3.11592 17.0851 2.30019 15.7799 1.72835C14.4296 1.13649 12.9911 0.836365 11.5038 0.836365C8.65554 0.836365 5.97767 1.94563 3.96354 3.95967C1.94942 5.97379 0.840243 8.65166 0.840243 11.5C0.840252 14.3482 1.94942 17.0267 3.96354 19.0402C5.97767 21.0546 8.65554 22.1634 11.5038 22.1634C11.9216 22.1634 12.3433 22.1394 12.7554 22.0915C12.9844 22.0647 13.1924 22.2285 13.2192 22.4576C13.246 22.6876 13.0822 22.8946 12.8522 22.9214C12.4085 22.9741 11.9542 23 11.5038 23" fill="#FF6C36"/>
<path fill-rule="evenodd" clip-rule="evenodd" d="M14.044 22.7066C13.8542 22.7066 13.6827 22.5772 13.6376 22.3836C13.5849 22.1594 13.7239 21.9342 13.9491 21.8815C15.378 21.5461 16.7005 20.9279 17.8811 20.0463C18.0661 19.9073 18.3277 19.9456 18.4657 20.1306C18.6047 20.3156 18.5663 20.5772 18.3814 20.7161C17.1087 21.6678 15.6817 22.3338 14.1408 22.6961C14.1082 22.7028 14.0756 22.7066 14.044 22.7066Z" fill="#FF6C36"/>
<path fill-rule="evenodd" clip-rule="evenodd" d="M19.0948 19.989C18.9836 19.989 18.8725 19.9449 18.7901 19.8568C18.6319 19.689 18.6396 19.4245 18.8083 19.2664C18.9645 19.1179 19.1188 18.9645 19.2663 18.8083C19.4245 18.6397 19.689 18.632 19.8567 18.7901C20.0253 18.9483 20.033 19.2128 19.8749 19.3814C19.7168 19.5491 19.55 19.7159 19.3813 19.875C19.3008 19.9507 19.1973 19.989 19.0948 19.989Z" fill="#FF6C36"/>
<path fill-rule="evenodd" clip-rule="evenodd" d="M15.7935 18.1041C15.6622 18.1041 15.5338 18.0428 15.4524 17.9278C15.3182 17.7399 15.3623 17.4783 15.5501 17.3451C16.0159 17.0135 16.2526 16.8209 16.6551 16.3983C16.8141 16.2305 17.0786 16.2238 17.2463 16.3839C17.4131 16.543 17.4198 16.8075 17.2607 16.9742C16.8084 17.4505 16.5171 17.6834 16.035 18.0265C15.9622 18.0782 15.8769 18.1041 15.7935 18.1041Z" fill="#FF6C36"/>
<path fill-rule="evenodd" clip-rule="evenodd" d="M19.8385 3.57664C19.3191 3.03001 18.746 2.53359 18.1298 2.09851C17.5145 1.66438 16.8571 1.29188 16.1691 0.986364C15.4302 0.658106 14.6568 0.407531 13.8643 0.24218C13.0708 0.0764081 12.26 -0.00333471 11.4493 0.000383614C10.7324 0.00368986 10.0156 0.0725221 9.3118 0.20768C8.61778 0.340908 7.93621 0.538506 7.27889 0.79786C6.62435 1.05603 5.99415 1.37535 5.39855 1.74987C4.79576 2.12889 4.22871 2.56445 3.70585 3.04774C3.17723 3.53639 2.69318 4.07344 2.26337 4.65093C1.84036 5.21893 1.47006 5.82613 1.15946 6.46266C0.851167 7.09429 0.601809 7.75468 0.415423 8.43251C0.227408 9.11628 0.103582 9.81739 0.0445387 10.5246C-0.0184007 11.2779 -0.00836406 12.0378 0.0756491 12.7892C0.162548 13.5664 0.328821 14.335 0.571864 15.0786C0.812319 15.8137 1.12784 16.5248 1.51175 17.1966C1.90792 17.8894 2.38 18.5478 2.91436 19.1468C3.41078 19.7035 3.96 20.2124 4.55321 20.6648C5.11719 21.0941 5.72084 21.4717 6.35449 21.7889C6.98497 22.1051 7.64488 22.3629 8.323 22.5565C9.00447 22.752 9.70415 22.8823 10.4095 22.9485C10.7564 22.981 11.1043 22.9983 11.4521 22.9993C11.3793 22.3878 11.226 21.785 10.996 21.2129C10.7736 20.658 10.4814 20.1319 10.1268 19.6499C9.7741 19.1698 9.36173 18.7347 8.90154 18.3571C8.43915 17.9776 7.92903 17.6566 7.38642 17.4045C7.25091 17.3413 7.11339 17.2828 6.97405 17.2282C6.93869 17.2148 6.90313 17.2013 6.86758 17.1879C6.8533 17.1831 6.83519 17.1793 6.82244 17.1716C6.80289 17.1592 6.79848 17.1314 6.78976 17.1084C6.75833 17.025 6.72182 16.9436 6.68051 16.865C6.59685 16.7059 6.49335 16.5573 6.37337 16.4232C6.25645 16.2919 6.13647 16.1654 6.02453 16.0303C5.58907 15.5041 5.2296 14.9157 4.96194 14.288C4.69466 13.6613 4.51928 12.9962 4.44166 12.3196C4.37017 11.6967 4.38042 11.0642 4.47299 10.4451C4.55762 9.87873 4.71124 9.32366 4.92974 8.79485C5.14229 8.28013 5.4159 7.791 5.7424 7.34001C6.06776 6.89065 6.44543 6.47952 6.86547 6.11708C7.28675 5.75359 7.75049 5.43925 8.24461 5.18328C8.74457 4.92434 9.27529 4.7253 9.82202 4.59209C10.3922 4.45342 10.9787 4.38653 11.5652 4.39141C12.2351 4.39697 12.904 4.49491 13.5471 4.6862C14.1786 4.87413 14.7833 5.15204 15.3372 5.50873C15.619 5.69015 15.8883 5.89168 16.1422 6.11104C16.2706 6.22212 16.3943 6.33769 16.515 6.45748C16.6386 6.58072 16.7556 6.70943 16.8926 6.81762C17.4245 7.23546 18.1365 7.38371 18.791 7.21686C19.4293 7.05443 19.9727 6.5997 20.2458 6.00103C20.4873 5.4705 20.5074 4.85141 20.2995 4.3067C20.196 4.03568 20.0388 3.78671 19.8385 3.57664C18.7757 2.45932 20.6742 4.45524 19.8385 3.57664" fill="#FF6C36"/>
<path fill-rule="evenodd" clip-rule="evenodd" d="M14.2221 11.5001C14.2221 9.99937 13.006 8.782 11.5043 8.782C10.0035 8.782 8.78613 9.99937 8.78613 11.5001C8.78613 13.0009 10.0035 14.2179 11.5043 14.2179C13.006 14.2179 14.2221 13.0009 14.2221 11.5001Z" fill="#FF6C36"/>
</svg>
