<svg width="23" height="23" viewBox="0 0 23 23" fill="none" xmlns="http://www.w3.org/2000/svg">
<g clip-path="url(#clip0_5_926)">
<path d="M11.5 0C9.22552 0 7.00211 0.674463 5.11095 1.9381C3.21978 3.20174 1.7458 4.99779 0.875391 7.09914C0.00498274 9.20049 -0.222756 11.5128 0.220974 13.7435C0.664705 15.9743 1.75997 18.0234 3.36828 19.6317C4.97658 21.24 7.02568 22.3353 9.25647 22.779C11.4872 23.2228 13.7995 22.995 15.9009 22.1246C18.0022 21.2542 19.7983 19.7802 21.0619 17.8891C22.3255 15.9979 23 13.7745 23 11.5C23 8.45001 21.7884 5.52494 19.6317 3.36827C17.4751 1.2116 14.55 0 11.5 0ZM14.0714 18.1605L11.7238 14.375C10.7495 12.9375 10.1903 12.7137 9.59955 12.7137H9.58345V18.1605H6.94798V10.925H11.1327C13.0173 10.925 13.8 9.79143 13.8 8.30563C13.8 7.28344 13.225 6.0536 11.548 6.0536C9.56735 6.0536 9.56735 7.61891 9.56735 7.61891H11.0686L8.27343 9.85517L5.63829 7.61891H6.96408C7.33142 5.44673 8.86486 4.18501 11.5161 4.18501C14.535 4.18501 16.4355 5.5108 16.4355 8.28986C16.4355 10.557 14.7903 11.9475 13.1294 12.3641C13.4649 12.6198 13.9281 13.2746 14.5669 14.2649L16.9947 18.1463L14.0714 18.1605Z" fill="#723080"/>
</g>
<defs>
<clipPath id="clip0_5_926">
<rect width="23" height="23" fill="white"/>
</clipPath>
</defs>
</svg>
