<svg width="22" height="24" viewBox="0 0 22 24" fill="none" xmlns="http://www.w3.org/2000/svg">
<g clip-path="url(#clip0_5_935)">
<path d="M18.56 4.63984C18.56 4.51984 18.44 4.43984 18.36 4.43984C18.28 4.43984 16.56 4.39984 16.56 4.39984C16.56 4.39984 15.12 2.99984 15 2.87984C14.84 2.71984 14.6 2.79984 14.48 2.79984C14.48 2.79984 14.2 2.87984 13.76 3.03984C13.68 2.79984 13.56 2.47984 13.4 2.19984C12.88 1.23984 12.16 0.719838 11.24 0.719838C11.16 0.719838 11.12 0.719838 11.04 0.719838C11 0.679838 11 0.639838 10.96 0.639838C10.56 0.239838 10.08 -0.000162318 9.48 0.0398377C8.32 0.0798377 7.16 0.919838 6.24 2.39984C5.56 3.43984 5.08 4.75984 4.92 5.79984C3.6 6.19984 2.64 6.51984 2.64 6.51984C1.96 6.71984 1.96 6.75984 1.84 7.39984C1.76 7.79984 0 21.4398 0 21.4398L14.76 23.9998L21.16 22.3998C21.16 22.3998 18.56 4.75984 18.56 4.63984ZM13 3.23984C12.64 3.35984 12.28 3.47984 11.84 3.59984C11.84 2.99984 11.76 2.19984 11.48 1.47984C12.36 1.63984 12.8 2.63984 13 3.23984ZM11.08 3.83984C10.32 4.07984 9.48 4.35984 8.6 4.59984C8.84 3.67984 9.28 2.75984 9.84 2.19984C10.04 1.95984 10.32 1.71984 10.68 1.59984C11 2.23984 11.08 3.19984 11.08 3.83984ZM9.48 0.759838C9.76 0.759838 10 0.799838 10.16 0.959838C9.84 1.11984 9.56 1.35984 9.24 1.67984C8.52 2.47984 7.92 3.71984 7.72 4.87984C7 5.07984 6.32 5.31984 5.68 5.51984C6.12 3.63984 7.68 0.839838 9.48 0.759838Z" fill="#95BF47"/>
<path d="M18.3597 4.44024C18.2797 4.44024 16.5597 4.40024 16.5597 4.40024C16.5597 4.40024 15.1197 3.00024 14.9997 2.88024C14.9197 2.80024 14.8397 2.80024 14.7597 2.76024V24.0002L21.1597 22.4002C21.1597 22.4002 18.5597 4.72024 18.5197 4.60024C18.5197 4.52024 18.4397 4.44024 18.3597 4.44024Z" fill="#5E8E3E"/>
<path d="M11.2395 7.71966L10.4795 10.5197C10.4795 10.5197 9.6395 10.1597 8.6795 10.1997C7.2395 10.2797 7.2395 11.1997 7.2395 11.4397C7.3195 12.6797 10.5995 12.9597 10.7595 15.8797C10.9195 18.1597 9.5595 19.7597 7.5995 19.8797C5.2395 20.0397 3.9595 18.6397 3.9595 18.6397L4.4395 16.5197C4.4395 16.5197 5.7595 17.5197 6.7995 17.4397C7.4795 17.3997 7.7195 16.8397 7.7195 16.4397C7.5995 14.7997 4.9595 14.9197 4.7995 12.2397C4.6395 9.99966 6.1195 7.71966 9.3995 7.51966C10.5995 7.39966 11.2395 7.71966 11.2395 7.71966Z" fill="white"/>
</g>
<defs>
<clipPath id="clip0_5_935">
<rect width="21.2" height="24" fill="white"/>
</clipPath>
</defs>
</svg>
