<svg width="24" height="24" viewBox="0 0 24 24" fill="none" xmlns="http://www.w3.org/2000/svg">
<path d="M13.7687 8.15214C13.372 8.35048 13.2001 8.72073 13.2001 9.72569C13.2001 9.72569 13.3984 9.52734 13.7158 9.40833C13.9472 9.32238 14.1125 9.20999 14.2315 9.12404C14.5753 8.86619 14.6282 8.55544 14.6282 8.01329C14.6216 8.01329 14.0794 7.98024 13.7687 8.15214Z" fill="#FBBD71"/>
<path d="M11.3421 8.38354C10.9983 8.66784 10.9124 9.1571 10.9124 9.1571L9.80165 13.4149L8.88926 9.93065C8.80331 9.5604 8.6314 9.10421 8.37355 8.78685C8.0562 8.38354 7.39504 8.3571 7.3157 8.3571C7.2562 8.3571 6.60165 8.38354 6.25785 8.78685C6 9.10421 5.8281 9.5604 5.74215 9.93065L4.88264 13.4149L3.7719 9.1571C3.7719 9.1571 3.68595 8.7009 3.34215 8.38354C2.8 7.89429 2 8.0133 2 8.0133L4.1157 15.9802C4.1157 15.9802 4.80331 16.0397 5.14711 15.8678C5.60331 15.6364 5.83471 15.4711 6.09256 14.3802C6.35041 13.4083 7.03802 10.5786 7.09091 10.3802C7.11736 10.2943 7.17686 10.0364 7.34876 10.0364C7.52066 10.0364 7.58017 10.2678 7.60661 10.3802C7.66612 10.5786 8.34711 13.4083 8.60496 14.3802C8.88926 15.4645 9.0876 15.6364 9.55041 15.8678C9.89421 16.0397 10.5818 15.9802 10.5818 15.9802L12.6843 8.0133C12.6843 8.0133 11.8843 7.9009 11.3421 8.38354Z" fill="black"/>
<path d="M14.6216 9.2959C14.6216 9.2959 14.4761 9.49425 14.1918 9.66615C13.9935 9.77854 13.8216 9.83805 13.6232 9.95044C13.2794 10.1223 13.1935 10.2942 13.1935 10.5521V10.638V11.0678V11.1537V15.9537C13.1935 15.9537 13.7356 16.0133 14.0794 15.8414C14.5356 15.6099 14.6216 15.3852 14.6216 14.4133V9.61325V9.2959Z" fill="black"/>
<path d="M19.8778 12.0135L22.5621 8.03994C22.5621 8.03994 21.4514 7.84159 20.8761 8.35729C20.5059 8.67465 20.1356 9.26969 20.1356 9.26969L19.1637 10.6978C19.1042 10.7837 19.0514 10.8432 18.9654 10.8432C18.8795 10.8432 18.7935 10.7573 18.7671 10.6978L17.7952 9.26969C17.7952 9.26969 17.3985 8.70109 17.0547 8.35729C16.4861 7.84159 15.3687 8.03994 15.3687 8.03994L17.9671 12.0069L15.3092 15.9738C15.3092 15.9738 16.4795 16.1193 17.0547 15.6036C17.4249 15.2862 17.7687 14.7441 17.7687 14.7441L18.7406 13.316C18.8001 13.23 18.853 13.1705 18.939 13.1705C19.0249 13.1705 19.1109 13.2565 19.1373 13.316L20.1092 14.7441C20.1092 14.7441 20.4795 15.2862 20.8233 15.6036C21.3918 16.1193 22.5357 15.9738 22.5357 15.9738L19.8778 12.0135Z" fill="black"/>
</svg>
