<svg width="26" height="16" viewBox="0 0 26 16" fill="none" xmlns="http://www.w3.org/2000/svg">
<path d="M2.41299 0H23.5765C24.9158 0 26 1.08422 26 2.42354V10.502C26 11.8413 24.9158 12.9256 23.5765 12.9256H15.9869L17.0286 15.4767L12.4473 12.9256H2.42362C1.08429 12.9256 7.74961e-05 11.8413 7.74961e-05 10.502V2.42354C-0.0105521 1.09485 1.07366 0 2.41299 0Z" fill="#9B5C8F"/>
<path d="M1.29616 2.20033C1.44497 1.99837 1.6682 1.89207 1.96582 1.87081C2.50793 1.8283 2.81619 2.08341 2.8906 2.63614C3.22011 4.85772 3.58152 6.73916 3.96418 8.28044L6.29206 3.84791C6.50465 3.44399 6.77039 3.2314 7.08927 3.21014C7.55698 3.17825 7.84397 3.47588 7.9609 4.10302C8.22664 5.51676 8.56678 6.7179 8.97071 7.73834C9.24708 5.03843 9.71478 3.09321 10.3738 1.89207C10.5333 1.59445 10.7671 1.44563 11.0754 1.42437C11.3198 1.40311 11.5431 1.47752 11.745 1.63696C11.947 1.79641 12.0533 1.99837 12.0745 2.24285C12.0852 2.43418 12.0533 2.59362 11.9682 2.75307C11.5537 3.5184 11.2135 4.80457 10.9372 6.59034C10.6714 8.32296 10.5758 9.67292 10.6396 10.6402C10.6608 10.9059 10.6183 11.1398 10.512 11.3418C10.3844 11.5756 10.1931 11.7032 9.94863 11.7244C9.67226 11.7457 9.38526 11.6181 9.10889 11.3311C8.12034 10.3213 7.33375 8.81192 6.75976 6.80293C6.06884 8.16352 5.55862 9.18396 5.2291 9.86425C4.60196 11.0654 4.07048 11.6819 3.62404 11.7138C3.33704 11.7351 3.09256 11.4906 2.87997 10.9804C2.33786 9.58788 1.75323 6.8986 1.12609 2.91251C1.0942 2.63614 1.14735 2.39166 1.29616 2.20033ZM24.1497 3.86917C23.7671 3.19951 23.2037 2.79559 22.449 2.63614C22.247 2.59362 22.0557 2.57237 21.875 2.57237C20.8546 2.57237 20.0255 3.10384 19.3771 4.1668C18.8243 5.07031 18.5479 6.06949 18.5479 7.16434C18.5479 7.98282 18.718 8.68437 19.0582 9.26899C19.4408 9.93865 20.0042 10.3426 20.7589 10.502C20.9609 10.5445 21.1522 10.5658 21.3329 10.5658C22.364 10.5658 23.1931 10.0343 23.8308 8.97136C24.3836 8.05722 24.66 7.05804 24.66 5.9632C24.66 5.13409 24.4899 4.44317 24.1497 3.86917ZM22.8104 6.81356C22.6616 7.51511 22.3959 8.03596 22.0026 8.38674C21.6943 8.66311 21.4073 8.78003 21.1416 8.72688C20.8865 8.67374 20.6739 8.45052 20.5144 8.03596C20.3869 7.70645 20.3231 7.37693 20.3231 7.06867C20.3231 6.80293 20.3443 6.53719 20.3975 6.29271C20.4932 5.8569 20.6739 5.43172 20.9609 5.0278C21.3116 4.50695 21.6837 4.29436 22.0663 4.36876C22.3214 4.42191 22.534 4.64513 22.6935 5.05968C22.821 5.3892 22.8848 5.71872 22.8848 6.02698C22.8848 6.30334 22.8529 6.56908 22.8104 6.81356ZM17.485 3.86917C17.1023 3.19951 16.5283 2.79559 15.7843 2.63614C15.5823 2.59362 15.391 2.57237 15.2103 2.57237C14.1898 2.57237 13.3607 3.10384 12.7123 4.1668C12.1596 5.07031 11.8832 6.06949 11.8832 7.16434C11.8832 7.98282 12.0533 8.68437 12.3934 9.26899C12.7761 9.93865 13.3395 10.3426 14.0942 10.502C14.2961 10.5445 14.4875 10.5658 14.6682 10.5658C15.6992 10.5658 16.5283 10.0343 17.1661 8.97136C17.7188 8.05722 17.9952 7.05804 17.9952 5.9632C17.9952 5.13409 17.8251 4.44317 17.485 3.86917ZM16.1457 6.81356C15.9969 7.51511 15.7311 8.03596 15.3378 8.38674C15.0296 8.66311 14.7426 8.78003 14.4768 8.72688C14.2217 8.67374 14.0091 8.45052 13.8497 8.03596C13.7221 7.70645 13.6583 7.37693 13.6583 7.06867C13.6583 6.80293 13.6796 6.53719 13.7328 6.29271C13.8284 5.8569 14.0091 5.43172 14.2961 5.0278C14.6469 4.50695 15.0189 4.29436 15.4016 4.36876C15.6567 4.42191 15.8693 4.64513 16.0287 5.05968C16.1563 5.3892 16.2201 5.71872 16.2201 6.02698C16.2201 6.30334 16.1988 6.56908 16.1457 6.81356Z" fill="white"/>
</svg>
