<svg id="Layer_1" data-name="Layer 1" xmlns="http://www.w3.org/2000/svg" viewBox="0 0 60 60"><defs><style>.cls-1{fill:#010101}</style></defs><path class="cls-1" d="M29.21 22.1a7.52 7.52 0 0 0 4.12-6.26 7.73 7.73 0 0 0-7.1-8 8.22 8.22 0 0 0-4 .72 8.11 8.11 0 0 0-4.69 6.06c-.47 2.73.24 5.93 2.62 7.6a4.14 4.14 0 0 0 1 .5 1.13 1.13 0 0 0 1.43-.72 1.15 1.15 0 0 0-.79-1.39c-.24-.09.23.12 0 0l-.19-.1-.35-.22c-.2-.14.19.17 0 0l-.1-.08a3.76 3.76 0 0 1-.34-.35s-.1-.15-.13-.16l.09.12-.09-.11a1.83 1.83 0 0 1-.18-.3c-.06-.1-.15-.24-.22-.37l-.09-.19-.06-.13c-.05-.11 0-.09 0 .08a1.4 1.4 0 0 0-.13-.34c0-.14-.09-.28-.13-.42a8 8 0 0 1-.19-.85v-.07.09a.82.82 0 0 0 0-.22v-.43a8.61 8.61 0 0 1 0-.88v-.29.09a1.53 1.53 0 0 0 .07-.36 7.17 7.17 0 0 1 .24-.91l.12-.34s.09-.17.08-.2l-.06.13.06-.13a6.93 6.93 0 0 1 .41-.76l.24-.37a1.09 1.09 0 0 1 .13-.17l-.09.11.09-.11a8.22 8.22 0 0 1 .57-.61c.1-.1.21-.19.32-.28l.11-.09c-.23.22-.07.06 0 0a7.48 7.48 0 0 1 .76-.48l.31-.17.19-.09H23.23l.39-.15.4-.13a7.25 7.25 0 0 1 .78-.17h.18c-.32.08-.12 0 0 0h.49a6.6 6.6 0 0 1 .77 0h.2c.26 0-.27-.05 0 0l.41.08a5 5 0 0 1 .78.24l.19.07c-.25-.06-.16-.07-.08 0l.42.21c.21.12.42.25.62.39l.17.12c.2.14-.2-.17 0 0l.36.3a5.29 5.29 0 0 1 .52.54l.26.31c-.21-.22-.06-.08 0 0l.11.17a6.1 6.1 0 0 1 .41.7c.06.1.1.2.15.3s-.1-.25 0 0l.09.25a5.79 5.79 0 0 1 .21.71 2.79 2.79 0 0 0 .07.4c-.09-.3 0-.14 0 0a2.45 2.45 0 0 1 0 .27 5.15 5.15 0 0 1 0 .88v.2c0-.33 0-.12 0 0l-.09.46c-.08.28-.17.56-.27.83s.11-.24 0 0l-.12.25c-.07.14-.14.28-.22.41s-.14.23-.22.35l-.11.16-.08.11c.11-.14.12-.16.05-.07a6 6 0 0 1-.59.64c-.12.11-.23.21-.36.31s.17-.12 0 0l-.19.14a6 6 0 0 1-.82.46 1.14 1.14 0 0 0-.41 1.55 1.17 1.17 0 0 0 1.55.41z"/><path class="cls-1" d="M23.43 39V17.46a1.14 1.14 0 0 0-2.27 0v21.53a1.13 1.13 0 1 0 2.26 0z"/><path class="cls-1" d="M23.39 17.29v-.5a2.28 2.28 0 0 1 0-.26v-.11c0-.19 0-.05 0 0a6.15 6.15 0 0 1 .25-1c.06-.19-.1.18 0 0s.07-.14.11-.22l.11-.19L24 15s.13-.17 0 0l.09-.11.15-.15s.12-.1.18-.16-.09.08-.09.08a.71.71 0 0 0 .14-.1c.12-.08.25-.15.38-.22s-.25.09 0 0l.23-.07.23-.05c.25-.05-.21 0 0 0h.46s-.29-.05-.1 0h.1l.22.06c.19.06-.2-.11 0 0l.25.14.08.06c.1.06-.08-.07-.08-.07a1.37 1.37 0 0 0 .18.16 1.54 1.54 0 0 1 .17.19c-.1-.13 0 0 0 .06s.16.26.23.4-.05-.15 0 0a2.25 2.25 0 0 1 .08.24 4.77 4.77 0 0 1 .13.51s.06.36 0 .19a1.49 1.49 0 0 0 0 .21c.06.83 0 1.66 0 2.49L27 24.09 26.87 30a1.14 1.14 0 0 0 2.27 0l.26-11.31c0-1.77.17-3.74-.95-5.23A3.55 3.55 0 0 0 26.23 12a4.13 4.13 0 0 0-2.65.43 4.44 4.44 0 0 0-1.91 2 6.88 6.88 0 0 0-.55 2.86 1.14 1.14 0 0 0 2.27 0z"/><path class="cls-1" d="M29.13 28.56s0-.11.05-.16v-.07c.05-.16-.06.14-.06.13a.92.92 0 0 1 .19-.35c.07-.12.14-.24.22-.36s.09-.12.13-.19-.14.17 0 0a4.69 4.69 0 0 1 .62-.64l.16-.14-.09.07h.07c.07 0 .29-.22.37-.2s-.27.09-.16.06a.17.17 0 0 0 .1 0h-.03.36c.09 0 .12.06-.09 0h.1l.24.06.24.08h-.11l.13.06c.15.08.29.17.43.26s.09.12-.06-.05l.09.07.21.19a1.54 1.54 0 0 1 .17.19c-.1-.13 0 0 0 0a4.25 4.25 0 0 1 .27.46c0 .05 0 .1.07.14s-.07-.19 0-.05.07.19.1.3.06.2.08.3v.2c0-.17 0 0 0 0L33 29v.76a1.19 1.19 0 0 0 .12.87 1.11 1.11 0 0 0 .68.52 1.13 1.13 0 0 0 1.39-.79 6 6 0 0 0-.25-3A4.93 4.93 0 0 0 33.09 25a3.84 3.84 0 0 0-2.81-.59 4.14 4.14 0 0 0-2 1.29A5.88 5.88 0 0 0 27 27.94a1.12 1.12 0 0 0 .79 1.39 1.16 1.16 0 0 0 1.39-.79z"/><path class="cls-1" d="M35.33 30.27c.07-.19.13-.38.19-.57l.09-.24.06-.15s-.09.18 0 0 .17-.36.27-.53l.13-.2.08-.12c0 .05-.14.17 0 .05l.36-.37c.15-.14-.17.11 0 0l.25-.16.13-.06h-.11l.24-.07h-.03.38.11l.19.06.13.05a.42.42 0 1 0-.09 0l.42.25c.17.11-.16-.14 0 0a1.8 1.8 0 0 1 .2.19 1.54 1.54 0 0 1 .17.19c.17.19-.09-.14 0 0s.17.27.25.41a.59.59 0 0 0 .06.14s-.08-.2 0-.08l.09.27a3.41 3.41 0 0 1 .1.67v.1a.93.93 0 0 1 0 .33 4.75 4.75 0 0 1 0 .65 11.73 11.73 0 0 1 0 1.29 1.13 1.13 0 0 0 1.13 1.13 1.16 1.16 0 0 0 1.13-1.13c.19-1.91.1-4-1.3-5.45a4 4 0 0 0-2.53-1.26 3.38 3.38 0 0 0-2.68 1 7.06 7.06 0 0 0-1.58 3 1.13 1.13 0 0 0 .79 1.39 1.15 1.15 0 0 0 1.37-.78z"/><path class="cls-1" d="M41.32 32.2c.06-.3.13-.6.21-.89s.09-.32.14-.47.09-.32 0 0a1.47 1.47 0 0 1 .1-.22c.07-.13.15-.26.23-.38s-.13.15 0 0l.12-.14.15-.14v-.05c.1-.07.07-.06-.06.05l.35-.2-.14.06.13-.05a.71.71 0 0 0 .2 0h-.1a.74.74 0 0 0 .21 0h-.17.13s.13 0 .19.05 0 .07-.08 0c0 .05.19.09.24.13s.14.11.17.11-.19-.15 0 0a2.29 2.29 0 0 1 .27.27c.17.19-.14-.21 0 0l.08.12a1.18 1.18 0 0 1 .11.19l.06.13c.06.12 0 .1 0 0a1.28 1.28 0 0 1 .13.39 3.88 3.88 0 0 1 .11.49.67.67 0 0 1 0 .24v-.05c0 .21 0 .39.06.58 0 .62.07 1.25.12 1.87.08 1.17.19 2.34.27 3.52.1 1.47.16 2.95.16 4.43a1.14 1.14 0 0 0 2.27 0c0-2.74-.26-5.46-.45-8.19a11.4 11.4 0 0 0-.78-4.49 3.4 3.4 0 0 0-3.82-1.84 3.66 3.66 0 0 0-2 1.61 7.21 7.21 0 0 0-.82 2.39 1.13 1.13 0 1 0 2.18.6z"/><path class="cls-1" d="M44.72 41.59c0 .47 0 .93-.07 1.39 0 .22 0 .43-.06.65V43.67l-.06.37a10.92 10.92 0 0 1-.27 1.13c0 .17-.11.33-.17.49a1.17 1.17 0 0 1-.05.11c.11-.3.07-.15 0-.07s-.08.19-.13.27-.16.3-.25.44l-.15.23-.09.12-.1.13-.17.19c-.16.17-.33.33-.51.49l-.23.2-.12.1c.19-.08.11-.09 0 0a5.27 5.27 0 0 1-.6.41 9.51 9.51 0 0 1-1.22.65l-.14.06c.24-.12.12 0 .06 0l-.33.12c-.23.09-.46.16-.69.23a10.77 10.77 0 0 1-1.36.33l-.34.06c-.08 0-.46.11-.12 0a4.45 4.45 0 0 1-.81.08c-.56 0-1.11.06-1.67.06-1.11 0-2.22-.1-3.32-.23l-.83-.1a2.35 2.35 0 0 1-.37 0c.3.06.11 0 0 0h-.23c-.45-.07-.9-.16-1.34-.27s-1-.28-1.46-.46l-.35-.13c-.06 0-.19-.1.06 0l-.2-.09-.68-.32a14.31 14.31 0 0 1-1.32-.78c-.23-.16-.46-.32-.68-.49 0 0-.18-.12 0 0l-.11-.09-.35-.28a1.13 1.13 0 1 0-1.61 1.6 15.75 15.75 0 0 0 5.47 3 18.09 18.09 0 0 0 3.1.61c1.17.15 2.34.27 3.51.32a16.18 16.18 0 0 0 6.51-.91 9.58 9.58 0 0 0 4.77-3.63 11.66 11.66 0 0 0 1.35-6 1.14 1.14 0 0 0-1.13-1.13 1.15 1.15 0 0 0-1.13 1.13z"/><path class="cls-1" d="M23.08 38.12A31.68 31.68 0 0 0 19 34c-.82-.67-1.67-1.29-2.54-1.87a4.24 4.24 0 0 0-4.11-.33 3.48 3.48 0 0 0-1.9 3.17A5.53 5.53 0 0 0 12 38.53c.76.9 1.63 1.7 2.46 2.53s1.43 1.44 2.16 2.14c1.82 1.74 3.74 3.37 5.71 4.95a1.23 1.23 0 0 0 .8.33 1.13 1.13 0 0 0 .8-1.93c-1.71-1.38-3.38-2.79-5-4.28s-2.85-2.78-4.26-4.2a16.17 16.17 0 0 1-1.13-1.21s-.22-.23 0 0a.79.79 0 0 1-.14-.18l-.22-.33a3.72 3.72 0 0 1-.19-.34.68.68 0 0 1-.1-.21c.06.14.07.17 0 .09s0-.07 0-.11a3.37 3.37 0 0 1-.1-.34v-.16c-.06-.23 0 .29 0 .05v-.72c0 .33 0 .15 0 0a.27.27 0 0 1 0-.12v-.19s.09-.23 0 0a1.58 1.58 0 0 0 .1-.16A.86.86 0 0 0 13 34c-.12.15-.14.17-.06.09A.39.39 0 0 1 13 34l.09-.08c.16-.16-.23.13 0 0l.33-.19c.23-.12-.24.07 0 0l.17-.06h.32-.12.55-.16.14a2.11 2.11 0 0 1 .36.09.74.74 0 0 1 .21.07c-.15-.06-.17-.07-.06 0h.07a10 10 0 0 1 1.34.89l1.07.8c-.32-.24 0 0 .07.06l.25.2.48.41c.34.29.67.6 1 .92.83.84 1.61 1.74 2.38 2.63a1.13 1.13 0 0 0 1.6 0 1.15 1.15 0 0 0 0-1.6z"/></svg>