<svg id="Layer_1" data-name="Layer 1" xmlns="http://www.w3.org/2000/svg" viewBox="0 0 60 60"><defs><style>.cls-1{fill:#070707}</style></defs><path class="cls-1" d="M26.41 18.12a26.34 26.34 0 0 1-4-4c-.05-.06-.18-.3-.25-.32s.2.27 0 0l-.13-.17c-.18-.24-.36-.49-.53-.74-.28-.41-.55-.82-.81-1.24a24.39 24.39 0 0 1-1.32-2.27l-.13-.28-.02-.1c.11.25 0-.08 0-.13a2.47 2.47 0 0 1-.1-.29C19 8.45 19 8.29 19 8.13c.12.42 0 .28 0 .11v-.09c0-.18-.09.35 0 .19s.12-.21-.08.15c.12-.2-.14.17-.12.15.15-.18-.22.15-.19.14l.1-.06c-.25.18-.4.16-.19.09h.08c.19-.05-.45 0-.28 0h.41c.24 0-.38-.06-.24 0h.14a8.11 8.11 0 0 1 1.35.42l.23.09c.24.1-.36-.16-.05 0l.55.24c.42.19.83.4 1.24.61 1.12.59 2.22 1.22 3.3 1.88a1.42 1.42 0 0 0 1.45 0 20.62 20.62 0 0 0 1.9-1.6c.61-.59 1.14-1.25 1.72-1.88a3.31 3.31 0 0 1 .26-.27c-.22.18 0 0 0 0s-.38.12-.15.06-.27 0-.19 0 .3 0 0 0-.37-.2-.13-.05l.16.1c.19.12-.26-.24-.05 0a1.8 1.8 0 0 1 .2.19c.29.29.56.6.83.91l.29.35.1.13c.16.18 0 0 0 0s.37.51.4.57a11.87 11.87 0 0 1 .64 1 1.46 1.46 0 0 0 2 .51c1-.52 2-1 3-1.5l.61-.27.29-.12c.21-.1-.12 0-.13.05l.2-.09 1-.38a14.06 14.06 0 0 1 1.56-.48h.29c.24-.05-.14 0-.21 0a.44.44 0 0 0 .16 0h.42c.3 0-.43-.09-.19 0h.17c.21.05-.42-.21-.21-.09s.22.16 0 0-.12-.09-.06 0-.24-.37-.16-.2-.09-.23-.09-.23v-.12.1c0 .18-.09.27 0-.12 0 .16-.08.34-.13.5s-.15.38 0 .12 0 .09-.07.14c-.09.2-.2.4-.31.6-.24.42-.47.83-.75 1.23-.55.86-1.14 1.71-1.76 2.53l-.13.17c-.11.14.15-.19 0 0l-.33.42-.6.71c-.39.45-.79.88-1.21 1.3-.68.7-1.4 1.36-2.14 2a1.42 1.42 0 0 0-.42 1 1.64 1.64 0 0 0 .42 1c1.48 1.64 2.91 3.32 4.31 5 .65.79 1.28 1.58 1.91 2.37l.43.57s.17.21 0 .05l.24.32c.3.39.6.78.89 1.18 1.08 1.42 2.14 2.88 3.12 4.39.3.47.59.95.84 1.43.1.19.18.4.28.58L45.8 36a.78.78 0 0 0 .05.14c0 .05.06.17.09.24a5.48 5.48 0 0 1 .21.89.86.86 0 0 0 0 .17v-.1.82a9.87 9.87 0 0 1-.06 1.33v.03a1.64 1.64 0 0 0-.05.32c0 .24-.09.45-.14.67a12.91 12.91 0 0 1-.41 1.34c0 .1-.07.2-.12.3s-.19.4 0 0c-.11.21-.19.43-.3.64-.2.41-.42.82-.66 1.21s-.49.78-.76 1.15l-.2.27c-.07.08-.17.19 0-.07l-.09.12c-.15.18-.3.37-.46.55a18 18 0 0 1-2 1.95l-.49.41c-.08.06-.36.25 0 0-.1.06-.19.14-.29.21-.37.27-.76.53-1.16.77a13.64 13.64 0 0 1-1.41.75l-.34.16h-.07c.18-.09 0 0 0 0l-.71.27a18.19 18.19 0 0 1-2.73.69h-.3l-.64.06c-.38 0-.76.06-1.15.08a34.3 34.3 0 0 1-3.51-.11c-.58 0-1.16-.1-1.74-.16h.21-.37l-.54-.09c-.35-.07-.71-.14-1.07-.24a17 17 0 0 1-2.31-.68l-.24-.1c.4.16 0 0-.07 0l-.6-.29c-.41-.2-.8-.42-1.19-.66l-.57-.37-.28-.2-.12-.09s-.27-.2-.09-.06l-.16-.12-.27-.24-.52-.46-.5-.51c-.32-.33-.62-.67-.91-1l-.24-.31.06.08-.15-.2q-.29-.37-.54-.78a15.55 15.55 0 0 1-.98-1.78l-.24-.48-.09-.22c.2.42 0 0 0-.06-.14-.36-.26-.73-.38-1.11a11.06 11.06 0 0 1-.29-1.13v-.28c0-.26 0 .32 0 0s0-.43-.06-.64a10.77 10.77 0 0 1 0-1.27v-.31c0-.25 0 .31 0 0l.06-.34a6.46 6.46 0 0 1 .36-1.21c.09-.24-.08.1-.07.15a.77.77 0 0 1 .07-.16c.06-.11.11-.23.17-.33s.25-.48.39-.72a46.42 46.42 0 0 1 2.89-4.09l.66-.86.33-.44.08-.09c.14-.19-.07.08-.08.09a2.56 2.56 0 0 0 .2-.26c.52-.67 1-1.33 1.58-2q1.84-2.33 3.78-4.58c.7-.82 1.41-1.64 2.14-2.45a1.46 1.46 0 0 0 0-2 1.44 1.44 0 0 0-2 0q-4 4.51-7.69 9.29c-1.15 1.47-2.29 3-3.36 4.49a15.22 15.22 0 0 0-1.89 3.39 9.57 9.57 0 0 0-.48 4 14 14 0 0 0 1.51 5.21 19.17 19.17 0 0 0 2.39 3.59 16 16 0 0 0 1.54 1.64A16.84 16.84 0 0 0 21.72 53a20.17 20.17 0 0 0 4.79 1.15 27.82 27.82 0 0 0 8.25-.05 17.75 17.75 0 0 0 10.35-6.06c2.69-3.16 4.46-7.17 3.82-11.38-.33-2.15-1.75-4-3-5.77-2.47-3.48-5.12-6.84-7.89-10.09-.74-.86-1.49-1.72-2.25-2.57v2a30 30 0 0 0 4.33-4.47c.75-1 1.47-2 2.14-3A16 16 0 0 0 43.82 10a2.75 2.75 0 0 0-.28-2.92 2.33 2.33 0 0 0-1.06-.62 5.76 5.76 0 0 0-3 .34 40.49 40.49 0 0 0-6.28 2.8l2 .51a16.68 16.68 0 0 0-1.6-2.31 7.81 7.81 0 0 0-2-1.92 2.46 2.46 0 0 0-2.66.12 11.59 11.59 0 0 0-1.75 1.82C26.8 8.2 26.4 8.59 26 9c-.16.15-.33.29-.5.43a2.54 2.54 0 0 0-.24.2l.14-.11-.16.13h1.44a43.65 43.65 0 0 0-5.65-3 5.72 5.72 0 0 0-3.2-.65 2.12 2.12 0 0 0-1.1.59 2.78 2.78 0 0 0-.35 2.92 15.49 15.49 0 0 0 1.35 2.74c.53.88 1.08 1.75 1.69 2.58a27.6 27.6 0 0 0 5 5.27 1.6 1.6 0 0 0 1 .42 1.51 1.51 0 0 0 1-.42 1.44 1.44 0 0 0-.01-1.98z"/><path class="cls-1" d="M21 20.16a47.11 47.11 0 0 0 13.56.74c1.34-.12 2.67-.3 4-.53a1.42 1.42 0 0 0 1-1.76 1.47 1.47 0 0 0-1.75-1c-.53.09-1.05.17-1.58.24-.27 0 0 0 0 0h-.17l-.4.05-.85.1c-1.08.1-2.16.17-3.24.2a46.2 46.2 0 0 1-6.37-.2l-.45-.06h-.32H24.09l-.45-.07c-.62-.1-1.23-.21-1.85-.33a1.46 1.46 0 0 0-1.76 1 1.45 1.45 0 0 0 1 1.75zm13.18 7.89l-9.31 14.14-2.64 4a1.42 1.42 0 0 0 .5 1.95 1.46 1.46 0 0 0 2-.51L34 33.52l2.64-4a1.42 1.42 0 0 0-.51-1.95 1.45 1.45 0 0 0-2 .51zm-9.83 1.86a3.1 3.1 0 0 1 .47-.26l-.34.15a3.19 3.19 0 0 1 .67-.19l-.38.05a3 3 0 0 1 .73 0l-.37-.05a3.37 3.37 0 0 1 .69.19l-.34-.14a2.77 2.77 0 0 1 .57.34l-.29-.23a2.49 2.49 0 0 1 .42.44l-.18-.29a3 3 0 0 1 .29.49l-.14-.34a3 3 0 0 1 .17.65l-.05-.38a2.5 2.5 0 0 1 0 .67l.06-.38a2.81 2.81 0 0 1-.2.7l.15-.34a3 3 0 0 1-.34.58l.22-.29a2.56 2.56 0 0 1-.44.43l.29-.22a2.33 2.33 0 0 1-.55.32l.34-.14a2.51 2.51 0 0 1-.6.15l.38-.05a2.58 2.58 0 0 1-.68 0l.38.05a3 3 0 0 1-.65-.17l.34.14a2.5 2.5 0 0 1-.53-.3l.29.22a2.09 2.09 0 0 1-.42-.42l.22.29a2.31 2.31 0 0 1-.31-.52l.14.34a3.46 3.46 0 0 1-.18-.65l.05.38a3.05 3.05 0 0 1 0-.74l-.05.38a3.86 3.86 0 0 1 .2-.74l-.14.34a3.06 3.06 0 0 1 .37-.63l-.23.28c.1-.11.2-.23.3-.33a1.43 1.43 0 1 0-2-2A4.33 4.33 0 0 0 21.5 32a4 4 0 0 0 1.5 2 3.85 3.85 0 0 0 2.25.66 4 4 0 0 0 3.67-2.77 3.86 3.86 0 0 0-1.13-4.1 4.21 4.21 0 0 0-2.48-1 4.05 4.05 0 0 0-2.41.66 1.51 1.51 0 0 0-.65.85 1.42 1.42 0 0 0 2.09 1.61zM34 43.06a4 4 0 0 1 .46-.24l-.34.14a2.66 2.66 0 0 1 .63-.17l-.38.05a2.73 2.73 0 0 1 .7 0l-.38-.05a2.48 2.48 0 0 1 .66.18l-.35-.14a2.26 2.26 0 0 1 .54.32l-.29-.22a2.27 2.27 0 0 1 .41.41l-.22-.29a2.27 2.27 0 0 1 .27.48l-.14-.34a2.72 2.72 0 0 1 .17.62l-.05-.38a3.42 3.42 0 0 1 0 .64l.05-.38a2.93 2.93 0 0 1-.18.66l.14-.34a2.73 2.73 0 0 1-.32.55l.22-.29a2.71 2.71 0 0 1-.41.42l.29-.23a2.61 2.61 0 0 1-.53.31l.33-.17a2 2 0 0 1-.58.15h.39a2.36 2.36 0 0 1-.65 0h.38a2.69 2.69 0 0 1-.62-.16l.34.14a2.72 2.72 0 0 1-.5-.29l.29.22a2.52 2.52 0 0 1-.41-.39l.22.28a2.72 2.72 0 0 1-.29-.5l.14.35a2.72 2.72 0 0 1-.17-.62v.38a2.81 2.81 0 0 1 0-.71v.38a3.47 3.47 0 0 1 .19-.72l-.14.35a2.84 2.84 0 0 1 .35-.61l-.22.29a2.92 2.92 0 0 1 .28-.32 1.43 1.43 0 0 0-2-2A4.17 4.17 0 0 0 31.14 45a3.81 3.81 0 0 0 1.47 2 3.73 3.73 0 0 0 2.17.64 3.83 3.83 0 0 0 3.55-2.66 3.74 3.74 0 0 0-1.09-4 4.12 4.12 0 0 0-2.41-1 3.91 3.91 0 0 0-2.33.63 1.53 1.53 0 0 0-.65.85 1.45 1.45 0 0 0 .14 1.1 1.47 1.47 0 0 0 2.01.5z"/></svg>