<svg id="Layer_1" data-name="Layer 1" xmlns="http://www.w3.org/2000/svg" viewBox="0 0 60 60"><defs><style>.cls-1{fill:#070707}</style></defs><path class="cls-1" d="M20.7 16.84a.83.83 0 0 1 .28.28s.1.3.06.16 0 .2 0 .18-.08.36 0 .14c0 0-.13.28-.06.15l.05-.1.15-.29c.18-.37.38-.73.59-1.08s.49-.78.75-1.16l.4-.56a.64.64 0 0 0 .1-.13c-.18.24-.05.07 0 0l.28-.35a20.39 20.39 0 0 1 2-2l.49-.42.21-.17.14-.1c.14-.12-.24.17-.09.06l.42-.31.23-.14.1-.06c.16-.12-.12 0-.2 0a.76.76 0 0 1-.3 0c-.3-.08-.18-.1-.1 0l.27.2.32.23h-.07l.22.17 1.13.91c.64.52 1.26 1.06 1.88 1.61 1.31 1.18 2.53 2.64 4.2 3.31a3.8 3.8 0 0 0 4.59-1.6 4.73 4.73 0 0 0 .34-2.44 3.2 3.2 0 0 1 0-.53v.1a.8.8 0 0 0 0-.15 2.37 2.37 0 0 1 .09-.36c0-.19.12-.37.19-.56a1.1 1.1 0 0 1-.08.19.54.54 0 0 1 0-.11l.09-.18c.08-.15.19-.29.28-.46s-.11.14-.11.13l.09-.06.19-.19c.06-.07.28-.25.09-.1s.08-.05.13-.08a.8.8 0 0 1 .16-.08s-.26.09-.1 0l.32-.09s.2 0 0 0h.39a.61.61 0 0 1 .19 0h-.13l.35.07.69.21c.43.15.86.33 1.28.5h.12c-.23-.1.08 0 .12.06l.51.23a8.17 8.17 0 0 1 1 .54 1.33 1.33 0 0 0 .19.14c-.33-.2-.12-.09 0 0l.18.17.07.08a.66.66 0 0 0 1-.84.68.68 0 0 0-.94-.09.66.66 0 0 0-.15.84 1 1 0 0 0 .11.17s.16.32 0 .08 0 0 0 .09V13.04v.23s.07-.36 0-.14a.35.35 0 0 1 0 .11 2.76 2.76 0 0 1-.08.27c-.07.21.13-.28 0 0a4.85 4.85 0 0 1-.29.49c-.06.08-.12.15-.17.23s.19-.23.09-.12l-.1.12a7.6 7.6 0 0 1-.68.71 3.83 3.83 0 0 1-.29.28c-.09.08-.17.14-.26.23s.11-.08.11-.08l-.17.12c-.36.26-.72.51-1.06.8a5.72 5.72 0 0 0-1.47 2.21 3.53 3.53 0 0 0 .18 3 6 6 0 0 0 2.07 1.92c1.36.85 2.77 1.62 4.1 2.51q1.16.8 2.28 1.65l-.06-.05.17.14a3 3 0 0 0 .3.23c.11.05-.06-.09-.08-.12a1 1 0 0 1-.08-.29v-.12s.11-.33.06-.24c-.18.39-.36.78-.55 1.16-.43.87-.92 1.71-1.43 2.53-.28.43-.56.85-.85 1.26l-.45.61-.15.2c.11-.14 0 0 0 0l-.13.17c-.55.69-1.14 1.37-1.76 2-.14.15-.29.29-.42.44s.23-.14 0 0a.76.76 0 0 1 .42-.12h.16c.04 0 .3.14.17.07s.16.15.19.18l-.09-.13c-.19-.29-.39-.56-.6-.83A9.43 9.43 0 0 0 43 33.14a11 11 0 0 0-2-1.38 4.6 4.6 0 0 0-3.26-.38 5.2 5.2 0 0 0-2.24 1.34 9 9 0 0 0-1.76 2.57c-.7 1.5-1.25 3.41-.3 4.94a3.14 3.14 0 0 0 1.49 1.25c.59.24 1.21.4 1.82.6.45.15.88.32 1.32.5.15.06-.07 0-.08 0l.2.09.28.12.65.32.5.25c.07 0 .3.2.13.06s-.05-.05 0 0l-.13-.16c-.08-.22-.1-.27-.07-.16s0-.21 0-.19a.89.89 0 0 1 .08-.32c0-.2 0 0 0 0l-.07.11a6.61 6.61 0 0 1-.37.55c-.25.39-.52.76-.79 1.13-.14.2-.28.39-.43.58l-.09.13c-.1.12 0-.07 0-.08s-.17.23-.26.34c-.65.82-1.33 1.6-2 2.37-.35.37-.71.74-1.07 1.1l-.49.47a3.07 3.07 0 0 1-.26.25 1.2 1.2 0 0 1 .25-.16c.12 0 .13-.06 0 0h.24s.33.06.18 0 .17.07.16.07c.26.14.18.14.09 0l-.1-.11-.62-.52-1-.94a59.26 59.26 0 0 0-5-4.13c-.79-.58-1.59-1.14-2.4-1.69a3.93 3.93 0 0 0-1.31-.69 2.11 2.11 0 0 0-2 .61 5.28 5.28 0 0 0-.81 1.75L21.05 45l-.84 2.26-.21.54a2.6 2.6 0 0 1-.1.25c0 .08-.18.42 0 0a7.21 7.21 0 0 1-.33.69 1.76 1.76 0 0 1-.14.23c-.05.08-.21.19.11-.14l-.08.09s-.12.11-.17.17.34-.23.18-.14l-.12.07-.19.11c-.06 0-.17.08 0 0l-.23.06c-.33.07.28 0-.05 0h-.55c-.23 0 .31.06 0 0L18 49.1a3.74 3.74 0 0 1-.54-.17 1.15 1.15 0 0 0-.17-.06s.27.12.14.05l-.32-.15a5.11 5.11 0 0 1-.46-.28 1.88 1.88 0 0 1-.23-.16c-.25-.18.18.16 0 0s-.25-.21-.37-.32l-.29-.29-.15-.18-.06-.08c-.12-.14.07.09.08.12-.08-.15-.2-.28-.28-.43L15.2 47l-.06-.14s.11.31.06.13l-.07-.25a.36.36 0 0 0 0-.1v.15a1 1 0 0 0 0-.24s-.07.37 0 .15v-.11a.19.19 0 0 1 0-.08c0-.16-.16.3-.07.17s.07-.17.1-.17-.26.3-.08.11l.17-.17c.05 0 .27-.21.06 0s0 0 .05 0l.49-.33a19.86 19.86 0 0 0 2.19-1.68 16 16 0 0 0 2-2.22 2 2 0 0 0 .25-2.22 3.59 3.59 0 0 0-1.16-1.29c-1.6-1.34-3.24-2.65-4.91-3.91-.84-.64-1.69-1.26-2.55-1.88-.42-.3-.84-.6-1.27-.89l-.58-.41-.18-.12.12.08a1 1 0 0 1 .16.26c.05.12.06.13 0 0v.23s-.06.33 0 .18-.13.26 0 .11.07-.16.11-.23l.32-.61c.21-.39.43-.79.66-1.18.51-.85 1.05-1.67 1.64-2.47l.23-.31.1-.14c.13-.16-.14.18 0 0l.46-.59.93-1.08c.31-.36.6-.65.91-1l.41-.4.22-.21c.09-.11-.11.08-.11.08a.83.83 0 0 1-.49.09c-.19 0-.08 0 0 0s-.25-.15-.11 0l.19.13.23.16.1.07c.2.15-.18-.15 0 0 .31.26.61.53.9.82s.31.33.46.5l.1.12.21.29a10.75 10.75 0 0 1 .61 1.2c.13.29.25.59.41.87a3.17 3.17 0 0 0 .93 1 3.61 3.61 0 0 0 2.39.62 7.09 7.09 0 0 0 4.69-2.41A6.27 6.27 0 0 0 28 22.23a3.54 3.54 0 0 0-1.07-1.72 9.51 9.51 0 0 0-1.77-1.1c-1.49-.8-3-1.64-4.44-2.57a1.39 1.39 0 0 0-1.44 2.38c1.52 1 3.09 1.84 4.69 2.68l.84.46c.07.05.26.13.3.21s-.3-.26-.16-.13H25l.13.13.1.11c.13.12-.2-.3-.11-.15l.17.31c.09.16-.09-.27 0-.1a.56.56 0 0 0 0 .12 2.8 2.8 0 0 1 .06.28v-.16a.86.86 0 0 0 0 .16 1.93 1.93 0 0 1 0 .34v.26c0-.39 0-.11 0 0s-.11.43-.18.64c0 .06-.14.36-.06.16s-.05.1-.08.16a5.45 5.45 0 0 1-.32.57c0 .08-.11.16-.16.25l-.08.1c-.08.12.1-.12.1-.12a5.72 5.72 0 0 0-.4.46 5.66 5.66 0 0 1-.44.4c-.23.2.18-.12 0 0l-.27.2q-.24.15-.48.27l-.26.14-.12.05h.07a5.6 5.6 0 0 1-.54.17 1.55 1.55 0 0 1-.23.06h-.62-.12l-.23-.07s.28.15.18.07h-.09l-.2-.12c-.14-.08.23.23.14.11a.6.6 0 0 0-.08-.08l-.08-.09c-.11-.09.17.19.13.17s-.08-.13-.11-.17-.14-.28-.21-.42c-.16-.35-.32-.7-.5-1a9.85 9.85 0 0 0-1.93-2.43 12 12 0 0 0-1.18-.96 2.64 2.64 0 0 0-1.56-.61c-1.14 0-2 1.08-2.68 1.86a31.78 31.78 0 0 0-3.84 5 26.31 26.31 0 0 0-1.33 2.38 2.29 2.29 0 0 0-.26 1.89 2.17 2.17 0 0 0 .82 1.07c.19.15.4.28.6.42.87.6 1.73 1.22 2.59 1.84l1.32 1 .63.48.26.2s-.23-.17 0 0l.18.13c.81.64 1.62 1.28 2.42 1.93l1.17 1c.17.15.35.29.51.44s.13.19 0 0a1.3 1.3 0 0 1-.13-.29v-.14s.06-.42.1-.4-.15.19-.12.16.15-.18.05-.06l-.23.3-.47.54a11.91 11.91 0 0 1-.94.94l-.43.37-.17.15-.11.09c-.11.09.19-.14 0 0-.37.27-.74.53-1.12.78a4.13 4.13 0 0 0-1.77 2 3.43 3.43 0 0 0 .35 2.81 7.08 7.08 0 0 0 3.06 2.8c1.7.8 3.86 1.08 5.39-.26a3.75 3.75 0 0 0 .85-1.2c.36-.76.64-1.55.92-2.32s.57-1.51.85-2.27c.16-.46.33-.91.5-1.37a.66.66 0 0 1 .08-.21s-.12.23-.05.12-.16.16-.19.19-.08.06 0 0a1.12 1.12 0 0 1-.31.1h-.14c.11 0 .1 0 0 0s-.28 0-.31-.11.16.1.2.12q1.22.8 2.4 1.65c.42.29.83.6 1.23.91l.18.14-.06-.05.32.25.67.54c.8.65 1.59 1.33 2.36 2s1.33 1.31 2 1.92a2.08 2.08 0 0 0 2.23.38 4.81 4.81 0 0 0 1.36-1.1c.76-.74 1.48-1.52 2.17-2.32s1.4-1.7 2-2.59c.29-.38.56-.78.83-1.17a4.29 4.29 0 0 0 .75-1.33 2.11 2.11 0 0 0-.57-2 4.71 4.71 0 0 0-1.28-.76 23.17 23.17 0 0 0-2.91-1.21l-1-.3-.31-.09-.17-.06c-.23-.08.33.16.12 0l-.23-.13c-.2-.12.16.14.13.11a1.14 1.14 0 0 0-.11-.11v-.05c-.14-.12.18.2.14.18s-.09-.13-.11-.16l-.05-.09c-.06-.11 0-.17.05.13 0-.08-.06-.17-.08-.26s0-.14 0-.21c.1.4 0 .19 0 0V38v.11c.08-.34.13-.67.24-1l.18-.46s-.15.34-.06.15a.32.32 0 0 1 0-.09l.11-.21a6.36 6.36 0 0 1 .3-.58l.28-.46.2-.29.12-.16c.12-.17-.23.28 0 0s.45-.47.69-.69-.15.11-.14.1l.12-.08.18-.12.24-.13h.1c.23-.13-.23.06-.09 0s.35-.1.52-.15-.17 0-.17 0h.57c.27 0-.25-.07 0 0l.31.08.17.06c.16 0-.13 0-.11-.06s.27.14.33.17a11.22 11.22 0 0 1 1.13.71l.3.23c.18.12-.27-.24-.06 0l.21.17c.28.25.55.51.8.78s.28.33.42.5-.06-.09-.06-.09a.61.61 0 0 0 .12.16c.08.12.16.23.23.35a2.81 2.81 0 0 0 .76.85 2.14 2.14 0 0 0 1 .34 2.18 2.18 0 0 0 1.74-.75 30.82 30.82 0 0 0 3.72-4.57 28.8 28.8 0 0 0 1.57-2.62c.22-.4.42-.82.62-1.23a3.25 3.25 0 0 0 .49-1.68 2.13 2.13 0 0 0-.54-1.28 3.25 3.25 0 0 0-.61-.5c-.46-.36-.92-.72-1.39-1.06-.78-.5-1.52-1.04-2.29-1.5s-1.25-.79-1.9-1.16c-.4-.23-.79-.45-1.18-.7l-.54-.35-.1-.07c-.2-.14.05 0 .07.06l-.25-.22c-.14-.12-.23-.28-.38-.39 0 0 .15.24.1.13a.24.24 0 0 0-.06-.09.54.54 0 0 0-.07-.13c-.1-.15 0 .09 0 .14a1.13 1.13 0 0 0-.08-.24c-.08-.28 0 .3 0 0v-.19c0 .22 0 0 0 0a2 2 0 0 1 .06-.23c0-.08.08-.2.1-.29s-.12.26 0 .13a1.17 1.17 0 0 0 0-.11l.26-.46.1-.15a.91.91 0 0 0 .11-.16s-.18.21-.08.11a4.07 4.07 0 0 1 .41-.42c.14-.13-.25.18-.06 0l.21-.15.48-.34a12.4 12.4 0 0 0 1-.88 7.84 7.84 0 0 0 1.54-1.94 3.52 3.52 0 0 0 .31-2.9 4.48 4.48 0 0 0-1.9-2.15A14.57 14.57 0 0 0 44 8.8a9.54 9.54 0 0 0-3-.8 3.93 3.93 0 0 0-3.1 1.2 5.65 5.65 0 0 0-1.23 2.12 6 6 0 0 0-.32 2.27V14.23a1.6 1.6 0 0 1 0 .21c-.07.27.14-.23 0-.05s-.2.3-.07.12-.11.09-.15.14.12-.09.12-.09-.07.05-.09.06l-.24.13-.12.06s.31-.11.18-.08l-.22.07-.27.07h.22-.34c-.26 0 .27.06 0 0l-.28-.08h-.13c.25 0 .22.09.1 0l-.31-.17-.27-.18c-.09-.06-.31-.27-.06 0-.16-.15-.35-.28-.51-.43-1.21-1.09-2.37-2.21-3.63-3.25-.83-.7-1.69-1.37-2.55-2a2.1 2.1 0 0 0-2.27-.17 7.55 7.55 0 0 0-.91.66 20.6 20.6 0 0 0-4.37 4.52 20 20 0 0 0-1.33 2.17 4 4 0 0 0-.57 1.58 2.14 2.14 0 0 0 1 1.85 1.39 1.39 0 0 0 1.9-.49 1.43 1.43 0 0 0-.48-2.04z"/></svg>