<svg viewBox="0 0 60 60" xmlns="http://www.w3.org/2000/svg"><g fill="#010101"><path d="m33.42 8.05a23 23 0 0 0 -10.31.45 20.87 20.87 0 0 0 -10 6.5 22.87 22.87 0 0 0 -5 10 22.09 22.09 0 0 0 .36 11 23.24 23.24 0 0 0 14.07 15 22.22 22.22 0 0 0 11 1.11 22.64 22.64 0 0 0 10.05-4.11 21.42 21.42 0 0 0 7-8.31 20.51 20.51 0 0 0 1.76-6.69 22.37 22.37 0 0 0 -.27-5.66c-.1-.6-.23-1.2-.38-1.8a1.35 1.35 0 0 0 -2.44-.32c-.11.18-.23.35-.34.52s.09-.12.09-.11a.76.76 0 0 0 -.1.12 3.07 3.07 0 0 1 -.25.26 5.56 5.56 0 0 1 -.44.39l.12-.09a.57.57 0 0 0 -.13.08l-.25.16-.27.15h-.1c-.19.09.1 0 .12 0-.19.06-.37.14-.56.19l-.24.06h-.14c-.14 0 .19 0 .17 0h-.57-.28c-.22 0 .32.06 0 0a4.92 4.92 0 0 1 -.55-.14c-.3-.11.21.1 0 0l-.27-.14-.22-.13-.05-.06c-.22-.15.24.21 0 0s-.23-.21-.34-.33l-.12-.15s-.11-.14 0 0 0 0 0 0a4.25 4.25 0 0 1 -.44-.74l-.1-.21c-.06-.13.13.33.08.19v-.1c0-.1-.07-.21-.1-.31a2 2 0 0 1 -.09-.33 1.35 1.35 0 0 0 -1.64-.94 5.38 5.38 0 0 1 -1.16.31s-.37.06-.09 0 0 0-.11 0-.41 0-.61 0a3.43 3.43 0 0 1 -.64 0h-.15s.34.05.12 0l-.4-.08c-.22-.06-.44-.12-.65-.2s0 .05.07 0l-.16-.07-.4-.22a3.58 3.58 0 0 1 -.32-.21l-.15-.11s.25.21.08.06-.34-.29-.5-.45l-.18-.18c-.14-.16 0 .07.06.09a.6.6 0 0 0 -.09-.13 5.6 5.6 0 0 1 -.38-.61c0-.1-.09-.2-.14-.29s0 .07 0 .1l-.06-.15a5.68 5.68 0 0 1 -.22-.7c0-.13-.06-.26-.09-.4a.5.5 0 0 0 0-.16c.09.39 0 .13 0 0a6.1 6.1 0 0 1 0-.74 3 3 0 0 1 -.08-.42.5.5 0 0 0 0-.17c0 .2 0 .25 0 .15a.61.61 0 0 1 0-.13 7.72 7.72 0 0 1 .2-.83 1.34 1.34 0 0 0 -.93-1.65 4.61 4.61 0 0 1 -.62-.14l-.29-.1c-.22-.08.29.14 0 0a5.54 5.54 0 0 1 -.53-.3l-.26-.18.09.07-.11-.1a5.93 5.93 0 0 1 -.43-.44l-.1-.12.07.09a2.26 2.26 0 0 1 -.09-.25 5.36 5.36 0 0 1 -.28-.53c-.1-.21.11.3 0 0 0-.1-.07-.2-.1-.3a2.82 2.82 0 0 1 -.07-.31.94.94 0 0 0 0-.16c0-.15 0-.11 0 .1a1.22 1.22 0 0 0 0-.33v-.37c0-.11 0-.22 0-.33s0-.11 0 .11a.76.76 0 0 1 0-.16 4.64 4.64 0 0 1 .17-.64l.06-.15c.05-.13 0-.1 0 .09.06-.05.1-.22.14-.29l.17-.29s.19-.22.18-.27c-.12.16-.14.18 0 .07l.1-.12.23-.25.25-.22.12-.11c-.15.13-.18.14-.06.06a1.44 1.44 0 0 0 .61-.8 1.33 1.33 0 0 0 -.13-1 1.36 1.36 0 0 0 -1.83-.48 6.12 6.12 0 0 0 -2.63 4.9 6 6 0 0 0 4.7 5.88l-.93-1.64a7.45 7.45 0 0 0 1.3 6.82 6.77 6.77 0 0 0 6.1 2.42 7.25 7.25 0 0 0 1.9-.41l-1.64-.94a5.91 5.91 0 0 0 1.82 3.14 5.18 5.18 0 0 0 3 1.25 5.51 5.51 0 0 0 2.87-.64 6.2 6.2 0 0 0 2.51-2.44l-2.45-.32c.15.6.27 1.2.38 1.81 0 .18 0 .36.08.54s0-.35 0 0a2.54 2.54 0 0 0 0 .29c0 .43.08.87.1 1.3a20.25 20.25 0 0 1 -.01 2.82 4.17 4.17 0 0 1 -.08.71c.1-.34 0 0 0 .13s-.05.29-.07.44c-.1.54-.23 1.07-.36 1.59a15.34 15.34 0 0 1 -.52 1.63c0 .13-.1.25-.14.37l-.09.13c.08-.2 0 .07-.06.13l-.16.36a20.51 20.51 0 0 1 -1.18 2.24c-.23.35-.47.69-.72 1l-.19.25.09-.11-.18.13c-.14.18-.28.35-.43.52a20 20 0 0 1 -1.75 1.82c-.31.29-.63.56-1 .83l-.25.2-.12.1s.25-.2.08-.07-.34.26-.52.38a23.13 23.13 0 0 1 -2.16 1.37c-.39.21-.78.41-1.18.6l-.47.25c-.09 0-.45.17-.05 0l-.34.13a21.2 21.2 0 0 1 -5 1.34c-.33 0 .28 0 0 0h-.33l-.65.06c-.44 0-.9.05-1.36.06a21 21 0 0 1 -2.63-.14c-.1 0-.46-.07 0 0h-.27l-.67-.11c-.41-.08-.81-.16-1.22-.26a21.51 21.51 0 0 1 -2.36-.74l-.58-.22-.14-.06.14.06-.41-.12c-.38-.17-.75-.35-1.12-.54a20.45 20.45 0 0 1 -2.06-1.24l-1-.73-.23-.2-.5-.41a20.07 20.07 0 0 1 -1.76-1.69c-.28-.29-.55-.6-.81-.91l-.36-.44-.1-.13.07.09-.2-.27a21.18 21.18 0 0 1 -2.46-4.25l-.06-.14s.13.31 0 .11-.07-.17-.11-.25-.15-.4-.22-.61c-.14-.38-.27-.77-.38-1.16a18.29 18.29 0 0 1 -.56-2.41c0-.2-.07-.41-.1-.61 0 0 0 .34 0 .12a.25.25 0 0 0 0-.12v-.35q-.06-.64-.09-1.29a20.84 20.84 0 0 1 .05-2.57c0-.22 0-.44.07-.65s.09-.44 0 0c0-.12 0-.24 0-.36.07-.43.15-.86.24-1.28a24 24 0 0 1 .71-2.51c.07-.19.14-.38.22-.57s.07-.2.11-.3l.06-.15v-.07l.08-.18a2 2 0 0 0 .18-.33l.3-.62a19.86 19.86 0 0 1 1.32-2.28c.23-.37.48-.73.74-1.07 0-.05.22-.29.09-.13l.12-.15.45-.53a21.06 21.06 0 0 1 1.82-1.82q.48-.44 1-.84l.16-.16-.08.06.27-.2.53-.37a18.64 18.64 0 0 1 2.28-1.31l.8-.37.2-.09c-.05 0-.26.11 0 0l.4-.16c.52-.2 1.05-.37 1.6-.53s1-.26 1.5-.36l.69-.12.36-.06h-.08a.83.83 0 0 0 .22 0 22.19 22.19 0 0 1 4.82 0l.47.06h.19-.17l.72.11a1.42 1.42 0 0 0 1-.13 1.34 1.34 0 0 0 -.33-2.45z"/><circle cx="21.29" cy="18.38" r="1.9"/><circle cx="17.88" cy="27.19" r="1.1"/><circle cx="29.09" cy="30.2" r="2.9"/><circle cx="35.8" cy="39.11" r="1"/><circle cx="42.01" cy="35.9" r="2"/><circle cx="26.59" cy="44.71" r="1.2"/><circle cx="17.88" cy="39.21" r="2.3"/></g></svg>