<svg id="Layer_1" data-name="Layer 1" xmlns="http://www.w3.org/2000/svg" viewBox="0 0 60 60"><defs><style>.cls-1{fill:#010101}</style></defs><path class="cls-1" d="M16.69 11.49a27.48 27.48 0 0 1 3.56-2l.41-.18c.11-.05.6-.22.13-.06.31-.11.61-.26.92-.36.61-.23 1.23-.43 1.86-.61a27.34 27.34 0 0 1 3.68-.77c-.53.08 0 0 .1 0h.48c.32 0 .65-.06 1-.08h1.8c.6 0 1.25 0 1.87.09.3 0 .59.05.89.09.13 0 .68.1.13 0l.52.08a25.22 25.22 0 0 1 3.52.8c.58.18 1.16.38 1.73.59l.39.16c.12 0 .57.25.1 0 .27.12.55.26.83.37a24.73 24.73 0 0 1 3.14 1.76c.49.32 1 .67 1.44 1-.4-.3 0 0 .08.07a2.82 2.82 0 0 1 .35.29c.25.2.48.41.72.62a23.42 23.42 0 0 1 2.42 2.56l.25.33c-.32-.39 0 0 .06.08.2.26.39.54.58.82.33.48.64 1 .92 1.49s.6 1.1.86 1.67l.17.39c.05.1.14.39 0-.05 0 .05 0 .1.07.16.12.3.24.6.35.91a22.24 22.24 0 0 1 .93 3.52c.05.28.09.55.13.82s0-.39 0-.08v.17a5 5 0 0 1 .06.54c.06.59.1 1.18.11 1.78A24.92 24.92 0 0 1 53 32c0 .31.06-.4 0-.08v.2c0 .15 0 .31-.07.45 0 .3-.1.61-.17.9a25.149 25.149 0 0 1-.96 3.45c-.11.29-.21.58-.33.86 0 .13-.1.26-.16.39s.06-.13.06-.14a2.88 2.88 0 0 0-.13.31 26.78 26.78 0 0 1-1.68 3.18c-.32.53-.67 1-1 1.54-.08.12-.16.23-.25.34l-.07.09c-.19.24-.38.49-.58.72a25.13 25.13 0 0 1-2.58 2.68l-.65.56-.32.27-.2.15c-.51.36-1 .75-1.54 1.09a25.22 25.22 0 0 1-3.26 1.8l-.4.17c-.29.13.35-.14.06 0l-.24.09c-.29.12-.59.23-.88.33-.58.21-1.16.39-1.75.55s-1.17.3-1.77.42l-.87.15-.46.07h.16-.33a25.52 25.52 0 0 1-3.6.16c-.61 0-1.22 0-1.84-.11l-.83-.09h.08-.17l-.49-.08a24.86 24.86 0 0 1-3.53-.85c-.57-.18-1.13-.38-1.69-.6l-.39-.15c-.29-.12.35.15.07 0l-.2-.08-.87-.4a23.91 23.91 0 0 1-3.09-1.8l-.71-.54-.37-.29.11.09-.26-.21c-.45-.36-.9-.75-1.32-1.14s-.89-.86-1.3-1.32l-.56-.63-.29-.36c-.08-.1-.45-.61-.15-.19a28.66 28.66 0 0 1-2-3.1c-.31-.55-.56-1.12-.82-1.7-.09-.2.15.37 0 .08 0-.08-.06-.17-.1-.26s-.11-.27-.16-.41c-.11-.3-.22-.61-.32-.92A23.19 23.19 0 0 1 7 34v-.26c-.05-.32 0 .39 0 .07l-.06-.44c0-.32-.06-.64-.08-1 0-.64-.06-1.28 0-1.93s0-1.22.09-1.84c0-.32.09-.64.11-1 0 0-.06.4 0 .15v-.26c0-.17 0-.35.08-.51A25.88 25.88 0 0 1 8 23.33c.1-.3.21-.59.31-.88l.2-.45c.05-.13.29-.68.08-.21.26-.59.52-1.18.82-1.75a25.64 25.64 0 0 1 2.08-3.35l.29-.38v-.06c-.16.22 0 0 0-.06.21-.26.43-.51.65-.77.44-.51.9-1 1.39-1.5s.95-.93 1.44-1.36c.24-.21.49-.41.74-.61a1.74 1.74 0 0 0 .22-.18c-.23.24-.17.13-.08.07l.46-.35a1.64 1.64 0 0 0 .71-.92 1.57 1.57 0 0 0-.16-1.18 1.55 1.55 0 0 0-2.1-.56 27.87 27.87 0 0 0-10 13.67 25.68 25.68 0 0 0-.11 16 24.67 24.67 0 0 0 9.6 12.6 27.2 27.2 0 0 0 14.51 4.57 26.2 26.2 0 0 0 15-4.2A27.13 27.13 0 0 0 54 39.72a26.57 26.57 0 0 0 1.91-15.43 23.78 23.78 0 0 0-7.45-13.23 26.6 26.6 0 0 0-13.81-6.47 27.5 27.5 0 0 0-19.51 4.24 1.54 1.54 0 1 0 1.55 2.66z"/><path class="cls-1" d="M17.62 9.78c.44.45.86.91 1.26 1.4.18.22 0 0-.05-.06a1.09 1.09 0 0 1 .13.17l.23.32c.14.21.27.42.4.64l.33.61.12.25c0 .06.1.24 0 0a6.94 6.94 0 0 1 .33 1.07c0 .16.07.33.1.49s0-.26 0-.15v.26a6.87 6.87 0 0 1 0 1.2c0 .11-.07.25 0-.16a.88.88 0 0 1 0 .17l-.06.29c0 .22-.11.45-.18.67s-.14.38-.21.57.14-.32.06-.14l-.06.14-.15.32a38.7 38.7 0 0 0-2.34 4.4 4.66 4.66 0 0 0 1.32 5.08c.66.53 1.39.93 2.06 1.42.2.14-.31-.26 0 0l.23.21c.16.14.29.31.44.47s-.19-.26-.09-.11l.1.15c.07.11.14.21.2.32s.1.21.16.31 0 0 0-.06a1.36 1.36 0 0 1 .11.28 7.21 7.21 0 0 1 .25.91 1.22 1.22 0 0 0 0 .17c.06.29 0-.05 0-.08a1.69 1.69 0 0 0 0 .5V32.86a1.81 1.81 0 0 0 0 .23 9.38 9.38 0 0 1-.33 1.29c-.05.15-.1.3-.16.45l-.07.19.07-.16a11.12 11.12 0 0 1-.82 1.3l-.22.32c-.05.07-.18.18-.2.27 0-.16.18-.23.07-.09l-.12.15-.28.32a11.54 11.54 0 0 1-1.07 1l-.14.11.13-.1-.28.2c-.2.14-.4.26-.6.38s-.36.17-.54.26c.44-.22.15-.07 0 0l-.31.09-.23.05h.21H17c-.23 0 .37.07.2 0H17c-.32-.07.27.16.08 0 0 0-.21-.09-.22-.13s.33.3.17.13l-.1-.1c-.21-.19.18.3.07.1l-.14-.21a1 1 0 0 0-.11-.23s.16.39.08.18l-.06-.16c-.25-.73-.39-1.51-.67-2.24a5.55 5.55 0 0 0-2.13-2.78c-2-1.34-4.8-.87-7-.12-.63.22-1.25.48-1.87.74l2.26.92c-.06-.29-.12-.57-.17-.86s-.06-.32-.08-.48v-.43c0-.25.06.43 0 .16a26.59 26.59 0 0 1-.2-3v-1.73c0-.31 0-.62.07-.93v-.7.15-.21a24.32 24.32 0 0 1 1-4.21c.12-.36.26-.73.4-1.09l.09-.23s.16-.38.07-.16l.07-.17s.09-.21.14-.31c.28-.61.58-1.21.91-1.8s.68-1.15 1-1.7l.5-.71.26-.33c.13-.18-.24.3 0 .05l.17-.22A24.17 24.17 0 0 1 14 13.9c.35-.34.72-.67 1.1-1l.53-.44.26-.2c-.44.35-.06.05 0 0A24.21 24.21 0 0 1 19.48 10 1.54 1.54 0 0 0 20 7.93a1.57 1.57 0 0 0-2.1-.56A25.88 25.88 0 0 0 3.79 29.83a26.65 26.65 0 0 0 .6 6.23 1.51 1.51 0 0 0 .9 1A1.61 1.61 0 0 0 6.66 37c.25-.11 0 0-.08 0l.2-.08.4-.16.87-.31a13.67 13.67 0 0 1 1.7-.45c.12 0 .54-.05.09 0h.35a5.75 5.75 0 0 1 .81 0 1.59 1.59 0 0 0 .38 0s-.4-.07-.14 0h.18l.35.08.18.06s.31.12.06 0 .13.07.18.1l.25.16c.21.13-.08 0-.1-.08l.13.11a4 4 0 0 1 .29.3c.18.19-.19-.29 0 0l.17.27c.05.09.1.18.14.27a1 1 0 0 1 .07.15c.08.16-.14-.36-.05-.12.28.77.42 1.58.71 2.35A3.73 3.73 0 0 0 16 42a4.12 4.12 0 0 0 2.79-.1 10.63 10.63 0 0 0 5-4.32 10.34 10.34 0 0 0 1.61-5.7 7.7 7.7 0 0 0-1.15-4 7.22 7.22 0 0 0-2.31-2.19c-.3-.2-.61-.38-.9-.58l-.11-.07c-.18-.13.15.11.15.12l-.21-.16-.19-.18c-.05-.05-.28-.33-.09-.1s0 0 0-.07-.09-.16-.13-.25.06.14.06.16a.88.88 0 0 0-.05-.15 2.23 2.23 0 0 1-.09-.32c0-.08-.06-.37 0-.06s0 0 0-.08v-.38.19c0 .01.08-.38.1-.49s.12-.34.18-.51a1.54 1.54 0 0 1-.09.22l.06-.13a2.56 2.56 0 0 1 .11-.24c.09-.18.18-.35.28-.51.4-.71.84-1.39 1.24-2.1a9.19 9.19 0 0 0 1.34-5.5A10.85 10.85 0 0 0 21 9a15.18 15.18 0 0 0-1.26-1.39 1.54 1.54 0 0 0-2.18 2.17zm17.44-2.5l.33.66c0 .11.1.21.14.32-.12-.38 0 0 0 .05.15.39.29.78.4 1.18s.16.65.22 1a2.17 2.17 0 0 0 0 .25c-.09-.48 0-.19 0-.08v.47a8.42 8.42 0 0 1 0 .87V12.42a5.85 5.85 0 0 1-.25.91c0 .09-.07.18-.1.28-.12.32.15-.33 0 0-.08.16-.15.32-.24.48-.37.64-.7 1.3-1 2a4.64 4.64 0 0 0-.3 2.15A6.74 6.74 0 0 0 37 22.88a5.11 5.11 0 0 0 4.66.77 12.58 12.58 0 0 0 1.83-.84l.74-.37c.1-.05.26-.09-.19.08l.18-.08.42-.12c.35-.09-.4 0-.05 0h.18c.25 0-.42-.1-.17 0l.18.05c.2 0 .08.14-.14-.07a.6.6 0 0 0 .11.06l.1.06c.12.08.06 0-.17-.14l.24.24c.17.17-.22-.35-.11-.13l.07.09c.06.11.1.23.16.33-.22-.37-.11-.28-.06-.13a1.83 1.83 0 0 1 .08.25c.37 1.23.45 2.52.8 3.75A9.71 9.71 0 0 0 49 31.61 12.61 12.61 0 0 0 53.88 34a1.55 1.55 0 0 0 1.89-1.07 25.16 25.16 0 0 0-1.9-14.17A24.8 24.8 0 0 0 36.79 5 1.54 1.54 0 1 0 36 8a22.56 22.56 0 0 1 3.65 1.11l.29.12c.26.1-.38-.16-.13-.05l.15.06.72.33c.49.23 1 .48 1.45.75s1 .6 1.52.93l.77.53.35.26c.08.06.31.25 0 0l.21.17a22.56 22.56 0 0 1 3.1 3l.33.4.15.18c.27.33.51.7.77 1a24.51 24.51 0 0 1 1.35 2.26 11.6 11.6 0 0 1 .51 1.07l.12.26c0 .07.2.41 0 0 .09.2.16.41.25.61.28.71.51 1.43.72 2.17s.33 1.36.46 2l.09.54c0 .13.08.64 0 .11 0 .31.08.62.1.93a23.25 23.25 0 0 1 .07 3.62c0 .42-.06.84-.1 1.25a2 2 0 0 1 0 .24v.11c0 .2.07-.48 0-.27s0 .24-.05.35L54.72 31c-.32-.08-.63-.17-.95-.27l-.41-.15-.26-.09-.17-.06c-.15-.07-.11 0 .12 0-.28-.18-.63-.29-.92-.45a10.18 10.18 0 0 1-1-.63c-.27-.19.21.17 0 0l-.2-.16a5.76 5.76 0 0 1-.45-.42l-.36-.38-.2-.25v.05l-.13-.18a7.72 7.72 0 0 1-.59-1l-.13-.27c-.15-.32.12.33 0 0s-.14-.37-.2-.56c-.41-1.24-.53-2.56-.84-3.82a3.86 3.86 0 0 0-2.59-3.06c-1.36-.38-2.61.25-3.79.88a6 6 0 0 1-.72.36c-.11.05-.35.11.1 0l-.21.08a3.06 3.06 0 0 1-.43.13l-.22.05h.11-.63c-.31 0 .39.08.08 0l-.51-.14c-.31-.1.32.16 0 0l-.26-.12-.39-.26c-.27-.18.26.24 0 0l-.21-.19c-.13-.13-.25-.26-.37-.4l-.06-.07.07.09c0-.06-.13-.18-.17-.23a2.91 2.91 0 0 1-.26-.45l-.11-.21v-.08c-.06-.15 0-.11.05.11a3.47 3.47 0 0 0-.19-.57v-.22-.64c0-.3-.08.39 0 .1a4.23 4.23 0 0 1 .13-.51c.14-.38-.15.31 0-.05l.21-.41c.16-.28.32-.56.47-.84a8.8 8.8 0 0 0 1.15-4.56 12.76 12.76 0 0 0-1.59-5.48 1.54 1.54 0 0 0-2.1-.55 1.58 1.58 0 0 0-.53 2.16zm-2.51 24.87a5.43 5.43 0 0 0-1 1.67 10.34 10.34 0 0 0-.3 1.09 5.58 5.58 0 0 1-.18.58s0 .1-.05.15.14-.3.05-.12-.12.26-.19.38-.15.26-.22.36l-.12.18a4.1 4.1 0 0 1-.63.69l-.28.25c-.28.24.26-.17 0 0l-.56.35a13.83 13.83 0 0 0-1.28.88 6.16 6.16 0 0 0-1.94 3 6.83 6.83 0 0 0 1.86 6.93c1.71 1.54 4.26 2.49 6.47 1.52a3.81 3.81 0 0 0 2-2.45c.12-.4.2-.81.29-1.22 0-.21.09-.41.15-.61l.09-.3c0-.1.17-.45.07-.19s.05-.08.08-.14l.17-.28c.18-.27-.19.2 0 0l.31-.31c.15-.15-.06 0-.09.06s.17-.12.19-.13a3.24 3.24 0 0 0 .36-.2s-.35.12-.11 0h.17c.08 0 .5-.1.22-.06s.12 0 .18 0h.33a5.78 5.78 0 0 0 .72 0 5.41 5.41 0 0 0 2.16-.6c3.08-1.65 4-5.89 3.25-9.07A6 6 0 0 0 40 30a8.49 8.49 0 0 0-6.24 1.13 6.44 6.44 0 0 0-1.21 1 1.56 1.56 0 0 0 0 2.18 1.54 1.54 0 0 0 2.18 0 3.68 3.68 0 0 1 .4-.39l.12-.1c.11-.1-.18.14-.16.13s.19-.14.28-.2.35-.21.52-.3l.25-.12c-.23.11 0 0 .05 0a6.83 6.83 0 0 1 1.26-.33 1.35 1.35 0 0 0 .29-.05c-.49.1-.11 0 0 0h1.1L39 33l.37.08.58.17h.12c.18 0-.31-.15-.15-.06l.32.15c.17.09.31.23.48.31-.28-.14-.22-.19-.12-.1l.12.11a3.07 3.07 0 0 1 .26.25l.13.15c.15.17-.09 0-.06-.08s.15.23.18.27l.16.29.08.16c.14.28-.09-.26 0-.08s.14.4.2.61a2.2 2.2 0 0 1 .12.63s-.05-.44 0-.19v.84a9 9 0 0 1 0 1v.19c0 .18.08-.46 0-.12q0 .24-.09.51a9.27 9.27 0 0 1-.29 1 2.33 2.33 0 0 0-.11.28s.16-.37.06-.16v.11A6.65 6.65 0 0 1 41 40l-.15.24c-.18.25.19-.22 0 0s-.29.32-.46.48l-.13.11c-.16.14.06-.11.11-.08s-.27.18-.33.21a2.21 2.21 0 0 0-.34.18c.12-.13.26-.09.08 0l-.23.07-.31.07c.33-.1.27 0 .14 0H38.53a5.69 5.69 0 0 0-1.64.22A4.85 4.85 0 0 0 35 42.51a5.57 5.57 0 0 0-1.5 2.74c-.09.37-.16.75-.26 1.12a4.25 4.25 0 0 1-.14.51c0 .06-.15.4 0 .11s0 0-.06.09a2 2 0 0 1-.14.23c0 .08.13-.19.14-.18l-.09.1-.1.1c-.1.1-.15 0 .15-.11-.09 0-.17.11-.26.15l-.12.06s.4-.14.17-.08l-.23.07h-.25c.5-.11.17 0 0 0H32.08c-.21 0-.43-.08-.64-.14l-.28-.09c-.05 0-.44-.17-.17-.06s-.07 0-.13-.07a3.84 3.84 0 0 1-.35-.18c-.19-.11-.36-.26-.56-.37 0 0 .26.21.14.1l-.09-.06-.3-.27c-.15-.15-.27-.32-.42-.47.31.31.05.07 0-.05l-.28-.33a1.35 1.35 0 0 0-.17-.34s.14.36 0 .1l-.01-.19a4.76 4.76 0 0 1-.2-.74v-.15c-.05-.2 0 .33 0 .12v-.33a6.57 6.57 0 0 1 0-.77v.12-.2c0-.11 0-.22.07-.33s.06-.21.09-.32l.06-.18s.13-.33 0-.09.16-.13.16-.21.11-.2.17-.29a3.05 3.05 0 0 0 .22-.32s-.2.24-.09.12l.15-.17.24-.24c.08-.07.31-.25.08-.08s0 0 .09-.06l.27-.17c.32-.21.66-.39 1-.61a7.82 7.82 0 0 0 2.5-2.8 6.82 6.82 0 0 0 .56-1.44c.1-.35.16-.7.27-1a1.12 1.12 0 0 0 0-.13c.05-.17-.16.33-.07.17l.11-.22a1.92 1.92 0 0 1 .17-.26s.12-.17 0 0 0 0 .05 0a1.56 1.56 0 0 0 0-2.18 1.5 1.5 0 0 0-2.17-.09z"/></svg>