<svg viewBox="0 0 60 60" xmlns="http://www.w3.org/2000/svg"><g fill="#010101"><path d="m29.86 43.57c-14.17 0-22.58-10.28-24-12.2l-.15-.11a1.5 1.5 0 0 1 -.32-2.07c1.43-2.06 9.45-12.31 23.61-12.79 15.66-.53 24.66 11.23 25.63 12.6a1.5 1.5 0 0 1 -.53 2.22l-.16.08c-1.94 2.54-9.7 11.8-23.07 12.25zm-21.32-13.57c2 2.47 9.68 11 22.22 10.59 11.75-.4 18.88-8.61 20.62-10.86-2.53-3.03-10.22-10.73-22.24-10.33-11.25.38-18.14 7.6-20.6 10.6z"/><path d="m29.61 43.62a15 15 0 0 1 -10.17-4.17 13.28 13.28 0 0 1 -4.32-10.26c.38-6.85 6.62-12.59 13.93-12.79h.4c7.19 0 13.53 5.37 14.24 12.13a13.07 13.07 0 0 1 -3.41 10.16 14.67 14.67 0 0 1 -9.28 4.85 12.4 12.4 0 0 1 -1.39.08zm-.19-24.23h-.29c-5.68.16-10.73 4.71-11 10a10.28 10.28 0 0 0 3.38 7.93 11.79 11.79 0 0 0 9.16 3.28 11.72 11.72 0 0 0 7.33-3.91 10.17 10.17 0 0 0 2.67-7.86c-.58-5.89-6.24-9.44-11.25-9.44z"/><path d="m12.09 53.35a1.5 1.5 0 0 1 -1.16-2.45l35.82-43.7a1.5 1.5 0 1 1 2.32 1.9l-35.82 43.7a1.47 1.47 0 0 1 -1.16.55z"/></g></svg>