<svg viewBox="0 0 60 60" xmlns="http://www.w3.org/2000/svg"><g fill="#010101"><path d="m9.9 8q15.57-.23 31.1.07c1.93 0 1.93-3 0-3q-15.53-.3-31.1-.07c-1.9 0-1.9 3 0 3z"/><path d="m39.65 6.68c.07 3.74.1 7.49.11 11.23a1.5 1.5 0 0 0 3 0c0-3.74 0-7.49-.11-11.23 0-1.93-3-1.94-3 0z"/><path d="m8.53 6.68c.22 13.36.08 26.73.09 40.1q0 3.44 0 6.87a1.5 1.5 0 0 0 3 0q0-20.05-.07-40.1c0-2.29 0-4.58 0-6.87 0-1.93-3-1.94-3 0z"/><path d="m23.27 18c.45 11.77.36 23.56.25 35.34a1.5 1.5 0 0 0 3 0c.11-11.78.2-23.57-.25-35.34-.07-1.93-3.07-1.94-3 0z"/><path d="m26 19.26.14-.15a1 1 0 0 0 .31-.48 1.06 1.06 0 0 0 .13-.58 1 1 0 0 0 -.13-.57 1.11 1.11 0 0 0 -.31-.49l-.3-.23a1.45 1.45 0 0 0 -.76-.21l-.4.06a1.57 1.57 0 0 0 -.66.38l-.14.15a1 1 0 0 0 -.31.48 1.15 1.15 0 0 0 -.13.58 1.11 1.11 0 0 0 .13.57 1.11 1.11 0 0 0 .31.49l.3.23a1.48 1.48 0 0 0 .76.21l.4-.06a1.57 1.57 0 0 0 .66-.38z"/><path d="m25.12 19.6 12.3-.06c4.15 0 8.32-.17 12.45.19 1.92.17 1.91-2.83 0-3-4.13-.36-8.3-.21-12.45-.19l-12.3.06a1.5 1.5 0 0 0 0 3z"/><path d="m48.4 18.62q.29 17.49 0 35c0 1.93 3 1.93 3 0q.24-17.49 0-35c0-1.92-3-1.93-3 0z"/><path d="m29.15 25.5c0 2.13 0 4.25.06 6.38a1.5 1.5 0 0 0 3 0c-.07-2.13-.09-4.25-.06-6.38a1.5 1.5 0 0 0 -3 0z"/><path d="m30.69 27a6.48 6.48 0 0 0 1-.08h1 2.11a1.5 1.5 0 0 0 1.5-1.5 1.54 1.54 0 0 0 -1.5-1.5h-2.11c-.34 0-.68 0-1 0a6.48 6.48 0 0 1 -1 .08 1.51 1.51 0 0 0 -1.5 1.5 1.54 1.54 0 0 0 1.5 1.5z"/><path d="m33.48 25.42q-.1 3.27-.09 6.54a1.5 1.5 0 0 0 3 0q0-3.27.09-6.54a1.5 1.5 0 0 0 -1.5-1.5 1.54 1.54 0 0 0 -1.5 1.5z"/><path d="m30.77 33.42 4 .08a1.5 1.5 0 0 0 0-3l-4-.08a1.5 1.5 0 1 0 0 3z"/><path d="m15.15 12.5c0 2.13 0 4.25.06 6.38a1.5 1.5 0 1 0 3 0c-.07-2.13-.09-4.25-.06-6.38a1.5 1.5 0 1 0 -3 0z"/><path d="m16.69 14a6.48 6.48 0 0 0 1-.08h1 2.11a1.5 1.5 0 0 0 1.5-1.5 1.54 1.54 0 0 0 -1.5-1.5h-2.11c-.34 0-.68 0-1 0a6.48 6.48 0 0 1 -1 .08 1.51 1.51 0 0 0 -1.5 1.5 1.54 1.54 0 0 0 1.5 1.5z"/><path d="m19.48 12.42q-.11 3.27-.09 6.54a1.5 1.5 0 0 0 3 0q0-3.27.09-6.54a1.5 1.5 0 0 0 -1.5-1.5 1.54 1.54 0 0 0 -1.5 1.5z"/><path d="m16.77 20.42 4 .08a1.5 1.5 0 1 0 0-3l-4-.08a1.5 1.5 0 1 0 0 3z"/><path d="m30.15 12.5c0 1.79 0 3.58.06 5.38a1.5 1.5 0 1 0 3 0c-.06-1.8-.08-3.59-.06-5.38a1.5 1.5 0 0 0 -3 0z"/><path d="m31.69 14a6.48 6.48 0 0 0 1-.08h1 2.11a1.5 1.5 0 0 0 1.5-1.5 1.54 1.54 0 0 0 -1.5-1.5h-2.11c-.34 0-.68 0-1 0a6.48 6.48 0 0 1 -1 .08 1.51 1.51 0 0 0 -1.5 1.5 1.54 1.54 0 0 0 1.5 1.5z"/><path d="m34.48 12.42c-.06 1.85-.1 3.69-.09 5.54a1.5 1.5 0 0 0 3 0c0-1.85 0-3.69.09-5.54a1.5 1.5 0 0 0 -1.5-1.5 1.54 1.54 0 0 0 -1.5 1.5z"/><path d="m15.15 27.5c0 2.13 0 4.25.06 6.38a1.5 1.5 0 0 0 3 0c-.07-2.13-.09-4.25-.06-6.38a1.5 1.5 0 1 0 -3 0z"/><path d="m16.69 29a6.48 6.48 0 0 0 1-.08h1 2.11a1.5 1.5 0 0 0 1.5-1.5 1.54 1.54 0 0 0 -1.5-1.5h-2.11c-.34 0-.68 0-1 0a6.48 6.48 0 0 1 -1 .08 1.51 1.51 0 0 0 -1.5 1.5 1.54 1.54 0 0 0 1.5 1.5z"/><path d="m19.48 27.42q-.11 3.27-.09 6.54a1.5 1.5 0 0 0 3 0q0-3.27.09-6.54a1.5 1.5 0 0 0 -1.5-1.5 1.54 1.54 0 0 0 -1.5 1.5z"/><path d="m16.77 35.42 4 .08a1.5 1.5 0 1 0 0-3l-4-.08a1.5 1.5 0 1 0 0 3z"/><path d="m15.15 42.5c0 2.13 0 4.25.06 6.38a1.5 1.5 0 0 0 3 0c-.07-2.13-.09-4.25-.06-6.38a1.5 1.5 0 0 0 -3 0z"/><path d="m16.69 44a6.48 6.48 0 0 0 1-.08h1 2.11a1.5 1.5 0 0 0 1.5-1.5 1.54 1.54 0 0 0 -1.5-1.5h-2.11c-.34 0-.68 0-1 0a6.48 6.48 0 0 1 -1 .08 1.51 1.51 0 0 0 -1.5 1.5 1.54 1.54 0 0 0 1.5 1.5z"/><path d="m19.48 42.42q-.11 3.27-.09 6.54a1.5 1.5 0 0 0 3 0q0-3.27.09-6.54a1.5 1.5 0 0 0 -1.5-1.5 1.54 1.54 0 0 0 -1.5 1.5z"/><path d="m16.77 50.42 4 .08a1.5 1.5 0 1 0 0-3l-4-.08a1.5 1.5 0 1 0 0 3z"/><path d="m39.15 25.5c0 2.13 0 4.25.06 6.38a1.5 1.5 0 0 0 3 0c-.07-2.13-.09-4.25-.06-6.38a1.5 1.5 0 0 0 -3 0z"/><path d="m40.69 27a6.48 6.48 0 0 0 1-.08h1 2.11a1.5 1.5 0 0 0 1.5-1.5 1.54 1.54 0 0 0 -1.5-1.5h-2.11c-.34 0-.68 0-1 0a6.48 6.48 0 0 1 -1 .08 1.51 1.51 0 0 0 -1.5 1.5 1.54 1.54 0 0 0 1.5 1.5z"/><path d="m43.48 25.42q-.1 3.27-.09 6.54a1.5 1.5 0 0 0 3 0q0-3.27.09-6.54a1.5 1.5 0 0 0 -1.5-1.5 1.54 1.54 0 0 0 -1.5 1.5z"/><path d="m40.77 33.42 4 .08a1.5 1.5 0 0 0 0-3l-4-.08a1.5 1.5 0 1 0 0 3z"/><path d="m29.15 40.5c0 2.13 0 4.25.06 6.38a1.5 1.5 0 0 0 3 0c-.07-2.13-.09-4.25-.06-6.38a1.5 1.5 0 0 0 -3 0z"/><path d="m30.69 42a6.48 6.48 0 0 0 1-.08h1 2.11a1.5 1.5 0 0 0 1.5-1.5 1.54 1.54 0 0 0 -1.5-1.5h-2.11c-.34 0-.68 0-1 0a6.48 6.48 0 0 1 -1 .08 1.51 1.51 0 0 0 -1.5 1.5 1.54 1.54 0 0 0 1.5 1.5z"/><path d="m33.48 40.42q-.1 3.27-.09 6.54a1.5 1.5 0 0 0 3 0q0-3.27.09-6.54a1.5 1.5 0 0 0 -1.5-1.5 1.54 1.54 0 0 0 -1.5 1.5z"/><path d="m30.77 48.42 4 .08a1.5 1.5 0 0 0 0-3l-4-.08a1.5 1.5 0 1 0 0 3z"/><path d="m39.15 40.5c0 2.13 0 4.25.06 6.38a1.5 1.5 0 0 0 3 0c-.07-2.13-.09-4.25-.06-6.38a1.5 1.5 0 0 0 -3 0z"/><path d="m40.69 42a6.48 6.48 0 0 0 1-.08h1 2.11a1.5 1.5 0 0 0 1.5-1.5 1.54 1.54 0 0 0 -1.5-1.5h-2.11c-.34 0-.68 0-1 0a6.48 6.48 0 0 1 -1 .08 1.51 1.51 0 0 0 -1.5 1.5 1.54 1.54 0 0 0 1.5 1.5z"/><path d="m43.48 40.42q-.1 3.27-.09 6.54a1.5 1.5 0 0 0 3 0q0-3.27.09-6.54a1.5 1.5 0 0 0 -1.5-1.5 1.54 1.54 0 0 0 -1.5 1.5z"/><path d="m40.77 48.42 4 .08a1.5 1.5 0 0 0 0-3l-4-.08a1.5 1.5 0 1 0 0 3z"/></g></svg>