<svg id="Layer_1" data-name="Layer 1" xmlns="http://www.w3.org/2000/svg" viewBox="0 0 60 60"><defs><style>.cls-1{fill:#070707}</style></defs><path class="cls-1" d="M21 31.51h32.09s-.31-.06-.18 0h.11a.94.94 0 0 0 .22.07s-.26-.14-.16-.06l.1.05a.21.21 0 0 0 .1.06c.12.06-.2-.18-.11-.08l.16.16a.6.6 0 0 0 .08.08s-.16-.25-.11-.13a2 2 0 0 0 .11.2c.08.1-.07-.15-.07-.17v.26c.06.12 0-.17 0-.18v1.1l.15 5.86q.09 3 .16 5.92l.08 2.93V48.95a1.05 1.05 0 0 0-.06.24c0 .22.15-.25 0-.06s-.1.15-.14.24.11-.14.11-.14l-.08.08s-.23.21-.05.07 0 0-.07 0l-.1.05c-.17.1.08-.06.12-.05a.9.9 0 0 0-.22.06c-.23.07.31 0 .06 0H32.9l-5.39.05H20.84a1.69 1.69 0 0 0-.24 0h-.11c-.04 0 .24.14.13 0a.82.82 0 0 0-.2-.12c-.12-.05.13.09.13.1l-.08-.07s-.21-.24-.07-.06 0-.05-.06-.11l-.06-.1c-.07-.12.07.15.07.16a1.05 1.05 0 0 0-.06-.24c-.07-.24 0 .3 0 .06v-16.6-.65.18a.5.5 0 0 0 0-.12c0-.08.05-.15.07-.22s-.06.15-.07.16a.64.64 0 0 1 .06-.1s.18-.27 0-.08 0 0 .06-.06.08-.05.09-.07-.25.16-.14.1a2.12 2.12 0 0 0 .2-.12l.1-.05s-.28.09-.16.07a1.05 1.05 0 0 0 .24-.06h-.18.44a1.42 1.42 0 1 0 0-2.83A3.36 3.36 0 0 0 18.37 30a3.06 3.06 0 0 0-.62 1.28 8.65 8.65 0 0 0-.07 1.61V48a4.7 4.7 0 0 0 .55 2.88 3.38 3.38 0 0 0 2.85 1.48h8.65l5.81-.05h6l5.46-.19h6.3a3.31 3.31 0 0 0 3.41-3.22 2.32 2.32 0 0 0 0-.37c0-1-.05-2-.08-3q-.15-6-.32-12.07a7.4 7.4 0 0 0-.4-3.08 3.25 3.25 0 0 0-2.15-1.74 5.06 5.06 0 0 0-1.1-.09H21a1.42 1.42 0 1 0 0 2.83z"/><path class="cls-1" d="M19.37 39.64l13.77-.21 13.78-.2 7.76-.11a1.42 1.42 0 1 0 0-2.83l-13.76.2-13.77.2-7.77.12A1.43 1.43 0 0 0 18 38.22a1.44 1.44 0 0 0 1.41 1.42zM50 35.32a1.42 1.42 0 1 0 0-2.83 1.41 1.41 0 0 0-1.41 1.41A1.44 1.44 0 0 0 50 35.32zm-4.7-.02a1.42 1.42 0 1 0-1.41-1.41 1.43 1.43 0 0 0 1.41 1.41zM9.14 45.05a6.13 6.13 0 0 1-.74 0 6 6 0 0 1-5.12-6.12 6 6 0 0 1 10.06-4 5.86 5.86 0 0 1 2 4 5.77 5.77 0 0 1-2 4.46 6.23 6.23 0 0 1-4.2 1.66zm.11-8.79h-.17A3 3 0 0 0 6.28 39a3 3 0 0 0 2.51 3 3.23 3.23 0 0 0 2.53-.88 2.81 2.81 0 0 0 1-2.13 2.86 2.86 0 0 0-1-1.93 3.07 3.07 0 0 0-2.07-.8z"/><path class="cls-1" d="M9.3 36.27h-.05a1.49 1.49 0 0 1-1.45-1.54 25.57 25.57 0 0 1 2.94-11.38 26.85 26.85 0 0 1 14.05-12.19l-1.29-.66a1.5 1.5 0 1 1 1.36-2.67l4.5 2.28a1.43 1.43 0 0 1 .52.43 1.37 1.37 0 0 1 .27.65 1.64 1.64 0 0 1 0 .23 1.49 1.49 0 0 1-.2.73l-2.46 4.17a1.5 1.5 0 0 1-2.79-.77 1.53 1.53 0 0 1 .21-.76l.39-.65a24 24 0 0 0-11.91 10.62 22.62 22.62 0 0 0-2.6 10.05 1.49 1.49 0 0 1-1.49 1.46z"/></svg>