<svg id="Layer_1" data-name="Layer 1" xmlns="http://www.w3.org/2000/svg" viewBox="0 0 60 60"><defs><style>.cls-1{fill:#070707}.cls-2{fill:#fff}</style></defs><path class="cls-1" d="M9.8 13.18H42s-.31-.07-.18 0h.12l.22.07s-.27-.14-.17-.07A.53.53 0 0 0 42 13l.1.06c.13.05-.2-.19-.11-.09a1.29 1.29 0 0 0 .17.16l.07.09s-.15-.25-.11-.14a1.28 1.28 0 0 0 .11.2c.08.11-.06-.15-.06-.16a.44.44 0 0 0 0 .15.52.52 0 0 0 0 .11c.06.12 0-.17 0-.18v1.1l.16 5.86.15 5.92.21 2.92c0 .47.05.94 0 1.43v-.06a.59.59 0 0 0 0 .23c-.05.23.14-.25 0-.05l-.13.23c-.06.12.1-.13.1-.13l-.07.08s-.24.21 0 .06 0 0-.08 0l-.1.06c-.17.1.09-.06.13-.06a.88.88 0 0 0-.23.07c-.23.07.31 0 .07 0h-8.91l-5.64.14-5.83.09H9.89s-.16 0-.23-.06a.56.56 0 0 1-.12 0c-.13 0 .24.14.13.05l-.2-.11c-.12-.06.13.09.13.1a.54.54 0 0 1-.08-.08s-.21-.23-.07 0 0-.06-.06-.11l-.05-.11c-.08-.11.06.16.06.16a.86.86 0 0 0-.06-.23c-.06-.24 0 .3 0 .05V14.18v-.65.18-.12c0-.07 0-.14.06-.22s-.06.16-.06.16l.05-.1s.19-.27 0-.08 0 0 .07 0 .07-.05.08-.08-.25.16-.14.11l.2-.12.1-.05s-.28.08-.15.07l.23-.06H9.6h.2a1.42 1.42 0 1 0 0-2.83 3.3 3.3 0 0 0-2.59 1.29 3.18 3.18 0 0 0-.62 1.28 8.65 8.65 0 0 0-.07 1.61v15.08a4.77 4.77 0 0 0 .55 2.88A3.4 3.4 0 0 0 9.92 34h32.21a3.33 3.33 0 0 0 3.42-3.22v-.37c0-1-.06-2-.08-3.05L45.15 15a7.28 7.28 0 0 0-.4-3.08 3.23 3.23 0 0 0-2.15-1.73 4.47 4.47 0 0 0-1.09-.1H9.8a1.42 1.42 0 1 0 0 2.83z"/><path class="cls-1" d="M8.21 21.31l13.79-.2 13.78-.2 7.77-.12a1.43 1.43 0 0 0 1.41-1.41A1.44 1.44 0 0 0 43.53 18l-13.77.21-13.76.16-7.76.11a1.42 1.42 0 1 0 0 2.83zM38.83 17a1.42 1.42 0 1 0-1.42-1.41A1.44 1.44 0 0 0 38.83 17zm-4.68 0a1.42 1.42 0 1 0-1.42-1.42A1.44 1.44 0 0 0 34.15 17z"/><path class="cls-2" d="M35.38 28.08c6.3-2.56 14.31.17 17 6.69 2.81 6.87-1.61 14.69-8.23 17-5.84 2-13.12-.33-16-6.17-3.15-6.55.54-14.79 7.23-17.52z"/><path class="cls-1" d="M35.76 29.45a13.14 13.14 0 0 1 1.84-.59q.45-.11.9-.18h.24c.29-.05-.36 0-.07 0l.53-.06a14.13 14.13 0 0 1 1.84 0c.3 0 .61 0 .91.08.11 0 .38.07-.07 0h.24l.52.09a14.26 14.26 0 0 1 1.84.5l.79.29c-.47-.16 0 0 .15.07s.32.15.47.24a11.63 11.63 0 0 1 1.62 1c.13.08.24.18.37.27-.39-.28 0 0 .13.11a8 8 0 0 1 .68.61c.2.21.43.43.63.66l.3.35.14.18c-.29-.33 0-.06 0 0a11 11 0 0 1 1 1.67 3.78 3.78 0 0 1 .17.35c0 .08.06.15.1.22-.2-.36-.06-.13 0 0a9.84 9.84 0 0 1 .36 1 9.61 9.61 0 0 1 .24 1c0 .16.06.32.08.47s0 .39 0-.05v.32a11.29 11.29 0 0 1 0 1.93 3.89 3.89 0 0 1 0 .47v.23c0 .3.06-.35 0-.06s-.11.68-.19 1a14 14 0 0 1-.61 1.9c0 .09-.16.34 0 0a2.14 2.14 0 0 0-.1.22l-.17.36c-.15.31-.31.62-.49.92s-.33.55-.51.81-.18.27-.28.4l-.14.19c-.09.12-.06.09.08-.09l-.1.12a14.59 14.59 0 0 1-1.2 1.32c-.24.22-.47.43-.72.64-.09.07-.54.39-.15.13-.16.1-.31.22-.46.33a14.22 14.22 0 0 1-1.72 1l-.44.2-.22.1c.36-.18.18-.07.08 0a9.52 9.52 0 0 1-.94.34 13.63 13.63 0 0 1-1.89.44h.07-1.71a8.24 8.24 0 0 1-.9.05h-.47c-.13 0-.75-.11-.24 0-.64-.11-1.28-.24-1.9-.41a9.43 9.43 0 0 1-.9-.29l-.36-.13a1.45 1.45 0 0 0-.22-.09c.43.15.08 0 0 0a14.15 14.15 0 0 1-1.71-.93l-.77-.53-.18-.15a4.59 4.59 0 0 1-.41-.36 11.94 11.94 0 0 1-1.3-1.36c-.06-.09-.18-.31 0 0l-.14-.19c-.09-.13-.19-.26-.27-.39a8.24 8.24 0 0 1-.54-.9c-.15-.28-.27-.59-.42-.87.22.41 0 0-.05-.14S29 44 29 43.81a12.36 12.36 0 0 1-.45-1.89v-.16-.47-1a8.08 8.08 0 0 1 .05-.85 3.42 3.42 0 0 1 0-.45c0-.29-.05.36 0 .07 0-.1 0-.2.05-.31a13.29 13.29 0 0 1 .35-1.86c.09-.3.2-.59.31-.88 0-.08.16-.34 0 .06l.09-.22.2-.42a14 14 0 0 1 1-1.68l.27-.38c.09-.13.42-.51.11-.15.22-.26.42-.53.65-.78a15.1 15.1 0 0 1 1.37-1.3l.37-.29c-.36.3.06 0 .15-.11a9.74 9.74 0 0 1 .86-.56c.27-.16.54-.32.83-.46l.43-.21.21-.1c.28-.12-.31.13 0 0a1.57 1.57 0 0 0 .85-.65A1.42 1.42 0 0 0 35 26.7a15.2 15.2 0 0 0-6.84 5.56 15 15 0 0 0-2.56 8.07 13.14 13.14 0 0 0 2.86 8.31 14 14 0 0 0 7.11 4.63 15 15 0 0 0 8.56 0 14.85 14.85 0 0 0 7.16-4.95A15.15 15.15 0 0 0 54.61 40a12.91 12.91 0 0 0-2.42-8.41 14.45 14.45 0 0 0-6.93-5 15.13 15.13 0 0 0-8.38-.4 13.53 13.53 0 0 0-1.87.59 1.57 1.57 0 0 0-.85.65 1.44 1.44 0 0 0 1.6 2.11z"/><path class="cls-1" d="M45.81 35.64a5.86 5.86 0 0 0-2.61-3.7 5.64 5.64 0 0 0-4.36-.59 5.06 5.06 0 0 0-3.23 2.36A4.76 4.76 0 0 0 35.5 38a5.14 5.14 0 0 0 3.4 2.68 9.35 9.35 0 0 0 1.57.19c.14 0 .42.09-.1 0l.32.06c.23 0 .47.14.69.21-.39-.1-.19-.09-.07 0l.2.11a4.05 4.05 0 0 1 .35.21c.25.16-.24-.22 0 0l.19.18c.12.11.21.24.32.35-.39-.41-.11-.16 0 0a6.75 6.75 0 0 1 .35.66c-.21-.41 0 0 0 .09s.07.29.11.43 0-.38 0-.08v.54c0 .3.09-.31 0 0a2.29 2.29 0 0 0-.07.28V44c0 .14 0 .1.05-.12-.07.09-.11.24-.18.33s-.22.22 0 0c0 .05-.09.11-.14.17s-.24.19-.33.3c.24-.26.18-.13.06 0l-.19.12c-.15.09-.31.15-.47.23.29-.17.23-.09.13 0l-.28.09a3.45 3.45 0 0 1-.43.12h-.21c-.38.07.26 0 0 0H40a1 1 0 0 0-.24 0h.13-.16a3.64 3.64 0 0 1-.47-.14l-.26-.23c.36.07.16.06 0 0a5 5 0 0 1-.5-.29l-.17-.12c-.09-.06-.05 0 .12.1l-.13-.11a4.75 4.75 0 0 1-.4-.38l-.14-.16a1.27 1.27 0 0 1-.11-.13c.13.18.15.2.07.08a6.41 6.41 0 0 1-.57-1 1.42 1.42 0 0 0-1.94-.51 1.45 1.45 0 0 0-.5 1.94 6.2 6.2 0 0 0 3 3.09 6.14 6.14 0 0 0 4.22.31 4.57 4.57 0 0 0 2.82-7.11 5.38 5.38 0 0 0-2.92-2.3A5.73 5.73 0 0 0 40.4 38h-.51c-.32 0 .33.07 0 0a4.07 4.07 0 0 1-.5-.13l-.24-.08c-.29-.1.29.15 0 0l-.37-.2-.2-.13c-.19-.12.08 0 .09.08a4.83 4.83 0 0 0-.4-.38l-.1-.12c-.2-.21.18.28 0 0a3.68 3.68 0 0 1-.24-.39.75.75 0 0 0-.06-.13c.19.28.08.21 0 .06s-.08-.29-.11-.44 0 .37 0 .09v-.22a2 2 0 0 1 0-.35c0-.13.09-.31 0 .11v-.17c0-.14.08-.28.12-.42s-.16.33 0 .1l.12-.08a2.77 2.77 0 0 1 .2-.34c.11-.18-.09.12-.1.12a.93.93 0 0 0 .13-.15l.29-.29c.2-.18-.29.2-.06.05l.23-.16.39-.21c.26-.12-.32.12-.05 0l.24-.08a3.7 3.7 0 0 1 .55-.14h.25a3.85 3.85 0 0 1 .48 0h.24c.25 0-.37-.07 0 0l.45.13.22.08c-.34-.09-.17-.08 0 0a3.59 3.59 0 0 1 .47.27l.13.1c-.36-.22-.06 0 0 0a3.64 3.64 0 0 1 .34.34 1.37 1.37 0 0 0 .16.18l-.08-.1.07.11a3.59 3.59 0 0 1 .27.47 1 1 0 0 0 .11.23l-.08-.18.06.16a4 4 0 0 1 .16.59 1.42 1.42 0 0 0 1.74 1 1.45 1.45 0 0 0 1-1.74z"/><path class="cls-1" d="M38.8 30.25v18.37a1.42 1.42 0 0 0 2.83 0V30.25a1.42 1.42 0 0 0-2.83 0z"/></svg>