<svg viewBox="0 0 250 250" xmlns="http://www.w3.org/2000/svg"><g fill="#050505"><path d="m155.72 103.18a32.12 32.12 0 0 0 -14.39-20.48c-7.36-4.56-16.19-5.3-24.46-3.08-7.25 2-14.21 6.6-17.54 13.51a25.67 25.67 0 0 0 .28 23.13c3.92 7.38 11.84 12.68 20 14.09 2.61.45 5.2.5 7.82.74.82.07-1.83-.29-.67-.09l.9.15c.67.13 1.33.28 2 .46s1.36.4 2 .64c.46.16 1.69.81 0-.05.38.19.78.34 1.16.53a25.21 25.21 0 0 1 2.32 1.32c.35.22.67.47 1 .69.64.43-1-.78-.35-.28l.7.59a20.58 20.58 0 0 1 2 2c.24.27.46.56.7.83.47.52-1.18-1.58-.65-.84s1.09 1.57 1.57 2.39c.34.57.65 1.16 1 1.75.18.36.34.72.5 1.08s.14.82-.24-.58c.06.21.16.41.23.6a21.93 21.93 0 0 1 .8 2.58c.1.4.19.8.27 1.21s.09 1.05 0 .09 0 .06 0 .3a19.1 19.1 0 0 1 0 2.83c-.11 1.51.24-1.15-.05.36a15.58 15.58 0 0 1 -.44 1.79c-.09.3-.64 1.66-.21.71s-.23.45-.33.64c-.4.77-.89 1.46-1.36 2.19s.85-1 .35-.46c-.15.15-.28.32-.42.48s-.5.54-.76.81-.61.58-.93.86l-.48.41c-.76.65.95-.64.34-.27a47.67 47.67 0 0 1 -4.27 2.46c-.87.4.49-.22.55-.24a6.25 6.25 0 0 0 -.6.24l-1 .37c-.85.28-1.72.52-2.59.72s-1.54.29-2.31.45.94-.12.83-.11-.4.05-.6.07c-.45 0-.91.09-1.36.12a33 33 0 0 1 -4.77-.11c-.67-.06.79.11.73.1-.23-.06-.47-.07-.7-.12-.46-.08-.91-.17-1.37-.28a24.77 24.77 0 0 1 -2.67-.79c-.52-.18-1.66-.9-.19 0-.35-.21-.75-.34-1.12-.52a26.47 26.47 0 0 1 -2.6-1.45c-.34-.22-.68-.44-1-.68-.19-.13-.38-.28-.58-.41-.63-.43 1 .78.37.29s-1.45-1.21-2.14-1.87-1.26-1.28-1.85-2c-.16-.18-.31-.37-.46-.55-.66-.75.21.25.26.36a11.31 11.31 0 0 0 -1-1.34 32.76 32.76 0 0 1 -2.8-5.05c-1.28-2.88-5.69-3.78-8.2-2.15-3 1.91-3.53 5.13-2.16 8.2a34.75 34.75 0 0 0 17.2 17.5 33.83 33.83 0 0 0 23.49 1.43c8.14-2.45 14.94-7.79 18-15.86 2.92-7.74.65-16.81-3.79-23.52a29.37 29.37 0 0 0 -17-12.1 32.69 32.69 0 0 0 -7.56-1.08c-.18 0-.35 0-.53 0-.52 0-1-.07-1.54-.1s-.72-.33.47.08a6 6 0 0 0 -.93-.15c-.91-.17-1.81-.38-2.7-.64-.46-.14-.92-.29-1.37-.46l-.51-.18c-.9-.35-.12-.13.28.12-.73-.46-1.59-.77-2.34-1.21-.4-.23-.79-.47-1.17-.73l-.43-.29c-.48-.34-.85-.94.12.12-.55-.61-1.29-1.09-1.88-1.68-.27-.27-.54-.55-.8-.84s-1.25-1.48-.57-.65-.15-.24-.29-.45c-.24-.36-.47-.72-.68-1.1s-.41-.74-.6-1.13a5 5 0 0 0 -.27-.57c.09.13.51 1.32.24.55s-.54-1.59-.73-2.41c-.08-.36-.13-.72-.2-1.09-.15-.74.12 1.42.09.67 0-.25 0-.51-.07-.77a18.9 18.9 0 0 1 0-2.26c0-.34 0-.68 0-1 .13-1.53-.24 1.27 0 0a19.08 19.08 0 0 1 .47-2.09c.1-.36.21-.72.34-1.08.06-.17.13-.35.2-.52.33-.91-.56 1.15-.23.52s.62-1.25 1-1.86c.17-.28.35-.56.54-.83s.22-.3.32-.46c.39-.59-1 1.16-.33.43.47-.55.94-1.08 1.45-1.59.28-.27.57-.53.86-.79l.34-.28c.84-.75-1.22.86-.28.2a31.83 31.83 0 0 1 4.16-2.4c.67-.33-1.25.46-.53.23.15-.06.3-.13.46-.18.41-.16.84-.31 1.26-.45.88-.28 1.78-.52 2.69-.72q.7-.15 1.41-.27c.24 0 .5-.06.73-.12-.11 0-1.52.17-.48.07s1.91-.19 2.87-.2 1.67.1 2.51.12c.64 0-.83-.12-.77-.11s.44.07.65.11c.49.08 1 .19 1.47.3.8.2 1.6.44 2.38.72l.63.24c.46.17.58.49-.51-.22a12.08 12.08 0 0 0 1.2.58 23.35 23.35 0 0 1 2.32 1.35c.33.21.65.44 1 .67s.84.59.07 0 0 0 .18.18c.65.55 1.28 1.14 1.87 1.75q.48.5.93 1c.35.41 1.17 1.76.25.27a42.66 42.66 0 0 1 2.78 4.7c.56 1.22-.34-.93 0 .07.17.45.34.91.49 1.37a28.13 28.13 0 0 1 .75 2.87 6 6 0 0 0 7.38 4.19 6.13 6.13 0 0 0 4.19-7.38z"/><path d="m118.94 70.73v108.54a6 6 0 1 0 12 0v-108.54a6 6 0 0 0 -12 0z"/><path d="m57.53 188a76.9 76.9 0 0 0 7.39 6.47 122.17 122.17 0 0 0 18.69 12.28 105.52 105.52 0 0 0 27.15 10 92.83 92.83 0 0 0 35.08.64 95.26 95.26 0 0 0 33.62-13.13 90.06 90.06 0 0 0 39.18-50.62 94.3 94.3 0 0 0 -2.64-60.15c-.47-1.2-1-2.39-1.49-3.58l-8.21 8.21 17.79 10.44a6 6 0 1 0 6.06-10.36l-18.51-11.08a6.06 6.06 0 0 0 -8.21 2.15l-9.24 17.54c-1.46 2.78-.79 6.65 2.16 8.21 2.77 1.47 6.65.82 8.21-2.15q4.6-8.78 9.23-17.55l-8.21 2.16 18.47 11.08 6.06-10.36-17.79-10.45a6.11 6.11 0 0 0 -7.27.94 7.1 7.1 0 0 0 -1.55 2.65 6.46 6.46 0 0 0 .61 4.62c.4.93-.72-1.73-.36-.86.06.17.13.33.2.5.19.45.37.9.54 1.36.48 1.23.92 2.48 1.34 3.74a92 92 0 0 1 2.88 11c.22 1.08.42 2.17.6 3.25.08.55.17 1.09.25 1.63s.19 1.66 0-.26l.12 1q.48 3.95.61 7.92.13 4.32-.15 8.63c-.1 1.38-.22 2.75-.38 4.12 0 .41-.08.84-.16 1.25.3-1.52.07-.51 0-.11-.14.92-.29 1.85-.46 2.77a85.5 85.5 0 0 1 -2.25 9.19c-.51 1.66-1.07 3.31-1.69 4.93-.28.75-.54 1.55-.89 2.26.64-1.3-.08.18-.17.38-.17.39-.34.78-.52 1.16a80.85 80.85 0 0 1 -8.09 13.88c-.34.47-.69.93-1 1.39-.76 1 .89-1.12.1-.13l-.42.53c-.8 1-1.63 2-2.48 3q-2.31 2.61-4.82 5t-5.1 4.51c-.38.32-.77.63-1.17.94s-1.25.93.28-.21l-.58.45q-1.33 1-2.7 1.95a92.29 92.29 0 0 1 -9.84 6q-2.31 1.23-4.7 2.34c-.74.34-1.48.67-2.23 1l-.39.17c-.89.39 1.54-.64.65-.27l-1.13.46a86.33 86.33 0 0 1 -11.53 3.78c-2.1.52-4.23 1-6.36 1.31-.65.11-1.3.2-2 .3-1.39.21 1.44-.17.05 0l-.78.09c-1.52.17-3.05.3-4.58.39a92.77 92.77 0 0 1 -15.63-.57c2.08.23-.17 0-.65-.11-.63-.09-1.25-.2-1.87-.31-1.23-.22-2.46-.46-3.68-.73q-3.55-.8-7-1.86c-2.23-.69-4.44-1.45-6.61-2.29l-1.44-.57c-.46-.18-2.18-.94-.26-.1-1-.44-2-.87-3-1.33a112.87 112.87 0 0 1 -19.33-11.44c-.58-.42-1.14-.85-1.71-1.28-1-.78 1.29 1 .3.23l-.87-.68c-.94-.75-1.86-1.51-2.77-2.29-1.2-1-2.38-2.08-3.52-3.18l-.67-.66a6 6 0 0 0 -8.56 8.47z"/><path d="m185.7 48.78a108.39 108.39 0 0 0 -28.49-13.08 101.56 101.56 0 0 0 -55.77-1 98.85 98.85 0 0 0 -32.8 15.51 91.06 91.06 0 0 0 -33.89 49.07 99.3 99.3 0 0 0 -2.17 41.66c.1.63.21 1.27.33 1.9.41 2.3 2.83 4 5 4.29a6.12 6.12 0 0 0 6-2.86q5.55-7.85 11.08-15.7c1.82-2.57.55-6.78-2.15-8.21a6.16 6.16 0 0 0 -8.21 2.15q-5.54 7.86-11.08 15.7l8.21-2.15-15.7-12a6 6 0 0 0 -8.81 6.78 7.09 7.09 0 0 0 2.75 3.58l15.7 12a6 6 0 0 0 4.63.61 6.81 6.81 0 0 0 3.58-2.76q5.55-7.85 11.08-15.7c1.82-2.57.55-6.78-2.15-8.21a6.16 6.16 0 0 0 -8.21 2.15q-5.54 7.86-11.08 15.7l11 1.44c-.12-.63-.23-1.27-.33-1.9l-.22-1.22c-.08-.54-.19-1.58.1.78 0-.26-.06-.52-.1-.78q-.45-3.76-.6-7.56a96 96 0 0 1 .13-9.89c.13-1.92.32-3.82.55-5.72.05-.4.22-1.12-.08.57 0-.23.07-.46.1-.69l.21-1.38q.26-1.59.57-3.18a87.53 87.53 0 0 1 3.57-12.81c.37-1 .76-2.05 1.18-3.07.15-.37.4-1.3 0 .08.08-.25.23-.53.33-.77.26-.58.52-1.16.79-1.74q1.64-3.48 3.57-6.8t4.23-6.52c.33-.46.66-.92 1-1.37.16-.21.33-.48.51-.67-.92 1-.38.49-.17.22.77-1 1.54-1.91 2.34-2.84a83.55 83.55 0 0 1 9.49-9.39c.73-.62 1.48-1.22 2.23-1.81.28-.23.9-.65-.37.28l.55-.42 1.4-1c1.54-1.11 3.11-2.16 4.72-3.17a90.31 90.31 0 0 1 9.16-5c.7-.33 1.4-.66 2.11-1l1-.43c1.34-.57-1.34.55 0 0s2.51-1 3.78-1.47c2.07-.76 4.17-1.44 6.28-2.05 3-.88 6-1.64 9.13-2.23 1.14-.22 2.29-.42 3.44-.59l.86-.13c1.1-.16-.18 0-.32 0a13.5 13.5 0 0 1 2.11-.24c2.33-.25 4.68-.4 7-.47a95.35 95.35 0 0 1 13.62.63c.48.06 2.06.38.24 0 .48.1 1 .14 1.46.22 1.07.16 2.13.34 3.2.54q2.89.54 5.78 1.26a104.85 104.85 0 0 1 10.54 3.2c1.58.57 3.14 1.19 4.69 1.82.9.37-1.49-.64-.18-.07l1 .42c.7.31 1.4.62 2.09 1a98.58 98.58 0 0 1 11.16 6.06q.65.41 1.29.84a6 6 0 0 0 8.16-2.19 6.13 6.13 0 0 0 -2.15-8.2z"/></g></svg>