<svg id="Layer_1" data-name="Layer 1" xmlns="http://www.w3.org/2000/svg" viewBox="0 0 60 60"><defs><style>.cls-1{fill:#010101}</style></defs><path class="cls-1" d="M29.3 20.09l.16 9.64a1.28 1.28 0 0 0 2.55 0l-.17-9.64a1.27 1.27 0 1 0-2.54 0z"/><path class="cls-1" d="M15.69 40v-4.44c0-.65 0-1.29.05-1.94 0-.33 0-.67.07-1a.86.86 0 0 0 0-.16v.15a2.23 2.23 0 0 1 0-.23.83.83 0 0 1 .06-.21v-.14c.05-.14-.12.21 0 .1s.16-.24 0-.09S16 32 16 32s-.21.13-.07.06L16 32c-.16.09 0 0 0 0l.25-.05h-.09.13l.61-.05q1.39-.09 2.79-.15c1.85-.09 3.71-.15 5.57-.19q5.5-.09 11 .14c1.85.08 3.71.19 5.56.33l1.34.1h.25c.24 0-.28-.06 0 0l.24.05H43.69c-.08 0 .33.22.15.08s.06 0 .09.09.06.09.08.09-.14-.21-.07-.09l.17.28c.06.1 0-.09 0-.11a.56.56 0 0 0 0 .12l.06.24c0 .12 0 .23.05.35a.68.68 0 0 0 0 .14v.51l.06.49c0 .29.05.57.06.86s0 .82 0 1.23a23.91 23.91 0 0 0 0 2.54l.09 1a1.35 1.35 0 0 0 .37.9 1.28 1.28 0 0 0 2.18-.9 19.7 19.7 0 0 1-.1-3.07A18.48 18.48 0 0 0 47 34a7 7 0 0 0-.64-2.82A3.3 3.3 0 0 0 45.2 30a4.15 4.15 0 0 0-1.54-.45c-.91-.12-1.84-.16-2.76-.21s-1.9-.1-2.9-.15q-5.77-.3-11.56-.23c-1.93 0-3.85.07-5.78.15l-2.94.15a7.92 7.92 0 0 0-2.94.47c-1.7.81-1.63 3-1.68 4.63s0 2.87 0 4.31V40a1.28 1.28 0 0 0 2.55 0zm21.72-29.72a46.53 46.53 0 0 1-.21 6c0 .24 0 .48-.07.72s0-.34 0-.12a.77.77 0 0 1 0 .15v.26l-.06.21c-.07.22.16-.33.05-.14a.25.25 0 0 1 0 .07c-.05.13.24-.27.11-.13s-.12.13-.19.19l-.09.09c-.15.13.28-.2.12-.09l-.19.12-.25.12c-.16.09.18-.08.17-.07a.44.44 0 0 1-.19.07 3.83 3.83 0 0 1-.58.16l-.36.07c-.12 0-.57.06-.12 0a30.66 30.66 0 0 1-4.07.21l-2.67-.1c-1.23 0-2.47-.05-3.7-.13l-.53-.05c.56.05 0 0-.14-.05H24.21c-.17 0 .34.16.19.08l-.4-.19c.07.05.29.25.12.09a1.59 1.59 0 0 1-.13-.13c-.1-.09.21.34.07.08 0-.06-.17-.36-.06-.1s0-.05 0-.11a1.71 1.71 0 0 1-.08-.29 5.55 5.55 0 0 1-.13-.71v-.22c0-.09 0-.34 0 0a3.93 3.93 0 0 0-.06-.48c0-.37-.09-.75-.13-1.13-.07-.68-.12-1.36-.14-2a28.26 28.26 0 0 1 .06-2.91c0-.31 0-.61.07-.91 0-.14 0-.28.05-.42v-.1a3.41 3.41 0 0 1 .14-.55c0-.13.13-.19-.06.13a.67.67 0 0 1 .06-.12 2.39 2.39 0 0 1 .13-.21c-.21.36-.15.18 0 .07l.1-.09c.16-.15-.34.22-.11.09l.1-.1h.08c.15-.08-.36.13-.19.08l.16-.06a3.88 3.88 0 0 1 .49-.11l.3-.05h-.17.18l.85-.07c.73-.05 1.46-.09 2.2-.12 1.18 0 2.36-.07 3.55-.06.65 0 1.29 0 1.94.08l1.32.11h.42c.11 0 .63.09.18 0l.74.12a6.58 6.58 0 0 1 1 .25c.12.05.3.17-.13 0l.15.07c.16.08.35.31 0 0l.14.13.06.07c-.33-.35-.17-.25-.11-.14s.09.33 0-.07c0 .08.06.15.08.23s0 .18.06.27a1 1 0 0 0 0 .17v-.07c.06.62.09 1.24.12 1.86a1.28 1.28 0 1 0 2.55 0c0-.67-.06-1.35-.15-2a4 4 0 0 0-.46-1.65 2.94 2.94 0 0 0-1.54-1.21A10.61 10.61 0 0 0 35 4.87c-.79-.09-1.57-.15-2.36-.19a60 60 0 0 0-7.22.16 7 7 0 0 0-2.78.6 3.16 3.16 0 0 0-1.44 2.12 19.9 19.9 0 0 0-.33 3.53 28.47 28.47 0 0 0 .13 3.69c.08.8.18 1.61.3 2.4a6.09 6.09 0 0 0 .32 1.34 2.94 2.94 0 0 0 1.86 1.8 10 10 0 0 0 2.72.28l4 .13c.6 0 1.2.06 1.8.07s1.18-.05 1.77-.09c2-.15 5-.26 5.68-2.6a7.77 7.77 0 0 0 .23-1.51c.07-.7.11-1.4.15-2.1.07-1.13.13-2.27.12-3.4v-.8A1.29 1.29 0 0 0 38.68 9a1.25 1.25 0 0 0-1.27 1.28z"/><path class="cls-1" d="M21.07 44.85a46.38 46.38 0 0 1-.21 6c0 .24 0 .48-.07.72s.05-.34 0-.12a.77.77 0 0 1 0 .15c0 .09 0 .17-.05.26s0 .14-.07.21c-.06.23.17-.33.06-.13V52c0 .06.23-.27.11-.13l-.19.2-.09.08c-.15.14.28-.2.11-.09l-.18.12-.25.13c-.16.08.18-.08.17-.07l-.19.07a5.47 5.47 0 0 1-.58.15l-.36.07c-.12 0-.57.06-.12 0a30.75 30.75 0 0 1-4.07.22l-2.67-.11c-1.23 0-2.47 0-3.7-.13h-.53-.14l-.15-.05h-.09c-.16 0 .35.17.2.09l-.31-.25c.06 0 .29.25.12.09a1.59 1.59 0 0 1-.13-.13c-.1-.1.22.33.07.08 0-.06-.17-.36-.07-.11s0 0 0-.11a1.42 1.42 0 0 1-.07-.28c-.06-.24-.1-.48-.14-.72v-.21c0-.09 0-.35 0 0a4 4 0 0 0-.06-.47c0-.38-.09-.75-.13-1.13-.07-.68-.12-1.37-.14-2a28 28 0 0 1 .06-2.9c0-.31 0-.61.07-.91v-.43-.09c0-.09.09-.37.15-.56s.13-.19-.06.14v-.12c0-.07.1-.14.14-.21-.21.36-.15.18 0 .07l.1-.09c.15-.15-.34.22-.11.09l.15-.09h.08c.15-.08-.36.13-.19.08l.16-.06a2.68 2.68 0 0 1 .49-.11h.3-.17.18l.85-.07c.73-.06 1.46-.09 2.19-.12 1.19-.05 2.37-.07 3.56-.06.64 0 1.29 0 1.94.08l1.32.11.43.05c.11 0 .63.09.18 0l.74.12a5.23 5.23 0 0 1 1 .26c.12 0 .3.16-.13-.06l.15.07c.16.09.35.31 0 0l.14.14.06.06c-.32-.35-.17-.25-.11-.14s.09.33 0-.07c0 .08.06.16.08.24s0 .17.06.27v.09c.06.62.09 1.25.12 1.87a1.28 1.28 0 0 0 2.55 0c0-.68-.06-1.35-.14-2A4.28 4.28 0 0 0 23 41.2a3 3 0 0 0-1.54-1.2 11.73 11.73 0 0 0-2.76-.54c-.79-.09-1.58-.15-2.36-.18a58.13 58.13 0 0 0-7.23.15 6.81 6.81 0 0 0-2.78.6 3.16 3.16 0 0 0-1.48 2.12 18.92 18.92 0 0 0-.32 3.53 26.58 26.58 0 0 0 .14 3.68c.08.81.18 1.61.3 2.41a6.23 6.23 0 0 0 .32 1.34 2.92 2.92 0 0 0 1.87 1.79 9.84 9.84 0 0 0 2.71.29l4 .13c.6 0 1.2.06 1.8.06a17.34 17.34 0 0 0 1.77-.09c2-.14 5-.25 5.68-2.6a7.67 7.67 0 0 0 .24-1.51c.07-.7.11-1.4.16-2.1.07-1.13.12-2.27.11-3.4v-.8a1.31 1.31 0 0 0-1.28-1.27 1.29 1.29 0 0 0-1.28 1.24zm31.82 0a46.38 46.38 0 0 1-.21 6c0 .24 0 .48-.07.72s0-.34 0-.12a.77.77 0 0 1 0 .15 2.44 2.44 0 0 1-.06.26v.21c-.07.23.16-.33 0-.13V52c0 .14.24-.27.1-.13l-.18.2-.09.08c-.15.14.28-.2.11-.09l-.19.12-.24.13c-.16.08.18-.08.17-.07l-.19.07c-.19.06-.39.11-.58.15l-.36.07c-.12 0-.57.06-.12 0a30.75 30.75 0 0 1-4.07.22l-2.67-.11c-1.23 0-2.47 0-3.71-.13h-.52-.14l-.15-.05h-.09c-.16 0 .35.17.2.09l-.27-.16c.07 0 .3.25.13.09l-.13-.13c-.1-.1.22.33.07.08 0-.06-.18-.36-.07-.11s0 0 0-.11a2.83 2.83 0 0 1-.07-.28c-.06-.24-.1-.48-.14-.72V51c0-.09 0-.35 0 0a4 4 0 0 0-.06-.47c0-.38-.09-.75-.13-1.13-.07-.68-.12-1.37-.14-2 0-1 0-1.94.06-2.9 0-.31 0-.61.07-.91v-.43-.09a3.82 3.82 0 0 1 .14-.56c0-.12.13-.19-.06.14l.05-.12c0-.07.1-.14.14-.21-.22.36-.15.18 0 .07l.1-.09c.15-.15-.34.22-.11.09l.14-.09h.08c.16-.08-.35.13-.18.08l.16-.06a3.88 3.88 0 0 1 .49-.11h.3-.17.18l.85-.07c.73-.06 1.46-.09 2.2-.12 1.18-.05 2.36-.07 3.55-.06.64 0 1.29 0 1.94.08l1.32.11.42.05c.11 0 .63.09.18 0l.74.12a5.56 5.56 0 0 1 1 .26c.12 0 .3.16-.13-.06l.14.07c.17.09.35.31 0 0l.16.14v.06c-.32-.35-.17-.25-.11-.14s.09.33 0-.07c0 .08.06.16.08.24s0 .17.06.27v.09c.06.62.09 1.25.12 1.87a1.29 1.29 0 0 0 1.27 1.27 1.28 1.28 0 0 0 1.27-1.27c0-.68-.05-1.35-.14-2a4 4 0 0 0-.46-1.64A3 3 0 0 0 53.31 40a10.89 10.89 0 0 0-2.76-.54c-.78-.09-1.57-.15-2.36-.18a58 58 0 0 0-7.22.15 6.78 6.78 0 0 0-2.78.6 3.14 3.14 0 0 0-1.49 2.12 19.81 19.81 0 0 0-.32 3.53 28.24 28.24 0 0 0 .15 3.68c.08.8.18 1.61.3 2.41a6.12 6.12 0 0 0 .31 1.33A2.91 2.91 0 0 0 39 54.88a9.88 9.88 0 0 0 2.71.29l4 .13c.6 0 1.2.05 1.8.06s1.17 0 1.76-.09c2-.14 5-.25 5.69-2.6a8.47 8.47 0 0 0 .23-1.51q.09-1 .15-2.1c.07-1.13.13-2.26.11-3.39v-.8a1.29 1.29 0 0 0-1.27-1.28 1.28 1.28 0 0 0-1.29 1.26z"/></svg>