<svg id="Layer_1" data-name="Layer 1" xmlns="http://www.w3.org/2000/svg" viewBox="0 0 60 60"><defs><style>.cls-1{fill:#010101}</style></defs><path class="cls-1" d="M36.63 12.83L49 20.48l3.47 2.16-.58-1.51-.36 1c-.13.32.11-.27 0 0 0 .1-.07.19-.11.28s-.13.3-.19.46c-.31.72-.63 1.44-1 2.14-.65 1.34-1.37 2.64-2.14 3.9l1.72-.48-4.87-3.32a1.25 1.25 0 0 0-1.85.8 75 75 0 0 0-2.33 18.53c0 1.49 0 3 .13 4.46l1.26-1.33L24 47.4h-5.14l1.26 1.34a67 67 0 0 0-.77-17.83c-.28-1.6-.63-3.18-1-4.75a1.27 1.27 0 0 0-1.59-.91 1.23 1.23 0 0 0-.26.12l-6.07 3.52 1.53.21-.31-.39c0-.07-.09-.13-.13-.19-.21-.29-.41-.6-.61-.92a23.66 23.66 0 0 1-1.26-2.33c-.1-.22-.21-.44-.3-.69l-.12-.29c.11.31 0 0 0-.06-.16-.42-.31-.84-.44-1.26a20.54 20.54 0 0 1-.55-2.15l-.58 1.51 13.11-7.78 3.71-2.2-1.85-.8a9.07 9.07 0 0 0 5.53 5.75 8 8 0 0 0 7.33-1.3 9.13 9.13 0 0 0 2.87-3.62 1.53 1.53 0 0 0 .12-1 1.28 1.28 0 0 0-.57-.8 1.23 1.23 0 0 0-1.73.48c-.12.27-.25.54-.39.8s-.34.48-.47.73c.15-.3.08-.11 0 0a.64.64 0 0 1-.1.13l-.3.35a8.42 8.42 0 0 1-.61.59c-.1.08-.25.13 0 0l-.12.09-.31.23a6 6 0 0 1-.77.46c-.1.06-.48.19-.11.06-.12 0-.23.1-.35.15a7.76 7.76 0 0 1-.82.25l-.41.09a.41.41 0 0 0-.15 0c.34-.1.15 0 0 0a5.91 5.91 0 0 1-.84 0 3 3 0 0 1-.42 0c-.11 0-.58-.09-.15 0-.27 0-.53-.1-.79-.17a7 7 0 0 1-.77-.26l-.14-.06c.35.13.11.05 0 0l-.39-.21a7.33 7.33 0 0 1-.63-.4 3.32 3.32 0 0 0-.36-.26s.24.2.08.06l-.22-.2a7.76 7.76 0 0 1-.63-.65l-.29-.36c-.17-.22.17.26 0 0l-.13-.19a8 8 0 0 1-.46-.81L25 11c-.06-.13 0-.09 0 .1a1.08 1.08 0 0 0-.11-.3 1.21 1.21 0 0 0-1.81-.82L10 17.72l-3.73 2.19a1.4 1.4 0 0 0-.57 1.51A22.82 22.82 0 0 0 10.13 31a1.22 1.22 0 0 0 1.52.21l6.07-3.54-1.85-.8c.35 1.38.66 2.77.92 4.17.14.75.27 1.52.39 2.28.05.37.11.74.15 1.12 0 .1 0 .22.05.32v.08l.07.65a64.81 64.81 0 0 1 .38 8.92c0 1.45-.13 2.9-.26 4.34A1.31 1.31 0 0 0 18.83 50l18.17.2h5.13a1.31 1.31 0 0 0 1.26-1.34 77.71 77.71 0 0 1 0-8.22q.12-2.34.39-4.68c0-.22 0-.43.08-.65 0 0 0 .29 0 0v-.33c.06-.43.12-.87.19-1.3.12-.76.24-1.52.38-2.28.31-1.64.66-3.26 1.07-4.86l-1.85.8 4.89 3.32a1.24 1.24 0 0 0 1.73-.48 48.21 48.21 0 0 0 4-8.41 1.35 1.35 0 0 0-.58-1.51l-12.31-7.59-3.47-2.15a1.22 1.22 0 0 0-1.73.48 1.39 1.39 0 0 0 .45 1.83z"/><path class="cls-1" d="M30.63 26.91a4.73 4.73 0 0 1 .53 0c.23 0-.27-.05-.05 0a2.47 2.47 0 0 1 .29.06 6.5 6.5 0 0 1 1 .29l.24.09-.14-.06.13.06.44.24a9.38 9.38 0 0 1 .83.57c-.31-.23-.08-.07 0 0l.19.17.35.35.33.38.15.2c.09.11-.09-.13-.09-.12l.09.12a7.61 7.61 0 0 1 .51.87c.07.16.13.32.21.47 0 0-.11-.29-.06-.15a.78.78 0 0 0 0 .14c0 .08 0 .16.08.24a7.3 7.3 0 0 1 .25 1.05.45.45 0 0 0 .09.12v-.17.84a4.18 4.18 0 0 1 0 .51 2.48 2.48 0 0 1 0 .27v-.17a1.23 1.23 0 0 0 0 .19 9.09 9.09 0 0 1-.25 1l-.09.24v.11c0 .13.07-.16.06-.15s-.15.34-.23.5a8.55 8.55 0 0 1-.53.88c-.08.12.1-.13.09-.12l-.09.12-.14.17a4.59 4.59 0 0 1-.36.41A3.27 3.27 0 0 1 34 37l-.19.17c-.21.18.19-.15 0 0a6.13 6.13 0 0 1-.84.56l-.42.22c-.19.09.27-.11 0 0l-.26.11a6.66 6.66 0 0 1-1 .27H29.67h-.36l-.48-.13-.47-.16-.2-.08.11.05-.11-.01a8 8 0 0 1-.86-.5l-.4-.3c-.14-.1.12.11.11.1l-.11-.09a1.52 1.52 0 0 0-.18-.17 6.87 6.87 0 0 1-.69-.74l-.16-.2c-.13-.17.17.24 0 0s-.2-.3-.29-.46-.15-.27-.22-.42l-.11-.22c0-.07-.16-.41 0 0-.12-.33-.22-.66-.31-1l-.09-.49c0-.3 0 .25 0 0v-.31a7.93 7.93 0 0 1 0-1.09 1.5 1.5 0 0 1 0-.22c0 .42 0 .12 0 0s.07-.36.11-.55l.13-.46.09-.24v-.11c.05-.15-.13.29 0 .08s.29-.61.46-.91l.25-.39c.17-.26-.14.18 0 0l.18-.23a7.83 7.83 0 0 1 .68-.73l.19-.16.08-.07s-.23.18-.12.1.28-.23.42-.32.57-.34.86-.49-.29.12 0 0l.23-.09.48-.16.49-.12h.23a7.1 7.1 0 0 1 1 0 1.29 1.29 0 0 0 1.26-1.33 1.33 1.33 0 0 0-1.26-1.34A8.08 8.08 0 0 0 23 29.31a8.55 8.55 0 0 0 2 9.59 8.26 8.26 0 0 0 4.56 2.16 7.68 7.68 0 0 0 4.74-1 8.51 8.51 0 0 0 3.32-3.53 8.77 8.77 0 0 0 .77-5.32A8.4 8.4 0 0 0 32 24.4a9 9 0 0 0-1.37-.17 1.3 1.3 0 0 0-1.26 1.33 1.33 1.33 0 0 0 1.26 1.35z"/><path class="cls-1" d="M30.73 28.94l.75 1.62a.4.4 0 0 0 .3.22l1.68.26a.4.4 0 0 1 .32.47.44.44 0 0 1-.11.24L32.45 33a.46.46 0 0 0-.11.37l.29 1.78a.42.42 0 0 1-.32.49.37.37 0 0 1-.25 0l-1.5-.84a.4.4 0 0 0-.37 0l-1.49.82a.38.38 0 0 1-.53-.17.45.45 0 0 1 0-.28l.29-1.78a.42.42 0 0 0-.16-.39l-1.21-1.26a.43.43 0 0 1 0-.59.48.48 0 0 1 .21-.15l1.7-.24a.4.4 0 0 0 .29-.23l.71-1.61a.39.39 0 0 1 .53-.19.46.46 0 0 1 .2.21z"/></svg>