<svg viewBox="0 0 60 60" xmlns="http://www.w3.org/2000/svg"><g fill="#010101"><path d="m7.12 41.57-1.78 4.43a1.39 1.39 0 0 0 1.33 1.75l18.22-.08 18.22-.09h10.26a1.39 1.39 0 0 0 1.19-.69 1.48 1.48 0 0 0 0-1.4q-.93-2.11-1.83-4.24a1.38 1.38 0 0 0 -1.2-.69h-4.7l1.38 1.39v-20.1a1.4 1.4 0 0 0 -1.38-1.38h-4.45a1.4 1.4 0 0 0 -1.38 1.38v20.08l1.39-1.38h-4l1.38 1.38-.17-16c0-1.51 0-3 0-4.53a1.4 1.4 0 0 0 -1.46-1.4h-4.68a1.4 1.4 0 0 0 -1.39 1.38v20.54l1.39-1.38h-6.25l1.38 1.38v-20.74a1.4 1.4 0 0 0 -1.38-1.39h-5.14a1.41 1.41 0 0 0 -1.38 1.39l-.18 16.17-.05 4.58 1.39-1.38h-4.69l1.38 1.38q-.16-8.09-.34-16.17c0-1.52-.07-3-.1-4.58a1.42 1.42 0 0 0 -1.39-1.39h-4.46a1.4 1.4 0 0 0 -1.38 1.39v20.75l1.38-1.38h-3.79a1.39 1.39 0 1 0 0 2.77h3.79a1.43 1.43 0 0 0 1.39-1.39v-20.75l-1.39 1.38h4.46l-1.38-1.38q.18 8.09.35 16.17c0 1.53.06 3 .1 4.58a1.41 1.41 0 0 0 1.38 1.39h4.69a1.41 1.41 0 0 0 1.38-1.39l.17-16.17c0-1.52 0-3.05.05-4.58l-1.38 1.38h5.13l-1.38-1.38v20.75a1.41 1.41 0 0 0 1.38 1.39h6.26a1.42 1.42 0 0 0 1.38-1.39v-20.52l-1.38 1.38h4.68l-1.39-1.38.18 16v4.53a1.4 1.4 0 0 0 1.38 1.38h4a1.4 1.4 0 0 0 1.38-1.38v-20.09l-1.38 1.39h4.45l-1.38-1.39v20.08a1.41 1.41 0 0 0 1.38 1.39h4.69l-1.2-.7q.93 2.13 1.83 4.24l1.2-2.07-18.22.09-18.15.12h-10.26l1.35 1.77 1.77-4.47a1.36 1.36 0 0 0 -.14-1.06 1.39 1.39 0 0 0 -.82-.64 1.42 1.42 0 0 0 -1.69.97z"/><path d="m7.87 21.72 6-6.92-1 .4 13.22-.08 13.29-.12h7.45l-1-.4 5.58 7.14 1-2.36h-45.52a1.39 1.39 0 0 0 0 2.77h45.53a1.37 1.37 0 0 0 1.26-.85 1.45 1.45 0 0 0 -.28-1.51l-3.18-4.08-1.61-2.07c-.23-.3-.47-.62-.71-.91-.52-.59-1.26-.49-2-.49l-10.35.07-20.55.11h-1.5a3.3 3.3 0 0 0 -.94.05 2 2 0 0 0 -.92.69l-1.9 2.16-3.82 4.44a1.38 1.38 0 1 0 2 2z"/></g></svg>