<svg id="Layer_1" data-name="Layer 1" xmlns="http://www.w3.org/2000/svg" viewBox="0 0 60 60"><defs><style>.cls-1{fill:#070707}</style></defs><path class="cls-1" d="M29.33 9.74L32 14.85l3.21 6.06a.61.61 0 0 0 .07.14c-.12-.17-.11-.27-.07-.13v-.23c0-.24.06-.32 0-.21s.19-.33 0-.11c0 0 .24-.27.09-.13.26-.24.22-.15.12-.1l.2-.09c-.11 0-.09 0 0 0 1-.16.13 0 .11 0a1.94 1.94 0 0 0-.59 0H24.12s.36.08.16 0c.34.12.23.12.14.06.19.16.24.19.13.09l.14.17c-.14-.21.1.29 0 .12s0 .26 0 .32v.12c0-.14 0-.1-.08.13a1.39 1.39 0 0 1 .11-.21l.54-1.06 1-2q2-3.94 4-7.92s.14-.2.12-.23-.24.29-.08.13c-.23.22-.24.17-.13.11L30 10h-.19-.18c.13 0 .09.07-.16-.08.19.11-.12-.11-.12-.11.19.18-.19-.31-.05-.07a1.44 1.44 0 0 0 2.48-1.45 2.2 2.2 0 0 0-3.56-.4A5.53 5.53 0 0 0 27.57 9l-2.15 4.23-2.16 4.27c-.35.72-.73 1.4-1.07 2.11a2.26 2.26 0 0 0 .41 2.69c.81.79 2.11.61 3.15.61h8.57c1.09 0 2.39.18 3.19-.74a2.27 2.27 0 0 0 .28-2.57l-.09-.16-.5-1-1.89-3.55-3.43-6.47-.07-.12a1.43 1.43 0 0 0-2-.52 1.47 1.47 0 0 0-.48 1.96zM17.67 35.63l2.6-4.89.6-1.15c.12-.21.22-.42.34-.62s.24-.28 0 0l-.16.12c-.21.08-.25.1-.1.06-.44.09-.1 0 0 0H39h-.21c.14 0 .11 0-.11-.05l-.16-.1c-.13-.18-.15-.21-.07-.08a2.38 2.38 0 0 1 .16.32l2.53 5 .59 1.17.06.11c.09.17.07.14 0-.1v-.24-.16c-.07.25.15-.27.06-.12s0 0 .12-.15c-.1.11-.06.08.13-.08-.24.14.35-.11.08 0 11.28-2.89.27 0 .23 0H17.14c-.13 0 .38.11.13 0l.21.09c-.12-.08-.09 0 .12.1-.2-.18.19.3.06.06l.09.22V35.55c0-.15 0-.1-.07.12a1.44 1.44 0 0 0-2.48-1.45 2.37 2.37 0 0 0-.2 1.68 2.26 2.26 0 0 0 1.44 1.45 2.67 2.67 0 0 0 .75.11h25.06a2.25 2.25 0 0 0 2.3-1.76 2.75 2.75 0 0 0-.39-1.85l-.7-1.38-1.29-2.55-.65-1.28a10.91 10.91 0 0 0-.69-1.31 2.25 2.25 0 0 0-1.83-1h-1.44l-11.72-.05h-4.3a3.81 3.81 0 0 0-1.89.27 2.78 2.78 0 0 0-1.1 1.27l-.72 1.35-1.31 2.5-1.33 2.49a1.44 1.44 0 0 0 2.48 1.46zm28.61 8.08L48.91 49l.66 1.32c.1.21.2.42.31.63s-.06-.14-.06-.15v-.2-.2c0 .04 0-.12.07-.15-.11.2.23-.22.06-.07 0 0 .28-.19.15-.12s.2-.08.18-.07c-.19.06.12 0 .15 0H9.55h.24c-.19 0 .11 0 .14.07-.21-.11.24.22.07 0 0 0 .2.28.12.15s.08.21.08.18c-.08-.22 0 .34 0 .11a1.3 1.3 0 0 1-.07.33c-.08.24 0 0 0-.06l1.37-2.57 1.32-2.63.66-1.32.16-.31a1.61 1.61 0 0 0 .15-.29c0 .06-.16.19-.19.21a.78.78 0 0 1-.27.14c.2-.06-.08 0-.13 0h33.61-.21c.06 0 .17.08 0 0a.75.75 0 0 1-.24-.15s-.19-.29-.07-.08a1.44 1.44 0 0 0 2.48-1.45 2.31 2.31 0 0 0-2.13-1.14H13.38a2.38 2.38 0 0 0-2 1 9.51 9.51 0 0 0-.67 1.31L10 44.74l-1.37 2.75L8 48.8a4.3 4.3 0 0 0-.64 1.76 2.24 2.24 0 0 0 2.21 2.27h40.89a2.23 2.23 0 0 0 2.21-2.27 4 4 0 0 0-.62-1.7l-.68-1.37-2.61-5.23a1.44 1.44 0 0 0-2-.52 1.48 1.48 0 0 0-.48 1.97z"/></svg>