<svg viewBox="0 0 60 60" xmlns="http://www.w3.org/2000/svg"><g fill="#010101"><path d="m16.47 7.63 20.77.11h5.83a1.3 1.3 0 0 0 0-2.6l-20.84-.08-5.76-.06a1.3 1.3 0 1 0 0 2.6z"/><path d="m15.21 6.25c-2.16 6.75-4.16 13.53-6.21 20.28q-.87 2.84-1.77 5.66a1.31 1.31 0 0 0 .9 1.6 1.34 1.34 0 0 0 1.6-.91c2.17-6.74 4.16-13.52 6.24-20.28q.87-2.83 1.77-5.66a1.29 1.29 0 0 0 -.9-1.6 1.34 1.34 0 0 0 -1.6.91z"/><path d="m42.6 6.91q2.53 10 5.73 19.87.9 2.76 1.84 5.5a1.3 1.3 0 1 0 2.51-.69q-3.37-9.77-6.1-19.76-.76-2.83-1.47-5.61a1.3 1.3 0 1 0 -2.51.69z"/><path d="m50.3 32.66c.06.32 0-.21 0 0a1.93 1.93 0 0 0 0 .24v.46a1.13 1.13 0 0 1 0 .25s0-.3 0 0-.05.33-.08.5l-.36 2.07-.7 4-1.42 8.15-.8 4.58a1.34 1.34 0 0 0 .13 1 1.28 1.28 0 0 0 .77.6 1.3 1.3 0 0 0 1.6-.91q1.46-8.3 2.9-16.61c.14-.78.27-1.56.41-2.34a7.37 7.37 0 0 0 .05-2.65 1.3 1.3 0 0 0 -1.6-.9 1.32 1.32 0 0 0 -.9 1.6z"/><path d="m7.11 32.77c.1 1.64.24 3.27.43 4.91.16 1.32.36 2.63.55 4l.07.51v.1-.2a.77.77 0 0 0 0 .15l.09.75.21 2c.15 1.34.3 2.67.5 4l.74 4.69a1.3 1.3 0 1 0 2.51-.69l-.62-4c-.06-.41-.13-.81-.19-1.22 0-.13-.07-.53 0 0 0-.12 0-.25-.05-.38-.08-.65-.15-1.28-.22-1.92-.14-1.27-.26-2.55-.43-3.82-.09-.65-.18-1.29-.28-1.93l-.12-.89-.06-.42c0-.22 0 .34 0 .07v-.24c-.23-1.79-.38-3.58-.5-5.38a1.33 1.33 0 0 0 -1.3-1.3 1.31 1.31 0 0 0 -1.3 1.3z"/><path d="m11.44 54.57c4.74.23 9.49.22 14.24.24l14.34.1 8.07.06a1.3 1.3 0 0 0 0-2.6l-14.3-.1-14.33-.1c-2.68 0-5.35-.07-8-.2a1.3 1.3 0 0 0 -1.29 1.3 1.32 1.32 0 0 0 1.29 1.3z"/><path d="m20.69 47.09c2-.05 4-.1 6-.11s4.16 0 6.24.07c1.41.07 2.83.1 4.25.1a1.3 1.3 0 0 0 0-2.6c-2.13 0-4.25-.15-6.38-.16s-4.21 0-6.31 0l-3.83.08a1.3 1.3 0 1 0 0 2.6z"/><path d="m9.36 33.57a58.36 58.36 0 0 1 11.29.22 1.35 1.35 0 0 0 .91-.39 1.3 1.3 0 0 0 .38-.92 1.33 1.33 0 0 0 -1.3-1.3 59.16 59.16 0 0 0 -11.29-.18 1.31 1.31 0 0 0 -1.3 1.3 1.32 1.32 0 0 0 1.3 1.3z"/><path d="m19.37 32.92 1.44 4.82a1.3 1.3 0 0 0 2.51-.69l-1.45-4.82a1.3 1.3 0 1 0 -2.5.69z"/><path d="m22.35 38.79c2.9.1 5.81.13 8.72.18 1.44 0 2.88.05 4.31.09a8.75 8.75 0 0 0 2.17 0 2.44 2.44 0 0 0 1.68-1.85c.48-1.57 1-3.15 1.43-4.72l-1.26 1 11.41.39a1.3 1.3 0 0 0 0-2.6l-11.41-.47a1.32 1.32 0 0 0 -1.25 1c-.4 1.32-.8 2.63-1.19 3.95-.1.31-.2.61-.28.92s0-.07 0-.08v.08c-.06.09 0 .09 0 0v-.07c-.09.1-.07.08.09 0-.21.13.26-.1 0 0s-.12 0 .11 0h-.63-1.08c-2.75-.08-5.49-.1-8.23-.15-1.56 0-3.12-.06-4.69-.12a1.31 1.31 0 0 0 -1.3 1.3 1.32 1.32 0 0 0 1.3 1.3z"/><path d="m18.37 31.08-.46-5.92-1.29 1.3q10.45.27 20.93.31h5.94l-1.26-1.65a64.46 64.46 0 0 0 -1.17 7 1.26 1.26 0 0 0 .38.92 1.3 1.3 0 0 0 .92.38 1.34 1.34 0 0 0 1.3-1.3c0-.28.06-.56.1-.84 0-.06.06-.52 0-.17l.06-.42c.07-.54.16-1.08.25-1.62.19-1.08.41-2.18.65-3.26a1.32 1.32 0 0 0 -.94-1.61 1.65 1.65 0 0 0 -.31 0q-10.47 0-20.92-.2l-5.93-.14a1.31 1.31 0 0 0 -1.3 1.3l.45 5.92a1.3 1.3 0 0 0 2.6 0z"/><path d="m21.1 24.47c-.19-1-.38-1.94-.52-2.92a.59.59 0 0 0 0-.14c0-.22 0 .3 0 .14v-.31c0-.21-.05-.43-.07-.65-.06-.58-.11-1.17-.16-1.76l-1.35 1.29q8.65-.3 17.35-.14c1.65 0 3.31.08 5 .14l-1.25-1.65-1.28 5.53a1.3 1.3 0 1 0 2.51.69l1.25-5.56a1.32 1.32 0 0 0 -.95-1.61h-.3q-8.65-.3-17.36-.13c-1.65 0-3.3.08-4.95.14a1.32 1.32 0 0 0 -1.3 1.3c.08 1.13.18 2.25.34 3.37s.35 2 .53 3a1.31 1.31 0 0 0 1.6.91 1.34 1.34 0 0 0 .91-1.6z"/><path d="m23.91 17.56-1-5.94-1.25 1.65c4.15-.13 8.31-.21 12.46-.08 1.32 0 2.65.1 4 .16l-1.26-1.64c-.38 1.8-.73 3.62-1.12 5.41a1.3 1.3 0 0 0 2.51.7c.39-1.81.73-3.63 1.12-5.42a1.31 1.31 0 0 0 -.95-1.6 1.57 1.57 0 0 0 -.3-.05q-6.32-.32-12.61-.18c-1.28 0-2.55.06-3.82.1a1.28 1.28 0 0 0 -1 .51 1.35 1.35 0 0 0 -.24 1.13l1 6a1.3 1.3 0 0 0 1.6.9 1.34 1.34 0 0 0 .9-1.6z"/></g></svg>