<svg xmlns="http://www.w3.org/2000/svg" viewBox="0 0 180.2 30" xml:space="preserve"><path class="prefix__st0" d="M27.4 3.4C27.4 1.5 25.9 0 24 0s-3.4 1.5-3.4 3.4v.1L6.1 8.2c-1-1.6-3.1-2-4.6-.9C0 8.3-.4 10.4.6 12c.6.9 1.7 1.5 2.8 1.5.3 0 .7-.1 1-.2l9.6 12c-.7 1.7.1 3.7 1.8 4.4 1.7.7 3.7-.1 4.4-1.8.6-1.3.2-2.9-.9-3.9l5.1-17.4c1.7-.1 3-1.5 3-3.2zM17.1 23.2c-.5 0-1 .1-1.5.4L6.2 11.7c.3-.4.4-.9.5-1.4l14.9-4.8.5.5-5 17.2z"/><path class="prefix__st1" d="M37.2 4.2h8c4.1 0 6.9 2.3 6.9 6.2 0 4.1-3 6.3-7.1 6.3h-5v8.7h-2.8V4.2zm2.9 10H45c2.9 0 4.3-1.4 4.3-3.9S47.5 6.5 45 6.5h-5l.1 7.7zM55.3 14.1V9.9h2.6c0 .4.1 1.6.1 3.1.8-2.1 2.9-3.5 5.2-3.5v2.6C60 12.3 58 14 58 17.8v7.4h-2.7V14.1zM78.9 17.6c0 4.4-2.5 8.1-7.2 8.1-4.4 0-7.1-3.4-7.1-8s2.6-8.1 7.2-8.1c4.3-.1 7.1 3.1 7.1 8zm-11.6 0c0 3.4 1.7 5.9 4.4 5.9s4.4-2.3 4.4-5.8-1.6-5.9-4.4-5.9c-2.8-.1-4.4 2.3-4.4 5.8zM80.4 9.9h2.7V5.4h2.6v4.5h3.4V12h-3.4v9c0 1.5.4 2.3 1.8 2.3.4 0 .9 0 1.3-.1v2c-.8.2-1.5.3-2.3.3-2.4 0-3.4-1.2-3.4-3.8v-9.6h-2.7V9.9zM105.1 17.6c0 4.4-2.5 8.1-7.2 8.1-4.4 0-7.1-3.4-7.1-8s2.6-8.1 7.2-8.1c4.3-.1 7.1 3.1 7.1 8zm-11.6 0c0 3.4 1.7 5.9 4.4 5.9s4.4-2.3 4.4-5.8-1.6-5.9-4.4-5.9c-2.9-.1-4.4 2.3-4.4 5.8zM108.5 13.8V9.9h2.6c.1.8.1 1.7.1 2.5.8-1.9 2.8-3 4.8-2.9 3 0 5.2 1.8 5.2 5.9v9.9h-2.7v-9.6c0-2.3-.9-3.9-3.2-3.9-3 0-4.1 2.2-4.1 5.3v8.1h-2.7V13.8zM129.8 25.3l-7.7-21.1h3l3.7 10.5c1.1 3.1 2.2 6.2 2.6 8.2.5-1.7 1.6-5 2.8-8.1l3.9-10.6h2.9l-7.9 21.1h-3.3zM144.3 4.2h8c4.1 0 6.9 2.3 6.9 6.2 0 4.1-3 6.3-7.1 6.3h-5v8.7h-2.8V4.2zm2.8 10h4.9c2.9 0 4.3-1.4 4.3-3.9s-1.8-3.9-4.3-3.9h-5l.1 7.8zM163.2 25.3V4.2h3.7c3 4.9 9.6 15.4 10.8 17.8-.2-2.7-.2-6-.2-9.5V4.2h2.6v21.1h-3.5c-2.8-4.6-9.7-15.9-11-18.2.1 2.4.1 5.9.1 9.8v8.4h-2.5z"/></svg>
