<svg xmlns="http://www.w3.org/2000/svg" viewBox="0 0 147.3 30" xml:space="preserve"><path class="prefix__st0" d="M28.3 0H1.7C.7 0 0 .7 0 1.7v26.5c0 1 .8 1.7 1.7 1.7h26.6c.9 0 1.7-.7 1.7-1.7V1.7c.1-1-.7-1.7-1.7-1.7zM8.2 6.3c0-.1.1-.1.1-.1H11c.1 0 .1.1.1.1v2.5c0 .1-.1.1-.1.1H8.4c-.1 0-.1-.1-.1-.1V6.3zM23 19c0 3.1-2.6 4.8-6.6 4.8h-8c-.1 0-.1-.1-.1-.1V11.2c0-.1.1-.1.1-.1h2.7c.1 0 .1.1.1.1v9.7c0 .1.1.1.1.1h5c2.1 0 3.4-.8 3.4-2.4v-.1c0-1.5-1.1-2.3-3.6-2.3h-2.7c-.1 0-.1-.1-.1-.1v-2.3c0-.1.1-.1.1-.1h1.9c2 0 3.3-.8 3.3-2.4v-.1c0-1.4-1.1-2.3-3.1-2.3l-2.1-.1c-.1 0-.3-.1-.3-.3V6.2c0-.1.1-.1.1-.1h2.7c2 0 3.6.5 4.6 1.5.8.8 1.2 1.7 1.2 2.9v.1c0 2-1.1 3.1-2.3 3.8-.1.1-.1.2 0 .3 2.2.8 3.6 2 3.6 4.3zM40 6.2h2.5v17.7H40zM53.5 10.9c-2.7 0-4.3 1.8-4.8 2.9h-.1s.1-.5.1-.9v-1.7h-2.3v12.6h2.4v-6c0-.6.1-1.2.2-1.7.5-1.8 2.1-3.1 4-3.1 2 0 2.4 1.4 2.4 3.2v7.6h2.4v-8.1c.1-3.2-1.3-4.8-4.3-4.8zM62.9 14.5c0-1.1 1-1.5 2.1-1.5 2 0 3.1 1.1 3.1 1.1l1-1.8s-1.3-1.4-4.1-1.4c-2.5 0-4.6 1.3-4.6 3.6 0 4.1 6.5 3.6 6.5 6 0 1.1-1 1.6-2.1 1.6-2.2 0-3.6-1.5-3.6-1.5l-1.3 1.7s1.7 1.9 4.8 1.9c2.7 0 4.6-1.6 4.6-3.7.1-4.2-6.4-3.8-6.4-6zM75.1 19v-5.6h3.1v-1.9h-3.1V7.7h-2.3v3.7H71v1.9h1.7l-.1 5.9c0 4.3 3.3 4.8 4.9 4.8.5 0 .9-.1.9-.1v-2.1s-.3.1-.6.1c-.9-.1-2.7-.4-2.7-2.9zM85.5 10.8c-2.9 0-4.8 1.5-4.8 1.5l1 1.8s1.6-1.2 3.5-1.2c1.6 0 2.8.7 2.8 2.8v.2h-.5c-2.1 0-7.6.1-7.7 4.3 0 2.5 2.1 3.9 4.3 3.9 3.1 0 4.1-2.5 4.1-2.5h.1s-.1.4-.1 1v1.2h2.3v-8c0-3.2-1.8-5-5-5zm2.6 7.3c0 1.9-1.3 4-3.3 4-1.6 0-2.4-1-2.4-2 0-2.3 3.3-2.4 5.2-2.4h.6v.4zM100.4 10.8c-3 0-4.1 2.1-4.1 2.1h-.1s.1-.5.1-1.1V6.2h-2.4l.1 17.6h2.3v-.9c0-.5-.1-.9-.1-.9h.1s1.1 2.2 4 2.2c3.3 0 5.8-2.6 5.8-6.6-.2-4.1-2.3-6.8-5.7-6.8zm-.6 11.3c-2.4 0-3.6-2.3-3.6-4.6 0-3.2 1.8-4.6 3.7-4.6 2.1 0 3.6 1.8 3.6 4.6 0 2.9-1.6 4.6-3.7 4.6zM113.2 10.8c-2.9 0-4.8 1.5-4.8 1.5l1 1.8s1.6-1.2 3.5-1.2c1.6 0 2.8.7 2.8 2.8v.2h-.5c-2.1 0-7.6.1-7.7 4.3 0 2.5 2.1 3.9 4.3 3.9 3.1 0 4.1-2.5 4.1-2.5h.1s-.1.4-.1 1v1.2h2.3v-8c0-3.2-1.8-5-5-5zm2.6 7.3c0 1.9-1.3 4-3.4 4-1.5 0-2.3-1-2.3-2 0-2.3 3.3-2.4 5.2-2.4h.6l-.1.4zM128.7 10.9c-2.7 0-4.3 1.8-4.8 2.9h-.1s.1-.5.1-.9v-1.7h-2.3v12.6h2.4v-6c0-.6.1-1.2.2-1.7.5-1.8 2.1-3.1 4-3.1 2 0 2.4 1.4 2.4 3.2v7.6h2.4v-8.1c.1-3.2-1.3-4.8-4.3-4.8zM142.6 16.8v-.1l4.3-5.6h-2.8l-3.5 4.7h-1.8V6.2h-2.4l.1 17.6h2.4v-5.9h1.8l3.8 5.9h2.8z"/></svg>
