<svg xmlns="http://www.w3.org/2000/svg" viewBox="0 0 103.7 30" xml:space="preserve"><path class="prefix__st0" d="M70.2 8.4c-1.2 0-2.3.5-3 1.2-.7-.8-1.8-1.2-2.9-1.2h-.1c-2.3 0-4.1 1.8-4.1 4.1v8c0 .6.5 1.1 1.2 1.1.6 0 1.1-.5 1.2-1.1v-8c0-1 .8-1.8 1.8-1.8h.1c.9 0 1.7.7 1.8 1.7v8.1c0 .2.1.5.2.6.2.3.5.5.9.5.6 0 1.1-.5 1.2-1.1v-8c0-.9.8-1.7 1.8-1.7h.1c1 0 1.8.8 1.8 1.8v7.9c0 .6.5 1.1 1.2 1.1.6 0 1.1-.5 1.2-1.1v-8c-.3-2.3-2.2-4.1-4.4-4.1zM56.3 8.4c-.6 0-1.2.5-1.2 1.1v8c0 1-.8 1.8-1.8 1.8h-.1c-1 0-1.8-.8-1.8-1.8v-8c0-.6-.5-1.1-1.2-1.1-.6 0-1.2.5-1.2 1.1v8c0 2.3 1.9 4.1 4.1 4.1h.1c2.3 0 4.1-1.8 4.1-4.1v-8c.2-.7-.3-1.1-1-1.1zM84 8.4c-.6 0-1.2.5-1.2 1.1v8c0 1-.8 1.8-1.8 1.8s-1.8-.8-1.8-1.8v-8c0-.6-.5-1.1-1.2-1.1s-1.2.5-1.2 1.1v8c0 2.3 1.9 4.1 4.1 4.1h.1c2.3 0 4.1-1.8 4.1-4.1v-8c.1-.7-.4-1.1-1.1-1.1zM91.8 8.4c-2.4 0-4.3 1.9-4.3 4.2V27c0 .6.5 1.2 1.2 1.2.6 0 1.2-.5 1.2-1.2v-6c.5.4 1.2.6 1.9.6h.1c2.3 0 4.1-2 4.1-4.3v-4.8c-.1-2.4-1.9-4.1-4.2-4.1zm1.8 8.9c0 1.3-.8 1.8-1.8 1.8h-.1c-1 0-1.8-.5-1.8-1.8v-4.8c0-1 .8-1.8 1.8-1.8h.1c1 0 1.8.8 1.8 1.8v4.8zM43.4 13.5c-1.3-.5-2.1-.9-2.1-1.6 0-.6.5-1.3 1.6-1.3.7 0 1.3.3 1.7.9.3.4.6.5.9.5.7 0 1.2-.5 1.2-1.2 0-.2-.1-.5-.2-.6-.7-1.1-2.2-1.9-3.7-1.9-2 0-4 1.2-4 3.5 0 2.4 2 3.2 3.6 3.8 1.3.5 2.4.9 2.4 2 0 .8-.7 1.6-2.1 1.6-.4 0-1.2-.1-1.7-.7-.3-.3-.6-.5-.9-.5-.6 0-1.2.5-1.2 1.2 0 .2.1.5.2.7.7 1.1 2.4 1.7 3.7 1.7 2.2 0 4.5-1.3 4.5-3.9-.1-2.7-2.2-3.5-3.9-4.2zM28.1 0H2.2C1 0 0 .9 0 2.1v25.7C0 29.1 1 30 2.2 30H28c1.2 0 2.2-.9 2.2-2.1V2.1c0-1.2-.9-2.1-2.1-2.1zM19 22.6c-2.7 2.6-6.9 2.7-9.6.3-.2-.2-.2-.4 0-.6l9.4-9.3c.2-.2.5-.2.6 0 2.3 2.7 2.2 6.9-.4 9.6zm1.9-14.9L11.6 17c-.2.2-.5.2-.6 0-2.4-2.7-2.3-7 .3-9.6s6.9-2.7 9.6-.3c.2.2.2.4 0 .6zM101.4 8.4c-1.3 0-2.3 1-2.3 2.3s1 2.3 2.3 2.3c1.3 0 2.3-1 2.3-2.3 0-1.3-1-2.3-2.3-2.3zm0 4c-1 0-1.8-.8-1.8-1.8s.8-1.7 1.8-1.7 1.8.8 1.8 1.7c-.1 1-.9 1.8-1.8 1.8z"/><path class="prefix__st0" d="M101.6 10.8c.3-.1.5-.3.5-.6 0-.4-.3-.6-.7-.6h-.6c-.1 0-.2.1-.2.2v1.6c0 .2.1.2.2.2.2 0 .2-.1.2-.2v-.6l.6.7c.1.1.1.1.2.1.2 0 .2-.2.2-.2 0-.1 0-.1-.1-.2l-.3-.4zm-.2-.4h-.3V10h.3c.1 0 .2.1.2.2s0 .2-.2.2z"/></svg>
