<svg xmlns="http://www.w3.org/2000/svg" viewBox="0 0 161.6 30" xml:space="preserve"><path class="prefix__st0" d="m16.6 0 15.2 23.3L3.7 2.5c-4.9 3.4-5.1 9.6.4 15.8 7.1 8.1 21 13.2 31.1 11.3 10.1-1.9 12.5-10 5.4-18.1C35.1 5.2 25.5.8 16.6 0zM153.1.3h-4.8l-8.2 29.5h6.1l3.5-14c.5-1.8.6-3.4.9-5.2h.1c.3 1.6.5 3.4 1 5.1l3.5 14.2h6.3L153.1.3zM67.6 14.2c-.5 1.8-.6 3.4-.9 5.2h-.1c-.3-1.6-.5-3.4-1-5.1L62 .2h-6.2l8.5 29.6h4.8L77.2.2h-6.1l-3.5 14zM81.6.2h5.8v29.6h-5.8zM125.8.2l-2.4 17.5L120.5.2v.1h-7.9l-2.5 29.5h6.3l.8-21.4h.1v.5l1 6.6 2.9 14.2h4.6l2.5-13.9.9-7.4h.1l1.4 21.3h6L133.6.2zM101.2 12.4c-1.4-2.5-3-5.3-1.5-9 .5-1.3 1.3-2.4 2.3-3.2h-7s-.5 1-.8 1.5c-2.5 5.9-.1 10.1 2 14.3 1.9 3.4 3.8 7 2.2 10.9-.5 1.1-1.4 2.2-2.2 2.8h7.1s.4-.8.5-1.1c2.4-5.7 1.1-9.6-2-15.1-.2-.3-.3-.7-.6-1.1z"/></svg>
