<svg xmlns="http://www.w3.org/2000/svg" viewBox="0 0 85.6 30" xml:space="preserve"><path class="prefix__st0" d="M36.4 18c-.2 0-.4-.1-.6-.1-.1-.1-.3-.1-.4-.2-.1-.1-.1-.2-.2-.3L31.6 12v5.4c0 .1-.1.2-.1.3-.1.1-.2.1-.4.2s-.3.1-.5.1H29c-.2 0-.4-.1-.5-.1-.1-.1-.3-.1-.4-.2-.1-.1-.1-.2-.1-.3V.7c0-.1.1-.2.1-.3.1-.1.2-.1.4-.2s.3-.1.5-.1c.3-.1.5-.1.9-.1s.6 0 .8.1c.2 0 .4.1.5.1s.3.1.4.2c.1.1.1.2.1.3v9.4l3-4.1c.1 0 .2-.2.3-.3.1-.1.2-.1.4-.2.1-.1.4-.1.6-.1h1.6c.2 0 .4.1.6.1.1.1.3.1.4.2.1.1.1.2.1.4 0 .1-.1.3-.1.5s-.1.3-.3.5L35 10.8l3.8 5.8c.1.1.2.3.2.4.1.1.1.3.1.4s0 .2-.1.3c-.1.1-.2.1-.4.2s-.3.1-.5.1H36.4M85.4 7.8c-.2-.6-.5-1.1-.9-1.5-.4-.4-1-.7-1.7-.8-.7-.1-1.5-.3-2.4-.3-.5 0-1 .1-1.5.1-.5.1-.9.2-1.4.3-.4.1-.8.3-1.1.4-.3.1-.5.3-.7.4-.1.1-.2.3-.3.5-.1.1-.1.4-.1.7 0 .2 0 .4.1.6 0 .1.1.4.1.4.1.1.1.2.2.3s.2.1.4.1.4-.1.7-.2c.2-.1.5-.2.8-.4s.7-.3 1.1-.4c.4-.1.9-.1 1.4-.1.4 0 .7.1 1 .1.3.1.4.2.6.4s.3.4.3.6v1.5h-.9c-1 0-2 .1-2.8.2-.8.1-1.5.4-2 .7-.5.4-.9.8-1.2 1.2-.3.5-.4 1.1-.4 1.8s.1 1.2.3 1.7.5.9.9 1.2c.4.4.9.6 1.4.7s1.2.2 1.7.2c.8 0 1.5-.1 2.1-.4.5-.2.9-.6 1.4-.9v.4c0 .1.1.3.1.4.1.1.3.1.4.2.2 0 .5.1.9.1s.7 0 .9-.1c.2 0 .4-.1.5-.1s.2-.2.2-.4V9.9c.2-.8.1-1.5-.1-2.1zm-3.2 6.7c-.4.4-.7.7-1.1.9s-.7.3-1.2.3-.9-.1-1.2-.4-.4-.6-.4-1c0-.3.1-.5.1-.7.1-.2.2-.4.4-.5.2-.1.5-.2.9-.3s.8-.1 1.3-.1h1.1v1.8zM72.9 8.6c-.2-.7-.6-1.3-1-1.8s-1-.9-1.7-1.2c-.7-.3-1.5-.4-2.5-.4-.9 0-1.8.1-2.5.4s-1.4.7-1.9 1.3c-.5.6-.9 1.3-1.2 2.1-.3.8-.4 1.7-.4 2.8 0 1.1.1 2 .4 2.8.3.8.7 1.5 1.2 2s1.2.9 2 1.2c.8.3 1.7.4 2.8.4.6 0 1.1-.1 1.6-.1.5-.1.9-.1 1.4-.3.4-.1.7-.2.9-.3.3-.1.4-.1.5-.3.1-.1.1-.1.1-.2.1-.1.1-.1.1-.3 0-.1.1-.2.1-.4v-1c0-.1-.3-.3-.3-.3-.1-.1-.1-.2-.2-.2-.1-.1-.1-.1-.3-.1s-.4.1-.6.1-.4.2-.8.3c-.3.1-.7.1-1.1.3-.4.1-.9.1-1.5.1s-1-.1-1.4-.2c-.4-.1-.7-.3-.9-.6s-.4-.6-.5-.9c-.1-.3-.1-.7-.1-1.1H72c.4 0 .7-.1.9-.4.2-.2.3-.6.3-.9v-.5c-.1-.9-.1-1.6-.3-2.3zm-7.7 1.6c0-.3.1-.6.1-.9s.2-.6.4-.9c.2-.2.4-.4.7-.6s.6-.2 1-.2c.8 0 1.3.2 1.7.7.4.4.5 1 .5 1.8h-4.4zM50.7 8.6c-.2-.7-.6-1.3-1-1.8s-1-.9-1.7-1.2c-.7-.3-1.5-.4-2.5-.4-.9 0-1.7.1-2.5.4-.7.3-1.4.7-2 1.3-.6.6-1 1.3-1.3 2.1-.3.8-.4 1.7-.4 2.8 0 1.1.1 2 .4 2.8.3.8.7 1.5 1.2 2 .6.6 1.2.9 2 1.2.8.3 1.7.4 2.8.4.6 0 1.1-.1 1.6-.1s.9-.1 1.4-.3c.4-.1.7-.2 1-.3.3-.1.4-.1.5-.3.1-.1.1-.1.1-.2.1-.1.1-.1.1-.3s0-.2.1-.4v-1.1c0-.1-.1-.3-.1-.4-.1-.1-.1-.2-.2-.2-.1-.1-.1-.1-.3-.1-.1 0-.4.1-.6.1-.2.1-.4.1-.8.3-.4.1-.7.1-1.1.3-.4.1-.9.1-1.5.1-.5 0-1-.1-1.4-.2-.4-.1-.7-.4-.9-.6-.2-.3-.4-.6-.5-.9-.1-.4-.1-.7-.1-1.1h6.9c.4 0 .7-.1.9-.4.2-.2.3-.6.3-1v-.4c0-.7-.2-1.4-.4-2.1zM43 10.3c0-.3.1-.6.1-.9.1-.4.2-.6.4-.9.3-.1.5-.4.8-.5s.6-.2 1-.2c.8 0 1.3.2 1.7.7.4.4.5 1 .5 1.8H43zM19.5 17.8c-.7-.3-1.3-.7-1.8-1.2s-.9-1.2-1.1-2c-.2-.8-.4-1.7-.4-2.6 0-1.2.1-2.1.4-3 .3-.9.7-1.5 1.2-2.1.6-.6 1.2-.9 2-1.2s1.5-.4 2.4-.4c.4 0 .7 0 1 .1.4.1.7.1.9.2.3.1.6.2.8.4.2.1.4.2.5.4.1.1.1.1.2.3.1.1.1.2.1.3 0 .1.1.2.1.4V8c0 .5-.1.9-.1 1.1-.1.2-.3.4-.5.4s-.4-.1-.6-.2c-.1-.1-.4-.2-.6-.4-.2-.1-.5-.3-.8-.4-.3-.1-.7-.1-1.1-.1-.8 0-1.4.3-1.8.9-.4.6-.7 1.5-.7 2.7 0 .6.1 1.1.1 1.6.1.4.3.8.5 1.1s.4.5.8.7c.3.1.7.2 1.1.2s.8-.1 1.1-.2c.3-.1.6-.3.8-.4.2-.1.4-.3.6-.4s.4-.2.5-.2c.1 0 .2 0 .3.1.1.1.1.2.1.3 0 .1.1.3.1.4V16.5c0 .1 0 .3-.1.4 0 .1-.1.2-.1.3-.1.1-.1.1-.2.3-.1.1-.3.2-.6.4-.3.1-.6.3-.9.4s-.7.2-1.1.3-.8.1-1.2.1c-.4-.5-1.3-.6-1.9-.9M55.9 17.9c-.5-.1-.9-.4-1.2-.8-.3-.4-.6-.8-.7-1.3-.1-.6-.2-1.2-.2-1.9V8.4h-1.2c-.2 0-.4-.1-.5-.4-.1-.2-.1-.6-.1-1.1 0-.2 0-.4.1-.7-.1-.2-.1-.3-.1-.5.1-.1.1-.2.2-.3.1-.1.2-.1.3-.1h1.2V3.1c0-.1.1-.2.1-.3.1-.1.2-.1.4-.2.1-.1.3-.1.6-.1h1.6c.2 0 .4.1.5.1.1.1.3.1.4.2.1.1.1.2.1.3v2.3h2.3c.1 0 .2 0 .3.1.1.1.1.1.2.3.1.1.1.3.1.4v.7c0 .5-.1.8-.1 1.1-.1.2-.3.4-.5.4h-2.3v5.2c0 .6.1 1 .3 1.3.1.2.4.4.9.4.1 0 .3 0 .4-.1.1 0 .3-.1.4-.1.1-.1.2-.1.3-.1h.3c.1 0 .1 0 .2.1s.1.1.2.3c0 .1.1.2.1.4v.6c0 .4 0 .7-.1.9-.1.2-.1.4-.2.5-.1.1-.2.2-.4.3-.1.1-.4.1-.6.1-.2.1-.4.1-.7.1-.2 0-.5.1-.7.1-.8-.2-1.4-.3-1.9-.5M10.5 3.7c-.3-.3-.4-.7-.4-1.4s.1-1.2.4-1.5c.3-.3.9-.4 1.6-.4.7 0 1.2.1 1.6.4.3.3.4.8.4 1.4 0 .7-.1 1.2-.4 1.5s-.9.4-1.6.4c-.7 0-1.3-.1-1.6-.4M12.8 5.4c.4 0 .7.1.9.3.2.2.3.4.3.8v10.8c0 .1-.1.2-.1.3-.1.1-.2.1-.4.2s-.3.1-.5.1h-1.6c-.2 0-.4-.1-.5-.1-.1-.1-.3-.1-.4-.2-.1-.1-.1-.2-.1-.3v-9H5.5v5.2c0 .6.1 1 .3 1.3.2.2.4.4 1 .4.1 0 .3 0 .4-.1.1 0 .3-.1.4-.1h.2c.1-.1.1-.1.3-.1.1 0 .1 0 .2.1s.1.1.2.3c0 .1.1.2.1.4s.1.4.1.6c0 .4 0 .7-.1.9-.1.2-.1.4-.2.5-.1.1-.2.2-.4.3-.2-.1-.4 0-.6 0-.2.1-.4.1-.7.1-.4.1-.7.1-.9.1-.7 0-1.2-.1-1.7-.2s-.9-.4-1.2-.8c-.4-.4-.6-.8-.7-1.3-.2-.6-.3-1.2-.3-1.9V8.4H.7C.4 8.4.2 8.3.1 8c0-.3-.1-.7-.1-1.1 0-.2 0-.4.1-.7v-.4c.1-.1.1-.2.2-.3.1-.1.2-.1.4-.1H2V2.8c.1-.1.2-.1.4-.2.1-.1.3-.1.5-.2h1.6c.2 0 .4.1.5.1.1.1.3.1.4.2V5.3l7.4.1z"/><g><path class="prefix__st1" d="M33.212 28.08v-3.7h-.8v-1.2h.8v-1.8l1.3-.3v2.1h.9v1.2h-.9v3.7zM19.312 27.98l-1.9-4.8h1.4l1.2 3.2 1.2-3.2h1.4l-2 4.8zM37.112 25.58c0 .7.7 1.3 1.4 1.3s1.4-.7 1.4-1.4-.6-1.3-1.4-1.3c-.7 0-1.3.6-1.4 1.3v.1zm-1.2 2.4v-7.3l1.2-.3v3c.4-.3.9-.4 1.3-.4 1.5 0 2.5 1.2 2.5 2.5s-1.2 2.5-2.5 2.5c-.5 0-.9-.1-1.3-.4v.3l-1.2.1zM44.512 27.98h1.2v-4.9h-1.2v4.9zm-.2-6.6c0-.5.4-.9.8-.9s.8.4.8.9-.4.9-.8.9c-.4-.1-.8-.4-.8-.9zM44.112 23.18c-.7 0-1 .1-1.4.4v-.4h-1.2v4.9h1.2v-2.4c0-.7.1-1.2 1.4-1.2v-1.3zM47.012 27.98v-3.7h-.7v-1.2h.7v-1.7h1.3v1.7h1v1.2h-1v3.7zM24.512 24.28c.6-.2 1.1 0 1.4.5l-2.4.6c0-.6.4-1.1 1-1.1zm1.4 2.1c-.3.3-.6.5-.8.6-.6.1-1.2-.2-1.5-.6l2.5-.6.4-.1.8-.2c0-.1 0-.4-.1-.5-.3-1.4-1.6-2.3-3-2s-2.2 1.7-1.9 3.1c.3 1.4 1.7 2.3 3.1 2 .8-.2 1.5-.7 1.7-1.5l-1.2-.2zM51.512 24.28c.6-.1 1.1.1 1.5.6l-2.5.6c.1-.7.5-1.2 1-1.2zm1.5 2.1c-.2.3-.5.5-.8.6-.6.1-1.2-.1-1.5-.6l2.5-.6.4-.1.8-.1c0-.1 0-.4-.1-.5-.3-1.4-1.7-2.3-3.1-2s-2.1 1.7-1.8 3.1 1.7 2.3 3.1 2c.8-.2 1.5-.7 1.7-1.5l-1.2-.3zM15.012 24.28c.5-.1 1.1.1 1.4.5l-2.5.6c.1-.6.6-1.1 1.1-1.1zm1.5 2.1c-.2.3-.5.5-.9.6-.6.1-1.2-.1-1.5-.6l2.5-.6.4-.1.8-.2c0-.1 0-.4-.1-.5-.3-1.4-1.7-2.3-3.1-1.9-1.2.3-2 1.7-1.7 3.1s1.7 2.3 3.1 2c.7-.3 1.4-.8 1.6-1.5l-1.1-.3zM30.912 27.98v-2.6c0-.9-.5-1.2-1-1.2s-1 .2-1 1.2v2.6h-1.2v-4.9h1.2v.4c.3-.2.6-.4 1.3-.4 1.1 0 2 .7 2 2.2v2.8h-1.3z"/></g><path class="prefix__st1" d="M6.5 25.6c0 .5-.1.9-.2 1.3s-.4.7-.7.9c-.4.2-.7.3-1.2.3-.4 0-.7-.1-1-.2-.3-.1-.5-.4-.7-.7v.8H2v-7h.8v2.9c.2-.3.4-.5.7-.6.2-.1.5-.1.9-.1s.9.1 1.2.3c.4.2.6.5.7.9.2.4.2.8.2 1.2zm-.8 0c0-.4-.1-.7-.2-1s-.3-.5-.5-.6-.5-.2-.8-.2-.6.1-.8.2c-.2.1-.4.3-.5.6-.1.3-.2.6-.2.9v.2c0 .4.1.7.2.9.1.3.3.4.5.6.2.1.5.2.8.2s.6-.1.8-.2.4-.4.5-.6c.2-.2.2-.5.2-1zm5.8-2.4L8.6 30h-.8l.9-2-2-4.7h.9l1.5 3.8 1.6-3.8h.8z"/></svg>
