<svg xmlns="http://www.w3.org/2000/svg" viewBox="0 0 103.8 30" xml:space="preserve"><path class="prefix__st0" d="M53.3 12.7c-.9 0-1.6.4-2.1 1-.3-.7-.9-1-1.8-1-.8 0-1.5.3-2 .8l-.1-.7h-1.7v6.8h1.9v-4.8c.3-.5.6-.7 1.1-.7.3 0 .6.1.8.3.2.2.3.5.3.8v4.3h1.8V15c.2-.5.6-.7 1.1-.7.5 0 .8.1.8.3.1.2.2.5.2.8v4.3h1.9v-4.3c0-.9-.2-1.5-.6-2-.2-.5-.8-.7-1.6-.7zM43.4 10.2c-.3 0-.6.1-.8.3-.2.2-.3.4-.3.7 0 .2.1.5.3.7s.5.3.8.3.6-.1.8-.3c.2-.2.3-.4.3-.7 0-.2-.1-.5-.3-.7-.2-.2-.5-.3-.8-.3zM34.1 12h2.8v7.7h1.9v-7.6h2.8v-1.6h-7.5zM59.7 12.7c-.7 0-1.2.2-1.7.5s-.8.7-1.1 1.2c-.3.6-.4 1.2-.4 1.9v.2c0 1 .3 1.8.9 2.4.7.7 1.4.9 2.4.9.6 0 1.1-.1 1.7-.3.5-.2.8-.6 1.1-.9l-.9-1c-.5.5-1 .8-1.7.8-.5 0-.8-.2-1.1-.4-.3-.2-.5-.6-.6-1h4.3v-1c0-1.1-.3-2-.8-2.5-.4-.6-1.1-.8-2.1-.8zm1.2 3h-2.5c.1-.5.3-.7.5-1 .2-.3.5-.4.8-.4.4-.1.7.1.9.3.2.2.3.6.3.9v.2zM42.5 12.8h1.9v6.8h-1.9zM71.8 11.1c-.7-.4-1.3-.6-2.2-.6h-2.8v9.2h2.8c.8 0 1.5-.2 2.2-.6.7-.3 1.1-.8 1.5-1.5.4-.7.6-1.4.6-2.3v-.5c0-.8-.2-1.6-.6-2.2-.4-.6-.8-1.2-1.5-1.5zm.1 4.2c0 .8-.2 1.6-.6 2.1s-.9.7-1.7.7h-.9V11.9h.9c.8 0 1.3.3 1.7.7s.6 1.2.6 2.2v.5zM95.7 12.7c-.7 0-1.2.2-1.7.5s-.8.8-1.1 1.2c-.3.5-.4 1.1-.4 1.8 0 1.2.3 2.1.8 2.7s1.4.9 2.3.9 1.8-.3 2.3-.9c.6-.7.8-1.5.8-2.5v-.5c0-1-.4-1.8-.9-2.3-.4-.6-1.1-.9-2.1-.9zm1.1 5.2c-.2.3-.7.5-1 .5-.5 0-.8-.2-1-.6-.3-.4-.4-.8-.4-1.5s.1-1.1.4-1.5c.3-.4.6-.6 1-.6s.8.2 1 .6c.3.4.4.8.4 1.5-.1.8-.2 1.2-.4 1.6zM77.9 12.7c-.7 0-1.2.2-1.7.5s-.8.7-1.1 1.2c-.3.5-.4 1.1-.4 1.8 0 1.1.3 2.1.8 2.7s1.4.9 2.3.9 1.8-.3 2.3-.9.8-1.5.8-2.5v-.5c0-1-.4-1.8-.9-2.3-.4-.6-1.2-.9-2.1-.9zm1 5.2c-.2.3-.7.5-1 .5-.5 0-.8-.2-1-.6-.3-.4-.4-.8-.4-1.5s.1-1.1.4-1.5c.3-.4.6-.6 1-.6s.8.2 1 .6c.3.4.4.8.4 1.5 0 .8-.1 1.2-.4 1.6zM84 14.8c.2-.3.6-.5.9-.5.3 0 .7.2.8.4.2.2.3.5.3.8h1.7c0-.8-.2-1.5-.8-2-.6-.5-1.2-.7-2.1-.7-1 0-1.8.3-2.3.9s-.8 1.5-.8 2.5v.1c0 1 .3 1.9.8 2.5s1.4.9 2.3.9c.5 0 .9-.1 1.4-.3.5-.3.8-.6 1-.9.3-.5.4-.8.4-1.3h-1.7c0 .3-.1.6-.3.7-.2.2-.5.3-.8.3s-.6 0-.8-.2c-.2-.3-.3-.8-.3-1.5v-.2c0-.6.1-1.2.3-1.5zM103.2 12.7c-.7 0-1.1.3-1.5.9l-.1-.8h-1.7v6.8h1.9V15c.2-.4.7-.7 1.3-.7.2 0 .5.1.7.1v-1.7h-.6zM91.1 18.1c-.1-.1-.2-.3-.2-.6v-3.4H92v-1.3h-1.1v-1.7l-1.8.1v1.7h-1v1.3h1v3.7c0 1.3.7 2 2 2 .4 0 .8-.1 1.1-.2v-1.4h-.6c-.2 0-.4-.1-.5-.2zM27.3 14.4h-2.1v.9l2.1.1C27 21.9 21.9 27 15.4 27.1v-1.9h-.9v1.9c-6.3-.2-11.3-5.3-11.6-11.6h1.8v-.9H2.9C3.2 8.2 8.2 3.1 14.4 2.8v1.9h.9V2.8c2.3 0 4.6.7 6.6 2.1.6-.5 1.4-1.1 2.3-1.7C21.8 1.2 18.6 0 15 0 6.8 0 0 6.7 0 15s6.8 15 15 15 15-6.8 15-15c0-3.5-1.2-6.8-3.3-9.3-.6.9-1.2 1.7-1.7 2.3 1.4 1.7 2.1 4.1 2.3 6.4zM25.8 4.5c.8-.9 1.6-1.9 2.3-2.6-.7.3-1.8 1-3 2 .2.2.4.4.7.6z"/><path class="prefix__st0" d="m14.2 14-4.5-3.6-1.5 1.5 6.9 7.9c2.6-5 6.8-10.8 10.6-15.3l-.7-.7C21.7 6.5 16.9 11 14.2 14z"/></svg>
