<svg xmlns="http://www.w3.org/2000/svg" viewBox="0 0 119.7 30" xml:space="preserve"><path class="prefix__st0" d="M28.3 18.7c-.7-.2-1.3.1-1.7.6-.1.2-.2.6-.5 1-.1.4-.4.6-.5.8-1.7 2.8-4.2 4.8-7.8 5.7-1.6.4-3.4.4-4.9 0-2.9-.6-5.1-2-6.7-4-1.6-1.9-2.9-4.5-2.8-7.9.1-3.4 1.4-5.9 3.1-7.7 1.9-2.2 4.2-3.5 7.2-4 2-.4 4.3 0 5.9.6.4.1.6.4 1 .4.8.2 1.4-.4 1.7-1 .2-.8-.1-1.6-.6-1.9-.2-.2-.6-.4-1-.5-1.6-.5-3.5-1-5.8-.8-1.7.1-3.1.4-4.6.8-1.2.5-2.3 1.3-3.4 2C4.8 4.2 3.2 6.2 2 8.6 1.4 9.8.9 11.2.7 12.7c-.2 1.6-.2 3.4 0 4.9.5 2.9 1.8 5.4 3.5 7.2 2.4 2.8 6 4.9 11 5.2 1.7 0 3.4-.2 4.7-.6 4.1-1.2 7-3.9 8.9-7.2.2-.5.7-1.2.7-1.9 0-.9-.5-1.5-1.2-1.6zm-.2-10.4c-.6 0-1.1.4-1.6.5-2.6 1.1-5.3 2.2-7.9 3.1.5-1.2 1.1-2.5 1.7-3.9.2-.5.5-.8.5-1.3.1-1.1-.6-1.9-1.6-1.8-1.1.1-1.3 1-1.7 1.8-1 2.3-2 4.7-2.9 6.9-.7.2-1.3.5-2 .8-.7.2-1.3.6-1.4 1.4-.1 1 .6 1.7 1.6 1.7.6 0 1.1-.4 1.6-.5.5-.2 1-.4 1.6-.6 2.3 1 4.8 2 7.1 3 .4.1.7.4 1.1.4.8 0 1.6-.5 1.7-1.3.1-.7-.4-1.2-.7-1.6l-1.2-.6c-1.3-.6-2.6-1.1-3.9-1.7 2.6-1.1 5.4-2.2 8.1-3.3.4-.1.8-.2 1.1-.5.5-.4.8-1.1.6-1.7-.6-.3-1.1-.7-1.8-.8zm14.4-3.6-7.1 17.7h1.3l2.4-6.3h7.1l2.4 6.3H50L43.4 4.7h-.9zM46 15.1h-6.3l2.4-6.3c.2-.6.5-1.3.7-2 .2.8.5 1.6.7 2 .1-.1 2.5 6.3 2.5 6.3zm7-10.6c-.5 0-.7.4-.7 1.2 0 .7.2 1.2.7 1.2.2 0 .5-.1.6-.4.1-.2.2-.5.2-.8 0-.4-.1-.6-.2-.8-.1-.3-.4-.4-.6-.4zm-.5 4.8h1.2v13.1h-1.2V9.3zm8.5.4c-.6.4-1.2 1.1-1.7 2h-.1L59 9.3h-1v13.1h1.2v-7.2c0-1.4.4-2.6 1.1-3.6.7-1 1.7-1.4 2.8-1.4.6 0 1.2.1 1.7.2l.2-1.2c-.6-.2-1.2-.2-1.8-.2-.9 0-1.6.2-2.2.7zm17.4 2h-7v-7h-3.7v17.6h3.7v-7.6h7v7.6h3.7V4.7h-3.7v7zm12.8-3c-2 0-3.5.6-4.7 1.8-1.1 1.2-1.7 3-1.7 5.2s.6 3.9 1.8 5.1c1.2 1.2 2.9 1.8 5.1 1.8 1.1 0 1.9-.1 2.6-.2.7-.1 1.4-.4 2-.7v-2.9c-.8.4-1.6.6-2.3.8-.7.1-1.4.2-2.3.2-1.1 0-1.8-.2-2.4-.8s-.8-1.4-1-2.4H97v-1.8c0-1.9-.5-3.4-1.6-4.5-.9-1.1-2.3-1.6-4.2-1.6zm-2.6 5.4c.1-1 .4-1.6.7-2 .5-.5 1.1-.7 1.8-.7s1.4.2 1.8.7c.5.5.7 1.2.7 2h-5zm11.6-10.5h3.6v18.8h-3.6V3.6zm18.2 6.9c-.8-1.2-2.2-1.8-3.7-1.8-1.7 0-3 .7-3.9 2h-.1l-.5-1.8h-3v19.4h3.6v-5.4c0-.1-.1-.8-.2-1.9h.2c.8 1.2 2.2 1.7 3.7 1.7 1.1 0 1.9-.2 2.8-.8.7-.6 1.3-1.3 1.8-2.4.4-1.1.6-2.3.6-3.7 0-2.4-.5-4.1-1.3-5.3zm-4.9 9.1c-1 0-1.6-.4-2-1-.5-.6-.6-1.7-.6-3.1v-.4c0-1.3.2-2.2.6-2.8.4-.6 1.1-.8 1.9-.8.8 0 1.4.4 1.9 1 .4.6.6 1.7.6 3 .1 2.8-.8 4.1-2.4 4.1z"/></svg>
