<svg xmlns="http://www.w3.org/2000/svg" viewBox="0 0 75.9 30" xml:space="preserve"><path class="prefix__st0" d="M73.1 1.2c0-.1 0-.1 0 0 0-.2-.1-.2-.1-.2H72.7v.4h.4v-.2c-.1.1 0 0 0 0m.6 1.1h-.5l-.5-.5h-.2v.5h-.4V.7H73c.1 0 .1 0 .2.1.1 0 .1.1.2.1v.2c0 .1 0 .2-.1.3 0 .1-.1.1-.3.2l.7.7zm.3-.8c0-.3-.1-.6-.3-.8-.3-.3-.5-.4-.8-.4-.3 0-.6.1-.8.4-.3.3-.3.5-.3.8s.1.6.3.8c.3.3.5.4.8.4.3 0 .6-.1.8-.4.2-.2.3-.4.3-.8m.4 0c0 .4-.2.8-.5 1.1-.3.3-.7.5-1.1.5-.4 0-.8-.2-1.1-.5-.3-.3-.5-.7-.5-1.1s.2-.8.5-1.1c.3-.2.7-.4 1.1-.4.4 0 .8.2 1.1.5.3.3.5.6.5 1m-63.9 0c-3.8 0-7 2-8.7 4.7C.3 8.8 0 13 0 15.8s.3 7 1.8 9.5C3.5 28 6.7 30 10.5 30h55c3.8 0 7-2 8.7-4.7 1.5-2.5 1.8-6.8 1.8-9.5s-.3-7-1.8-9.5c-1.7-2.8-4.9-4.7-8.7-4.7 0-.1-55-.1-55-.1zm36.6 12.7h4.6v-.1c0-2.1-.8-2.3-2.4-2.3-1.9 0-2.2.6-2.2 2.4m-32.5-2.3c1.5 0 2.3.2 2.3 2.2v.1h-4.5c0-1.7.4-2.3 2.2-2.3m-6.4 4c0 5 1.3 6.8 6.5 6.8 2 0 3.5-.2 4.7-.8 1.1-.6 1.8-1.7 1.8-3.7H17c0 1.4-1 1.6-2.3 1.6-1.9 0-2.3-.8-2.3-3.2v-.1h8.8v-.6c0-5.4-1.5-6.8-6.5-6.8-5.4 0-6.5 1.6-6.5 6.8m15.7-2.5c0 2.7.9 3.9 6.5 3.9.5 0 1.3 0 1.8.2.4.2.6.6.6 1.3 0 1.2-.4 1.3-2.4 1.3-1.1 0-2.2 0-2.3-1.5h-4.2c0 2.9 1.4 3.9 4 4.1h2.5c3.5 0 6.5-.6 6.5-4.4 0-3.7-1.9-3.9-6.5-4-2.3 0-2.4-.5-2.4-1.3 0-.9.1-1.2 2.4-1.2.8 0 1.7.1 1.9 1.1h4v-.5c0-3.2-3.3-3.2-5.8-3.2-3.9-.1-6.6-.1-6.6 4.2m34.6-4.3h10.3v3h-3.1v10.4h-4.2V12.1h-3.1l.1-3zm-15.6 6.7c0-5.1 1.1-6.8 6.5-6.8 5 0 6.4 1.3 6.4 6.8v.6H47v.1c0 2.4.4 3.2 2.3 3.2 1.3 0 2.3-.1 2.4-1.6h4c0 1.9-.7 3-1.8 3.6-1.1.6-2.7.8-4.7.8-5 0-6.3-1.8-6.3-6.7M5.1 25c-2.1-2.3-2.6-5.8-2.6-9.2s.5-7 2.6-9.2C6.4 5.1 9 4 11.2 4h28.4v23.4H11.2c-2.2.1-4.8-1-6.1-2.4"/></svg>
